%TF.GenerationSoftware,KiCad,Pcbnew,7.0.7-7.0.7~ubuntu20.04.1*%
%TF.CreationDate,2023-08-24T10:10:08-04:00*%
%TF.ProjectId,board_pf_cese,626f6172-645f-4706-965f-636573652e6b,rev?*%
%TF.SameCoordinates,Original*%
%TF.FileFunction,Copper,L2,Bot*%
%TF.FilePolarity,Positive*%
%FSLAX46Y46*%
G04 Gerber Fmt 4.6, Leading zero omitted, Abs format (unit mm)*
G04 Created by KiCad (PCBNEW 7.0.7-7.0.7~ubuntu20.04.1) date 2023-08-24 10:10:08*
%MOMM*%
%LPD*%
G01*
G04 APERTURE LIST*
%TA.AperFunction,ComponentPad*%
%ADD10R,2.200000X2.200000*%
%TD*%
%TA.AperFunction,ComponentPad*%
%ADD11C,2.200000*%
%TD*%
%TA.AperFunction,ComponentPad*%
%ADD12O,1.700000X1.700000*%
%TD*%
%TA.AperFunction,ComponentPad*%
%ADD13R,1.700000X1.700000*%
%TD*%
%TA.AperFunction,ComponentPad*%
%ADD14C,1.600000*%
%TD*%
%TA.AperFunction,ComponentPad*%
%ADD15O,1.600000X1.600000*%
%TD*%
%TA.AperFunction,ComponentPad*%
%ADD16R,1.800000X1.800000*%
%TD*%
%TA.AperFunction,ComponentPad*%
%ADD17C,1.800000*%
%TD*%
%TA.AperFunction,ViaPad*%
%ADD18C,0.800000*%
%TD*%
%TA.AperFunction,ViaPad*%
%ADD19C,1.600000*%
%TD*%
%TA.AperFunction,Conductor*%
%ADD20C,1.000000*%
%TD*%
G04 APERTURE END LIST*
D10*
%TO.P,J10,1,Pin_1*%
%TO.N,+12V*%
X144000000Y-81540000D03*
D11*
%TO.P,J10,2,Pin_2*%
%TO.N,GND*%
X144000000Y-79000000D03*
%TD*%
D12*
%TO.P,J5,4,Pin_4*%
%TO.N,/SDA*%
X136620000Y-127000000D03*
%TO.P,J5,3,Pin_3*%
%TO.N,/SCL*%
X134080000Y-127000000D03*
%TO.P,J5,2,Pin_2*%
%TO.N,GND*%
X131540000Y-127000000D03*
D13*
%TO.P,J5,1,Pin_1*%
%TO.N,+3.3V*%
X129000000Y-127000000D03*
%TD*%
%TO.P,J8,1,Pin_1*%
%TO.N,unconnected-(J8-Pin_1-Pad1)*%
X109000000Y-71000000D03*
D12*
%TO.P,J8,2,Pin_2*%
%TO.N,/OR*%
X109000000Y-73540000D03*
%TO.P,J8,3,Pin_3*%
%TO.N,unconnected-(J8-Pin_3-Pad3)*%
X109000000Y-76080000D03*
%TO.P,J8,4,Pin_4*%
%TO.N,unconnected-(J8-Pin_4-Pad4)*%
X109000000Y-78620000D03*
%TO.P,J8,5,Pin_5*%
%TO.N,unconnected-(J8-Pin_5-Pad5)*%
X109000000Y-81160000D03*
%TO.P,J8,6,Pin_6*%
%TO.N,unconnected-(J8-Pin_6-Pad6)*%
X109000000Y-83700000D03*
%TO.P,J8,7,Pin_7*%
%TO.N,+3.3V*%
X109000000Y-86240000D03*
%TO.P,J8,8,Pin_8*%
%TO.N,GND*%
X109000000Y-88780000D03*
%TD*%
D14*
%TO.P,R1,1*%
%TO.N,/SO*%
X134840000Y-94000000D03*
D15*
%TO.P,R1,2*%
%TO.N,Net-(D1-A)*%
X145000000Y-94000000D03*
%TD*%
D10*
%TO.P,J1,1,Pin_1*%
%TO.N,+5V*%
X144000000Y-74540000D03*
D11*
%TO.P,J1,2,Pin_2*%
%TO.N,GND*%
X144000000Y-72000000D03*
%TD*%
D16*
%TO.P,D2,1,K*%
%TO.N,GND*%
X139000000Y-86460000D03*
D17*
%TO.P,D2,2,A*%
%TO.N,Net-(D2-A)*%
X139000000Y-89000000D03*
%TD*%
D13*
%TO.P,J7,1,Pin_1*%
%TO.N,/M_TX*%
X142560000Y-100760000D03*
D12*
%TO.P,J7,2,Pin_2*%
%TO.N,/M_RX*%
X140020000Y-100760000D03*
%TO.P,J7,3,Pin_3*%
%TO.N,unconnected-(J7-Pin_3-Pad3)*%
X137480000Y-100760000D03*
%TO.P,J7,4,Pin_4*%
%TO.N,GND*%
X134940000Y-100760000D03*
%TO.P,J7,5,Pin_5*%
%TO.N,/OR*%
X132400000Y-100760000D03*
%TO.P,J7,6,Pin_6*%
%TO.N,/SO*%
X129860000Y-100760000D03*
%TO.P,J7,7,Pin_7*%
%TO.N,unconnected-(J7-Pin_7-Pad7)*%
X127320000Y-100760000D03*
%TO.P,J7,8,Pin_8*%
%TO.N,unconnected-(J7-Pin_8-Pad8)*%
X124780000Y-100760000D03*
%TO.P,J7,9,Pin_9*%
%TO.N,unconnected-(J7-Pin_9-Pad9)*%
X122240000Y-100760000D03*
%TO.P,J7,10,Pin_10*%
%TO.N,unconnected-(J7-Pin_10-Pad10)*%
X119700000Y-100760000D03*
%TO.P,J7,11,Pin_11*%
%TO.N,unconnected-(J7-Pin_11-Pad11)*%
X117160000Y-100760000D03*
%TO.P,J7,12,Pin_12*%
%TO.N,unconnected-(J7-Pin_12-Pad12)*%
X114620000Y-100760000D03*
%TO.P,J7,13,Pin_13*%
%TO.N,/SE*%
X112080000Y-100760000D03*
%TO.P,J7,14,Pin_14*%
%TO.N,unconnected-(J7-Pin_14-Pad14)*%
X109540000Y-100760000D03*
%TO.P,J7,15,Pin_15*%
%TO.N,/SDA*%
X107000000Y-100760000D03*
%TD*%
D13*
%TO.P,J3,1,Pin_1*%
%TO.N,+3.3V*%
X128920000Y-122000000D03*
D12*
%TO.P,J3,2,Pin_2*%
%TO.N,GND*%
X131460000Y-122000000D03*
%TO.P,J3,3,Pin_3*%
%TO.N,unconnected-(J3-Pin_3-Pad3)*%
X134000000Y-122000000D03*
%TO.P,J3,4,Pin_4*%
%TO.N,Net-(J3-Pin_4)*%
X136540000Y-122000000D03*
%TD*%
D14*
%TO.P,R2,1*%
%TO.N,/SE*%
X120920000Y-94000000D03*
D15*
%TO.P,R2,2*%
%TO.N,Net-(D2-A)*%
X131080000Y-94000000D03*
%TD*%
D13*
%TO.P,J9,1,Pin_1*%
%TO.N,unconnected-(J9-Pin_1-Pad1)*%
X131860000Y-71000000D03*
D12*
%TO.P,J9,2,Pin_2*%
%TO.N,unconnected-(J9-Pin_2-Pad2)*%
X131860000Y-73540000D03*
%TO.P,J9,3,Pin_3*%
%TO.N,/M_TX*%
X131860000Y-76080000D03*
%TO.P,J9,4,Pin_4*%
%TO.N,/M_RX*%
X131860000Y-78620000D03*
%TO.P,J9,5,Pin_5*%
%TO.N,unconnected-(J9-Pin_5-Pad5)*%
X131860000Y-81160000D03*
%TO.P,J9,6,Pin_6*%
%TO.N,unconnected-(J9-Pin_6-Pad6)*%
X131860000Y-83700000D03*
%TO.P,J9,7,Pin_7*%
%TO.N,+5V*%
X131860000Y-86240000D03*
%TO.P,J9,8,Pin_8*%
%TO.N,GND*%
X131860000Y-88780000D03*
%TD*%
D13*
%TO.P,J2,1,Pin_1*%
%TO.N,+3.3V*%
X114000000Y-122000000D03*
D12*
%TO.P,J2,2,Pin_2*%
%TO.N,GND*%
X116540000Y-122000000D03*
%TO.P,J2,3,Pin_3*%
%TO.N,unconnected-(J2-Pin_3-Pad3)*%
X119080000Y-122000000D03*
%TO.P,J2,4,Pin_4*%
%TO.N,Net-(J2-Pin_4)*%
X121620000Y-122000000D03*
%TD*%
D16*
%TO.P,D1,1,K*%
%TO.N,GND*%
X145000000Y-86460000D03*
D17*
%TO.P,D1,2,A*%
%TO.N,Net-(D1-A)*%
X145000000Y-89000000D03*
%TD*%
D13*
%TO.P,J4,1,Pin_1*%
%TO.N,+3.3V*%
X114000000Y-127000000D03*
D12*
%TO.P,J4,2,Pin_2*%
%TO.N,GND*%
X116540000Y-127000000D03*
%TO.P,J4,3,Pin_3*%
%TO.N,Net-(J4-Pin_3)*%
X119080000Y-127000000D03*
%TO.P,J4,4,Pin_4*%
%TO.N,unconnected-(J4-Pin_4-Pad4)*%
X121620000Y-127000000D03*
%TD*%
D13*
%TO.P,J6,1,Pin_1*%
%TO.N,+12V*%
X142560000Y-116000000D03*
D12*
%TO.P,J6,2,Pin_2*%
%TO.N,GND*%
X140020000Y-116000000D03*
%TO.P,J6,3,Pin_3*%
%TO.N,unconnected-(J6-Pin_3-Pad3)*%
X137480000Y-116000000D03*
%TO.P,J6,4,Pin_4*%
%TO.N,unconnected-(J6-Pin_4-Pad4)*%
X134940000Y-116000000D03*
%TO.P,J6,5,Pin_5*%
%TO.N,unconnected-(J6-Pin_5-Pad5)*%
X132400000Y-116000000D03*
%TO.P,J6,6,Pin_6*%
%TO.N,/SCL*%
X129860000Y-116000000D03*
%TO.P,J6,7,Pin_7*%
%TO.N,unconnected-(J6-Pin_7-Pad7)*%
X127320000Y-116000000D03*
%TO.P,J6,8,Pin_8*%
%TO.N,Net-(J3-Pin_4)*%
X124780000Y-116000000D03*
%TO.P,J6,9,Pin_9*%
%TO.N,Net-(J2-Pin_4)*%
X122240000Y-116000000D03*
%TO.P,J6,10,Pin_10*%
%TO.N,Net-(J4-Pin_3)*%
X119700000Y-116000000D03*
%TO.P,J6,11,Pin_11*%
%TO.N,unconnected-(J6-Pin_11-Pad11)*%
X117160000Y-116000000D03*
%TO.P,J6,12,Pin_12*%
%TO.N,unconnected-(J6-Pin_12-Pad12)*%
X114620000Y-116000000D03*
%TO.P,J6,13,Pin_13*%
%TO.N,unconnected-(J6-Pin_13-Pad13)*%
X112080000Y-116000000D03*
%TO.P,J6,14,Pin_14*%
%TO.N,+3.3V*%
X109540000Y-116000000D03*
%TO.P,J6,15,Pin_15*%
%TO.N,unconnected-(J6-Pin_15-Pad15)*%
X107000000Y-116000000D03*
%TD*%
D18*
%TO.N,GND*%
X125000000Y-89000000D03*
X135000000Y-98000000D03*
D19*
X139000000Y-84000000D03*
%TD*%
D20*
%TO.N,/M_RX*%
X128500000Y-94500000D02*
X128500000Y-79500000D01*
X128500000Y-79500000D02*
X129380000Y-78620000D01*
X129380000Y-78620000D02*
X131860000Y-78620000D01*
%TO.N,/M_TX*%
X135000000Y-78017919D02*
X135000000Y-91000000D01*
X133062081Y-76080000D02*
X135000000Y-78017919D01*
X131860000Y-76080000D02*
X133062081Y-76080000D01*
X135000000Y-91000000D02*
X142560000Y-98560000D01*
%TO.N,/M_RX*%
X130000000Y-96000000D02*
X128500000Y-94500000D01*
X136462081Y-96000000D02*
X130000000Y-96000000D01*
X140020000Y-99557919D02*
X136462081Y-96000000D01*
X140020000Y-100760000D02*
X140020000Y-99557919D01*
%TO.N,+12V*%
X145000000Y-98000000D02*
X145000000Y-113000000D01*
X142000000Y-95000000D02*
X145000000Y-98000000D01*
X144000000Y-81540000D02*
X142000000Y-83540000D01*
X142000000Y-83540000D02*
X142000000Y-95000000D01*
X142560000Y-115440000D02*
X142560000Y-116000000D01*
X145000000Y-113000000D02*
X142560000Y-115440000D01*
%TO.N,/M_TX*%
X142560000Y-98560000D02*
X142560000Y-100760000D01*
%TO.N,/OR*%
X113400000Y-97500000D02*
X111600000Y-95700000D01*
X130342081Y-97500000D02*
X113400000Y-97500000D01*
X111600000Y-95700000D02*
X111600000Y-74800000D01*
X111600000Y-74800000D02*
X110340000Y-73540000D01*
X132400000Y-99557919D02*
X130342081Y-97500000D01*
X110340000Y-73540000D02*
X109000000Y-73540000D01*
X132400000Y-100760000D02*
X132400000Y-99557919D01*
%TD*%
%TA.AperFunction,Conductor*%
%TO.N,GND*%
G36*
X136060024Y-97028185D02*
G01*
X136080666Y-97044819D01*
X138878726Y-99842879D01*
X138912211Y-99904202D01*
X138907227Y-99973894D01*
X138894853Y-99998383D01*
X138853807Y-100061207D01*
X138800660Y-100106563D01*
X138731429Y-100115986D01*
X138668093Y-100086483D01*
X138646191Y-100061206D01*
X138555722Y-99922732D01*
X138555717Y-99922727D01*
X138555715Y-99922723D01*
X138403243Y-99757097D01*
X138403238Y-99757092D01*
X138225577Y-99618812D01*
X138225572Y-99618808D01*
X138027580Y-99511661D01*
X138027577Y-99511659D01*
X138027574Y-99511658D01*
X138027571Y-99511657D01*
X138027569Y-99511656D01*
X137814637Y-99438556D01*
X137592569Y-99401500D01*
X137367431Y-99401500D01*
X137145362Y-99438556D01*
X136932430Y-99511656D01*
X136932419Y-99511661D01*
X136734427Y-99618808D01*
X136734422Y-99618812D01*
X136556761Y-99757092D01*
X136556756Y-99757097D01*
X136404284Y-99922723D01*
X136404276Y-99922734D01*
X136310251Y-100066650D01*
X136257105Y-100112007D01*
X136187873Y-100121430D01*
X136124538Y-100091928D01*
X136104868Y-100069951D01*
X135978113Y-99888926D01*
X135978108Y-99888920D01*
X135811082Y-99721894D01*
X135617578Y-99586399D01*
X135403492Y-99486570D01*
X135403486Y-99486567D01*
X135190000Y-99429364D01*
X135190000Y-100147698D01*
X135170315Y-100214737D01*
X135117511Y-100260492D01*
X135048355Y-100270436D01*
X134975766Y-100260000D01*
X134975763Y-100260000D01*
X134904237Y-100260000D01*
X134904233Y-100260000D01*
X134831645Y-100270436D01*
X134762487Y-100260492D01*
X134709684Y-100214736D01*
X134690000Y-100147698D01*
X134690000Y-99429364D01*
X134689999Y-99429364D01*
X134476513Y-99486567D01*
X134476507Y-99486570D01*
X134262422Y-99586399D01*
X134262420Y-99586400D01*
X134068926Y-99721886D01*
X134068920Y-99721891D01*
X133901891Y-99888920D01*
X133901890Y-99888922D01*
X133775131Y-100069952D01*
X133720554Y-100113577D01*
X133651055Y-100120769D01*
X133588701Y-100089247D01*
X133569752Y-100066656D01*
X133475722Y-99922732D01*
X133441270Y-99885307D01*
X133410348Y-99822654D01*
X133408500Y-99801325D01*
X133408500Y-99610516D01*
X133408799Y-99604436D01*
X133411352Y-99578506D01*
X133413380Y-99557919D01*
X133393909Y-99360218D01*
X133336684Y-99171578D01*
X133336320Y-99170262D01*
X133242598Y-98994920D01*
X133242594Y-98994913D01*
X133116568Y-98841351D01*
X133080432Y-98811695D01*
X133075930Y-98807615D01*
X131488496Y-97220181D01*
X131455011Y-97158858D01*
X131459995Y-97089166D01*
X131501867Y-97033233D01*
X131567331Y-97008816D01*
X131576177Y-97008500D01*
X135992985Y-97008500D01*
X136060024Y-97028185D01*
G37*
%TD.AperFunction*%
%TA.AperFunction,Conductor*%
G36*
X132749107Y-77201323D02*
G01*
X132779422Y-77223575D01*
X133955180Y-78399333D01*
X133988665Y-78460656D01*
X133991499Y-78487014D01*
X133991499Y-90947404D01*
X133991200Y-90953484D01*
X133986620Y-90999997D01*
X133986620Y-90999999D01*
X134006090Y-91197699D01*
X134063807Y-91387966D01*
X134064485Y-91389163D01*
X134157405Y-91563005D01*
X134283430Y-91716567D01*
X134319566Y-91746222D01*
X134324067Y-91750301D01*
X134888019Y-92314254D01*
X135059659Y-92485894D01*
X135093144Y-92547217D01*
X135088160Y-92616909D01*
X135046288Y-92672842D01*
X134980824Y-92697259D01*
X134961171Y-92697103D01*
X134840002Y-92686502D01*
X134839998Y-92686502D01*
X134611918Y-92706456D01*
X134611910Y-92706457D01*
X134390761Y-92765714D01*
X134390750Y-92765718D01*
X134183254Y-92862475D01*
X134183252Y-92862476D01*
X134183249Y-92862477D01*
X134183251Y-92862477D01*
X133995700Y-92993802D01*
X133995698Y-92993803D01*
X133995695Y-92993806D01*
X133833806Y-93155695D01*
X133702476Y-93343252D01*
X133702475Y-93343254D01*
X133605718Y-93550750D01*
X133605714Y-93550761D01*
X133546457Y-93771910D01*
X133546456Y-93771918D01*
X133526502Y-93999998D01*
X133526502Y-94000001D01*
X133546456Y-94228081D01*
X133546457Y-94228089D01*
X133605714Y-94449238D01*
X133605718Y-94449249D01*
X133667745Y-94582266D01*
X133702477Y-94656749D01*
X133800246Y-94796378D01*
X133822573Y-94862582D01*
X133805563Y-94930350D01*
X133754615Y-94978163D01*
X133698671Y-94991500D01*
X132221329Y-94991500D01*
X132154290Y-94971815D01*
X132108535Y-94919011D01*
X132098591Y-94849853D01*
X132119752Y-94796378D01*
X132217523Y-94656749D01*
X132314284Y-94449243D01*
X132373543Y-94228087D01*
X132393498Y-94000000D01*
X132373543Y-93771913D01*
X132314284Y-93550757D01*
X132217523Y-93343251D01*
X132086198Y-93155700D01*
X131924300Y-92993802D01*
X131736749Y-92862477D01*
X131736745Y-92862475D01*
X131529249Y-92765718D01*
X131529238Y-92765714D01*
X131308089Y-92706457D01*
X131308081Y-92706456D01*
X131080002Y-92686502D01*
X131079998Y-92686502D01*
X130851918Y-92706456D01*
X130851910Y-92706457D01*
X130630761Y-92765714D01*
X130630750Y-92765718D01*
X130423254Y-92862475D01*
X130423252Y-92862476D01*
X130423249Y-92862477D01*
X130423251Y-92862477D01*
X130235700Y-92993802D01*
X130235698Y-92993803D01*
X130235695Y-92993806D01*
X130073806Y-93155695D01*
X129942476Y-93343252D01*
X129942475Y-93343254D01*
X129845718Y-93550750D01*
X129845714Y-93550761D01*
X129786457Y-93771910D01*
X129786456Y-93771918D01*
X129766502Y-93999998D01*
X129766502Y-94000005D01*
X129769432Y-94033503D01*
X129755664Y-94102003D01*
X129707048Y-94152185D01*
X129639019Y-94168117D01*
X129573176Y-94144740D01*
X129558232Y-94131998D01*
X129544818Y-94118584D01*
X129511334Y-94057267D01*
X129508500Y-94030913D01*
X129508500Y-79969095D01*
X129528185Y-79902057D01*
X129544819Y-79881415D01*
X129761415Y-79664819D01*
X129822738Y-79631334D01*
X129849096Y-79628500D01*
X130901377Y-79628500D01*
X130968416Y-79648185D01*
X130977539Y-79654647D01*
X131114420Y-79761186D01*
X131114433Y-79761195D01*
X131150930Y-79780946D01*
X131200520Y-79830165D01*
X131215628Y-79898382D01*
X131191457Y-79963937D01*
X131150930Y-79999054D01*
X131114431Y-80018806D01*
X131114422Y-80018812D01*
X130936761Y-80157092D01*
X130936756Y-80157097D01*
X130784284Y-80322723D01*
X130784276Y-80322734D01*
X130661140Y-80511207D01*
X130570703Y-80717385D01*
X130515436Y-80935628D01*
X130515434Y-80935640D01*
X130496844Y-81159994D01*
X130496844Y-81160005D01*
X130515434Y-81384359D01*
X130515436Y-81384371D01*
X130570703Y-81602614D01*
X130661140Y-81808792D01*
X130784276Y-81997265D01*
X130784284Y-81997276D01*
X130935097Y-82161100D01*
X130936760Y-82162906D01*
X131114424Y-82301189D01*
X131114429Y-82301191D01*
X131114431Y-82301193D01*
X131150930Y-82320946D01*
X131200520Y-82370165D01*
X131215628Y-82438382D01*
X131191457Y-82503937D01*
X131150930Y-82539054D01*
X131114431Y-82558806D01*
X131114422Y-82558812D01*
X130936761Y-82697092D01*
X130936756Y-82697097D01*
X130784284Y-82862723D01*
X130784276Y-82862734D01*
X130661140Y-83051207D01*
X130570703Y-83257385D01*
X130515436Y-83475628D01*
X130515434Y-83475640D01*
X130496844Y-83699994D01*
X130496844Y-83700005D01*
X130515434Y-83924359D01*
X130515436Y-83924371D01*
X130570703Y-84142614D01*
X130661140Y-84348792D01*
X130784276Y-84537265D01*
X130784284Y-84537276D01*
X130936756Y-84702902D01*
X130936760Y-84702906D01*
X131114424Y-84841189D01*
X131114429Y-84841191D01*
X131114431Y-84841193D01*
X131150930Y-84860946D01*
X131200520Y-84910165D01*
X131215628Y-84978382D01*
X131191457Y-85043937D01*
X131150930Y-85079054D01*
X131114431Y-85098806D01*
X131114422Y-85098812D01*
X130936761Y-85237092D01*
X130936756Y-85237097D01*
X130784284Y-85402723D01*
X130784276Y-85402734D01*
X130661140Y-85591207D01*
X130570703Y-85797385D01*
X130515436Y-86015628D01*
X130515434Y-86015640D01*
X130496844Y-86239994D01*
X130496844Y-86240005D01*
X130515434Y-86464359D01*
X130515436Y-86464371D01*
X130570703Y-86682614D01*
X130661140Y-86888792D01*
X130784276Y-87077265D01*
X130784284Y-87077276D01*
X130936756Y-87242902D01*
X130936760Y-87242906D01*
X131114424Y-87381189D01*
X131157693Y-87404605D01*
X131157695Y-87404606D01*
X131207286Y-87453825D01*
X131222394Y-87522042D01*
X131198224Y-87587597D01*
X131169802Y-87615236D01*
X130988922Y-87741890D01*
X130988920Y-87741891D01*
X130821891Y-87908920D01*
X130821886Y-87908926D01*
X130686400Y-88102420D01*
X130686399Y-88102422D01*
X130586570Y-88316507D01*
X130586567Y-88316513D01*
X130529364Y-88529999D01*
X130529364Y-88530000D01*
X131246653Y-88530000D01*
X131313692Y-88549685D01*
X131359447Y-88602489D01*
X131369391Y-88671647D01*
X131365631Y-88688933D01*
X131360000Y-88708111D01*
X131360000Y-88851888D01*
X131365631Y-88871067D01*
X131365630Y-88940936D01*
X131327855Y-88999714D01*
X131264299Y-89028738D01*
X131246653Y-89030000D01*
X130529364Y-89030000D01*
X130586567Y-89243486D01*
X130586570Y-89243492D01*
X130686399Y-89457578D01*
X130821894Y-89651082D01*
X130988917Y-89818105D01*
X131182421Y-89953600D01*
X131396507Y-90053429D01*
X131396516Y-90053433D01*
X131610000Y-90110634D01*
X131610000Y-89392301D01*
X131629685Y-89325262D01*
X131682489Y-89279507D01*
X131751647Y-89269563D01*
X131824237Y-89280000D01*
X131824238Y-89280000D01*
X131895762Y-89280000D01*
X131895763Y-89280000D01*
X131968353Y-89269563D01*
X132037512Y-89279507D01*
X132090315Y-89325262D01*
X132110000Y-89392301D01*
X132110000Y-90110633D01*
X132323483Y-90053433D01*
X132323492Y-90053429D01*
X132537578Y-89953600D01*
X132731082Y-89818105D01*
X132898105Y-89651082D01*
X133033600Y-89457578D01*
X133133429Y-89243492D01*
X133133432Y-89243486D01*
X133190636Y-89030000D01*
X132473347Y-89030000D01*
X132406308Y-89010315D01*
X132360553Y-88957511D01*
X132350609Y-88888353D01*
X132354369Y-88871067D01*
X132360000Y-88851888D01*
X132360000Y-88708111D01*
X132354369Y-88688933D01*
X132354370Y-88619064D01*
X132392145Y-88560286D01*
X132455701Y-88531262D01*
X132473347Y-88530000D01*
X133190636Y-88530000D01*
X133190635Y-88529999D01*
X133133432Y-88316513D01*
X133133429Y-88316507D01*
X133033600Y-88102422D01*
X133033599Y-88102420D01*
X132898113Y-87908926D01*
X132898108Y-87908920D01*
X132731082Y-87741894D01*
X132550197Y-87615236D01*
X132506572Y-87560659D01*
X132499380Y-87491160D01*
X132530902Y-87428806D01*
X132562300Y-87404608D01*
X132605576Y-87381189D01*
X132783240Y-87242906D01*
X132935722Y-87077268D01*
X133058860Y-86888791D01*
X133149296Y-86682616D01*
X133204564Y-86464368D01*
X133212976Y-86362858D01*
X133223156Y-86240005D01*
X133223156Y-86239994D01*
X133204565Y-86015640D01*
X133204563Y-86015628D01*
X133174904Y-85898507D01*
X133149296Y-85797384D01*
X133058860Y-85591209D01*
X132935722Y-85402732D01*
X132935719Y-85402729D01*
X132935715Y-85402723D01*
X132783243Y-85237097D01*
X132783238Y-85237092D01*
X132605577Y-85098812D01*
X132605578Y-85098812D01*
X132605576Y-85098811D01*
X132569070Y-85079055D01*
X132519479Y-85029836D01*
X132504371Y-84961619D01*
X132528541Y-84896064D01*
X132569070Y-84860945D01*
X132569084Y-84860936D01*
X132605576Y-84841189D01*
X132783240Y-84702906D01*
X132935722Y-84537268D01*
X133058860Y-84348791D01*
X133149296Y-84142616D01*
X133204564Y-83924368D01*
X133223156Y-83700000D01*
X133214256Y-83592597D01*
X133204565Y-83475640D01*
X133204563Y-83475628D01*
X133149296Y-83257385D01*
X133103157Y-83152198D01*
X133058860Y-83051209D01*
X132935722Y-82862732D01*
X132935719Y-82862729D01*
X132935715Y-82862723D01*
X132783243Y-82697097D01*
X132783238Y-82697092D01*
X132605577Y-82558812D01*
X132605578Y-82558812D01*
X132605576Y-82558811D01*
X132569070Y-82539055D01*
X132519479Y-82489836D01*
X132504371Y-82421619D01*
X132528541Y-82356064D01*
X132569070Y-82320945D01*
X132577387Y-82316444D01*
X132605576Y-82301189D01*
X132783240Y-82162906D01*
X132935722Y-81997268D01*
X133058860Y-81808791D01*
X133149296Y-81602616D01*
X133204564Y-81384368D01*
X133210086Y-81317729D01*
X133223156Y-81160005D01*
X133223156Y-81159994D01*
X133204565Y-80935640D01*
X133204563Y-80935628D01*
X133160989Y-80763558D01*
X133149296Y-80717384D01*
X133058860Y-80511209D01*
X132935722Y-80322732D01*
X132935719Y-80322729D01*
X132935715Y-80322723D01*
X132783243Y-80157097D01*
X132783238Y-80157092D01*
X132605577Y-80018812D01*
X132605578Y-80018812D01*
X132605576Y-80018811D01*
X132569070Y-79999055D01*
X132519479Y-79949836D01*
X132504371Y-79881619D01*
X132528541Y-79816064D01*
X132569070Y-79780945D01*
X132577387Y-79776444D01*
X132605576Y-79761189D01*
X132783240Y-79622906D01*
X132882614Y-79514957D01*
X132935715Y-79457276D01*
X132935716Y-79457274D01*
X132935722Y-79457268D01*
X133058860Y-79268791D01*
X133149296Y-79062616D01*
X133204564Y-78844368D01*
X133204875Y-78840616D01*
X133223156Y-78620005D01*
X133223156Y-78619994D01*
X133204565Y-78395640D01*
X133204563Y-78395628D01*
X133160989Y-78223558D01*
X133149296Y-78177384D01*
X133058860Y-77971209D01*
X132935722Y-77782732D01*
X132935719Y-77782729D01*
X132935715Y-77782723D01*
X132783243Y-77617097D01*
X132783238Y-77617092D01*
X132664797Y-77524905D01*
X132605576Y-77478811D01*
X132605575Y-77478810D01*
X132605572Y-77478808D01*
X132569068Y-77459053D01*
X132519478Y-77409833D01*
X132504371Y-77341616D01*
X132528542Y-77276061D01*
X132569069Y-77240945D01*
X132605576Y-77221189D01*
X132615575Y-77213406D01*
X132680566Y-77187761D01*
X132749107Y-77201323D01*
G37*
%TD.AperFunction*%
%TA.AperFunction,Conductor*%
G36*
X147867539Y-64095185D02*
G01*
X147913294Y-64147989D01*
X147924500Y-64199500D01*
X147924500Y-129800500D01*
X147904815Y-129867539D01*
X147852011Y-129913294D01*
X147800500Y-129924500D01*
X102199500Y-129924500D01*
X102132461Y-129904815D01*
X102086706Y-129852011D01*
X102075500Y-129800500D01*
X102075500Y-127056330D01*
X103745710Y-127056330D01*
X103775925Y-127279387D01*
X103775926Y-127279390D01*
X103845483Y-127493465D01*
X103952146Y-127691678D01*
X103952148Y-127691681D01*
X104092489Y-127867663D01*
X104092491Y-127867664D01*
X104092492Y-127867666D01*
X104262004Y-128015765D01*
X104455236Y-128131215D01*
X104665976Y-128210307D01*
X104887450Y-128250500D01*
X104887453Y-128250500D01*
X105056148Y-128250500D01*
X105056155Y-128250500D01*
X105224188Y-128235377D01*
X105224192Y-128235376D01*
X105441160Y-128175496D01*
X105441162Y-128175495D01*
X105441170Y-128175493D01*
X105643973Y-128077829D01*
X105826078Y-127945522D01*
X105870888Y-127898654D01*
X112641500Y-127898654D01*
X112648011Y-127959202D01*
X112648011Y-127959204D01*
X112699110Y-128096204D01*
X112699111Y-128096204D01*
X112786739Y-128213261D01*
X112903796Y-128300889D01*
X113040799Y-128351989D01*
X113068050Y-128354918D01*
X113101345Y-128358499D01*
X113101362Y-128358500D01*
X114898638Y-128358500D01*
X114898654Y-128358499D01*
X114925692Y-128355591D01*
X114959201Y-128351989D01*
X115096204Y-128300889D01*
X115213261Y-128213261D01*
X115300889Y-128096204D01*
X115349223Y-127966615D01*
X115391093Y-127910686D01*
X115456557Y-127886269D01*
X115524830Y-127901121D01*
X115553084Y-127922272D01*
X115668917Y-128038105D01*
X115862421Y-128173600D01*
X116076507Y-128273429D01*
X116076516Y-128273433D01*
X116290000Y-128330634D01*
X116290000Y-127612301D01*
X116309685Y-127545262D01*
X116362489Y-127499507D01*
X116431647Y-127489563D01*
X116504237Y-127500000D01*
X116504238Y-127500000D01*
X116575762Y-127500000D01*
X116575763Y-127500000D01*
X116648352Y-127489563D01*
X116717510Y-127499507D01*
X116770314Y-127545261D01*
X116789999Y-127612301D01*
X116789999Y-128330634D01*
X117003483Y-128273433D01*
X117003492Y-128273429D01*
X117217578Y-128173600D01*
X117411082Y-128038105D01*
X117578105Y-127871082D01*
X117704868Y-127690048D01*
X117759445Y-127646423D01*
X117828944Y-127639231D01*
X117891298Y-127670753D01*
X117910251Y-127693350D01*
X118004276Y-127837265D01*
X118004284Y-127837276D01*
X118123355Y-127966619D01*
X118156760Y-128002906D01*
X118334424Y-128141189D01*
X118334425Y-128141189D01*
X118334427Y-128141191D01*
X118397812Y-128175493D01*
X118532426Y-128248342D01*
X118745365Y-128321444D01*
X118967431Y-128358500D01*
X119192569Y-128358500D01*
X119414635Y-128321444D01*
X119627574Y-128248342D01*
X119825576Y-128141189D01*
X120003240Y-128002906D01*
X120124594Y-127871082D01*
X120155715Y-127837276D01*
X120155715Y-127837275D01*
X120155722Y-127837268D01*
X120246193Y-127698790D01*
X120299338Y-127653437D01*
X120368569Y-127644013D01*
X120431905Y-127673515D01*
X120453804Y-127698787D01*
X120544278Y-127837268D01*
X120544283Y-127837273D01*
X120544284Y-127837276D01*
X120663355Y-127966619D01*
X120696760Y-128002906D01*
X120874424Y-128141189D01*
X120874425Y-128141189D01*
X120874427Y-128141191D01*
X120937812Y-128175493D01*
X121072426Y-128248342D01*
X121285365Y-128321444D01*
X121507431Y-128358500D01*
X121732569Y-128358500D01*
X121954635Y-128321444D01*
X122167574Y-128248342D01*
X122365576Y-128141189D01*
X122543240Y-128002906D01*
X122639212Y-127898654D01*
X127641500Y-127898654D01*
X127648011Y-127959202D01*
X127648011Y-127959204D01*
X127699110Y-128096204D01*
X127699111Y-128096204D01*
X127786739Y-128213261D01*
X127903796Y-128300889D01*
X128040799Y-128351989D01*
X128068050Y-128354918D01*
X128101345Y-128358499D01*
X128101362Y-128358500D01*
X129898638Y-128358500D01*
X129898654Y-128358499D01*
X129925692Y-128355591D01*
X129959201Y-128351989D01*
X130096204Y-128300889D01*
X130213261Y-128213261D01*
X130300889Y-128096204D01*
X130349223Y-127966615D01*
X130391093Y-127910686D01*
X130456557Y-127886269D01*
X130524830Y-127901121D01*
X130553084Y-127922272D01*
X130668917Y-128038105D01*
X130862421Y-128173600D01*
X131076507Y-128273429D01*
X131076516Y-128273433D01*
X131290000Y-128330634D01*
X131290000Y-127612301D01*
X131309685Y-127545262D01*
X131362489Y-127499507D01*
X131431647Y-127489563D01*
X131504237Y-127500000D01*
X131504238Y-127500000D01*
X131575762Y-127500000D01*
X131575763Y-127500000D01*
X131648353Y-127489563D01*
X131717512Y-127499507D01*
X131770315Y-127545262D01*
X131790000Y-127612301D01*
X131790000Y-128330633D01*
X132003483Y-128273433D01*
X132003492Y-128273429D01*
X132217578Y-128173600D01*
X132411082Y-128038105D01*
X132578105Y-127871082D01*
X132704868Y-127690048D01*
X132759445Y-127646423D01*
X132828944Y-127639231D01*
X132891298Y-127670753D01*
X132910251Y-127693350D01*
X133004276Y-127837265D01*
X133004284Y-127837276D01*
X133123355Y-127966619D01*
X133156760Y-128002906D01*
X133334424Y-128141189D01*
X133334425Y-128141189D01*
X133334427Y-128141191D01*
X133397812Y-128175493D01*
X133532426Y-128248342D01*
X133745365Y-128321444D01*
X133967431Y-128358500D01*
X134192569Y-128358500D01*
X134414635Y-128321444D01*
X134627574Y-128248342D01*
X134825576Y-128141189D01*
X135003240Y-128002906D01*
X135124594Y-127871082D01*
X135155715Y-127837276D01*
X135155715Y-127837275D01*
X135155722Y-127837268D01*
X135246193Y-127698790D01*
X135299338Y-127653437D01*
X135368569Y-127644013D01*
X135431905Y-127673515D01*
X135453804Y-127698787D01*
X135544278Y-127837268D01*
X135544283Y-127837273D01*
X135544284Y-127837276D01*
X135663355Y-127966619D01*
X135696760Y-128002906D01*
X135874424Y-128141189D01*
X135874425Y-128141189D01*
X135874427Y-128141191D01*
X135937812Y-128175493D01*
X136072426Y-128248342D01*
X136285365Y-128321444D01*
X136507431Y-128358500D01*
X136732569Y-128358500D01*
X136954635Y-128321444D01*
X137167574Y-128248342D01*
X137365576Y-128141189D01*
X137543240Y-128002906D01*
X137664594Y-127871082D01*
X137695715Y-127837276D01*
X137695717Y-127837273D01*
X137695722Y-127837268D01*
X137818860Y-127648791D01*
X137909296Y-127442616D01*
X137964564Y-127224368D01*
X137969190Y-127168542D01*
X137978489Y-127056330D01*
X143745710Y-127056330D01*
X143775925Y-127279387D01*
X143775926Y-127279390D01*
X143845483Y-127493465D01*
X143952146Y-127691678D01*
X143952148Y-127691681D01*
X144092489Y-127867663D01*
X144092491Y-127867664D01*
X144092492Y-127867666D01*
X144262004Y-128015765D01*
X144455236Y-128131215D01*
X144665976Y-128210307D01*
X144887450Y-128250500D01*
X144887453Y-128250500D01*
X145056148Y-128250500D01*
X145056155Y-128250500D01*
X145224188Y-128235377D01*
X145224192Y-128235376D01*
X145441160Y-128175496D01*
X145441162Y-128175495D01*
X145441170Y-128175493D01*
X145643973Y-128077829D01*
X145826078Y-127945522D01*
X145981632Y-127782825D01*
X146105635Y-127594968D01*
X146126881Y-127545262D01*
X146194100Y-127387995D01*
X146194099Y-127387995D01*
X146194103Y-127387988D01*
X146244191Y-127168537D01*
X146254290Y-126943670D01*
X146224075Y-126720613D01*
X146154517Y-126506536D01*
X146047852Y-126308319D01*
X145975167Y-126217175D01*
X145907510Y-126132336D01*
X145877627Y-126106228D01*
X145737996Y-125984235D01*
X145544764Y-125868785D01*
X145426775Y-125824503D01*
X145334023Y-125789692D01*
X145112550Y-125749500D01*
X145112547Y-125749500D01*
X144943845Y-125749500D01*
X144905399Y-125752960D01*
X144775813Y-125764622D01*
X144775807Y-125764623D01*
X144558839Y-125824503D01*
X144558826Y-125824508D01*
X144356033Y-125922167D01*
X144356025Y-125922171D01*
X144173927Y-126054473D01*
X144173925Y-126054474D01*
X144018366Y-126217176D01*
X143894363Y-126405033D01*
X143805899Y-126612004D01*
X143805895Y-126612017D01*
X143755810Y-126831457D01*
X143755808Y-126831468D01*
X143745710Y-127056325D01*
X143745710Y-127056330D01*
X137978489Y-127056330D01*
X137983156Y-127000005D01*
X137983156Y-126999994D01*
X137964565Y-126775640D01*
X137964563Y-126775628D01*
X137909296Y-126557385D01*
X137888702Y-126510436D01*
X137818860Y-126351209D01*
X137802706Y-126326484D01*
X137695723Y-126162734D01*
X137695715Y-126162723D01*
X137543243Y-125997097D01*
X137543238Y-125997092D01*
X137365577Y-125858812D01*
X137365572Y-125858808D01*
X137167580Y-125751661D01*
X137167577Y-125751659D01*
X137167574Y-125751658D01*
X137167571Y-125751657D01*
X137167569Y-125751656D01*
X136954637Y-125678556D01*
X136732569Y-125641500D01*
X136507431Y-125641500D01*
X136285362Y-125678556D01*
X136072430Y-125751656D01*
X136072419Y-125751661D01*
X135874427Y-125858808D01*
X135874422Y-125858812D01*
X135696761Y-125997092D01*
X135696756Y-125997097D01*
X135544284Y-126162723D01*
X135544276Y-126162734D01*
X135453808Y-126301206D01*
X135400662Y-126346562D01*
X135331431Y-126355986D01*
X135268095Y-126326484D01*
X135246192Y-126301206D01*
X135155723Y-126162734D01*
X135155715Y-126162723D01*
X135003243Y-125997097D01*
X135003238Y-125997092D01*
X134825577Y-125858812D01*
X134825572Y-125858808D01*
X134627580Y-125751661D01*
X134627577Y-125751659D01*
X134627574Y-125751658D01*
X134627571Y-125751657D01*
X134627569Y-125751656D01*
X134414637Y-125678556D01*
X134192569Y-125641500D01*
X133967431Y-125641500D01*
X133745362Y-125678556D01*
X133532430Y-125751656D01*
X133532419Y-125751661D01*
X133334427Y-125858808D01*
X133334422Y-125858812D01*
X133156761Y-125997092D01*
X133156756Y-125997097D01*
X133004284Y-126162723D01*
X133004276Y-126162734D01*
X132910251Y-126306650D01*
X132857105Y-126352007D01*
X132787873Y-126361430D01*
X132724538Y-126331928D01*
X132704868Y-126309951D01*
X132578113Y-126128926D01*
X132578108Y-126128920D01*
X132411082Y-125961894D01*
X132217578Y-125826399D01*
X132003492Y-125726570D01*
X132003486Y-125726567D01*
X131790000Y-125669364D01*
X131790000Y-126387698D01*
X131770315Y-126454737D01*
X131717511Y-126500492D01*
X131648355Y-126510436D01*
X131575766Y-126500000D01*
X131575763Y-126500000D01*
X131504237Y-126500000D01*
X131504233Y-126500000D01*
X131431645Y-126510436D01*
X131362487Y-126500492D01*
X131309684Y-126454736D01*
X131290000Y-126387698D01*
X131290000Y-125669364D01*
X131289999Y-125669364D01*
X131076513Y-125726567D01*
X131076507Y-125726570D01*
X130862422Y-125826399D01*
X130862420Y-125826400D01*
X130668926Y-125961886D01*
X130553084Y-126077728D01*
X130491761Y-126111212D01*
X130422069Y-126106228D01*
X130366136Y-126064356D01*
X130349223Y-126033384D01*
X130300889Y-125903796D01*
X130213261Y-125786739D01*
X130096204Y-125699111D01*
X130096204Y-125699110D01*
X129959203Y-125648011D01*
X129898654Y-125641500D01*
X129898638Y-125641500D01*
X128101362Y-125641500D01*
X128101345Y-125641500D01*
X128040797Y-125648011D01*
X128040795Y-125648011D01*
X127903795Y-125699111D01*
X127786739Y-125786739D01*
X127699111Y-125903795D01*
X127648011Y-126040795D01*
X127648011Y-126040797D01*
X127641500Y-126101345D01*
X127641500Y-127898654D01*
X122639212Y-127898654D01*
X122664594Y-127871082D01*
X122695715Y-127837276D01*
X122695717Y-127837273D01*
X122695722Y-127837268D01*
X122818860Y-127648791D01*
X122909296Y-127442616D01*
X122964564Y-127224368D01*
X122969190Y-127168542D01*
X122983156Y-127000005D01*
X122983156Y-126999994D01*
X122964565Y-126775640D01*
X122964563Y-126775628D01*
X122909296Y-126557385D01*
X122888702Y-126510436D01*
X122818860Y-126351209D01*
X122802706Y-126326484D01*
X122695723Y-126162734D01*
X122695715Y-126162723D01*
X122543243Y-125997097D01*
X122543238Y-125997092D01*
X122365577Y-125858812D01*
X122365572Y-125858808D01*
X122167580Y-125751661D01*
X122167577Y-125751659D01*
X122167574Y-125751658D01*
X122167571Y-125751657D01*
X122167569Y-125751656D01*
X121954637Y-125678556D01*
X121732569Y-125641500D01*
X121507431Y-125641500D01*
X121285362Y-125678556D01*
X121072430Y-125751656D01*
X121072419Y-125751661D01*
X120874427Y-125858808D01*
X120874422Y-125858812D01*
X120696761Y-125997092D01*
X120696756Y-125997097D01*
X120544284Y-126162723D01*
X120544276Y-126162734D01*
X120453807Y-126301206D01*
X120400660Y-126346563D01*
X120331429Y-126355986D01*
X120268093Y-126326483D01*
X120246191Y-126301206D01*
X120155722Y-126162732D01*
X120155717Y-126162727D01*
X120155715Y-126162723D01*
X120003243Y-125997097D01*
X120003238Y-125997092D01*
X119825577Y-125858812D01*
X119825572Y-125858808D01*
X119627580Y-125751661D01*
X119627577Y-125751659D01*
X119627574Y-125751658D01*
X119627571Y-125751657D01*
X119627569Y-125751656D01*
X119414637Y-125678556D01*
X119192569Y-125641500D01*
X118967431Y-125641500D01*
X118745362Y-125678556D01*
X118532430Y-125751656D01*
X118532419Y-125751661D01*
X118334427Y-125858808D01*
X118334422Y-125858812D01*
X118156761Y-125997092D01*
X118156756Y-125997097D01*
X118004284Y-126162723D01*
X118004276Y-126162734D01*
X117910251Y-126306650D01*
X117857105Y-126352007D01*
X117787873Y-126361430D01*
X117724538Y-126331928D01*
X117704868Y-126309951D01*
X117578113Y-126128926D01*
X117578108Y-126128920D01*
X117411082Y-125961894D01*
X117217578Y-125826399D01*
X117003492Y-125726570D01*
X117003486Y-125726567D01*
X116790000Y-125669364D01*
X116789999Y-125669364D01*
X116789999Y-126387698D01*
X116770314Y-126454738D01*
X116717510Y-126500492D01*
X116648353Y-126510436D01*
X116575764Y-126500000D01*
X116575763Y-126500000D01*
X116504237Y-126500000D01*
X116504233Y-126500000D01*
X116431645Y-126510436D01*
X116362487Y-126500492D01*
X116309684Y-126454736D01*
X116290000Y-126387698D01*
X116290000Y-125669364D01*
X116289999Y-125669364D01*
X116076513Y-125726567D01*
X116076507Y-125726570D01*
X115862422Y-125826399D01*
X115862420Y-125826400D01*
X115668926Y-125961886D01*
X115553084Y-126077728D01*
X115491761Y-126111212D01*
X115422069Y-126106228D01*
X115366136Y-126064356D01*
X115349223Y-126033384D01*
X115300889Y-125903796D01*
X115213261Y-125786739D01*
X115096204Y-125699111D01*
X115096204Y-125699110D01*
X114959203Y-125648011D01*
X114898654Y-125641500D01*
X114898638Y-125641500D01*
X113101362Y-125641500D01*
X113101345Y-125641500D01*
X113040797Y-125648011D01*
X113040795Y-125648011D01*
X112903795Y-125699111D01*
X112786739Y-125786739D01*
X112699111Y-125903795D01*
X112648011Y-126040795D01*
X112648011Y-126040797D01*
X112641500Y-126101345D01*
X112641500Y-127898654D01*
X105870888Y-127898654D01*
X105981632Y-127782825D01*
X106105635Y-127594968D01*
X106126881Y-127545262D01*
X106194100Y-127387995D01*
X106194099Y-127387995D01*
X106194103Y-127387988D01*
X106244191Y-127168537D01*
X106254290Y-126943670D01*
X106224075Y-126720613D01*
X106154517Y-126506536D01*
X106047852Y-126308319D01*
X105975167Y-126217175D01*
X105907510Y-126132336D01*
X105877627Y-126106228D01*
X105737996Y-125984235D01*
X105544764Y-125868785D01*
X105426775Y-125824503D01*
X105334023Y-125789692D01*
X105112550Y-125749500D01*
X105112547Y-125749500D01*
X104943845Y-125749500D01*
X104905399Y-125752960D01*
X104775813Y-125764622D01*
X104775807Y-125764623D01*
X104558839Y-125824503D01*
X104558826Y-125824508D01*
X104356033Y-125922167D01*
X104356025Y-125922171D01*
X104173927Y-126054473D01*
X104173925Y-126054474D01*
X104018366Y-126217176D01*
X103894363Y-126405033D01*
X103805899Y-126612004D01*
X103805895Y-126612017D01*
X103755810Y-126831457D01*
X103755808Y-126831468D01*
X103745710Y-127056325D01*
X103745710Y-127056330D01*
X102075500Y-127056330D01*
X102075500Y-122898654D01*
X112641500Y-122898654D01*
X112648011Y-122959202D01*
X112648011Y-122959204D01*
X112699110Y-123096204D01*
X112699111Y-123096204D01*
X112786739Y-123213261D01*
X112903796Y-123300889D01*
X113040799Y-123351989D01*
X113068050Y-123354918D01*
X113101345Y-123358499D01*
X113101362Y-123358500D01*
X114898638Y-123358500D01*
X114898654Y-123358499D01*
X114925692Y-123355591D01*
X114959201Y-123351989D01*
X115096204Y-123300889D01*
X115213261Y-123213261D01*
X115300889Y-123096204D01*
X115349223Y-122966615D01*
X115391093Y-122910686D01*
X115456557Y-122886269D01*
X115524830Y-122901121D01*
X115553084Y-122922272D01*
X115668917Y-123038105D01*
X115862421Y-123173600D01*
X116076507Y-123273429D01*
X116076516Y-123273433D01*
X116290000Y-123330634D01*
X116290000Y-122612301D01*
X116309685Y-122545262D01*
X116362489Y-122499507D01*
X116431647Y-122489563D01*
X116504237Y-122500000D01*
X116504238Y-122500000D01*
X116575762Y-122500000D01*
X116575763Y-122500000D01*
X116648352Y-122489563D01*
X116717510Y-122499507D01*
X116770314Y-122545261D01*
X116789999Y-122612301D01*
X116789999Y-123330634D01*
X117003483Y-123273433D01*
X117003492Y-123273429D01*
X117217578Y-123173600D01*
X117411082Y-123038105D01*
X117578105Y-122871082D01*
X117704868Y-122690048D01*
X117759445Y-122646423D01*
X117828944Y-122639231D01*
X117891298Y-122670753D01*
X117910251Y-122693350D01*
X118004276Y-122837265D01*
X118004284Y-122837276D01*
X118123355Y-122966619D01*
X118156760Y-123002906D01*
X118334424Y-123141189D01*
X118334425Y-123141189D01*
X118334427Y-123141191D01*
X118394314Y-123173600D01*
X118532426Y-123248342D01*
X118745365Y-123321444D01*
X118967431Y-123358500D01*
X119192569Y-123358500D01*
X119414635Y-123321444D01*
X119627574Y-123248342D01*
X119825576Y-123141189D01*
X120003240Y-123002906D01*
X120155722Y-122837268D01*
X120246193Y-122698790D01*
X120299338Y-122653437D01*
X120368569Y-122644013D01*
X120431905Y-122673515D01*
X120453804Y-122698787D01*
X120544278Y-122837268D01*
X120544283Y-122837273D01*
X120544284Y-122837276D01*
X120663355Y-122966619D01*
X120696760Y-123002906D01*
X120874424Y-123141189D01*
X120874425Y-123141189D01*
X120874427Y-123141191D01*
X120934314Y-123173600D01*
X121072426Y-123248342D01*
X121285365Y-123321444D01*
X121507431Y-123358500D01*
X121732569Y-123358500D01*
X121954635Y-123321444D01*
X122167574Y-123248342D01*
X122365576Y-123141189D01*
X122543240Y-123002906D01*
X122639212Y-122898654D01*
X127561500Y-122898654D01*
X127568011Y-122959202D01*
X127568011Y-122959204D01*
X127619110Y-123096204D01*
X127619111Y-123096204D01*
X127706739Y-123213261D01*
X127823796Y-123300889D01*
X127960799Y-123351989D01*
X127988050Y-123354918D01*
X128021345Y-123358499D01*
X128021362Y-123358500D01*
X129818638Y-123358500D01*
X129818654Y-123358499D01*
X129845692Y-123355591D01*
X129879201Y-123351989D01*
X130016204Y-123300889D01*
X130133261Y-123213261D01*
X130220889Y-123096204D01*
X130269223Y-122966615D01*
X130311093Y-122910686D01*
X130376557Y-122886269D01*
X130444830Y-122901121D01*
X130473084Y-122922272D01*
X130588917Y-123038105D01*
X130782421Y-123173600D01*
X130996507Y-123273429D01*
X130996516Y-123273433D01*
X131210000Y-123330634D01*
X131210000Y-122612301D01*
X131229685Y-122545262D01*
X131282489Y-122499507D01*
X131351647Y-122489563D01*
X131424237Y-122500000D01*
X131424238Y-122500000D01*
X131495762Y-122500000D01*
X131495763Y-122500000D01*
X131568353Y-122489563D01*
X131637512Y-122499507D01*
X131690315Y-122545262D01*
X131710000Y-122612301D01*
X131710000Y-123330634D01*
X131923483Y-123273433D01*
X131923492Y-123273429D01*
X132137578Y-123173600D01*
X132331082Y-123038105D01*
X132498105Y-122871082D01*
X132624868Y-122690048D01*
X132679445Y-122646423D01*
X132748944Y-122639231D01*
X132811298Y-122670753D01*
X132830251Y-122693350D01*
X132924276Y-122837265D01*
X132924284Y-122837276D01*
X133043355Y-122966619D01*
X133076760Y-123002906D01*
X133254424Y-123141189D01*
X133254425Y-123141189D01*
X133254427Y-123141191D01*
X133314314Y-123173600D01*
X133452426Y-123248342D01*
X133665365Y-123321444D01*
X133887431Y-123358500D01*
X134112569Y-123358500D01*
X134334635Y-123321444D01*
X134547574Y-123248342D01*
X134745576Y-123141189D01*
X134923240Y-123002906D01*
X135075722Y-122837268D01*
X135166193Y-122698791D01*
X135219336Y-122653437D01*
X135288567Y-122644013D01*
X135351903Y-122673515D01*
X135373807Y-122698793D01*
X135464276Y-122837265D01*
X135464284Y-122837276D01*
X135583355Y-122966619D01*
X135616760Y-123002906D01*
X135794424Y-123141189D01*
X135794425Y-123141189D01*
X135794427Y-123141191D01*
X135854314Y-123173600D01*
X135992426Y-123248342D01*
X136205365Y-123321444D01*
X136427431Y-123358500D01*
X136652569Y-123358500D01*
X136874635Y-123321444D01*
X137087574Y-123248342D01*
X137285576Y-123141189D01*
X137463240Y-123002906D01*
X137615722Y-122837268D01*
X137738860Y-122648791D01*
X137829296Y-122442616D01*
X137884564Y-122224368D01*
X137903156Y-122000000D01*
X137884564Y-121775632D01*
X137829296Y-121557384D01*
X137738860Y-121351209D01*
X137722706Y-121326484D01*
X137615723Y-121162734D01*
X137615715Y-121162723D01*
X137463243Y-120997097D01*
X137463238Y-120997092D01*
X137285577Y-120858812D01*
X137285572Y-120858808D01*
X137087580Y-120751661D01*
X137087577Y-120751659D01*
X137087574Y-120751658D01*
X137087571Y-120751657D01*
X137087569Y-120751656D01*
X136874637Y-120678556D01*
X136652569Y-120641500D01*
X136427431Y-120641500D01*
X136205362Y-120678556D01*
X135992430Y-120751656D01*
X135992419Y-120751661D01*
X135794427Y-120858808D01*
X135794422Y-120858812D01*
X135616761Y-120997092D01*
X135616756Y-120997097D01*
X135464284Y-121162723D01*
X135464276Y-121162734D01*
X135373808Y-121301206D01*
X135320662Y-121346562D01*
X135251431Y-121355986D01*
X135188095Y-121326484D01*
X135166192Y-121301206D01*
X135075723Y-121162734D01*
X135075715Y-121162723D01*
X134923243Y-120997097D01*
X134923238Y-120997092D01*
X134745577Y-120858812D01*
X134745572Y-120858808D01*
X134547580Y-120751661D01*
X134547577Y-120751659D01*
X134547574Y-120751658D01*
X134547571Y-120751657D01*
X134547569Y-120751656D01*
X134334637Y-120678556D01*
X134112569Y-120641500D01*
X133887431Y-120641500D01*
X133665362Y-120678556D01*
X133452430Y-120751656D01*
X133452419Y-120751661D01*
X133254427Y-120858808D01*
X133254422Y-120858812D01*
X133076761Y-120997092D01*
X133076756Y-120997097D01*
X132924284Y-121162723D01*
X132924276Y-121162734D01*
X132830251Y-121306650D01*
X132777105Y-121352007D01*
X132707873Y-121361430D01*
X132644538Y-121331928D01*
X132624868Y-121309951D01*
X132498113Y-121128926D01*
X132498108Y-121128920D01*
X132331082Y-120961894D01*
X132137578Y-120826399D01*
X131923492Y-120726570D01*
X131923486Y-120726567D01*
X131710000Y-120669364D01*
X131709999Y-120669364D01*
X131710000Y-121387698D01*
X131690315Y-121454737D01*
X131637511Y-121500492D01*
X131568355Y-121510436D01*
X131495766Y-121500000D01*
X131495763Y-121500000D01*
X131424237Y-121500000D01*
X131424233Y-121500000D01*
X131351645Y-121510436D01*
X131282487Y-121500492D01*
X131229684Y-121454736D01*
X131210000Y-121387698D01*
X131210000Y-120669364D01*
X131209999Y-120669364D01*
X130996513Y-120726567D01*
X130996507Y-120726570D01*
X130782422Y-120826399D01*
X130782420Y-120826400D01*
X130588926Y-120961886D01*
X130473084Y-121077728D01*
X130411761Y-121111212D01*
X130342069Y-121106228D01*
X130286136Y-121064356D01*
X130269223Y-121033384D01*
X130220889Y-120903796D01*
X130133261Y-120786739D01*
X130016204Y-120699111D01*
X130016204Y-120699110D01*
X129879203Y-120648011D01*
X129818654Y-120641500D01*
X129818638Y-120641500D01*
X128021362Y-120641500D01*
X128021345Y-120641500D01*
X127960797Y-120648011D01*
X127960795Y-120648011D01*
X127823795Y-120699111D01*
X127706739Y-120786739D01*
X127619111Y-120903795D01*
X127568011Y-121040795D01*
X127568011Y-121040797D01*
X127561500Y-121101345D01*
X127561500Y-122898654D01*
X122639212Y-122898654D01*
X122695722Y-122837268D01*
X122818860Y-122648791D01*
X122909296Y-122442616D01*
X122964564Y-122224368D01*
X122983156Y-122000000D01*
X122964564Y-121775632D01*
X122909296Y-121557384D01*
X122818860Y-121351209D01*
X122802706Y-121326484D01*
X122695723Y-121162734D01*
X122695715Y-121162723D01*
X122543243Y-120997097D01*
X122543238Y-120997092D01*
X122365577Y-120858812D01*
X122365572Y-120858808D01*
X122167580Y-120751661D01*
X122167577Y-120751659D01*
X122167574Y-120751658D01*
X122167571Y-120751657D01*
X122167569Y-120751656D01*
X121954637Y-120678556D01*
X121732569Y-120641500D01*
X121507431Y-120641500D01*
X121285362Y-120678556D01*
X121072430Y-120751656D01*
X121072419Y-120751661D01*
X120874427Y-120858808D01*
X120874422Y-120858812D01*
X120696761Y-120997092D01*
X120696756Y-120997097D01*
X120544284Y-121162723D01*
X120544276Y-121162734D01*
X120453808Y-121301206D01*
X120400662Y-121346562D01*
X120331431Y-121355986D01*
X120268095Y-121326484D01*
X120246192Y-121301206D01*
X120155723Y-121162734D01*
X120155715Y-121162723D01*
X120003243Y-120997097D01*
X120003238Y-120997092D01*
X119825577Y-120858812D01*
X119825572Y-120858808D01*
X119627580Y-120751661D01*
X119627577Y-120751659D01*
X119627574Y-120751658D01*
X119627571Y-120751657D01*
X119627569Y-120751656D01*
X119414637Y-120678556D01*
X119192569Y-120641500D01*
X118967431Y-120641500D01*
X118745362Y-120678556D01*
X118532430Y-120751656D01*
X118532419Y-120751661D01*
X118334427Y-120858808D01*
X118334422Y-120858812D01*
X118156761Y-120997092D01*
X118156756Y-120997097D01*
X118004284Y-121162723D01*
X118004276Y-121162734D01*
X117910251Y-121306650D01*
X117857105Y-121352007D01*
X117787873Y-121361430D01*
X117724538Y-121331928D01*
X117704868Y-121309951D01*
X117578113Y-121128926D01*
X117578108Y-121128920D01*
X117411082Y-120961894D01*
X117217578Y-120826399D01*
X117003492Y-120726570D01*
X117003486Y-120726567D01*
X116790000Y-120669364D01*
X116789999Y-120669364D01*
X116789999Y-121387698D01*
X116770314Y-121454738D01*
X116717510Y-121500492D01*
X116648353Y-121510436D01*
X116575764Y-121500000D01*
X116575763Y-121500000D01*
X116504237Y-121500000D01*
X116504233Y-121500000D01*
X116431645Y-121510436D01*
X116362487Y-121500492D01*
X116309684Y-121454736D01*
X116290000Y-121387698D01*
X116290000Y-120669364D01*
X116289999Y-120669364D01*
X116076513Y-120726567D01*
X116076507Y-120726570D01*
X115862422Y-120826399D01*
X115862420Y-120826400D01*
X115668926Y-120961886D01*
X115553084Y-121077728D01*
X115491761Y-121111212D01*
X115422069Y-121106228D01*
X115366136Y-121064356D01*
X115349223Y-121033384D01*
X115300889Y-120903796D01*
X115213261Y-120786739D01*
X115096204Y-120699111D01*
X115096204Y-120699110D01*
X114959203Y-120648011D01*
X114898654Y-120641500D01*
X114898638Y-120641500D01*
X113101362Y-120641500D01*
X113101345Y-120641500D01*
X113040797Y-120648011D01*
X113040795Y-120648011D01*
X112903795Y-120699111D01*
X112786739Y-120786739D01*
X112699111Y-120903795D01*
X112648011Y-121040795D01*
X112648011Y-121040797D01*
X112641500Y-121101345D01*
X112641500Y-122898654D01*
X102075500Y-122898654D01*
X102075500Y-116000005D01*
X105636844Y-116000005D01*
X105655434Y-116224359D01*
X105655436Y-116224371D01*
X105710703Y-116442614D01*
X105801140Y-116648792D01*
X105924276Y-116837265D01*
X105924284Y-116837276D01*
X106043355Y-116966619D01*
X106076760Y-117002906D01*
X106254424Y-117141189D01*
X106254425Y-117141189D01*
X106254427Y-117141191D01*
X106314314Y-117173600D01*
X106452426Y-117248342D01*
X106665365Y-117321444D01*
X106887431Y-117358500D01*
X107112569Y-117358500D01*
X107334635Y-117321444D01*
X107547574Y-117248342D01*
X107745576Y-117141189D01*
X107923240Y-117002906D01*
X108028295Y-116888787D01*
X108075715Y-116837276D01*
X108075715Y-116837275D01*
X108075722Y-116837268D01*
X108166193Y-116698790D01*
X108219338Y-116653437D01*
X108288569Y-116644013D01*
X108351905Y-116673515D01*
X108373804Y-116698787D01*
X108464278Y-116837268D01*
X108464283Y-116837273D01*
X108464284Y-116837276D01*
X108583355Y-116966619D01*
X108616760Y-117002906D01*
X108794424Y-117141189D01*
X108794425Y-117141189D01*
X108794427Y-117141191D01*
X108854314Y-117173600D01*
X108992426Y-117248342D01*
X109205365Y-117321444D01*
X109427431Y-117358500D01*
X109652569Y-117358500D01*
X109874635Y-117321444D01*
X110087574Y-117248342D01*
X110285576Y-117141189D01*
X110463240Y-117002906D01*
X110568295Y-116888787D01*
X110615715Y-116837276D01*
X110615715Y-116837275D01*
X110615722Y-116837268D01*
X110706193Y-116698790D01*
X110759338Y-116653437D01*
X110828569Y-116644013D01*
X110891905Y-116673515D01*
X110913804Y-116698787D01*
X111004278Y-116837268D01*
X111004283Y-116837273D01*
X111004284Y-116837276D01*
X111123355Y-116966619D01*
X111156760Y-117002906D01*
X111334424Y-117141189D01*
X111334425Y-117141189D01*
X111334427Y-117141191D01*
X111394314Y-117173600D01*
X111532426Y-117248342D01*
X111745365Y-117321444D01*
X111967431Y-117358500D01*
X112192569Y-117358500D01*
X112414635Y-117321444D01*
X112627574Y-117248342D01*
X112825576Y-117141189D01*
X113003240Y-117002906D01*
X113108295Y-116888787D01*
X113155715Y-116837276D01*
X113155715Y-116837275D01*
X113155722Y-116837268D01*
X113246193Y-116698790D01*
X113299338Y-116653437D01*
X113368569Y-116644013D01*
X113431905Y-116673515D01*
X113453804Y-116698787D01*
X113544278Y-116837268D01*
X113544283Y-116837273D01*
X113544284Y-116837276D01*
X113663355Y-116966619D01*
X113696760Y-117002906D01*
X113874424Y-117141189D01*
X113874425Y-117141189D01*
X113874427Y-117141191D01*
X113934314Y-117173600D01*
X114072426Y-117248342D01*
X114285365Y-117321444D01*
X114507431Y-117358500D01*
X114732569Y-117358500D01*
X114954635Y-117321444D01*
X115167574Y-117248342D01*
X115365576Y-117141189D01*
X115543240Y-117002906D01*
X115648295Y-116888787D01*
X115695715Y-116837276D01*
X115695715Y-116837275D01*
X115695722Y-116837268D01*
X115786193Y-116698790D01*
X115839338Y-116653437D01*
X115908569Y-116644013D01*
X115971905Y-116673515D01*
X115993804Y-116698787D01*
X116084278Y-116837268D01*
X116084283Y-116837273D01*
X116084284Y-116837276D01*
X116203355Y-116966619D01*
X116236760Y-117002906D01*
X116414424Y-117141189D01*
X116414425Y-117141189D01*
X116414427Y-117141191D01*
X116474314Y-117173600D01*
X116612426Y-117248342D01*
X116825365Y-117321444D01*
X117047431Y-117358500D01*
X117272569Y-117358500D01*
X117494635Y-117321444D01*
X117707574Y-117248342D01*
X117905576Y-117141189D01*
X118083240Y-117002906D01*
X118188295Y-116888787D01*
X118235715Y-116837276D01*
X118235715Y-116837275D01*
X118235722Y-116837268D01*
X118326193Y-116698790D01*
X118379338Y-116653437D01*
X118448569Y-116644013D01*
X118511905Y-116673515D01*
X118533804Y-116698787D01*
X118624278Y-116837268D01*
X118624283Y-116837273D01*
X118624284Y-116837276D01*
X118743355Y-116966619D01*
X118776760Y-117002906D01*
X118954424Y-117141189D01*
X118954425Y-117141189D01*
X118954427Y-117141191D01*
X119014314Y-117173600D01*
X119152426Y-117248342D01*
X119365365Y-117321444D01*
X119587431Y-117358500D01*
X119812569Y-117358500D01*
X120034635Y-117321444D01*
X120247574Y-117248342D01*
X120445576Y-117141189D01*
X120623240Y-117002906D01*
X120728295Y-116888787D01*
X120775715Y-116837276D01*
X120775715Y-116837275D01*
X120775722Y-116837268D01*
X120866193Y-116698790D01*
X120919338Y-116653437D01*
X120988569Y-116644013D01*
X121051905Y-116673515D01*
X121073804Y-116698787D01*
X121164278Y-116837268D01*
X121164283Y-116837273D01*
X121164284Y-116837276D01*
X121283355Y-116966619D01*
X121316760Y-117002906D01*
X121494424Y-117141189D01*
X121494425Y-117141189D01*
X121494427Y-117141191D01*
X121554314Y-117173600D01*
X121692426Y-117248342D01*
X121905365Y-117321444D01*
X122127431Y-117358500D01*
X122352569Y-117358500D01*
X122574635Y-117321444D01*
X122787574Y-117248342D01*
X122985576Y-117141189D01*
X123163240Y-117002906D01*
X123268295Y-116888787D01*
X123315715Y-116837276D01*
X123315715Y-116837275D01*
X123315722Y-116837268D01*
X123406193Y-116698790D01*
X123459338Y-116653437D01*
X123528569Y-116644013D01*
X123591905Y-116673515D01*
X123613804Y-116698787D01*
X123704278Y-116837268D01*
X123704283Y-116837273D01*
X123704284Y-116837276D01*
X123823355Y-116966619D01*
X123856760Y-117002906D01*
X124034424Y-117141189D01*
X124034425Y-117141189D01*
X124034427Y-117141191D01*
X124094314Y-117173600D01*
X124232426Y-117248342D01*
X124445365Y-117321444D01*
X124667431Y-117358500D01*
X124892569Y-117358500D01*
X125114635Y-117321444D01*
X125327574Y-117248342D01*
X125525576Y-117141189D01*
X125703240Y-117002906D01*
X125808295Y-116888787D01*
X125855715Y-116837276D01*
X125855715Y-116837275D01*
X125855722Y-116837268D01*
X125946193Y-116698790D01*
X125999338Y-116653437D01*
X126068569Y-116644013D01*
X126131905Y-116673515D01*
X126153804Y-116698787D01*
X126244278Y-116837268D01*
X126244283Y-116837273D01*
X126244284Y-116837276D01*
X126363355Y-116966619D01*
X126396760Y-117002906D01*
X126574424Y-117141189D01*
X126574425Y-117141189D01*
X126574427Y-117141191D01*
X126634314Y-117173600D01*
X126772426Y-117248342D01*
X126985365Y-117321444D01*
X127207431Y-117358500D01*
X127432569Y-117358500D01*
X127654635Y-117321444D01*
X127867574Y-117248342D01*
X128065576Y-117141189D01*
X128243240Y-117002906D01*
X128348295Y-116888787D01*
X128395715Y-116837276D01*
X128395715Y-116837275D01*
X128395722Y-116837268D01*
X128486193Y-116698790D01*
X128539338Y-116653437D01*
X128608569Y-116644013D01*
X128671905Y-116673515D01*
X128693804Y-116698787D01*
X128784278Y-116837268D01*
X128784283Y-116837273D01*
X128784284Y-116837276D01*
X128903355Y-116966619D01*
X128936760Y-117002906D01*
X129114424Y-117141189D01*
X129114425Y-117141189D01*
X129114427Y-117141191D01*
X129174314Y-117173600D01*
X129312426Y-117248342D01*
X129525365Y-117321444D01*
X129747431Y-117358500D01*
X129972569Y-117358500D01*
X130194635Y-117321444D01*
X130407574Y-117248342D01*
X130605576Y-117141189D01*
X130783240Y-117002906D01*
X130888295Y-116888787D01*
X130935715Y-116837276D01*
X130935715Y-116837275D01*
X130935722Y-116837268D01*
X131026193Y-116698790D01*
X131079338Y-116653437D01*
X131148569Y-116644013D01*
X131211905Y-116673515D01*
X131233804Y-116698787D01*
X131324278Y-116837268D01*
X131324283Y-116837273D01*
X131324284Y-116837276D01*
X131443355Y-116966619D01*
X131476760Y-117002906D01*
X131654424Y-117141189D01*
X131654425Y-117141189D01*
X131654427Y-117141191D01*
X131714314Y-117173600D01*
X131852426Y-117248342D01*
X132065365Y-117321444D01*
X132287431Y-117358500D01*
X132512569Y-117358500D01*
X132734635Y-117321444D01*
X132947574Y-117248342D01*
X133145576Y-117141189D01*
X133323240Y-117002906D01*
X133428295Y-116888787D01*
X133475715Y-116837276D01*
X133475715Y-116837275D01*
X133475722Y-116837268D01*
X133566193Y-116698790D01*
X133619338Y-116653437D01*
X133688569Y-116644013D01*
X133751905Y-116673515D01*
X133773804Y-116698787D01*
X133864278Y-116837268D01*
X133864283Y-116837273D01*
X133864284Y-116837276D01*
X133983355Y-116966619D01*
X134016760Y-117002906D01*
X134194424Y-117141189D01*
X134194425Y-117141189D01*
X134194427Y-117141191D01*
X134254314Y-117173600D01*
X134392426Y-117248342D01*
X134605365Y-117321444D01*
X134827431Y-117358500D01*
X135052569Y-117358500D01*
X135274635Y-117321444D01*
X135487574Y-117248342D01*
X135685576Y-117141189D01*
X135863240Y-117002906D01*
X135968295Y-116888787D01*
X136015715Y-116837276D01*
X136015715Y-116837275D01*
X136015722Y-116837268D01*
X136106193Y-116698790D01*
X136159338Y-116653437D01*
X136228569Y-116644013D01*
X136291905Y-116673515D01*
X136313804Y-116698787D01*
X136404278Y-116837268D01*
X136404283Y-116837273D01*
X136404284Y-116837276D01*
X136523355Y-116966619D01*
X136556760Y-117002906D01*
X136734424Y-117141189D01*
X136734425Y-117141189D01*
X136734427Y-117141191D01*
X136794314Y-117173600D01*
X136932426Y-117248342D01*
X137145365Y-117321444D01*
X137367431Y-117358500D01*
X137592569Y-117358500D01*
X137814635Y-117321444D01*
X138027574Y-117248342D01*
X138225576Y-117141189D01*
X138403240Y-117002906D01*
X138508295Y-116888787D01*
X138555715Y-116837276D01*
X138555715Y-116837275D01*
X138555722Y-116837268D01*
X138649749Y-116693347D01*
X138702894Y-116647994D01*
X138772125Y-116638570D01*
X138835461Y-116668072D01*
X138855130Y-116690048D01*
X138981890Y-116871078D01*
X139148917Y-117038105D01*
X139342421Y-117173600D01*
X139556507Y-117273429D01*
X139556516Y-117273433D01*
X139770000Y-117330634D01*
X139770000Y-116612301D01*
X139789685Y-116545262D01*
X139842489Y-116499507D01*
X139911647Y-116489563D01*
X139984237Y-116500000D01*
X139984238Y-116500000D01*
X140055762Y-116500000D01*
X140055763Y-116500000D01*
X140128353Y-116489563D01*
X140197512Y-116499507D01*
X140250315Y-116545262D01*
X140270000Y-116612301D01*
X140270000Y-117330633D01*
X140483483Y-117273433D01*
X140483492Y-117273429D01*
X140697578Y-117173600D01*
X140891078Y-117038108D01*
X141006914Y-116922272D01*
X141068237Y-116888787D01*
X141137929Y-116893771D01*
X141193863Y-116935642D01*
X141210777Y-116966619D01*
X141259110Y-117096203D01*
X141259111Y-117096204D01*
X141346739Y-117213261D01*
X141463796Y-117300889D01*
X141600799Y-117351989D01*
X141628050Y-117354918D01*
X141661345Y-117358499D01*
X141661362Y-117358500D01*
X143458638Y-117358500D01*
X143458654Y-117358499D01*
X143485692Y-117355591D01*
X143519201Y-117351989D01*
X143656204Y-117300889D01*
X143773261Y-117213261D01*
X143860889Y-117096204D01*
X143911989Y-116959201D01*
X143915959Y-116922272D01*
X143918499Y-116898654D01*
X143918500Y-116898637D01*
X143918500Y-115559095D01*
X143938185Y-115492056D01*
X143954814Y-115471419D01*
X145675944Y-113750288D01*
X145680413Y-113746238D01*
X145716568Y-113716568D01*
X145842595Y-113563004D01*
X145936241Y-113387804D01*
X145993909Y-113197701D01*
X146013380Y-113000000D01*
X146008799Y-112953481D01*
X146008500Y-112947401D01*
X146008500Y-98052597D01*
X146008799Y-98046517D01*
X146013380Y-98000000D01*
X146001750Y-97881916D01*
X145993909Y-97802300D01*
X145989314Y-97787154D01*
X145953735Y-97669865D01*
X145936242Y-97612199D01*
X145936241Y-97612198D01*
X145936241Y-97612196D01*
X145842595Y-97436996D01*
X145716568Y-97283432D01*
X145680430Y-97253774D01*
X145675930Y-97249696D01*
X143044819Y-94618585D01*
X143011334Y-94557262D01*
X143008500Y-94530904D01*
X143008500Y-94000001D01*
X143686502Y-94000001D01*
X143706456Y-94228081D01*
X143706457Y-94228089D01*
X143765714Y-94449238D01*
X143765718Y-94449249D01*
X143827745Y-94582266D01*
X143862477Y-94656749D01*
X143993802Y-94844300D01*
X144155700Y-95006198D01*
X144343251Y-95137523D01*
X144468091Y-95195736D01*
X144550750Y-95234281D01*
X144550752Y-95234281D01*
X144550757Y-95234284D01*
X144771913Y-95293543D01*
X144934832Y-95307796D01*
X144999998Y-95313498D01*
X145000000Y-95313498D01*
X145000002Y-95313498D01*
X145057021Y-95308509D01*
X145228087Y-95293543D01*
X145449243Y-95234284D01*
X145656749Y-95137523D01*
X145844300Y-95006198D01*
X146006198Y-94844300D01*
X146137523Y-94656749D01*
X146234284Y-94449243D01*
X146293543Y-94228087D01*
X146313498Y-94000000D01*
X146293543Y-93771913D01*
X146234284Y-93550757D01*
X146137523Y-93343251D01*
X146006198Y-93155700D01*
X145844300Y-92993802D01*
X145656749Y-92862477D01*
X145656745Y-92862475D01*
X145449249Y-92765718D01*
X145449238Y-92765714D01*
X145228089Y-92706457D01*
X145228081Y-92706456D01*
X145000002Y-92686502D01*
X144999998Y-92686502D01*
X144771918Y-92706456D01*
X144771910Y-92706457D01*
X144550761Y-92765714D01*
X144550750Y-92765718D01*
X144343254Y-92862475D01*
X144343252Y-92862476D01*
X144343249Y-92862477D01*
X144343251Y-92862477D01*
X144155700Y-92993802D01*
X144155698Y-92993803D01*
X144155695Y-92993806D01*
X143993806Y-93155695D01*
X143862476Y-93343252D01*
X143862475Y-93343254D01*
X143765718Y-93550750D01*
X143765714Y-93550761D01*
X143706457Y-93771910D01*
X143706456Y-93771918D01*
X143686502Y-93999998D01*
X143686502Y-94000001D01*
X143008500Y-94000001D01*
X143008500Y-89000005D01*
X143586673Y-89000005D01*
X143605948Y-89232622D01*
X143663251Y-89458907D01*
X143757015Y-89672668D01*
X143884686Y-89868084D01*
X143963410Y-89953600D01*
X144042780Y-90039818D01*
X144226983Y-90183190D01*
X144226985Y-90183191D01*
X144226988Y-90183193D01*
X144346331Y-90247777D01*
X144432273Y-90294287D01*
X144546914Y-90333643D01*
X144653045Y-90370079D01*
X144653047Y-90370079D01*
X144653049Y-90370080D01*
X144883288Y-90408500D01*
X144883289Y-90408500D01*
X145116711Y-90408500D01*
X145116712Y-90408500D01*
X145346951Y-90370080D01*
X145567727Y-90294287D01*
X145773017Y-90183190D01*
X145957220Y-90039818D01*
X146115314Y-89868083D01*
X146242984Y-89672669D01*
X146336749Y-89458907D01*
X146394051Y-89232626D01*
X146412058Y-89015315D01*
X146413327Y-89000005D01*
X146413327Y-88999994D01*
X146394051Y-88767377D01*
X146394051Y-88767374D01*
X146336749Y-88541093D01*
X146242984Y-88327331D01*
X146212061Y-88280000D01*
X146115316Y-88131919D01*
X146021926Y-88030471D01*
X145991004Y-87967816D01*
X145998864Y-87898390D01*
X146043011Y-87844235D01*
X146069824Y-87830306D01*
X146142084Y-87803355D01*
X146142093Y-87803350D01*
X146257187Y-87717190D01*
X146257190Y-87717187D01*
X146343350Y-87602093D01*
X146343354Y-87602086D01*
X146393596Y-87467379D01*
X146393598Y-87467372D01*
X146399999Y-87407844D01*
X146400000Y-87407827D01*
X146400000Y-86710000D01*
X145560003Y-86710000D01*
X145492964Y-86690315D01*
X145447209Y-86637511D01*
X145437265Y-86568353D01*
X145439112Y-86558408D01*
X145453810Y-86494007D01*
X145453810Y-86494006D01*
X145442979Y-86349468D01*
X145445079Y-86349310D01*
X145448595Y-86291861D01*
X145489890Y-86235501D01*
X145555101Y-86210413D01*
X145565216Y-86210000D01*
X146400000Y-86210000D01*
X146400000Y-85512172D01*
X146399999Y-85512155D01*
X146393598Y-85452627D01*
X146393596Y-85452620D01*
X146343354Y-85317913D01*
X146343350Y-85317906D01*
X146257190Y-85202812D01*
X146257187Y-85202809D01*
X146142093Y-85116649D01*
X146142086Y-85116645D01*
X146007379Y-85066403D01*
X146007372Y-85066401D01*
X145947844Y-85060000D01*
X145250000Y-85060000D01*
X145250000Y-85898178D01*
X145230315Y-85965217D01*
X145177511Y-86010972D01*
X145108353Y-86020916D01*
X145089454Y-86016670D01*
X145067829Y-86010000D01*
X145067827Y-86010000D01*
X144966276Y-86010000D01*
X144966268Y-86010000D01*
X144892481Y-86021122D01*
X144823256Y-86011649D01*
X144770143Y-85966254D01*
X144750003Y-85899350D01*
X144750000Y-85898507D01*
X144750000Y-85060000D01*
X144052155Y-85060000D01*
X143992627Y-85066401D01*
X143992620Y-85066403D01*
X143857913Y-85116645D01*
X143857906Y-85116649D01*
X143742812Y-85202809D01*
X143742809Y-85202812D01*
X143656649Y-85317906D01*
X143656645Y-85317913D01*
X143606403Y-85452620D01*
X143606401Y-85452627D01*
X143600000Y-85512155D01*
X143600000Y-86210000D01*
X144439997Y-86210000D01*
X144507036Y-86229685D01*
X144552791Y-86282489D01*
X144562735Y-86351647D01*
X144560888Y-86361592D01*
X144546189Y-86425992D01*
X144546189Y-86425993D01*
X144557021Y-86570532D01*
X144554920Y-86570689D01*
X144551405Y-86628139D01*
X144510110Y-86684499D01*
X144444899Y-86709587D01*
X144434784Y-86710000D01*
X143600000Y-86710000D01*
X143600000Y-87407844D01*
X143606401Y-87467372D01*
X143606403Y-87467379D01*
X143656645Y-87602086D01*
X143656649Y-87602093D01*
X143742809Y-87717187D01*
X143742812Y-87717190D01*
X143857906Y-87803350D01*
X143857915Y-87803355D01*
X143930175Y-87830306D01*
X143986109Y-87872177D01*
X144010527Y-87937641D01*
X143995676Y-88005914D01*
X143978073Y-88030470D01*
X143884686Y-88131916D01*
X143757015Y-88327331D01*
X143663251Y-88541092D01*
X143605948Y-88767377D01*
X143586673Y-88999994D01*
X143586673Y-89000005D01*
X143008500Y-89000005D01*
X143008500Y-84009095D01*
X143028185Y-83942056D01*
X143044814Y-83921418D01*
X143989415Y-82976817D01*
X144050738Y-82943333D01*
X144077096Y-82940499D01*
X145144856Y-82940499D01*
X145144864Y-82940499D01*
X145144879Y-82940497D01*
X145144882Y-82940497D01*
X145169987Y-82937586D01*
X145169988Y-82937585D01*
X145169991Y-82937585D01*
X145272765Y-82892206D01*
X145352206Y-82812765D01*
X145397585Y-82709991D01*
X145400500Y-82684865D01*
X145400499Y-81493685D01*
X145685740Y-81493685D01*
X145695755Y-81678406D01*
X145695755Y-81678411D01*
X145745244Y-81856656D01*
X145745247Y-81856662D01*
X145831898Y-82020102D01*
X145894540Y-82093850D01*
X145951663Y-82161100D01*
X146098936Y-82273054D01*
X146266833Y-82350732D01*
X146266834Y-82350732D01*
X146266836Y-82350733D01*
X146321648Y-82362797D01*
X146447503Y-82390500D01*
X146447506Y-82390500D01*
X146586107Y-82390500D01*
X146586113Y-82390500D01*
X146723910Y-82375514D01*
X146899221Y-82316444D01*
X147057736Y-82221070D01*
X147192041Y-82093849D01*
X147295858Y-81940730D01*
X147364331Y-81768875D01*
X147394260Y-81586317D01*
X147384245Y-81401593D01*
X147379954Y-81386137D01*
X147334755Y-81223343D01*
X147334752Y-81223337D01*
X147248101Y-81059897D01*
X147128337Y-80918900D01*
X147049449Y-80858931D01*
X146981064Y-80806946D01*
X146813167Y-80729268D01*
X146813163Y-80729266D01*
X146632497Y-80689500D01*
X146493887Y-80689500D01*
X146493883Y-80689500D01*
X146356088Y-80704486D01*
X146180776Y-80763557D01*
X146180774Y-80763558D01*
X146022262Y-80858931D01*
X146022261Y-80858932D01*
X145887959Y-80986149D01*
X145784138Y-81139276D01*
X145715669Y-81311122D01*
X145700838Y-81401588D01*
X145690787Y-81462902D01*
X145685740Y-81493685D01*
X145400499Y-81493685D01*
X145400499Y-80395136D01*
X145400497Y-80395117D01*
X145397586Y-80370012D01*
X145397585Y-80370010D01*
X145397585Y-80370009D01*
X145352206Y-80267235D01*
X145272765Y-80187794D01*
X145272763Y-80187793D01*
X145271039Y-80186612D01*
X145268622Y-80183651D01*
X145264640Y-80179669D01*
X145265042Y-80179266D01*
X145226858Y-80132484D01*
X145218954Y-80063063D01*
X145246829Y-80003782D01*
X145298428Y-79943367D01*
X145298431Y-79943362D01*
X145430019Y-79728631D01*
X145526396Y-79495955D01*
X145547694Y-79407243D01*
X145582484Y-79346651D01*
X145644510Y-79314486D01*
X145714079Y-79320962D01*
X145769103Y-79364021D01*
X145777823Y-79378106D01*
X145831898Y-79480102D01*
X145894540Y-79553850D01*
X145951663Y-79621100D01*
X146098936Y-79733054D01*
X146266833Y-79810732D01*
X146266834Y-79810732D01*
X146266836Y-79810733D01*
X146321648Y-79822797D01*
X146447503Y-79850500D01*
X146447506Y-79850500D01*
X146586107Y-79850500D01*
X146586113Y-79850500D01*
X146723910Y-79835514D01*
X146899221Y-79776444D01*
X147057736Y-79681070D01*
X147192041Y-79553849D01*
X147295858Y-79400730D01*
X147364331Y-79228875D01*
X147394260Y-79046317D01*
X147384245Y-78861593D01*
X147379954Y-78846137D01*
X147334755Y-78683343D01*
X147334752Y-78683337D01*
X147248101Y-78519897D01*
X147128337Y-78378900D01*
X147049449Y-78318931D01*
X146981064Y-78266946D01*
X146813167Y-78189268D01*
X146813163Y-78189266D01*
X146632497Y-78149500D01*
X146493887Y-78149500D01*
X146493883Y-78149500D01*
X146356088Y-78164486D01*
X146180776Y-78223557D01*
X146180774Y-78223558D01*
X146022262Y-78318931D01*
X146022261Y-78318932D01*
X145887959Y-78446149D01*
X145837958Y-78519897D01*
X145784142Y-78599270D01*
X145784140Y-78599272D01*
X145784138Y-78599277D01*
X145782151Y-78604264D01*
X145739048Y-78659254D01*
X145673058Y-78682212D01*
X145605132Y-78665848D01*
X145556835Y-78615358D01*
X145546386Y-78587308D01*
X145526396Y-78504044D01*
X145430019Y-78271368D01*
X145298432Y-78056638D01*
X145298430Y-78056636D01*
X145297732Y-78055819D01*
X144648517Y-78705034D01*
X144587194Y-78738519D01*
X144517502Y-78733535D01*
X144461569Y-78691663D01*
X144458486Y-78686750D01*
X144458451Y-78686775D01*
X144453558Y-78679843D01*
X144350360Y-78569346D01*
X144350358Y-78569345D01*
X144315300Y-78548026D01*
X144268248Y-78496375D01*
X144256590Y-78427485D01*
X144284027Y-78363228D01*
X144292047Y-78354397D01*
X144944178Y-77702266D01*
X144944178Y-77702264D01*
X144943374Y-77701577D01*
X144943358Y-77701566D01*
X144728631Y-77569980D01*
X144495956Y-77473603D01*
X144251072Y-77414812D01*
X143999999Y-77395052D01*
X143748927Y-77414812D01*
X143504043Y-77473603D01*
X143271368Y-77569980D01*
X143056637Y-77701568D01*
X143055820Y-77702266D01*
X143706833Y-78353280D01*
X143740318Y-78414603D01*
X143735334Y-78484295D01*
X143697408Y-78537148D01*
X143594262Y-78621064D01*
X143594258Y-78621069D01*
X143543947Y-78692344D01*
X143489205Y-78735761D01*
X143419680Y-78742690D01*
X143357445Y-78710931D01*
X143354962Y-78708516D01*
X142702266Y-78055820D01*
X142701568Y-78056637D01*
X142569980Y-78271368D01*
X142473603Y-78504043D01*
X142414812Y-78748927D01*
X142395052Y-79000000D01*
X142414812Y-79251072D01*
X142473603Y-79495956D01*
X142569980Y-79728631D01*
X142701568Y-79943362D01*
X142701570Y-79943366D01*
X142753171Y-80003783D01*
X142781741Y-80067544D01*
X142771304Y-80136630D01*
X142735080Y-80179389D01*
X142735360Y-80179669D01*
X142731979Y-80183049D01*
X142728964Y-80186609D01*
X142727236Y-80187792D01*
X142647794Y-80267234D01*
X142602415Y-80370006D01*
X142602415Y-80370008D01*
X142599500Y-80395131D01*
X142599500Y-81462902D01*
X142579815Y-81529941D01*
X142563181Y-81550583D01*
X141324077Y-82789687D01*
X141319567Y-82793775D01*
X141283432Y-82823431D01*
X141157405Y-82976994D01*
X141157403Y-82976997D01*
X141071884Y-83136996D01*
X141063757Y-83152198D01*
X141006091Y-83342296D01*
X140986620Y-83540000D01*
X140991201Y-83586517D01*
X140991500Y-83592597D01*
X140991500Y-94947401D01*
X140991201Y-94953481D01*
X140986620Y-94999999D01*
X141006090Y-95197699D01*
X141028793Y-95272540D01*
X141029416Y-95342407D01*
X140992167Y-95401520D01*
X140928873Y-95431111D01*
X140859629Y-95421784D01*
X140822451Y-95396216D01*
X136044819Y-90618584D01*
X136011334Y-90557261D01*
X136008500Y-90530903D01*
X136008500Y-89000005D01*
X137586673Y-89000005D01*
X137605948Y-89232622D01*
X137663251Y-89458907D01*
X137757015Y-89672668D01*
X137884686Y-89868084D01*
X137963410Y-89953600D01*
X138042780Y-90039818D01*
X138226983Y-90183190D01*
X138226985Y-90183191D01*
X138226988Y-90183193D01*
X138346331Y-90247777D01*
X138432273Y-90294287D01*
X138546914Y-90333643D01*
X138653045Y-90370079D01*
X138653047Y-90370079D01*
X138653049Y-90370080D01*
X138883288Y-90408500D01*
X138883289Y-90408500D01*
X139116711Y-90408500D01*
X139116712Y-90408500D01*
X139346951Y-90370080D01*
X139567727Y-90294287D01*
X139773017Y-90183190D01*
X139957220Y-90039818D01*
X140115314Y-89868083D01*
X140242984Y-89672669D01*
X140336749Y-89458907D01*
X140394051Y-89232626D01*
X140412058Y-89015315D01*
X140413327Y-89000005D01*
X140413327Y-88999994D01*
X140394051Y-88767377D01*
X140394051Y-88767374D01*
X140336749Y-88541093D01*
X140242984Y-88327331D01*
X140212061Y-88280000D01*
X140115316Y-88131919D01*
X140021926Y-88030471D01*
X139991004Y-87967816D01*
X139998864Y-87898390D01*
X140043011Y-87844235D01*
X140069824Y-87830306D01*
X140142084Y-87803355D01*
X140142093Y-87803350D01*
X140257187Y-87717190D01*
X140257190Y-87717187D01*
X140343350Y-87602093D01*
X140343354Y-87602086D01*
X140393596Y-87467379D01*
X140393598Y-87467372D01*
X140399999Y-87407844D01*
X140400000Y-87407827D01*
X140400000Y-86710000D01*
X139560003Y-86710000D01*
X139492964Y-86690315D01*
X139447209Y-86637511D01*
X139437265Y-86568353D01*
X139439112Y-86558408D01*
X139453810Y-86494007D01*
X139453810Y-86494006D01*
X139442979Y-86349468D01*
X139445079Y-86349310D01*
X139448595Y-86291861D01*
X139489890Y-86235501D01*
X139555101Y-86210413D01*
X139565216Y-86210000D01*
X140400000Y-86210000D01*
X140400000Y-85512172D01*
X140399999Y-85512155D01*
X140393598Y-85452627D01*
X140393596Y-85452620D01*
X140343354Y-85317913D01*
X140343350Y-85317906D01*
X140257190Y-85202812D01*
X140257187Y-85202809D01*
X140142093Y-85116649D01*
X140142086Y-85116645D01*
X140007379Y-85066403D01*
X140007372Y-85066401D01*
X139947844Y-85060000D01*
X139250000Y-85060000D01*
X139250000Y-85898178D01*
X139230315Y-85965217D01*
X139177511Y-86010972D01*
X139108353Y-86020916D01*
X139089454Y-86016670D01*
X139067829Y-86010000D01*
X139067827Y-86010000D01*
X138966276Y-86010000D01*
X138966268Y-86010000D01*
X138892481Y-86021122D01*
X138823256Y-86011649D01*
X138770143Y-85966254D01*
X138750003Y-85899350D01*
X138750000Y-85898507D01*
X138750000Y-85060000D01*
X138052155Y-85060000D01*
X137992627Y-85066401D01*
X137992620Y-85066403D01*
X137857913Y-85116645D01*
X137857906Y-85116649D01*
X137742812Y-85202809D01*
X137742809Y-85202812D01*
X137656649Y-85317906D01*
X137656645Y-85317913D01*
X137606403Y-85452620D01*
X137606401Y-85452627D01*
X137600000Y-85512155D01*
X137600000Y-86210000D01*
X138439997Y-86210000D01*
X138507036Y-86229685D01*
X138552791Y-86282489D01*
X138562735Y-86351647D01*
X138560888Y-86361592D01*
X138546189Y-86425992D01*
X138546189Y-86425993D01*
X138557021Y-86570532D01*
X138554920Y-86570689D01*
X138551405Y-86628139D01*
X138510110Y-86684499D01*
X138444899Y-86709587D01*
X138434784Y-86710000D01*
X137600000Y-86710000D01*
X137600000Y-87407844D01*
X137606401Y-87467372D01*
X137606403Y-87467379D01*
X137656645Y-87602086D01*
X137656649Y-87602093D01*
X137742809Y-87717187D01*
X137742812Y-87717190D01*
X137857906Y-87803350D01*
X137857915Y-87803355D01*
X137930175Y-87830306D01*
X137986109Y-87872177D01*
X138010527Y-87937641D01*
X137995676Y-88005914D01*
X137978073Y-88030470D01*
X137884686Y-88131916D01*
X137757015Y-88327331D01*
X137663251Y-88541092D01*
X137605948Y-88767377D01*
X137586673Y-88999994D01*
X137586673Y-89000005D01*
X136008500Y-89000005D01*
X136008500Y-78070513D01*
X136008799Y-78064432D01*
X136009763Y-78054638D01*
X136013380Y-78017919D01*
X135993908Y-77820218D01*
X135936241Y-77630115D01*
X135936239Y-77630112D01*
X135936239Y-77630110D01*
X135846909Y-77462986D01*
X135844194Y-77456862D01*
X135809684Y-77414812D01*
X135716568Y-77301351D01*
X135680430Y-77271693D01*
X135675930Y-77267615D01*
X133812382Y-75404067D01*
X133808303Y-75399566D01*
X133778648Y-75363430D01*
X133625086Y-75237405D01*
X133625083Y-75237403D01*
X133520335Y-75181415D01*
X133474441Y-75156884D01*
X133464291Y-75148129D01*
X133449885Y-75143758D01*
X133259782Y-75086091D01*
X133259779Y-75086090D01*
X133086326Y-75069007D01*
X133062081Y-75066620D01*
X133062080Y-75066620D01*
X133015563Y-75071201D01*
X133009483Y-75071500D01*
X132818623Y-75071500D01*
X132751584Y-75051815D01*
X132742461Y-75045353D01*
X132605579Y-74938813D01*
X132605570Y-74938807D01*
X132569070Y-74919055D01*
X132519479Y-74869836D01*
X132504371Y-74801619D01*
X132528541Y-74736064D01*
X132569070Y-74700945D01*
X132569084Y-74700936D01*
X132605576Y-74681189D01*
X132783240Y-74542906D01*
X132935722Y-74377268D01*
X133058860Y-74188791D01*
X133149296Y-73982616D01*
X133204564Y-73764368D01*
X133204631Y-73763557D01*
X133223156Y-73540005D01*
X133223156Y-73539994D01*
X133204565Y-73315640D01*
X133204563Y-73315628D01*
X133172190Y-73187792D01*
X133149296Y-73097384D01*
X133058860Y-72891209D01*
X133041134Y-72864078D01*
X132955532Y-72733054D01*
X132935722Y-72702732D01*
X132935719Y-72702729D01*
X132935715Y-72702723D01*
X132790510Y-72544991D01*
X132759587Y-72482337D01*
X132767447Y-72412911D01*
X132811594Y-72358755D01*
X132838405Y-72344827D01*
X132939506Y-72307117D01*
X132956204Y-72300889D01*
X133073261Y-72213261D01*
X133160889Y-72096204D01*
X133196771Y-72000000D01*
X142395052Y-72000000D01*
X142414812Y-72251072D01*
X142473603Y-72495956D01*
X142569980Y-72728631D01*
X142701568Y-72943362D01*
X142701570Y-72943366D01*
X142753171Y-73003783D01*
X142781741Y-73067544D01*
X142771304Y-73136630D01*
X142735080Y-73179389D01*
X142735360Y-73179669D01*
X142731979Y-73183049D01*
X142728964Y-73186609D01*
X142727236Y-73187792D01*
X142647794Y-73267234D01*
X142602415Y-73370006D01*
X142602415Y-73370008D01*
X142599500Y-73395131D01*
X142599500Y-75684856D01*
X142599502Y-75684882D01*
X142602413Y-75709987D01*
X142602415Y-75709991D01*
X142647793Y-75812764D01*
X142647794Y-75812765D01*
X142727235Y-75892206D01*
X142830009Y-75937585D01*
X142855135Y-75940500D01*
X145144864Y-75940499D01*
X145144879Y-75940497D01*
X145144882Y-75940497D01*
X145169987Y-75937586D01*
X145169988Y-75937585D01*
X145169991Y-75937585D01*
X145272765Y-75892206D01*
X145352206Y-75812765D01*
X145397585Y-75709991D01*
X145400500Y-75684865D01*
X145400499Y-74493685D01*
X145685740Y-74493685D01*
X145695755Y-74678406D01*
X145695755Y-74678411D01*
X145745244Y-74856656D01*
X145745247Y-74856662D01*
X145831898Y-75020102D01*
X145951662Y-75161099D01*
X145951663Y-75161100D01*
X146098936Y-75273054D01*
X146266833Y-75350732D01*
X146266834Y-75350732D01*
X146266836Y-75350733D01*
X146321648Y-75362797D01*
X146447503Y-75390500D01*
X146447506Y-75390500D01*
X146586107Y-75390500D01*
X146586113Y-75390500D01*
X146723910Y-75375514D01*
X146899221Y-75316444D01*
X147057736Y-75221070D01*
X147192041Y-75093849D01*
X147295858Y-74940730D01*
X147304495Y-74919054D01*
X147364330Y-74768877D01*
X147364329Y-74768877D01*
X147364331Y-74768875D01*
X147394260Y-74586317D01*
X147384245Y-74401593D01*
X147384244Y-74401588D01*
X147334755Y-74223343D01*
X147334752Y-74223337D01*
X147248101Y-74059897D01*
X147128337Y-73918900D01*
X147049449Y-73858931D01*
X146981064Y-73806946D01*
X146813167Y-73729268D01*
X146813163Y-73729266D01*
X146632497Y-73689500D01*
X146493887Y-73689500D01*
X146493883Y-73689500D01*
X146356088Y-73704486D01*
X146180776Y-73763557D01*
X146180774Y-73763558D01*
X146022262Y-73858931D01*
X146022261Y-73858932D01*
X145887959Y-73986149D01*
X145784138Y-74139276D01*
X145715669Y-74311122D01*
X145685740Y-74493685D01*
X145400499Y-74493685D01*
X145400499Y-73395136D01*
X145400497Y-73395117D01*
X145397586Y-73370012D01*
X145397585Y-73370010D01*
X145397585Y-73370009D01*
X145352206Y-73267235D01*
X145272765Y-73187794D01*
X145272763Y-73187793D01*
X145271039Y-73186612D01*
X145268622Y-73183651D01*
X145264640Y-73179669D01*
X145265042Y-73179266D01*
X145226858Y-73132484D01*
X145218954Y-73063063D01*
X145246829Y-73003782D01*
X145298428Y-72943367D01*
X145298431Y-72943362D01*
X145430019Y-72728631D01*
X145526396Y-72495955D01*
X145547694Y-72407243D01*
X145582484Y-72346651D01*
X145644510Y-72314486D01*
X145714079Y-72320962D01*
X145769103Y-72364021D01*
X145777823Y-72378106D01*
X145831898Y-72480102D01*
X145936933Y-72603759D01*
X145951663Y-72621100D01*
X146098936Y-72733054D01*
X146266833Y-72810732D01*
X146266834Y-72810732D01*
X146266836Y-72810733D01*
X146321648Y-72822797D01*
X146447503Y-72850500D01*
X146447506Y-72850500D01*
X146586107Y-72850500D01*
X146586113Y-72850500D01*
X146723910Y-72835514D01*
X146899221Y-72776444D01*
X147057736Y-72681070D01*
X147192041Y-72553849D01*
X147295858Y-72400730D01*
X147301449Y-72386699D01*
X147335638Y-72300889D01*
X147364331Y-72228875D01*
X147394260Y-72046317D01*
X147384245Y-71861593D01*
X147352964Y-71748927D01*
X147334755Y-71683343D01*
X147334752Y-71683337D01*
X147248101Y-71519897D01*
X147128337Y-71378900D01*
X147049449Y-71318931D01*
X146981064Y-71266946D01*
X146813167Y-71189268D01*
X146813163Y-71189266D01*
X146632497Y-71149500D01*
X146493887Y-71149500D01*
X146493883Y-71149500D01*
X146356088Y-71164486D01*
X146180776Y-71223557D01*
X146180774Y-71223558D01*
X146022262Y-71318931D01*
X146022261Y-71318932D01*
X145887959Y-71446149D01*
X145837958Y-71519897D01*
X145784142Y-71599270D01*
X145784140Y-71599272D01*
X145784138Y-71599277D01*
X145782151Y-71604264D01*
X145739048Y-71659254D01*
X145673058Y-71682212D01*
X145605132Y-71665848D01*
X145556835Y-71615358D01*
X145546386Y-71587308D01*
X145526396Y-71504044D01*
X145430019Y-71271368D01*
X145298432Y-71056638D01*
X145298430Y-71056636D01*
X145297732Y-71055819D01*
X145297731Y-71055819D01*
X144648517Y-71705034D01*
X144587194Y-71738519D01*
X144517502Y-71733535D01*
X144461569Y-71691663D01*
X144458486Y-71686750D01*
X144458451Y-71686775D01*
X144453558Y-71679843D01*
X144350360Y-71569346D01*
X144350358Y-71569345D01*
X144315300Y-71548026D01*
X144268248Y-71496375D01*
X144256590Y-71427485D01*
X144284027Y-71363228D01*
X144292047Y-71354397D01*
X144944178Y-70702266D01*
X144944178Y-70702264D01*
X144943374Y-70701577D01*
X144943358Y-70701566D01*
X144728631Y-70569980D01*
X144495956Y-70473603D01*
X144251072Y-70414812D01*
X143999999Y-70395052D01*
X143748927Y-70414812D01*
X143504043Y-70473603D01*
X143271368Y-70569980D01*
X143056637Y-70701568D01*
X143055820Y-70702266D01*
X143706833Y-71353280D01*
X143740318Y-71414603D01*
X143735334Y-71484295D01*
X143697408Y-71537148D01*
X143594262Y-71621064D01*
X143594258Y-71621069D01*
X143543947Y-71692344D01*
X143489205Y-71735761D01*
X143419680Y-71742690D01*
X143357445Y-71710931D01*
X143354962Y-71708516D01*
X142702266Y-71055820D01*
X142701568Y-71056637D01*
X142569980Y-71271368D01*
X142473603Y-71504043D01*
X142414812Y-71748927D01*
X142395052Y-72000000D01*
X133196771Y-72000000D01*
X133206555Y-71973768D01*
X133211988Y-71959204D01*
X133211988Y-71959203D01*
X133211989Y-71959201D01*
X133215591Y-71925692D01*
X133218499Y-71898654D01*
X133218499Y-71898647D01*
X133218500Y-71898638D01*
X133218500Y-70101362D01*
X133218499Y-70101352D01*
X133218499Y-70101345D01*
X133215157Y-70070270D01*
X133211989Y-70040799D01*
X133160889Y-69903796D01*
X133073261Y-69786739D01*
X132956204Y-69699111D01*
X132956203Y-69699111D01*
X132819203Y-69648011D01*
X132758654Y-69641500D01*
X132758638Y-69641500D01*
X130961362Y-69641500D01*
X130961345Y-69641500D01*
X130900797Y-69648011D01*
X130900795Y-69648011D01*
X130763795Y-69699111D01*
X130646739Y-69786739D01*
X130559111Y-69903795D01*
X130508011Y-70040795D01*
X130508011Y-70040797D01*
X130501500Y-70101345D01*
X130501500Y-71898654D01*
X130508011Y-71959202D01*
X130508011Y-71959204D01*
X130540504Y-72046317D01*
X130559111Y-72096204D01*
X130646739Y-72213261D01*
X130763796Y-72300889D01*
X130800251Y-72314486D01*
X130881595Y-72344827D01*
X130937528Y-72386699D01*
X130961944Y-72452163D01*
X130947092Y-72520436D01*
X130929490Y-72544991D01*
X130784279Y-72702730D01*
X130784276Y-72702734D01*
X130661140Y-72891207D01*
X130570703Y-73097385D01*
X130515436Y-73315628D01*
X130515434Y-73315640D01*
X130496844Y-73539994D01*
X130496844Y-73540005D01*
X130515434Y-73764359D01*
X130515436Y-73764371D01*
X130570703Y-73982614D01*
X130661140Y-74188792D01*
X130784276Y-74377265D01*
X130784284Y-74377276D01*
X130891448Y-74493685D01*
X130936760Y-74542906D01*
X131114424Y-74681189D01*
X131114429Y-74681191D01*
X131114431Y-74681193D01*
X131150930Y-74700946D01*
X131200520Y-74750165D01*
X131215628Y-74818382D01*
X131191457Y-74883937D01*
X131150930Y-74919054D01*
X131114431Y-74938806D01*
X131114422Y-74938812D01*
X130936761Y-75077092D01*
X130936756Y-75077097D01*
X130784284Y-75242723D01*
X130784276Y-75242734D01*
X130661140Y-75431207D01*
X130570703Y-75637385D01*
X130515436Y-75855628D01*
X130515434Y-75855640D01*
X130496844Y-76079994D01*
X130496844Y-76080005D01*
X130515434Y-76304359D01*
X130515436Y-76304371D01*
X130570703Y-76522614D01*
X130661140Y-76728792D01*
X130784276Y-76917265D01*
X130784284Y-76917276D01*
X130936756Y-77082902D01*
X130936760Y-77082906D01*
X131114424Y-77221189D01*
X131150930Y-77240945D01*
X131200519Y-77290162D01*
X131215629Y-77358378D01*
X131191459Y-77423934D01*
X131150932Y-77459052D01*
X131114434Y-77478804D01*
X131114420Y-77478813D01*
X130977539Y-77585353D01*
X130912545Y-77610996D01*
X130901377Y-77611500D01*
X129432598Y-77611500D01*
X129426518Y-77611201D01*
X129380000Y-77606620D01*
X129182296Y-77626091D01*
X129036442Y-77670337D01*
X128992191Y-77683760D01*
X128817001Y-77777401D01*
X128816994Y-77777405D01*
X128663431Y-77903432D01*
X128633775Y-77939567D01*
X128629687Y-77944077D01*
X127824077Y-78749687D01*
X127819567Y-78753775D01*
X127783432Y-78783431D01*
X127657405Y-78936994D01*
X127657403Y-78936998D01*
X127617407Y-79011827D01*
X127563759Y-79112194D01*
X127506091Y-79302296D01*
X127486620Y-79500000D01*
X127491201Y-79546517D01*
X127491500Y-79552597D01*
X127491500Y-94447401D01*
X127491201Y-94453481D01*
X127486620Y-94499999D01*
X127506091Y-94697703D01*
X127563312Y-94886330D01*
X127563678Y-94887654D01*
X127657401Y-95062998D01*
X127657405Y-95063004D01*
X127783430Y-95216567D01*
X127819566Y-95246222D01*
X127824067Y-95250301D01*
X128471467Y-95897701D01*
X128853585Y-96279819D01*
X128887070Y-96341142D01*
X128882086Y-96410834D01*
X128840214Y-96466767D01*
X128774750Y-96491184D01*
X128765904Y-96491500D01*
X113869096Y-96491500D01*
X113802057Y-96471815D01*
X113781415Y-96455181D01*
X112644819Y-95318585D01*
X112611334Y-95257262D01*
X112608500Y-95230904D01*
X112608500Y-94000001D01*
X119606502Y-94000001D01*
X119626456Y-94228081D01*
X119626457Y-94228089D01*
X119685714Y-94449238D01*
X119685718Y-94449249D01*
X119747745Y-94582266D01*
X119782477Y-94656749D01*
X119913802Y-94844300D01*
X120075700Y-95006198D01*
X120263251Y-95137523D01*
X120388091Y-95195736D01*
X120470750Y-95234281D01*
X120470752Y-95234281D01*
X120470757Y-95234284D01*
X120691913Y-95293543D01*
X120854832Y-95307796D01*
X120919998Y-95313498D01*
X120920000Y-95313498D01*
X120920002Y-95313498D01*
X120977021Y-95308509D01*
X121148087Y-95293543D01*
X121369243Y-95234284D01*
X121576749Y-95137523D01*
X121764300Y-95006198D01*
X121926198Y-94844300D01*
X122057523Y-94656749D01*
X122154284Y-94449243D01*
X122213543Y-94228087D01*
X122233498Y-94000000D01*
X122213543Y-93771913D01*
X122154284Y-93550757D01*
X122057523Y-93343251D01*
X121926198Y-93155700D01*
X121764300Y-92993802D01*
X121576749Y-92862477D01*
X121576745Y-92862475D01*
X121369249Y-92765718D01*
X121369238Y-92765714D01*
X121148089Y-92706457D01*
X121148081Y-92706456D01*
X120920002Y-92686502D01*
X120919998Y-92686502D01*
X120691918Y-92706456D01*
X120691910Y-92706457D01*
X120470761Y-92765714D01*
X120470750Y-92765718D01*
X120263254Y-92862475D01*
X120263252Y-92862476D01*
X120263249Y-92862477D01*
X120263251Y-92862477D01*
X120075700Y-92993802D01*
X120075698Y-92993803D01*
X120075695Y-92993806D01*
X119913806Y-93155695D01*
X119782476Y-93343252D01*
X119782475Y-93343254D01*
X119685718Y-93550750D01*
X119685714Y-93550761D01*
X119626457Y-93771910D01*
X119626456Y-93771918D01*
X119606502Y-93999998D01*
X119606502Y-94000001D01*
X112608500Y-94000001D01*
X112608500Y-74852597D01*
X112608799Y-74846517D01*
X112610262Y-74831658D01*
X112613380Y-74800000D01*
X112593909Y-74602299D01*
X112536241Y-74412196D01*
X112517572Y-74377268D01*
X112442595Y-74236996D01*
X112316568Y-74083432D01*
X112280430Y-74053774D01*
X112275930Y-74049696D01*
X111090301Y-72864067D01*
X111086222Y-72859566D01*
X111056567Y-72823430D01*
X110903005Y-72697405D01*
X110902998Y-72697401D01*
X110727654Y-72603678D01*
X110726330Y-72603312D01*
X110537703Y-72546091D01*
X110405900Y-72533110D01*
X110340000Y-72526620D01*
X110339999Y-72526620D01*
X110293482Y-72531201D01*
X110287402Y-72531500D01*
X110159699Y-72531500D01*
X110092660Y-72511815D01*
X110046905Y-72459011D01*
X110036961Y-72389853D01*
X110065986Y-72326297D01*
X110089787Y-72307117D01*
X110089104Y-72306204D01*
X110096205Y-72300888D01*
X110213261Y-72213261D01*
X110300889Y-72096204D01*
X110346555Y-71973768D01*
X110351988Y-71959204D01*
X110351988Y-71959203D01*
X110351989Y-71959201D01*
X110355591Y-71925692D01*
X110358499Y-71898654D01*
X110358500Y-71898637D01*
X110358500Y-70101362D01*
X110358499Y-70101345D01*
X110355157Y-70070270D01*
X110351989Y-70040799D01*
X110300889Y-69903796D01*
X110213261Y-69786739D01*
X110096204Y-69699111D01*
X110096203Y-69699110D01*
X109959203Y-69648011D01*
X109898654Y-69641500D01*
X109898638Y-69641500D01*
X108101362Y-69641500D01*
X108101345Y-69641500D01*
X108040797Y-69648011D01*
X108040795Y-69648011D01*
X107903795Y-69699111D01*
X107786739Y-69786739D01*
X107699111Y-69903795D01*
X107648011Y-70040795D01*
X107648011Y-70040797D01*
X107641500Y-70101345D01*
X107641500Y-71898654D01*
X107648011Y-71959202D01*
X107648011Y-71959204D01*
X107680504Y-72046317D01*
X107699111Y-72096204D01*
X107786739Y-72213261D01*
X107903796Y-72300889D01*
X107940251Y-72314486D01*
X108021595Y-72344827D01*
X108077528Y-72386699D01*
X108101944Y-72452163D01*
X108087092Y-72520436D01*
X108069490Y-72544991D01*
X107924279Y-72702730D01*
X107924276Y-72702734D01*
X107801140Y-72891207D01*
X107710703Y-73097385D01*
X107655436Y-73315628D01*
X107655434Y-73315640D01*
X107636844Y-73539994D01*
X107636844Y-73540005D01*
X107655434Y-73764359D01*
X107655436Y-73764371D01*
X107710703Y-73982614D01*
X107801140Y-74188792D01*
X107924276Y-74377265D01*
X107924284Y-74377276D01*
X108031448Y-74493685D01*
X108076760Y-74542906D01*
X108254424Y-74681189D01*
X108254429Y-74681191D01*
X108254431Y-74681193D01*
X108290930Y-74700946D01*
X108340520Y-74750165D01*
X108355628Y-74818382D01*
X108331457Y-74883937D01*
X108290930Y-74919054D01*
X108254431Y-74938806D01*
X108254422Y-74938812D01*
X108076761Y-75077092D01*
X108076756Y-75077097D01*
X107924284Y-75242723D01*
X107924276Y-75242734D01*
X107801140Y-75431207D01*
X107710703Y-75637385D01*
X107655436Y-75855628D01*
X107655434Y-75855640D01*
X107636844Y-76079994D01*
X107636844Y-76080005D01*
X107655434Y-76304359D01*
X107655436Y-76304371D01*
X107710703Y-76522614D01*
X107801140Y-76728792D01*
X107924276Y-76917265D01*
X107924284Y-76917276D01*
X108076756Y-77082902D01*
X108076760Y-77082906D01*
X108254424Y-77221189D01*
X108290930Y-77240945D01*
X108340519Y-77290162D01*
X108355629Y-77358378D01*
X108331459Y-77423934D01*
X108290932Y-77459052D01*
X108254432Y-77478805D01*
X108254422Y-77478812D01*
X108076761Y-77617092D01*
X108076756Y-77617097D01*
X107924284Y-77782723D01*
X107924276Y-77782734D01*
X107801140Y-77971207D01*
X107710703Y-78177385D01*
X107655436Y-78395628D01*
X107655434Y-78395640D01*
X107636844Y-78619994D01*
X107636844Y-78620005D01*
X107655434Y-78844359D01*
X107655436Y-78844371D01*
X107710703Y-79062614D01*
X107801140Y-79268792D01*
X107924276Y-79457265D01*
X107924284Y-79457276D01*
X108075097Y-79621100D01*
X108076760Y-79622906D01*
X108254424Y-79761189D01*
X108254429Y-79761191D01*
X108254431Y-79761193D01*
X108290930Y-79780946D01*
X108340520Y-79830165D01*
X108355628Y-79898382D01*
X108331457Y-79963937D01*
X108290930Y-79999054D01*
X108254431Y-80018806D01*
X108254422Y-80018812D01*
X108076761Y-80157092D01*
X108076756Y-80157097D01*
X107924284Y-80322723D01*
X107924276Y-80322734D01*
X107801140Y-80511207D01*
X107710703Y-80717385D01*
X107655436Y-80935628D01*
X107655434Y-80935640D01*
X107636844Y-81159994D01*
X107636844Y-81160005D01*
X107655434Y-81384359D01*
X107655436Y-81384371D01*
X107710703Y-81602614D01*
X107801140Y-81808792D01*
X107924276Y-81997265D01*
X107924284Y-81997276D01*
X108075097Y-82161100D01*
X108076760Y-82162906D01*
X108254424Y-82301189D01*
X108254429Y-82301191D01*
X108254431Y-82301193D01*
X108290930Y-82320946D01*
X108340520Y-82370165D01*
X108355628Y-82438382D01*
X108331457Y-82503937D01*
X108290930Y-82539054D01*
X108254431Y-82558806D01*
X108254422Y-82558812D01*
X108076761Y-82697092D01*
X108076756Y-82697097D01*
X107924284Y-82862723D01*
X107924276Y-82862734D01*
X107801140Y-83051207D01*
X107710703Y-83257385D01*
X107655436Y-83475628D01*
X107655434Y-83475640D01*
X107636844Y-83699994D01*
X107636844Y-83700005D01*
X107655434Y-83924359D01*
X107655436Y-83924371D01*
X107710703Y-84142614D01*
X107801140Y-84348792D01*
X107924276Y-84537265D01*
X107924284Y-84537276D01*
X108076756Y-84702902D01*
X108076760Y-84702906D01*
X108254424Y-84841189D01*
X108254429Y-84841191D01*
X108254431Y-84841193D01*
X108290930Y-84860946D01*
X108340520Y-84910165D01*
X108355628Y-84978382D01*
X108331457Y-85043937D01*
X108290930Y-85079054D01*
X108254431Y-85098806D01*
X108254422Y-85098812D01*
X108076761Y-85237092D01*
X108076756Y-85237097D01*
X107924284Y-85402723D01*
X107924276Y-85402734D01*
X107801140Y-85591207D01*
X107710703Y-85797385D01*
X107655436Y-86015628D01*
X107655434Y-86015640D01*
X107636844Y-86239994D01*
X107636844Y-86240005D01*
X107655434Y-86464359D01*
X107655436Y-86464371D01*
X107710703Y-86682614D01*
X107801140Y-86888792D01*
X107924276Y-87077265D01*
X107924284Y-87077276D01*
X108076756Y-87242902D01*
X108076760Y-87242906D01*
X108254424Y-87381189D01*
X108297693Y-87404605D01*
X108297695Y-87404606D01*
X108347286Y-87453825D01*
X108362394Y-87522042D01*
X108338224Y-87587597D01*
X108309802Y-87615236D01*
X108128922Y-87741890D01*
X108128920Y-87741891D01*
X107961891Y-87908920D01*
X107961886Y-87908926D01*
X107826400Y-88102420D01*
X107826399Y-88102422D01*
X107726570Y-88316507D01*
X107726567Y-88316513D01*
X107669364Y-88529999D01*
X107669364Y-88530000D01*
X108386653Y-88530000D01*
X108453692Y-88549685D01*
X108499447Y-88602489D01*
X108509391Y-88671647D01*
X108505631Y-88688933D01*
X108500000Y-88708111D01*
X108500000Y-88851888D01*
X108505631Y-88871067D01*
X108505630Y-88940936D01*
X108467855Y-88999714D01*
X108404299Y-89028738D01*
X108386653Y-89030000D01*
X107669364Y-89030000D01*
X107726567Y-89243486D01*
X107726570Y-89243492D01*
X107826399Y-89457578D01*
X107961894Y-89651082D01*
X108128917Y-89818105D01*
X108322421Y-89953600D01*
X108536507Y-90053429D01*
X108536516Y-90053433D01*
X108750000Y-90110634D01*
X108750000Y-89392301D01*
X108769685Y-89325262D01*
X108822489Y-89279507D01*
X108891647Y-89269563D01*
X108964237Y-89280000D01*
X108964238Y-89280000D01*
X109035762Y-89280000D01*
X109035763Y-89280000D01*
X109108353Y-89269563D01*
X109177512Y-89279507D01*
X109230315Y-89325262D01*
X109250000Y-89392301D01*
X109250000Y-90110634D01*
X109463483Y-90053433D01*
X109463492Y-90053429D01*
X109677578Y-89953600D01*
X109871082Y-89818105D01*
X110038105Y-89651082D01*
X110173600Y-89457578D01*
X110273429Y-89243492D01*
X110273433Y-89243483D01*
X110334567Y-89015326D01*
X110334569Y-89015315D01*
X110343972Y-88907845D01*
X110369424Y-88842776D01*
X110426015Y-88801797D01*
X110495777Y-88797919D01*
X110556561Y-88832373D01*
X110589069Y-88894220D01*
X110591500Y-88918652D01*
X110591500Y-95647401D01*
X110591201Y-95653481D01*
X110586620Y-95699999D01*
X110606091Y-95897703D01*
X110663759Y-96087805D01*
X110757401Y-96262998D01*
X110757405Y-96263005D01*
X110883430Y-96416567D01*
X110919566Y-96446222D01*
X110924067Y-96450301D01*
X112649696Y-98175930D01*
X112653776Y-98180432D01*
X112683432Y-98216568D01*
X112836994Y-98342594D01*
X112837001Y-98342598D01*
X113012191Y-98436239D01*
X113012193Y-98436239D01*
X113012196Y-98436241D01*
X113202299Y-98493908D01*
X113202298Y-98493908D01*
X113220024Y-98495653D01*
X113400000Y-98513380D01*
X113433922Y-98510038D01*
X113446515Y-98508799D01*
X113452596Y-98508500D01*
X129872985Y-98508500D01*
X129940024Y-98528185D01*
X129960666Y-98544819D01*
X131258726Y-99842879D01*
X131292211Y-99904202D01*
X131287227Y-99973894D01*
X131274853Y-99998383D01*
X131233807Y-100061207D01*
X131180660Y-100106563D01*
X131111429Y-100115986D01*
X131048093Y-100086483D01*
X131026191Y-100061206D01*
X130935722Y-99922732D01*
X130935717Y-99922727D01*
X130935715Y-99922723D01*
X130783243Y-99757097D01*
X130783238Y-99757092D01*
X130605577Y-99618812D01*
X130605572Y-99618808D01*
X130407580Y-99511661D01*
X130407577Y-99511659D01*
X130407574Y-99511658D01*
X130407571Y-99511657D01*
X130407569Y-99511656D01*
X130194637Y-99438556D01*
X129972569Y-99401500D01*
X129747431Y-99401500D01*
X129525362Y-99438556D01*
X129312430Y-99511656D01*
X129312419Y-99511661D01*
X129114427Y-99618808D01*
X129114422Y-99618812D01*
X128936761Y-99757092D01*
X128936756Y-99757097D01*
X128784284Y-99922723D01*
X128784276Y-99922734D01*
X128693808Y-100061206D01*
X128640662Y-100106562D01*
X128571431Y-100115986D01*
X128508095Y-100086484D01*
X128486192Y-100061206D01*
X128395723Y-99922734D01*
X128395715Y-99922723D01*
X128243243Y-99757097D01*
X128243238Y-99757092D01*
X128065577Y-99618812D01*
X128065572Y-99618808D01*
X127867580Y-99511661D01*
X127867577Y-99511659D01*
X127867574Y-99511658D01*
X127867571Y-99511657D01*
X127867569Y-99511656D01*
X127654637Y-99438556D01*
X127432569Y-99401500D01*
X127207431Y-99401500D01*
X126985362Y-99438556D01*
X126772430Y-99511656D01*
X126772419Y-99511661D01*
X126574427Y-99618808D01*
X126574422Y-99618812D01*
X126396761Y-99757092D01*
X126396756Y-99757097D01*
X126244284Y-99922723D01*
X126244276Y-99922734D01*
X126153808Y-100061206D01*
X126100662Y-100106562D01*
X126031431Y-100115986D01*
X125968095Y-100086484D01*
X125946192Y-100061206D01*
X125855723Y-99922734D01*
X125855715Y-99922723D01*
X125703243Y-99757097D01*
X125703238Y-99757092D01*
X125525577Y-99618812D01*
X125525572Y-99618808D01*
X125327580Y-99511661D01*
X125327577Y-99511659D01*
X125327574Y-99511658D01*
X125327571Y-99511657D01*
X125327569Y-99511656D01*
X125114637Y-99438556D01*
X124892569Y-99401500D01*
X124667431Y-99401500D01*
X124445362Y-99438556D01*
X124232430Y-99511656D01*
X124232419Y-99511661D01*
X124034427Y-99618808D01*
X124034422Y-99618812D01*
X123856761Y-99757092D01*
X123856756Y-99757097D01*
X123704284Y-99922723D01*
X123704276Y-99922734D01*
X123613808Y-100061206D01*
X123560662Y-100106562D01*
X123491431Y-100115986D01*
X123428095Y-100086484D01*
X123406192Y-100061206D01*
X123315723Y-99922734D01*
X123315715Y-99922723D01*
X123163243Y-99757097D01*
X123163238Y-99757092D01*
X122985577Y-99618812D01*
X122985572Y-99618808D01*
X122787580Y-99511661D01*
X122787577Y-99511659D01*
X122787574Y-99511658D01*
X122787571Y-99511657D01*
X122787569Y-99511656D01*
X122574637Y-99438556D01*
X122352569Y-99401500D01*
X122127431Y-99401500D01*
X121905362Y-99438556D01*
X121692430Y-99511656D01*
X121692419Y-99511661D01*
X121494427Y-99618808D01*
X121494422Y-99618812D01*
X121316761Y-99757092D01*
X121316756Y-99757097D01*
X121164284Y-99922723D01*
X121164276Y-99922734D01*
X121073808Y-100061206D01*
X121020662Y-100106562D01*
X120951431Y-100115986D01*
X120888095Y-100086484D01*
X120866192Y-100061206D01*
X120775723Y-99922734D01*
X120775715Y-99922723D01*
X120623243Y-99757097D01*
X120623238Y-99757092D01*
X120445577Y-99618812D01*
X120445572Y-99618808D01*
X120247580Y-99511661D01*
X120247577Y-99511659D01*
X120247574Y-99511658D01*
X120247571Y-99511657D01*
X120247569Y-99511656D01*
X120034637Y-99438556D01*
X119812569Y-99401500D01*
X119587431Y-99401500D01*
X119365362Y-99438556D01*
X119152430Y-99511656D01*
X119152419Y-99511661D01*
X118954427Y-99618808D01*
X118954422Y-99618812D01*
X118776761Y-99757092D01*
X118776756Y-99757097D01*
X118624284Y-99922723D01*
X118624276Y-99922734D01*
X118533808Y-100061206D01*
X118480662Y-100106562D01*
X118411431Y-100115986D01*
X118348095Y-100086484D01*
X118326192Y-100061206D01*
X118235723Y-99922734D01*
X118235715Y-99922723D01*
X118083243Y-99757097D01*
X118083238Y-99757092D01*
X117905577Y-99618812D01*
X117905572Y-99618808D01*
X117707580Y-99511661D01*
X117707577Y-99511659D01*
X117707574Y-99511658D01*
X117707571Y-99511657D01*
X117707569Y-99511656D01*
X117494637Y-99438556D01*
X117272569Y-99401500D01*
X117047431Y-99401500D01*
X116825362Y-99438556D01*
X116612430Y-99511656D01*
X116612419Y-99511661D01*
X116414427Y-99618808D01*
X116414422Y-99618812D01*
X116236761Y-99757092D01*
X116236756Y-99757097D01*
X116084284Y-99922723D01*
X116084276Y-99922734D01*
X115993808Y-100061206D01*
X115940662Y-100106562D01*
X115871431Y-100115986D01*
X115808095Y-100086484D01*
X115786192Y-100061206D01*
X115695723Y-99922734D01*
X115695715Y-99922723D01*
X115543243Y-99757097D01*
X115543238Y-99757092D01*
X115365577Y-99618812D01*
X115365572Y-99618808D01*
X115167580Y-99511661D01*
X115167577Y-99511659D01*
X115167574Y-99511658D01*
X115167571Y-99511657D01*
X115167569Y-99511656D01*
X114954637Y-99438556D01*
X114732569Y-99401500D01*
X114507431Y-99401500D01*
X114285362Y-99438556D01*
X114072430Y-99511656D01*
X114072419Y-99511661D01*
X113874427Y-99618808D01*
X113874422Y-99618812D01*
X113696761Y-99757092D01*
X113696756Y-99757097D01*
X113544284Y-99922723D01*
X113544276Y-99922734D01*
X113453808Y-100061206D01*
X113400662Y-100106562D01*
X113331431Y-100115986D01*
X113268095Y-100086484D01*
X113246192Y-100061206D01*
X113155723Y-99922734D01*
X113155715Y-99922723D01*
X113003243Y-99757097D01*
X113003238Y-99757092D01*
X112825577Y-99618812D01*
X112825572Y-99618808D01*
X112627580Y-99511661D01*
X112627577Y-99511659D01*
X112627574Y-99511658D01*
X112627571Y-99511657D01*
X112627569Y-99511656D01*
X112414637Y-99438556D01*
X112192569Y-99401500D01*
X111967431Y-99401500D01*
X111745362Y-99438556D01*
X111532430Y-99511656D01*
X111532419Y-99511661D01*
X111334427Y-99618808D01*
X111334422Y-99618812D01*
X111156761Y-99757092D01*
X111156756Y-99757097D01*
X111004284Y-99922723D01*
X111004276Y-99922734D01*
X110913808Y-100061206D01*
X110860662Y-100106562D01*
X110791431Y-100115986D01*
X110728095Y-100086484D01*
X110706192Y-100061206D01*
X110615723Y-99922734D01*
X110615715Y-99922723D01*
X110463243Y-99757097D01*
X110463238Y-99757092D01*
X110285577Y-99618812D01*
X110285572Y-99618808D01*
X110087580Y-99511661D01*
X110087577Y-99511659D01*
X110087574Y-99511658D01*
X110087571Y-99511657D01*
X110087569Y-99511656D01*
X109874637Y-99438556D01*
X109652569Y-99401500D01*
X109427431Y-99401500D01*
X109205362Y-99438556D01*
X108992430Y-99511656D01*
X108992419Y-99511661D01*
X108794427Y-99618808D01*
X108794422Y-99618812D01*
X108616761Y-99757092D01*
X108616756Y-99757097D01*
X108464284Y-99922723D01*
X108464276Y-99922734D01*
X108373808Y-100061206D01*
X108320662Y-100106562D01*
X108251431Y-100115986D01*
X108188095Y-100086484D01*
X108166192Y-100061206D01*
X108075723Y-99922734D01*
X108075715Y-99922723D01*
X107923243Y-99757097D01*
X107923238Y-99757092D01*
X107745577Y-99618812D01*
X107745572Y-99618808D01*
X107547580Y-99511661D01*
X107547577Y-99511659D01*
X107547574Y-99511658D01*
X107547571Y-99511657D01*
X107547569Y-99511656D01*
X107334637Y-99438556D01*
X107112569Y-99401500D01*
X106887431Y-99401500D01*
X106665362Y-99438556D01*
X106452430Y-99511656D01*
X106452419Y-99511661D01*
X106254427Y-99618808D01*
X106254422Y-99618812D01*
X106076761Y-99757092D01*
X106076756Y-99757097D01*
X105924284Y-99922723D01*
X105924276Y-99922734D01*
X105801140Y-100111207D01*
X105710703Y-100317385D01*
X105655436Y-100535628D01*
X105655434Y-100535640D01*
X105636844Y-100759994D01*
X105636844Y-100760005D01*
X105655434Y-100984359D01*
X105655436Y-100984371D01*
X105710703Y-101202614D01*
X105801140Y-101408792D01*
X105924276Y-101597265D01*
X105924284Y-101597276D01*
X106018733Y-101699873D01*
X106076760Y-101762906D01*
X106254424Y-101901189D01*
X106254425Y-101901189D01*
X106254427Y-101901191D01*
X106313392Y-101933101D01*
X106452426Y-102008342D01*
X106665365Y-102081444D01*
X106887431Y-102118500D01*
X107112569Y-102118500D01*
X107334635Y-102081444D01*
X107547574Y-102008342D01*
X107745576Y-101901189D01*
X107923240Y-101762906D01*
X108044594Y-101631082D01*
X108075715Y-101597276D01*
X108075715Y-101597275D01*
X108075722Y-101597268D01*
X108166193Y-101458790D01*
X108219338Y-101413437D01*
X108288569Y-101404013D01*
X108351905Y-101433515D01*
X108373804Y-101458787D01*
X108464278Y-101597268D01*
X108464283Y-101597273D01*
X108464284Y-101597276D01*
X108558733Y-101699873D01*
X108616760Y-101762906D01*
X108794424Y-101901189D01*
X108794425Y-101901189D01*
X108794427Y-101901191D01*
X108853392Y-101933101D01*
X108992426Y-102008342D01*
X109205365Y-102081444D01*
X109427431Y-102118500D01*
X109652569Y-102118500D01*
X109874635Y-102081444D01*
X110087574Y-102008342D01*
X110285576Y-101901189D01*
X110463240Y-101762906D01*
X110584594Y-101631082D01*
X110615715Y-101597276D01*
X110615715Y-101597275D01*
X110615722Y-101597268D01*
X110706193Y-101458790D01*
X110759338Y-101413437D01*
X110828569Y-101404013D01*
X110891905Y-101433515D01*
X110913804Y-101458787D01*
X111004278Y-101597268D01*
X111004283Y-101597273D01*
X111004284Y-101597276D01*
X111098733Y-101699873D01*
X111156760Y-101762906D01*
X111334424Y-101901189D01*
X111334425Y-101901189D01*
X111334427Y-101901191D01*
X111393392Y-101933101D01*
X111532426Y-102008342D01*
X111745365Y-102081444D01*
X111967431Y-102118500D01*
X112192569Y-102118500D01*
X112414635Y-102081444D01*
X112627574Y-102008342D01*
X112825576Y-101901189D01*
X113003240Y-101762906D01*
X113124594Y-101631082D01*
X113155715Y-101597276D01*
X113155715Y-101597275D01*
X113155722Y-101597268D01*
X113246193Y-101458790D01*
X113299338Y-101413437D01*
X113368569Y-101404013D01*
X113431905Y-101433515D01*
X113453804Y-101458787D01*
X113544278Y-101597268D01*
X113544283Y-101597273D01*
X113544284Y-101597276D01*
X113638733Y-101699873D01*
X113696760Y-101762906D01*
X113874424Y-101901189D01*
X113874425Y-101901189D01*
X113874427Y-101901191D01*
X113933392Y-101933101D01*
X114072426Y-102008342D01*
X114285365Y-102081444D01*
X114507431Y-102118500D01*
X114732569Y-102118500D01*
X114954635Y-102081444D01*
X115167574Y-102008342D01*
X115365576Y-101901189D01*
X115543240Y-101762906D01*
X115664594Y-101631082D01*
X115695715Y-101597276D01*
X115695715Y-101597275D01*
X115695722Y-101597268D01*
X115786193Y-101458790D01*
X115839338Y-101413437D01*
X115908569Y-101404013D01*
X115971905Y-101433515D01*
X115993804Y-101458787D01*
X116084278Y-101597268D01*
X116084283Y-101597273D01*
X116084284Y-101597276D01*
X116178733Y-101699873D01*
X116236760Y-101762906D01*
X116414424Y-101901189D01*
X116414425Y-101901189D01*
X116414427Y-101901191D01*
X116473392Y-101933101D01*
X116612426Y-102008342D01*
X116825365Y-102081444D01*
X117047431Y-102118500D01*
X117272569Y-102118500D01*
X117494635Y-102081444D01*
X117707574Y-102008342D01*
X117905576Y-101901189D01*
X118083240Y-101762906D01*
X118204594Y-101631082D01*
X118235715Y-101597276D01*
X118235715Y-101597275D01*
X118235722Y-101597268D01*
X118326193Y-101458790D01*
X118379338Y-101413437D01*
X118448569Y-101404013D01*
X118511905Y-101433515D01*
X118533804Y-101458787D01*
X118624278Y-101597268D01*
X118624283Y-101597273D01*
X118624284Y-101597276D01*
X118718733Y-101699873D01*
X118776760Y-101762906D01*
X118954424Y-101901189D01*
X118954425Y-101901189D01*
X118954427Y-101901191D01*
X119013392Y-101933101D01*
X119152426Y-102008342D01*
X119365365Y-102081444D01*
X119587431Y-102118500D01*
X119812569Y-102118500D01*
X120034635Y-102081444D01*
X120247574Y-102008342D01*
X120445576Y-101901189D01*
X120623240Y-101762906D01*
X120744594Y-101631082D01*
X120775715Y-101597276D01*
X120775715Y-101597275D01*
X120775722Y-101597268D01*
X120866193Y-101458790D01*
X120919338Y-101413437D01*
X120988569Y-101404013D01*
X121051905Y-101433515D01*
X121073804Y-101458787D01*
X121164278Y-101597268D01*
X121164283Y-101597273D01*
X121164284Y-101597276D01*
X121258733Y-101699873D01*
X121316760Y-101762906D01*
X121494424Y-101901189D01*
X121494425Y-101901189D01*
X121494427Y-101901191D01*
X121553392Y-101933101D01*
X121692426Y-102008342D01*
X121905365Y-102081444D01*
X122127431Y-102118500D01*
X122352569Y-102118500D01*
X122574635Y-102081444D01*
X122787574Y-102008342D01*
X122985576Y-101901189D01*
X123163240Y-101762906D01*
X123284594Y-101631082D01*
X123315715Y-101597276D01*
X123315715Y-101597275D01*
X123315722Y-101597268D01*
X123406193Y-101458790D01*
X123459338Y-101413437D01*
X123528569Y-101404013D01*
X123591905Y-101433515D01*
X123613804Y-101458787D01*
X123704278Y-101597268D01*
X123704283Y-101597273D01*
X123704284Y-101597276D01*
X123798733Y-101699873D01*
X123856760Y-101762906D01*
X124034424Y-101901189D01*
X124034425Y-101901189D01*
X124034427Y-101901191D01*
X124093392Y-101933101D01*
X124232426Y-102008342D01*
X124445365Y-102081444D01*
X124667431Y-102118500D01*
X124892569Y-102118500D01*
X125114635Y-102081444D01*
X125327574Y-102008342D01*
X125525576Y-101901189D01*
X125703240Y-101762906D01*
X125824594Y-101631082D01*
X125855715Y-101597276D01*
X125855715Y-101597275D01*
X125855722Y-101597268D01*
X125946193Y-101458790D01*
X125999338Y-101413437D01*
X126068569Y-101404013D01*
X126131905Y-101433515D01*
X126153804Y-101458787D01*
X126244278Y-101597268D01*
X126244283Y-101597273D01*
X126244284Y-101597276D01*
X126338733Y-101699873D01*
X126396760Y-101762906D01*
X126574424Y-101901189D01*
X126574425Y-101901189D01*
X126574427Y-101901191D01*
X126633392Y-101933101D01*
X126772426Y-102008342D01*
X126985365Y-102081444D01*
X127207431Y-102118500D01*
X127432569Y-102118500D01*
X127654635Y-102081444D01*
X127867574Y-102008342D01*
X128065576Y-101901189D01*
X128243240Y-101762906D01*
X128364594Y-101631082D01*
X128395715Y-101597276D01*
X128395715Y-101597275D01*
X128395722Y-101597268D01*
X128486193Y-101458790D01*
X128539338Y-101413437D01*
X128608569Y-101404013D01*
X128671905Y-101433515D01*
X128693804Y-101458787D01*
X128784278Y-101597268D01*
X128784283Y-101597273D01*
X128784284Y-101597276D01*
X128878733Y-101699873D01*
X128936760Y-101762906D01*
X129114424Y-101901189D01*
X129114425Y-101901189D01*
X129114427Y-101901191D01*
X129173392Y-101933101D01*
X129312426Y-102008342D01*
X129525365Y-102081444D01*
X129747431Y-102118500D01*
X129972569Y-102118500D01*
X130194635Y-102081444D01*
X130407574Y-102008342D01*
X130605576Y-101901189D01*
X130783240Y-101762906D01*
X130904594Y-101631082D01*
X130935715Y-101597276D01*
X130935715Y-101597275D01*
X130935722Y-101597268D01*
X131026193Y-101458790D01*
X131079338Y-101413437D01*
X131148569Y-101404013D01*
X131211905Y-101433515D01*
X131233804Y-101458787D01*
X131324278Y-101597268D01*
X131324283Y-101597273D01*
X131324284Y-101597276D01*
X131418733Y-101699873D01*
X131476760Y-101762906D01*
X131654424Y-101901189D01*
X131654425Y-101901189D01*
X131654427Y-101901191D01*
X131713392Y-101933101D01*
X131852426Y-102008342D01*
X132065365Y-102081444D01*
X132287431Y-102118500D01*
X132512569Y-102118500D01*
X132734635Y-102081444D01*
X132947574Y-102008342D01*
X133145576Y-101901189D01*
X133323240Y-101762906D01*
X133444594Y-101631082D01*
X133475715Y-101597276D01*
X133475715Y-101597275D01*
X133475722Y-101597268D01*
X133569749Y-101453347D01*
X133622894Y-101407994D01*
X133692125Y-101398570D01*
X133755461Y-101428072D01*
X133775130Y-101450048D01*
X133901890Y-101631078D01*
X134068917Y-101798105D01*
X134262421Y-101933600D01*
X134476507Y-102033429D01*
X134476516Y-102033433D01*
X134690000Y-102090634D01*
X134690000Y-101372301D01*
X134709685Y-101305262D01*
X134762489Y-101259507D01*
X134831647Y-101249563D01*
X134904237Y-101260000D01*
X134904238Y-101260000D01*
X134975762Y-101260000D01*
X134975763Y-101260000D01*
X135048353Y-101249563D01*
X135117512Y-101259507D01*
X135170315Y-101305262D01*
X135190000Y-101372301D01*
X135190000Y-102090633D01*
X135403483Y-102033433D01*
X135403492Y-102033429D01*
X135617578Y-101933600D01*
X135811082Y-101798105D01*
X135978105Y-101631082D01*
X136104868Y-101450048D01*
X136159445Y-101406423D01*
X136228944Y-101399231D01*
X136291298Y-101430753D01*
X136310251Y-101453350D01*
X136404276Y-101597265D01*
X136404284Y-101597276D01*
X136498733Y-101699873D01*
X136556760Y-101762906D01*
X136734424Y-101901189D01*
X136734425Y-101901189D01*
X136734427Y-101901191D01*
X136793392Y-101933101D01*
X136932426Y-102008342D01*
X137145365Y-102081444D01*
X137367431Y-102118500D01*
X137592569Y-102118500D01*
X137814635Y-102081444D01*
X138027574Y-102008342D01*
X138225576Y-101901189D01*
X138403240Y-101762906D01*
X138524594Y-101631082D01*
X138555715Y-101597276D01*
X138555715Y-101597275D01*
X138555722Y-101597268D01*
X138646193Y-101458790D01*
X138699338Y-101413437D01*
X138768569Y-101404013D01*
X138831905Y-101433515D01*
X138853804Y-101458787D01*
X138944278Y-101597268D01*
X138944283Y-101597273D01*
X138944284Y-101597276D01*
X139038733Y-101699873D01*
X139096760Y-101762906D01*
X139274424Y-101901189D01*
X139274425Y-101901189D01*
X139274427Y-101901191D01*
X139333392Y-101933101D01*
X139472426Y-102008342D01*
X139685365Y-102081444D01*
X139907431Y-102118500D01*
X140132569Y-102118500D01*
X140354635Y-102081444D01*
X140567574Y-102008342D01*
X140765576Y-101901189D01*
X140943240Y-101762906D01*
X141006452Y-101694239D01*
X141066337Y-101658250D01*
X141136175Y-101660349D01*
X141193791Y-101699873D01*
X141213861Y-101734888D01*
X141259110Y-101856203D01*
X141259111Y-101856204D01*
X141346739Y-101973261D01*
X141463796Y-102060889D01*
X141600799Y-102111989D01*
X141628050Y-102114918D01*
X141661345Y-102118499D01*
X141661362Y-102118500D01*
X143458638Y-102118500D01*
X143458654Y-102118499D01*
X143485692Y-102115591D01*
X143519201Y-102111989D01*
X143656204Y-102060889D01*
X143773261Y-101973261D01*
X143773263Y-101973257D01*
X143779532Y-101966990D01*
X143782131Y-101969589D01*
X143824077Y-101938138D01*
X143893765Y-101933101D01*
X143955114Y-101966539D01*
X143988646Y-102027836D01*
X143991500Y-102054287D01*
X143991500Y-112530903D01*
X143971815Y-112597942D01*
X143955181Y-112618584D01*
X141968585Y-114605181D01*
X141907262Y-114638666D01*
X141880904Y-114641500D01*
X141661345Y-114641500D01*
X141600797Y-114648011D01*
X141600795Y-114648011D01*
X141463795Y-114699111D01*
X141346739Y-114786739D01*
X141259111Y-114903795D01*
X141210777Y-115033381D01*
X141168905Y-115089314D01*
X141103441Y-115113730D01*
X141035168Y-115098878D01*
X141006915Y-115077727D01*
X140891082Y-114961894D01*
X140697578Y-114826399D01*
X140483492Y-114726570D01*
X140483486Y-114726567D01*
X140270000Y-114669364D01*
X140270000Y-115387698D01*
X140250315Y-115454737D01*
X140197511Y-115500492D01*
X140128355Y-115510436D01*
X140055766Y-115500000D01*
X140055763Y-115500000D01*
X139984237Y-115500000D01*
X139984233Y-115500000D01*
X139911645Y-115510436D01*
X139842487Y-115500492D01*
X139789684Y-115454736D01*
X139770000Y-115387698D01*
X139770000Y-114669364D01*
X139769999Y-114669364D01*
X139556513Y-114726567D01*
X139556507Y-114726570D01*
X139342422Y-114826399D01*
X139342420Y-114826400D01*
X139148926Y-114961886D01*
X139148920Y-114961891D01*
X138981891Y-115128920D01*
X138981890Y-115128922D01*
X138855131Y-115309952D01*
X138800554Y-115353577D01*
X138731055Y-115360769D01*
X138668701Y-115329247D01*
X138649752Y-115306656D01*
X138555722Y-115162732D01*
X138555715Y-115162725D01*
X138555715Y-115162723D01*
X138403243Y-114997097D01*
X138403238Y-114997092D01*
X138225577Y-114858812D01*
X138225572Y-114858808D01*
X138027580Y-114751661D01*
X138027577Y-114751659D01*
X138027574Y-114751658D01*
X138027571Y-114751657D01*
X138027569Y-114751656D01*
X137814637Y-114678556D01*
X137592569Y-114641500D01*
X137367431Y-114641500D01*
X137145362Y-114678556D01*
X136932430Y-114751656D01*
X136932419Y-114751661D01*
X136734427Y-114858808D01*
X136734422Y-114858812D01*
X136556761Y-114997092D01*
X136556756Y-114997097D01*
X136404284Y-115162723D01*
X136404276Y-115162734D01*
X136313808Y-115301206D01*
X136260662Y-115346562D01*
X136191431Y-115355986D01*
X136128095Y-115326484D01*
X136106192Y-115301206D01*
X136015723Y-115162734D01*
X136015715Y-115162723D01*
X135863243Y-114997097D01*
X135863238Y-114997092D01*
X135685577Y-114858812D01*
X135685572Y-114858808D01*
X135487580Y-114751661D01*
X135487577Y-114751659D01*
X135487574Y-114751658D01*
X135487571Y-114751657D01*
X135487569Y-114751656D01*
X135274637Y-114678556D01*
X135052569Y-114641500D01*
X134827431Y-114641500D01*
X134605362Y-114678556D01*
X134392430Y-114751656D01*
X134392419Y-114751661D01*
X134194427Y-114858808D01*
X134194422Y-114858812D01*
X134016761Y-114997092D01*
X134016756Y-114997097D01*
X133864284Y-115162723D01*
X133864276Y-115162734D01*
X133773807Y-115301206D01*
X133720660Y-115346563D01*
X133651429Y-115355986D01*
X133588093Y-115326483D01*
X133566191Y-115301206D01*
X133475722Y-115162732D01*
X133475717Y-115162727D01*
X133475715Y-115162723D01*
X133323243Y-114997097D01*
X133323238Y-114997092D01*
X133145577Y-114858812D01*
X133145572Y-114858808D01*
X132947580Y-114751661D01*
X132947577Y-114751659D01*
X132947574Y-114751658D01*
X132947571Y-114751657D01*
X132947569Y-114751656D01*
X132734637Y-114678556D01*
X132512569Y-114641500D01*
X132287431Y-114641500D01*
X132065362Y-114678556D01*
X131852430Y-114751656D01*
X131852419Y-114751661D01*
X131654427Y-114858808D01*
X131654422Y-114858812D01*
X131476761Y-114997092D01*
X131476756Y-114997097D01*
X131324284Y-115162723D01*
X131324276Y-115162734D01*
X131233808Y-115301206D01*
X131180662Y-115346562D01*
X131111431Y-115355986D01*
X131048095Y-115326484D01*
X131026192Y-115301206D01*
X130935723Y-115162734D01*
X130935715Y-115162723D01*
X130783243Y-114997097D01*
X130783238Y-114997092D01*
X130605577Y-114858812D01*
X130605572Y-114858808D01*
X130407580Y-114751661D01*
X130407577Y-114751659D01*
X130407574Y-114751658D01*
X130407571Y-114751657D01*
X130407569Y-114751656D01*
X130194637Y-114678556D01*
X129972569Y-114641500D01*
X129747431Y-114641500D01*
X129525362Y-114678556D01*
X129312430Y-114751656D01*
X129312419Y-114751661D01*
X129114427Y-114858808D01*
X129114422Y-114858812D01*
X128936761Y-114997092D01*
X128936756Y-114997097D01*
X128784284Y-115162723D01*
X128784276Y-115162734D01*
X128693808Y-115301206D01*
X128640662Y-115346562D01*
X128571431Y-115355986D01*
X128508095Y-115326484D01*
X128486192Y-115301206D01*
X128395723Y-115162734D01*
X128395715Y-115162723D01*
X128243243Y-114997097D01*
X128243238Y-114997092D01*
X128065577Y-114858812D01*
X128065572Y-114858808D01*
X127867580Y-114751661D01*
X127867577Y-114751659D01*
X127867574Y-114751658D01*
X127867571Y-114751657D01*
X127867569Y-114751656D01*
X127654637Y-114678556D01*
X127432569Y-114641500D01*
X127207431Y-114641500D01*
X126985362Y-114678556D01*
X126772430Y-114751656D01*
X126772419Y-114751661D01*
X126574427Y-114858808D01*
X126574422Y-114858812D01*
X126396761Y-114997092D01*
X126396756Y-114997097D01*
X126244284Y-115162723D01*
X126244276Y-115162734D01*
X126153808Y-115301206D01*
X126100662Y-115346562D01*
X126031431Y-115355986D01*
X125968095Y-115326484D01*
X125946192Y-115301206D01*
X125855723Y-115162734D01*
X125855715Y-115162723D01*
X125703243Y-114997097D01*
X125703238Y-114997092D01*
X125525577Y-114858812D01*
X125525572Y-114858808D01*
X125327580Y-114751661D01*
X125327577Y-114751659D01*
X125327574Y-114751658D01*
X125327571Y-114751657D01*
X125327569Y-114751656D01*
X125114637Y-114678556D01*
X124892569Y-114641500D01*
X124667431Y-114641500D01*
X124445362Y-114678556D01*
X124232430Y-114751656D01*
X124232419Y-114751661D01*
X124034427Y-114858808D01*
X124034422Y-114858812D01*
X123856761Y-114997092D01*
X123856756Y-114997097D01*
X123704284Y-115162723D01*
X123704276Y-115162734D01*
X123613807Y-115301206D01*
X123560660Y-115346563D01*
X123491429Y-115355986D01*
X123428093Y-115326483D01*
X123406191Y-115301206D01*
X123315722Y-115162732D01*
X123315717Y-115162727D01*
X123315715Y-115162723D01*
X123163243Y-114997097D01*
X123163238Y-114997092D01*
X122985577Y-114858812D01*
X122985572Y-114858808D01*
X122787580Y-114751661D01*
X122787577Y-114751659D01*
X122787574Y-114751658D01*
X122787571Y-114751657D01*
X122787569Y-114751656D01*
X122574637Y-114678556D01*
X122352569Y-114641500D01*
X122127431Y-114641500D01*
X121905362Y-114678556D01*
X121692430Y-114751656D01*
X121692419Y-114751661D01*
X121494427Y-114858808D01*
X121494422Y-114858812D01*
X121316761Y-114997092D01*
X121316756Y-114997097D01*
X121164284Y-115162723D01*
X121164276Y-115162734D01*
X121073808Y-115301206D01*
X121020662Y-115346562D01*
X120951431Y-115355986D01*
X120888095Y-115326484D01*
X120866192Y-115301206D01*
X120775723Y-115162734D01*
X120775715Y-115162723D01*
X120623243Y-114997097D01*
X120623238Y-114997092D01*
X120445577Y-114858812D01*
X120445572Y-114858808D01*
X120247580Y-114751661D01*
X120247577Y-114751659D01*
X120247574Y-114751658D01*
X120247571Y-114751657D01*
X120247569Y-114751656D01*
X120034637Y-114678556D01*
X119812569Y-114641500D01*
X119587431Y-114641500D01*
X119365362Y-114678556D01*
X119152430Y-114751656D01*
X119152419Y-114751661D01*
X118954427Y-114858808D01*
X118954422Y-114858812D01*
X118776761Y-114997092D01*
X118776756Y-114997097D01*
X118624284Y-115162723D01*
X118624276Y-115162734D01*
X118533808Y-115301206D01*
X118480662Y-115346562D01*
X118411431Y-115355986D01*
X118348095Y-115326484D01*
X118326192Y-115301206D01*
X118235723Y-115162734D01*
X118235715Y-115162723D01*
X118083243Y-114997097D01*
X118083238Y-114997092D01*
X117905577Y-114858812D01*
X117905572Y-114858808D01*
X117707580Y-114751661D01*
X117707577Y-114751659D01*
X117707574Y-114751658D01*
X117707571Y-114751657D01*
X117707569Y-114751656D01*
X117494637Y-114678556D01*
X117272569Y-114641500D01*
X117047431Y-114641500D01*
X116825362Y-114678556D01*
X116612430Y-114751656D01*
X116612419Y-114751661D01*
X116414427Y-114858808D01*
X116414422Y-114858812D01*
X116236761Y-114997092D01*
X116236756Y-114997097D01*
X116084284Y-115162723D01*
X116084276Y-115162734D01*
X115993808Y-115301206D01*
X115940662Y-115346562D01*
X115871431Y-115355986D01*
X115808095Y-115326484D01*
X115786192Y-115301206D01*
X115695723Y-115162734D01*
X115695715Y-115162723D01*
X115543243Y-114997097D01*
X115543238Y-114997092D01*
X115365577Y-114858812D01*
X115365572Y-114858808D01*
X115167580Y-114751661D01*
X115167577Y-114751659D01*
X115167574Y-114751658D01*
X115167571Y-114751657D01*
X115167569Y-114751656D01*
X114954637Y-114678556D01*
X114732569Y-114641500D01*
X114507431Y-114641500D01*
X114285362Y-114678556D01*
X114072430Y-114751656D01*
X114072419Y-114751661D01*
X113874427Y-114858808D01*
X113874422Y-114858812D01*
X113696761Y-114997092D01*
X113696756Y-114997097D01*
X113544284Y-115162723D01*
X113544276Y-115162734D01*
X113453808Y-115301206D01*
X113400662Y-115346562D01*
X113331431Y-115355986D01*
X113268095Y-115326484D01*
X113246192Y-115301206D01*
X113155723Y-115162734D01*
X113155715Y-115162723D01*
X113003243Y-114997097D01*
X113003238Y-114997092D01*
X112825577Y-114858812D01*
X112825572Y-114858808D01*
X112627580Y-114751661D01*
X112627577Y-114751659D01*
X112627574Y-114751658D01*
X112627571Y-114751657D01*
X112627569Y-114751656D01*
X112414637Y-114678556D01*
X112192569Y-114641500D01*
X111967431Y-114641500D01*
X111745362Y-114678556D01*
X111532430Y-114751656D01*
X111532419Y-114751661D01*
X111334427Y-114858808D01*
X111334422Y-114858812D01*
X111156761Y-114997092D01*
X111156756Y-114997097D01*
X111004284Y-115162723D01*
X111004276Y-115162734D01*
X110913808Y-115301206D01*
X110860662Y-115346562D01*
X110791431Y-115355986D01*
X110728095Y-115326484D01*
X110706192Y-115301206D01*
X110615723Y-115162734D01*
X110615715Y-115162723D01*
X110463243Y-114997097D01*
X110463238Y-114997092D01*
X110285577Y-114858812D01*
X110285572Y-114858808D01*
X110087580Y-114751661D01*
X110087577Y-114751659D01*
X110087574Y-114751658D01*
X110087571Y-114751657D01*
X110087569Y-114751656D01*
X109874637Y-114678556D01*
X109652569Y-114641500D01*
X109427431Y-114641500D01*
X109205362Y-114678556D01*
X108992430Y-114751656D01*
X108992419Y-114751661D01*
X108794427Y-114858808D01*
X108794422Y-114858812D01*
X108616761Y-114997092D01*
X108616756Y-114997097D01*
X108464284Y-115162723D01*
X108464276Y-115162734D01*
X108373808Y-115301206D01*
X108320662Y-115346562D01*
X108251431Y-115355986D01*
X108188095Y-115326484D01*
X108166192Y-115301206D01*
X108075723Y-115162734D01*
X108075715Y-115162723D01*
X107923243Y-114997097D01*
X107923238Y-114997092D01*
X107745577Y-114858812D01*
X107745572Y-114858808D01*
X107547580Y-114751661D01*
X107547577Y-114751659D01*
X107547574Y-114751658D01*
X107547571Y-114751657D01*
X107547569Y-114751656D01*
X107334637Y-114678556D01*
X107112569Y-114641500D01*
X106887431Y-114641500D01*
X106665362Y-114678556D01*
X106452430Y-114751656D01*
X106452419Y-114751661D01*
X106254427Y-114858808D01*
X106254422Y-114858812D01*
X106076761Y-114997092D01*
X106076756Y-114997097D01*
X105924284Y-115162723D01*
X105924276Y-115162734D01*
X105801140Y-115351207D01*
X105710703Y-115557385D01*
X105655436Y-115775628D01*
X105655434Y-115775640D01*
X105636844Y-115999994D01*
X105636844Y-116000005D01*
X102075500Y-116000005D01*
X102075500Y-67056330D01*
X103745710Y-67056330D01*
X103775925Y-67279387D01*
X103775926Y-67279390D01*
X103845483Y-67493465D01*
X103952146Y-67691678D01*
X103952148Y-67691681D01*
X104092489Y-67867663D01*
X104092491Y-67867664D01*
X104092492Y-67867666D01*
X104262004Y-68015765D01*
X104455236Y-68131215D01*
X104665976Y-68210307D01*
X104887450Y-68250500D01*
X104887453Y-68250500D01*
X105056148Y-68250500D01*
X105056155Y-68250500D01*
X105224188Y-68235377D01*
X105224192Y-68235376D01*
X105441160Y-68175496D01*
X105441162Y-68175495D01*
X105441170Y-68175493D01*
X105643973Y-68077829D01*
X105826078Y-67945522D01*
X105981632Y-67782825D01*
X106105635Y-67594968D01*
X106194103Y-67387988D01*
X106244191Y-67168537D01*
X106249230Y-67056330D01*
X143745710Y-67056330D01*
X143775925Y-67279387D01*
X143775926Y-67279390D01*
X143845483Y-67493465D01*
X143952146Y-67691678D01*
X143952148Y-67691681D01*
X144092489Y-67867663D01*
X144092491Y-67867664D01*
X144092492Y-67867666D01*
X144262004Y-68015765D01*
X144455236Y-68131215D01*
X144665976Y-68210307D01*
X144887450Y-68250500D01*
X144887453Y-68250500D01*
X145056148Y-68250500D01*
X145056155Y-68250500D01*
X145224188Y-68235377D01*
X145224192Y-68235376D01*
X145441160Y-68175496D01*
X145441162Y-68175495D01*
X145441170Y-68175493D01*
X145643973Y-68077829D01*
X145826078Y-67945522D01*
X145981632Y-67782825D01*
X146105635Y-67594968D01*
X146194103Y-67387988D01*
X146244191Y-67168537D01*
X146254290Y-66943670D01*
X146224075Y-66720613D01*
X146154517Y-66506536D01*
X146047852Y-66308319D01*
X145907508Y-66132334D01*
X145737996Y-65984235D01*
X145544764Y-65868785D01*
X145426775Y-65824503D01*
X145334023Y-65789692D01*
X145112550Y-65749500D01*
X145112547Y-65749500D01*
X144943845Y-65749500D01*
X144905399Y-65752960D01*
X144775813Y-65764622D01*
X144775807Y-65764623D01*
X144558839Y-65824503D01*
X144558826Y-65824508D01*
X144356033Y-65922167D01*
X144356025Y-65922171D01*
X144173927Y-66054473D01*
X144173925Y-66054474D01*
X144018366Y-66217176D01*
X143894363Y-66405033D01*
X143805899Y-66612004D01*
X143805895Y-66612017D01*
X143755810Y-66831457D01*
X143755808Y-66831468D01*
X143750769Y-66943674D01*
X143745710Y-67056330D01*
X106249230Y-67056330D01*
X106254290Y-66943670D01*
X106224075Y-66720613D01*
X106154517Y-66506536D01*
X106047852Y-66308319D01*
X105907508Y-66132334D01*
X105737996Y-65984235D01*
X105544764Y-65868785D01*
X105426775Y-65824503D01*
X105334023Y-65789692D01*
X105112550Y-65749500D01*
X105112547Y-65749500D01*
X104943845Y-65749500D01*
X104905399Y-65752960D01*
X104775813Y-65764622D01*
X104775807Y-65764623D01*
X104558839Y-65824503D01*
X104558826Y-65824508D01*
X104356033Y-65922167D01*
X104356025Y-65922171D01*
X104173927Y-66054473D01*
X104173925Y-66054474D01*
X104018366Y-66217176D01*
X103894363Y-66405033D01*
X103805899Y-66612004D01*
X103805895Y-66612017D01*
X103755810Y-66831457D01*
X103755808Y-66831468D01*
X103750769Y-66943674D01*
X103745710Y-67056330D01*
X102075500Y-67056330D01*
X102075500Y-64199500D01*
X102095185Y-64132461D01*
X102147989Y-64086706D01*
X102199500Y-64075500D01*
X147800500Y-64075500D01*
X147867539Y-64095185D01*
G37*
%TD.AperFunction*%
%TD*%
M02*
