%TF.GenerationSoftware,KiCad,Pcbnew,7.0.7-7.0.7~ubuntu20.04.1*%
%TF.CreationDate,2023-09-11T10:36:44-04:00*%
%TF.ProjectId,board_pf_cese,626f6172-645f-4706-965f-636573652e6b,rev?*%
%TF.SameCoordinates,Original*%
%TF.FileFunction,Legend,Bot*%
%TF.FilePolarity,Positive*%
%FSLAX46Y46*%
G04 Gerber Fmt 4.6, Leading zero omitted, Abs format (unit mm)*
G04 Created by KiCad (PCBNEW 7.0.7-7.0.7~ubuntu20.04.1) date 2023-09-11 10:36:44*
%MOMM*%
%LPD*%
G01*
G04 APERTURE LIST*
%ADD10C,0.300000*%
G04 APERTURE END LIST*
D10*
X129750000Y-108028685D02*
X129892857Y-107957257D01*
X129892857Y-107957257D02*
X130035714Y-107814400D01*
X130035714Y-107814400D02*
X130250000Y-107600114D01*
X130250000Y-107600114D02*
X130392857Y-107528685D01*
X130392857Y-107528685D02*
X130535714Y-107528685D01*
X130464285Y-107885828D02*
X130607143Y-107814400D01*
X130607143Y-107814400D02*
X130750000Y-107671542D01*
X130750000Y-107671542D02*
X130821428Y-107385828D01*
X130821428Y-107385828D02*
X130821428Y-106885828D01*
X130821428Y-106885828D02*
X130750000Y-106600114D01*
X130750000Y-106600114D02*
X130607143Y-106457257D01*
X130607143Y-106457257D02*
X130464285Y-106385828D01*
X130464285Y-106385828D02*
X130178571Y-106385828D01*
X130178571Y-106385828D02*
X130035714Y-106457257D01*
X130035714Y-106457257D02*
X129892857Y-106600114D01*
X129892857Y-106600114D02*
X129821428Y-106885828D01*
X129821428Y-106885828D02*
X129821428Y-107385828D01*
X129821428Y-107385828D02*
X129892857Y-107671542D01*
X129892857Y-107671542D02*
X130035714Y-107814400D01*
X130035714Y-107814400D02*
X130178571Y-107885828D01*
X130178571Y-107885828D02*
X130464285Y-107885828D01*
X129178571Y-106385828D02*
X129178571Y-107600114D01*
X129178571Y-107600114D02*
X129107142Y-107742971D01*
X129107142Y-107742971D02*
X129035714Y-107814400D01*
X129035714Y-107814400D02*
X128892856Y-107885828D01*
X128892856Y-107885828D02*
X128607142Y-107885828D01*
X128607142Y-107885828D02*
X128464285Y-107814400D01*
X128464285Y-107814400D02*
X128392856Y-107742971D01*
X128392856Y-107742971D02*
X128321428Y-107600114D01*
X128321428Y-107600114D02*
X128321428Y-106385828D01*
X127607142Y-107885828D02*
X127607142Y-106385828D01*
X126035713Y-107742971D02*
X126107141Y-107814400D01*
X126107141Y-107814400D02*
X126321427Y-107885828D01*
X126321427Y-107885828D02*
X126464284Y-107885828D01*
X126464284Y-107885828D02*
X126678570Y-107814400D01*
X126678570Y-107814400D02*
X126821427Y-107671542D01*
X126821427Y-107671542D02*
X126892856Y-107528685D01*
X126892856Y-107528685D02*
X126964284Y-107242971D01*
X126964284Y-107242971D02*
X126964284Y-107028685D01*
X126964284Y-107028685D02*
X126892856Y-106742971D01*
X126892856Y-106742971D02*
X126821427Y-106600114D01*
X126821427Y-106600114D02*
X126678570Y-106457257D01*
X126678570Y-106457257D02*
X126464284Y-106385828D01*
X126464284Y-106385828D02*
X126321427Y-106385828D01*
X126321427Y-106385828D02*
X126107141Y-106457257D01*
X126107141Y-106457257D02*
X126035713Y-106528685D01*
X125392856Y-107885828D02*
X125392856Y-106385828D01*
X124535713Y-107885828D02*
X125178570Y-107028685D01*
X124535713Y-106385828D02*
X125392856Y-107242971D01*
X122749999Y-107885828D02*
X122749999Y-106385828D01*
X121821427Y-107885828D02*
X121964284Y-107814400D01*
X121964284Y-107814400D02*
X122035713Y-107742971D01*
X122035713Y-107742971D02*
X122107141Y-107600114D01*
X122107141Y-107600114D02*
X122107141Y-107171542D01*
X122107141Y-107171542D02*
X122035713Y-107028685D01*
X122035713Y-107028685D02*
X121964284Y-106957257D01*
X121964284Y-106957257D02*
X121821427Y-106885828D01*
X121821427Y-106885828D02*
X121607141Y-106885828D01*
X121607141Y-106885828D02*
X121464284Y-106957257D01*
X121464284Y-106957257D02*
X121392856Y-107028685D01*
X121392856Y-107028685D02*
X121321427Y-107171542D01*
X121321427Y-107171542D02*
X121321427Y-107600114D01*
X121321427Y-107600114D02*
X121392856Y-107742971D01*
X121392856Y-107742971D02*
X121464284Y-107814400D01*
X121464284Y-107814400D02*
X121607141Y-107885828D01*
X121607141Y-107885828D02*
X121821427Y-107885828D01*
X120892855Y-106385828D02*
X120035713Y-106385828D01*
X120464284Y-107885828D02*
X120464284Y-106385828D01*
X129357142Y-109515114D02*
X129142856Y-109586542D01*
X129142856Y-109586542D02*
X129071427Y-109657971D01*
X129071427Y-109657971D02*
X128999999Y-109800828D01*
X128999999Y-109800828D02*
X128999999Y-110015114D01*
X128999999Y-110015114D02*
X129071427Y-110157971D01*
X129071427Y-110157971D02*
X129142856Y-110229400D01*
X129142856Y-110229400D02*
X129285713Y-110300828D01*
X129285713Y-110300828D02*
X129857142Y-110300828D01*
X129857142Y-110300828D02*
X129857142Y-108800828D01*
X129857142Y-108800828D02*
X129357142Y-108800828D01*
X129357142Y-108800828D02*
X129214285Y-108872257D01*
X129214285Y-108872257D02*
X129142856Y-108943685D01*
X129142856Y-108943685D02*
X129071427Y-109086542D01*
X129071427Y-109086542D02*
X129071427Y-109229400D01*
X129071427Y-109229400D02*
X129142856Y-109372257D01*
X129142856Y-109372257D02*
X129214285Y-109443685D01*
X129214285Y-109443685D02*
X129357142Y-109515114D01*
X129357142Y-109515114D02*
X129857142Y-109515114D01*
X128571427Y-108800828D02*
X127714285Y-108800828D01*
X128142856Y-110300828D02*
X128142856Y-108800828D01*
X127571428Y-110443685D02*
X126428570Y-110443685D01*
X125214285Y-110157971D02*
X125285713Y-110229400D01*
X125285713Y-110229400D02*
X125499999Y-110300828D01*
X125499999Y-110300828D02*
X125642856Y-110300828D01*
X125642856Y-110300828D02*
X125857142Y-110229400D01*
X125857142Y-110229400D02*
X125999999Y-110086542D01*
X125999999Y-110086542D02*
X126071428Y-109943685D01*
X126071428Y-109943685D02*
X126142856Y-109657971D01*
X126142856Y-109657971D02*
X126142856Y-109443685D01*
X126142856Y-109443685D02*
X126071428Y-109157971D01*
X126071428Y-109157971D02*
X125999999Y-109015114D01*
X125999999Y-109015114D02*
X125857142Y-108872257D01*
X125857142Y-108872257D02*
X125642856Y-108800828D01*
X125642856Y-108800828D02*
X125499999Y-108800828D01*
X125499999Y-108800828D02*
X125285713Y-108872257D01*
X125285713Y-108872257D02*
X125214285Y-108943685D01*
X124571428Y-109515114D02*
X124071428Y-109515114D01*
X123857142Y-110300828D02*
X124571428Y-110300828D01*
X124571428Y-110300828D02*
X124571428Y-108800828D01*
X124571428Y-108800828D02*
X123857142Y-108800828D01*
X123285713Y-110229400D02*
X123071428Y-110300828D01*
X123071428Y-110300828D02*
X122714285Y-110300828D01*
X122714285Y-110300828D02*
X122571428Y-110229400D01*
X122571428Y-110229400D02*
X122499999Y-110157971D01*
X122499999Y-110157971D02*
X122428570Y-110015114D01*
X122428570Y-110015114D02*
X122428570Y-109872257D01*
X122428570Y-109872257D02*
X122499999Y-109729400D01*
X122499999Y-109729400D02*
X122571428Y-109657971D01*
X122571428Y-109657971D02*
X122714285Y-109586542D01*
X122714285Y-109586542D02*
X122999999Y-109515114D01*
X122999999Y-109515114D02*
X123142856Y-109443685D01*
X123142856Y-109443685D02*
X123214285Y-109372257D01*
X123214285Y-109372257D02*
X123285713Y-109229400D01*
X123285713Y-109229400D02*
X123285713Y-109086542D01*
X123285713Y-109086542D02*
X123214285Y-108943685D01*
X123214285Y-108943685D02*
X123142856Y-108872257D01*
X123142856Y-108872257D02*
X122999999Y-108800828D01*
X122999999Y-108800828D02*
X122642856Y-108800828D01*
X122642856Y-108800828D02*
X122428570Y-108872257D01*
X121785714Y-109515114D02*
X121285714Y-109515114D01*
X121071428Y-110300828D02*
X121785714Y-110300828D01*
X121785714Y-110300828D02*
X121785714Y-108800828D01*
X121785714Y-108800828D02*
X121071428Y-108800828D01*
M02*
