%TF.GenerationSoftware,KiCad,Pcbnew,7.0.7-7.0.7~ubuntu20.04.1*%
%TF.CreationDate,2023-09-11T10:36:44-04:00*%
%TF.ProjectId,board_pf_cese,626f6172-645f-4706-965f-636573652e6b,rev?*%
%TF.SameCoordinates,Original*%
%TF.FileFunction,Legend,Top*%
%TF.FilePolarity,Positive*%
%FSLAX46Y46*%
G04 Gerber Fmt 4.6, Leading zero omitted, Abs format (unit mm)*
G04 Created by KiCad (PCBNEW 7.0.7-7.0.7~ubuntu20.04.1) date 2023-09-11 10:36:44*
%MOMM*%
%LPD*%
G01*
G04 APERTURE LIST*
%ADD10C,0.150000*%
%ADD11C,0.120000*%
G04 APERTURE END LIST*
D10*
X106086779Y-91369819D02*
X106086779Y-92179342D01*
X106086779Y-92179342D02*
X106134398Y-92274580D01*
X106134398Y-92274580D02*
X106182017Y-92322200D01*
X106182017Y-92322200D02*
X106277255Y-92369819D01*
X106277255Y-92369819D02*
X106467731Y-92369819D01*
X106467731Y-92369819D02*
X106562969Y-92322200D01*
X106562969Y-92322200D02*
X106610588Y-92274580D01*
X106610588Y-92274580D02*
X106658207Y-92179342D01*
X106658207Y-92179342D02*
X106658207Y-91369819D01*
X107086779Y-92084104D02*
X107562969Y-92084104D01*
X106991541Y-92369819D02*
X107324874Y-91369819D01*
X107324874Y-91369819D02*
X107658207Y-92369819D01*
X108562969Y-92369819D02*
X108229636Y-91893628D01*
X107991541Y-92369819D02*
X107991541Y-91369819D01*
X107991541Y-91369819D02*
X108372493Y-91369819D01*
X108372493Y-91369819D02*
X108467731Y-91417438D01*
X108467731Y-91417438D02*
X108515350Y-91465057D01*
X108515350Y-91465057D02*
X108562969Y-91560295D01*
X108562969Y-91560295D02*
X108562969Y-91703152D01*
X108562969Y-91703152D02*
X108515350Y-91798390D01*
X108515350Y-91798390D02*
X108467731Y-91846009D01*
X108467731Y-91846009D02*
X108372493Y-91893628D01*
X108372493Y-91893628D02*
X107991541Y-91893628D01*
X108848684Y-91369819D02*
X109420112Y-91369819D01*
X109134398Y-92369819D02*
X109134398Y-91369819D01*
X109515351Y-92465057D02*
X110277255Y-92465057D01*
X110515351Y-92369819D02*
X110515351Y-91369819D01*
X110515351Y-91369819D02*
X110753446Y-91369819D01*
X110753446Y-91369819D02*
X110896303Y-91417438D01*
X110896303Y-91417438D02*
X110991541Y-91512676D01*
X110991541Y-91512676D02*
X111039160Y-91607914D01*
X111039160Y-91607914D02*
X111086779Y-91798390D01*
X111086779Y-91798390D02*
X111086779Y-91941247D01*
X111086779Y-91941247D02*
X111039160Y-92131723D01*
X111039160Y-92131723D02*
X110991541Y-92226961D01*
X110991541Y-92226961D02*
X110896303Y-92322200D01*
X110896303Y-92322200D02*
X110753446Y-92369819D01*
X110753446Y-92369819D02*
X110515351Y-92369819D01*
X111515351Y-91846009D02*
X111848684Y-91846009D01*
X111991541Y-92369819D02*
X111515351Y-92369819D01*
X111515351Y-92369819D02*
X111515351Y-91369819D01*
X111515351Y-91369819D02*
X111991541Y-91369819D01*
X112753446Y-91846009D02*
X112896303Y-91893628D01*
X112896303Y-91893628D02*
X112943922Y-91941247D01*
X112943922Y-91941247D02*
X112991541Y-92036485D01*
X112991541Y-92036485D02*
X112991541Y-92179342D01*
X112991541Y-92179342D02*
X112943922Y-92274580D01*
X112943922Y-92274580D02*
X112896303Y-92322200D01*
X112896303Y-92322200D02*
X112801065Y-92369819D01*
X112801065Y-92369819D02*
X112420113Y-92369819D01*
X112420113Y-92369819D02*
X112420113Y-91369819D01*
X112420113Y-91369819D02*
X112753446Y-91369819D01*
X112753446Y-91369819D02*
X112848684Y-91417438D01*
X112848684Y-91417438D02*
X112896303Y-91465057D01*
X112896303Y-91465057D02*
X112943922Y-91560295D01*
X112943922Y-91560295D02*
X112943922Y-91655533D01*
X112943922Y-91655533D02*
X112896303Y-91750771D01*
X112896303Y-91750771D02*
X112848684Y-91798390D01*
X112848684Y-91798390D02*
X112753446Y-91846009D01*
X112753446Y-91846009D02*
X112420113Y-91846009D01*
X113420113Y-91369819D02*
X113420113Y-92179342D01*
X113420113Y-92179342D02*
X113467732Y-92274580D01*
X113467732Y-92274580D02*
X113515351Y-92322200D01*
X113515351Y-92322200D02*
X113610589Y-92369819D01*
X113610589Y-92369819D02*
X113801065Y-92369819D01*
X113801065Y-92369819D02*
X113896303Y-92322200D01*
X113896303Y-92322200D02*
X113943922Y-92274580D01*
X113943922Y-92274580D02*
X113991541Y-92179342D01*
X113991541Y-92179342D02*
X113991541Y-91369819D01*
X114991541Y-91417438D02*
X114896303Y-91369819D01*
X114896303Y-91369819D02*
X114753446Y-91369819D01*
X114753446Y-91369819D02*
X114610589Y-91417438D01*
X114610589Y-91417438D02*
X114515351Y-91512676D01*
X114515351Y-91512676D02*
X114467732Y-91607914D01*
X114467732Y-91607914D02*
X114420113Y-91798390D01*
X114420113Y-91798390D02*
X114420113Y-91941247D01*
X114420113Y-91941247D02*
X114467732Y-92131723D01*
X114467732Y-92131723D02*
X114515351Y-92226961D01*
X114515351Y-92226961D02*
X114610589Y-92322200D01*
X114610589Y-92322200D02*
X114753446Y-92369819D01*
X114753446Y-92369819D02*
X114848684Y-92369819D01*
X114848684Y-92369819D02*
X114991541Y-92322200D01*
X114991541Y-92322200D02*
X115039160Y-92274580D01*
X115039160Y-92274580D02*
X115039160Y-91941247D01*
X115039160Y-91941247D02*
X114848684Y-91941247D01*
X148869819Y-74437030D02*
X148869819Y-74913220D01*
X148869819Y-74913220D02*
X149346009Y-74960839D01*
X149346009Y-74960839D02*
X149298390Y-74913220D01*
X149298390Y-74913220D02*
X149250771Y-74817982D01*
X149250771Y-74817982D02*
X149250771Y-74579887D01*
X149250771Y-74579887D02*
X149298390Y-74484649D01*
X149298390Y-74484649D02*
X149346009Y-74437030D01*
X149346009Y-74437030D02*
X149441247Y-74389411D01*
X149441247Y-74389411D02*
X149679342Y-74389411D01*
X149679342Y-74389411D02*
X149774580Y-74437030D01*
X149774580Y-74437030D02*
X149822200Y-74484649D01*
X149822200Y-74484649D02*
X149869819Y-74579887D01*
X149869819Y-74579887D02*
X149869819Y-74817982D01*
X149869819Y-74817982D02*
X149822200Y-74913220D01*
X149822200Y-74913220D02*
X149774580Y-74960839D01*
X148869819Y-74103696D02*
X149869819Y-73770363D01*
X149869819Y-73770363D02*
X148869819Y-73437030D01*
X149619819Y-86139411D02*
X149619819Y-86710839D01*
X149619819Y-86425125D02*
X148619819Y-86425125D01*
X148619819Y-86425125D02*
X148762676Y-86520363D01*
X148762676Y-86520363D02*
X148857914Y-86615601D01*
X148857914Y-86615601D02*
X148905533Y-86710839D01*
X148715057Y-85758458D02*
X148667438Y-85710839D01*
X148667438Y-85710839D02*
X148619819Y-85615601D01*
X148619819Y-85615601D02*
X148619819Y-85377506D01*
X148619819Y-85377506D02*
X148667438Y-85282268D01*
X148667438Y-85282268D02*
X148715057Y-85234649D01*
X148715057Y-85234649D02*
X148810295Y-85187030D01*
X148810295Y-85187030D02*
X148905533Y-85187030D01*
X148905533Y-85187030D02*
X149048390Y-85234649D01*
X149048390Y-85234649D02*
X149619819Y-85806077D01*
X149619819Y-85806077D02*
X149619819Y-85187030D01*
X148619819Y-84901315D02*
X149619819Y-84567982D01*
X149619819Y-84567982D02*
X148619819Y-84234649D01*
X125684819Y-127333333D02*
X126399104Y-127333333D01*
X126399104Y-127333333D02*
X126541961Y-127380952D01*
X126541961Y-127380952D02*
X126637200Y-127476190D01*
X126637200Y-127476190D02*
X126684819Y-127619047D01*
X126684819Y-127619047D02*
X126684819Y-127714285D01*
X125684819Y-126380952D02*
X125684819Y-126857142D01*
X125684819Y-126857142D02*
X126161009Y-126904761D01*
X126161009Y-126904761D02*
X126113390Y-126857142D01*
X126113390Y-126857142D02*
X126065771Y-126761904D01*
X126065771Y-126761904D02*
X126065771Y-126523809D01*
X126065771Y-126523809D02*
X126113390Y-126428571D01*
X126113390Y-126428571D02*
X126161009Y-126380952D01*
X126161009Y-126380952D02*
X126256247Y-126333333D01*
X126256247Y-126333333D02*
X126494342Y-126333333D01*
X126494342Y-126333333D02*
X126589580Y-126380952D01*
X126589580Y-126380952D02*
X126637200Y-126428571D01*
X126637200Y-126428571D02*
X126684819Y-126523809D01*
X126684819Y-126523809D02*
X126684819Y-126761904D01*
X126684819Y-126761904D02*
X126637200Y-126857142D01*
X126637200Y-126857142D02*
X126589580Y-126904761D01*
X108666666Y-67684819D02*
X108666666Y-68399104D01*
X108666666Y-68399104D02*
X108619047Y-68541961D01*
X108619047Y-68541961D02*
X108523809Y-68637200D01*
X108523809Y-68637200D02*
X108380952Y-68684819D01*
X108380952Y-68684819D02*
X108285714Y-68684819D01*
X109285714Y-68113390D02*
X109190476Y-68065771D01*
X109190476Y-68065771D02*
X109142857Y-68018152D01*
X109142857Y-68018152D02*
X109095238Y-67922914D01*
X109095238Y-67922914D02*
X109095238Y-67875295D01*
X109095238Y-67875295D02*
X109142857Y-67780057D01*
X109142857Y-67780057D02*
X109190476Y-67732438D01*
X109190476Y-67732438D02*
X109285714Y-67684819D01*
X109285714Y-67684819D02*
X109476190Y-67684819D01*
X109476190Y-67684819D02*
X109571428Y-67732438D01*
X109571428Y-67732438D02*
X109619047Y-67780057D01*
X109619047Y-67780057D02*
X109666666Y-67875295D01*
X109666666Y-67875295D02*
X109666666Y-67922914D01*
X109666666Y-67922914D02*
X109619047Y-68018152D01*
X109619047Y-68018152D02*
X109571428Y-68065771D01*
X109571428Y-68065771D02*
X109476190Y-68113390D01*
X109476190Y-68113390D02*
X109285714Y-68113390D01*
X109285714Y-68113390D02*
X109190476Y-68161009D01*
X109190476Y-68161009D02*
X109142857Y-68208628D01*
X109142857Y-68208628D02*
X109095238Y-68303866D01*
X109095238Y-68303866D02*
X109095238Y-68494342D01*
X109095238Y-68494342D02*
X109142857Y-68589580D01*
X109142857Y-68589580D02*
X109190476Y-68637200D01*
X109190476Y-68637200D02*
X109285714Y-68684819D01*
X109285714Y-68684819D02*
X109476190Y-68684819D01*
X109476190Y-68684819D02*
X109571428Y-68637200D01*
X109571428Y-68637200D02*
X109619047Y-68589580D01*
X109619047Y-68589580D02*
X109666666Y-68494342D01*
X109666666Y-68494342D02*
X109666666Y-68303866D01*
X109666666Y-68303866D02*
X109619047Y-68208628D01*
X109619047Y-68208628D02*
X109571428Y-68161009D01*
X109571428Y-68161009D02*
X109476190Y-68113390D01*
X120333333Y-98454819D02*
X120000000Y-97978628D01*
X119761905Y-98454819D02*
X119761905Y-97454819D01*
X119761905Y-97454819D02*
X120142857Y-97454819D01*
X120142857Y-97454819D02*
X120238095Y-97502438D01*
X120238095Y-97502438D02*
X120285714Y-97550057D01*
X120285714Y-97550057D02*
X120333333Y-97645295D01*
X120333333Y-97645295D02*
X120333333Y-97788152D01*
X120333333Y-97788152D02*
X120285714Y-97883390D01*
X120285714Y-97883390D02*
X120238095Y-97931009D01*
X120238095Y-97931009D02*
X120142857Y-97978628D01*
X120142857Y-97978628D02*
X119761905Y-97978628D01*
X121285714Y-98454819D02*
X120714286Y-98454819D01*
X121000000Y-98454819D02*
X121000000Y-97454819D01*
X121000000Y-97454819D02*
X120904762Y-97597676D01*
X120904762Y-97597676D02*
X120809524Y-97692914D01*
X120809524Y-97692914D02*
X120714286Y-97740533D01*
X136694819Y-74533333D02*
X137409104Y-74533333D01*
X137409104Y-74533333D02*
X137551961Y-74580952D01*
X137551961Y-74580952D02*
X137647200Y-74676190D01*
X137647200Y-74676190D02*
X137694819Y-74819047D01*
X137694819Y-74819047D02*
X137694819Y-74914285D01*
X137694819Y-73533333D02*
X137694819Y-74104761D01*
X137694819Y-73819047D02*
X136694819Y-73819047D01*
X136694819Y-73819047D02*
X136837676Y-73914285D01*
X136837676Y-73914285D02*
X136932914Y-74009523D01*
X136932914Y-74009523D02*
X136980533Y-74104761D01*
X134954819Y-91488094D02*
X133954819Y-91488094D01*
X133954819Y-91488094D02*
X133954819Y-91249999D01*
X133954819Y-91249999D02*
X134002438Y-91107142D01*
X134002438Y-91107142D02*
X134097676Y-91011904D01*
X134097676Y-91011904D02*
X134192914Y-90964285D01*
X134192914Y-90964285D02*
X134383390Y-90916666D01*
X134383390Y-90916666D02*
X134526247Y-90916666D01*
X134526247Y-90916666D02*
X134716723Y-90964285D01*
X134716723Y-90964285D02*
X134811961Y-91011904D01*
X134811961Y-91011904D02*
X134907200Y-91107142D01*
X134907200Y-91107142D02*
X134954819Y-91249999D01*
X134954819Y-91249999D02*
X134954819Y-91488094D01*
X134050057Y-90535713D02*
X134002438Y-90488094D01*
X134002438Y-90488094D02*
X133954819Y-90392856D01*
X133954819Y-90392856D02*
X133954819Y-90154761D01*
X133954819Y-90154761D02*
X134002438Y-90059523D01*
X134002438Y-90059523D02*
X134050057Y-90011904D01*
X134050057Y-90011904D02*
X134145295Y-89964285D01*
X134145295Y-89964285D02*
X134240533Y-89964285D01*
X134240533Y-89964285D02*
X134383390Y-90011904D01*
X134383390Y-90011904D02*
X134954819Y-90583332D01*
X134954819Y-90583332D02*
X134954819Y-89964285D01*
X144784819Y-101093333D02*
X145499104Y-101093333D01*
X145499104Y-101093333D02*
X145641961Y-101140952D01*
X145641961Y-101140952D02*
X145737200Y-101236190D01*
X145737200Y-101236190D02*
X145784819Y-101379047D01*
X145784819Y-101379047D02*
X145784819Y-101474285D01*
X144784819Y-100712380D02*
X144784819Y-100045714D01*
X144784819Y-100045714D02*
X145784819Y-100474285D01*
X125604819Y-122333333D02*
X126319104Y-122333333D01*
X126319104Y-122333333D02*
X126461961Y-122380952D01*
X126461961Y-122380952D02*
X126557200Y-122476190D01*
X126557200Y-122476190D02*
X126604819Y-122619047D01*
X126604819Y-122619047D02*
X126604819Y-122714285D01*
X125604819Y-121952380D02*
X125604819Y-121333333D01*
X125604819Y-121333333D02*
X125985771Y-121666666D01*
X125985771Y-121666666D02*
X125985771Y-121523809D01*
X125985771Y-121523809D02*
X126033390Y-121428571D01*
X126033390Y-121428571D02*
X126081009Y-121380952D01*
X126081009Y-121380952D02*
X126176247Y-121333333D01*
X126176247Y-121333333D02*
X126414342Y-121333333D01*
X126414342Y-121333333D02*
X126509580Y-121380952D01*
X126509580Y-121380952D02*
X126557200Y-121428571D01*
X126557200Y-121428571D02*
X126604819Y-121523809D01*
X126604819Y-121523809D02*
X126604819Y-121809523D01*
X126604819Y-121809523D02*
X126557200Y-121904761D01*
X126557200Y-121904761D02*
X126509580Y-121952380D01*
X121833333Y-91204819D02*
X121500000Y-90728628D01*
X121261905Y-91204819D02*
X121261905Y-90204819D01*
X121261905Y-90204819D02*
X121642857Y-90204819D01*
X121642857Y-90204819D02*
X121738095Y-90252438D01*
X121738095Y-90252438D02*
X121785714Y-90300057D01*
X121785714Y-90300057D02*
X121833333Y-90395295D01*
X121833333Y-90395295D02*
X121833333Y-90538152D01*
X121833333Y-90538152D02*
X121785714Y-90633390D01*
X121785714Y-90633390D02*
X121738095Y-90681009D01*
X121738095Y-90681009D02*
X121642857Y-90728628D01*
X121642857Y-90728628D02*
X121261905Y-90728628D01*
X122214286Y-90300057D02*
X122261905Y-90252438D01*
X122261905Y-90252438D02*
X122357143Y-90204819D01*
X122357143Y-90204819D02*
X122595238Y-90204819D01*
X122595238Y-90204819D02*
X122690476Y-90252438D01*
X122690476Y-90252438D02*
X122738095Y-90300057D01*
X122738095Y-90300057D02*
X122785714Y-90395295D01*
X122785714Y-90395295D02*
X122785714Y-90490533D01*
X122785714Y-90490533D02*
X122738095Y-90633390D01*
X122738095Y-90633390D02*
X122166667Y-91204819D01*
X122166667Y-91204819D02*
X122785714Y-91204819D01*
X131526666Y-67454819D02*
X131526666Y-68169104D01*
X131526666Y-68169104D02*
X131479047Y-68311961D01*
X131479047Y-68311961D02*
X131383809Y-68407200D01*
X131383809Y-68407200D02*
X131240952Y-68454819D01*
X131240952Y-68454819D02*
X131145714Y-68454819D01*
X132050476Y-68454819D02*
X132240952Y-68454819D01*
X132240952Y-68454819D02*
X132336190Y-68407200D01*
X132336190Y-68407200D02*
X132383809Y-68359580D01*
X132383809Y-68359580D02*
X132479047Y-68216723D01*
X132479047Y-68216723D02*
X132526666Y-68026247D01*
X132526666Y-68026247D02*
X132526666Y-67645295D01*
X132526666Y-67645295D02*
X132479047Y-67550057D01*
X132479047Y-67550057D02*
X132431428Y-67502438D01*
X132431428Y-67502438D02*
X132336190Y-67454819D01*
X132336190Y-67454819D02*
X132145714Y-67454819D01*
X132145714Y-67454819D02*
X132050476Y-67502438D01*
X132050476Y-67502438D02*
X132002857Y-67550057D01*
X132002857Y-67550057D02*
X131955238Y-67645295D01*
X131955238Y-67645295D02*
X131955238Y-67883390D01*
X131955238Y-67883390D02*
X132002857Y-67978628D01*
X132002857Y-67978628D02*
X132050476Y-68026247D01*
X132050476Y-68026247D02*
X132145714Y-68073866D01*
X132145714Y-68073866D02*
X132336190Y-68073866D01*
X132336190Y-68073866D02*
X132431428Y-68026247D01*
X132431428Y-68026247D02*
X132479047Y-67978628D01*
X132479047Y-67978628D02*
X132526666Y-67883390D01*
X110684819Y-122333333D02*
X111399104Y-122333333D01*
X111399104Y-122333333D02*
X111541961Y-122380952D01*
X111541961Y-122380952D02*
X111637200Y-122476190D01*
X111637200Y-122476190D02*
X111684819Y-122619047D01*
X111684819Y-122619047D02*
X111684819Y-122714285D01*
X110780057Y-121904761D02*
X110732438Y-121857142D01*
X110732438Y-121857142D02*
X110684819Y-121761904D01*
X110684819Y-121761904D02*
X110684819Y-121523809D01*
X110684819Y-121523809D02*
X110732438Y-121428571D01*
X110732438Y-121428571D02*
X110780057Y-121380952D01*
X110780057Y-121380952D02*
X110875295Y-121333333D01*
X110875295Y-121333333D02*
X110970533Y-121333333D01*
X110970533Y-121333333D02*
X111113390Y-121380952D01*
X111113390Y-121380952D02*
X111684819Y-121952380D01*
X111684819Y-121952380D02*
X111684819Y-121333333D01*
X136694819Y-86209523D02*
X137409104Y-86209523D01*
X137409104Y-86209523D02*
X137551961Y-86257142D01*
X137551961Y-86257142D02*
X137647200Y-86352380D01*
X137647200Y-86352380D02*
X137694819Y-86495237D01*
X137694819Y-86495237D02*
X137694819Y-86590475D01*
X137694819Y-85209523D02*
X137694819Y-85780951D01*
X137694819Y-85495237D02*
X136694819Y-85495237D01*
X136694819Y-85495237D02*
X136837676Y-85590475D01*
X136837676Y-85590475D02*
X136932914Y-85685713D01*
X136932914Y-85685713D02*
X136980533Y-85780951D01*
X136694819Y-84590475D02*
X136694819Y-84495237D01*
X136694819Y-84495237D02*
X136742438Y-84399999D01*
X136742438Y-84399999D02*
X136790057Y-84352380D01*
X136790057Y-84352380D02*
X136885295Y-84304761D01*
X136885295Y-84304761D02*
X137075771Y-84257142D01*
X137075771Y-84257142D02*
X137313866Y-84257142D01*
X137313866Y-84257142D02*
X137504342Y-84304761D01*
X137504342Y-84304761D02*
X137599580Y-84352380D01*
X137599580Y-84352380D02*
X137647200Y-84399999D01*
X137647200Y-84399999D02*
X137694819Y-84495237D01*
X137694819Y-84495237D02*
X137694819Y-84590475D01*
X137694819Y-84590475D02*
X137647200Y-84685713D01*
X137647200Y-84685713D02*
X137599580Y-84733332D01*
X137599580Y-84733332D02*
X137504342Y-84780951D01*
X137504342Y-84780951D02*
X137313866Y-84828570D01*
X137313866Y-84828570D02*
X137075771Y-84828570D01*
X137075771Y-84828570D02*
X136885295Y-84780951D01*
X136885295Y-84780951D02*
X136790057Y-84733332D01*
X136790057Y-84733332D02*
X136742438Y-84685713D01*
X136742438Y-84685713D02*
X136694819Y-84590475D01*
X142204819Y-92488094D02*
X141204819Y-92488094D01*
X141204819Y-92488094D02*
X141204819Y-92249999D01*
X141204819Y-92249999D02*
X141252438Y-92107142D01*
X141252438Y-92107142D02*
X141347676Y-92011904D01*
X141347676Y-92011904D02*
X141442914Y-91964285D01*
X141442914Y-91964285D02*
X141633390Y-91916666D01*
X141633390Y-91916666D02*
X141776247Y-91916666D01*
X141776247Y-91916666D02*
X141966723Y-91964285D01*
X141966723Y-91964285D02*
X142061961Y-92011904D01*
X142061961Y-92011904D02*
X142157200Y-92107142D01*
X142157200Y-92107142D02*
X142204819Y-92249999D01*
X142204819Y-92249999D02*
X142204819Y-92488094D01*
X142204819Y-90964285D02*
X142204819Y-91535713D01*
X142204819Y-91249999D02*
X141204819Y-91249999D01*
X141204819Y-91249999D02*
X141347676Y-91345237D01*
X141347676Y-91345237D02*
X141442914Y-91440475D01*
X141442914Y-91440475D02*
X141490533Y-91535713D01*
X110684819Y-127333333D02*
X111399104Y-127333333D01*
X111399104Y-127333333D02*
X111541961Y-127380952D01*
X111541961Y-127380952D02*
X111637200Y-127476190D01*
X111637200Y-127476190D02*
X111684819Y-127619047D01*
X111684819Y-127619047D02*
X111684819Y-127714285D01*
X111018152Y-126428571D02*
X111684819Y-126428571D01*
X110637200Y-126666666D02*
X111351485Y-126904761D01*
X111351485Y-126904761D02*
X111351485Y-126285714D01*
X116690476Y-91454819D02*
X116690476Y-92169104D01*
X116690476Y-92169104D02*
X116642857Y-92311961D01*
X116642857Y-92311961D02*
X116547619Y-92407200D01*
X116547619Y-92407200D02*
X116404762Y-92454819D01*
X116404762Y-92454819D02*
X116309524Y-92454819D01*
X117690476Y-92454819D02*
X117119048Y-92454819D01*
X117404762Y-92454819D02*
X117404762Y-91454819D01*
X117404762Y-91454819D02*
X117309524Y-91597676D01*
X117309524Y-91597676D02*
X117214286Y-91692914D01*
X117214286Y-91692914D02*
X117119048Y-91740533D01*
X118642857Y-92454819D02*
X118071429Y-92454819D01*
X118357143Y-92454819D02*
X118357143Y-91454819D01*
X118357143Y-91454819D02*
X118261905Y-91597676D01*
X118261905Y-91597676D02*
X118166667Y-91692914D01*
X118166667Y-91692914D02*
X118071429Y-91740533D01*
X144784819Y-116333333D02*
X145499104Y-116333333D01*
X145499104Y-116333333D02*
X145641961Y-116380952D01*
X145641961Y-116380952D02*
X145737200Y-116476190D01*
X145737200Y-116476190D02*
X145784819Y-116619047D01*
X145784819Y-116619047D02*
X145784819Y-116714285D01*
X144784819Y-115428571D02*
X144784819Y-115619047D01*
X144784819Y-115619047D02*
X144832438Y-115714285D01*
X144832438Y-115714285D02*
X144880057Y-115761904D01*
X144880057Y-115761904D02*
X145022914Y-115857142D01*
X145022914Y-115857142D02*
X145213390Y-115904761D01*
X145213390Y-115904761D02*
X145594342Y-115904761D01*
X145594342Y-115904761D02*
X145689580Y-115857142D01*
X145689580Y-115857142D02*
X145737200Y-115809523D01*
X145737200Y-115809523D02*
X145784819Y-115714285D01*
X145784819Y-115714285D02*
X145784819Y-115523809D01*
X145784819Y-115523809D02*
X145737200Y-115428571D01*
X145737200Y-115428571D02*
X145689580Y-115380952D01*
X145689580Y-115380952D02*
X145594342Y-115333333D01*
X145594342Y-115333333D02*
X145356247Y-115333333D01*
X145356247Y-115333333D02*
X145261009Y-115380952D01*
X145261009Y-115380952D02*
X145213390Y-115428571D01*
X145213390Y-115428571D02*
X145165771Y-115523809D01*
X145165771Y-115523809D02*
X145165771Y-115714285D01*
X145165771Y-115714285D02*
X145213390Y-115809523D01*
X145213390Y-115809523D02*
X145261009Y-115857142D01*
X145261009Y-115857142D02*
X145356247Y-115904761D01*
D11*
%TO.C,J5*%
X130270000Y-128330000D02*
X137950000Y-128330000D01*
X130270000Y-128330000D02*
X130270000Y-125670000D01*
X137950000Y-128330000D02*
X137950000Y-125670000D01*
X127670000Y-127000000D02*
X127670000Y-125670000D01*
X127670000Y-125670000D02*
X129000000Y-125670000D01*
X130270000Y-125670000D02*
X137950000Y-125670000D01*
%TO.C,J8*%
X107670000Y-72270000D02*
X107670000Y-90110000D01*
X107670000Y-72270000D02*
X110330000Y-72270000D01*
X107670000Y-90110000D02*
X110330000Y-90110000D01*
X109000000Y-69670000D02*
X110330000Y-69670000D01*
X110330000Y-69670000D02*
X110330000Y-71000000D01*
X110330000Y-72270000D02*
X110330000Y-90110000D01*
%TO.C,R1*%
X123460000Y-97000000D02*
X124230000Y-97000000D01*
X124230000Y-95630000D02*
X124230000Y-98370000D01*
X124230000Y-98370000D02*
X130770000Y-98370000D01*
X130770000Y-95630000D02*
X124230000Y-95630000D01*
X130770000Y-98370000D02*
X130770000Y-95630000D01*
X131540000Y-97000000D02*
X130770000Y-97000000D01*
%TO.C,J1*%
X147660000Y-79500000D02*
X148400000Y-79500000D01*
X148400000Y-79500000D02*
X148400000Y-79000000D01*
X138239000Y-79260000D02*
X148160000Y-79260000D01*
X138239000Y-79260000D02*
X138239000Y-69140000D01*
X141199000Y-79260000D02*
X141199000Y-69140000D01*
X146100000Y-79260000D02*
X146100000Y-69140000D01*
X147600000Y-79260000D02*
X147600000Y-69140000D01*
X148160000Y-79260000D02*
X148160000Y-69140000D01*
X144523000Y-72927000D02*
X144569000Y-72974000D01*
X144739000Y-72734000D02*
X144774000Y-72769000D01*
X142225000Y-70630000D02*
X142261000Y-70665000D01*
X142431000Y-70425000D02*
X142477000Y-70472000D01*
X138239000Y-69140000D02*
X148160000Y-69140000D01*
X142816001Y-78234999D02*
G75*
G03*
X144183042Y-78235426I684000J1534992D01*
G01*
X141965001Y-76016001D02*
G75*
G03*
X141964574Y-77383042I1534992J-684000D01*
G01*
X145034999Y-77384000D02*
G75*
G03*
X145180252Y-76671195I-1535000J683999D01*
G01*
X145179999Y-76700000D02*
G75*
G03*
X145034755Y-76016682I-1679999J0D01*
G01*
X144184000Y-75165000D02*
G75*
G03*
X142816958Y-75164574I-684000J-1535000D01*
G01*
X145180000Y-71700000D02*
G75*
G03*
X145180000Y-71700000I-1680000J0D01*
G01*
%TO.C,D2*%
X139545000Y-92460000D02*
X136455000Y-92460000D01*
X137999538Y-98009999D02*
G75*
G03*
X139544830Y-92460001I462J2989999D01*
G01*
X136455170Y-92460000D02*
G75*
G03*
X138000462Y-98010000I1544830J-2560000D01*
G01*
X140500000Y-95020000D02*
G75*
G03*
X140500000Y-95020000I-2500000J0D01*
G01*
%TO.C,J7*%
X141290000Y-99430000D02*
X105670000Y-99430000D01*
X141290000Y-99430000D02*
X141290000Y-102090000D01*
X105670000Y-99430000D02*
X105670000Y-102090000D01*
X143890000Y-100760000D02*
X143890000Y-102090000D01*
X143890000Y-102090000D02*
X142560000Y-102090000D01*
X141290000Y-102090000D02*
X105670000Y-102090000D01*
%TO.C,J3*%
X130190000Y-123330000D02*
X137870000Y-123330000D01*
X130190000Y-123330000D02*
X130190000Y-120670000D01*
X137870000Y-123330000D02*
X137870000Y-120670000D01*
X127590000Y-122000000D02*
X127590000Y-120670000D01*
X127590000Y-120670000D02*
X128920000Y-120670000D01*
X130190000Y-120670000D02*
X137870000Y-120670000D01*
%TO.C,R2*%
X123460000Y-93000000D02*
X124230000Y-93000000D01*
X124230000Y-91630000D02*
X124230000Y-94370000D01*
X124230000Y-94370000D02*
X130770000Y-94370000D01*
X130770000Y-91630000D02*
X124230000Y-91630000D01*
X130770000Y-94370000D02*
X130770000Y-91630000D01*
X131540000Y-93000000D02*
X130770000Y-93000000D01*
%TO.C,J9*%
X130530000Y-72270000D02*
X130530000Y-90110000D01*
X130530000Y-72270000D02*
X133190000Y-72270000D01*
X130530000Y-90110000D02*
X133190000Y-90110000D01*
X131860000Y-69670000D02*
X133190000Y-69670000D01*
X133190000Y-69670000D02*
X133190000Y-71000000D01*
X133190000Y-72270000D02*
X133190000Y-90110000D01*
%TO.C,J2*%
X115270000Y-123330000D02*
X122950000Y-123330000D01*
X115270000Y-123330000D02*
X115270000Y-120670000D01*
X122950000Y-123330000D02*
X122950000Y-120670000D01*
X112670000Y-122000000D02*
X112670000Y-120670000D01*
X112670000Y-120670000D02*
X114000000Y-120670000D01*
X115270000Y-120670000D02*
X122950000Y-120670000D01*
%TO.C,J10*%
X147660000Y-90700000D02*
X148400000Y-90700000D01*
X148400000Y-90700000D02*
X148400000Y-90200000D01*
X138239000Y-90460000D02*
X148160000Y-90460000D01*
X138239000Y-90460000D02*
X138239000Y-80340000D01*
X141199000Y-90460000D02*
X141199000Y-80340000D01*
X146100000Y-90460000D02*
X146100000Y-80340000D01*
X147600000Y-90460000D02*
X147600000Y-80340000D01*
X148160000Y-90460000D02*
X148160000Y-80340000D01*
X144523000Y-84127000D02*
X144569000Y-84174000D01*
X144739000Y-83934000D02*
X144774000Y-83969000D01*
X142225000Y-81830000D02*
X142261000Y-81865000D01*
X142431000Y-81625000D02*
X142477000Y-81672000D01*
X138239000Y-80340000D02*
X148160000Y-80340000D01*
X142816001Y-89434999D02*
G75*
G03*
X144183042Y-89435426I684000J1534992D01*
G01*
X141965001Y-87216001D02*
G75*
G03*
X141964574Y-88583042I1534992J-684000D01*
G01*
X145034999Y-88584000D02*
G75*
G03*
X145180252Y-87871195I-1535000J683999D01*
G01*
X145179999Y-87900000D02*
G75*
G03*
X145034755Y-87216682I-1679999J0D01*
G01*
X144184000Y-86365000D02*
G75*
G03*
X142816958Y-86364574I-684000J-1535000D01*
G01*
X145180000Y-82900000D02*
G75*
G03*
X145180000Y-82900000I-1680000J0D01*
G01*
%TO.C,D1*%
X146945000Y-92460000D02*
X143855000Y-92460000D01*
X145399538Y-98009999D02*
G75*
G03*
X146944830Y-92460001I462J2989999D01*
G01*
X143855170Y-92460000D02*
G75*
G03*
X145400462Y-98010000I1544830J-2560000D01*
G01*
X147900000Y-95020000D02*
G75*
G03*
X147900000Y-95020000I-2500000J0D01*
G01*
%TO.C,J4*%
X115270000Y-128330000D02*
X122950000Y-128330000D01*
X115270000Y-128330000D02*
X115270000Y-125670000D01*
X122950000Y-128330000D02*
X122950000Y-125670000D01*
X112670000Y-127000000D02*
X112670000Y-125670000D01*
X112670000Y-125670000D02*
X114000000Y-125670000D01*
X115270000Y-125670000D02*
X122950000Y-125670000D01*
%TO.C,J11*%
X108190000Y-96330000D02*
X118410000Y-96330000D01*
X108190000Y-96330000D02*
X108190000Y-93670000D01*
X118410000Y-96330000D02*
X118410000Y-93670000D01*
X105590000Y-95000000D02*
X105590000Y-93670000D01*
X105590000Y-93670000D02*
X106920000Y-93670000D01*
X108190000Y-93670000D02*
X118410000Y-93670000D01*
%TO.C,J6*%
X141290000Y-114670000D02*
X105670000Y-114670000D01*
X141290000Y-114670000D02*
X141290000Y-117330000D01*
X105670000Y-114670000D02*
X105670000Y-117330000D01*
X143890000Y-116000000D02*
X143890000Y-117330000D01*
X143890000Y-117330000D02*
X142560000Y-117330000D01*
X141290000Y-117330000D02*
X105670000Y-117330000D01*
%TD*%
M02*
