M48
; DRILL file {KiCad 7.0.7-7.0.7~ubuntu20.04.1} date lun 04 sep 2023 11:29:56
; FORMAT={-:-/ absolute / inch / decimal}
; #@! TF.CreationDate,2023-09-04T11:29:56-04:00
; #@! TF.GenerationSoftware,Kicad,Pcbnew,7.0.7-7.0.7~ubuntu20.04.1
; #@! TF.FileFunction,Plated,1,2,PTH
FMAT,2
INCH
; #@! TA.AperFunction,Plated,PTH,ViaDrill
T1C0.0315
; #@! TA.AperFunction,Plated,PTH,ComponentDrill
T2C0.0315
; #@! TA.AperFunction,Plated,PTH,ComponentDrill
T3C0.0354
; #@! TA.AperFunction,Plated,PTH,ComponentDrill
T4C0.0394
; #@! TA.AperFunction,Plated,PTH,ComponentDrill
T5C0.0433
%
G90
G05
T1
X4.9213Y-3.5039
X5.315Y-3.8583
X5.4724Y-3.3071
X5.5118Y-4.252
T2
X4.7606Y-3.7008
X5.1606Y-3.7008
X5.3087Y-3.7008
X5.7087Y-3.7008
T3
X5.4724Y-3.4039
X5.4724Y-3.5039
X5.7087Y-3.4039
X5.7087Y-3.5039
T4
X4.2094Y-3.7402
X4.2126Y-3.9669
X4.2126Y-4.5669
X4.2913Y-2.7953
X4.2913Y-2.8953
X4.2913Y-2.9953
X4.2913Y-3.0953
X4.2913Y-3.1953
X4.2913Y-3.2953
X4.2913Y-3.3953
X4.2913Y-3.4953
X4.3094Y-3.7402
X4.3126Y-3.9669
X4.3126Y-4.5669
X4.4094Y-3.7402
X4.4126Y-3.9669
X4.4126Y-4.5669
X4.4882Y-4.8031
X4.4882Y-5.0
X4.5094Y-3.7402
X4.5126Y-3.9669
X4.5126Y-4.5669
X4.5882Y-4.8031
X4.5882Y-5.0
X4.6094Y-3.7402
X4.6126Y-3.9669
X4.6126Y-4.5669
X4.6882Y-4.8031
X4.6882Y-5.0
X4.7126Y-3.9669
X4.7126Y-4.5669
X4.7882Y-4.8031
X4.7882Y-5.0
X4.8126Y-3.9669
X4.8126Y-4.5669
X4.9126Y-3.9669
X4.9126Y-4.5669
X5.0126Y-3.9669
X5.0126Y-4.5669
X5.0756Y-4.8031
X5.0787Y-5.0
X5.1126Y-3.9669
X5.1126Y-4.5669
X5.1756Y-4.8031
X5.1787Y-5.0
X5.1913Y-2.7953
X5.1913Y-2.8953
X5.1913Y-2.9953
X5.1913Y-3.0953
X5.1913Y-3.1953
X5.1913Y-3.2953
X5.1913Y-3.3953
X5.1913Y-3.4953
X5.2126Y-3.9669
X5.2126Y-4.5669
X5.2756Y-4.8031
X5.2787Y-5.0
X5.3126Y-3.9669
X5.3126Y-4.5669
X5.3756Y-4.8031
X5.3787Y-5.0
X5.4126Y-3.9669
X5.4126Y-4.5669
X5.5126Y-3.9669
X5.5126Y-4.5669
X5.6126Y-3.9669
X5.6126Y-4.5669
T5
X5.6693Y-2.8346
X5.6693Y-2.9346
X5.6693Y-3.1102
X5.6693Y-3.2102
T0
M30
