%TF.GenerationSoftware,KiCad,Pcbnew,(7.0.0)*%
%TF.CreationDate,2023-07-20T11:28:34-04:00*%
%TF.ProjectId,board_pf_cese,626f6172-645f-4706-965f-636573652e6b,rev?*%
%TF.SameCoordinates,Original*%
%TF.FileFunction,Soldermask,Bot*%
%TF.FilePolarity,Negative*%
%FSLAX46Y46*%
G04 Gerber Fmt 4.6, Leading zero omitted, Abs format (unit mm)*
G04 Created by KiCad (PCBNEW (7.0.0)) date 2023-07-20 11:28:34*
%MOMM*%
%LPD*%
G01*
G04 APERTURE LIST*
%ADD10R,1.700000X1.700000*%
%ADD11O,1.700000X1.700000*%
%ADD12C,2.000000*%
%ADD13C,1.600000*%
%ADD14O,1.600000X1.600000*%
%ADD15C,1.100000*%
%ADD16R,2.200000X2.200000*%
%ADD17C,2.200000*%
%ADD18R,1.800000X1.800000*%
%ADD19C,1.800000*%
G04 APERTURE END LIST*
D10*
%TO.C,J5*%
X128999999Y-126999999D03*
D11*
X131539999Y-126999999D03*
X134079999Y-126999999D03*
X136619999Y-126999999D03*
%TD*%
D10*
%TO.C,J8*%
X108999999Y-70999999D03*
D11*
X108999999Y-73539999D03*
X108999999Y-76079999D03*
X108999999Y-78619999D03*
X108999999Y-81159999D03*
X108999999Y-83699999D03*
X108999999Y-86239999D03*
X108999999Y-88779999D03*
%TD*%
D12*
%TO.C,REF3*%
X105000000Y-127000000D03*
%TD*%
D13*
%TO.C,R1*%
X145000000Y-95080000D03*
D14*
X144999999Y-84919999D03*
%TD*%
D15*
%TO.C,J1*%
X146540000Y-74540000D03*
X146540000Y-72000000D03*
D16*
X143999999Y-74539999D03*
D17*
X144000000Y-72000000D03*
%TD*%
D12*
%TO.C,REF1*%
X105000000Y-67000000D03*
%TD*%
D18*
%TO.C,D2*%
X138999999Y-78999999D03*
D19*
X139000000Y-81540000D03*
%TD*%
D10*
%TO.C,J7*%
X142559999Y-100759999D03*
D11*
X140019999Y-100759999D03*
X137479999Y-100759999D03*
X134939999Y-100759999D03*
X132399999Y-100759999D03*
X129859999Y-100759999D03*
X127319999Y-100759999D03*
X124779999Y-100759999D03*
X122239999Y-100759999D03*
X119699999Y-100759999D03*
X117159999Y-100759999D03*
X114619999Y-100759999D03*
X112079999Y-100759999D03*
X109539999Y-100759999D03*
X106999999Y-100759999D03*
%TD*%
D12*
%TO.C,REF4*%
X145000000Y-127000000D03*
%TD*%
D10*
%TO.C,J3*%
X128919999Y-121999999D03*
D11*
X131459999Y-121999999D03*
X133999999Y-121999999D03*
X136539999Y-121999999D03*
%TD*%
D13*
%TO.C,R2*%
X139000000Y-95080000D03*
D14*
X138999999Y-84919999D03*
%TD*%
D10*
%TO.C,J9*%
X131859999Y-70999999D03*
D11*
X131859999Y-73539999D03*
X131859999Y-76079999D03*
X131859999Y-78619999D03*
X131859999Y-81159999D03*
X131859999Y-83699999D03*
X131859999Y-86239999D03*
X131859999Y-88779999D03*
%TD*%
D10*
%TO.C,J2*%
X113999999Y-121999999D03*
D11*
X116539999Y-121999999D03*
X119079999Y-121999999D03*
X121619999Y-121999999D03*
%TD*%
D18*
%TO.C,D1*%
X144999999Y-78999999D03*
D19*
X145000000Y-81540000D03*
%TD*%
D10*
%TO.C,J4*%
X113999999Y-126999999D03*
D11*
X116539999Y-126999999D03*
X119079999Y-126999999D03*
X121619999Y-126999999D03*
%TD*%
D12*
%TO.C,REF2*%
X145000000Y-67000000D03*
%TD*%
D10*
%TO.C,J6*%
X142559999Y-115999999D03*
D11*
X140019999Y-115999999D03*
X137479999Y-115999999D03*
X134939999Y-115999999D03*
X132399999Y-115999999D03*
X129859999Y-115999999D03*
X127319999Y-115999999D03*
X124779999Y-115999999D03*
X122239999Y-115999999D03*
X119699999Y-115999999D03*
X117159999Y-115999999D03*
X114619999Y-115999999D03*
X112079999Y-115999999D03*
X109539999Y-115999999D03*
X106999999Y-115999999D03*
%TD*%
M02*
