M48
; DRILL file {KiCad 7.0.7-7.0.7~ubuntu20.04.1} date lun 11 sep 2023 10:36:40
; FORMAT={-:-/ absolute / inch / decimal}
; #@! TF.CreationDate,2023-09-11T10:36:40-04:00
; #@! TF.GenerationSoftware,Kicad,Pcbnew,7.0.7-7.0.7~ubuntu20.04.1
; #@! TF.FileFunction,Plated,1,2,PTH
FMAT,2
INCH
; #@! TA.AperFunction,Plated,PTH,ComponentDrill
T1C0.0315
; #@! TA.AperFunction,Plated,PTH,ComponentDrill
T2C0.0354
; #@! TA.AperFunction,Plated,PTH,ComponentDrill
T3C0.0394
; #@! TA.AperFunction,Plated,PTH,ComponentDrill
T4C0.0512
; #@! TA.AperFunction,Plated,PTH,ComponentDrill
T5C0.0866
%
G90
G05
T1
X4.8197Y-3.6614
X4.8197Y-3.8189
X5.2197Y-3.6614
X5.2197Y-3.8189
T2
X5.4331Y-3.6909
X5.4331Y-3.7909
X5.7244Y-3.6909
X5.7244Y-3.7909
T3
X4.2094Y-3.7402
X4.2126Y-3.9669
X4.2126Y-4.5669
X4.2913Y-2.7953
X4.2913Y-2.8953
X4.2913Y-2.9953
X4.2913Y-3.0953
X4.2913Y-3.1953
X4.2913Y-3.2953
X4.2913Y-3.3953
X4.2913Y-3.4953
X4.3094Y-3.7402
X4.3126Y-3.9669
X4.3126Y-4.5669
X4.4094Y-3.7402
X4.4126Y-3.9669
X4.4126Y-4.5669
X4.4882Y-4.8031
X4.4882Y-5.0
X4.5094Y-3.7402
X4.5126Y-3.9669
X4.5126Y-4.5669
X4.5882Y-4.8031
X4.5882Y-5.0
X4.6094Y-3.7402
X4.6126Y-3.9669
X4.6126Y-4.5669
X4.6882Y-4.8031
X4.6882Y-5.0
X4.7126Y-3.9669
X4.7126Y-4.5669
X4.7882Y-4.8031
X4.7882Y-5.0
X4.8126Y-3.9669
X4.8126Y-4.5669
X4.9126Y-3.9669
X4.9126Y-4.5669
X5.0126Y-3.9669
X5.0126Y-4.5669
X5.0756Y-4.8031
X5.0787Y-5.0
X5.1126Y-3.9669
X5.1126Y-4.5669
X5.1756Y-4.8031
X5.1787Y-5.0
X5.1913Y-2.7953
X5.1913Y-2.8953
X5.1913Y-2.9953
X5.1913Y-3.0953
X5.1913Y-3.1953
X5.1913Y-3.2953
X5.1913Y-3.3953
X5.1913Y-3.4953
X5.2126Y-3.9669
X5.2126Y-4.5669
X5.2756Y-4.8031
X5.2787Y-5.0
X5.3126Y-3.9669
X5.3126Y-4.5669
X5.3756Y-4.8031
X5.3787Y-5.0
X5.4126Y-3.9669
X5.4126Y-4.5669
X5.5126Y-3.9669
X5.5126Y-4.5669
X5.6126Y-3.9669
X5.6126Y-4.5669
T4
X5.6496Y-2.8228
X5.6496Y-3.0197
X5.6496Y-3.2638
X5.6496Y-3.4606
T5
X4.0945Y-2.5984
X4.0945Y-5.0394
X5.748Y-2.5984
X5.748Y-5.0394
T0
M30
