%TF.GenerationSoftware,KiCad,Pcbnew,(7.0.0)*%
%TF.CreationDate,2023-07-20T11:28:34-04:00*%
%TF.ProjectId,board_pf_cese,626f6172-645f-4706-965f-636573652e6b,rev?*%
%TF.SameCoordinates,Original*%
%TF.FileFunction,Legend,Top*%
%TF.FilePolarity,Positive*%
%FSLAX46Y46*%
G04 Gerber Fmt 4.6, Leading zero omitted, Abs format (unit mm)*
G04 Created by KiCad (PCBNEW (7.0.0)) date 2023-07-20 11:28:34*
%MOMM*%
%LPD*%
G01*
G04 APERTURE LIST*
%ADD10C,0.150000*%
%ADD11C,0.120000*%
G04 APERTURE END LIST*
D10*
%TO.C,J5*%
X125597380Y-127333333D02*
X126311666Y-127333333D01*
X126311666Y-127333333D02*
X126454523Y-127380952D01*
X126454523Y-127380952D02*
X126549761Y-127476190D01*
X126549761Y-127476190D02*
X126597380Y-127619047D01*
X126597380Y-127619047D02*
X126597380Y-127714285D01*
X125597380Y-126380952D02*
X125597380Y-126857142D01*
X125597380Y-126857142D02*
X126073571Y-126904761D01*
X126073571Y-126904761D02*
X126025952Y-126857142D01*
X126025952Y-126857142D02*
X125978333Y-126761904D01*
X125978333Y-126761904D02*
X125978333Y-126523809D01*
X125978333Y-126523809D02*
X126025952Y-126428571D01*
X126025952Y-126428571D02*
X126073571Y-126380952D01*
X126073571Y-126380952D02*
X126168809Y-126333333D01*
X126168809Y-126333333D02*
X126406904Y-126333333D01*
X126406904Y-126333333D02*
X126502142Y-126380952D01*
X126502142Y-126380952D02*
X126549761Y-126428571D01*
X126549761Y-126428571D02*
X126597380Y-126523809D01*
X126597380Y-126523809D02*
X126597380Y-126761904D01*
X126597380Y-126761904D02*
X126549761Y-126857142D01*
X126549761Y-126857142D02*
X126502142Y-126904761D01*
%TO.C,J8*%
X108666666Y-67597380D02*
X108666666Y-68311666D01*
X108666666Y-68311666D02*
X108619047Y-68454523D01*
X108619047Y-68454523D02*
X108523809Y-68549761D01*
X108523809Y-68549761D02*
X108380952Y-68597380D01*
X108380952Y-68597380D02*
X108285714Y-68597380D01*
X109285714Y-68025952D02*
X109190476Y-67978333D01*
X109190476Y-67978333D02*
X109142857Y-67930714D01*
X109142857Y-67930714D02*
X109095238Y-67835476D01*
X109095238Y-67835476D02*
X109095238Y-67787857D01*
X109095238Y-67787857D02*
X109142857Y-67692619D01*
X109142857Y-67692619D02*
X109190476Y-67645000D01*
X109190476Y-67645000D02*
X109285714Y-67597380D01*
X109285714Y-67597380D02*
X109476190Y-67597380D01*
X109476190Y-67597380D02*
X109571428Y-67645000D01*
X109571428Y-67645000D02*
X109619047Y-67692619D01*
X109619047Y-67692619D02*
X109666666Y-67787857D01*
X109666666Y-67787857D02*
X109666666Y-67835476D01*
X109666666Y-67835476D02*
X109619047Y-67930714D01*
X109619047Y-67930714D02*
X109571428Y-67978333D01*
X109571428Y-67978333D02*
X109476190Y-68025952D01*
X109476190Y-68025952D02*
X109285714Y-68025952D01*
X109285714Y-68025952D02*
X109190476Y-68073571D01*
X109190476Y-68073571D02*
X109142857Y-68121190D01*
X109142857Y-68121190D02*
X109095238Y-68216428D01*
X109095238Y-68216428D02*
X109095238Y-68406904D01*
X109095238Y-68406904D02*
X109142857Y-68502142D01*
X109142857Y-68502142D02*
X109190476Y-68549761D01*
X109190476Y-68549761D02*
X109285714Y-68597380D01*
X109285714Y-68597380D02*
X109476190Y-68597380D01*
X109476190Y-68597380D02*
X109571428Y-68549761D01*
X109571428Y-68549761D02*
X109619047Y-68502142D01*
X109619047Y-68502142D02*
X109666666Y-68406904D01*
X109666666Y-68406904D02*
X109666666Y-68216428D01*
X109666666Y-68216428D02*
X109619047Y-68121190D01*
X109619047Y-68121190D02*
X109571428Y-68073571D01*
X109571428Y-68073571D02*
X109476190Y-68025952D01*
%TO.C,R1*%
X142997380Y-90166666D02*
X142521190Y-90499999D01*
X142997380Y-90738094D02*
X141997380Y-90738094D01*
X141997380Y-90738094D02*
X141997380Y-90357142D01*
X141997380Y-90357142D02*
X142045000Y-90261904D01*
X142045000Y-90261904D02*
X142092619Y-90214285D01*
X142092619Y-90214285D02*
X142187857Y-90166666D01*
X142187857Y-90166666D02*
X142330714Y-90166666D01*
X142330714Y-90166666D02*
X142425952Y-90214285D01*
X142425952Y-90214285D02*
X142473571Y-90261904D01*
X142473571Y-90261904D02*
X142521190Y-90357142D01*
X142521190Y-90357142D02*
X142521190Y-90738094D01*
X142997380Y-89214285D02*
X142997380Y-89785713D01*
X142997380Y-89499999D02*
X141997380Y-89499999D01*
X141997380Y-89499999D02*
X142140238Y-89595237D01*
X142140238Y-89595237D02*
X142235476Y-89690475D01*
X142235476Y-89690475D02*
X142283095Y-89785713D01*
%TO.C,J1*%
X138907380Y-72873333D02*
X139621666Y-72873333D01*
X139621666Y-72873333D02*
X139764523Y-72920952D01*
X139764523Y-72920952D02*
X139859761Y-73016190D01*
X139859761Y-73016190D02*
X139907380Y-73159047D01*
X139907380Y-73159047D02*
X139907380Y-73254285D01*
X139907380Y-71873333D02*
X139907380Y-72444761D01*
X139907380Y-72159047D02*
X138907380Y-72159047D01*
X138907380Y-72159047D02*
X139050238Y-72254285D01*
X139050238Y-72254285D02*
X139145476Y-72349523D01*
X139145476Y-72349523D02*
X139193095Y-72444761D01*
%TO.C,D2*%
X136761905Y-77567380D02*
X136761905Y-76567380D01*
X136761905Y-76567380D02*
X137000000Y-76567380D01*
X137000000Y-76567380D02*
X137142857Y-76615000D01*
X137142857Y-76615000D02*
X137238095Y-76710238D01*
X137238095Y-76710238D02*
X137285714Y-76805476D01*
X137285714Y-76805476D02*
X137333333Y-76995952D01*
X137333333Y-76995952D02*
X137333333Y-77138809D01*
X137333333Y-77138809D02*
X137285714Y-77329285D01*
X137285714Y-77329285D02*
X137238095Y-77424523D01*
X137238095Y-77424523D02*
X137142857Y-77519761D01*
X137142857Y-77519761D02*
X137000000Y-77567380D01*
X137000000Y-77567380D02*
X136761905Y-77567380D01*
X137714286Y-76662619D02*
X137761905Y-76615000D01*
X137761905Y-76615000D02*
X137857143Y-76567380D01*
X137857143Y-76567380D02*
X138095238Y-76567380D01*
X138095238Y-76567380D02*
X138190476Y-76615000D01*
X138190476Y-76615000D02*
X138238095Y-76662619D01*
X138238095Y-76662619D02*
X138285714Y-76757857D01*
X138285714Y-76757857D02*
X138285714Y-76853095D01*
X138285714Y-76853095D02*
X138238095Y-76995952D01*
X138238095Y-76995952D02*
X137666667Y-77567380D01*
X137666667Y-77567380D02*
X138285714Y-77567380D01*
%TO.C,J7*%
X144697380Y-101093333D02*
X145411666Y-101093333D01*
X145411666Y-101093333D02*
X145554523Y-101140952D01*
X145554523Y-101140952D02*
X145649761Y-101236190D01*
X145649761Y-101236190D02*
X145697380Y-101379047D01*
X145697380Y-101379047D02*
X145697380Y-101474285D01*
X144697380Y-100712380D02*
X144697380Y-100045714D01*
X144697380Y-100045714D02*
X145697380Y-100474285D01*
%TO.C,J3*%
X125517380Y-122333333D02*
X126231666Y-122333333D01*
X126231666Y-122333333D02*
X126374523Y-122380952D01*
X126374523Y-122380952D02*
X126469761Y-122476190D01*
X126469761Y-122476190D02*
X126517380Y-122619047D01*
X126517380Y-122619047D02*
X126517380Y-122714285D01*
X125517380Y-121952380D02*
X125517380Y-121333333D01*
X125517380Y-121333333D02*
X125898333Y-121666666D01*
X125898333Y-121666666D02*
X125898333Y-121523809D01*
X125898333Y-121523809D02*
X125945952Y-121428571D01*
X125945952Y-121428571D02*
X125993571Y-121380952D01*
X125993571Y-121380952D02*
X126088809Y-121333333D01*
X126088809Y-121333333D02*
X126326904Y-121333333D01*
X126326904Y-121333333D02*
X126422142Y-121380952D01*
X126422142Y-121380952D02*
X126469761Y-121428571D01*
X126469761Y-121428571D02*
X126517380Y-121523809D01*
X126517380Y-121523809D02*
X126517380Y-121809523D01*
X126517380Y-121809523D02*
X126469761Y-121904761D01*
X126469761Y-121904761D02*
X126422142Y-121952380D01*
%TO.C,R2*%
X136997380Y-90166666D02*
X136521190Y-90499999D01*
X136997380Y-90738094D02*
X135997380Y-90738094D01*
X135997380Y-90738094D02*
X135997380Y-90357142D01*
X135997380Y-90357142D02*
X136045000Y-90261904D01*
X136045000Y-90261904D02*
X136092619Y-90214285D01*
X136092619Y-90214285D02*
X136187857Y-90166666D01*
X136187857Y-90166666D02*
X136330714Y-90166666D01*
X136330714Y-90166666D02*
X136425952Y-90214285D01*
X136425952Y-90214285D02*
X136473571Y-90261904D01*
X136473571Y-90261904D02*
X136521190Y-90357142D01*
X136521190Y-90357142D02*
X136521190Y-90738094D01*
X136092619Y-89785713D02*
X136045000Y-89738094D01*
X136045000Y-89738094D02*
X135997380Y-89642856D01*
X135997380Y-89642856D02*
X135997380Y-89404761D01*
X135997380Y-89404761D02*
X136045000Y-89309523D01*
X136045000Y-89309523D02*
X136092619Y-89261904D01*
X136092619Y-89261904D02*
X136187857Y-89214285D01*
X136187857Y-89214285D02*
X136283095Y-89214285D01*
X136283095Y-89214285D02*
X136425952Y-89261904D01*
X136425952Y-89261904D02*
X136997380Y-89833332D01*
X136997380Y-89833332D02*
X136997380Y-89214285D01*
%TO.C,J9*%
X131526666Y-90987380D02*
X131526666Y-91701666D01*
X131526666Y-91701666D02*
X131479047Y-91844523D01*
X131479047Y-91844523D02*
X131383809Y-91939761D01*
X131383809Y-91939761D02*
X131240952Y-91987380D01*
X131240952Y-91987380D02*
X131145714Y-91987380D01*
X132050476Y-91987380D02*
X132240952Y-91987380D01*
X132240952Y-91987380D02*
X132336190Y-91939761D01*
X132336190Y-91939761D02*
X132383809Y-91892142D01*
X132383809Y-91892142D02*
X132479047Y-91749285D01*
X132479047Y-91749285D02*
X132526666Y-91558809D01*
X132526666Y-91558809D02*
X132526666Y-91177857D01*
X132526666Y-91177857D02*
X132479047Y-91082619D01*
X132479047Y-91082619D02*
X132431428Y-91035000D01*
X132431428Y-91035000D02*
X132336190Y-90987380D01*
X132336190Y-90987380D02*
X132145714Y-90987380D01*
X132145714Y-90987380D02*
X132050476Y-91035000D01*
X132050476Y-91035000D02*
X132002857Y-91082619D01*
X132002857Y-91082619D02*
X131955238Y-91177857D01*
X131955238Y-91177857D02*
X131955238Y-91415952D01*
X131955238Y-91415952D02*
X132002857Y-91511190D01*
X132002857Y-91511190D02*
X132050476Y-91558809D01*
X132050476Y-91558809D02*
X132145714Y-91606428D01*
X132145714Y-91606428D02*
X132336190Y-91606428D01*
X132336190Y-91606428D02*
X132431428Y-91558809D01*
X132431428Y-91558809D02*
X132479047Y-91511190D01*
X132479047Y-91511190D02*
X132526666Y-91415952D01*
%TO.C,J2*%
X110597380Y-122333333D02*
X111311666Y-122333333D01*
X111311666Y-122333333D02*
X111454523Y-122380952D01*
X111454523Y-122380952D02*
X111549761Y-122476190D01*
X111549761Y-122476190D02*
X111597380Y-122619047D01*
X111597380Y-122619047D02*
X111597380Y-122714285D01*
X110692619Y-121904761D02*
X110645000Y-121857142D01*
X110645000Y-121857142D02*
X110597380Y-121761904D01*
X110597380Y-121761904D02*
X110597380Y-121523809D01*
X110597380Y-121523809D02*
X110645000Y-121428571D01*
X110645000Y-121428571D02*
X110692619Y-121380952D01*
X110692619Y-121380952D02*
X110787857Y-121333333D01*
X110787857Y-121333333D02*
X110883095Y-121333333D01*
X110883095Y-121333333D02*
X111025952Y-121380952D01*
X111025952Y-121380952D02*
X111597380Y-121952380D01*
X111597380Y-121952380D02*
X111597380Y-121333333D01*
%TO.C,D1*%
X146061905Y-83767380D02*
X146061905Y-82767380D01*
X146061905Y-82767380D02*
X146300000Y-82767380D01*
X146300000Y-82767380D02*
X146442857Y-82815000D01*
X146442857Y-82815000D02*
X146538095Y-82910238D01*
X146538095Y-82910238D02*
X146585714Y-83005476D01*
X146585714Y-83005476D02*
X146633333Y-83195952D01*
X146633333Y-83195952D02*
X146633333Y-83338809D01*
X146633333Y-83338809D02*
X146585714Y-83529285D01*
X146585714Y-83529285D02*
X146538095Y-83624523D01*
X146538095Y-83624523D02*
X146442857Y-83719761D01*
X146442857Y-83719761D02*
X146300000Y-83767380D01*
X146300000Y-83767380D02*
X146061905Y-83767380D01*
X147585714Y-83767380D02*
X147014286Y-83767380D01*
X147300000Y-83767380D02*
X147300000Y-82767380D01*
X147300000Y-82767380D02*
X147204762Y-82910238D01*
X147204762Y-82910238D02*
X147109524Y-83005476D01*
X147109524Y-83005476D02*
X147014286Y-83053095D01*
%TO.C,J4*%
X110597380Y-127333333D02*
X111311666Y-127333333D01*
X111311666Y-127333333D02*
X111454523Y-127380952D01*
X111454523Y-127380952D02*
X111549761Y-127476190D01*
X111549761Y-127476190D02*
X111597380Y-127619047D01*
X111597380Y-127619047D02*
X111597380Y-127714285D01*
X110930714Y-126428571D02*
X111597380Y-126428571D01*
X110549761Y-126666666D02*
X111264047Y-126904761D01*
X111264047Y-126904761D02*
X111264047Y-126285714D01*
%TO.C,J6*%
X144697380Y-116333333D02*
X145411666Y-116333333D01*
X145411666Y-116333333D02*
X145554523Y-116380952D01*
X145554523Y-116380952D02*
X145649761Y-116476190D01*
X145649761Y-116476190D02*
X145697380Y-116619047D01*
X145697380Y-116619047D02*
X145697380Y-116714285D01*
X144697380Y-115428571D02*
X144697380Y-115619047D01*
X144697380Y-115619047D02*
X144745000Y-115714285D01*
X144745000Y-115714285D02*
X144792619Y-115761904D01*
X144792619Y-115761904D02*
X144935476Y-115857142D01*
X144935476Y-115857142D02*
X145125952Y-115904761D01*
X145125952Y-115904761D02*
X145506904Y-115904761D01*
X145506904Y-115904761D02*
X145602142Y-115857142D01*
X145602142Y-115857142D02*
X145649761Y-115809523D01*
X145649761Y-115809523D02*
X145697380Y-115714285D01*
X145697380Y-115714285D02*
X145697380Y-115523809D01*
X145697380Y-115523809D02*
X145649761Y-115428571D01*
X145649761Y-115428571D02*
X145602142Y-115380952D01*
X145602142Y-115380952D02*
X145506904Y-115333333D01*
X145506904Y-115333333D02*
X145268809Y-115333333D01*
X145268809Y-115333333D02*
X145173571Y-115380952D01*
X145173571Y-115380952D02*
X145125952Y-115428571D01*
X145125952Y-115428571D02*
X145078333Y-115523809D01*
X145078333Y-115523809D02*
X145078333Y-115714285D01*
X145078333Y-115714285D02*
X145125952Y-115809523D01*
X145125952Y-115809523D02*
X145173571Y-115857142D01*
X145173571Y-115857142D02*
X145268809Y-115904761D01*
D11*
%TO.C,J5*%
X130270000Y-128330000D02*
X137950000Y-128330000D01*
X130270000Y-128330000D02*
X130270000Y-125670000D01*
X137950000Y-128330000D02*
X137950000Y-125670000D01*
X127670000Y-127000000D02*
X127670000Y-125670000D01*
X127670000Y-125670000D02*
X129000000Y-125670000D01*
X130270000Y-125670000D02*
X137950000Y-125670000D01*
%TO.C,J8*%
X107670000Y-72270000D02*
X107670000Y-90110000D01*
X107670000Y-72270000D02*
X110330000Y-72270000D01*
X107670000Y-90110000D02*
X110330000Y-90110000D01*
X109000000Y-69670000D02*
X110330000Y-69670000D01*
X110330000Y-69670000D02*
X110330000Y-71000000D01*
X110330000Y-72270000D02*
X110330000Y-90110000D01*
%TO.C,R1*%
X145000000Y-94040000D02*
X145000000Y-93270000D01*
X143630000Y-93270000D02*
X146370000Y-93270000D01*
X146370000Y-93270000D02*
X146370000Y-86730000D01*
X143630000Y-86730000D02*
X143630000Y-93270000D01*
X146370000Y-86730000D02*
X143630000Y-86730000D01*
X145000000Y-85960000D02*
X145000000Y-86730000D01*
%TO.C,J1*%
X146660000Y-76340000D02*
X147400000Y-76340000D01*
X147400000Y-76340000D02*
X147400000Y-75840000D01*
X140840000Y-76100000D02*
X147160000Y-76100000D01*
X140840000Y-76100000D02*
X140840000Y-70440000D01*
X141300000Y-76100000D02*
X141300000Y-70440000D01*
X146600000Y-76100000D02*
X146600000Y-75330000D01*
X147160000Y-76100000D02*
X147160000Y-75330000D01*
X146600000Y-73750000D02*
X146600000Y-72790000D01*
X147160000Y-73750000D02*
X147160000Y-72790000D01*
X146600000Y-71210000D02*
X146600000Y-70440000D01*
X147160000Y-71210000D02*
X147160000Y-70440000D01*
X140840000Y-70440000D02*
X147160000Y-70440000D01*
%TO.C,D2*%
X140236000Y-78710000D02*
X140080000Y-78710000D01*
X137920000Y-78710000D02*
X137764000Y-78710000D01*
X140078608Y-81942334D02*
G75*
G03*
X140235515Y-78710001I-1078608J1672334D01*
G01*
X140079836Y-81311129D02*
G75*
G03*
X140079999Y-79229040I-1079836J1041129D01*
G01*
X137920001Y-79229040D02*
G75*
G03*
X137920164Y-81311129I1079999J-1040960D01*
G01*
X137764485Y-78710001D02*
G75*
G03*
X137921392Y-81942334I1235515J-1559999D01*
G01*
%TO.C,J7*%
X141290000Y-99430000D02*
X105670000Y-99430000D01*
X141290000Y-99430000D02*
X141290000Y-102090000D01*
X105670000Y-99430000D02*
X105670000Y-102090000D01*
X143890000Y-100760000D02*
X143890000Y-102090000D01*
X143890000Y-102090000D02*
X142560000Y-102090000D01*
X141290000Y-102090000D02*
X105670000Y-102090000D01*
%TO.C,J3*%
X130190000Y-123330000D02*
X137870000Y-123330000D01*
X130190000Y-123330000D02*
X130190000Y-120670000D01*
X137870000Y-123330000D02*
X137870000Y-120670000D01*
X127590000Y-122000000D02*
X127590000Y-120670000D01*
X127590000Y-120670000D02*
X128920000Y-120670000D01*
X130190000Y-120670000D02*
X137870000Y-120670000D01*
%TO.C,R2*%
X139000000Y-94040000D02*
X139000000Y-93270000D01*
X137630000Y-93270000D02*
X140370000Y-93270000D01*
X140370000Y-93270000D02*
X140370000Y-86730000D01*
X137630000Y-86730000D02*
X137630000Y-93270000D01*
X140370000Y-86730000D02*
X137630000Y-86730000D01*
X139000000Y-85960000D02*
X139000000Y-86730000D01*
%TO.C,J9*%
X130530000Y-72270000D02*
X130530000Y-90110000D01*
X130530000Y-72270000D02*
X133190000Y-72270000D01*
X130530000Y-90110000D02*
X133190000Y-90110000D01*
X131860000Y-69670000D02*
X133190000Y-69670000D01*
X133190000Y-69670000D02*
X133190000Y-71000000D01*
X133190000Y-72270000D02*
X133190000Y-90110000D01*
%TO.C,J2*%
X115270000Y-123330000D02*
X122950000Y-123330000D01*
X115270000Y-123330000D02*
X115270000Y-120670000D01*
X122950000Y-123330000D02*
X122950000Y-120670000D01*
X112670000Y-122000000D02*
X112670000Y-120670000D01*
X112670000Y-120670000D02*
X114000000Y-120670000D01*
X115270000Y-120670000D02*
X122950000Y-120670000D01*
%TO.C,D1*%
X146236000Y-78710000D02*
X146080000Y-78710000D01*
X143920000Y-78710000D02*
X143764000Y-78710000D01*
X146078608Y-81942334D02*
G75*
G03*
X146235515Y-78710001I-1078608J1672334D01*
G01*
X146079836Y-81311129D02*
G75*
G03*
X146079999Y-79229040I-1079836J1041129D01*
G01*
X143920001Y-79229040D02*
G75*
G03*
X143920164Y-81311129I1079999J-1040960D01*
G01*
X143764485Y-78710001D02*
G75*
G03*
X143921392Y-81942334I1235515J-1559999D01*
G01*
%TO.C,J4*%
X115270000Y-128330000D02*
X122950000Y-128330000D01*
X115270000Y-128330000D02*
X115270000Y-125670000D01*
X122950000Y-128330000D02*
X122950000Y-125670000D01*
X112670000Y-127000000D02*
X112670000Y-125670000D01*
X112670000Y-125670000D02*
X114000000Y-125670000D01*
X115270000Y-125670000D02*
X122950000Y-125670000D01*
%TO.C,J6*%
X141290000Y-114670000D02*
X105670000Y-114670000D01*
X141290000Y-114670000D02*
X141290000Y-117330000D01*
X105670000Y-114670000D02*
X105670000Y-117330000D01*
X143890000Y-116000000D02*
X143890000Y-117330000D01*
X143890000Y-117330000D02*
X142560000Y-117330000D01*
X141290000Y-117330000D02*
X105670000Y-117330000D01*
%TD*%
M02*
