%TF.GenerationSoftware,KiCad,Pcbnew,7.0.7-7.0.7~ubuntu20.04.1*%
%TF.CreationDate,2023-09-04T11:30:02-04:00*%
%TF.ProjectId,board_pf_cese,626f6172-645f-4706-965f-636573652e6b,rev?*%
%TF.SameCoordinates,Original*%
%TF.FileFunction,Soldermask,Bot*%
%TF.FilePolarity,Negative*%
%FSLAX46Y46*%
G04 Gerber Fmt 4.6, Leading zero omitted, Abs format (unit mm)*
G04 Created by KiCad (PCBNEW 7.0.7-7.0.7~ubuntu20.04.1) date 2023-09-04 11:30:02*
%MOMM*%
%LPD*%
G01*
G04 APERTURE LIST*
%ADD10R,1.700000X1.700000*%
%ADD11O,1.700000X1.700000*%
%ADD12C,2.000000*%
%ADD13C,1.600000*%
%ADD14O,1.600000X1.600000*%
%ADD15C,1.100000*%
%ADD16R,2.200000X2.200000*%
%ADD17C,2.200000*%
%ADD18R,1.800000X1.800000*%
%ADD19C,1.800000*%
G04 APERTURE END LIST*
D10*
%TO.C,J5*%
X129000000Y-127000000D03*
D11*
X131540000Y-127000000D03*
X134080000Y-127000000D03*
X136620000Y-127000000D03*
%TD*%
D10*
%TO.C,J8*%
X109000000Y-71000000D03*
D11*
X109000000Y-73540000D03*
X109000000Y-76080000D03*
X109000000Y-78620000D03*
X109000000Y-81160000D03*
X109000000Y-83700000D03*
X109000000Y-86240000D03*
X109000000Y-88780000D03*
%TD*%
D12*
%TO.C,REF3*%
X105000000Y-127000000D03*
%TD*%
D13*
%TO.C,R1*%
X134840000Y-94000000D03*
D14*
X145000000Y-94000000D03*
%TD*%
D15*
%TO.C,J1*%
X146540000Y-74540000D03*
X146540000Y-72000000D03*
D16*
X144000000Y-74540000D03*
D17*
X144000000Y-72000000D03*
%TD*%
D12*
%TO.C,REF1*%
X105000000Y-67000000D03*
%TD*%
D18*
%TO.C,D2*%
X139000000Y-86460000D03*
D19*
X139000000Y-89000000D03*
%TD*%
D10*
%TO.C,J7*%
X142560000Y-100760000D03*
D11*
X140020000Y-100760000D03*
X137480000Y-100760000D03*
X134940000Y-100760000D03*
X132400000Y-100760000D03*
X129860000Y-100760000D03*
X127320000Y-100760000D03*
X124780000Y-100760000D03*
X122240000Y-100760000D03*
X119700000Y-100760000D03*
X117160000Y-100760000D03*
X114620000Y-100760000D03*
X112080000Y-100760000D03*
X109540000Y-100760000D03*
X107000000Y-100760000D03*
%TD*%
D12*
%TO.C,REF4*%
X145000000Y-127000000D03*
%TD*%
D10*
%TO.C,J3*%
X128920000Y-122000000D03*
D11*
X131460000Y-122000000D03*
X134000000Y-122000000D03*
X136540000Y-122000000D03*
%TD*%
D13*
%TO.C,R2*%
X120920000Y-94000000D03*
D14*
X131080000Y-94000000D03*
%TD*%
D10*
%TO.C,J9*%
X131860000Y-71000000D03*
D11*
X131860000Y-73540000D03*
X131860000Y-76080000D03*
X131860000Y-78620000D03*
X131860000Y-81160000D03*
X131860000Y-83700000D03*
X131860000Y-86240000D03*
X131860000Y-88780000D03*
%TD*%
D10*
%TO.C,J2*%
X114000000Y-122000000D03*
D11*
X116540000Y-122000000D03*
X119080000Y-122000000D03*
X121620000Y-122000000D03*
%TD*%
D15*
%TO.C,J10*%
X146540000Y-81540000D03*
X146540000Y-79000000D03*
D16*
X144000000Y-81540000D03*
D17*
X144000000Y-79000000D03*
%TD*%
D18*
%TO.C,D1*%
X145000000Y-86460000D03*
D19*
X145000000Y-89000000D03*
%TD*%
D10*
%TO.C,J4*%
X114000000Y-127000000D03*
D11*
X116540000Y-127000000D03*
X119080000Y-127000000D03*
X121620000Y-127000000D03*
%TD*%
D10*
%TO.C,J11*%
X106920000Y-95000000D03*
D11*
X109460000Y-95000000D03*
X112000000Y-95000000D03*
X114540000Y-95000000D03*
X117080000Y-95000000D03*
%TD*%
D12*
%TO.C,REF2*%
X145000000Y-67000000D03*
%TD*%
D10*
%TO.C,J6*%
X142560000Y-116000000D03*
D11*
X140020000Y-116000000D03*
X137480000Y-116000000D03*
X134940000Y-116000000D03*
X132400000Y-116000000D03*
X129860000Y-116000000D03*
X127320000Y-116000000D03*
X124780000Y-116000000D03*
X122240000Y-116000000D03*
X119700000Y-116000000D03*
X117160000Y-116000000D03*
X114620000Y-116000000D03*
X112080000Y-116000000D03*
X109540000Y-116000000D03*
X107000000Y-116000000D03*
%TD*%
M02*
