%TF.GenerationSoftware,KiCad,Pcbnew,7.0.7-7.0.7~ubuntu20.04.1*%
%TF.CreationDate,2023-09-11T10:36:44-04:00*%
%TF.ProjectId,board_pf_cese,626f6172-645f-4706-965f-636573652e6b,rev?*%
%TF.SameCoordinates,Original*%
%TF.FileFunction,Copper,L1,Top*%
%TF.FilePolarity,Positive*%
%FSLAX46Y46*%
G04 Gerber Fmt 4.6, Leading zero omitted, Abs format (unit mm)*
G04 Created by KiCad (PCBNEW 7.0.7-7.0.7~ubuntu20.04.1) date 2023-09-11 10:36:44*
%MOMM*%
%LPD*%
G01*
G04 APERTURE LIST*
%TA.AperFunction,ComponentPad*%
%ADD10C,4.400000*%
%TD*%
%TA.AperFunction,ComponentPad*%
%ADD11R,1.700000X1.700000*%
%TD*%
%TA.AperFunction,ComponentPad*%
%ADD12O,1.700000X1.700000*%
%TD*%
%TA.AperFunction,ComponentPad*%
%ADD13C,1.600000*%
%TD*%
%TA.AperFunction,ComponentPad*%
%ADD14O,1.600000X1.600000*%
%TD*%
%TA.AperFunction,ComponentPad*%
%ADD15R,2.600000X2.600000*%
%TD*%
%TA.AperFunction,ComponentPad*%
%ADD16C,2.600000*%
%TD*%
%TA.AperFunction,ComponentPad*%
%ADD17R,1.800000X1.800000*%
%TD*%
%TA.AperFunction,ComponentPad*%
%ADD18C,1.800000*%
%TD*%
%TA.AperFunction,Conductor*%
%ADD19C,1.000000*%
%TD*%
G04 APERTURE END LIST*
D10*
%TO.P,REF\u002A\u002A,1*%
%TO.N,N/C*%
X146000000Y-128000000D03*
%TD*%
D11*
%TO.P,J5,1,Pin_1*%
%TO.N,+3.3V*%
X129000000Y-127000000D03*
D12*
%TO.P,J5,2,Pin_2*%
%TO.N,GND*%
X131540000Y-127000000D03*
%TO.P,J5,3,Pin_3*%
%TO.N,/SCL*%
X134080000Y-127000000D03*
%TO.P,J5,4,Pin_4*%
%TO.N,/SDA*%
X136620000Y-127000000D03*
%TD*%
D11*
%TO.P,J8,1,Pin_1*%
%TO.N,unconnected-(J8-Pin_1-Pad1)*%
X109000000Y-71000000D03*
D12*
%TO.P,J8,2,Pin_2*%
%TO.N,/OR*%
X109000000Y-73540000D03*
%TO.P,J8,3,Pin_3*%
%TO.N,unconnected-(J8-Pin_3-Pad3)*%
X109000000Y-76080000D03*
%TO.P,J8,4,Pin_4*%
%TO.N,unconnected-(J8-Pin_4-Pad4)*%
X109000000Y-78620000D03*
%TO.P,J8,5,Pin_5*%
%TO.N,unconnected-(J8-Pin_5-Pad5)*%
X109000000Y-81160000D03*
%TO.P,J8,6,Pin_6*%
%TO.N,unconnected-(J8-Pin_6-Pad6)*%
X109000000Y-83700000D03*
%TO.P,J8,7,Pin_7*%
%TO.N,+3.3V*%
X109000000Y-86240000D03*
%TO.P,J8,8,Pin_8*%
%TO.N,GND*%
X109000000Y-88780000D03*
%TD*%
D10*
%TO.P,REF\u002A\u002A,1*%
%TO.N,N/C*%
X104000000Y-66000000D03*
%TD*%
D13*
%TO.P,R1,1*%
%TO.N,/SO*%
X122420000Y-97000000D03*
D14*
%TO.P,R1,2*%
%TO.N,Net-(D1-A)*%
X132580000Y-97000000D03*
%TD*%
D15*
%TO.P,J1,1,Pin_1*%
%TO.N,+5V*%
X143500000Y-76700000D03*
D16*
%TO.P,J1,2,Pin_2*%
%TO.N,GND*%
X143500000Y-71700000D03*
%TD*%
D17*
%TO.P,D2,1,K*%
%TO.N,GND*%
X138000000Y-93750000D03*
D18*
%TO.P,D2,2,A*%
%TO.N,Net-(D2-A)*%
X138000000Y-96290000D03*
%TD*%
D11*
%TO.P,J7,1,Pin_1*%
%TO.N,/M_RX*%
X142560000Y-100760000D03*
D12*
%TO.P,J7,2,Pin_2*%
%TO.N,/M_TX*%
X140020000Y-100760000D03*
%TO.P,J7,3,Pin_3*%
%TO.N,unconnected-(J7-Pin_3-Pad3)*%
X137480000Y-100760000D03*
%TO.P,J7,4,Pin_4*%
%TO.N,GND*%
X134940000Y-100760000D03*
%TO.P,J7,5,Pin_5*%
%TO.N,/OR*%
X132400000Y-100760000D03*
%TO.P,J7,6,Pin_6*%
%TO.N,/SO*%
X129860000Y-100760000D03*
%TO.P,J7,7,Pin_7*%
%TO.N,unconnected-(J7-Pin_7-Pad7)*%
X127320000Y-100760000D03*
%TO.P,J7,8,Pin_8*%
%TO.N,unconnected-(J7-Pin_8-Pad8)*%
X124780000Y-100760000D03*
%TO.P,J7,9,Pin_9*%
%TO.N,unconnected-(J7-Pin_9-Pad9)*%
X122240000Y-100760000D03*
%TO.P,J7,10,Pin_10*%
%TO.N,unconnected-(J7-Pin_10-Pad10)*%
X119700000Y-100760000D03*
%TO.P,J7,11,Pin_11*%
%TO.N,unconnected-(J7-Pin_11-Pad11)*%
X117160000Y-100760000D03*
%TO.P,J7,12,Pin_12*%
%TO.N,unconnected-(J7-Pin_12-Pad12)*%
X114620000Y-100760000D03*
%TO.P,J7,13,Pin_13*%
%TO.N,/SE*%
X112080000Y-100760000D03*
%TO.P,J7,14,Pin_14*%
%TO.N,unconnected-(J7-Pin_14-Pad14)*%
X109540000Y-100760000D03*
%TO.P,J7,15,Pin_15*%
%TO.N,/SDA*%
X107000000Y-100760000D03*
%TD*%
D10*
%TO.P,REF\u002A\u002A,1*%
%TO.N,N/C*%
X104000000Y-128000000D03*
%TD*%
%TO.P,REF\u002A\u002A,1*%
%TO.N,N/C*%
X146000000Y-66000000D03*
%TD*%
D11*
%TO.P,J3,1,Pin_1*%
%TO.N,+3.3V*%
X128920000Y-122000000D03*
D12*
%TO.P,J3,2,Pin_2*%
%TO.N,GND*%
X131460000Y-122000000D03*
%TO.P,J3,3,Pin_3*%
%TO.N,unconnected-(J3-Pin_3-Pad3)*%
X134000000Y-122000000D03*
%TO.P,J3,4,Pin_4*%
%TO.N,Net-(J3-Pin_4)*%
X136540000Y-122000000D03*
%TD*%
D13*
%TO.P,R2,1*%
%TO.N,/SE*%
X122420000Y-93000000D03*
D14*
%TO.P,R2,2*%
%TO.N,Net-(D2-A)*%
X132580000Y-93000000D03*
%TD*%
D11*
%TO.P,J9,1,Pin_1*%
%TO.N,unconnected-(J9-Pin_1-Pad1)*%
X131860000Y-71000000D03*
D12*
%TO.P,J9,2,Pin_2*%
%TO.N,unconnected-(J9-Pin_2-Pad2)*%
X131860000Y-73540000D03*
%TO.P,J9,3,Pin_3*%
%TO.N,/M_TX*%
X131860000Y-76080000D03*
%TO.P,J9,4,Pin_4*%
%TO.N,/M_RX*%
X131860000Y-78620000D03*
%TO.P,J9,5,Pin_5*%
%TO.N,unconnected-(J9-Pin_5-Pad5)*%
X131860000Y-81160000D03*
%TO.P,J9,6,Pin_6*%
%TO.N,unconnected-(J9-Pin_6-Pad6)*%
X131860000Y-83700000D03*
%TO.P,J9,7,Pin_7*%
%TO.N,+5V*%
X131860000Y-86240000D03*
%TO.P,J9,8,Pin_8*%
%TO.N,GND*%
X131860000Y-88780000D03*
%TD*%
D11*
%TO.P,J2,1,Pin_1*%
%TO.N,+3.3V*%
X114000000Y-122000000D03*
D12*
%TO.P,J2,2,Pin_2*%
%TO.N,GND*%
X116540000Y-122000000D03*
%TO.P,J2,3,Pin_3*%
%TO.N,unconnected-(J2-Pin_3-Pad3)*%
X119080000Y-122000000D03*
%TO.P,J2,4,Pin_4*%
%TO.N,Net-(J2-Pin_4)*%
X121620000Y-122000000D03*
%TD*%
D15*
%TO.P,J10,1,Pin_1*%
%TO.N,+12V*%
X143500000Y-87900000D03*
D16*
%TO.P,J10,2,Pin_2*%
%TO.N,GND*%
X143500000Y-82900000D03*
%TD*%
D17*
%TO.P,D1,1,K*%
%TO.N,GND*%
X145400000Y-93750000D03*
D18*
%TO.P,D1,2,A*%
%TO.N,Net-(D1-A)*%
X145400000Y-96290000D03*
%TD*%
D11*
%TO.P,J4,1,Pin_1*%
%TO.N,+3.3V*%
X114000000Y-127000000D03*
D12*
%TO.P,J4,2,Pin_2*%
%TO.N,GND*%
X116540000Y-127000000D03*
%TO.P,J4,3,Pin_3*%
%TO.N,Net-(J4-Pin_3)*%
X119080000Y-127000000D03*
%TO.P,J4,4,Pin_4*%
%TO.N,unconnected-(J4-Pin_4-Pad4)*%
X121620000Y-127000000D03*
%TD*%
D11*
%TO.P,J11,1,Pin_1*%
%TO.N,unconnected-(J11-Pin_1-Pad1)*%
X106920000Y-95000000D03*
D12*
%TO.P,J11,2,Pin_2*%
%TO.N,GND*%
X109460000Y-95000000D03*
%TO.P,J11,3,Pin_3*%
%TO.N,/UART2_TX*%
X112000000Y-95000000D03*
%TO.P,J11,4,Pin_4*%
%TO.N,unconnected-(J11-Pin_4-Pad4)*%
X114540000Y-95000000D03*
%TO.P,J11,5,Pin_5*%
%TO.N,unconnected-(J11-Pin_5-Pad5)*%
X117080000Y-95000000D03*
%TD*%
D11*
%TO.P,J6,1,Pin_1*%
%TO.N,+12V*%
X142560000Y-116000000D03*
D12*
%TO.P,J6,2,Pin_2*%
%TO.N,GND*%
X140020000Y-116000000D03*
%TO.P,J6,3,Pin_3*%
%TO.N,unconnected-(J6-Pin_3-Pad3)*%
X137480000Y-116000000D03*
%TO.P,J6,4,Pin_4*%
%TO.N,unconnected-(J6-Pin_4-Pad4)*%
X134940000Y-116000000D03*
%TO.P,J6,5,Pin_5*%
%TO.N,/UART2_TX*%
X132400000Y-116000000D03*
%TO.P,J6,6,Pin_6*%
%TO.N,/SCL*%
X129860000Y-116000000D03*
%TO.P,J6,7,Pin_7*%
%TO.N,unconnected-(J6-Pin_7-Pad7)*%
X127320000Y-116000000D03*
%TO.P,J6,8,Pin_8*%
%TO.N,Net-(J3-Pin_4)*%
X124780000Y-116000000D03*
%TO.P,J6,9,Pin_9*%
%TO.N,Net-(J2-Pin_4)*%
X122240000Y-116000000D03*
%TO.P,J6,10,Pin_10*%
%TO.N,Net-(J4-Pin_3)*%
X119700000Y-116000000D03*
%TO.P,J6,11,Pin_11*%
%TO.N,unconnected-(J6-Pin_11-Pad11)*%
X117160000Y-116000000D03*
%TO.P,J6,12,Pin_12*%
%TO.N,unconnected-(J6-Pin_12-Pad12)*%
X114620000Y-116000000D03*
%TO.P,J6,13,Pin_13*%
%TO.N,unconnected-(J6-Pin_13-Pad13)*%
X112080000Y-116000000D03*
%TO.P,J6,14,Pin_14*%
%TO.N,+3.3V*%
X109540000Y-116000000D03*
%TO.P,J6,15,Pin_15*%
%TO.N,unconnected-(J6-Pin_15-Pad15)*%
X107000000Y-116000000D03*
%TD*%
D19*
%TO.N,Net-(D1-A)*%
X133770000Y-98190000D02*
X143500000Y-98190000D01*
X132580000Y-97000000D02*
X133770000Y-98190000D01*
X143500000Y-98190000D02*
X145400000Y-96290000D01*
%TO.N,Net-(D2-A)*%
X138000000Y-96290000D02*
X135870000Y-96290000D01*
X135870000Y-96290000D02*
X132580000Y-93000000D01*
%TO.N,Net-(J3-Pin_4)*%
X136540000Y-120797919D02*
X135892081Y-120150000D01*
X127150000Y-120150000D02*
X124780000Y-117780000D01*
X136540000Y-122000000D02*
X136540000Y-120797919D01*
X124780000Y-117780000D02*
X124780000Y-116000000D01*
X135892081Y-120150000D02*
X127150000Y-120150000D01*
%TO.N,Net-(J4-Pin_3)*%
X119080000Y-125623704D02*
X118456296Y-125000000D01*
X111000000Y-125000000D02*
X110000000Y-124000000D01*
X119700000Y-118300000D02*
X119700000Y-116000000D01*
X111000000Y-119000000D02*
X119000000Y-119000000D01*
X119000000Y-119000000D02*
X119700000Y-118300000D01*
X110000000Y-124000000D02*
X110000000Y-120000000D01*
X110000000Y-120000000D02*
X111000000Y-119000000D01*
X119080000Y-127000000D02*
X119080000Y-125623704D01*
X118456296Y-125000000D02*
X111000000Y-125000000D01*
%TO.N,/SCL*%
X135627919Y-124250000D02*
X134080000Y-125797919D01*
X129860000Y-116000000D02*
X129860000Y-117202081D01*
X137900000Y-118650000D02*
X139250000Y-120000000D01*
X131307919Y-118650000D02*
X137900000Y-118650000D01*
X139250000Y-124000000D02*
X139000000Y-124250000D01*
X134080000Y-125797919D02*
X134080000Y-127000000D01*
X139000000Y-124250000D02*
X135627919Y-124250000D01*
X129860000Y-117202081D02*
X131307919Y-118650000D01*
X139250000Y-120000000D02*
X139250000Y-124000000D01*
%TO.N,/SDA*%
X144750000Y-113000000D02*
X145750000Y-114000000D01*
X108500000Y-105500000D02*
X125250000Y-105500000D01*
X107000000Y-104000000D02*
X108500000Y-105500000D01*
X107000000Y-100760000D02*
X107000000Y-104000000D01*
X145750000Y-119621320D02*
X138371320Y-127000000D01*
X145750000Y-114000000D02*
X145750000Y-119621320D01*
X132750000Y-113000000D02*
X144750000Y-113000000D01*
X125250000Y-105500000D02*
X132750000Y-113000000D01*
X138371320Y-127000000D02*
X136620000Y-127000000D01*
%TO.N,+5V*%
X131860000Y-86240000D02*
X133062081Y-86240000D01*
X137000000Y-77500000D02*
X137800000Y-76700000D01*
X137800000Y-76700000D02*
X143500000Y-76700000D01*
X137000000Y-82302081D02*
X137000000Y-77500000D01*
X133062081Y-86240000D02*
X137000000Y-82302081D01*
%TO.N,/UART2_TX*%
X107000000Y-107000000D02*
X104000000Y-104000000D01*
X112000000Y-97202081D02*
X112000000Y-95000000D01*
X132400000Y-116000000D02*
X132400000Y-114797919D01*
X124602081Y-107000000D02*
X117500000Y-107000000D01*
X117500000Y-107000000D02*
X107000000Y-107000000D01*
X111202081Y-98000000D02*
X112000000Y-97202081D01*
X104000000Y-99000000D02*
X105000000Y-98000000D01*
X105000000Y-98000000D02*
X111202081Y-98000000D01*
X104000000Y-104000000D02*
X104000000Y-99000000D01*
X132400000Y-114797919D02*
X124602081Y-107000000D01*
%TO.N,Net-(J2-Pin_4)*%
X121620000Y-118380000D02*
X122240000Y-117760000D01*
X121620000Y-122000000D02*
X121620000Y-118380000D01*
X122240000Y-117760000D02*
X122240000Y-116000000D01*
%TO.N,/SO*%
X122420000Y-97000000D02*
X127302081Y-97000000D01*
X129860000Y-99557919D02*
X129860000Y-100760000D01*
X127302081Y-97000000D02*
X129860000Y-99557919D01*
%TO.N,/SE*%
X118750000Y-98000000D02*
X120000000Y-96750000D01*
X112080000Y-99557919D02*
X113637919Y-98000000D01*
X121000000Y-93000000D02*
X122420000Y-93000000D01*
X120000000Y-96750000D02*
X120000000Y-94000000D01*
X113637919Y-98000000D02*
X118750000Y-98000000D01*
X120000000Y-94000000D02*
X121000000Y-93000000D01*
X112080000Y-100760000D02*
X112080000Y-99557919D01*
%TD*%
%TA.AperFunction,Conductor*%
%TO.N,+3.3V*%
G36*
X145635026Y-63095185D02*
G01*
X145680781Y-63147989D01*
X145690725Y-63217147D01*
X145661700Y-63280703D01*
X145602922Y-63318477D01*
X145590349Y-63321466D01*
X145350629Y-63365397D01*
X145350626Y-63365397D01*
X145350620Y-63365399D01*
X145037815Y-63462872D01*
X145037799Y-63462878D01*
X145037797Y-63462879D01*
X144994221Y-63482491D01*
X144738995Y-63597358D01*
X144458584Y-63766873D01*
X144200645Y-63968955D01*
X143968955Y-64200645D01*
X143766873Y-64458584D01*
X143597358Y-64738995D01*
X143462878Y-65037800D01*
X143462872Y-65037815D01*
X143365399Y-65350620D01*
X143306332Y-65672935D01*
X143286549Y-66000000D01*
X143306332Y-66327064D01*
X143306332Y-66327069D01*
X143306333Y-66327070D01*
X143365397Y-66649371D01*
X143365398Y-66649375D01*
X143365399Y-66649379D01*
X143462872Y-66962184D01*
X143462876Y-66962196D01*
X143462879Y-66962203D01*
X143597358Y-67261003D01*
X143597358Y-67261004D01*
X143766873Y-67541415D01*
X143968955Y-67799354D01*
X144200645Y-68031044D01*
X144200649Y-68031047D01*
X144458584Y-68233126D01*
X144738996Y-68402642D01*
X145037797Y-68537121D01*
X145037810Y-68537125D01*
X145037815Y-68537127D01*
X145246351Y-68602108D01*
X145350629Y-68634603D01*
X145672930Y-68693667D01*
X146000000Y-68713451D01*
X146327070Y-68693667D01*
X146649371Y-68634603D01*
X146962203Y-68537121D01*
X147261004Y-68402642D01*
X147541416Y-68233126D01*
X147799351Y-68031047D01*
X148031047Y-67799351D01*
X148233126Y-67541416D01*
X148402642Y-67261004D01*
X148537121Y-66962203D01*
X148634603Y-66649371D01*
X148678531Y-66409659D01*
X148709978Y-66347268D01*
X148770164Y-66311781D01*
X148839982Y-66314467D01*
X148897265Y-66354472D01*
X148923825Y-66419097D01*
X148924500Y-66432013D01*
X148924500Y-127567986D01*
X148904815Y-127635025D01*
X148852011Y-127680780D01*
X148782853Y-127690724D01*
X148719297Y-127661699D01*
X148681523Y-127602921D01*
X148678531Y-127590338D01*
X148674435Y-127567986D01*
X148634603Y-127350629D01*
X148553721Y-127091067D01*
X148537127Y-127037815D01*
X148537125Y-127037810D01*
X148537121Y-127037797D01*
X148402642Y-126738996D01*
X148233126Y-126458584D01*
X148031047Y-126200649D01*
X148031044Y-126200645D01*
X147799354Y-125968955D01*
X147541415Y-125766873D01*
X147261004Y-125597358D01*
X147261003Y-125597358D01*
X146962203Y-125462879D01*
X146962196Y-125462876D01*
X146962184Y-125462872D01*
X146649379Y-125365399D01*
X146649375Y-125365398D01*
X146649371Y-125365397D01*
X146327070Y-125306333D01*
X146327069Y-125306332D01*
X146327064Y-125306332D01*
X146000000Y-125286549D01*
X145672935Y-125306332D01*
X145672929Y-125306333D01*
X145672930Y-125306333D01*
X145350629Y-125365397D01*
X145350626Y-125365397D01*
X145350620Y-125365399D01*
X145037815Y-125462872D01*
X145037799Y-125462878D01*
X145037797Y-125462879D01*
X145021573Y-125470181D01*
X144738995Y-125597358D01*
X144458584Y-125766873D01*
X144200645Y-125968955D01*
X143968955Y-126200645D01*
X143766873Y-126458584D01*
X143597358Y-126738995D01*
X143462878Y-127037800D01*
X143462872Y-127037815D01*
X143365399Y-127350620D01*
X143306332Y-127672935D01*
X143286549Y-128000000D01*
X143306332Y-128327064D01*
X143306332Y-128327069D01*
X143306333Y-128327070D01*
X143365397Y-128649371D01*
X143365398Y-128649375D01*
X143365399Y-128649379D01*
X143462872Y-128962184D01*
X143462876Y-128962196D01*
X143462879Y-128962203D01*
X143597358Y-129261003D01*
X143597358Y-129261004D01*
X143766873Y-129541415D01*
X143968955Y-129799354D01*
X144200645Y-130031044D01*
X144200649Y-130031047D01*
X144458584Y-130233126D01*
X144738996Y-130402642D01*
X145037797Y-130537121D01*
X145037810Y-130537125D01*
X145037815Y-130537127D01*
X145246351Y-130602108D01*
X145350629Y-130634603D01*
X145590340Y-130678531D01*
X145652732Y-130709978D01*
X145688219Y-130770164D01*
X145685533Y-130839982D01*
X145645528Y-130897265D01*
X145580903Y-130923825D01*
X145567987Y-130924500D01*
X104432013Y-130924500D01*
X104364974Y-130904815D01*
X104319219Y-130852011D01*
X104309275Y-130782853D01*
X104338300Y-130719297D01*
X104397078Y-130681523D01*
X104409650Y-130678533D01*
X104649371Y-130634603D01*
X104962203Y-130537121D01*
X105261004Y-130402642D01*
X105541416Y-130233126D01*
X105799351Y-130031047D01*
X106031047Y-129799351D01*
X106233126Y-129541416D01*
X106402642Y-129261004D01*
X106537121Y-128962203D01*
X106634603Y-128649371D01*
X106693667Y-128327070D01*
X106713451Y-128000000D01*
X106693667Y-127672930D01*
X106634603Y-127350629D01*
X106553721Y-127091067D01*
X106537127Y-127037815D01*
X106537125Y-127037810D01*
X106537121Y-127037797D01*
X106402642Y-126738996D01*
X106233126Y-126458584D01*
X106031047Y-126200649D01*
X106031044Y-126200645D01*
X105799354Y-125968955D01*
X105541415Y-125766873D01*
X105261004Y-125597358D01*
X104962203Y-125462879D01*
X104962196Y-125462876D01*
X104962184Y-125462872D01*
X104649379Y-125365399D01*
X104649375Y-125365398D01*
X104649371Y-125365397D01*
X104327070Y-125306333D01*
X104327069Y-125306332D01*
X104327064Y-125306332D01*
X104000000Y-125286549D01*
X103672935Y-125306332D01*
X103672929Y-125306333D01*
X103672930Y-125306333D01*
X103350629Y-125365397D01*
X103350626Y-125365397D01*
X103350620Y-125365399D01*
X103037815Y-125462872D01*
X103037799Y-125462878D01*
X103037797Y-125462879D01*
X103021573Y-125470181D01*
X102738995Y-125597358D01*
X102458584Y-125766873D01*
X102200645Y-125968955D01*
X101968955Y-126200645D01*
X101766873Y-126458584D01*
X101597358Y-126738995D01*
X101462878Y-127037800D01*
X101462872Y-127037815D01*
X101365399Y-127350620D01*
X101365397Y-127350626D01*
X101365397Y-127350629D01*
X101339937Y-127489563D01*
X101321469Y-127590338D01*
X101290022Y-127652731D01*
X101229836Y-127688218D01*
X101160018Y-127685532D01*
X101102735Y-127645527D01*
X101076175Y-127580902D01*
X101075500Y-127567986D01*
X101075500Y-103999999D01*
X102986620Y-103999999D01*
X103006091Y-104197703D01*
X103063759Y-104387805D01*
X103157401Y-104562998D01*
X103157405Y-104563004D01*
X103283430Y-104716567D01*
X103319566Y-104746222D01*
X103324067Y-104750301D01*
X106249696Y-107675930D01*
X106253776Y-107680432D01*
X106283432Y-107716568D01*
X106436994Y-107842594D01*
X106437001Y-107842598D01*
X106612194Y-107936240D01*
X106612196Y-107936241D01*
X106633004Y-107942553D01*
X106669864Y-107953735D01*
X106787153Y-107989314D01*
X106802300Y-107993909D01*
X107000000Y-108013380D01*
X107033482Y-108010082D01*
X107046518Y-108008799D01*
X107052598Y-108008500D01*
X117450453Y-108008500D01*
X124132985Y-108008500D01*
X124200024Y-108028185D01*
X124220666Y-108044819D01*
X131258726Y-115082879D01*
X131292211Y-115144202D01*
X131287227Y-115213894D01*
X131274853Y-115238383D01*
X131233807Y-115301207D01*
X131180660Y-115346563D01*
X131111429Y-115355986D01*
X131048093Y-115326483D01*
X131026191Y-115301206D01*
X130935722Y-115162732D01*
X130935717Y-115162727D01*
X130935715Y-115162723D01*
X130783243Y-114997097D01*
X130783238Y-114997092D01*
X130605577Y-114858812D01*
X130605572Y-114858808D01*
X130407580Y-114751661D01*
X130407577Y-114751659D01*
X130407574Y-114751658D01*
X130407571Y-114751657D01*
X130407569Y-114751656D01*
X130194637Y-114678556D01*
X129972569Y-114641500D01*
X129747431Y-114641500D01*
X129525362Y-114678556D01*
X129312430Y-114751656D01*
X129312419Y-114751661D01*
X129114427Y-114858808D01*
X129114422Y-114858812D01*
X128936761Y-114997092D01*
X128936756Y-114997097D01*
X128784284Y-115162723D01*
X128784276Y-115162734D01*
X128693808Y-115301206D01*
X128640662Y-115346562D01*
X128571431Y-115355986D01*
X128508095Y-115326484D01*
X128486192Y-115301206D01*
X128395723Y-115162734D01*
X128395715Y-115162723D01*
X128243243Y-114997097D01*
X128243238Y-114997092D01*
X128065577Y-114858812D01*
X128065572Y-114858808D01*
X127867580Y-114751661D01*
X127867577Y-114751659D01*
X127867574Y-114751658D01*
X127867571Y-114751657D01*
X127867569Y-114751656D01*
X127654637Y-114678556D01*
X127432569Y-114641500D01*
X127207431Y-114641500D01*
X126985362Y-114678556D01*
X126772430Y-114751656D01*
X126772419Y-114751661D01*
X126574427Y-114858808D01*
X126574422Y-114858812D01*
X126396761Y-114997092D01*
X126396756Y-114997097D01*
X126244284Y-115162723D01*
X126244276Y-115162734D01*
X126153808Y-115301206D01*
X126100662Y-115346562D01*
X126031431Y-115355986D01*
X125968095Y-115326484D01*
X125946192Y-115301206D01*
X125855723Y-115162734D01*
X125855715Y-115162723D01*
X125703243Y-114997097D01*
X125703238Y-114997092D01*
X125525577Y-114858812D01*
X125525572Y-114858808D01*
X125327580Y-114751661D01*
X125327577Y-114751659D01*
X125327574Y-114751658D01*
X125327571Y-114751657D01*
X125327569Y-114751656D01*
X125114637Y-114678556D01*
X124892569Y-114641500D01*
X124667431Y-114641500D01*
X124445362Y-114678556D01*
X124232430Y-114751656D01*
X124232419Y-114751661D01*
X124034427Y-114858808D01*
X124034422Y-114858812D01*
X123856761Y-114997092D01*
X123856756Y-114997097D01*
X123704284Y-115162723D01*
X123704276Y-115162734D01*
X123613807Y-115301206D01*
X123560660Y-115346563D01*
X123491429Y-115355986D01*
X123428093Y-115326483D01*
X123406191Y-115301206D01*
X123315722Y-115162732D01*
X123315717Y-115162727D01*
X123315715Y-115162723D01*
X123163243Y-114997097D01*
X123163238Y-114997092D01*
X122985577Y-114858812D01*
X122985572Y-114858808D01*
X122787580Y-114751661D01*
X122787577Y-114751659D01*
X122787574Y-114751658D01*
X122787571Y-114751657D01*
X122787569Y-114751656D01*
X122574637Y-114678556D01*
X122352569Y-114641500D01*
X122127431Y-114641500D01*
X121905362Y-114678556D01*
X121692430Y-114751656D01*
X121692419Y-114751661D01*
X121494427Y-114858808D01*
X121494422Y-114858812D01*
X121316761Y-114997092D01*
X121316756Y-114997097D01*
X121164284Y-115162723D01*
X121164276Y-115162734D01*
X121073808Y-115301206D01*
X121020662Y-115346562D01*
X120951431Y-115355986D01*
X120888095Y-115326484D01*
X120866192Y-115301206D01*
X120775723Y-115162734D01*
X120775715Y-115162723D01*
X120623243Y-114997097D01*
X120623238Y-114997092D01*
X120445577Y-114858812D01*
X120445572Y-114858808D01*
X120247580Y-114751661D01*
X120247577Y-114751659D01*
X120247574Y-114751658D01*
X120247571Y-114751657D01*
X120247569Y-114751656D01*
X120034637Y-114678556D01*
X119812569Y-114641500D01*
X119587431Y-114641500D01*
X119365362Y-114678556D01*
X119152430Y-114751656D01*
X119152419Y-114751661D01*
X118954427Y-114858808D01*
X118954422Y-114858812D01*
X118776761Y-114997092D01*
X118776756Y-114997097D01*
X118624284Y-115162723D01*
X118624276Y-115162734D01*
X118533808Y-115301206D01*
X118480662Y-115346562D01*
X118411431Y-115355986D01*
X118348095Y-115326484D01*
X118326192Y-115301206D01*
X118235723Y-115162734D01*
X118235715Y-115162723D01*
X118083243Y-114997097D01*
X118083238Y-114997092D01*
X117905577Y-114858812D01*
X117905572Y-114858808D01*
X117707580Y-114751661D01*
X117707577Y-114751659D01*
X117707574Y-114751658D01*
X117707571Y-114751657D01*
X117707569Y-114751656D01*
X117494637Y-114678556D01*
X117272569Y-114641500D01*
X117047431Y-114641500D01*
X116825362Y-114678556D01*
X116612430Y-114751656D01*
X116612419Y-114751661D01*
X116414427Y-114858808D01*
X116414422Y-114858812D01*
X116236761Y-114997092D01*
X116236756Y-114997097D01*
X116084284Y-115162723D01*
X116084276Y-115162734D01*
X115993808Y-115301206D01*
X115940662Y-115346562D01*
X115871431Y-115355986D01*
X115808095Y-115326484D01*
X115786192Y-115301206D01*
X115695723Y-115162734D01*
X115695715Y-115162723D01*
X115543243Y-114997097D01*
X115543238Y-114997092D01*
X115365577Y-114858812D01*
X115365572Y-114858808D01*
X115167580Y-114751661D01*
X115167577Y-114751659D01*
X115167574Y-114751658D01*
X115167571Y-114751657D01*
X115167569Y-114751656D01*
X114954637Y-114678556D01*
X114732569Y-114641500D01*
X114507431Y-114641500D01*
X114285362Y-114678556D01*
X114072430Y-114751656D01*
X114072419Y-114751661D01*
X113874427Y-114858808D01*
X113874422Y-114858812D01*
X113696761Y-114997092D01*
X113696756Y-114997097D01*
X113544284Y-115162723D01*
X113544276Y-115162734D01*
X113453808Y-115301206D01*
X113400662Y-115346562D01*
X113331431Y-115355986D01*
X113268095Y-115326484D01*
X113246192Y-115301206D01*
X113155723Y-115162734D01*
X113155715Y-115162723D01*
X113003243Y-114997097D01*
X113003238Y-114997092D01*
X112825577Y-114858812D01*
X112825572Y-114858808D01*
X112627580Y-114751661D01*
X112627577Y-114751659D01*
X112627574Y-114751658D01*
X112627571Y-114751657D01*
X112627569Y-114751656D01*
X112414637Y-114678556D01*
X112192569Y-114641500D01*
X111967431Y-114641500D01*
X111745362Y-114678556D01*
X111532430Y-114751656D01*
X111532419Y-114751661D01*
X111334427Y-114858808D01*
X111334422Y-114858812D01*
X111156761Y-114997092D01*
X111156756Y-114997097D01*
X111004284Y-115162723D01*
X111004276Y-115162734D01*
X110910251Y-115306650D01*
X110857105Y-115352007D01*
X110787873Y-115361430D01*
X110724538Y-115331928D01*
X110704868Y-115309951D01*
X110578113Y-115128926D01*
X110578108Y-115128920D01*
X110411082Y-114961894D01*
X110217578Y-114826399D01*
X110003492Y-114726570D01*
X110003486Y-114726567D01*
X109790000Y-114669364D01*
X109790000Y-115387698D01*
X109770315Y-115454737D01*
X109717511Y-115500492D01*
X109648355Y-115510436D01*
X109575766Y-115500000D01*
X109575763Y-115500000D01*
X109504237Y-115500000D01*
X109504233Y-115500000D01*
X109431645Y-115510436D01*
X109362487Y-115500492D01*
X109309684Y-115454736D01*
X109290000Y-115387698D01*
X109290000Y-114669364D01*
X109289999Y-114669364D01*
X109076513Y-114726567D01*
X109076507Y-114726570D01*
X108862422Y-114826399D01*
X108862420Y-114826400D01*
X108668926Y-114961886D01*
X108668920Y-114961891D01*
X108501891Y-115128920D01*
X108501890Y-115128922D01*
X108375131Y-115309952D01*
X108320554Y-115353577D01*
X108251055Y-115360769D01*
X108188701Y-115329247D01*
X108169752Y-115306656D01*
X108075722Y-115162732D01*
X108075715Y-115162725D01*
X108075715Y-115162723D01*
X107923243Y-114997097D01*
X107923238Y-114997092D01*
X107745577Y-114858812D01*
X107745572Y-114858808D01*
X107547580Y-114751661D01*
X107547577Y-114751659D01*
X107547574Y-114751658D01*
X107547571Y-114751657D01*
X107547569Y-114751656D01*
X107334637Y-114678556D01*
X107112569Y-114641500D01*
X106887431Y-114641500D01*
X106665362Y-114678556D01*
X106452430Y-114751656D01*
X106452419Y-114751661D01*
X106254427Y-114858808D01*
X106254422Y-114858812D01*
X106076761Y-114997092D01*
X106076756Y-114997097D01*
X105924284Y-115162723D01*
X105924276Y-115162734D01*
X105801140Y-115351207D01*
X105710703Y-115557385D01*
X105655436Y-115775628D01*
X105655434Y-115775640D01*
X105636844Y-115999994D01*
X105636844Y-116000005D01*
X105655434Y-116224359D01*
X105655436Y-116224371D01*
X105710703Y-116442614D01*
X105801140Y-116648792D01*
X105924276Y-116837265D01*
X105924284Y-116837276D01*
X106050967Y-116974888D01*
X106076760Y-117002906D01*
X106254424Y-117141189D01*
X106254425Y-117141189D01*
X106254427Y-117141191D01*
X106366939Y-117202079D01*
X106452426Y-117248342D01*
X106665365Y-117321444D01*
X106887431Y-117358500D01*
X107112569Y-117358500D01*
X107334635Y-117321444D01*
X107547574Y-117248342D01*
X107745576Y-117141189D01*
X107923240Y-117002906D01*
X108044594Y-116871082D01*
X108075715Y-116837276D01*
X108075715Y-116837275D01*
X108075722Y-116837268D01*
X108169749Y-116693347D01*
X108222894Y-116647994D01*
X108292125Y-116638570D01*
X108355461Y-116668072D01*
X108375130Y-116690048D01*
X108501890Y-116871078D01*
X108668917Y-117038105D01*
X108862421Y-117173600D01*
X109076507Y-117273429D01*
X109076516Y-117273433D01*
X109290000Y-117330634D01*
X109290000Y-116612301D01*
X109309685Y-116545262D01*
X109362489Y-116499507D01*
X109431647Y-116489563D01*
X109504237Y-116500000D01*
X109504238Y-116500000D01*
X109575762Y-116500000D01*
X109575763Y-116500000D01*
X109648353Y-116489563D01*
X109717512Y-116499507D01*
X109770315Y-116545262D01*
X109790000Y-116612301D01*
X109790000Y-117330633D01*
X110003483Y-117273433D01*
X110003492Y-117273429D01*
X110217578Y-117173600D01*
X110411082Y-117038105D01*
X110578105Y-116871082D01*
X110704868Y-116690048D01*
X110759445Y-116646423D01*
X110828944Y-116639231D01*
X110891298Y-116670753D01*
X110910251Y-116693350D01*
X111004276Y-116837265D01*
X111004284Y-116837276D01*
X111130967Y-116974888D01*
X111156760Y-117002906D01*
X111334424Y-117141189D01*
X111334425Y-117141189D01*
X111334427Y-117141191D01*
X111446939Y-117202079D01*
X111532426Y-117248342D01*
X111745365Y-117321444D01*
X111967431Y-117358500D01*
X112192569Y-117358500D01*
X112414635Y-117321444D01*
X112627574Y-117248342D01*
X112825576Y-117141189D01*
X113003240Y-117002906D01*
X113124594Y-116871082D01*
X113155715Y-116837276D01*
X113155715Y-116837275D01*
X113155722Y-116837268D01*
X113246193Y-116698790D01*
X113299338Y-116653437D01*
X113368569Y-116644013D01*
X113431905Y-116673515D01*
X113453804Y-116698787D01*
X113544278Y-116837268D01*
X113544283Y-116837273D01*
X113544284Y-116837276D01*
X113670967Y-116974888D01*
X113696760Y-117002906D01*
X113874424Y-117141189D01*
X113874425Y-117141189D01*
X113874427Y-117141191D01*
X113986939Y-117202079D01*
X114072426Y-117248342D01*
X114285365Y-117321444D01*
X114507431Y-117358500D01*
X114732569Y-117358500D01*
X114954635Y-117321444D01*
X115167574Y-117248342D01*
X115365576Y-117141189D01*
X115543240Y-117002906D01*
X115664594Y-116871082D01*
X115695715Y-116837276D01*
X115695715Y-116837275D01*
X115695722Y-116837268D01*
X115786193Y-116698790D01*
X115839338Y-116653437D01*
X115908569Y-116644013D01*
X115971905Y-116673515D01*
X115993804Y-116698787D01*
X116084278Y-116837268D01*
X116084283Y-116837273D01*
X116084284Y-116837276D01*
X116210967Y-116974888D01*
X116236760Y-117002906D01*
X116414424Y-117141189D01*
X116414425Y-117141189D01*
X116414427Y-117141191D01*
X116526939Y-117202079D01*
X116612426Y-117248342D01*
X116825365Y-117321444D01*
X117047431Y-117358500D01*
X117272569Y-117358500D01*
X117494635Y-117321444D01*
X117707574Y-117248342D01*
X117905576Y-117141189D01*
X118083240Y-117002906D01*
X118204594Y-116871082D01*
X118235715Y-116837276D01*
X118235715Y-116837275D01*
X118235722Y-116837268D01*
X118326193Y-116698790D01*
X118379338Y-116653437D01*
X118448569Y-116644013D01*
X118511905Y-116673515D01*
X118533804Y-116698787D01*
X118624278Y-116837268D01*
X118658728Y-116874690D01*
X118689652Y-116937343D01*
X118691500Y-116958674D01*
X118691500Y-117830902D01*
X118671815Y-117897941D01*
X118655182Y-117918582D01*
X118618585Y-117955180D01*
X118557263Y-117988666D01*
X118530903Y-117991500D01*
X111052598Y-117991500D01*
X111046518Y-117991201D01*
X111000000Y-117986620D01*
X110802301Y-118006090D01*
X110612194Y-118063759D01*
X110530643Y-118107349D01*
X110436992Y-118157407D01*
X110283431Y-118283432D01*
X110253779Y-118319562D01*
X110249691Y-118324072D01*
X109324077Y-119249687D01*
X109319567Y-119253775D01*
X109283432Y-119283431D01*
X109157405Y-119436994D01*
X109138739Y-119471918D01*
X109063759Y-119612194D01*
X109006091Y-119802296D01*
X108986620Y-120000001D01*
X108986620Y-120000004D01*
X108991200Y-120046518D01*
X108991499Y-120052598D01*
X108991499Y-123947400D01*
X108991200Y-123953479D01*
X108986620Y-123999996D01*
X108986620Y-123999999D01*
X109006091Y-124197703D01*
X109063312Y-124386330D01*
X109063678Y-124387654D01*
X109157401Y-124562998D01*
X109157405Y-124563005D01*
X109283430Y-124716567D01*
X109319566Y-124746222D01*
X109324067Y-124750301D01*
X110036637Y-125462872D01*
X110249690Y-125675925D01*
X110253769Y-125680424D01*
X110275292Y-125706649D01*
X110283434Y-125716570D01*
X110436994Y-125842594D01*
X110436996Y-125842595D01*
X110530642Y-125892650D01*
X110612197Y-125936242D01*
X110802300Y-125993909D01*
X111000000Y-126013380D01*
X111033482Y-126010082D01*
X111046518Y-126008799D01*
X111052598Y-126008500D01*
X112526000Y-126008500D01*
X112593039Y-126028185D01*
X112638794Y-126080989D01*
X112650000Y-126132500D01*
X112650000Y-126750000D01*
X113386653Y-126750000D01*
X113453692Y-126769685D01*
X113499447Y-126822489D01*
X113509391Y-126891647D01*
X113505631Y-126908933D01*
X113500000Y-126928111D01*
X113500000Y-127071888D01*
X113505631Y-127091067D01*
X113505630Y-127160936D01*
X113467855Y-127219714D01*
X113404299Y-127248738D01*
X113386653Y-127250000D01*
X112650000Y-127250000D01*
X112650000Y-127897844D01*
X112656401Y-127957372D01*
X112656403Y-127957379D01*
X112706645Y-128092086D01*
X112706649Y-128092093D01*
X112792809Y-128207187D01*
X112792812Y-128207190D01*
X112907906Y-128293350D01*
X112907913Y-128293354D01*
X113042620Y-128343596D01*
X113042627Y-128343598D01*
X113102155Y-128349999D01*
X113102172Y-128350000D01*
X113750000Y-128350000D01*
X113750000Y-127612301D01*
X113769685Y-127545262D01*
X113822489Y-127499507D01*
X113891647Y-127489563D01*
X113964237Y-127500000D01*
X113964238Y-127500000D01*
X114035762Y-127500000D01*
X114035763Y-127500000D01*
X114108353Y-127489563D01*
X114177512Y-127499507D01*
X114230315Y-127545262D01*
X114250000Y-127612301D01*
X114250000Y-128350000D01*
X114897828Y-128350000D01*
X114897844Y-128349999D01*
X114957372Y-128343598D01*
X114957379Y-128343596D01*
X115092086Y-128293354D01*
X115092093Y-128293350D01*
X115207187Y-128207190D01*
X115207190Y-128207187D01*
X115293350Y-128092093D01*
X115293354Y-128092086D01*
X115339681Y-127967877D01*
X115381552Y-127911943D01*
X115447016Y-127887526D01*
X115515289Y-127902377D01*
X115547089Y-127927223D01*
X115616760Y-128002906D01*
X115794424Y-128141189D01*
X115794425Y-128141189D01*
X115794427Y-128141191D01*
X115916378Y-128207187D01*
X115992426Y-128248342D01*
X116205365Y-128321444D01*
X116427431Y-128358500D01*
X116652569Y-128358500D01*
X116874635Y-128321444D01*
X117087574Y-128248342D01*
X117285576Y-128141189D01*
X117463240Y-128002906D01*
X117615722Y-127837268D01*
X117706193Y-127698790D01*
X117759338Y-127653437D01*
X117828569Y-127644013D01*
X117891905Y-127673515D01*
X117913804Y-127698787D01*
X118004278Y-127837268D01*
X118004283Y-127837273D01*
X118004284Y-127837276D01*
X118156756Y-128002902D01*
X118156761Y-128002907D01*
X118170217Y-128013380D01*
X118334424Y-128141189D01*
X118334425Y-128141189D01*
X118334427Y-128141191D01*
X118456378Y-128207187D01*
X118532426Y-128248342D01*
X118745365Y-128321444D01*
X118967431Y-128358500D01*
X119192569Y-128358500D01*
X119414635Y-128321444D01*
X119627574Y-128248342D01*
X119825576Y-128141189D01*
X120003240Y-128002906D01*
X120155722Y-127837268D01*
X120246193Y-127698790D01*
X120299338Y-127653437D01*
X120368569Y-127644013D01*
X120431905Y-127673515D01*
X120453804Y-127698787D01*
X120544278Y-127837268D01*
X120544283Y-127837273D01*
X120544284Y-127837276D01*
X120696756Y-128002902D01*
X120696761Y-128002907D01*
X120710217Y-128013380D01*
X120874424Y-128141189D01*
X120874425Y-128141189D01*
X120874427Y-128141191D01*
X120996378Y-128207187D01*
X121072426Y-128248342D01*
X121285365Y-128321444D01*
X121507431Y-128358500D01*
X121732569Y-128358500D01*
X121954635Y-128321444D01*
X122167574Y-128248342D01*
X122365576Y-128141189D01*
X122543240Y-128002906D01*
X122695722Y-127837268D01*
X122818860Y-127648791D01*
X122909296Y-127442616D01*
X122964564Y-127224368D01*
X122965768Y-127209844D01*
X122983156Y-127000005D01*
X122983156Y-126999994D01*
X122964565Y-126775640D01*
X122964563Y-126775628D01*
X122909296Y-126557385D01*
X122888702Y-126510436D01*
X122818860Y-126351209D01*
X122802706Y-126326484D01*
X122720281Y-126200322D01*
X122695722Y-126162732D01*
X122695719Y-126162729D01*
X122695715Y-126162723D01*
X122543243Y-125997097D01*
X122543238Y-125997092D01*
X122409052Y-125892650D01*
X122365576Y-125858811D01*
X122365575Y-125858810D01*
X122365572Y-125858808D01*
X122167580Y-125751661D01*
X122167577Y-125751659D01*
X122167574Y-125751658D01*
X122167571Y-125751657D01*
X122167569Y-125751656D01*
X121954637Y-125678556D01*
X121732569Y-125641500D01*
X121507431Y-125641500D01*
X121285362Y-125678556D01*
X121072430Y-125751656D01*
X121072419Y-125751661D01*
X120874427Y-125858808D01*
X120874422Y-125858812D01*
X120696761Y-125997092D01*
X120696756Y-125997097D01*
X120544284Y-126162723D01*
X120544276Y-126162734D01*
X120453807Y-126301206D01*
X120400660Y-126346563D01*
X120331429Y-126355986D01*
X120268093Y-126326483D01*
X120246191Y-126301206D01*
X120155722Y-126162732D01*
X120121270Y-126125307D01*
X120090348Y-126062654D01*
X120088500Y-126041325D01*
X120088500Y-125676301D01*
X120088799Y-125670221D01*
X120093380Y-125623704D01*
X120073909Y-125426005D01*
X120024578Y-125263381D01*
X120020661Y-125250471D01*
X120016241Y-125235900D01*
X120015715Y-125234915D01*
X119922598Y-125060705D01*
X119922594Y-125060698D01*
X119796568Y-124907136D01*
X119760432Y-124877480D01*
X119755930Y-124873400D01*
X119206597Y-124324067D01*
X119202518Y-124319566D01*
X119172863Y-124283430D01*
X119019301Y-124157405D01*
X119019294Y-124157401D01*
X118844101Y-124063759D01*
X118653999Y-124006091D01*
X118522196Y-123993110D01*
X118456296Y-123986620D01*
X118456295Y-123986620D01*
X118409778Y-123991201D01*
X118403698Y-123991500D01*
X111469097Y-123991500D01*
X111402058Y-123971815D01*
X111381416Y-123955181D01*
X111044819Y-123618584D01*
X111011334Y-123557261D01*
X111008500Y-123530903D01*
X111008500Y-120469096D01*
X111028185Y-120402057D01*
X111044819Y-120381415D01*
X111381416Y-120044819D01*
X111442739Y-120011334D01*
X111469097Y-120008500D01*
X118947402Y-120008500D01*
X118953482Y-120008799D01*
X118967511Y-120010180D01*
X119000000Y-120013380D01*
X119197701Y-119993909D01*
X119387804Y-119936241D01*
X119387803Y-119936240D01*
X119409650Y-119929614D01*
X119409826Y-119929315D01*
X119436274Y-119910332D01*
X119563004Y-119842595D01*
X119716568Y-119716568D01*
X119746238Y-119680413D01*
X119750288Y-119675944D01*
X120375934Y-119050299D01*
X120380424Y-119046229D01*
X120399356Y-119030692D01*
X120408837Y-119022913D01*
X120473148Y-118995601D01*
X120542015Y-119007395D01*
X120593574Y-119054548D01*
X120611499Y-119118768D01*
X120611499Y-121041325D01*
X120591814Y-121108364D01*
X120578729Y-121125307D01*
X120544284Y-121162723D01*
X120544276Y-121162734D01*
X120453808Y-121301206D01*
X120400662Y-121346562D01*
X120331431Y-121355986D01*
X120268095Y-121326484D01*
X120246192Y-121301206D01*
X120156145Y-121163380D01*
X120155722Y-121162732D01*
X120155719Y-121162729D01*
X120155715Y-121162723D01*
X120003243Y-120997097D01*
X120003238Y-120997092D01*
X119825577Y-120858812D01*
X119825572Y-120858808D01*
X119627580Y-120751661D01*
X119627577Y-120751659D01*
X119627574Y-120751658D01*
X119627571Y-120751657D01*
X119627569Y-120751656D01*
X119414637Y-120678556D01*
X119192569Y-120641500D01*
X118967431Y-120641500D01*
X118745362Y-120678556D01*
X118532430Y-120751656D01*
X118532419Y-120751661D01*
X118334427Y-120858808D01*
X118334422Y-120858812D01*
X118156761Y-120997092D01*
X118156756Y-120997097D01*
X118004284Y-121162723D01*
X118004276Y-121162734D01*
X117913808Y-121301206D01*
X117860662Y-121346562D01*
X117791431Y-121355986D01*
X117728095Y-121326484D01*
X117706192Y-121301206D01*
X117616145Y-121163380D01*
X117615722Y-121162732D01*
X117615719Y-121162729D01*
X117615715Y-121162723D01*
X117463243Y-120997097D01*
X117463238Y-120997092D01*
X117285577Y-120858812D01*
X117285572Y-120858808D01*
X117087580Y-120751661D01*
X117087577Y-120751659D01*
X117087574Y-120751658D01*
X117087571Y-120751657D01*
X117087569Y-120751656D01*
X116874637Y-120678556D01*
X116652569Y-120641500D01*
X116427431Y-120641500D01*
X116205362Y-120678556D01*
X115992430Y-120751656D01*
X115992419Y-120751661D01*
X115794427Y-120858808D01*
X115794422Y-120858812D01*
X115616761Y-120997092D01*
X115547092Y-121072773D01*
X115487205Y-121108763D01*
X115417367Y-121106662D01*
X115359751Y-121067137D01*
X115339681Y-121032122D01*
X115293354Y-120907913D01*
X115293350Y-120907906D01*
X115207190Y-120792812D01*
X115207187Y-120792809D01*
X115092093Y-120706649D01*
X115092086Y-120706645D01*
X114957379Y-120656403D01*
X114957372Y-120656401D01*
X114897844Y-120650000D01*
X114250000Y-120650000D01*
X114250000Y-121387698D01*
X114230315Y-121454737D01*
X114177511Y-121500492D01*
X114108355Y-121510436D01*
X114035766Y-121500000D01*
X114035763Y-121500000D01*
X113964237Y-121500000D01*
X113964233Y-121500000D01*
X113891645Y-121510436D01*
X113822487Y-121500492D01*
X113769684Y-121454736D01*
X113750000Y-121387698D01*
X113750000Y-120650000D01*
X113102155Y-120650000D01*
X113042627Y-120656401D01*
X113042620Y-120656403D01*
X112907913Y-120706645D01*
X112907906Y-120706649D01*
X112792812Y-120792809D01*
X112792809Y-120792812D01*
X112706649Y-120907906D01*
X112706645Y-120907913D01*
X112656403Y-121042620D01*
X112656401Y-121042627D01*
X112650000Y-121102155D01*
X112650000Y-121750000D01*
X113386653Y-121750000D01*
X113453692Y-121769685D01*
X113499447Y-121822489D01*
X113509391Y-121891647D01*
X113505631Y-121908933D01*
X113500000Y-121928111D01*
X113500000Y-122071888D01*
X113505631Y-122091067D01*
X113505630Y-122160936D01*
X113467855Y-122219714D01*
X113404299Y-122248738D01*
X113386653Y-122250000D01*
X112650000Y-122250000D01*
X112650000Y-122897844D01*
X112656401Y-122957372D01*
X112656403Y-122957379D01*
X112706645Y-123092086D01*
X112706649Y-123092093D01*
X112792809Y-123207187D01*
X112792812Y-123207190D01*
X112907906Y-123293350D01*
X112907913Y-123293354D01*
X113042620Y-123343596D01*
X113042627Y-123343598D01*
X113102155Y-123349999D01*
X113102172Y-123350000D01*
X113750000Y-123350000D01*
X113750000Y-122612301D01*
X113769685Y-122545262D01*
X113822489Y-122499507D01*
X113891647Y-122489563D01*
X113964237Y-122500000D01*
X113964238Y-122500000D01*
X114035762Y-122500000D01*
X114035763Y-122500000D01*
X114108353Y-122489563D01*
X114177512Y-122499507D01*
X114230315Y-122545262D01*
X114250000Y-122612301D01*
X114250000Y-123350000D01*
X114897828Y-123350000D01*
X114897844Y-123349999D01*
X114957372Y-123343598D01*
X114957379Y-123343596D01*
X115092086Y-123293354D01*
X115092093Y-123293350D01*
X115207187Y-123207190D01*
X115207190Y-123207187D01*
X115293350Y-123092093D01*
X115293354Y-123092086D01*
X115339681Y-122967877D01*
X115381552Y-122911943D01*
X115447016Y-122887526D01*
X115515289Y-122902377D01*
X115547089Y-122927223D01*
X115616760Y-123002906D01*
X115794424Y-123141189D01*
X115794425Y-123141189D01*
X115794427Y-123141191D01*
X115874528Y-123184539D01*
X115992426Y-123248342D01*
X116205365Y-123321444D01*
X116427431Y-123358500D01*
X116652569Y-123358500D01*
X116874635Y-123321444D01*
X117087574Y-123248342D01*
X117285576Y-123141189D01*
X117463240Y-123002906D01*
X117615722Y-122837268D01*
X117706193Y-122698790D01*
X117759338Y-122653437D01*
X117828569Y-122644013D01*
X117891905Y-122673515D01*
X117913804Y-122698787D01*
X118004278Y-122837268D01*
X118004283Y-122837273D01*
X118004284Y-122837276D01*
X118156756Y-123002902D01*
X118156761Y-123002907D01*
X118179411Y-123020536D01*
X118334424Y-123141189D01*
X118334425Y-123141189D01*
X118334427Y-123141191D01*
X118414528Y-123184539D01*
X118532426Y-123248342D01*
X118745365Y-123321444D01*
X118967431Y-123358500D01*
X119192569Y-123358500D01*
X119414635Y-123321444D01*
X119627574Y-123248342D01*
X119825576Y-123141189D01*
X120003240Y-123002906D01*
X120155722Y-122837268D01*
X120246193Y-122698790D01*
X120299338Y-122653437D01*
X120368569Y-122644013D01*
X120431905Y-122673515D01*
X120453804Y-122698787D01*
X120544278Y-122837268D01*
X120544283Y-122837273D01*
X120544284Y-122837276D01*
X120696756Y-123002902D01*
X120696761Y-123002907D01*
X120719411Y-123020536D01*
X120874424Y-123141189D01*
X120874425Y-123141189D01*
X120874427Y-123141191D01*
X120954528Y-123184539D01*
X121072426Y-123248342D01*
X121285365Y-123321444D01*
X121507431Y-123358500D01*
X121732569Y-123358500D01*
X121954635Y-123321444D01*
X122167574Y-123248342D01*
X122365576Y-123141189D01*
X122543240Y-123002906D01*
X122695722Y-122837268D01*
X122818860Y-122648791D01*
X122909296Y-122442616D01*
X122964564Y-122224368D01*
X122965768Y-122209844D01*
X122983156Y-122000005D01*
X122983156Y-121999994D01*
X122964565Y-121775640D01*
X122964563Y-121775628D01*
X122909296Y-121557385D01*
X122888702Y-121510436D01*
X122818860Y-121351209D01*
X122802706Y-121326484D01*
X122696145Y-121163380D01*
X122695722Y-121162732D01*
X122661270Y-121125307D01*
X122630348Y-121062654D01*
X122628500Y-121041325D01*
X122628500Y-118849094D01*
X122648185Y-118782055D01*
X122664814Y-118761418D01*
X122915944Y-118510288D01*
X122920413Y-118506238D01*
X122956568Y-118476568D01*
X123082595Y-118323004D01*
X123176241Y-118147804D01*
X123233908Y-117957701D01*
X123248500Y-117809547D01*
X123253380Y-117760000D01*
X123248897Y-117714485D01*
X123248799Y-117713485D01*
X123248500Y-117707404D01*
X123248500Y-116958674D01*
X123268185Y-116891635D01*
X123281267Y-116874694D01*
X123315722Y-116837268D01*
X123406193Y-116698790D01*
X123459338Y-116653437D01*
X123528569Y-116644013D01*
X123591905Y-116673515D01*
X123613804Y-116698787D01*
X123704278Y-116837268D01*
X123704283Y-116837273D01*
X123704284Y-116837276D01*
X123738728Y-116874691D01*
X123769651Y-116937345D01*
X123771499Y-116958674D01*
X123771500Y-117727401D01*
X123771201Y-117733481D01*
X123766620Y-117779999D01*
X123786091Y-117977703D01*
X123843312Y-118166330D01*
X123843678Y-118167654D01*
X123937401Y-118342998D01*
X123937405Y-118343005D01*
X124063430Y-118496567D01*
X124099566Y-118526222D01*
X124104067Y-118530301D01*
X126399696Y-120825930D01*
X126403776Y-120830432D01*
X126433432Y-120866568D01*
X126586994Y-120992594D01*
X126586996Y-120992595D01*
X126720135Y-121063759D01*
X126762196Y-121086241D01*
X126952299Y-121143908D01*
X126952298Y-121143908D01*
X126970024Y-121145653D01*
X127150000Y-121163380D01*
X127183922Y-121160038D01*
X127196515Y-121158799D01*
X127202596Y-121158500D01*
X127446000Y-121158500D01*
X127513039Y-121178185D01*
X127558794Y-121230989D01*
X127570000Y-121282500D01*
X127570000Y-121750000D01*
X128306653Y-121750000D01*
X128373692Y-121769685D01*
X128419447Y-121822489D01*
X128429391Y-121891647D01*
X128425631Y-121908933D01*
X128420000Y-121928111D01*
X128420000Y-122071888D01*
X128425631Y-122091067D01*
X128425630Y-122160936D01*
X128387855Y-122219714D01*
X128324299Y-122248738D01*
X128306653Y-122250000D01*
X127570000Y-122250000D01*
X127570000Y-122897844D01*
X127576401Y-122957372D01*
X127576403Y-122957379D01*
X127626645Y-123092086D01*
X127626649Y-123092093D01*
X127712809Y-123207187D01*
X127712812Y-123207190D01*
X127827906Y-123293350D01*
X127827913Y-123293354D01*
X127962620Y-123343596D01*
X127962627Y-123343598D01*
X128022155Y-123349999D01*
X128022172Y-123350000D01*
X128670000Y-123350000D01*
X128670000Y-122612301D01*
X128689685Y-122545262D01*
X128742489Y-122499507D01*
X128811647Y-122489563D01*
X128884237Y-122500000D01*
X128884238Y-122500000D01*
X128955762Y-122500000D01*
X128955763Y-122500000D01*
X129028353Y-122489563D01*
X129097512Y-122499507D01*
X129150315Y-122545262D01*
X129170000Y-122612301D01*
X129170000Y-123350000D01*
X129817828Y-123350000D01*
X129817844Y-123349999D01*
X129877372Y-123343598D01*
X129877379Y-123343596D01*
X130012086Y-123293354D01*
X130012093Y-123293350D01*
X130127187Y-123207190D01*
X130127190Y-123207187D01*
X130213350Y-123092093D01*
X130213354Y-123092086D01*
X130259681Y-122967877D01*
X130301552Y-122911943D01*
X130367016Y-122887526D01*
X130435289Y-122902377D01*
X130467089Y-122927223D01*
X130536760Y-123002906D01*
X130714424Y-123141189D01*
X130714425Y-123141189D01*
X130714427Y-123141191D01*
X130794528Y-123184539D01*
X130912426Y-123248342D01*
X131125365Y-123321444D01*
X131347431Y-123358500D01*
X131572569Y-123358500D01*
X131794635Y-123321444D01*
X132007574Y-123248342D01*
X132205576Y-123141189D01*
X132383240Y-123002906D01*
X132535722Y-122837268D01*
X132626193Y-122698790D01*
X132679338Y-122653437D01*
X132748569Y-122644013D01*
X132811905Y-122673515D01*
X132833804Y-122698787D01*
X132924278Y-122837268D01*
X132924283Y-122837273D01*
X132924284Y-122837276D01*
X133076756Y-123002902D01*
X133076761Y-123002907D01*
X133099411Y-123020536D01*
X133254424Y-123141189D01*
X133254425Y-123141189D01*
X133254427Y-123141191D01*
X133334528Y-123184539D01*
X133452426Y-123248342D01*
X133665365Y-123321444D01*
X133887431Y-123358500D01*
X134112569Y-123358500D01*
X134334635Y-123321444D01*
X134547574Y-123248342D01*
X134745576Y-123141189D01*
X134923240Y-123002906D01*
X135075722Y-122837268D01*
X135166193Y-122698791D01*
X135219336Y-122653437D01*
X135288567Y-122644013D01*
X135351903Y-122673515D01*
X135373807Y-122698793D01*
X135464276Y-122837265D01*
X135464284Y-122837276D01*
X135584513Y-122967877D01*
X135616760Y-123002906D01*
X135638269Y-123019647D01*
X135639411Y-123020536D01*
X135680224Y-123077246D01*
X135683898Y-123147019D01*
X135649266Y-123207702D01*
X135587325Y-123240029D01*
X135575402Y-123241792D01*
X135430220Y-123256090D01*
X135327488Y-123287253D01*
X135240115Y-123313758D01*
X135225707Y-123318129D01*
X135215557Y-123326885D01*
X135064920Y-123407401D01*
X135064913Y-123407405D01*
X134911350Y-123533432D01*
X134881694Y-123569567D01*
X134877606Y-123574077D01*
X133404077Y-125047606D01*
X133399567Y-125051694D01*
X133363432Y-125081350D01*
X133237405Y-125234913D01*
X133237401Y-125234920D01*
X133143759Y-125410113D01*
X133086091Y-125600215D01*
X133066620Y-125797919D01*
X133071201Y-125844436D01*
X133071500Y-125850516D01*
X133071500Y-126041325D01*
X133051815Y-126108364D01*
X133038729Y-126125309D01*
X133004279Y-126162730D01*
X133004276Y-126162734D01*
X132913808Y-126301206D01*
X132860662Y-126346562D01*
X132791431Y-126355986D01*
X132728095Y-126326484D01*
X132706192Y-126301206D01*
X132640281Y-126200322D01*
X132615722Y-126162732D01*
X132615719Y-126162729D01*
X132615715Y-126162723D01*
X132463243Y-125997097D01*
X132463238Y-125997092D01*
X132329052Y-125892650D01*
X132285576Y-125858811D01*
X132285575Y-125858810D01*
X132285572Y-125858808D01*
X132087580Y-125751661D01*
X132087577Y-125751659D01*
X132087574Y-125751658D01*
X132087571Y-125751657D01*
X132087569Y-125751656D01*
X131874637Y-125678556D01*
X131652569Y-125641500D01*
X131427431Y-125641500D01*
X131205362Y-125678556D01*
X130992430Y-125751656D01*
X130992419Y-125751661D01*
X130794427Y-125858808D01*
X130794422Y-125858812D01*
X130616761Y-125997092D01*
X130547092Y-126072773D01*
X130487205Y-126108763D01*
X130417367Y-126106662D01*
X130359751Y-126067137D01*
X130339681Y-126032122D01*
X130293354Y-125907913D01*
X130293350Y-125907906D01*
X130207190Y-125792812D01*
X130207187Y-125792809D01*
X130092093Y-125706649D01*
X130092086Y-125706645D01*
X129957379Y-125656403D01*
X129957372Y-125656401D01*
X129897844Y-125650000D01*
X129250000Y-125650000D01*
X129250000Y-126387698D01*
X129230315Y-126454737D01*
X129177511Y-126500492D01*
X129108355Y-126510436D01*
X129035766Y-126500000D01*
X129035763Y-126500000D01*
X128964237Y-126500000D01*
X128964233Y-126500000D01*
X128891645Y-126510436D01*
X128822487Y-126500492D01*
X128769684Y-126454736D01*
X128750000Y-126387698D01*
X128750000Y-125650000D01*
X128102155Y-125650000D01*
X128042627Y-125656401D01*
X128042620Y-125656403D01*
X127907913Y-125706645D01*
X127907906Y-125706649D01*
X127792812Y-125792809D01*
X127792809Y-125792812D01*
X127706649Y-125907906D01*
X127706645Y-125907913D01*
X127656403Y-126042620D01*
X127656401Y-126042627D01*
X127650000Y-126102155D01*
X127650000Y-126750000D01*
X128386653Y-126750000D01*
X128453692Y-126769685D01*
X128499447Y-126822489D01*
X128509391Y-126891647D01*
X128505631Y-126908933D01*
X128500000Y-126928111D01*
X128500000Y-127071888D01*
X128505631Y-127091067D01*
X128505630Y-127160936D01*
X128467855Y-127219714D01*
X128404299Y-127248738D01*
X128386653Y-127250000D01*
X127650000Y-127250000D01*
X127650000Y-127897844D01*
X127656401Y-127957372D01*
X127656403Y-127957379D01*
X127706645Y-128092086D01*
X127706649Y-128092093D01*
X127792809Y-128207187D01*
X127792812Y-128207190D01*
X127907906Y-128293350D01*
X127907913Y-128293354D01*
X128042620Y-128343596D01*
X128042627Y-128343598D01*
X128102155Y-128349999D01*
X128102172Y-128350000D01*
X128750000Y-128350000D01*
X128750000Y-127612301D01*
X128769685Y-127545262D01*
X128822489Y-127499507D01*
X128891647Y-127489563D01*
X128964237Y-127500000D01*
X128964238Y-127500000D01*
X129035762Y-127500000D01*
X129035763Y-127500000D01*
X129108353Y-127489563D01*
X129177512Y-127499507D01*
X129230315Y-127545262D01*
X129250000Y-127612301D01*
X129250000Y-128350000D01*
X129897828Y-128350000D01*
X129897844Y-128349999D01*
X129957372Y-128343598D01*
X129957379Y-128343596D01*
X130092086Y-128293354D01*
X130092093Y-128293350D01*
X130207187Y-128207190D01*
X130207190Y-128207187D01*
X130293350Y-128092093D01*
X130293354Y-128092086D01*
X130339681Y-127967877D01*
X130381552Y-127911943D01*
X130447016Y-127887526D01*
X130515289Y-127902377D01*
X130547089Y-127927223D01*
X130616760Y-128002906D01*
X130794424Y-128141189D01*
X130794425Y-128141189D01*
X130794427Y-128141191D01*
X130916378Y-128207187D01*
X130992426Y-128248342D01*
X131205365Y-128321444D01*
X131427431Y-128358500D01*
X131652569Y-128358500D01*
X131874635Y-128321444D01*
X132087574Y-128248342D01*
X132285576Y-128141189D01*
X132463240Y-128002906D01*
X132615722Y-127837268D01*
X132706193Y-127698790D01*
X132759338Y-127653437D01*
X132828569Y-127644013D01*
X132891905Y-127673515D01*
X132913804Y-127698787D01*
X133004278Y-127837268D01*
X133004283Y-127837273D01*
X133004284Y-127837276D01*
X133156756Y-128002902D01*
X133156761Y-128002907D01*
X133170217Y-128013380D01*
X133334424Y-128141189D01*
X133334425Y-128141189D01*
X133334427Y-128141191D01*
X133456378Y-128207187D01*
X133532426Y-128248342D01*
X133745365Y-128321444D01*
X133967431Y-128358500D01*
X134192569Y-128358500D01*
X134414635Y-128321444D01*
X134627574Y-128248342D01*
X134825576Y-128141189D01*
X135003240Y-128002906D01*
X135155722Y-127837268D01*
X135246193Y-127698790D01*
X135299338Y-127653437D01*
X135368569Y-127644013D01*
X135431905Y-127673515D01*
X135453804Y-127698787D01*
X135544278Y-127837268D01*
X135544283Y-127837273D01*
X135544284Y-127837276D01*
X135696756Y-128002902D01*
X135696761Y-128002907D01*
X135710217Y-128013380D01*
X135874424Y-128141189D01*
X135874425Y-128141189D01*
X135874427Y-128141191D01*
X135996378Y-128207187D01*
X136072426Y-128248342D01*
X136285365Y-128321444D01*
X136507431Y-128358500D01*
X136732569Y-128358500D01*
X136954635Y-128321444D01*
X137167574Y-128248342D01*
X137365576Y-128141189D01*
X137428663Y-128092086D01*
X137502461Y-128034647D01*
X137567455Y-128009004D01*
X137578623Y-128008500D01*
X138318722Y-128008500D01*
X138324802Y-128008799D01*
X138338831Y-128010180D01*
X138371320Y-128013380D01*
X138569021Y-127993909D01*
X138759124Y-127936241D01*
X138809432Y-127920980D01*
X138827090Y-127900417D01*
X138836129Y-127895080D01*
X138934324Y-127842595D01*
X139087888Y-127716568D01*
X139117558Y-127680413D01*
X139121608Y-127675944D01*
X146425944Y-120371608D01*
X146430413Y-120367558D01*
X146466568Y-120337888D01*
X146592595Y-120184324D01*
X146664519Y-120049763D01*
X146686239Y-120009128D01*
X146686239Y-120009127D01*
X146686241Y-120009124D01*
X146743908Y-119819021D01*
X146758500Y-119670867D01*
X146763380Y-119621320D01*
X146758799Y-119574805D01*
X146758500Y-119568724D01*
X146758500Y-114052597D01*
X146758799Y-114046517D01*
X146763380Y-114000000D01*
X146743909Y-113802301D01*
X146743909Y-113802300D01*
X146686242Y-113612197D01*
X146642650Y-113530643D01*
X146592595Y-113436996D01*
X146466568Y-113283432D01*
X146430436Y-113253779D01*
X146425935Y-113249700D01*
X145500301Y-112324067D01*
X145496222Y-112319566D01*
X145466567Y-112283430D01*
X145313005Y-112157405D01*
X145312998Y-112157401D01*
X145137654Y-112063678D01*
X145136330Y-112063312D01*
X144947703Y-112006091D01*
X144815900Y-111993110D01*
X144750000Y-111986620D01*
X144749999Y-111986620D01*
X144703482Y-111991201D01*
X144697402Y-111991500D01*
X133219096Y-111991500D01*
X133152057Y-111971815D01*
X133131415Y-111955181D01*
X133131414Y-111955180D01*
X126000301Y-104824067D01*
X125996222Y-104819566D01*
X125966567Y-104783430D01*
X125813005Y-104657405D01*
X125812998Y-104657401D01*
X125637804Y-104563758D01*
X125635316Y-104563004D01*
X125447703Y-104506091D01*
X125315900Y-104493110D01*
X125250000Y-104486620D01*
X125249999Y-104486620D01*
X125203482Y-104491201D01*
X125197402Y-104491500D01*
X108969096Y-104491500D01*
X108902057Y-104471815D01*
X108881415Y-104455181D01*
X108044819Y-103618585D01*
X108011334Y-103557262D01*
X108008500Y-103530904D01*
X108008500Y-101718674D01*
X108028185Y-101651635D01*
X108041267Y-101634694D01*
X108075722Y-101597268D01*
X108166193Y-101458790D01*
X108219338Y-101413437D01*
X108288569Y-101404013D01*
X108351905Y-101433515D01*
X108373804Y-101458787D01*
X108464278Y-101597268D01*
X108464283Y-101597273D01*
X108464284Y-101597276D01*
X108590967Y-101734888D01*
X108616760Y-101762906D01*
X108794424Y-101901189D01*
X108794425Y-101901189D01*
X108794427Y-101901191D01*
X108921135Y-101969761D01*
X108992426Y-102008342D01*
X109205365Y-102081444D01*
X109427431Y-102118500D01*
X109652569Y-102118500D01*
X109874635Y-102081444D01*
X110087574Y-102008342D01*
X110285576Y-101901189D01*
X110463240Y-101762906D01*
X110615722Y-101597268D01*
X110706193Y-101458790D01*
X110759338Y-101413437D01*
X110828569Y-101404013D01*
X110891905Y-101433515D01*
X110913804Y-101458787D01*
X111004278Y-101597268D01*
X111004283Y-101597273D01*
X111004284Y-101597276D01*
X111130967Y-101734888D01*
X111156760Y-101762906D01*
X111334424Y-101901189D01*
X111334425Y-101901189D01*
X111334427Y-101901191D01*
X111461135Y-101969761D01*
X111532426Y-102008342D01*
X111745365Y-102081444D01*
X111967431Y-102118500D01*
X112192569Y-102118500D01*
X112414635Y-102081444D01*
X112627574Y-102008342D01*
X112825576Y-101901189D01*
X113003240Y-101762906D01*
X113155722Y-101597268D01*
X113246193Y-101458790D01*
X113299338Y-101413437D01*
X113368569Y-101404013D01*
X113431905Y-101433515D01*
X113453804Y-101458787D01*
X113544278Y-101597268D01*
X113544283Y-101597273D01*
X113544284Y-101597276D01*
X113670967Y-101734888D01*
X113696760Y-101762906D01*
X113874424Y-101901189D01*
X113874425Y-101901189D01*
X113874427Y-101901191D01*
X114001135Y-101969761D01*
X114072426Y-102008342D01*
X114285365Y-102081444D01*
X114507431Y-102118500D01*
X114732569Y-102118500D01*
X114954635Y-102081444D01*
X115167574Y-102008342D01*
X115365576Y-101901189D01*
X115543240Y-101762906D01*
X115695722Y-101597268D01*
X115786193Y-101458790D01*
X115839338Y-101413437D01*
X115908569Y-101404013D01*
X115971905Y-101433515D01*
X115993804Y-101458787D01*
X116084278Y-101597268D01*
X116084283Y-101597273D01*
X116084284Y-101597276D01*
X116210967Y-101734888D01*
X116236760Y-101762906D01*
X116414424Y-101901189D01*
X116414425Y-101901189D01*
X116414427Y-101901191D01*
X116541135Y-101969761D01*
X116612426Y-102008342D01*
X116825365Y-102081444D01*
X117047431Y-102118500D01*
X117272569Y-102118500D01*
X117494635Y-102081444D01*
X117707574Y-102008342D01*
X117905576Y-101901189D01*
X118083240Y-101762906D01*
X118235722Y-101597268D01*
X118326193Y-101458790D01*
X118379338Y-101413437D01*
X118448569Y-101404013D01*
X118511905Y-101433515D01*
X118533804Y-101458787D01*
X118624278Y-101597268D01*
X118624283Y-101597273D01*
X118624284Y-101597276D01*
X118750967Y-101734888D01*
X118776760Y-101762906D01*
X118954424Y-101901189D01*
X118954425Y-101901189D01*
X118954427Y-101901191D01*
X119081135Y-101969761D01*
X119152426Y-102008342D01*
X119365365Y-102081444D01*
X119587431Y-102118500D01*
X119812569Y-102118500D01*
X120034635Y-102081444D01*
X120247574Y-102008342D01*
X120445576Y-101901189D01*
X120623240Y-101762906D01*
X120775722Y-101597268D01*
X120866193Y-101458790D01*
X120919338Y-101413437D01*
X120988569Y-101404013D01*
X121051905Y-101433515D01*
X121073804Y-101458787D01*
X121164278Y-101597268D01*
X121164283Y-101597273D01*
X121164284Y-101597276D01*
X121290967Y-101734888D01*
X121316760Y-101762906D01*
X121494424Y-101901189D01*
X121494425Y-101901189D01*
X121494427Y-101901191D01*
X121621135Y-101969761D01*
X121692426Y-102008342D01*
X121905365Y-102081444D01*
X122127431Y-102118500D01*
X122352569Y-102118500D01*
X122574635Y-102081444D01*
X122787574Y-102008342D01*
X122985576Y-101901189D01*
X123163240Y-101762906D01*
X123315722Y-101597268D01*
X123406193Y-101458790D01*
X123459338Y-101413437D01*
X123528569Y-101404013D01*
X123591905Y-101433515D01*
X123613804Y-101458787D01*
X123704278Y-101597268D01*
X123704283Y-101597273D01*
X123704284Y-101597276D01*
X123830967Y-101734888D01*
X123856760Y-101762906D01*
X124034424Y-101901189D01*
X124034425Y-101901189D01*
X124034427Y-101901191D01*
X124161135Y-101969761D01*
X124232426Y-102008342D01*
X124445365Y-102081444D01*
X124667431Y-102118500D01*
X124892569Y-102118500D01*
X125114635Y-102081444D01*
X125327574Y-102008342D01*
X125525576Y-101901189D01*
X125703240Y-101762906D01*
X125855722Y-101597268D01*
X125946193Y-101458790D01*
X125999338Y-101413437D01*
X126068569Y-101404013D01*
X126131905Y-101433515D01*
X126153804Y-101458787D01*
X126244278Y-101597268D01*
X126244283Y-101597273D01*
X126244284Y-101597276D01*
X126370967Y-101734888D01*
X126396760Y-101762906D01*
X126574424Y-101901189D01*
X126574425Y-101901189D01*
X126574427Y-101901191D01*
X126701135Y-101969761D01*
X126772426Y-102008342D01*
X126985365Y-102081444D01*
X127207431Y-102118500D01*
X127432569Y-102118500D01*
X127654635Y-102081444D01*
X127867574Y-102008342D01*
X128065576Y-101901189D01*
X128243240Y-101762906D01*
X128395722Y-101597268D01*
X128486193Y-101458790D01*
X128539338Y-101413437D01*
X128608569Y-101404013D01*
X128671905Y-101433515D01*
X128693804Y-101458787D01*
X128784278Y-101597268D01*
X128784283Y-101597273D01*
X128784284Y-101597276D01*
X128910967Y-101734888D01*
X128936760Y-101762906D01*
X129114424Y-101901189D01*
X129114425Y-101901189D01*
X129114427Y-101901191D01*
X129241135Y-101969761D01*
X129312426Y-102008342D01*
X129525365Y-102081444D01*
X129747431Y-102118500D01*
X129972569Y-102118500D01*
X130194635Y-102081444D01*
X130407574Y-102008342D01*
X130605576Y-101901189D01*
X130783240Y-101762906D01*
X130935722Y-101597268D01*
X131026193Y-101458790D01*
X131079338Y-101413437D01*
X131148569Y-101404013D01*
X131211905Y-101433515D01*
X131233804Y-101458787D01*
X131324278Y-101597268D01*
X131324283Y-101597273D01*
X131324284Y-101597276D01*
X131450967Y-101734888D01*
X131476760Y-101762906D01*
X131654424Y-101901189D01*
X131654425Y-101901189D01*
X131654427Y-101901191D01*
X131781135Y-101969761D01*
X131852426Y-102008342D01*
X132065365Y-102081444D01*
X132287431Y-102118500D01*
X132512569Y-102118500D01*
X132734635Y-102081444D01*
X132947574Y-102008342D01*
X133145576Y-101901189D01*
X133323240Y-101762906D01*
X133475722Y-101597268D01*
X133566193Y-101458790D01*
X133619338Y-101413437D01*
X133688569Y-101404013D01*
X133751905Y-101433515D01*
X133773804Y-101458787D01*
X133864278Y-101597268D01*
X133864283Y-101597273D01*
X133864284Y-101597276D01*
X133990967Y-101734888D01*
X134016760Y-101762906D01*
X134194424Y-101901189D01*
X134194425Y-101901189D01*
X134194427Y-101901191D01*
X134321135Y-101969761D01*
X134392426Y-102008342D01*
X134605365Y-102081444D01*
X134827431Y-102118500D01*
X135052569Y-102118500D01*
X135274635Y-102081444D01*
X135487574Y-102008342D01*
X135685576Y-101901189D01*
X135863240Y-101762906D01*
X136015722Y-101597268D01*
X136106193Y-101458790D01*
X136159338Y-101413437D01*
X136228569Y-101404013D01*
X136291905Y-101433515D01*
X136313804Y-101458787D01*
X136404278Y-101597268D01*
X136404283Y-101597273D01*
X136404284Y-101597276D01*
X136530967Y-101734888D01*
X136556760Y-101762906D01*
X136734424Y-101901189D01*
X136734425Y-101901189D01*
X136734427Y-101901191D01*
X136861135Y-101969761D01*
X136932426Y-102008342D01*
X137145365Y-102081444D01*
X137367431Y-102118500D01*
X137592569Y-102118500D01*
X137814635Y-102081444D01*
X138027574Y-102008342D01*
X138225576Y-101901189D01*
X138403240Y-101762906D01*
X138555722Y-101597268D01*
X138646193Y-101458790D01*
X138699338Y-101413437D01*
X138768569Y-101404013D01*
X138831905Y-101433515D01*
X138853804Y-101458787D01*
X138944278Y-101597268D01*
X138944283Y-101597273D01*
X138944284Y-101597276D01*
X139070967Y-101734888D01*
X139096760Y-101762906D01*
X139274424Y-101901189D01*
X139274425Y-101901189D01*
X139274427Y-101901191D01*
X139401135Y-101969761D01*
X139472426Y-102008342D01*
X139685365Y-102081444D01*
X139907431Y-102118500D01*
X140132569Y-102118500D01*
X140354635Y-102081444D01*
X140567574Y-102008342D01*
X140765576Y-101901189D01*
X140943240Y-101762906D01*
X141006452Y-101694239D01*
X141066337Y-101658250D01*
X141136175Y-101660349D01*
X141193791Y-101699873D01*
X141213861Y-101734888D01*
X141259110Y-101856203D01*
X141259111Y-101856204D01*
X141346739Y-101973261D01*
X141463796Y-102060889D01*
X141600799Y-102111989D01*
X141628050Y-102114918D01*
X141661345Y-102118499D01*
X141661362Y-102118500D01*
X143458638Y-102118500D01*
X143458654Y-102118499D01*
X143485692Y-102115591D01*
X143519201Y-102111989D01*
X143656204Y-102060889D01*
X143773261Y-101973261D01*
X143860889Y-101856204D01*
X143911989Y-101719201D01*
X143915591Y-101685692D01*
X143918499Y-101658654D01*
X143918500Y-101658637D01*
X143918500Y-99861362D01*
X143918499Y-99861345D01*
X143912045Y-99801324D01*
X143911989Y-99800799D01*
X143860889Y-99663796D01*
X143773261Y-99546739D01*
X143656204Y-99459111D01*
X143601430Y-99438681D01*
X143582813Y-99431737D01*
X143526880Y-99389866D01*
X143502464Y-99324401D01*
X143517316Y-99256128D01*
X143566722Y-99206723D01*
X143613995Y-99192153D01*
X143617382Y-99191819D01*
X143697701Y-99183909D01*
X143887804Y-99126241D01*
X143887804Y-99126240D01*
X143902208Y-99121871D01*
X143912359Y-99113114D01*
X144063004Y-99032595D01*
X144216568Y-98906568D01*
X144246238Y-98870413D01*
X144250288Y-98865944D01*
X145381414Y-97734819D01*
X145442738Y-97701334D01*
X145469096Y-97698500D01*
X145516711Y-97698500D01*
X145516712Y-97698500D01*
X145746951Y-97660080D01*
X145967727Y-97584287D01*
X146173017Y-97473190D01*
X146357220Y-97329818D01*
X146515314Y-97158083D01*
X146642984Y-96962669D01*
X146736749Y-96748907D01*
X146794051Y-96522626D01*
X146807651Y-96358499D01*
X146813327Y-96290005D01*
X146813327Y-96289994D01*
X146797269Y-96096206D01*
X146794051Y-96057374D01*
X146736749Y-95831093D01*
X146642984Y-95617331D01*
X146642983Y-95617330D01*
X146515313Y-95421915D01*
X146428143Y-95327224D01*
X146397220Y-95264570D01*
X146405080Y-95195144D01*
X146449227Y-95140988D01*
X146476032Y-95127061D01*
X146546204Y-95100889D01*
X146663261Y-95013261D01*
X146750889Y-94896204D01*
X146801989Y-94759201D01*
X146805591Y-94725692D01*
X146808499Y-94698654D01*
X146808500Y-94698637D01*
X146808500Y-92801362D01*
X146808499Y-92801345D01*
X146805157Y-92770270D01*
X146801989Y-92740799D01*
X146750889Y-92603796D01*
X146663261Y-92486739D01*
X146546204Y-92399111D01*
X146546203Y-92399110D01*
X146409203Y-92348011D01*
X146348654Y-92341500D01*
X146348638Y-92341500D01*
X144451362Y-92341500D01*
X144451345Y-92341500D01*
X144390797Y-92348011D01*
X144390795Y-92348011D01*
X144253795Y-92399111D01*
X144136739Y-92486739D01*
X144049111Y-92603795D01*
X143998011Y-92740795D01*
X143998011Y-92740797D01*
X143991500Y-92801345D01*
X143991500Y-94698654D01*
X143998011Y-94759202D01*
X143998011Y-94759204D01*
X144004142Y-94775640D01*
X144049111Y-94896204D01*
X144136739Y-95013261D01*
X144253796Y-95100889D01*
X144253795Y-95100889D01*
X144323961Y-95127060D01*
X144379895Y-95168931D01*
X144404311Y-95234396D01*
X144389459Y-95302669D01*
X144371857Y-95327224D01*
X144284683Y-95421919D01*
X144157015Y-95617331D01*
X144063251Y-95831092D01*
X144005948Y-96057377D01*
X143991592Y-96230626D01*
X143966439Y-96295811D01*
X143955697Y-96308067D01*
X143118585Y-97145181D01*
X143057262Y-97178666D01*
X143030904Y-97181500D01*
X139329147Y-97181500D01*
X139262108Y-97161815D01*
X139216353Y-97109011D01*
X139206409Y-97039853D01*
X139225338Y-96989679D01*
X139240860Y-96965920D01*
X139242984Y-96962669D01*
X139336749Y-96748907D01*
X139394051Y-96522626D01*
X139407651Y-96358499D01*
X139413327Y-96290005D01*
X139413327Y-96289994D01*
X139397269Y-96096206D01*
X139394051Y-96057374D01*
X139336749Y-95831093D01*
X139242984Y-95617331D01*
X139242984Y-95617330D01*
X139115313Y-95421915D01*
X139028143Y-95327224D01*
X138997220Y-95264570D01*
X139005080Y-95195144D01*
X139049227Y-95140988D01*
X139076032Y-95127061D01*
X139146204Y-95100889D01*
X139263261Y-95013261D01*
X139350889Y-94896204D01*
X139401989Y-94759201D01*
X139405591Y-94725692D01*
X139408499Y-94698654D01*
X139408500Y-94698637D01*
X139408500Y-92801362D01*
X139408499Y-92801345D01*
X139405157Y-92770270D01*
X139401989Y-92740799D01*
X139350889Y-92603796D01*
X139263261Y-92486739D01*
X139146204Y-92399111D01*
X139146203Y-92399110D01*
X139009203Y-92348011D01*
X138948654Y-92341500D01*
X138948638Y-92341500D01*
X137051362Y-92341500D01*
X137051345Y-92341500D01*
X136990797Y-92348011D01*
X136990795Y-92348011D01*
X136853795Y-92399111D01*
X136736739Y-92486739D01*
X136649111Y-92603795D01*
X136598011Y-92740795D01*
X136598011Y-92740797D01*
X136591500Y-92801345D01*
X136591500Y-94698654D01*
X136598011Y-94759202D01*
X136598011Y-94759204D01*
X136604142Y-94775640D01*
X136649111Y-94896204D01*
X136736739Y-95013261D01*
X136796815Y-95058234D01*
X136838686Y-95114167D01*
X136843670Y-95183859D01*
X136810185Y-95245182D01*
X136748862Y-95278666D01*
X136722504Y-95281500D01*
X136339096Y-95281500D01*
X136272057Y-95261815D01*
X136251415Y-95245181D01*
X133914602Y-92908368D01*
X133881117Y-92847045D01*
X133878755Y-92831493D01*
X133876117Y-92801345D01*
X133873543Y-92771913D01*
X133814284Y-92550757D01*
X133717523Y-92343251D01*
X133586198Y-92155700D01*
X133424300Y-91993802D01*
X133236749Y-91862477D01*
X133236745Y-91862475D01*
X133029249Y-91765718D01*
X133029238Y-91765714D01*
X132808089Y-91706457D01*
X132808081Y-91706456D01*
X132580002Y-91686502D01*
X132579998Y-91686502D01*
X132351918Y-91706456D01*
X132351910Y-91706457D01*
X132130761Y-91765714D01*
X132130750Y-91765718D01*
X131923254Y-91862475D01*
X131923252Y-91862476D01*
X131923249Y-91862477D01*
X131923251Y-91862477D01*
X131735700Y-91993802D01*
X131735698Y-91993803D01*
X131735695Y-91993806D01*
X131573806Y-92155695D01*
X131573803Y-92155698D01*
X131573802Y-92155700D01*
X131491767Y-92272856D01*
X131442476Y-92343252D01*
X131442475Y-92343254D01*
X131345718Y-92550750D01*
X131345714Y-92550761D01*
X131286457Y-92771910D01*
X131286456Y-92771918D01*
X131266502Y-92999998D01*
X131266502Y-93000001D01*
X131286456Y-93228081D01*
X131286457Y-93228089D01*
X131345714Y-93449238D01*
X131345718Y-93449249D01*
X131435366Y-93641500D01*
X131442477Y-93656749D01*
X131573802Y-93844300D01*
X131735700Y-94006198D01*
X131923251Y-94137523D01*
X131977317Y-94162734D01*
X132130750Y-94234281D01*
X132130752Y-94234281D01*
X132130757Y-94234284D01*
X132351913Y-94293543D01*
X132411494Y-94298755D01*
X132476562Y-94324207D01*
X132488367Y-94334602D01*
X135119696Y-96965930D01*
X135123775Y-96970431D01*
X135130672Y-96978835D01*
X135157985Y-97043144D01*
X135146194Y-97112012D01*
X135099042Y-97163572D01*
X135034819Y-97181500D01*
X134239096Y-97181500D01*
X134172057Y-97161815D01*
X134151415Y-97145181D01*
X133914602Y-96908368D01*
X133881117Y-96847045D01*
X133878755Y-96831493D01*
X133874630Y-96784346D01*
X133873543Y-96771913D01*
X133814284Y-96550757D01*
X133801166Y-96522626D01*
X133729336Y-96368584D01*
X133717523Y-96343251D01*
X133586198Y-96155700D01*
X133424300Y-95993802D01*
X133236749Y-95862477D01*
X133236745Y-95862475D01*
X133029249Y-95765718D01*
X133029238Y-95765714D01*
X132808089Y-95706457D01*
X132808081Y-95706456D01*
X132580002Y-95686502D01*
X132579998Y-95686502D01*
X132351918Y-95706456D01*
X132351910Y-95706457D01*
X132130761Y-95765714D01*
X132130750Y-95765718D01*
X131923254Y-95862475D01*
X131923252Y-95862476D01*
X131881609Y-95891635D01*
X131735700Y-95993802D01*
X131735698Y-95993803D01*
X131735695Y-95993806D01*
X131573806Y-96155695D01*
X131573803Y-96155698D01*
X131573802Y-96155700D01*
X131491767Y-96272856D01*
X131442476Y-96343252D01*
X131442475Y-96343254D01*
X131345718Y-96550750D01*
X131345714Y-96550761D01*
X131286457Y-96771910D01*
X131286456Y-96771918D01*
X131266502Y-96999998D01*
X131266502Y-97000001D01*
X131286456Y-97228081D01*
X131286457Y-97228089D01*
X131345714Y-97449238D01*
X131345718Y-97449249D01*
X131442475Y-97656745D01*
X131442477Y-97656749D01*
X131573802Y-97844300D01*
X131735700Y-98006198D01*
X131923251Y-98137523D01*
X132048091Y-98195736D01*
X132130750Y-98234281D01*
X132130752Y-98234281D01*
X132130757Y-98234284D01*
X132351913Y-98293543D01*
X132411494Y-98298755D01*
X132476562Y-98324207D01*
X132488368Y-98334602D01*
X133019696Y-98865930D01*
X133023776Y-98870432D01*
X133053432Y-98906568D01*
X133206994Y-99032594D01*
X133206997Y-99032596D01*
X133357639Y-99113115D01*
X133367787Y-99121869D01*
X133382195Y-99126239D01*
X133382196Y-99126240D01*
X133382196Y-99126241D01*
X133572299Y-99183908D01*
X133770000Y-99203380D01*
X133803922Y-99200038D01*
X133816515Y-99198799D01*
X133822596Y-99198500D01*
X134561532Y-99198500D01*
X134628571Y-99218185D01*
X134674326Y-99270989D01*
X134684270Y-99340147D01*
X134655245Y-99403703D01*
X134601795Y-99439781D01*
X134392430Y-99511656D01*
X134392419Y-99511661D01*
X134194427Y-99618808D01*
X134194422Y-99618812D01*
X134016761Y-99757092D01*
X134016756Y-99757097D01*
X133864284Y-99922723D01*
X133864276Y-99922734D01*
X133773808Y-100061206D01*
X133720662Y-100106562D01*
X133651431Y-100115986D01*
X133588095Y-100086484D01*
X133566192Y-100061206D01*
X133508286Y-99972576D01*
X133475722Y-99922732D01*
X133475719Y-99922729D01*
X133475715Y-99922723D01*
X133323243Y-99757097D01*
X133323238Y-99757092D01*
X133145577Y-99618812D01*
X133145572Y-99618808D01*
X132947580Y-99511661D01*
X132947577Y-99511659D01*
X132947574Y-99511658D01*
X132947571Y-99511657D01*
X132947569Y-99511656D01*
X132734637Y-99438556D01*
X132512569Y-99401500D01*
X132287431Y-99401500D01*
X132065362Y-99438556D01*
X131852430Y-99511656D01*
X131852419Y-99511661D01*
X131654427Y-99618808D01*
X131654422Y-99618812D01*
X131476761Y-99757092D01*
X131476756Y-99757097D01*
X131324284Y-99922723D01*
X131324276Y-99922734D01*
X131233808Y-100061206D01*
X131180662Y-100106562D01*
X131111431Y-100115986D01*
X131048095Y-100086484D01*
X131026192Y-100061206D01*
X130968286Y-99972576D01*
X130935722Y-99922732D01*
X130901269Y-99885307D01*
X130870347Y-99822653D01*
X130868499Y-99801324D01*
X130868499Y-99757092D01*
X130868499Y-99610494D01*
X130868797Y-99604450D01*
X130873380Y-99557919D01*
X130853909Y-99360218D01*
X130796684Y-99171578D01*
X130796320Y-99170262D01*
X130702598Y-98994920D01*
X130702594Y-98994913D01*
X130576568Y-98841351D01*
X130540432Y-98811695D01*
X130535930Y-98807615D01*
X128052382Y-96324067D01*
X128048303Y-96319566D01*
X128018648Y-96283430D01*
X127865086Y-96157405D01*
X127865079Y-96157401D01*
X127689735Y-96063678D01*
X127688411Y-96063312D01*
X127499784Y-96006091D01*
X127367981Y-95993110D01*
X127302081Y-95986620D01*
X127302080Y-95986620D01*
X127255563Y-95991201D01*
X127249483Y-95991500D01*
X123300110Y-95991500D01*
X123233071Y-95971815D01*
X123228986Y-95969075D01*
X123145031Y-95910289D01*
X123076749Y-95862477D01*
X123076745Y-95862475D01*
X122869249Y-95765718D01*
X122869238Y-95765714D01*
X122648089Y-95706457D01*
X122648081Y-95706456D01*
X122420002Y-95686502D01*
X122419998Y-95686502D01*
X122191918Y-95706456D01*
X122191910Y-95706457D01*
X121970761Y-95765714D01*
X121970750Y-95765718D01*
X121763254Y-95862475D01*
X121763252Y-95862476D01*
X121721609Y-95891635D01*
X121575700Y-95993802D01*
X121575698Y-95993803D01*
X121575695Y-95993806D01*
X121413806Y-96155695D01*
X121413803Y-96155698D01*
X121413802Y-96155700D01*
X121373498Y-96213260D01*
X121282476Y-96343251D01*
X121244881Y-96423876D01*
X121198709Y-96476315D01*
X121131515Y-96495467D01*
X121064634Y-96475251D01*
X121019299Y-96422086D01*
X121008499Y-96371471D01*
X121008499Y-95617331D01*
X121008499Y-94469092D01*
X121028184Y-94402057D01*
X121044809Y-94381424D01*
X121381418Y-94044816D01*
X121442739Y-94011334D01*
X121469097Y-94008500D01*
X121539890Y-94008500D01*
X121606929Y-94028185D01*
X121611015Y-94030925D01*
X121763251Y-94137523D01*
X121817317Y-94162734D01*
X121970750Y-94234281D01*
X121970752Y-94234281D01*
X121970757Y-94234284D01*
X122191913Y-94293543D01*
X122354832Y-94307796D01*
X122419998Y-94313498D01*
X122420000Y-94313498D01*
X122420002Y-94313498D01*
X122477021Y-94308509D01*
X122648087Y-94293543D01*
X122869243Y-94234284D01*
X123076749Y-94137523D01*
X123264300Y-94006198D01*
X123426198Y-93844300D01*
X123557523Y-93656749D01*
X123654284Y-93449243D01*
X123713543Y-93228087D01*
X123733498Y-93000000D01*
X123713543Y-92771913D01*
X123654284Y-92550757D01*
X123557523Y-92343251D01*
X123426198Y-92155700D01*
X123264300Y-91993802D01*
X123076749Y-91862477D01*
X123076745Y-91862475D01*
X122869249Y-91765718D01*
X122869238Y-91765714D01*
X122648089Y-91706457D01*
X122648081Y-91706456D01*
X122420002Y-91686502D01*
X122419998Y-91686502D01*
X122191918Y-91706456D01*
X122191910Y-91706457D01*
X121970761Y-91765714D01*
X121970750Y-91765718D01*
X121763254Y-91862475D01*
X121763252Y-91862476D01*
X121611014Y-91969075D01*
X121544807Y-91991402D01*
X121539890Y-91991500D01*
X121052598Y-91991500D01*
X121046518Y-91991201D01*
X121000000Y-91986620D01*
X120802301Y-92006090D01*
X120612193Y-92063759D01*
X120576881Y-92082634D01*
X120560296Y-92091500D01*
X120527344Y-92109112D01*
X120436997Y-92157403D01*
X120436994Y-92157405D01*
X120283431Y-92283432D01*
X120253779Y-92319562D01*
X120249691Y-92324072D01*
X119324077Y-93249687D01*
X119319567Y-93253775D01*
X119283432Y-93283431D01*
X119157406Y-93436994D01*
X119119180Y-93508511D01*
X119063758Y-93612196D01*
X119006091Y-93802296D01*
X118986620Y-94000000D01*
X118991201Y-94046517D01*
X118991500Y-94052597D01*
X118991500Y-96280903D01*
X118971815Y-96347942D01*
X118955181Y-96368584D01*
X118368585Y-96955181D01*
X118307262Y-96988666D01*
X118280904Y-96991500D01*
X113690515Y-96991500D01*
X113684434Y-96991201D01*
X113637919Y-96986620D01*
X113588372Y-96991500D01*
X113440219Y-97006091D01*
X113271853Y-97057164D01*
X113250119Y-97063758D01*
X113250112Y-97063760D01*
X113190951Y-97095382D01*
X113122548Y-97109623D01*
X113057305Y-97084622D01*
X113015935Y-97028317D01*
X113008499Y-96986023D01*
X113008499Y-96550750D01*
X113008499Y-95958670D01*
X113028184Y-95891635D01*
X113041262Y-95874699D01*
X113075722Y-95837268D01*
X113166193Y-95698790D01*
X113219338Y-95653437D01*
X113288569Y-95644013D01*
X113351905Y-95673515D01*
X113373804Y-95698787D01*
X113464278Y-95837268D01*
X113464283Y-95837273D01*
X113464284Y-95837276D01*
X113616756Y-96002902D01*
X113616760Y-96002906D01*
X113794424Y-96141189D01*
X113794425Y-96141189D01*
X113794427Y-96141191D01*
X113921135Y-96209761D01*
X113992426Y-96248342D01*
X114205365Y-96321444D01*
X114427431Y-96358500D01*
X114652569Y-96358500D01*
X114874635Y-96321444D01*
X115087574Y-96248342D01*
X115285576Y-96141189D01*
X115463240Y-96002906D01*
X115615722Y-95837268D01*
X115706193Y-95698790D01*
X115759338Y-95653437D01*
X115828569Y-95644013D01*
X115891905Y-95673515D01*
X115913804Y-95698787D01*
X116004278Y-95837268D01*
X116004283Y-95837273D01*
X116004284Y-95837276D01*
X116156756Y-96002902D01*
X116156760Y-96002906D01*
X116334424Y-96141189D01*
X116334425Y-96141189D01*
X116334427Y-96141191D01*
X116461135Y-96209761D01*
X116532426Y-96248342D01*
X116745365Y-96321444D01*
X116967431Y-96358500D01*
X117192569Y-96358500D01*
X117414635Y-96321444D01*
X117627574Y-96248342D01*
X117825576Y-96141189D01*
X118003240Y-96002906D01*
X118155722Y-95837268D01*
X118278860Y-95648791D01*
X118369296Y-95442616D01*
X118424564Y-95224368D01*
X118430562Y-95151989D01*
X118443156Y-95000005D01*
X118443156Y-94999994D01*
X118424565Y-94775640D01*
X118424563Y-94775628D01*
X118369296Y-94557385D01*
X118330569Y-94469096D01*
X118278860Y-94351209D01*
X118262706Y-94326484D01*
X118155723Y-94162734D01*
X118155715Y-94162723D01*
X118003243Y-93997097D01*
X118003238Y-93997092D01*
X117825577Y-93858812D01*
X117825572Y-93858808D01*
X117627580Y-93751661D01*
X117627577Y-93751659D01*
X117627574Y-93751658D01*
X117627571Y-93751657D01*
X117627569Y-93751656D01*
X117414637Y-93678556D01*
X117192569Y-93641500D01*
X116967431Y-93641500D01*
X116745362Y-93678556D01*
X116532430Y-93751656D01*
X116532419Y-93751661D01*
X116334427Y-93858808D01*
X116334422Y-93858812D01*
X116156761Y-93997092D01*
X116156756Y-93997097D01*
X116004284Y-94162723D01*
X116004276Y-94162734D01*
X115913808Y-94301206D01*
X115860662Y-94346562D01*
X115791431Y-94355986D01*
X115728095Y-94326484D01*
X115706192Y-94301206D01*
X115615723Y-94162734D01*
X115615715Y-94162723D01*
X115463243Y-93997097D01*
X115463238Y-93997092D01*
X115285577Y-93858812D01*
X115285572Y-93858808D01*
X115087580Y-93751661D01*
X115087577Y-93751659D01*
X115087574Y-93751658D01*
X115087571Y-93751657D01*
X115087569Y-93751656D01*
X114874637Y-93678556D01*
X114652569Y-93641500D01*
X114427431Y-93641500D01*
X114205362Y-93678556D01*
X113992430Y-93751656D01*
X113992419Y-93751661D01*
X113794427Y-93858808D01*
X113794422Y-93858812D01*
X113616761Y-93997092D01*
X113616756Y-93997097D01*
X113464284Y-94162723D01*
X113464276Y-94162734D01*
X113373808Y-94301206D01*
X113320662Y-94346562D01*
X113251431Y-94355986D01*
X113188095Y-94326484D01*
X113166192Y-94301206D01*
X113075723Y-94162734D01*
X113075715Y-94162723D01*
X112923243Y-93997097D01*
X112923238Y-93997092D01*
X112745577Y-93858812D01*
X112745572Y-93858808D01*
X112547580Y-93751661D01*
X112547577Y-93751659D01*
X112547574Y-93751658D01*
X112547571Y-93751657D01*
X112547569Y-93751656D01*
X112334637Y-93678556D01*
X112112569Y-93641500D01*
X111887431Y-93641500D01*
X111665362Y-93678556D01*
X111452430Y-93751656D01*
X111452419Y-93751661D01*
X111254427Y-93858808D01*
X111254422Y-93858812D01*
X111076761Y-93997092D01*
X111076756Y-93997097D01*
X110924284Y-94162723D01*
X110924276Y-94162734D01*
X110833808Y-94301206D01*
X110780662Y-94346562D01*
X110711431Y-94355986D01*
X110648095Y-94326484D01*
X110626192Y-94301206D01*
X110535723Y-94162734D01*
X110535715Y-94162723D01*
X110383243Y-93997097D01*
X110383238Y-93997092D01*
X110205577Y-93858812D01*
X110205572Y-93858808D01*
X110007580Y-93751661D01*
X110007577Y-93751659D01*
X110007574Y-93751658D01*
X110007571Y-93751657D01*
X110007569Y-93751656D01*
X109794637Y-93678556D01*
X109572569Y-93641500D01*
X109347431Y-93641500D01*
X109125362Y-93678556D01*
X108912430Y-93751656D01*
X108912419Y-93751661D01*
X108714427Y-93858808D01*
X108714422Y-93858812D01*
X108536761Y-93997092D01*
X108473548Y-94065760D01*
X108413661Y-94101750D01*
X108343823Y-94099649D01*
X108286207Y-94060124D01*
X108266138Y-94025110D01*
X108220889Y-93903796D01*
X108187214Y-93858812D01*
X108133261Y-93786739D01*
X108016204Y-93699111D01*
X108016204Y-93699110D01*
X107879203Y-93648011D01*
X107818654Y-93641500D01*
X107818638Y-93641500D01*
X106021362Y-93641500D01*
X106021345Y-93641500D01*
X105960797Y-93648011D01*
X105960795Y-93648011D01*
X105823795Y-93699111D01*
X105706739Y-93786739D01*
X105619111Y-93903795D01*
X105568011Y-94040795D01*
X105568011Y-94040797D01*
X105561500Y-94101345D01*
X105561500Y-95898654D01*
X105568011Y-95959202D01*
X105568011Y-95959204D01*
X105619110Y-96096204D01*
X105619111Y-96096204D01*
X105706739Y-96213261D01*
X105823796Y-96300889D01*
X105960799Y-96351989D01*
X105988050Y-96354918D01*
X106021345Y-96358499D01*
X106021362Y-96358500D01*
X107818638Y-96358500D01*
X107818654Y-96358499D01*
X107845692Y-96355591D01*
X107879201Y-96351989D01*
X108016204Y-96300889D01*
X108133261Y-96213261D01*
X108220889Y-96096204D01*
X108266138Y-95974887D01*
X108308009Y-95918956D01*
X108373474Y-95894539D01*
X108441746Y-95909391D01*
X108473545Y-95934236D01*
X108536760Y-96002906D01*
X108714424Y-96141189D01*
X108714425Y-96141189D01*
X108714427Y-96141191D01*
X108841135Y-96209761D01*
X108912426Y-96248342D01*
X109125365Y-96321444D01*
X109347431Y-96358500D01*
X109572569Y-96358500D01*
X109794635Y-96321444D01*
X110007574Y-96248342D01*
X110205576Y-96141189D01*
X110383240Y-96002906D01*
X110535722Y-95837268D01*
X110626193Y-95698790D01*
X110679338Y-95653437D01*
X110748569Y-95644013D01*
X110811905Y-95673515D01*
X110833804Y-95698787D01*
X110924278Y-95837268D01*
X110924283Y-95837273D01*
X110924284Y-95837276D01*
X110958728Y-95874691D01*
X110989651Y-95937345D01*
X110991499Y-95958674D01*
X110991500Y-96732984D01*
X110971816Y-96800023D01*
X110955185Y-96820660D01*
X110820664Y-96955182D01*
X110759344Y-96988666D01*
X110732985Y-96991500D01*
X105052598Y-96991500D01*
X105046518Y-96991201D01*
X105000000Y-96986620D01*
X104802301Y-97006090D01*
X104612194Y-97063759D01*
X104580390Y-97080759D01*
X104437001Y-97157401D01*
X104436994Y-97157405D01*
X104373812Y-97209259D01*
X104325997Y-97248500D01*
X104283431Y-97283432D01*
X104253779Y-97319562D01*
X104249691Y-97324072D01*
X103324077Y-98249687D01*
X103319567Y-98253775D01*
X103283432Y-98283431D01*
X103157406Y-98436994D01*
X103157404Y-98436996D01*
X103157405Y-98436996D01*
X103099922Y-98544539D01*
X103066094Y-98607826D01*
X103063760Y-98612194D01*
X103063757Y-98612200D01*
X103006091Y-98802296D01*
X102986620Y-99000000D01*
X102991201Y-99046517D01*
X102991500Y-99052597D01*
X102991500Y-103947401D01*
X102991201Y-103953481D01*
X102986620Y-103999999D01*
X101075500Y-103999999D01*
X101075500Y-88780005D01*
X107636844Y-88780005D01*
X107655434Y-89004359D01*
X107655436Y-89004371D01*
X107710703Y-89222614D01*
X107801140Y-89428792D01*
X107924276Y-89617265D01*
X107924284Y-89617276D01*
X108076756Y-89782902D01*
X108076760Y-89782906D01*
X108254424Y-89921189D01*
X108254425Y-89921189D01*
X108254427Y-89921191D01*
X108381135Y-89989761D01*
X108452426Y-90028342D01*
X108665365Y-90101444D01*
X108887431Y-90138500D01*
X109112569Y-90138500D01*
X109334635Y-90101444D01*
X109547574Y-90028342D01*
X109745576Y-89921189D01*
X109923240Y-89782906D01*
X110022614Y-89674957D01*
X110075715Y-89617276D01*
X110075716Y-89617274D01*
X110075722Y-89617268D01*
X110198860Y-89428791D01*
X110289296Y-89222616D01*
X110344564Y-89004368D01*
X110363156Y-88780005D01*
X130496844Y-88780005D01*
X130515434Y-89004359D01*
X130515436Y-89004371D01*
X130570703Y-89222614D01*
X130661140Y-89428792D01*
X130784276Y-89617265D01*
X130784284Y-89617276D01*
X130936756Y-89782902D01*
X130936760Y-89782906D01*
X131114424Y-89921189D01*
X131114425Y-89921189D01*
X131114427Y-89921191D01*
X131241135Y-89989761D01*
X131312426Y-90028342D01*
X131525365Y-90101444D01*
X131747431Y-90138500D01*
X131972569Y-90138500D01*
X132194635Y-90101444D01*
X132407574Y-90028342D01*
X132605576Y-89921189D01*
X132783240Y-89782906D01*
X132882614Y-89674957D01*
X132935715Y-89617276D01*
X132935716Y-89617274D01*
X132935722Y-89617268D01*
X133058860Y-89428791D01*
X133137875Y-89248654D01*
X141691500Y-89248654D01*
X141698011Y-89309202D01*
X141698011Y-89309204D01*
X141749110Y-89446204D01*
X141749111Y-89446204D01*
X141836739Y-89563261D01*
X141953796Y-89650889D01*
X142090799Y-89701989D01*
X142118050Y-89704918D01*
X142151345Y-89708499D01*
X142151362Y-89708500D01*
X144848638Y-89708500D01*
X144848654Y-89708499D01*
X144875692Y-89705591D01*
X144909201Y-89701989D01*
X145046204Y-89650889D01*
X145163261Y-89563261D01*
X145250889Y-89446204D01*
X145301989Y-89309201D01*
X145305591Y-89275692D01*
X145308499Y-89248654D01*
X145308500Y-89248637D01*
X145308500Y-86551362D01*
X145308499Y-86551345D01*
X145305157Y-86520270D01*
X145301989Y-86490799D01*
X145301220Y-86488738D01*
X145268471Y-86400936D01*
X145250889Y-86353796D01*
X145163261Y-86236739D01*
X145046204Y-86149111D01*
X144999382Y-86131647D01*
X144909203Y-86098011D01*
X144848654Y-86091500D01*
X144848638Y-86091500D01*
X142151362Y-86091500D01*
X142151345Y-86091500D01*
X142090797Y-86098011D01*
X142090795Y-86098011D01*
X141953795Y-86149111D01*
X141836739Y-86236739D01*
X141749111Y-86353795D01*
X141698011Y-86490795D01*
X141698011Y-86490797D01*
X141691500Y-86551345D01*
X141691500Y-89248654D01*
X133137875Y-89248654D01*
X133149296Y-89222616D01*
X133204564Y-89004368D01*
X133223156Y-88780000D01*
X133204564Y-88555632D01*
X133149296Y-88337384D01*
X133058860Y-88131209D01*
X132935722Y-87942732D01*
X132935719Y-87942729D01*
X132935715Y-87942723D01*
X132783243Y-87777097D01*
X132783238Y-87777092D01*
X132605577Y-87638812D01*
X132605578Y-87638812D01*
X132605576Y-87638811D01*
X132569070Y-87619055D01*
X132519479Y-87569836D01*
X132504371Y-87501619D01*
X132528541Y-87436064D01*
X132569070Y-87400945D01*
X132569140Y-87400907D01*
X132605576Y-87381189D01*
X132659723Y-87339043D01*
X132742461Y-87274647D01*
X132807455Y-87249004D01*
X132818623Y-87248500D01*
X133009483Y-87248500D01*
X133015563Y-87248799D01*
X133029592Y-87250180D01*
X133062081Y-87253380D01*
X133259782Y-87233909D01*
X133449885Y-87176241D01*
X133449884Y-87176240D01*
X133471731Y-87169614D01*
X133471907Y-87169315D01*
X133498355Y-87150332D01*
X133625085Y-87082595D01*
X133778649Y-86956568D01*
X133808319Y-86920413D01*
X133812369Y-86915944D01*
X137675944Y-83052369D01*
X137680413Y-83048319D01*
X137716568Y-83018649D01*
X137813938Y-82900004D01*
X141686429Y-82900004D01*
X141706683Y-83170289D01*
X141706684Y-83170294D01*
X141766997Y-83434545D01*
X141766999Y-83434554D01*
X141767001Y-83434559D01*
X141866029Y-83686879D01*
X142001557Y-83921621D01*
X142170558Y-84133542D01*
X142369257Y-84317907D01*
X142593215Y-84470599D01*
X142837428Y-84588206D01*
X143096442Y-84668101D01*
X143096443Y-84668101D01*
X143096446Y-84668102D01*
X143364464Y-84708499D01*
X143364469Y-84708499D01*
X143364472Y-84708500D01*
X143364473Y-84708500D01*
X143635527Y-84708500D01*
X143635528Y-84708500D01*
X143635535Y-84708499D01*
X143903553Y-84668102D01*
X143903554Y-84668101D01*
X143903558Y-84668101D01*
X144162572Y-84588206D01*
X144406786Y-84470599D01*
X144630743Y-84317907D01*
X144829442Y-84133542D01*
X144998443Y-83921621D01*
X145133971Y-83686879D01*
X145232999Y-83434559D01*
X145293315Y-83170299D01*
X145302240Y-83051207D01*
X145313571Y-82900004D01*
X145313571Y-82899995D01*
X145293316Y-82629710D01*
X145293315Y-82629705D01*
X145293315Y-82629701D01*
X145232999Y-82365441D01*
X145133971Y-82113121D01*
X144998443Y-81878379D01*
X144829442Y-81666458D01*
X144630743Y-81482093D01*
X144406786Y-81329401D01*
X144406780Y-81329398D01*
X144406779Y-81329397D01*
X144406778Y-81329396D01*
X144162574Y-81211795D01*
X144162576Y-81211795D01*
X143903559Y-81131899D01*
X143903553Y-81131897D01*
X143635535Y-81091500D01*
X143635528Y-81091500D01*
X143364472Y-81091500D01*
X143364464Y-81091500D01*
X143096446Y-81131897D01*
X143096440Y-81131899D01*
X142837427Y-81211794D01*
X142593219Y-81329398D01*
X142369256Y-81482093D01*
X142170560Y-81666456D01*
X142170558Y-81666458D01*
X142001557Y-81878379D01*
X141866029Y-82113120D01*
X141767003Y-82365435D01*
X141766997Y-82365454D01*
X141706684Y-82629705D01*
X141706683Y-82629710D01*
X141686429Y-82899995D01*
X141686429Y-82900004D01*
X137813938Y-82900004D01*
X137842595Y-82865085D01*
X137936241Y-82689885D01*
X137993908Y-82499782D01*
X138008500Y-82351628D01*
X138013380Y-82302081D01*
X138008799Y-82255566D01*
X138008500Y-82249485D01*
X138008500Y-77969095D01*
X138028185Y-77902056D01*
X138044814Y-77881419D01*
X138181416Y-77744817D01*
X138242738Y-77711334D01*
X138269096Y-77708500D01*
X141567500Y-77708500D01*
X141634539Y-77728185D01*
X141680294Y-77780989D01*
X141691500Y-77832500D01*
X141691500Y-78048654D01*
X141698011Y-78109202D01*
X141698011Y-78109204D01*
X141749110Y-78246204D01*
X141749111Y-78246204D01*
X141836739Y-78363261D01*
X141953796Y-78450889D01*
X142090799Y-78501989D01*
X142118050Y-78504918D01*
X142151345Y-78508499D01*
X142151362Y-78508500D01*
X144848638Y-78508500D01*
X144848654Y-78508499D01*
X144875692Y-78505591D01*
X144909201Y-78501989D01*
X145046204Y-78450889D01*
X145163261Y-78363261D01*
X145250889Y-78246204D01*
X145301989Y-78109201D01*
X145305591Y-78075692D01*
X145308499Y-78048654D01*
X145308500Y-78048637D01*
X145308500Y-75351362D01*
X145308499Y-75351345D01*
X145305157Y-75320270D01*
X145301989Y-75290799D01*
X145284061Y-75242734D01*
X145279522Y-75230564D01*
X145250889Y-75153796D01*
X145163261Y-75036739D01*
X145046204Y-74949111D01*
X145018576Y-74938806D01*
X144909203Y-74898011D01*
X144848654Y-74891500D01*
X144848638Y-74891500D01*
X142151362Y-74891500D01*
X142151345Y-74891500D01*
X142090797Y-74898011D01*
X142090795Y-74898011D01*
X141953795Y-74949111D01*
X141836739Y-75036739D01*
X141749111Y-75153795D01*
X141698011Y-75290795D01*
X141698011Y-75290797D01*
X141691500Y-75351345D01*
X141691500Y-75567500D01*
X141671815Y-75634539D01*
X141619011Y-75680294D01*
X141567500Y-75691500D01*
X137852598Y-75691500D01*
X137846518Y-75691201D01*
X137800000Y-75686620D01*
X137602296Y-75706091D01*
X137456442Y-75750337D01*
X137412191Y-75763760D01*
X137237001Y-75857401D01*
X137236994Y-75857405D01*
X137083431Y-75983432D01*
X137053775Y-76019567D01*
X137049687Y-76024077D01*
X136324077Y-76749687D01*
X136319567Y-76753775D01*
X136283432Y-76783431D01*
X136157406Y-76936994D01*
X136157404Y-76936996D01*
X136157405Y-76936996D01*
X136084224Y-77073908D01*
X136063759Y-77112196D01*
X136063757Y-77112200D01*
X136006091Y-77302296D01*
X135986620Y-77500000D01*
X135991201Y-77546517D01*
X135991500Y-77552597D01*
X135991500Y-81832983D01*
X135971815Y-81900022D01*
X135955181Y-81920664D01*
X132779422Y-85096423D01*
X132718099Y-85129908D01*
X132648407Y-85124924D01*
X132615582Y-85106598D01*
X132605580Y-85098814D01*
X132605577Y-85098812D01*
X132605576Y-85098811D01*
X132569070Y-85079055D01*
X132519479Y-85029836D01*
X132504371Y-84961619D01*
X132528541Y-84896064D01*
X132569070Y-84860945D01*
X132569084Y-84860936D01*
X132605576Y-84841189D01*
X132783240Y-84702906D01*
X132935722Y-84537268D01*
X133058860Y-84348791D01*
X133149296Y-84142616D01*
X133204564Y-83924368D01*
X133223156Y-83700000D01*
X133204564Y-83475632D01*
X133149296Y-83257384D01*
X133058860Y-83051209D01*
X133058224Y-83050236D01*
X132935723Y-82862734D01*
X132935715Y-82862723D01*
X132783243Y-82697097D01*
X132783238Y-82697092D01*
X132605577Y-82558812D01*
X132605578Y-82558812D01*
X132605576Y-82558811D01*
X132569070Y-82539055D01*
X132519479Y-82489836D01*
X132504371Y-82421619D01*
X132528541Y-82356064D01*
X132569070Y-82320945D01*
X132569084Y-82320936D01*
X132605576Y-82301189D01*
X132783240Y-82162906D01*
X132935722Y-81997268D01*
X133058860Y-81808791D01*
X133149296Y-81602616D01*
X133204564Y-81384368D01*
X133218864Y-81211795D01*
X133223156Y-81160005D01*
X133223156Y-81159994D01*
X133204565Y-80935640D01*
X133204563Y-80935628D01*
X133149296Y-80717385D01*
X133058859Y-80511207D01*
X132935723Y-80322734D01*
X132935715Y-80322723D01*
X132783243Y-80157097D01*
X132783238Y-80157092D01*
X132605577Y-80018812D01*
X132605578Y-80018812D01*
X132605576Y-80018811D01*
X132569070Y-79999055D01*
X132519479Y-79949836D01*
X132504371Y-79881619D01*
X132528541Y-79816064D01*
X132569070Y-79780945D01*
X132569084Y-79780936D01*
X132605576Y-79761189D01*
X132783240Y-79622906D01*
X132935722Y-79457268D01*
X133058860Y-79268791D01*
X133149296Y-79062616D01*
X133204564Y-78844368D01*
X133223156Y-78620000D01*
X133213377Y-78501989D01*
X133204565Y-78395640D01*
X133204563Y-78395628D01*
X133196366Y-78363260D01*
X133149296Y-78177384D01*
X133058860Y-77971209D01*
X133023922Y-77917733D01*
X132935723Y-77782734D01*
X132935715Y-77782723D01*
X132783243Y-77617097D01*
X132783238Y-77617092D01*
X132605577Y-77478812D01*
X132605572Y-77478808D01*
X132569068Y-77459053D01*
X132519478Y-77409833D01*
X132504371Y-77341616D01*
X132528542Y-77276061D01*
X132569069Y-77240945D01*
X132605576Y-77221189D01*
X132783240Y-77082906D01*
X132935722Y-76917268D01*
X133058860Y-76728791D01*
X133149296Y-76522616D01*
X133204564Y-76304368D01*
X133223156Y-76080000D01*
X133218343Y-76021921D01*
X133204565Y-75855640D01*
X133204563Y-75855628D01*
X133181299Y-75763760D01*
X133149296Y-75637384D01*
X133058860Y-75431209D01*
X132935722Y-75242732D01*
X132935719Y-75242729D01*
X132935715Y-75242723D01*
X132783243Y-75077097D01*
X132783238Y-75077092D01*
X132605577Y-74938812D01*
X132605578Y-74938812D01*
X132605576Y-74938811D01*
X132569070Y-74919055D01*
X132519479Y-74869836D01*
X132504371Y-74801619D01*
X132528541Y-74736064D01*
X132569070Y-74700945D01*
X132569084Y-74700936D01*
X132605576Y-74681189D01*
X132783240Y-74542906D01*
X132935722Y-74377268D01*
X133058860Y-74188791D01*
X133149296Y-73982616D01*
X133204564Y-73764368D01*
X133223156Y-73540000D01*
X133217198Y-73468102D01*
X133204565Y-73315640D01*
X133204563Y-73315628D01*
X133149296Y-73097385D01*
X133058859Y-72891207D01*
X132935723Y-72702734D01*
X132935715Y-72702723D01*
X132790510Y-72544991D01*
X132759587Y-72482337D01*
X132767447Y-72412911D01*
X132811594Y-72358755D01*
X132838405Y-72344827D01*
X132918584Y-72314920D01*
X132956204Y-72300889D01*
X133073261Y-72213261D01*
X133160889Y-72096204D01*
X133207850Y-71970299D01*
X133211988Y-71959204D01*
X133211988Y-71959203D01*
X133211989Y-71959201D01*
X133215591Y-71925692D01*
X133218499Y-71898654D01*
X133218499Y-71898647D01*
X133218500Y-71898638D01*
X133218500Y-71700004D01*
X141686429Y-71700004D01*
X141706683Y-71970289D01*
X141706684Y-71970294D01*
X141766997Y-72234545D01*
X141766999Y-72234554D01*
X141767001Y-72234559D01*
X141866029Y-72486879D01*
X142001557Y-72721621D01*
X142170558Y-72933542D01*
X142369257Y-73117907D01*
X142593215Y-73270599D01*
X142837428Y-73388206D01*
X143096442Y-73468101D01*
X143096443Y-73468101D01*
X143096446Y-73468102D01*
X143364464Y-73508499D01*
X143364469Y-73508499D01*
X143364472Y-73508500D01*
X143364473Y-73508500D01*
X143635527Y-73508500D01*
X143635528Y-73508500D01*
X143635535Y-73508499D01*
X143903553Y-73468102D01*
X143903554Y-73468101D01*
X143903558Y-73468101D01*
X144162572Y-73388206D01*
X144406786Y-73270599D01*
X144630743Y-73117907D01*
X144829442Y-72933542D01*
X144998443Y-72721621D01*
X145133971Y-72486879D01*
X145232999Y-72234559D01*
X145293315Y-71970299D01*
X145293316Y-71970289D01*
X145313571Y-71700004D01*
X145313571Y-71699995D01*
X145293316Y-71429710D01*
X145293315Y-71429705D01*
X145293315Y-71429701D01*
X145232999Y-71165441D01*
X145133971Y-70913121D01*
X144998443Y-70678379D01*
X144829442Y-70466458D01*
X144630743Y-70282093D01*
X144406786Y-70129401D01*
X144406780Y-70129398D01*
X144406779Y-70129397D01*
X144406778Y-70129396D01*
X144162574Y-70011795D01*
X144162576Y-70011795D01*
X143903559Y-69931899D01*
X143903553Y-69931897D01*
X143635535Y-69891500D01*
X143635528Y-69891500D01*
X143364472Y-69891500D01*
X143364464Y-69891500D01*
X143096446Y-69931897D01*
X143096440Y-69931899D01*
X142837427Y-70011794D01*
X142593219Y-70129398D01*
X142369256Y-70282093D01*
X142170560Y-70466456D01*
X142170558Y-70466458D01*
X142001557Y-70678379D01*
X141866029Y-70913120D01*
X141767003Y-71165435D01*
X141766997Y-71165454D01*
X141706684Y-71429705D01*
X141706683Y-71429710D01*
X141686429Y-71699995D01*
X141686429Y-71700004D01*
X133218500Y-71700004D01*
X133218500Y-70101362D01*
X133218499Y-70101352D01*
X133218499Y-70101345D01*
X133215157Y-70070270D01*
X133211989Y-70040799D01*
X133160889Y-69903796D01*
X133073261Y-69786739D01*
X132956204Y-69699111D01*
X132956203Y-69699111D01*
X132819203Y-69648011D01*
X132758654Y-69641500D01*
X132758638Y-69641500D01*
X130961362Y-69641500D01*
X130961345Y-69641500D01*
X130900797Y-69648011D01*
X130900795Y-69648011D01*
X130763795Y-69699111D01*
X130646739Y-69786739D01*
X130559111Y-69903795D01*
X130508011Y-70040795D01*
X130508011Y-70040797D01*
X130501500Y-70101345D01*
X130501500Y-71898654D01*
X130508011Y-71959202D01*
X130508011Y-71959204D01*
X130559110Y-72096204D01*
X130559111Y-72096204D01*
X130646739Y-72213261D01*
X130763796Y-72300889D01*
X130815737Y-72320262D01*
X130881595Y-72344827D01*
X130937528Y-72386699D01*
X130961944Y-72452163D01*
X130947092Y-72520436D01*
X130929490Y-72544991D01*
X130784279Y-72702730D01*
X130784276Y-72702734D01*
X130661140Y-72891207D01*
X130570703Y-73097385D01*
X130515436Y-73315628D01*
X130515434Y-73315640D01*
X130496844Y-73539994D01*
X130496844Y-73540005D01*
X130515434Y-73764359D01*
X130515436Y-73764371D01*
X130570703Y-73982614D01*
X130661140Y-74188792D01*
X130784276Y-74377265D01*
X130784284Y-74377276D01*
X130936756Y-74542902D01*
X130936760Y-74542906D01*
X131114424Y-74681189D01*
X131114429Y-74681191D01*
X131114431Y-74681193D01*
X131150930Y-74700946D01*
X131200520Y-74750165D01*
X131215628Y-74818382D01*
X131191457Y-74883937D01*
X131150930Y-74919054D01*
X131114431Y-74938806D01*
X131114422Y-74938812D01*
X130936761Y-75077092D01*
X130936756Y-75077097D01*
X130784284Y-75242723D01*
X130784276Y-75242734D01*
X130661140Y-75431207D01*
X130570703Y-75637385D01*
X130515436Y-75855628D01*
X130515434Y-75855640D01*
X130496844Y-76079994D01*
X130496844Y-76080005D01*
X130515434Y-76304359D01*
X130515436Y-76304371D01*
X130570703Y-76522614D01*
X130661140Y-76728792D01*
X130784276Y-76917265D01*
X130784284Y-76917276D01*
X130936756Y-77082902D01*
X130936761Y-77082907D01*
X130995981Y-77129000D01*
X131114424Y-77221189D01*
X131150930Y-77240945D01*
X131200519Y-77290162D01*
X131215629Y-77358378D01*
X131191459Y-77423934D01*
X131150932Y-77459052D01*
X131114432Y-77478805D01*
X131114422Y-77478812D01*
X130936761Y-77617092D01*
X130936756Y-77617097D01*
X130784284Y-77782723D01*
X130784276Y-77782734D01*
X130661140Y-77971207D01*
X130570703Y-78177385D01*
X130515436Y-78395628D01*
X130515434Y-78395640D01*
X130496844Y-78619994D01*
X130496844Y-78620005D01*
X130515434Y-78844359D01*
X130515436Y-78844371D01*
X130570703Y-79062614D01*
X130661140Y-79268792D01*
X130784276Y-79457265D01*
X130784284Y-79457276D01*
X130936756Y-79622902D01*
X130936760Y-79622906D01*
X131114424Y-79761189D01*
X131114429Y-79761191D01*
X131114431Y-79761193D01*
X131150930Y-79780946D01*
X131200520Y-79830165D01*
X131215628Y-79898382D01*
X131191457Y-79963937D01*
X131150930Y-79999054D01*
X131114431Y-80018806D01*
X131114422Y-80018812D01*
X130936761Y-80157092D01*
X130936756Y-80157097D01*
X130784284Y-80322723D01*
X130784276Y-80322734D01*
X130661140Y-80511207D01*
X130570703Y-80717385D01*
X130515436Y-80935628D01*
X130515434Y-80935640D01*
X130496844Y-81159994D01*
X130496844Y-81160005D01*
X130515434Y-81384359D01*
X130515436Y-81384371D01*
X130570703Y-81602614D01*
X130661140Y-81808792D01*
X130784276Y-81997265D01*
X130784284Y-81997276D01*
X130890928Y-82113120D01*
X130936760Y-82162906D01*
X131114424Y-82301189D01*
X131114429Y-82301191D01*
X131114431Y-82301193D01*
X131150930Y-82320946D01*
X131200520Y-82370165D01*
X131215628Y-82438382D01*
X131191457Y-82503937D01*
X131150930Y-82539054D01*
X131114431Y-82558806D01*
X131114422Y-82558812D01*
X130936761Y-82697092D01*
X130936756Y-82697097D01*
X130784284Y-82862723D01*
X130784276Y-82862734D01*
X130661140Y-83051207D01*
X130570703Y-83257385D01*
X130515436Y-83475628D01*
X130515434Y-83475640D01*
X130496844Y-83699994D01*
X130496844Y-83700005D01*
X130515434Y-83924359D01*
X130515436Y-83924371D01*
X130570703Y-84142614D01*
X130661140Y-84348792D01*
X130784276Y-84537265D01*
X130784284Y-84537276D01*
X130904719Y-84668101D01*
X130936760Y-84702906D01*
X131114424Y-84841189D01*
X131114429Y-84841191D01*
X131114431Y-84841193D01*
X131150930Y-84860946D01*
X131200520Y-84910165D01*
X131215628Y-84978382D01*
X131191457Y-85043937D01*
X131150930Y-85079054D01*
X131114431Y-85098806D01*
X131114422Y-85098812D01*
X130936761Y-85237092D01*
X130936756Y-85237097D01*
X130784284Y-85402723D01*
X130784276Y-85402734D01*
X130661140Y-85591207D01*
X130570703Y-85797385D01*
X130515436Y-86015628D01*
X130515434Y-86015640D01*
X130496844Y-86239994D01*
X130496844Y-86240005D01*
X130515434Y-86464359D01*
X130515436Y-86464371D01*
X130570703Y-86682614D01*
X130661140Y-86888792D01*
X130784276Y-87077265D01*
X130784284Y-87077276D01*
X130936756Y-87242902D01*
X130936761Y-87242907D01*
X130950217Y-87253380D01*
X131114424Y-87381189D01*
X131114429Y-87381191D01*
X131114431Y-87381193D01*
X131150930Y-87400946D01*
X131200520Y-87450165D01*
X131215628Y-87518382D01*
X131191457Y-87583937D01*
X131150930Y-87619054D01*
X131114431Y-87638806D01*
X131114422Y-87638812D01*
X130936761Y-87777092D01*
X130936756Y-87777097D01*
X130784284Y-87942723D01*
X130784276Y-87942734D01*
X130661140Y-88131207D01*
X130570703Y-88337385D01*
X130515436Y-88555628D01*
X130515434Y-88555640D01*
X130496844Y-88779994D01*
X130496844Y-88780005D01*
X110363156Y-88780005D01*
X110363156Y-88780000D01*
X110344564Y-88555632D01*
X110289296Y-88337384D01*
X110198860Y-88131209D01*
X110075722Y-87942732D01*
X110075719Y-87942729D01*
X110075715Y-87942723D01*
X109923243Y-87777097D01*
X109923238Y-87777092D01*
X109745577Y-87638812D01*
X109745577Y-87638811D01*
X109702303Y-87615393D01*
X109652713Y-87566173D01*
X109637605Y-87497957D01*
X109661775Y-87432401D01*
X109690198Y-87404763D01*
X109871079Y-87278108D01*
X110038105Y-87111082D01*
X110173600Y-86917578D01*
X110273429Y-86703492D01*
X110273432Y-86703486D01*
X110330636Y-86490000D01*
X109613347Y-86490000D01*
X109546308Y-86470315D01*
X109500553Y-86417511D01*
X109490609Y-86348353D01*
X109494369Y-86331067D01*
X109500000Y-86311888D01*
X109500000Y-86168111D01*
X109494369Y-86148933D01*
X109494370Y-86079064D01*
X109532145Y-86020286D01*
X109595701Y-85991262D01*
X109613347Y-85990000D01*
X110330636Y-85990000D01*
X110330635Y-85989999D01*
X110273432Y-85776513D01*
X110273429Y-85776507D01*
X110173600Y-85562422D01*
X110173599Y-85562420D01*
X110038113Y-85368926D01*
X110038108Y-85368920D01*
X109871082Y-85201894D01*
X109690197Y-85075236D01*
X109646572Y-85020659D01*
X109639380Y-84951160D01*
X109670902Y-84888806D01*
X109702300Y-84864608D01*
X109745576Y-84841189D01*
X109923240Y-84702906D01*
X110075722Y-84537268D01*
X110198860Y-84348791D01*
X110289296Y-84142616D01*
X110344564Y-83924368D01*
X110363156Y-83700000D01*
X110344564Y-83475632D01*
X110289296Y-83257384D01*
X110198860Y-83051209D01*
X110198224Y-83050236D01*
X110075723Y-82862734D01*
X110075715Y-82862723D01*
X109923243Y-82697097D01*
X109923238Y-82697092D01*
X109745577Y-82558812D01*
X109745578Y-82558812D01*
X109745576Y-82558811D01*
X109709070Y-82539055D01*
X109659479Y-82489836D01*
X109644371Y-82421619D01*
X109668541Y-82356064D01*
X109709070Y-82320945D01*
X109709084Y-82320936D01*
X109745576Y-82301189D01*
X109923240Y-82162906D01*
X110075722Y-81997268D01*
X110198860Y-81808791D01*
X110289296Y-81602616D01*
X110344564Y-81384368D01*
X110358864Y-81211795D01*
X110363156Y-81160005D01*
X110363156Y-81159994D01*
X110344565Y-80935640D01*
X110344563Y-80935628D01*
X110289296Y-80717385D01*
X110198859Y-80511207D01*
X110075723Y-80322734D01*
X110075715Y-80322723D01*
X109923243Y-80157097D01*
X109923238Y-80157092D01*
X109745577Y-80018812D01*
X109745578Y-80018812D01*
X109745576Y-80018811D01*
X109709070Y-79999055D01*
X109659479Y-79949836D01*
X109644371Y-79881619D01*
X109668541Y-79816064D01*
X109709070Y-79780945D01*
X109709084Y-79780936D01*
X109745576Y-79761189D01*
X109923240Y-79622906D01*
X110075722Y-79457268D01*
X110198860Y-79268791D01*
X110289296Y-79062616D01*
X110344564Y-78844368D01*
X110363156Y-78620000D01*
X110353377Y-78501989D01*
X110344565Y-78395640D01*
X110344563Y-78395628D01*
X110336366Y-78363260D01*
X110289296Y-78177384D01*
X110198860Y-77971209D01*
X110163922Y-77917733D01*
X110075723Y-77782734D01*
X110075715Y-77782723D01*
X109923243Y-77617097D01*
X109923238Y-77617092D01*
X109745577Y-77478812D01*
X109745572Y-77478808D01*
X109709068Y-77459053D01*
X109659478Y-77409833D01*
X109644371Y-77341616D01*
X109668542Y-77276061D01*
X109709069Y-77240945D01*
X109745576Y-77221189D01*
X109923240Y-77082906D01*
X110075722Y-76917268D01*
X110198860Y-76728791D01*
X110289296Y-76522616D01*
X110344564Y-76304368D01*
X110363156Y-76080000D01*
X110358343Y-76021921D01*
X110344565Y-75855640D01*
X110344563Y-75855628D01*
X110321299Y-75763760D01*
X110289296Y-75637384D01*
X110198860Y-75431209D01*
X110075722Y-75242732D01*
X110075719Y-75242729D01*
X110075715Y-75242723D01*
X109923243Y-75077097D01*
X109923238Y-75077092D01*
X109745577Y-74938812D01*
X109745572Y-74938808D01*
X109709068Y-74919053D01*
X109659478Y-74869833D01*
X109644371Y-74801616D01*
X109668542Y-74736061D01*
X109709069Y-74700945D01*
X109745576Y-74681189D01*
X109923240Y-74542906D01*
X110075722Y-74377268D01*
X110198860Y-74188791D01*
X110289296Y-73982616D01*
X110344564Y-73764368D01*
X110363156Y-73540000D01*
X110357198Y-73468102D01*
X110344565Y-73315640D01*
X110344563Y-73315628D01*
X110289296Y-73097385D01*
X110198859Y-72891207D01*
X110075723Y-72702734D01*
X110075715Y-72702723D01*
X109930510Y-72544991D01*
X109899587Y-72482337D01*
X109907447Y-72412911D01*
X109951594Y-72358755D01*
X109978405Y-72344827D01*
X110058584Y-72314920D01*
X110096204Y-72300889D01*
X110213261Y-72213261D01*
X110300889Y-72096204D01*
X110347850Y-71970299D01*
X110351988Y-71959204D01*
X110351988Y-71959203D01*
X110351989Y-71959201D01*
X110355591Y-71925692D01*
X110358499Y-71898654D01*
X110358500Y-71898637D01*
X110358500Y-70101362D01*
X110358499Y-70101345D01*
X110355157Y-70070270D01*
X110351989Y-70040799D01*
X110300889Y-69903796D01*
X110213261Y-69786739D01*
X110096204Y-69699111D01*
X110096203Y-69699110D01*
X109959203Y-69648011D01*
X109898654Y-69641500D01*
X109898638Y-69641500D01*
X108101362Y-69641500D01*
X108101345Y-69641500D01*
X108040797Y-69648011D01*
X108040795Y-69648011D01*
X107903795Y-69699111D01*
X107786739Y-69786739D01*
X107699111Y-69903795D01*
X107648011Y-70040795D01*
X107648011Y-70040797D01*
X107641500Y-70101345D01*
X107641500Y-71898654D01*
X107648011Y-71959202D01*
X107648011Y-71959204D01*
X107699110Y-72096204D01*
X107699111Y-72096204D01*
X107786739Y-72213261D01*
X107903796Y-72300889D01*
X107955737Y-72320262D01*
X108021595Y-72344827D01*
X108077528Y-72386699D01*
X108101944Y-72452163D01*
X108087092Y-72520436D01*
X108069490Y-72544991D01*
X107924279Y-72702730D01*
X107924276Y-72702734D01*
X107801140Y-72891207D01*
X107710703Y-73097385D01*
X107655436Y-73315628D01*
X107655434Y-73315640D01*
X107636844Y-73539994D01*
X107636844Y-73540005D01*
X107655434Y-73764359D01*
X107655436Y-73764371D01*
X107710703Y-73982614D01*
X107801140Y-74188792D01*
X107924276Y-74377265D01*
X107924284Y-74377276D01*
X108076756Y-74542902D01*
X108076760Y-74542906D01*
X108254424Y-74681189D01*
X108254429Y-74681191D01*
X108254431Y-74681193D01*
X108290930Y-74700946D01*
X108340520Y-74750165D01*
X108355628Y-74818382D01*
X108331457Y-74883937D01*
X108290930Y-74919054D01*
X108254431Y-74938806D01*
X108254422Y-74938812D01*
X108076761Y-75077092D01*
X108076756Y-75077097D01*
X107924284Y-75242723D01*
X107924276Y-75242734D01*
X107801140Y-75431207D01*
X107710703Y-75637385D01*
X107655436Y-75855628D01*
X107655434Y-75855640D01*
X107636844Y-76079994D01*
X107636844Y-76080005D01*
X107655434Y-76304359D01*
X107655436Y-76304371D01*
X107710703Y-76522614D01*
X107801140Y-76728792D01*
X107924276Y-76917265D01*
X107924284Y-76917276D01*
X108076756Y-77082902D01*
X108076761Y-77082907D01*
X108135981Y-77129000D01*
X108254424Y-77221189D01*
X108290930Y-77240945D01*
X108340519Y-77290162D01*
X108355629Y-77358378D01*
X108331459Y-77423934D01*
X108290932Y-77459052D01*
X108254432Y-77478805D01*
X108254422Y-77478812D01*
X108076761Y-77617092D01*
X108076756Y-77617097D01*
X107924284Y-77782723D01*
X107924276Y-77782734D01*
X107801140Y-77971207D01*
X107710703Y-78177385D01*
X107655436Y-78395628D01*
X107655434Y-78395640D01*
X107636844Y-78619994D01*
X107636844Y-78620005D01*
X107655434Y-78844359D01*
X107655436Y-78844371D01*
X107710703Y-79062614D01*
X107801140Y-79268792D01*
X107924276Y-79457265D01*
X107924284Y-79457276D01*
X108076756Y-79622902D01*
X108076760Y-79622906D01*
X108254424Y-79761189D01*
X108254429Y-79761191D01*
X108254431Y-79761193D01*
X108290930Y-79780946D01*
X108340520Y-79830165D01*
X108355628Y-79898382D01*
X108331457Y-79963937D01*
X108290930Y-79999054D01*
X108254431Y-80018806D01*
X108254422Y-80018812D01*
X108076761Y-80157092D01*
X108076756Y-80157097D01*
X107924284Y-80322723D01*
X107924276Y-80322734D01*
X107801140Y-80511207D01*
X107710703Y-80717385D01*
X107655436Y-80935628D01*
X107655434Y-80935640D01*
X107636844Y-81159994D01*
X107636844Y-81160005D01*
X107655434Y-81384359D01*
X107655436Y-81384371D01*
X107710703Y-81602614D01*
X107801140Y-81808792D01*
X107924276Y-81997265D01*
X107924284Y-81997276D01*
X108030928Y-82113120D01*
X108076760Y-82162906D01*
X108254424Y-82301189D01*
X108254429Y-82301191D01*
X108254431Y-82301193D01*
X108290930Y-82320946D01*
X108340520Y-82370165D01*
X108355628Y-82438382D01*
X108331457Y-82503937D01*
X108290930Y-82539054D01*
X108254431Y-82558806D01*
X108254422Y-82558812D01*
X108076761Y-82697092D01*
X108076756Y-82697097D01*
X107924284Y-82862723D01*
X107924276Y-82862734D01*
X107801140Y-83051207D01*
X107710703Y-83257385D01*
X107655436Y-83475628D01*
X107655434Y-83475640D01*
X107636844Y-83699994D01*
X107636844Y-83700005D01*
X107655434Y-83924359D01*
X107655436Y-83924371D01*
X107710703Y-84142614D01*
X107801140Y-84348792D01*
X107924276Y-84537265D01*
X107924284Y-84537276D01*
X108044719Y-84668101D01*
X108076760Y-84702906D01*
X108254424Y-84841189D01*
X108290930Y-84860945D01*
X108297695Y-84864606D01*
X108347286Y-84913825D01*
X108362394Y-84982042D01*
X108338224Y-85047597D01*
X108309802Y-85075236D01*
X108128922Y-85201890D01*
X108128920Y-85201891D01*
X107961891Y-85368920D01*
X107961886Y-85368926D01*
X107826400Y-85562420D01*
X107826399Y-85562422D01*
X107726570Y-85776507D01*
X107726567Y-85776513D01*
X107669364Y-85989999D01*
X107669364Y-85990000D01*
X108386653Y-85990000D01*
X108453692Y-86009685D01*
X108499447Y-86062489D01*
X108509391Y-86131647D01*
X108505631Y-86148933D01*
X108500000Y-86168111D01*
X108500000Y-86311888D01*
X108505631Y-86331067D01*
X108505630Y-86400936D01*
X108467855Y-86459714D01*
X108404299Y-86488738D01*
X108386653Y-86490000D01*
X107669364Y-86490000D01*
X107726567Y-86703486D01*
X107726570Y-86703492D01*
X107826399Y-86917578D01*
X107961894Y-87111082D01*
X108128917Y-87278105D01*
X108309802Y-87404763D01*
X108353427Y-87459340D01*
X108360619Y-87528839D01*
X108329097Y-87591193D01*
X108297697Y-87615392D01*
X108254427Y-87638809D01*
X108254422Y-87638812D01*
X108076761Y-87777092D01*
X108076756Y-87777097D01*
X107924284Y-87942723D01*
X107924276Y-87942734D01*
X107801140Y-88131207D01*
X107710703Y-88337385D01*
X107655436Y-88555628D01*
X107655434Y-88555640D01*
X107636844Y-88779994D01*
X107636844Y-88780005D01*
X101075500Y-88780005D01*
X101075500Y-66432013D01*
X101095185Y-66364974D01*
X101147989Y-66319219D01*
X101217147Y-66309275D01*
X101280703Y-66338300D01*
X101318477Y-66397078D01*
X101321466Y-66409650D01*
X101365397Y-66649371D01*
X101365398Y-66649375D01*
X101365399Y-66649379D01*
X101462872Y-66962184D01*
X101462876Y-66962196D01*
X101462879Y-66962203D01*
X101597358Y-67261003D01*
X101597358Y-67261004D01*
X101766873Y-67541415D01*
X101968955Y-67799354D01*
X102200645Y-68031044D01*
X102200649Y-68031047D01*
X102458584Y-68233126D01*
X102738996Y-68402642D01*
X103037797Y-68537121D01*
X103037810Y-68537125D01*
X103037815Y-68537127D01*
X103246351Y-68602108D01*
X103350629Y-68634603D01*
X103672930Y-68693667D01*
X104000000Y-68713451D01*
X104327070Y-68693667D01*
X104649371Y-68634603D01*
X104962203Y-68537121D01*
X105261004Y-68402642D01*
X105541416Y-68233126D01*
X105799351Y-68031047D01*
X106031047Y-67799351D01*
X106233126Y-67541416D01*
X106402642Y-67261004D01*
X106537121Y-66962203D01*
X106634603Y-66649371D01*
X106693667Y-66327070D01*
X106713451Y-66000000D01*
X106693667Y-65672930D01*
X106634603Y-65350629D01*
X106537121Y-65037797D01*
X106402642Y-64738996D01*
X106233126Y-64458584D01*
X106031047Y-64200649D01*
X106031044Y-64200645D01*
X105799354Y-63968955D01*
X105541415Y-63766873D01*
X105261004Y-63597358D01*
X104962203Y-63462879D01*
X104962196Y-63462876D01*
X104962184Y-63462872D01*
X104649379Y-63365399D01*
X104649375Y-63365398D01*
X104649371Y-63365397D01*
X104409659Y-63321468D01*
X104347268Y-63290022D01*
X104311781Y-63229836D01*
X104314467Y-63160018D01*
X104354472Y-63102735D01*
X104419097Y-63076175D01*
X104432013Y-63075500D01*
X145567987Y-63075500D01*
X145635026Y-63095185D01*
G37*
%TD.AperFunction*%
%TD*%
M02*
