%TF.GenerationSoftware,KiCad,Pcbnew,7.0.7-7.0.7~ubuntu20.04.1*%
%TF.CreationDate,2023-09-04T11:30:02-04:00*%
%TF.ProjectId,board_pf_cese,626f6172-645f-4706-965f-636573652e6b,rev?*%
%TF.SameCoordinates,Original*%
%TF.FileFunction,Copper,L1,Top*%
%TF.FilePolarity,Positive*%
%FSLAX46Y46*%
G04 Gerber Fmt 4.6, Leading zero omitted, Abs format (unit mm)*
G04 Created by KiCad (PCBNEW 7.0.7-7.0.7~ubuntu20.04.1) date 2023-09-04 11:30:02*
%MOMM*%
%LPD*%
G01*
G04 APERTURE LIST*
%TA.AperFunction,ComponentPad*%
%ADD10R,1.700000X1.700000*%
%TD*%
%TA.AperFunction,ComponentPad*%
%ADD11O,1.700000X1.700000*%
%TD*%
%TA.AperFunction,ComponentPad*%
%ADD12C,1.600000*%
%TD*%
%TA.AperFunction,ComponentPad*%
%ADD13O,1.600000X1.600000*%
%TD*%
%TA.AperFunction,ComponentPad*%
%ADD14R,2.200000X2.200000*%
%TD*%
%TA.AperFunction,ComponentPad*%
%ADD15C,2.200000*%
%TD*%
%TA.AperFunction,ComponentPad*%
%ADD16R,1.800000X1.800000*%
%TD*%
%TA.AperFunction,ComponentPad*%
%ADD17C,1.800000*%
%TD*%
%TA.AperFunction,ViaPad*%
%ADD18C,1.600000*%
%TD*%
%TA.AperFunction,Conductor*%
%ADD19C,1.500000*%
%TD*%
%TA.AperFunction,Conductor*%
%ADD20C,1.000000*%
%TD*%
G04 APERTURE END LIST*
D10*
%TO.P,J5,1,Pin_1*%
%TO.N,+3.3V*%
X129000000Y-127000000D03*
D11*
%TO.P,J5,2,Pin_2*%
%TO.N,GND*%
X131540000Y-127000000D03*
%TO.P,J5,3,Pin_3*%
%TO.N,/SCL*%
X134080000Y-127000000D03*
%TO.P,J5,4,Pin_4*%
%TO.N,/SDA*%
X136620000Y-127000000D03*
%TD*%
D10*
%TO.P,J8,1,Pin_1*%
%TO.N,unconnected-(J8-Pin_1-Pad1)*%
X109000000Y-71000000D03*
D11*
%TO.P,J8,2,Pin_2*%
%TO.N,/OR*%
X109000000Y-73540000D03*
%TO.P,J8,3,Pin_3*%
%TO.N,unconnected-(J8-Pin_3-Pad3)*%
X109000000Y-76080000D03*
%TO.P,J8,4,Pin_4*%
%TO.N,unconnected-(J8-Pin_4-Pad4)*%
X109000000Y-78620000D03*
%TO.P,J8,5,Pin_5*%
%TO.N,unconnected-(J8-Pin_5-Pad5)*%
X109000000Y-81160000D03*
%TO.P,J8,6,Pin_6*%
%TO.N,unconnected-(J8-Pin_6-Pad6)*%
X109000000Y-83700000D03*
%TO.P,J8,7,Pin_7*%
%TO.N,+3.3V*%
X109000000Y-86240000D03*
%TO.P,J8,8,Pin_8*%
%TO.N,GND*%
X109000000Y-88780000D03*
%TD*%
D12*
%TO.P,R1,1*%
%TO.N,/SO*%
X134840000Y-94000000D03*
D13*
%TO.P,R1,2*%
%TO.N,Net-(D1-A)*%
X145000000Y-94000000D03*
%TD*%
D14*
%TO.P,J1,1,Pin_1*%
%TO.N,+5V*%
X144000000Y-74540000D03*
D15*
%TO.P,J1,2,Pin_2*%
%TO.N,GND*%
X144000000Y-72000000D03*
%TD*%
D16*
%TO.P,D2,1,K*%
%TO.N,GND*%
X139000000Y-86460000D03*
D17*
%TO.P,D2,2,A*%
%TO.N,Net-(D2-A)*%
X139000000Y-89000000D03*
%TD*%
D10*
%TO.P,J7,1,Pin_1*%
%TO.N,/M_RX*%
X142560000Y-100760000D03*
D11*
%TO.P,J7,2,Pin_2*%
%TO.N,/M_TX*%
X140020000Y-100760000D03*
%TO.P,J7,3,Pin_3*%
%TO.N,unconnected-(J7-Pin_3-Pad3)*%
X137480000Y-100760000D03*
%TO.P,J7,4,Pin_4*%
%TO.N,GND*%
X134940000Y-100760000D03*
%TO.P,J7,5,Pin_5*%
%TO.N,/OR*%
X132400000Y-100760000D03*
%TO.P,J7,6,Pin_6*%
%TO.N,/SO*%
X129860000Y-100760000D03*
%TO.P,J7,7,Pin_7*%
%TO.N,unconnected-(J7-Pin_7-Pad7)*%
X127320000Y-100760000D03*
%TO.P,J7,8,Pin_8*%
%TO.N,unconnected-(J7-Pin_8-Pad8)*%
X124780000Y-100760000D03*
%TO.P,J7,9,Pin_9*%
%TO.N,unconnected-(J7-Pin_9-Pad9)*%
X122240000Y-100760000D03*
%TO.P,J7,10,Pin_10*%
%TO.N,unconnected-(J7-Pin_10-Pad10)*%
X119700000Y-100760000D03*
%TO.P,J7,11,Pin_11*%
%TO.N,unconnected-(J7-Pin_11-Pad11)*%
X117160000Y-100760000D03*
%TO.P,J7,12,Pin_12*%
%TO.N,unconnected-(J7-Pin_12-Pad12)*%
X114620000Y-100760000D03*
%TO.P,J7,13,Pin_13*%
%TO.N,/SE*%
X112080000Y-100760000D03*
%TO.P,J7,14,Pin_14*%
%TO.N,unconnected-(J7-Pin_14-Pad14)*%
X109540000Y-100760000D03*
%TO.P,J7,15,Pin_15*%
%TO.N,/SDA*%
X107000000Y-100760000D03*
%TD*%
D10*
%TO.P,J3,1,Pin_1*%
%TO.N,+3.3V*%
X128920000Y-122000000D03*
D11*
%TO.P,J3,2,Pin_2*%
%TO.N,GND*%
X131460000Y-122000000D03*
%TO.P,J3,3,Pin_3*%
%TO.N,unconnected-(J3-Pin_3-Pad3)*%
X134000000Y-122000000D03*
%TO.P,J3,4,Pin_4*%
%TO.N,Net-(J3-Pin_4)*%
X136540000Y-122000000D03*
%TD*%
D12*
%TO.P,R2,1*%
%TO.N,/SE*%
X120920000Y-94000000D03*
D13*
%TO.P,R2,2*%
%TO.N,Net-(D2-A)*%
X131080000Y-94000000D03*
%TD*%
D10*
%TO.P,J9,1,Pin_1*%
%TO.N,unconnected-(J9-Pin_1-Pad1)*%
X131860000Y-71000000D03*
D11*
%TO.P,J9,2,Pin_2*%
%TO.N,unconnected-(J9-Pin_2-Pad2)*%
X131860000Y-73540000D03*
%TO.P,J9,3,Pin_3*%
%TO.N,/M_TX*%
X131860000Y-76080000D03*
%TO.P,J9,4,Pin_4*%
%TO.N,/M_RX*%
X131860000Y-78620000D03*
%TO.P,J9,5,Pin_5*%
%TO.N,unconnected-(J9-Pin_5-Pad5)*%
X131860000Y-81160000D03*
%TO.P,J9,6,Pin_6*%
%TO.N,unconnected-(J9-Pin_6-Pad6)*%
X131860000Y-83700000D03*
%TO.P,J9,7,Pin_7*%
%TO.N,+5V*%
X131860000Y-86240000D03*
%TO.P,J9,8,Pin_8*%
%TO.N,GND*%
X131860000Y-88780000D03*
%TD*%
D10*
%TO.P,J2,1,Pin_1*%
%TO.N,+3.3V*%
X114000000Y-122000000D03*
D11*
%TO.P,J2,2,Pin_2*%
%TO.N,GND*%
X116540000Y-122000000D03*
%TO.P,J2,3,Pin_3*%
%TO.N,unconnected-(J2-Pin_3-Pad3)*%
X119080000Y-122000000D03*
%TO.P,J2,4,Pin_4*%
%TO.N,Net-(J2-Pin_4)*%
X121620000Y-122000000D03*
%TD*%
D14*
%TO.P,J10,1,Pin_1*%
%TO.N,+12V*%
X144000000Y-81540000D03*
D15*
%TO.P,J10,2,Pin_2*%
%TO.N,GND*%
X144000000Y-79000000D03*
%TD*%
D16*
%TO.P,D1,1,K*%
%TO.N,GND*%
X145000000Y-86460000D03*
D17*
%TO.P,D1,2,A*%
%TO.N,Net-(D1-A)*%
X145000000Y-89000000D03*
%TD*%
D10*
%TO.P,J4,1,Pin_1*%
%TO.N,+3.3V*%
X114000000Y-127000000D03*
D11*
%TO.P,J4,2,Pin_2*%
%TO.N,GND*%
X116540000Y-127000000D03*
%TO.P,J4,3,Pin_3*%
%TO.N,Net-(J4-Pin_3)*%
X119080000Y-127000000D03*
%TO.P,J4,4,Pin_4*%
%TO.N,unconnected-(J4-Pin_4-Pad4)*%
X121620000Y-127000000D03*
%TD*%
D10*
%TO.P,J11,1,Pin_1*%
%TO.N,unconnected-(J11-Pin_1-Pad1)*%
X106920000Y-95000000D03*
D11*
%TO.P,J11,2,Pin_2*%
%TO.N,GND*%
X109460000Y-95000000D03*
%TO.P,J11,3,Pin_3*%
%TO.N,/UART2_TX*%
X112000000Y-95000000D03*
%TO.P,J11,4,Pin_4*%
%TO.N,unconnected-(J11-Pin_4-Pad4)*%
X114540000Y-95000000D03*
%TO.P,J11,5,Pin_5*%
%TO.N,unconnected-(J11-Pin_5-Pad5)*%
X117080000Y-95000000D03*
%TD*%
D10*
%TO.P,J6,1,Pin_1*%
%TO.N,+12V*%
X142560000Y-116000000D03*
D11*
%TO.P,J6,2,Pin_2*%
%TO.N,GND*%
X140020000Y-116000000D03*
%TO.P,J6,3,Pin_3*%
%TO.N,unconnected-(J6-Pin_3-Pad3)*%
X137480000Y-116000000D03*
%TO.P,J6,4,Pin_4*%
%TO.N,unconnected-(J6-Pin_4-Pad4)*%
X134940000Y-116000000D03*
%TO.P,J6,5,Pin_5*%
%TO.N,/UART2_TX*%
X132400000Y-116000000D03*
%TO.P,J6,6,Pin_6*%
%TO.N,/SCL*%
X129860000Y-116000000D03*
%TO.P,J6,7,Pin_7*%
%TO.N,unconnected-(J6-Pin_7-Pad7)*%
X127320000Y-116000000D03*
%TO.P,J6,8,Pin_8*%
%TO.N,Net-(J3-Pin_4)*%
X124780000Y-116000000D03*
%TO.P,J6,9,Pin_9*%
%TO.N,Net-(J2-Pin_4)*%
X122240000Y-116000000D03*
%TO.P,J6,10,Pin_10*%
%TO.N,Net-(J4-Pin_3)*%
X119700000Y-116000000D03*
%TO.P,J6,11,Pin_11*%
%TO.N,unconnected-(J6-Pin_11-Pad11)*%
X117160000Y-116000000D03*
%TO.P,J6,12,Pin_12*%
%TO.N,unconnected-(J6-Pin_12-Pad12)*%
X114620000Y-116000000D03*
%TO.P,J6,13,Pin_13*%
%TO.N,unconnected-(J6-Pin_13-Pad13)*%
X112080000Y-116000000D03*
%TO.P,J6,14,Pin_14*%
%TO.N,+3.3V*%
X109540000Y-116000000D03*
%TO.P,J6,15,Pin_15*%
%TO.N,unconnected-(J6-Pin_15-Pad15)*%
X107000000Y-116000000D03*
%TD*%
D18*
%TO.N,GND*%
X125000000Y-89000000D03*
X139000000Y-84000000D03*
X135000000Y-98000000D03*
%TO.N,/UART2_TX*%
X140000000Y-108000000D03*
%TD*%
D19*
%TO.N,GND*%
X134940000Y-100760000D02*
X134940000Y-98060000D01*
D20*
X139000000Y-84000000D02*
X139000000Y-86460000D01*
D19*
X134940000Y-98060000D02*
X135000000Y-98000000D01*
X131860000Y-88780000D02*
X125220000Y-88780000D01*
X125220000Y-88780000D02*
X125000000Y-89000000D01*
D20*
%TO.N,Net-(D1-A)*%
X145000000Y-89000000D02*
X145000000Y-94000000D01*
%TO.N,Net-(D2-A)*%
X131080000Y-94000000D02*
X133080000Y-92000000D01*
X139000000Y-91000000D02*
X139000000Y-89000000D01*
X138000000Y-92000000D02*
X139000000Y-91000000D01*
X133080000Y-92000000D02*
X138000000Y-92000000D01*
%TO.N,Net-(J3-Pin_4)*%
X126000000Y-119000000D02*
X124780000Y-117780000D01*
X124780000Y-117780000D02*
X124780000Y-116000000D01*
X134742081Y-119000000D02*
X126000000Y-119000000D01*
X136540000Y-122000000D02*
X136540000Y-120797919D01*
X136540000Y-120797919D02*
X134742081Y-119000000D01*
%TO.N,Net-(J4-Pin_3)*%
X119080000Y-125623704D02*
X118456296Y-125000000D01*
X111000000Y-125000000D02*
X110000000Y-124000000D01*
X119700000Y-118300000D02*
X119700000Y-116000000D01*
X111000000Y-119000000D02*
X119000000Y-119000000D01*
X119000000Y-119000000D02*
X119700000Y-118300000D01*
X110000000Y-124000000D02*
X110000000Y-120000000D01*
X110000000Y-120000000D02*
X111000000Y-119000000D01*
X119080000Y-127000000D02*
X119080000Y-125623704D01*
X118456296Y-125000000D02*
X111000000Y-125000000D01*
%TO.N,/SCL*%
X142878680Y-110000000D02*
X133000000Y-110000000D01*
X139939340Y-124939340D02*
X145500000Y-119378680D01*
X134080000Y-125797919D02*
X134938579Y-124939340D01*
X134080000Y-127000000D02*
X134080000Y-125797919D01*
X133000000Y-110000000D02*
X129860000Y-113140000D01*
X145500000Y-119378680D02*
X145500000Y-112621320D01*
X145500000Y-112621320D02*
X142878680Y-110000000D01*
X134938579Y-124939340D02*
X139939340Y-124939340D01*
X129860000Y-113140000D02*
X129860000Y-116000000D01*
%TO.N,/SDA*%
X147000000Y-112000000D02*
X140000000Y-105000000D01*
X136620000Y-127000000D02*
X140000000Y-127000000D01*
X107000000Y-104000000D02*
X107000000Y-100760000D01*
X140000000Y-105000000D02*
X108000000Y-105000000D01*
X147000000Y-120000000D02*
X147000000Y-112000000D01*
X108000000Y-105000000D02*
X107000000Y-104000000D01*
X140000000Y-127000000D02*
X147000000Y-120000000D01*
%TO.N,+5V*%
X133062081Y-86240000D02*
X135000000Y-84302081D01*
X136460000Y-74540000D02*
X144000000Y-74540000D01*
X131860000Y-86240000D02*
X133062081Y-86240000D01*
X135000000Y-76000000D02*
X136460000Y-74540000D01*
X135000000Y-84302081D02*
X135000000Y-76000000D01*
%TO.N,/UART2_TX*%
X107000000Y-107000000D02*
X104000000Y-104000000D01*
X140000000Y-108000000D02*
X139000000Y-107000000D01*
X112000000Y-97202081D02*
X112000000Y-95000000D01*
X139000000Y-107000000D02*
X107000000Y-107000000D01*
X111202081Y-98000000D02*
X112000000Y-97202081D01*
X104000000Y-99000000D02*
X105000000Y-98000000D01*
X105000000Y-98000000D02*
X111202081Y-98000000D01*
X104000000Y-104000000D02*
X104000000Y-99000000D01*
%TO.N,Net-(J2-Pin_4)*%
X121620000Y-118380000D02*
X122240000Y-117760000D01*
X121620000Y-122000000D02*
X121620000Y-118380000D01*
X122240000Y-117760000D02*
X122240000Y-116000000D01*
%TO.N,/SO*%
X134000000Y-96000000D02*
X134840000Y-95160000D01*
X132000000Y-96000000D02*
X134000000Y-96000000D01*
X129860000Y-98140000D02*
X129860000Y-100760000D01*
X134840000Y-95160000D02*
X134840000Y-94000000D01*
X129860000Y-98140000D02*
X132000000Y-96000000D01*
%TO.N,/SE*%
X112080000Y-100760000D02*
X112080000Y-99557919D01*
X113637919Y-98000000D02*
X119000000Y-98000000D01*
X112080000Y-99557919D02*
X113637919Y-98000000D01*
X120920000Y-96080000D02*
X120920000Y-94000000D01*
X119000000Y-98000000D02*
X120920000Y-96080000D01*
%TD*%
%TA.AperFunction,Conductor*%
%TO.N,+3.3V*%
G36*
X149667539Y-62295185D02*
G01*
X149713294Y-62347989D01*
X149724500Y-62399500D01*
X149724500Y-131600500D01*
X149704815Y-131667539D01*
X149652011Y-131713294D01*
X149600500Y-131724500D01*
X100399500Y-131724500D01*
X100332461Y-131704815D01*
X100286706Y-131652011D01*
X100275500Y-131600500D01*
X100275500Y-127056330D01*
X103745710Y-127056330D01*
X103775925Y-127279387D01*
X103775926Y-127279390D01*
X103845483Y-127493465D01*
X103952146Y-127691678D01*
X103952148Y-127691681D01*
X104092489Y-127867663D01*
X104092491Y-127867664D01*
X104092492Y-127867666D01*
X104262004Y-128015765D01*
X104455236Y-128131215D01*
X104657663Y-128207187D01*
X104665976Y-128210307D01*
X104887450Y-128250500D01*
X104887453Y-128250500D01*
X105056148Y-128250500D01*
X105056155Y-128250500D01*
X105224188Y-128235377D01*
X105224192Y-128235376D01*
X105441160Y-128175496D01*
X105441162Y-128175495D01*
X105441170Y-128175493D01*
X105643973Y-128077829D01*
X105826078Y-127945522D01*
X105981632Y-127782825D01*
X106105635Y-127594968D01*
X106126881Y-127545262D01*
X106194100Y-127387995D01*
X106194099Y-127387995D01*
X106194103Y-127387988D01*
X106244191Y-127168537D01*
X106254290Y-126943670D01*
X106224075Y-126720613D01*
X106154517Y-126506536D01*
X106047852Y-126308319D01*
X105938735Y-126171491D01*
X105907510Y-126132336D01*
X105878124Y-126106662D01*
X105737996Y-125984235D01*
X105544764Y-125868785D01*
X105426775Y-125824503D01*
X105334023Y-125789692D01*
X105112550Y-125749500D01*
X105112547Y-125749500D01*
X104943845Y-125749500D01*
X104905399Y-125752960D01*
X104775813Y-125764622D01*
X104775807Y-125764623D01*
X104558839Y-125824503D01*
X104558826Y-125824508D01*
X104356033Y-125922167D01*
X104356025Y-125922171D01*
X104173927Y-126054473D01*
X104173925Y-126054474D01*
X104018366Y-126217176D01*
X103894363Y-126405033D01*
X103805899Y-126612004D01*
X103805895Y-126612017D01*
X103755810Y-126831457D01*
X103755808Y-126831468D01*
X103745710Y-127056325D01*
X103745710Y-127056330D01*
X100275500Y-127056330D01*
X100275500Y-103999999D01*
X102986620Y-103999999D01*
X103006091Y-104197703D01*
X103063759Y-104387805D01*
X103157401Y-104562998D01*
X103157405Y-104563005D01*
X103283430Y-104716567D01*
X103319566Y-104746222D01*
X103324067Y-104750301D01*
X106249696Y-107675930D01*
X106253776Y-107680432D01*
X106283432Y-107716568D01*
X106436994Y-107842594D01*
X106437001Y-107842598D01*
X106580930Y-107919529D01*
X106612196Y-107936241D01*
X106633004Y-107942553D01*
X106669864Y-107953735D01*
X106787153Y-107989314D01*
X106802300Y-107993909D01*
X107000000Y-108013380D01*
X107033482Y-108010082D01*
X107046518Y-108008799D01*
X107052598Y-108008500D01*
X138530903Y-108008500D01*
X138597942Y-108028185D01*
X138618585Y-108044820D01*
X138665397Y-108091633D01*
X138698881Y-108152956D01*
X138701243Y-108168503D01*
X138706456Y-108228083D01*
X138706457Y-108228089D01*
X138765714Y-108449238D01*
X138765718Y-108449249D01*
X138862475Y-108656745D01*
X138862477Y-108656749D01*
X138960246Y-108796378D01*
X138982573Y-108862582D01*
X138965563Y-108930350D01*
X138914615Y-108978163D01*
X138858671Y-108991500D01*
X133052598Y-108991500D01*
X133046518Y-108991201D01*
X133000000Y-108986620D01*
X132802301Y-109006090D01*
X132669863Y-109046265D01*
X132612199Y-109063757D01*
X132612192Y-109063760D01*
X132437001Y-109157401D01*
X132436994Y-109157405D01*
X132283431Y-109283432D01*
X132253779Y-109319562D01*
X132249691Y-109324072D01*
X129184077Y-112389687D01*
X129179567Y-112393775D01*
X129143432Y-112423431D01*
X129017405Y-112576994D01*
X129017403Y-112576997D01*
X128925921Y-112748152D01*
X128923758Y-112752195D01*
X128866091Y-112942296D01*
X128846620Y-113140001D01*
X128846620Y-113140004D01*
X128851200Y-113186518D01*
X128851499Y-113192598D01*
X128851500Y-115041325D01*
X128831815Y-115108364D01*
X128818731Y-115125306D01*
X128815403Y-115128922D01*
X128784279Y-115162730D01*
X128784276Y-115162734D01*
X128693808Y-115301206D01*
X128640662Y-115346562D01*
X128571431Y-115355986D01*
X128508095Y-115326484D01*
X128486192Y-115301206D01*
X128395723Y-115162734D01*
X128395715Y-115162723D01*
X128243243Y-114997097D01*
X128243238Y-114997092D01*
X128065577Y-114858812D01*
X128065572Y-114858808D01*
X127867580Y-114751661D01*
X127867577Y-114751659D01*
X127867574Y-114751658D01*
X127867571Y-114751657D01*
X127867569Y-114751656D01*
X127654637Y-114678556D01*
X127432569Y-114641500D01*
X127207431Y-114641500D01*
X126985362Y-114678556D01*
X126772430Y-114751656D01*
X126772419Y-114751661D01*
X126574427Y-114858808D01*
X126574422Y-114858812D01*
X126396761Y-114997092D01*
X126396756Y-114997097D01*
X126244284Y-115162723D01*
X126244276Y-115162734D01*
X126153808Y-115301206D01*
X126100662Y-115346562D01*
X126031431Y-115355986D01*
X125968095Y-115326484D01*
X125946192Y-115301206D01*
X125855723Y-115162734D01*
X125855715Y-115162723D01*
X125703243Y-114997097D01*
X125703238Y-114997092D01*
X125525577Y-114858812D01*
X125525572Y-114858808D01*
X125327580Y-114751661D01*
X125327577Y-114751659D01*
X125327574Y-114751658D01*
X125327571Y-114751657D01*
X125327569Y-114751656D01*
X125114637Y-114678556D01*
X124892569Y-114641500D01*
X124667431Y-114641500D01*
X124445362Y-114678556D01*
X124232430Y-114751656D01*
X124232419Y-114751661D01*
X124034427Y-114858808D01*
X124034422Y-114858812D01*
X123856761Y-114997092D01*
X123856756Y-114997097D01*
X123704284Y-115162723D01*
X123704276Y-115162734D01*
X123613807Y-115301206D01*
X123560660Y-115346563D01*
X123491429Y-115355986D01*
X123428093Y-115326483D01*
X123406191Y-115301206D01*
X123315722Y-115162732D01*
X123315717Y-115162727D01*
X123315715Y-115162723D01*
X123163243Y-114997097D01*
X123163238Y-114997092D01*
X122985577Y-114858812D01*
X122985572Y-114858808D01*
X122787580Y-114751661D01*
X122787577Y-114751659D01*
X122787574Y-114751658D01*
X122787571Y-114751657D01*
X122787569Y-114751656D01*
X122574637Y-114678556D01*
X122352569Y-114641500D01*
X122127431Y-114641500D01*
X121905362Y-114678556D01*
X121692430Y-114751656D01*
X121692419Y-114751661D01*
X121494427Y-114858808D01*
X121494422Y-114858812D01*
X121316761Y-114997092D01*
X121316756Y-114997097D01*
X121164284Y-115162723D01*
X121164276Y-115162734D01*
X121073808Y-115301206D01*
X121020662Y-115346562D01*
X120951431Y-115355986D01*
X120888095Y-115326484D01*
X120866192Y-115301206D01*
X120775723Y-115162734D01*
X120775715Y-115162723D01*
X120623243Y-114997097D01*
X120623238Y-114997092D01*
X120445577Y-114858812D01*
X120445572Y-114858808D01*
X120247580Y-114751661D01*
X120247577Y-114751659D01*
X120247574Y-114751658D01*
X120247571Y-114751657D01*
X120247569Y-114751656D01*
X120034637Y-114678556D01*
X119812569Y-114641500D01*
X119587431Y-114641500D01*
X119365362Y-114678556D01*
X119152430Y-114751656D01*
X119152419Y-114751661D01*
X118954427Y-114858808D01*
X118954422Y-114858812D01*
X118776761Y-114997092D01*
X118776756Y-114997097D01*
X118624284Y-115162723D01*
X118624276Y-115162734D01*
X118533808Y-115301206D01*
X118480662Y-115346562D01*
X118411431Y-115355986D01*
X118348095Y-115326484D01*
X118326192Y-115301206D01*
X118235723Y-115162734D01*
X118235715Y-115162723D01*
X118083243Y-114997097D01*
X118083238Y-114997092D01*
X117905577Y-114858812D01*
X117905572Y-114858808D01*
X117707580Y-114751661D01*
X117707577Y-114751659D01*
X117707574Y-114751658D01*
X117707571Y-114751657D01*
X117707569Y-114751656D01*
X117494637Y-114678556D01*
X117272569Y-114641500D01*
X117047431Y-114641500D01*
X116825362Y-114678556D01*
X116612430Y-114751656D01*
X116612419Y-114751661D01*
X116414427Y-114858808D01*
X116414422Y-114858812D01*
X116236761Y-114997092D01*
X116236756Y-114997097D01*
X116084284Y-115162723D01*
X116084276Y-115162734D01*
X115993808Y-115301206D01*
X115940662Y-115346562D01*
X115871431Y-115355986D01*
X115808095Y-115326484D01*
X115786192Y-115301206D01*
X115695723Y-115162734D01*
X115695715Y-115162723D01*
X115543243Y-114997097D01*
X115543238Y-114997092D01*
X115365577Y-114858812D01*
X115365572Y-114858808D01*
X115167580Y-114751661D01*
X115167577Y-114751659D01*
X115167574Y-114751658D01*
X115167571Y-114751657D01*
X115167569Y-114751656D01*
X114954637Y-114678556D01*
X114732569Y-114641500D01*
X114507431Y-114641500D01*
X114285362Y-114678556D01*
X114072430Y-114751656D01*
X114072419Y-114751661D01*
X113874427Y-114858808D01*
X113874422Y-114858812D01*
X113696761Y-114997092D01*
X113696756Y-114997097D01*
X113544284Y-115162723D01*
X113544276Y-115162734D01*
X113453808Y-115301206D01*
X113400662Y-115346562D01*
X113331431Y-115355986D01*
X113268095Y-115326484D01*
X113246192Y-115301206D01*
X113155723Y-115162734D01*
X113155715Y-115162723D01*
X113003243Y-114997097D01*
X113003238Y-114997092D01*
X112825577Y-114858812D01*
X112825572Y-114858808D01*
X112627580Y-114751661D01*
X112627577Y-114751659D01*
X112627574Y-114751658D01*
X112627571Y-114751657D01*
X112627569Y-114751656D01*
X112414637Y-114678556D01*
X112192569Y-114641500D01*
X111967431Y-114641500D01*
X111745362Y-114678556D01*
X111532430Y-114751656D01*
X111532419Y-114751661D01*
X111334427Y-114858808D01*
X111334422Y-114858812D01*
X111156761Y-114997092D01*
X111156756Y-114997097D01*
X111004284Y-115162723D01*
X111004276Y-115162734D01*
X110910251Y-115306650D01*
X110857105Y-115352007D01*
X110787873Y-115361430D01*
X110724538Y-115331928D01*
X110704868Y-115309951D01*
X110578113Y-115128926D01*
X110578108Y-115128920D01*
X110411082Y-114961894D01*
X110217578Y-114826399D01*
X110003492Y-114726570D01*
X110003486Y-114726567D01*
X109790000Y-114669364D01*
X109790000Y-115387698D01*
X109770315Y-115454737D01*
X109717511Y-115500492D01*
X109648355Y-115510436D01*
X109575766Y-115500000D01*
X109575763Y-115500000D01*
X109504237Y-115500000D01*
X109504233Y-115500000D01*
X109431645Y-115510436D01*
X109362487Y-115500492D01*
X109309684Y-115454736D01*
X109290000Y-115387698D01*
X109290000Y-114669364D01*
X109289999Y-114669364D01*
X109076513Y-114726567D01*
X109076507Y-114726570D01*
X108862422Y-114826399D01*
X108862420Y-114826400D01*
X108668926Y-114961886D01*
X108668920Y-114961891D01*
X108501891Y-115128920D01*
X108501890Y-115128922D01*
X108375131Y-115309952D01*
X108320554Y-115353577D01*
X108251055Y-115360769D01*
X108188701Y-115329247D01*
X108169752Y-115306656D01*
X108075722Y-115162732D01*
X108075715Y-115162725D01*
X108075715Y-115162723D01*
X107923243Y-114997097D01*
X107923238Y-114997092D01*
X107745577Y-114858812D01*
X107745572Y-114858808D01*
X107547580Y-114751661D01*
X107547577Y-114751659D01*
X107547574Y-114751658D01*
X107547571Y-114751657D01*
X107547569Y-114751656D01*
X107334637Y-114678556D01*
X107112569Y-114641500D01*
X106887431Y-114641500D01*
X106665362Y-114678556D01*
X106452430Y-114751656D01*
X106452419Y-114751661D01*
X106254427Y-114858808D01*
X106254422Y-114858812D01*
X106076761Y-114997092D01*
X106076756Y-114997097D01*
X105924284Y-115162723D01*
X105924276Y-115162734D01*
X105801140Y-115351207D01*
X105710703Y-115557385D01*
X105655436Y-115775628D01*
X105655434Y-115775640D01*
X105636844Y-115999994D01*
X105636844Y-116000005D01*
X105655434Y-116224359D01*
X105655436Y-116224371D01*
X105710703Y-116442614D01*
X105801140Y-116648792D01*
X105924276Y-116837265D01*
X105924284Y-116837276D01*
X106050967Y-116974888D01*
X106076760Y-117002906D01*
X106254424Y-117141189D01*
X106254425Y-117141189D01*
X106254427Y-117141191D01*
X106314314Y-117173600D01*
X106452426Y-117248342D01*
X106665365Y-117321444D01*
X106887431Y-117358500D01*
X107112569Y-117358500D01*
X107334635Y-117321444D01*
X107547574Y-117248342D01*
X107745576Y-117141189D01*
X107923240Y-117002906D01*
X108044594Y-116871082D01*
X108075715Y-116837276D01*
X108075715Y-116837275D01*
X108075722Y-116837268D01*
X108169749Y-116693347D01*
X108222894Y-116647994D01*
X108292125Y-116638570D01*
X108355461Y-116668072D01*
X108375130Y-116690048D01*
X108501890Y-116871078D01*
X108668917Y-117038105D01*
X108862421Y-117173600D01*
X109076507Y-117273429D01*
X109076516Y-117273433D01*
X109290000Y-117330634D01*
X109290000Y-116612301D01*
X109309685Y-116545262D01*
X109362489Y-116499507D01*
X109431647Y-116489563D01*
X109504237Y-116500000D01*
X109504238Y-116500000D01*
X109575762Y-116500000D01*
X109575763Y-116500000D01*
X109648353Y-116489563D01*
X109717512Y-116499507D01*
X109770315Y-116545262D01*
X109790000Y-116612301D01*
X109790000Y-117330633D01*
X110003483Y-117273433D01*
X110003492Y-117273429D01*
X110217578Y-117173600D01*
X110411082Y-117038105D01*
X110578105Y-116871082D01*
X110704868Y-116690048D01*
X110759445Y-116646423D01*
X110828944Y-116639231D01*
X110891298Y-116670753D01*
X110910251Y-116693350D01*
X111004276Y-116837265D01*
X111004284Y-116837276D01*
X111130967Y-116974888D01*
X111156760Y-117002906D01*
X111334424Y-117141189D01*
X111334425Y-117141189D01*
X111334427Y-117141191D01*
X111394314Y-117173600D01*
X111532426Y-117248342D01*
X111745365Y-117321444D01*
X111967431Y-117358500D01*
X112192569Y-117358500D01*
X112414635Y-117321444D01*
X112627574Y-117248342D01*
X112825576Y-117141189D01*
X113003240Y-117002906D01*
X113124594Y-116871082D01*
X113155715Y-116837276D01*
X113155715Y-116837275D01*
X113155722Y-116837268D01*
X113246193Y-116698790D01*
X113299338Y-116653437D01*
X113368569Y-116644013D01*
X113431905Y-116673515D01*
X113453804Y-116698787D01*
X113544278Y-116837268D01*
X113544283Y-116837273D01*
X113544284Y-116837276D01*
X113670967Y-116974888D01*
X113696760Y-117002906D01*
X113874424Y-117141189D01*
X113874425Y-117141189D01*
X113874427Y-117141191D01*
X113934314Y-117173600D01*
X114072426Y-117248342D01*
X114285365Y-117321444D01*
X114507431Y-117358500D01*
X114732569Y-117358500D01*
X114954635Y-117321444D01*
X115167574Y-117248342D01*
X115365576Y-117141189D01*
X115543240Y-117002906D01*
X115664594Y-116871082D01*
X115695715Y-116837276D01*
X115695715Y-116837275D01*
X115695722Y-116837268D01*
X115786193Y-116698790D01*
X115839338Y-116653437D01*
X115908569Y-116644013D01*
X115971905Y-116673515D01*
X115993804Y-116698787D01*
X116084278Y-116837268D01*
X116084283Y-116837273D01*
X116084284Y-116837276D01*
X116210967Y-116974888D01*
X116236760Y-117002906D01*
X116414424Y-117141189D01*
X116414425Y-117141189D01*
X116414427Y-117141191D01*
X116474314Y-117173600D01*
X116612426Y-117248342D01*
X116825365Y-117321444D01*
X117047431Y-117358500D01*
X117272569Y-117358500D01*
X117494635Y-117321444D01*
X117707574Y-117248342D01*
X117905576Y-117141189D01*
X118083240Y-117002906D01*
X118204594Y-116871082D01*
X118235715Y-116837276D01*
X118235715Y-116837275D01*
X118235722Y-116837268D01*
X118326193Y-116698790D01*
X118379338Y-116653437D01*
X118448569Y-116644013D01*
X118511905Y-116673515D01*
X118533804Y-116698787D01*
X118624278Y-116837268D01*
X118658728Y-116874690D01*
X118689652Y-116937343D01*
X118691500Y-116958674D01*
X118691500Y-117830902D01*
X118671815Y-117897941D01*
X118655182Y-117918582D01*
X118618585Y-117955180D01*
X118557263Y-117988666D01*
X118530903Y-117991500D01*
X111052598Y-117991500D01*
X111046518Y-117991201D01*
X111000000Y-117986620D01*
X110802301Y-118006090D01*
X110612194Y-118063759D01*
X110530643Y-118107349D01*
X110436992Y-118157407D01*
X110283431Y-118283432D01*
X110253779Y-118319562D01*
X110249691Y-118324072D01*
X109324077Y-119249687D01*
X109319567Y-119253775D01*
X109283432Y-119283431D01*
X109157407Y-119436992D01*
X109052993Y-119632335D01*
X109053081Y-119632673D01*
X109047803Y-119664793D01*
X109032099Y-119716565D01*
X109006090Y-119802301D01*
X108986620Y-120000000D01*
X108991201Y-120046514D01*
X108991500Y-120052595D01*
X108991500Y-123947401D01*
X108991201Y-123953481D01*
X108986620Y-123999999D01*
X109006091Y-124197703D01*
X109063312Y-124386330D01*
X109063678Y-124387654D01*
X109157401Y-124562998D01*
X109157405Y-124563005D01*
X109283430Y-124716567D01*
X109319566Y-124746222D01*
X109324067Y-124750301D01*
X110173980Y-125600215D01*
X110249690Y-125675925D01*
X110253769Y-125680424D01*
X110283432Y-125716568D01*
X110321916Y-125748151D01*
X110321918Y-125748153D01*
X110326189Y-125751658D01*
X110436996Y-125842595D01*
X110498709Y-125875581D01*
X110612197Y-125936242D01*
X110802300Y-125993909D01*
X111000000Y-126013380D01*
X111033482Y-126010082D01*
X111046518Y-126008799D01*
X111052598Y-126008500D01*
X112526000Y-126008500D01*
X112593039Y-126028185D01*
X112638794Y-126080989D01*
X112650000Y-126132500D01*
X112650000Y-126750000D01*
X113386653Y-126750000D01*
X113453692Y-126769685D01*
X113499447Y-126822489D01*
X113509391Y-126891647D01*
X113505631Y-126908933D01*
X113500000Y-126928111D01*
X113500000Y-127071888D01*
X113505631Y-127091067D01*
X113505630Y-127160936D01*
X113467855Y-127219714D01*
X113404299Y-127248738D01*
X113386653Y-127250000D01*
X112650000Y-127250000D01*
X112650000Y-127897844D01*
X112656401Y-127957372D01*
X112656403Y-127957379D01*
X112706645Y-128092086D01*
X112706649Y-128092093D01*
X112792809Y-128207187D01*
X112792812Y-128207190D01*
X112907906Y-128293350D01*
X112907913Y-128293354D01*
X113042620Y-128343596D01*
X113042627Y-128343598D01*
X113102155Y-128349999D01*
X113102172Y-128350000D01*
X113750000Y-128350000D01*
X113750000Y-127612301D01*
X113769685Y-127545262D01*
X113822489Y-127499507D01*
X113891647Y-127489563D01*
X113964237Y-127500000D01*
X113964238Y-127500000D01*
X114035762Y-127500000D01*
X114035763Y-127500000D01*
X114108353Y-127489563D01*
X114177512Y-127499507D01*
X114230315Y-127545262D01*
X114250000Y-127612301D01*
X114250000Y-128350000D01*
X114897828Y-128350000D01*
X114897844Y-128349999D01*
X114957372Y-128343598D01*
X114957379Y-128343596D01*
X115092086Y-128293354D01*
X115092093Y-128293350D01*
X115207187Y-128207190D01*
X115207190Y-128207187D01*
X115293350Y-128092093D01*
X115293354Y-128092086D01*
X115339681Y-127967877D01*
X115381552Y-127911943D01*
X115447016Y-127887526D01*
X115515289Y-127902377D01*
X115547089Y-127927223D01*
X115616760Y-128002906D01*
X115794424Y-128141189D01*
X115794425Y-128141189D01*
X115794427Y-128141191D01*
X115857812Y-128175493D01*
X115992426Y-128248342D01*
X116205365Y-128321444D01*
X116427431Y-128358500D01*
X116652569Y-128358500D01*
X116874635Y-128321444D01*
X117087574Y-128248342D01*
X117285576Y-128141189D01*
X117463240Y-128002906D01*
X117569456Y-127887526D01*
X117615715Y-127837276D01*
X117615715Y-127837275D01*
X117615722Y-127837268D01*
X117706193Y-127698790D01*
X117759338Y-127653437D01*
X117828569Y-127644013D01*
X117891905Y-127673515D01*
X117913804Y-127698787D01*
X118004278Y-127837268D01*
X118004283Y-127837273D01*
X118004284Y-127837276D01*
X118156756Y-128002902D01*
X118156761Y-128002907D01*
X118170217Y-128013380D01*
X118334424Y-128141189D01*
X118334425Y-128141189D01*
X118334427Y-128141191D01*
X118397812Y-128175493D01*
X118532426Y-128248342D01*
X118745365Y-128321444D01*
X118967431Y-128358500D01*
X119192569Y-128358500D01*
X119414635Y-128321444D01*
X119627574Y-128248342D01*
X119825576Y-128141189D01*
X120003240Y-128002906D01*
X120109456Y-127887526D01*
X120155715Y-127837276D01*
X120155715Y-127837275D01*
X120155722Y-127837268D01*
X120246193Y-127698790D01*
X120299338Y-127653437D01*
X120368569Y-127644013D01*
X120431905Y-127673515D01*
X120453804Y-127698787D01*
X120544278Y-127837268D01*
X120544283Y-127837273D01*
X120544284Y-127837276D01*
X120696756Y-128002902D01*
X120696761Y-128002907D01*
X120710217Y-128013380D01*
X120874424Y-128141189D01*
X120874425Y-128141189D01*
X120874427Y-128141191D01*
X120937812Y-128175493D01*
X121072426Y-128248342D01*
X121285365Y-128321444D01*
X121507431Y-128358500D01*
X121732569Y-128358500D01*
X121954635Y-128321444D01*
X122167574Y-128248342D01*
X122365576Y-128141189D01*
X122543240Y-128002906D01*
X122649456Y-127887526D01*
X122695715Y-127837276D01*
X122695717Y-127837273D01*
X122695722Y-127837268D01*
X122818860Y-127648791D01*
X122909296Y-127442616D01*
X122964564Y-127224368D01*
X122969190Y-127168542D01*
X122983156Y-127000005D01*
X122983156Y-126999994D01*
X122964565Y-126775640D01*
X122964563Y-126775628D01*
X122909296Y-126557385D01*
X122888702Y-126510436D01*
X122818860Y-126351209D01*
X122802706Y-126326484D01*
X122720281Y-126200322D01*
X122695722Y-126162732D01*
X122695719Y-126162729D01*
X122695715Y-126162723D01*
X122543243Y-125997097D01*
X122543238Y-125997092D01*
X122365577Y-125858812D01*
X122365572Y-125858808D01*
X122167580Y-125751661D01*
X122167577Y-125751659D01*
X122167574Y-125751658D01*
X122167571Y-125751657D01*
X122167569Y-125751656D01*
X121954637Y-125678556D01*
X121732569Y-125641500D01*
X121507431Y-125641500D01*
X121285362Y-125678556D01*
X121072430Y-125751656D01*
X121072419Y-125751661D01*
X120874427Y-125858808D01*
X120874422Y-125858812D01*
X120696761Y-125997092D01*
X120696756Y-125997097D01*
X120544284Y-126162723D01*
X120544276Y-126162734D01*
X120453807Y-126301206D01*
X120400660Y-126346563D01*
X120331429Y-126355986D01*
X120268093Y-126326483D01*
X120246191Y-126301206D01*
X120155722Y-126162732D01*
X120121270Y-126125307D01*
X120090348Y-126062654D01*
X120088500Y-126041325D01*
X120088500Y-125676301D01*
X120088799Y-125670221D01*
X120093380Y-125623704D01*
X120091067Y-125600215D01*
X120073909Y-125426004D01*
X120016687Y-125237371D01*
X120016320Y-125236048D01*
X120015714Y-125234915D01*
X119922595Y-125060700D01*
X119922594Y-125060698D01*
X119796568Y-124907136D01*
X119760432Y-124877480D01*
X119755930Y-124873400D01*
X119206597Y-124324067D01*
X119202518Y-124319566D01*
X119172863Y-124283430D01*
X119019301Y-124157405D01*
X119019294Y-124157401D01*
X118844101Y-124063759D01*
X118653999Y-124006091D01*
X118522196Y-123993110D01*
X118456296Y-123986620D01*
X118456295Y-123986620D01*
X118409778Y-123991201D01*
X118403698Y-123991500D01*
X111469097Y-123991500D01*
X111402058Y-123971815D01*
X111381416Y-123955181D01*
X111044819Y-123618584D01*
X111011334Y-123557261D01*
X111008500Y-123530903D01*
X111008500Y-120469096D01*
X111028185Y-120402057D01*
X111044819Y-120381415D01*
X111381416Y-120044819D01*
X111442739Y-120011334D01*
X111469097Y-120008500D01*
X118947402Y-120008500D01*
X118953482Y-120008799D01*
X118967511Y-120010180D01*
X119000000Y-120013380D01*
X119197701Y-119993909D01*
X119387804Y-119936241D01*
X119387803Y-119936240D01*
X119409650Y-119929614D01*
X119409826Y-119929315D01*
X119436274Y-119910332D01*
X119563004Y-119842595D01*
X119716568Y-119716568D01*
X119746238Y-119680413D01*
X119750288Y-119675944D01*
X120375934Y-119050299D01*
X120380424Y-119046229D01*
X120399356Y-119030692D01*
X120408837Y-119022913D01*
X120473148Y-118995601D01*
X120542015Y-119007395D01*
X120593574Y-119054548D01*
X120611499Y-119118768D01*
X120611499Y-121041325D01*
X120591814Y-121108364D01*
X120578729Y-121125307D01*
X120544284Y-121162723D01*
X120544276Y-121162734D01*
X120453808Y-121301206D01*
X120400662Y-121346562D01*
X120331431Y-121355986D01*
X120268095Y-121326484D01*
X120246192Y-121301206D01*
X120155723Y-121162734D01*
X120155715Y-121162723D01*
X120003243Y-120997097D01*
X120003238Y-120997092D01*
X119825577Y-120858812D01*
X119825572Y-120858808D01*
X119627580Y-120751661D01*
X119627577Y-120751659D01*
X119627574Y-120751658D01*
X119627571Y-120751657D01*
X119627569Y-120751656D01*
X119414637Y-120678556D01*
X119192569Y-120641500D01*
X118967431Y-120641500D01*
X118745362Y-120678556D01*
X118532430Y-120751656D01*
X118532419Y-120751661D01*
X118334427Y-120858808D01*
X118334422Y-120858812D01*
X118156761Y-120997092D01*
X118156756Y-120997097D01*
X118004284Y-121162723D01*
X118004276Y-121162734D01*
X117913808Y-121301206D01*
X117860662Y-121346562D01*
X117791431Y-121355986D01*
X117728095Y-121326484D01*
X117706192Y-121301206D01*
X117615723Y-121162734D01*
X117615715Y-121162723D01*
X117463243Y-120997097D01*
X117463238Y-120997092D01*
X117285577Y-120858812D01*
X117285572Y-120858808D01*
X117087580Y-120751661D01*
X117087577Y-120751659D01*
X117087574Y-120751658D01*
X117087571Y-120751657D01*
X117087569Y-120751656D01*
X116874637Y-120678556D01*
X116652569Y-120641500D01*
X116427431Y-120641500D01*
X116205362Y-120678556D01*
X115992430Y-120751656D01*
X115992419Y-120751661D01*
X115794427Y-120858808D01*
X115794422Y-120858812D01*
X115616761Y-120997092D01*
X115547092Y-121072773D01*
X115487205Y-121108763D01*
X115417367Y-121106662D01*
X115359751Y-121067137D01*
X115339681Y-121032122D01*
X115293354Y-120907913D01*
X115293350Y-120907906D01*
X115207190Y-120792812D01*
X115207187Y-120792809D01*
X115092093Y-120706649D01*
X115092086Y-120706645D01*
X114957379Y-120656403D01*
X114957372Y-120656401D01*
X114897844Y-120650000D01*
X114250000Y-120650000D01*
X114250000Y-121387698D01*
X114230315Y-121454737D01*
X114177511Y-121500492D01*
X114108355Y-121510436D01*
X114035766Y-121500000D01*
X114035763Y-121500000D01*
X113964237Y-121500000D01*
X113964233Y-121500000D01*
X113891645Y-121510436D01*
X113822487Y-121500492D01*
X113769684Y-121454736D01*
X113750000Y-121387698D01*
X113750000Y-120650000D01*
X113102155Y-120650000D01*
X113042627Y-120656401D01*
X113042620Y-120656403D01*
X112907913Y-120706645D01*
X112907906Y-120706649D01*
X112792812Y-120792809D01*
X112792809Y-120792812D01*
X112706649Y-120907906D01*
X112706645Y-120907913D01*
X112656403Y-121042620D01*
X112656401Y-121042627D01*
X112650000Y-121102155D01*
X112650000Y-121750000D01*
X113386653Y-121750000D01*
X113453692Y-121769685D01*
X113499447Y-121822489D01*
X113509391Y-121891647D01*
X113505631Y-121908933D01*
X113500000Y-121928111D01*
X113500000Y-122071888D01*
X113505631Y-122091067D01*
X113505630Y-122160936D01*
X113467855Y-122219714D01*
X113404299Y-122248738D01*
X113386653Y-122250000D01*
X112650000Y-122250000D01*
X112650000Y-122897844D01*
X112656401Y-122957372D01*
X112656403Y-122957379D01*
X112706645Y-123092086D01*
X112706649Y-123092093D01*
X112792809Y-123207187D01*
X112792812Y-123207190D01*
X112907906Y-123293350D01*
X112907913Y-123293354D01*
X113042620Y-123343596D01*
X113042627Y-123343598D01*
X113102155Y-123349999D01*
X113102172Y-123350000D01*
X113750000Y-123350000D01*
X113750000Y-122612301D01*
X113769685Y-122545262D01*
X113822489Y-122499507D01*
X113891647Y-122489563D01*
X113964237Y-122500000D01*
X113964238Y-122500000D01*
X114035762Y-122500000D01*
X114035763Y-122500000D01*
X114108353Y-122489563D01*
X114177512Y-122499507D01*
X114230315Y-122545262D01*
X114250000Y-122612301D01*
X114250000Y-123350000D01*
X114897828Y-123350000D01*
X114897844Y-123349999D01*
X114957372Y-123343598D01*
X114957379Y-123343596D01*
X115092086Y-123293354D01*
X115092093Y-123293350D01*
X115207187Y-123207190D01*
X115207190Y-123207187D01*
X115293350Y-123092093D01*
X115293354Y-123092086D01*
X115339681Y-122967877D01*
X115381552Y-122911943D01*
X115447016Y-122887526D01*
X115515289Y-122902377D01*
X115547089Y-122927223D01*
X115616760Y-123002906D01*
X115794424Y-123141189D01*
X115794425Y-123141189D01*
X115794427Y-123141191D01*
X115916378Y-123207187D01*
X115992426Y-123248342D01*
X116205365Y-123321444D01*
X116427431Y-123358500D01*
X116652569Y-123358500D01*
X116874635Y-123321444D01*
X117087574Y-123248342D01*
X117285576Y-123141189D01*
X117463240Y-123002906D01*
X117615722Y-122837268D01*
X117706193Y-122698790D01*
X117759338Y-122653437D01*
X117828569Y-122644013D01*
X117891905Y-122673515D01*
X117913804Y-122698787D01*
X118004278Y-122837268D01*
X118004283Y-122837273D01*
X118004284Y-122837276D01*
X118124513Y-122967877D01*
X118156760Y-123002906D01*
X118334424Y-123141189D01*
X118334425Y-123141189D01*
X118334427Y-123141191D01*
X118456378Y-123207187D01*
X118532426Y-123248342D01*
X118745365Y-123321444D01*
X118967431Y-123358500D01*
X119192569Y-123358500D01*
X119414635Y-123321444D01*
X119627574Y-123248342D01*
X119825576Y-123141189D01*
X120003240Y-123002906D01*
X120155722Y-122837268D01*
X120246193Y-122698790D01*
X120299338Y-122653437D01*
X120368569Y-122644013D01*
X120431905Y-122673515D01*
X120453804Y-122698787D01*
X120544278Y-122837268D01*
X120544283Y-122837273D01*
X120544284Y-122837276D01*
X120664513Y-122967877D01*
X120696760Y-123002906D01*
X120874424Y-123141189D01*
X120874425Y-123141189D01*
X120874427Y-123141191D01*
X120996378Y-123207187D01*
X121072426Y-123248342D01*
X121285365Y-123321444D01*
X121507431Y-123358500D01*
X121732569Y-123358500D01*
X121954635Y-123321444D01*
X122167574Y-123248342D01*
X122365576Y-123141189D01*
X122543240Y-123002906D01*
X122695722Y-122837268D01*
X122818860Y-122648791D01*
X122909296Y-122442616D01*
X122964564Y-122224368D01*
X122965768Y-122209844D01*
X122983156Y-122000005D01*
X122983156Y-121999994D01*
X122964565Y-121775640D01*
X122964563Y-121775628D01*
X122909296Y-121557385D01*
X122888702Y-121510436D01*
X122818860Y-121351209D01*
X122802706Y-121326484D01*
X122695723Y-121162734D01*
X122695722Y-121162732D01*
X122661270Y-121125307D01*
X122630348Y-121062654D01*
X122628500Y-121041325D01*
X122628500Y-118849094D01*
X122648185Y-118782055D01*
X122664814Y-118761418D01*
X122915944Y-118510288D01*
X122920413Y-118506238D01*
X122956568Y-118476568D01*
X123082595Y-118323004D01*
X123176241Y-118147804D01*
X123233908Y-117957701D01*
X123248500Y-117809547D01*
X123253380Y-117760000D01*
X123248799Y-117713485D01*
X123248500Y-117707404D01*
X123248500Y-116958674D01*
X123268185Y-116891635D01*
X123281267Y-116874694D01*
X123315722Y-116837268D01*
X123406193Y-116698790D01*
X123459338Y-116653437D01*
X123528569Y-116644013D01*
X123591905Y-116673515D01*
X123613804Y-116698787D01*
X123704278Y-116837268D01*
X123704283Y-116837273D01*
X123704284Y-116837276D01*
X123738728Y-116874691D01*
X123769651Y-116937345D01*
X123771499Y-116958674D01*
X123771500Y-117727401D01*
X123771201Y-117733481D01*
X123766620Y-117779999D01*
X123786091Y-117977703D01*
X123843312Y-118166330D01*
X123843678Y-118167654D01*
X123937401Y-118342998D01*
X123937405Y-118343005D01*
X124063430Y-118496567D01*
X124099566Y-118526222D01*
X124104067Y-118530301D01*
X125010757Y-119436992D01*
X125249690Y-119675925D01*
X125253769Y-119680424D01*
X125283430Y-119716565D01*
X125283434Y-119716570D01*
X125436994Y-119842594D01*
X125436996Y-119842595D01*
X125530642Y-119892650D01*
X125612197Y-119936242D01*
X125802300Y-119993909D01*
X125802299Y-119993909D01*
X125820025Y-119995654D01*
X126000000Y-120013381D01*
X126033952Y-120010036D01*
X126046525Y-120008799D01*
X126052606Y-120008500D01*
X134272985Y-120008500D01*
X134340024Y-120028185D01*
X134360666Y-120044819D01*
X135398726Y-121082879D01*
X135432211Y-121144202D01*
X135427227Y-121213894D01*
X135414853Y-121238383D01*
X135373807Y-121301207D01*
X135320660Y-121346563D01*
X135251429Y-121355986D01*
X135188093Y-121326483D01*
X135166191Y-121301206D01*
X135075722Y-121162732D01*
X135075717Y-121162727D01*
X135075715Y-121162723D01*
X134923243Y-120997097D01*
X134923238Y-120997092D01*
X134745577Y-120858812D01*
X134745572Y-120858808D01*
X134547580Y-120751661D01*
X134547577Y-120751659D01*
X134547574Y-120751658D01*
X134547571Y-120751657D01*
X134547569Y-120751656D01*
X134334637Y-120678556D01*
X134112569Y-120641500D01*
X133887431Y-120641500D01*
X133665362Y-120678556D01*
X133452430Y-120751656D01*
X133452419Y-120751661D01*
X133254427Y-120858808D01*
X133254422Y-120858812D01*
X133076761Y-120997092D01*
X133076756Y-120997097D01*
X132924284Y-121162723D01*
X132924276Y-121162734D01*
X132833808Y-121301206D01*
X132780662Y-121346562D01*
X132711431Y-121355986D01*
X132648095Y-121326484D01*
X132626192Y-121301206D01*
X132535723Y-121162734D01*
X132535715Y-121162723D01*
X132383243Y-120997097D01*
X132383238Y-120997092D01*
X132205577Y-120858812D01*
X132205572Y-120858808D01*
X132007580Y-120751661D01*
X132007577Y-120751659D01*
X132007574Y-120751658D01*
X132007571Y-120751657D01*
X132007569Y-120751656D01*
X131794637Y-120678556D01*
X131572569Y-120641500D01*
X131347431Y-120641500D01*
X131125362Y-120678556D01*
X130912430Y-120751656D01*
X130912419Y-120751661D01*
X130714427Y-120858808D01*
X130714422Y-120858812D01*
X130536761Y-120997092D01*
X130467092Y-121072773D01*
X130407205Y-121108763D01*
X130337367Y-121106662D01*
X130279751Y-121067137D01*
X130259681Y-121032122D01*
X130213354Y-120907913D01*
X130213350Y-120907906D01*
X130127190Y-120792812D01*
X130127187Y-120792809D01*
X130012093Y-120706649D01*
X130012086Y-120706645D01*
X129877379Y-120656403D01*
X129877372Y-120656401D01*
X129817844Y-120650000D01*
X129170000Y-120650000D01*
X129169999Y-121387698D01*
X129150314Y-121454738D01*
X129097510Y-121500492D01*
X129028353Y-121510436D01*
X128955764Y-121500000D01*
X128955763Y-121500000D01*
X128884237Y-121500000D01*
X128884233Y-121500000D01*
X128811645Y-121510436D01*
X128742487Y-121500492D01*
X128689684Y-121454736D01*
X128670000Y-121387698D01*
X128670000Y-120650000D01*
X128022155Y-120650000D01*
X127962627Y-120656401D01*
X127962620Y-120656403D01*
X127827913Y-120706645D01*
X127827906Y-120706649D01*
X127712812Y-120792809D01*
X127712809Y-120792812D01*
X127626649Y-120907906D01*
X127626645Y-120907913D01*
X127576403Y-121042620D01*
X127576401Y-121042627D01*
X127570000Y-121102155D01*
X127570000Y-121750000D01*
X128306653Y-121750000D01*
X128373692Y-121769685D01*
X128419447Y-121822489D01*
X128429391Y-121891647D01*
X128425631Y-121908933D01*
X128420000Y-121928111D01*
X128420000Y-122071888D01*
X128425631Y-122091067D01*
X128425630Y-122160936D01*
X128387855Y-122219714D01*
X128324299Y-122248738D01*
X128306653Y-122250000D01*
X127570000Y-122250000D01*
X127570000Y-122897844D01*
X127576401Y-122957372D01*
X127576403Y-122957379D01*
X127626645Y-123092086D01*
X127626649Y-123092093D01*
X127712809Y-123207187D01*
X127712812Y-123207190D01*
X127827906Y-123293350D01*
X127827913Y-123293354D01*
X127962620Y-123343596D01*
X127962627Y-123343598D01*
X128022155Y-123349999D01*
X128022172Y-123350000D01*
X128670000Y-123350000D01*
X128670000Y-122612301D01*
X128689685Y-122545262D01*
X128742489Y-122499507D01*
X128811647Y-122489563D01*
X128884237Y-122500000D01*
X128884238Y-122500000D01*
X128955762Y-122500000D01*
X128955763Y-122500000D01*
X129028353Y-122489563D01*
X129097512Y-122499507D01*
X129150315Y-122545262D01*
X129170000Y-122612301D01*
X129170000Y-123350000D01*
X129817828Y-123350000D01*
X129817844Y-123349999D01*
X129877372Y-123343598D01*
X129877379Y-123343596D01*
X130012086Y-123293354D01*
X130012093Y-123293350D01*
X130127187Y-123207190D01*
X130127190Y-123207187D01*
X130213350Y-123092093D01*
X130213354Y-123092086D01*
X130259681Y-122967877D01*
X130301552Y-122911943D01*
X130367016Y-122887526D01*
X130435289Y-122902377D01*
X130467089Y-122927223D01*
X130536760Y-123002906D01*
X130714424Y-123141189D01*
X130714425Y-123141189D01*
X130714427Y-123141191D01*
X130836378Y-123207187D01*
X130912426Y-123248342D01*
X131125365Y-123321444D01*
X131347431Y-123358500D01*
X131572569Y-123358500D01*
X131794635Y-123321444D01*
X132007574Y-123248342D01*
X132205576Y-123141189D01*
X132383240Y-123002906D01*
X132535722Y-122837268D01*
X132626193Y-122698790D01*
X132679338Y-122653437D01*
X132748569Y-122644013D01*
X132811905Y-122673515D01*
X132833804Y-122698787D01*
X132924278Y-122837268D01*
X132924283Y-122837273D01*
X132924284Y-122837276D01*
X133044513Y-122967877D01*
X133076760Y-123002906D01*
X133254424Y-123141189D01*
X133254425Y-123141189D01*
X133254427Y-123141191D01*
X133376378Y-123207187D01*
X133452426Y-123248342D01*
X133665365Y-123321444D01*
X133887431Y-123358500D01*
X134112569Y-123358500D01*
X134334635Y-123321444D01*
X134547574Y-123248342D01*
X134745576Y-123141189D01*
X134923240Y-123002906D01*
X135075722Y-122837268D01*
X135166193Y-122698791D01*
X135219336Y-122653437D01*
X135288567Y-122644013D01*
X135351903Y-122673515D01*
X135373807Y-122698793D01*
X135464276Y-122837265D01*
X135464284Y-122837276D01*
X135584513Y-122967877D01*
X135616760Y-123002906D01*
X135794424Y-123141189D01*
X135794425Y-123141189D01*
X135794427Y-123141191D01*
X135916378Y-123207187D01*
X135992426Y-123248342D01*
X136205365Y-123321444D01*
X136427431Y-123358500D01*
X136652569Y-123358500D01*
X136874635Y-123321444D01*
X137087574Y-123248342D01*
X137285576Y-123141189D01*
X137463240Y-123002906D01*
X137615722Y-122837268D01*
X137738860Y-122648791D01*
X137829296Y-122442616D01*
X137884564Y-122224368D01*
X137885768Y-122209844D01*
X137903156Y-122000005D01*
X137903156Y-121999994D01*
X137884565Y-121775640D01*
X137884563Y-121775628D01*
X137829296Y-121557385D01*
X137808702Y-121510436D01*
X137738860Y-121351209D01*
X137722706Y-121326484D01*
X137615723Y-121162734D01*
X137615722Y-121162732D01*
X137581270Y-121125307D01*
X137550348Y-121062654D01*
X137548500Y-121041325D01*
X137548500Y-120850513D01*
X137548799Y-120844432D01*
X137549763Y-120834638D01*
X137553380Y-120797919D01*
X137533908Y-120600218D01*
X137476241Y-120410115D01*
X137471934Y-120402057D01*
X137466590Y-120392059D01*
X137382596Y-120234916D01*
X137382594Y-120234913D01*
X137256568Y-120081351D01*
X137220432Y-120051695D01*
X137215930Y-120047615D01*
X135492382Y-118324067D01*
X135488303Y-118319566D01*
X135458648Y-118283430D01*
X135305086Y-118157405D01*
X135305079Y-118157401D01*
X135129892Y-118063762D01*
X135129885Y-118063759D01*
X134939784Y-118006091D01*
X134807981Y-117993110D01*
X134742081Y-117986620D01*
X134742080Y-117986620D01*
X134695563Y-117991201D01*
X134689483Y-117991500D01*
X126469097Y-117991500D01*
X126402058Y-117971815D01*
X126381416Y-117955181D01*
X125824819Y-117398584D01*
X125791334Y-117337261D01*
X125788500Y-117310903D01*
X125788500Y-117141187D01*
X125788500Y-116958670D01*
X125808183Y-116891635D01*
X125821262Y-116874699D01*
X125855722Y-116837268D01*
X125946193Y-116698790D01*
X125999338Y-116653437D01*
X126068569Y-116644013D01*
X126131905Y-116673515D01*
X126153804Y-116698787D01*
X126244278Y-116837268D01*
X126244283Y-116837273D01*
X126244284Y-116837276D01*
X126370967Y-116974888D01*
X126396760Y-117002906D01*
X126574424Y-117141189D01*
X126574425Y-117141189D01*
X126574427Y-117141191D01*
X126634314Y-117173600D01*
X126772426Y-117248342D01*
X126985365Y-117321444D01*
X127207431Y-117358500D01*
X127432569Y-117358500D01*
X127654635Y-117321444D01*
X127867574Y-117248342D01*
X128065576Y-117141189D01*
X128243240Y-117002906D01*
X128364594Y-116871082D01*
X128395715Y-116837276D01*
X128395715Y-116837275D01*
X128395722Y-116837268D01*
X128486193Y-116698790D01*
X128539338Y-116653437D01*
X128608569Y-116644013D01*
X128671905Y-116673515D01*
X128693804Y-116698787D01*
X128784278Y-116837268D01*
X128784283Y-116837273D01*
X128784284Y-116837276D01*
X128910967Y-116974888D01*
X128936760Y-117002906D01*
X129114424Y-117141189D01*
X129114425Y-117141189D01*
X129114427Y-117141191D01*
X129174314Y-117173600D01*
X129312426Y-117248342D01*
X129525365Y-117321444D01*
X129747431Y-117358500D01*
X129972569Y-117358500D01*
X130194635Y-117321444D01*
X130407574Y-117248342D01*
X130605576Y-117141189D01*
X130783240Y-117002906D01*
X130904594Y-116871082D01*
X130935715Y-116837276D01*
X130935715Y-116837275D01*
X130935722Y-116837268D01*
X131026193Y-116698790D01*
X131079338Y-116653437D01*
X131148569Y-116644013D01*
X131211905Y-116673515D01*
X131233804Y-116698787D01*
X131324278Y-116837268D01*
X131324283Y-116837273D01*
X131324284Y-116837276D01*
X131450967Y-116974888D01*
X131476760Y-117002906D01*
X131654424Y-117141189D01*
X131654425Y-117141189D01*
X131654427Y-117141191D01*
X131714314Y-117173600D01*
X131852426Y-117248342D01*
X132065365Y-117321444D01*
X132287431Y-117358500D01*
X132512569Y-117358500D01*
X132734635Y-117321444D01*
X132947574Y-117248342D01*
X133145576Y-117141189D01*
X133323240Y-117002906D01*
X133444594Y-116871082D01*
X133475715Y-116837276D01*
X133475715Y-116837275D01*
X133475722Y-116837268D01*
X133566193Y-116698790D01*
X133619338Y-116653437D01*
X133688569Y-116644013D01*
X133751905Y-116673515D01*
X133773804Y-116698787D01*
X133864278Y-116837268D01*
X133864283Y-116837273D01*
X133864284Y-116837276D01*
X133990967Y-116974888D01*
X134016760Y-117002906D01*
X134194424Y-117141189D01*
X134194425Y-117141189D01*
X134194427Y-117141191D01*
X134254314Y-117173600D01*
X134392426Y-117248342D01*
X134605365Y-117321444D01*
X134827431Y-117358500D01*
X135052569Y-117358500D01*
X135274635Y-117321444D01*
X135487574Y-117248342D01*
X135685576Y-117141189D01*
X135863240Y-117002906D01*
X135984594Y-116871082D01*
X136015715Y-116837276D01*
X136015715Y-116837275D01*
X136015722Y-116837268D01*
X136106193Y-116698790D01*
X136159338Y-116653437D01*
X136228569Y-116644013D01*
X136291905Y-116673515D01*
X136313804Y-116698787D01*
X136404278Y-116837268D01*
X136404283Y-116837273D01*
X136404284Y-116837276D01*
X136530967Y-116974888D01*
X136556760Y-117002906D01*
X136734424Y-117141189D01*
X136734425Y-117141189D01*
X136734427Y-117141191D01*
X136794314Y-117173600D01*
X136932426Y-117248342D01*
X137145365Y-117321444D01*
X137367431Y-117358500D01*
X137592569Y-117358500D01*
X137814635Y-117321444D01*
X138027574Y-117248342D01*
X138225576Y-117141189D01*
X138403240Y-117002906D01*
X138524594Y-116871082D01*
X138555715Y-116837276D01*
X138555715Y-116837275D01*
X138555722Y-116837268D01*
X138646193Y-116698790D01*
X138699338Y-116653437D01*
X138768569Y-116644013D01*
X138831905Y-116673515D01*
X138853804Y-116698787D01*
X138944278Y-116837268D01*
X138944283Y-116837273D01*
X138944284Y-116837276D01*
X139070967Y-116974888D01*
X139096760Y-117002906D01*
X139274424Y-117141189D01*
X139274425Y-117141189D01*
X139274427Y-117141191D01*
X139334314Y-117173600D01*
X139472426Y-117248342D01*
X139685365Y-117321444D01*
X139907431Y-117358500D01*
X140132569Y-117358500D01*
X140354635Y-117321444D01*
X140567574Y-117248342D01*
X140765576Y-117141189D01*
X140943240Y-117002906D01*
X141006452Y-116934239D01*
X141066337Y-116898250D01*
X141136175Y-116900349D01*
X141193791Y-116939873D01*
X141213861Y-116974888D01*
X141259110Y-117096203D01*
X141259111Y-117096204D01*
X141346739Y-117213261D01*
X141463796Y-117300889D01*
X141600799Y-117351989D01*
X141628050Y-117354918D01*
X141661345Y-117358499D01*
X141661362Y-117358500D01*
X143458638Y-117358500D01*
X143458654Y-117358499D01*
X143485692Y-117355591D01*
X143519201Y-117351989D01*
X143656204Y-117300889D01*
X143773261Y-117213261D01*
X143860889Y-117096204D01*
X143911989Y-116959201D01*
X143915591Y-116925692D01*
X143918499Y-116898654D01*
X143918500Y-116898637D01*
X143918500Y-115101362D01*
X143918499Y-115101345D01*
X143914339Y-115062656D01*
X143911989Y-115040799D01*
X143860889Y-114903796D01*
X143773261Y-114786739D01*
X143656204Y-114699111D01*
X143656203Y-114699110D01*
X143519203Y-114648011D01*
X143458654Y-114641500D01*
X143458638Y-114641500D01*
X141661362Y-114641500D01*
X141661345Y-114641500D01*
X141600797Y-114648011D01*
X141600795Y-114648011D01*
X141463795Y-114699111D01*
X141346739Y-114786739D01*
X141259111Y-114903795D01*
X141213861Y-115025111D01*
X141171989Y-115081044D01*
X141106524Y-115105460D01*
X141038252Y-115090607D01*
X141006454Y-115065762D01*
X140943240Y-114997094D01*
X140765576Y-114858811D01*
X140765575Y-114858810D01*
X140765572Y-114858808D01*
X140567580Y-114751661D01*
X140567577Y-114751659D01*
X140567574Y-114751658D01*
X140567571Y-114751657D01*
X140567569Y-114751656D01*
X140354637Y-114678556D01*
X140132569Y-114641500D01*
X139907431Y-114641500D01*
X139685362Y-114678556D01*
X139472430Y-114751656D01*
X139472419Y-114751661D01*
X139274427Y-114858808D01*
X139274422Y-114858812D01*
X139096761Y-114997092D01*
X139096756Y-114997097D01*
X138944284Y-115162723D01*
X138944276Y-115162734D01*
X138853808Y-115301206D01*
X138800662Y-115346562D01*
X138731431Y-115355986D01*
X138668095Y-115326484D01*
X138646192Y-115301206D01*
X138555723Y-115162734D01*
X138555715Y-115162723D01*
X138403243Y-114997097D01*
X138403238Y-114997092D01*
X138225577Y-114858812D01*
X138225572Y-114858808D01*
X138027580Y-114751661D01*
X138027577Y-114751659D01*
X138027574Y-114751658D01*
X138027571Y-114751657D01*
X138027569Y-114751656D01*
X137814637Y-114678556D01*
X137592569Y-114641500D01*
X137367431Y-114641500D01*
X137145362Y-114678556D01*
X136932430Y-114751656D01*
X136932419Y-114751661D01*
X136734427Y-114858808D01*
X136734422Y-114858812D01*
X136556761Y-114997092D01*
X136556756Y-114997097D01*
X136404284Y-115162723D01*
X136404276Y-115162734D01*
X136313808Y-115301206D01*
X136260662Y-115346562D01*
X136191431Y-115355986D01*
X136128095Y-115326484D01*
X136106192Y-115301206D01*
X136015723Y-115162734D01*
X136015715Y-115162723D01*
X135863243Y-114997097D01*
X135863238Y-114997092D01*
X135685577Y-114858812D01*
X135685572Y-114858808D01*
X135487580Y-114751661D01*
X135487577Y-114751659D01*
X135487574Y-114751658D01*
X135487571Y-114751657D01*
X135487569Y-114751656D01*
X135274637Y-114678556D01*
X135052569Y-114641500D01*
X134827431Y-114641500D01*
X134605362Y-114678556D01*
X134392430Y-114751656D01*
X134392419Y-114751661D01*
X134194427Y-114858808D01*
X134194422Y-114858812D01*
X134016761Y-114997092D01*
X134016756Y-114997097D01*
X133864284Y-115162723D01*
X133864276Y-115162734D01*
X133773807Y-115301206D01*
X133720660Y-115346563D01*
X133651429Y-115355986D01*
X133588093Y-115326483D01*
X133566191Y-115301206D01*
X133475722Y-115162732D01*
X133475717Y-115162727D01*
X133475715Y-115162723D01*
X133323243Y-114997097D01*
X133323238Y-114997092D01*
X133145577Y-114858812D01*
X133145572Y-114858808D01*
X132947580Y-114751661D01*
X132947577Y-114751659D01*
X132947574Y-114751658D01*
X132947571Y-114751657D01*
X132947569Y-114751656D01*
X132734637Y-114678556D01*
X132512569Y-114641500D01*
X132287431Y-114641500D01*
X132065362Y-114678556D01*
X131852430Y-114751656D01*
X131852419Y-114751661D01*
X131654427Y-114858808D01*
X131654422Y-114858812D01*
X131476761Y-114997092D01*
X131476756Y-114997097D01*
X131324284Y-115162723D01*
X131324276Y-115162734D01*
X131233808Y-115301206D01*
X131180662Y-115346562D01*
X131111431Y-115355986D01*
X131048095Y-115326484D01*
X131026192Y-115301206D01*
X130935723Y-115162734D01*
X130935722Y-115162732D01*
X130901269Y-115125306D01*
X130870347Y-115062656D01*
X130868499Y-115041336D01*
X130868499Y-113609094D01*
X130888184Y-113542056D01*
X130904813Y-113521419D01*
X133381415Y-111044819D01*
X133442739Y-111011334D01*
X133469097Y-111008500D01*
X142409584Y-111008500D01*
X142476623Y-111028185D01*
X142497265Y-111044819D01*
X144455181Y-113002735D01*
X144488666Y-113064058D01*
X144491500Y-113090416D01*
X144491500Y-118909583D01*
X144471815Y-118976622D01*
X144455181Y-118997264D01*
X139557925Y-123894521D01*
X139496602Y-123928006D01*
X139470244Y-123930840D01*
X134991177Y-123930840D01*
X134985097Y-123930541D01*
X134938579Y-123925960D01*
X134740880Y-123945430D01*
X134560993Y-123999999D01*
X134550772Y-124003099D01*
X134375580Y-124096741D01*
X134375573Y-124096745D01*
X134222010Y-124222772D01*
X134192354Y-124258907D01*
X134188266Y-124263417D01*
X133404077Y-125047606D01*
X133399567Y-125051694D01*
X133363432Y-125081350D01*
X133237405Y-125234913D01*
X133237401Y-125234920D01*
X133143759Y-125410113D01*
X133086091Y-125600215D01*
X133066620Y-125797919D01*
X133071201Y-125844436D01*
X133071500Y-125850516D01*
X133071500Y-126041325D01*
X133051815Y-126108364D01*
X133038729Y-126125309D01*
X133004279Y-126162730D01*
X133004276Y-126162734D01*
X132913808Y-126301206D01*
X132860662Y-126346562D01*
X132791431Y-126355986D01*
X132728095Y-126326484D01*
X132706192Y-126301206D01*
X132640281Y-126200322D01*
X132615722Y-126162732D01*
X132615719Y-126162729D01*
X132615715Y-126162723D01*
X132463243Y-125997097D01*
X132463238Y-125997092D01*
X132285577Y-125858812D01*
X132285572Y-125858808D01*
X132087580Y-125751661D01*
X132087577Y-125751659D01*
X132087574Y-125751658D01*
X132087571Y-125751657D01*
X132087569Y-125751656D01*
X131874637Y-125678556D01*
X131652569Y-125641500D01*
X131427431Y-125641500D01*
X131205362Y-125678556D01*
X130992430Y-125751656D01*
X130992419Y-125751661D01*
X130794427Y-125858808D01*
X130794422Y-125858812D01*
X130616761Y-125997092D01*
X130547092Y-126072773D01*
X130487205Y-126108763D01*
X130417367Y-126106662D01*
X130359751Y-126067137D01*
X130339681Y-126032122D01*
X130293354Y-125907913D01*
X130293350Y-125907906D01*
X130207190Y-125792812D01*
X130207187Y-125792809D01*
X130092093Y-125706649D01*
X130092086Y-125706645D01*
X129957379Y-125656403D01*
X129957372Y-125656401D01*
X129897844Y-125650000D01*
X129250000Y-125650000D01*
X129250000Y-126387698D01*
X129230315Y-126454737D01*
X129177511Y-126500492D01*
X129108355Y-126510436D01*
X129035766Y-126500000D01*
X129035763Y-126500000D01*
X128964237Y-126500000D01*
X128964233Y-126500000D01*
X128891645Y-126510436D01*
X128822487Y-126500492D01*
X128769684Y-126454736D01*
X128750000Y-126387698D01*
X128750000Y-125650000D01*
X128102155Y-125650000D01*
X128042627Y-125656401D01*
X128042620Y-125656403D01*
X127907913Y-125706645D01*
X127907906Y-125706649D01*
X127792812Y-125792809D01*
X127792809Y-125792812D01*
X127706649Y-125907906D01*
X127706645Y-125907913D01*
X127656404Y-126042617D01*
X127656401Y-126042627D01*
X127650000Y-126102155D01*
X127650000Y-126750000D01*
X128386653Y-126750000D01*
X128453692Y-126769685D01*
X128499447Y-126822489D01*
X128509391Y-126891647D01*
X128505631Y-126908933D01*
X128500000Y-126928111D01*
X128500000Y-127071888D01*
X128505631Y-127091067D01*
X128505630Y-127160936D01*
X128467855Y-127219714D01*
X128404299Y-127248738D01*
X128386653Y-127250000D01*
X127650000Y-127250000D01*
X127650000Y-127897844D01*
X127656401Y-127957372D01*
X127656403Y-127957379D01*
X127706645Y-128092086D01*
X127706649Y-128092093D01*
X127792809Y-128207187D01*
X127792812Y-128207190D01*
X127907906Y-128293350D01*
X127907913Y-128293354D01*
X128042620Y-128343596D01*
X128042627Y-128343598D01*
X128102155Y-128349999D01*
X128102172Y-128350000D01*
X128750000Y-128350000D01*
X128750000Y-127612301D01*
X128769685Y-127545262D01*
X128822489Y-127499507D01*
X128891647Y-127489563D01*
X128964237Y-127500000D01*
X128964238Y-127500000D01*
X129035762Y-127500000D01*
X129035763Y-127500000D01*
X129108353Y-127489563D01*
X129177512Y-127499507D01*
X129230315Y-127545262D01*
X129250000Y-127612301D01*
X129250000Y-128350000D01*
X129897828Y-128350000D01*
X129897844Y-128349999D01*
X129957372Y-128343598D01*
X129957379Y-128343596D01*
X130092086Y-128293354D01*
X130092093Y-128293350D01*
X130207187Y-128207190D01*
X130207190Y-128207187D01*
X130293350Y-128092093D01*
X130293354Y-128092086D01*
X130339681Y-127967877D01*
X130381552Y-127911943D01*
X130447016Y-127887526D01*
X130515289Y-127902377D01*
X130547089Y-127927223D01*
X130616760Y-128002906D01*
X130794424Y-128141189D01*
X130794425Y-128141189D01*
X130794427Y-128141191D01*
X130857812Y-128175493D01*
X130992426Y-128248342D01*
X131205365Y-128321444D01*
X131427431Y-128358500D01*
X131652569Y-128358500D01*
X131874635Y-128321444D01*
X132087574Y-128248342D01*
X132285576Y-128141189D01*
X132463240Y-128002906D01*
X132569456Y-127887526D01*
X132615715Y-127837276D01*
X132615715Y-127837275D01*
X132615722Y-127837268D01*
X132706193Y-127698790D01*
X132759338Y-127653437D01*
X132828569Y-127644013D01*
X132891905Y-127673515D01*
X132913804Y-127698787D01*
X133004278Y-127837268D01*
X133004283Y-127837273D01*
X133004284Y-127837276D01*
X133156756Y-128002902D01*
X133156761Y-128002907D01*
X133170217Y-128013380D01*
X133334424Y-128141189D01*
X133334425Y-128141189D01*
X133334427Y-128141191D01*
X133397812Y-128175493D01*
X133532426Y-128248342D01*
X133745365Y-128321444D01*
X133967431Y-128358500D01*
X134192569Y-128358500D01*
X134414635Y-128321444D01*
X134627574Y-128248342D01*
X134825576Y-128141189D01*
X135003240Y-128002906D01*
X135109456Y-127887526D01*
X135155715Y-127837276D01*
X135155715Y-127837275D01*
X135155722Y-127837268D01*
X135246193Y-127698790D01*
X135299338Y-127653437D01*
X135368569Y-127644013D01*
X135431905Y-127673515D01*
X135453804Y-127698787D01*
X135544278Y-127837268D01*
X135544283Y-127837273D01*
X135544284Y-127837276D01*
X135696756Y-128002902D01*
X135696761Y-128002907D01*
X135710217Y-128013380D01*
X135874424Y-128141189D01*
X135874425Y-128141189D01*
X135874427Y-128141191D01*
X135937812Y-128175493D01*
X136072426Y-128248342D01*
X136285365Y-128321444D01*
X136507431Y-128358500D01*
X136732569Y-128358500D01*
X136954635Y-128321444D01*
X137167574Y-128248342D01*
X137365576Y-128141189D01*
X137428663Y-128092086D01*
X137502461Y-128034647D01*
X137567455Y-128009004D01*
X137578623Y-128008500D01*
X139947402Y-128008500D01*
X139953482Y-128008799D01*
X139967511Y-128010180D01*
X140000000Y-128013380D01*
X140197701Y-127993909D01*
X140387804Y-127936241D01*
X140516099Y-127867666D01*
X140563004Y-127842595D01*
X140716568Y-127716568D01*
X140746238Y-127680413D01*
X140750288Y-127675944D01*
X141369902Y-127056330D01*
X143745710Y-127056330D01*
X143775925Y-127279387D01*
X143775926Y-127279390D01*
X143845483Y-127493465D01*
X143952146Y-127691678D01*
X143952148Y-127691681D01*
X144092489Y-127867663D01*
X144092491Y-127867664D01*
X144092492Y-127867666D01*
X144262004Y-128015765D01*
X144455236Y-128131215D01*
X144657663Y-128207187D01*
X144665976Y-128210307D01*
X144887450Y-128250500D01*
X144887453Y-128250500D01*
X145056148Y-128250500D01*
X145056155Y-128250500D01*
X145224188Y-128235377D01*
X145224192Y-128235376D01*
X145441160Y-128175496D01*
X145441162Y-128175495D01*
X145441170Y-128175493D01*
X145643973Y-128077829D01*
X145826078Y-127945522D01*
X145981632Y-127782825D01*
X146105635Y-127594968D01*
X146126881Y-127545262D01*
X146194100Y-127387995D01*
X146194099Y-127387995D01*
X146194103Y-127387988D01*
X146244191Y-127168537D01*
X146254290Y-126943670D01*
X146224075Y-126720613D01*
X146154517Y-126506536D01*
X146047852Y-126308319D01*
X145938735Y-126171491D01*
X145907510Y-126132336D01*
X145878124Y-126106662D01*
X145737996Y-125984235D01*
X145544764Y-125868785D01*
X145426775Y-125824503D01*
X145334023Y-125789692D01*
X145112550Y-125749500D01*
X145112547Y-125749500D01*
X144943845Y-125749500D01*
X144905399Y-125752960D01*
X144775813Y-125764622D01*
X144775807Y-125764623D01*
X144558839Y-125824503D01*
X144558826Y-125824508D01*
X144356033Y-125922167D01*
X144356025Y-125922171D01*
X144173927Y-126054473D01*
X144173925Y-126054474D01*
X144018366Y-126217176D01*
X143894363Y-126405033D01*
X143805899Y-126612004D01*
X143805895Y-126612017D01*
X143755810Y-126831457D01*
X143755808Y-126831468D01*
X143745710Y-127056325D01*
X143745710Y-127056330D01*
X141369902Y-127056330D01*
X147675944Y-120750288D01*
X147680413Y-120746238D01*
X147716568Y-120716568D01*
X147842595Y-120563004D01*
X147936241Y-120387804D01*
X147958350Y-120314921D01*
X147993909Y-120197701D01*
X148013380Y-120000000D01*
X148008799Y-119953481D01*
X148008500Y-119947401D01*
X148008500Y-112052597D01*
X148008799Y-112046517D01*
X148010068Y-112033628D01*
X148013380Y-112000000D01*
X147993909Y-111802299D01*
X147936684Y-111613659D01*
X147936320Y-111612343D01*
X147842598Y-111437001D01*
X147842594Y-111436994D01*
X147716568Y-111283432D01*
X147680432Y-111253776D01*
X147675930Y-111249696D01*
X140750301Y-104324067D01*
X140746222Y-104319566D01*
X140716567Y-104283430D01*
X140563005Y-104157405D01*
X140562998Y-104157401D01*
X140387805Y-104063759D01*
X140197703Y-104006091D01*
X140065900Y-103993110D01*
X140000000Y-103986620D01*
X139999999Y-103986620D01*
X139953482Y-103991201D01*
X139947402Y-103991500D01*
X108469097Y-103991500D01*
X108402058Y-103971815D01*
X108381416Y-103955181D01*
X108044819Y-103618584D01*
X108011334Y-103557261D01*
X108008500Y-103530903D01*
X108008500Y-101718674D01*
X108028185Y-101651635D01*
X108041267Y-101634694D01*
X108075722Y-101597268D01*
X108166193Y-101458790D01*
X108219338Y-101413437D01*
X108288569Y-101404013D01*
X108351905Y-101433515D01*
X108373804Y-101458787D01*
X108464278Y-101597268D01*
X108464283Y-101597273D01*
X108464284Y-101597276D01*
X108590967Y-101734888D01*
X108616760Y-101762906D01*
X108794424Y-101901189D01*
X108794425Y-101901189D01*
X108794427Y-101901191D01*
X108921135Y-101969761D01*
X108992426Y-102008342D01*
X109205365Y-102081444D01*
X109427431Y-102118500D01*
X109652569Y-102118500D01*
X109874635Y-102081444D01*
X110087574Y-102008342D01*
X110285576Y-101901189D01*
X110463240Y-101762906D01*
X110615722Y-101597268D01*
X110706193Y-101458790D01*
X110759338Y-101413437D01*
X110828569Y-101404013D01*
X110891905Y-101433515D01*
X110913804Y-101458787D01*
X111004278Y-101597268D01*
X111004283Y-101597273D01*
X111004284Y-101597276D01*
X111130967Y-101734888D01*
X111156760Y-101762906D01*
X111334424Y-101901189D01*
X111334425Y-101901189D01*
X111334427Y-101901191D01*
X111461135Y-101969761D01*
X111532426Y-102008342D01*
X111745365Y-102081444D01*
X111967431Y-102118500D01*
X112192569Y-102118500D01*
X112414635Y-102081444D01*
X112627574Y-102008342D01*
X112825576Y-101901189D01*
X113003240Y-101762906D01*
X113155722Y-101597268D01*
X113246193Y-101458790D01*
X113299338Y-101413437D01*
X113368569Y-101404013D01*
X113431905Y-101433515D01*
X113453804Y-101458787D01*
X113544278Y-101597268D01*
X113544283Y-101597273D01*
X113544284Y-101597276D01*
X113670967Y-101734888D01*
X113696760Y-101762906D01*
X113874424Y-101901189D01*
X113874425Y-101901189D01*
X113874427Y-101901191D01*
X114001135Y-101969761D01*
X114072426Y-102008342D01*
X114285365Y-102081444D01*
X114507431Y-102118500D01*
X114732569Y-102118500D01*
X114954635Y-102081444D01*
X115167574Y-102008342D01*
X115365576Y-101901189D01*
X115543240Y-101762906D01*
X115695722Y-101597268D01*
X115786193Y-101458790D01*
X115839338Y-101413437D01*
X115908569Y-101404013D01*
X115971905Y-101433515D01*
X115993804Y-101458787D01*
X116084278Y-101597268D01*
X116084283Y-101597273D01*
X116084284Y-101597276D01*
X116210967Y-101734888D01*
X116236760Y-101762906D01*
X116414424Y-101901189D01*
X116414425Y-101901189D01*
X116414427Y-101901191D01*
X116541135Y-101969761D01*
X116612426Y-102008342D01*
X116825365Y-102081444D01*
X117047431Y-102118500D01*
X117272569Y-102118500D01*
X117494635Y-102081444D01*
X117707574Y-102008342D01*
X117905576Y-101901189D01*
X118083240Y-101762906D01*
X118235722Y-101597268D01*
X118326193Y-101458790D01*
X118379338Y-101413437D01*
X118448569Y-101404013D01*
X118511905Y-101433515D01*
X118533804Y-101458787D01*
X118624278Y-101597268D01*
X118624283Y-101597273D01*
X118624284Y-101597276D01*
X118750967Y-101734888D01*
X118776760Y-101762906D01*
X118954424Y-101901189D01*
X118954425Y-101901189D01*
X118954427Y-101901191D01*
X119081135Y-101969761D01*
X119152426Y-102008342D01*
X119365365Y-102081444D01*
X119587431Y-102118500D01*
X119812569Y-102118500D01*
X120034635Y-102081444D01*
X120247574Y-102008342D01*
X120445576Y-101901189D01*
X120623240Y-101762906D01*
X120775722Y-101597268D01*
X120866193Y-101458790D01*
X120919338Y-101413437D01*
X120988569Y-101404013D01*
X121051905Y-101433515D01*
X121073804Y-101458787D01*
X121164278Y-101597268D01*
X121164283Y-101597273D01*
X121164284Y-101597276D01*
X121290967Y-101734888D01*
X121316760Y-101762906D01*
X121494424Y-101901189D01*
X121494425Y-101901189D01*
X121494427Y-101901191D01*
X121621135Y-101969761D01*
X121692426Y-102008342D01*
X121905365Y-102081444D01*
X122127431Y-102118500D01*
X122352569Y-102118500D01*
X122574635Y-102081444D01*
X122787574Y-102008342D01*
X122985576Y-101901189D01*
X123163240Y-101762906D01*
X123315722Y-101597268D01*
X123406193Y-101458790D01*
X123459338Y-101413437D01*
X123528569Y-101404013D01*
X123591905Y-101433515D01*
X123613804Y-101458787D01*
X123704278Y-101597268D01*
X123704283Y-101597273D01*
X123704284Y-101597276D01*
X123830967Y-101734888D01*
X123856760Y-101762906D01*
X124034424Y-101901189D01*
X124034425Y-101901189D01*
X124034427Y-101901191D01*
X124161135Y-101969761D01*
X124232426Y-102008342D01*
X124445365Y-102081444D01*
X124667431Y-102118500D01*
X124892569Y-102118500D01*
X125114635Y-102081444D01*
X125327574Y-102008342D01*
X125525576Y-101901189D01*
X125703240Y-101762906D01*
X125855722Y-101597268D01*
X125946193Y-101458790D01*
X125999338Y-101413437D01*
X126068569Y-101404013D01*
X126131905Y-101433515D01*
X126153804Y-101458787D01*
X126244278Y-101597268D01*
X126244283Y-101597273D01*
X126244284Y-101597276D01*
X126370967Y-101734888D01*
X126396760Y-101762906D01*
X126574424Y-101901189D01*
X126574425Y-101901189D01*
X126574427Y-101901191D01*
X126701135Y-101969761D01*
X126772426Y-102008342D01*
X126985365Y-102081444D01*
X127207431Y-102118500D01*
X127432569Y-102118500D01*
X127654635Y-102081444D01*
X127867574Y-102008342D01*
X128065576Y-101901189D01*
X128243240Y-101762906D01*
X128395722Y-101597268D01*
X128486193Y-101458790D01*
X128539338Y-101413437D01*
X128608569Y-101404013D01*
X128671905Y-101433515D01*
X128693804Y-101458787D01*
X128784278Y-101597268D01*
X128784283Y-101597273D01*
X128784284Y-101597276D01*
X128910967Y-101734888D01*
X128936760Y-101762906D01*
X129114424Y-101901189D01*
X129114425Y-101901189D01*
X129114427Y-101901191D01*
X129241135Y-101969761D01*
X129312426Y-102008342D01*
X129525365Y-102081444D01*
X129747431Y-102118500D01*
X129972569Y-102118500D01*
X130194635Y-102081444D01*
X130407574Y-102008342D01*
X130605576Y-101901189D01*
X130783240Y-101762906D01*
X130935722Y-101597268D01*
X131026193Y-101458790D01*
X131079338Y-101413437D01*
X131148569Y-101404013D01*
X131211905Y-101433515D01*
X131233804Y-101458787D01*
X131324278Y-101597268D01*
X131324283Y-101597273D01*
X131324284Y-101597276D01*
X131450967Y-101734888D01*
X131476760Y-101762906D01*
X131654424Y-101901189D01*
X131654425Y-101901189D01*
X131654427Y-101901191D01*
X131781135Y-101969761D01*
X131852426Y-102008342D01*
X132065365Y-102081444D01*
X132287431Y-102118500D01*
X132512569Y-102118500D01*
X132734635Y-102081444D01*
X132947574Y-102008342D01*
X133145576Y-101901189D01*
X133323240Y-101762906D01*
X133475722Y-101597268D01*
X133566193Y-101458790D01*
X133619338Y-101413437D01*
X133688569Y-101404013D01*
X133751905Y-101433515D01*
X133773804Y-101458787D01*
X133864278Y-101597268D01*
X133864283Y-101597273D01*
X133864284Y-101597276D01*
X133990967Y-101734888D01*
X134016760Y-101762906D01*
X134194424Y-101901189D01*
X134194425Y-101901189D01*
X134194427Y-101901191D01*
X134321135Y-101969761D01*
X134392426Y-102008342D01*
X134605365Y-102081444D01*
X134827431Y-102118500D01*
X135052569Y-102118500D01*
X135274635Y-102081444D01*
X135487574Y-102008342D01*
X135685576Y-101901189D01*
X135863240Y-101762906D01*
X136015722Y-101597268D01*
X136106193Y-101458790D01*
X136159338Y-101413437D01*
X136228569Y-101404013D01*
X136291905Y-101433515D01*
X136313804Y-101458787D01*
X136404278Y-101597268D01*
X136404283Y-101597273D01*
X136404284Y-101597276D01*
X136530967Y-101734888D01*
X136556760Y-101762906D01*
X136734424Y-101901189D01*
X136734425Y-101901189D01*
X136734427Y-101901191D01*
X136861135Y-101969761D01*
X136932426Y-102008342D01*
X137145365Y-102081444D01*
X137367431Y-102118500D01*
X137592569Y-102118500D01*
X137814635Y-102081444D01*
X138027574Y-102008342D01*
X138225576Y-101901189D01*
X138403240Y-101762906D01*
X138555722Y-101597268D01*
X138646193Y-101458790D01*
X138699338Y-101413437D01*
X138768569Y-101404013D01*
X138831905Y-101433515D01*
X138853804Y-101458787D01*
X138944278Y-101597268D01*
X138944283Y-101597273D01*
X138944284Y-101597276D01*
X139070967Y-101734888D01*
X139096760Y-101762906D01*
X139274424Y-101901189D01*
X139274425Y-101901189D01*
X139274427Y-101901191D01*
X139401135Y-101969761D01*
X139472426Y-102008342D01*
X139685365Y-102081444D01*
X139907431Y-102118500D01*
X140132569Y-102118500D01*
X140354635Y-102081444D01*
X140567574Y-102008342D01*
X140765576Y-101901189D01*
X140943240Y-101762906D01*
X141006452Y-101694239D01*
X141066337Y-101658250D01*
X141136175Y-101660349D01*
X141193791Y-101699873D01*
X141213861Y-101734888D01*
X141259110Y-101856203D01*
X141259111Y-101856204D01*
X141346739Y-101973261D01*
X141463796Y-102060889D01*
X141600799Y-102111989D01*
X141628050Y-102114918D01*
X141661345Y-102118499D01*
X141661362Y-102118500D01*
X143458638Y-102118500D01*
X143458654Y-102118499D01*
X143485692Y-102115591D01*
X143519201Y-102111989D01*
X143656204Y-102060889D01*
X143773261Y-101973261D01*
X143860889Y-101856204D01*
X143911989Y-101719201D01*
X143915591Y-101685692D01*
X143918499Y-101658654D01*
X143918500Y-101658637D01*
X143918500Y-99861362D01*
X143918499Y-99861345D01*
X143914339Y-99822656D01*
X143911989Y-99800799D01*
X143860889Y-99663796D01*
X143773261Y-99546739D01*
X143656204Y-99459111D01*
X143656204Y-99459110D01*
X143519203Y-99408011D01*
X143458654Y-99401500D01*
X143458638Y-99401500D01*
X141661362Y-99401500D01*
X141661345Y-99401500D01*
X141600797Y-99408011D01*
X141600795Y-99408011D01*
X141463795Y-99459111D01*
X141346739Y-99546739D01*
X141259111Y-99663795D01*
X141213861Y-99785111D01*
X141171989Y-99841044D01*
X141106524Y-99865460D01*
X141038252Y-99850607D01*
X141006454Y-99825762D01*
X140943240Y-99757094D01*
X140765576Y-99618811D01*
X140765575Y-99618810D01*
X140765572Y-99618808D01*
X140567580Y-99511661D01*
X140567577Y-99511659D01*
X140567574Y-99511658D01*
X140567571Y-99511657D01*
X140567569Y-99511656D01*
X140354637Y-99438556D01*
X140132569Y-99401500D01*
X139907431Y-99401500D01*
X139685362Y-99438556D01*
X139472430Y-99511656D01*
X139472419Y-99511661D01*
X139274427Y-99618808D01*
X139274422Y-99618812D01*
X139096761Y-99757092D01*
X139096756Y-99757097D01*
X138944284Y-99922723D01*
X138944276Y-99922734D01*
X138853808Y-100061206D01*
X138800662Y-100106562D01*
X138731431Y-100115986D01*
X138668095Y-100086484D01*
X138646192Y-100061206D01*
X138567837Y-99941275D01*
X138555722Y-99922732D01*
X138555719Y-99922729D01*
X138555715Y-99922723D01*
X138403243Y-99757097D01*
X138403238Y-99757092D01*
X138225577Y-99618812D01*
X138225572Y-99618808D01*
X138027580Y-99511661D01*
X138027577Y-99511659D01*
X138027574Y-99511658D01*
X138027571Y-99511657D01*
X138027569Y-99511656D01*
X137814637Y-99438556D01*
X137592569Y-99401500D01*
X137367431Y-99401500D01*
X137145362Y-99438556D01*
X136932430Y-99511656D01*
X136932419Y-99511661D01*
X136734427Y-99618808D01*
X136734422Y-99618812D01*
X136556761Y-99757092D01*
X136413729Y-99912465D01*
X136353842Y-99948455D01*
X136284004Y-99946354D01*
X136226388Y-99906829D01*
X136199287Y-99842430D01*
X136198500Y-99828481D01*
X136198500Y-98553472D01*
X136210118Y-98501067D01*
X136234284Y-98449243D01*
X136293543Y-98228087D01*
X136313498Y-98000000D01*
X136293543Y-97771913D01*
X136234284Y-97550757D01*
X136137523Y-97343251D01*
X136006198Y-97155700D01*
X135844300Y-96993802D01*
X135656749Y-96862477D01*
X135656745Y-96862475D01*
X135449249Y-96765718D01*
X135449238Y-96765714D01*
X135228089Y-96706457D01*
X135228082Y-96706456D01*
X135025575Y-96688739D01*
X134960507Y-96663286D01*
X134919528Y-96606695D01*
X134915650Y-96536933D01*
X134948700Y-96477532D01*
X135515944Y-95910288D01*
X135520413Y-95906238D01*
X135556568Y-95876568D01*
X135682595Y-95723004D01*
X135776241Y-95547804D01*
X135833908Y-95357701D01*
X135848500Y-95209547D01*
X135853380Y-95160000D01*
X135848799Y-95113485D01*
X135848500Y-95107404D01*
X135848500Y-94880109D01*
X135868185Y-94813070D01*
X135870909Y-94809007D01*
X135977523Y-94656749D01*
X136074284Y-94449243D01*
X136133543Y-94228087D01*
X136153498Y-94000000D01*
X136133543Y-93771913D01*
X136074284Y-93550757D01*
X135977523Y-93343251D01*
X135879753Y-93203621D01*
X135857427Y-93137418D01*
X135874437Y-93069650D01*
X135925385Y-93021837D01*
X135981329Y-93008500D01*
X137947402Y-93008500D01*
X137953482Y-93008799D01*
X137967511Y-93010180D01*
X138000000Y-93013380D01*
X138197701Y-92993909D01*
X138387804Y-92936241D01*
X138387803Y-92936240D01*
X138409650Y-92929614D01*
X138409826Y-92929315D01*
X138436274Y-92910332D01*
X138563004Y-92842595D01*
X138716568Y-92716568D01*
X138746238Y-92680413D01*
X138750288Y-92675944D01*
X139675934Y-91750299D01*
X139680424Y-91746229D01*
X139716568Y-91716568D01*
X139842595Y-91563004D01*
X139909947Y-91436997D01*
X139936242Y-91387803D01*
X139993909Y-91197700D01*
X140013380Y-91000000D01*
X140012543Y-90991500D01*
X140008799Y-90953481D01*
X140008500Y-90947401D01*
X140008500Y-90032497D01*
X140028185Y-89965458D01*
X140041263Y-89948522D01*
X140115314Y-89868083D01*
X140242984Y-89672669D01*
X140336749Y-89458907D01*
X140394051Y-89232626D01*
X140413327Y-89000005D01*
X143586673Y-89000005D01*
X143605948Y-89232622D01*
X143663251Y-89458907D01*
X143757015Y-89672668D01*
X143884683Y-89868080D01*
X143884686Y-89868083D01*
X143958730Y-89948516D01*
X143989652Y-90011167D01*
X143991500Y-90032497D01*
X143991500Y-93119890D01*
X143971815Y-93186929D01*
X143969087Y-93190995D01*
X143960245Y-93203624D01*
X143862476Y-93343252D01*
X143862475Y-93343254D01*
X143765718Y-93550750D01*
X143765714Y-93550761D01*
X143706457Y-93771910D01*
X143706456Y-93771918D01*
X143686502Y-93999998D01*
X143686502Y-94000001D01*
X143706456Y-94228081D01*
X143706457Y-94228089D01*
X143765714Y-94449238D01*
X143765718Y-94449249D01*
X143816143Y-94557385D01*
X143862477Y-94656749D01*
X143993802Y-94844300D01*
X144155700Y-95006198D01*
X144343251Y-95137523D01*
X144468091Y-95195736D01*
X144550750Y-95234281D01*
X144550752Y-95234281D01*
X144550757Y-95234284D01*
X144771913Y-95293543D01*
X144934832Y-95307796D01*
X144999998Y-95313498D01*
X145000000Y-95313498D01*
X145000002Y-95313498D01*
X145057021Y-95308509D01*
X145228087Y-95293543D01*
X145449243Y-95234284D01*
X145656749Y-95137523D01*
X145844300Y-95006198D01*
X146006198Y-94844300D01*
X146137523Y-94656749D01*
X146234284Y-94449243D01*
X146293543Y-94228087D01*
X146313498Y-94000000D01*
X146293543Y-93771913D01*
X146234284Y-93550757D01*
X146137523Y-93343251D01*
X146030924Y-93191012D01*
X146008598Y-93124807D01*
X146008500Y-93119890D01*
X146008500Y-90032497D01*
X146028185Y-89965458D01*
X146041263Y-89948522D01*
X146115314Y-89868083D01*
X146242984Y-89672669D01*
X146336749Y-89458907D01*
X146394051Y-89232626D01*
X146413327Y-89000000D01*
X146394051Y-88767374D01*
X146336749Y-88541093D01*
X146242984Y-88327331D01*
X146130849Y-88155695D01*
X146115313Y-88131915D01*
X146028143Y-88037224D01*
X145997220Y-87974570D01*
X146005080Y-87905144D01*
X146049227Y-87850988D01*
X146076032Y-87837061D01*
X146146204Y-87810889D01*
X146263261Y-87723261D01*
X146350889Y-87606204D01*
X146401989Y-87469201D01*
X146405945Y-87432401D01*
X146408499Y-87408654D01*
X146408500Y-87408637D01*
X146408500Y-85511362D01*
X146408499Y-85511345D01*
X146405157Y-85480270D01*
X146401989Y-85450799D01*
X146384061Y-85402734D01*
X146379522Y-85390564D01*
X146350889Y-85313796D01*
X146263261Y-85196739D01*
X146146204Y-85109111D01*
X146146204Y-85109110D01*
X146009203Y-85058011D01*
X145948654Y-85051500D01*
X145948638Y-85051500D01*
X144051362Y-85051500D01*
X144051345Y-85051500D01*
X143990797Y-85058011D01*
X143990795Y-85058011D01*
X143853795Y-85109111D01*
X143736739Y-85196739D01*
X143649111Y-85313795D01*
X143598011Y-85450795D01*
X143598011Y-85450797D01*
X143591500Y-85511345D01*
X143591500Y-87408654D01*
X143598011Y-87469202D01*
X143598011Y-87469204D01*
X143643512Y-87591193D01*
X143649111Y-87606204D01*
X143736739Y-87723261D01*
X143853796Y-87810889D01*
X143853795Y-87810889D01*
X143923961Y-87837060D01*
X143979895Y-87878931D01*
X144004311Y-87944396D01*
X143989459Y-88012669D01*
X143971857Y-88037224D01*
X143884683Y-88131919D01*
X143757015Y-88327331D01*
X143663251Y-88541092D01*
X143605948Y-88767377D01*
X143586673Y-88999994D01*
X143586673Y-89000005D01*
X140413327Y-89000005D01*
X140413327Y-89000000D01*
X140394051Y-88767374D01*
X140336749Y-88541093D01*
X140242984Y-88327331D01*
X140130849Y-88155695D01*
X140115313Y-88131915D01*
X140028143Y-88037224D01*
X139997220Y-87974570D01*
X140005080Y-87905144D01*
X140049227Y-87850988D01*
X140076032Y-87837061D01*
X140146204Y-87810889D01*
X140263261Y-87723261D01*
X140350889Y-87606204D01*
X140401989Y-87469201D01*
X140405945Y-87432401D01*
X140408499Y-87408654D01*
X140408500Y-87408637D01*
X140408500Y-85511362D01*
X140408499Y-85511345D01*
X140405157Y-85480270D01*
X140401989Y-85450799D01*
X140384061Y-85402734D01*
X140379522Y-85390564D01*
X140350889Y-85313796D01*
X140263261Y-85196739D01*
X140146204Y-85109111D01*
X140146203Y-85109110D01*
X140089165Y-85087836D01*
X140033232Y-85045964D01*
X140008816Y-84980500D01*
X140008500Y-84971655D01*
X140008500Y-84880109D01*
X140028185Y-84813070D01*
X140030909Y-84809007D01*
X140137523Y-84656749D01*
X140234284Y-84449243D01*
X140293543Y-84228087D01*
X140313498Y-84000000D01*
X140293543Y-83771913D01*
X140234284Y-83550757D01*
X140137523Y-83343251D01*
X140006198Y-83155700D01*
X139844300Y-82993802D01*
X139656749Y-82862477D01*
X139656745Y-82862475D01*
X139449249Y-82765718D01*
X139449238Y-82765714D01*
X139228089Y-82706457D01*
X139228081Y-82706456D01*
X139000002Y-82686502D01*
X138999998Y-82686502D01*
X138771918Y-82706456D01*
X138771910Y-82706457D01*
X138550761Y-82765714D01*
X138550750Y-82765718D01*
X138343254Y-82862475D01*
X138343252Y-82862476D01*
X138342884Y-82862734D01*
X138155700Y-82993802D01*
X138155698Y-82993803D01*
X138155695Y-82993806D01*
X137993806Y-83155695D01*
X137862476Y-83343252D01*
X137862475Y-83343254D01*
X137765718Y-83550750D01*
X137765714Y-83550761D01*
X137706457Y-83771910D01*
X137706456Y-83771918D01*
X137686502Y-83999998D01*
X137686502Y-84000001D01*
X137706456Y-84228081D01*
X137706457Y-84228089D01*
X137765714Y-84449238D01*
X137765718Y-84449249D01*
X137806761Y-84537265D01*
X137862477Y-84656749D01*
X137969075Y-84808986D01*
X137991402Y-84875191D01*
X137991500Y-84880109D01*
X137991500Y-84971655D01*
X137971815Y-85038694D01*
X137919011Y-85084449D01*
X137910835Y-85087836D01*
X137853795Y-85109111D01*
X137736739Y-85196739D01*
X137649111Y-85313795D01*
X137598011Y-85450795D01*
X137598011Y-85450797D01*
X137591500Y-85511345D01*
X137591500Y-87408654D01*
X137598011Y-87469202D01*
X137598011Y-87469204D01*
X137643512Y-87591193D01*
X137649111Y-87606204D01*
X137736739Y-87723261D01*
X137853796Y-87810889D01*
X137853795Y-87810889D01*
X137923961Y-87837060D01*
X137979895Y-87878931D01*
X138004311Y-87944396D01*
X137989459Y-88012669D01*
X137971857Y-88037224D01*
X137884683Y-88131919D01*
X137757015Y-88327331D01*
X137663251Y-88541092D01*
X137605948Y-88767377D01*
X137586673Y-88999994D01*
X137586673Y-89000005D01*
X137605948Y-89232622D01*
X137663251Y-89458907D01*
X137757015Y-89672668D01*
X137884683Y-89868080D01*
X137884686Y-89868083D01*
X137958730Y-89948516D01*
X137989652Y-90011167D01*
X137991500Y-90032497D01*
X137991500Y-90530903D01*
X137971815Y-90597942D01*
X137955181Y-90618584D01*
X137618585Y-90955181D01*
X137557262Y-90988666D01*
X137530904Y-90991500D01*
X133132596Y-90991500D01*
X133126515Y-90991201D01*
X133080000Y-90986620D01*
X133030453Y-90991500D01*
X132882300Y-91006091D01*
X132692191Y-91063760D01*
X132517001Y-91157401D01*
X132516994Y-91157405D01*
X132363431Y-91283432D01*
X132333775Y-91319567D01*
X132329687Y-91324077D01*
X130988368Y-92665396D01*
X130927045Y-92698881D01*
X130911497Y-92701243D01*
X130851916Y-92706456D01*
X130851910Y-92706457D01*
X130630761Y-92765714D01*
X130630750Y-92765718D01*
X130423254Y-92862475D01*
X130423252Y-92862476D01*
X130423249Y-92862477D01*
X130423251Y-92862477D01*
X130235700Y-92993802D01*
X130235698Y-92993803D01*
X130235695Y-92993806D01*
X130073806Y-93155695D01*
X130073803Y-93155698D01*
X130073802Y-93155700D01*
X130049075Y-93191014D01*
X129942476Y-93343252D01*
X129942475Y-93343254D01*
X129845718Y-93550750D01*
X129845714Y-93550761D01*
X129786457Y-93771910D01*
X129786456Y-93771918D01*
X129766502Y-93999998D01*
X129766502Y-94000001D01*
X129786456Y-94228081D01*
X129786457Y-94228089D01*
X129845714Y-94449238D01*
X129845718Y-94449249D01*
X129896143Y-94557385D01*
X129942477Y-94656749D01*
X130073802Y-94844300D01*
X130235700Y-95006198D01*
X130423251Y-95137523D01*
X130548091Y-95195736D01*
X130630750Y-95234281D01*
X130630752Y-95234281D01*
X130630757Y-95234284D01*
X130851913Y-95293543D01*
X130980857Y-95304824D01*
X131045926Y-95330276D01*
X131086905Y-95386867D01*
X131090783Y-95456629D01*
X131057731Y-95516033D01*
X129184077Y-97389687D01*
X129179567Y-97393775D01*
X129143432Y-97423431D01*
X129017406Y-97576994D01*
X128989906Y-97628444D01*
X128923758Y-97752196D01*
X128866091Y-97942296D01*
X128846620Y-98140001D01*
X128846620Y-98140004D01*
X128851200Y-98186518D01*
X128851499Y-98192598D01*
X128851499Y-99801325D01*
X128831814Y-99868364D01*
X128818729Y-99885307D01*
X128784279Y-99922729D01*
X128784275Y-99922734D01*
X128693807Y-100061206D01*
X128640661Y-100106562D01*
X128571430Y-100115986D01*
X128508094Y-100086484D01*
X128486191Y-100061206D01*
X128395722Y-99922732D01*
X128395717Y-99922727D01*
X128395715Y-99922723D01*
X128243243Y-99757097D01*
X128243238Y-99757092D01*
X128065577Y-99618812D01*
X128065572Y-99618808D01*
X127867580Y-99511661D01*
X127867577Y-99511659D01*
X127867574Y-99511658D01*
X127867571Y-99511657D01*
X127867569Y-99511656D01*
X127654637Y-99438556D01*
X127432569Y-99401500D01*
X127207431Y-99401500D01*
X126985362Y-99438556D01*
X126772430Y-99511656D01*
X126772419Y-99511661D01*
X126574427Y-99618808D01*
X126574422Y-99618812D01*
X126396761Y-99757092D01*
X126396756Y-99757097D01*
X126244284Y-99922723D01*
X126244276Y-99922734D01*
X126153808Y-100061206D01*
X126100662Y-100106562D01*
X126031431Y-100115986D01*
X125968095Y-100086484D01*
X125946192Y-100061206D01*
X125867837Y-99941275D01*
X125855722Y-99922732D01*
X125855719Y-99922729D01*
X125855715Y-99922723D01*
X125703243Y-99757097D01*
X125703238Y-99757092D01*
X125525577Y-99618812D01*
X125525572Y-99618808D01*
X125327580Y-99511661D01*
X125327577Y-99511659D01*
X125327574Y-99511658D01*
X125327571Y-99511657D01*
X125327569Y-99511656D01*
X125114637Y-99438556D01*
X124892569Y-99401500D01*
X124667431Y-99401500D01*
X124445362Y-99438556D01*
X124232430Y-99511656D01*
X124232419Y-99511661D01*
X124034427Y-99618808D01*
X124034422Y-99618812D01*
X123856761Y-99757092D01*
X123856756Y-99757097D01*
X123704284Y-99922723D01*
X123704276Y-99922734D01*
X123613808Y-100061206D01*
X123560662Y-100106562D01*
X123491431Y-100115986D01*
X123428095Y-100086484D01*
X123406192Y-100061206D01*
X123327837Y-99941275D01*
X123315722Y-99922732D01*
X123315719Y-99922729D01*
X123315715Y-99922723D01*
X123163243Y-99757097D01*
X123163238Y-99757092D01*
X122985577Y-99618812D01*
X122985572Y-99618808D01*
X122787580Y-99511661D01*
X122787577Y-99511659D01*
X122787574Y-99511658D01*
X122787571Y-99511657D01*
X122787569Y-99511656D01*
X122574637Y-99438556D01*
X122352569Y-99401500D01*
X122127431Y-99401500D01*
X121905362Y-99438556D01*
X121692430Y-99511656D01*
X121692419Y-99511661D01*
X121494427Y-99618808D01*
X121494422Y-99618812D01*
X121316761Y-99757092D01*
X121316756Y-99757097D01*
X121164284Y-99922723D01*
X121164276Y-99922734D01*
X121073808Y-100061206D01*
X121020662Y-100106562D01*
X120951431Y-100115986D01*
X120888095Y-100086484D01*
X120866192Y-100061206D01*
X120787837Y-99941275D01*
X120775722Y-99922732D01*
X120775719Y-99922729D01*
X120775715Y-99922723D01*
X120623243Y-99757097D01*
X120623238Y-99757092D01*
X120445577Y-99618812D01*
X120445572Y-99618808D01*
X120247580Y-99511661D01*
X120247577Y-99511659D01*
X120247574Y-99511658D01*
X120247571Y-99511657D01*
X120247569Y-99511656D01*
X120034637Y-99438556D01*
X119812569Y-99401500D01*
X119587431Y-99401500D01*
X119365362Y-99438556D01*
X119152430Y-99511656D01*
X119152419Y-99511661D01*
X118954427Y-99618808D01*
X118954422Y-99618812D01*
X118776761Y-99757092D01*
X118776756Y-99757097D01*
X118624284Y-99922723D01*
X118624276Y-99922734D01*
X118533808Y-100061206D01*
X118480662Y-100106562D01*
X118411431Y-100115986D01*
X118348095Y-100086484D01*
X118326192Y-100061206D01*
X118247837Y-99941275D01*
X118235722Y-99922732D01*
X118235719Y-99922729D01*
X118235715Y-99922723D01*
X118083243Y-99757097D01*
X118083238Y-99757092D01*
X117905577Y-99618812D01*
X117905572Y-99618808D01*
X117707580Y-99511661D01*
X117707577Y-99511659D01*
X117707574Y-99511658D01*
X117707571Y-99511657D01*
X117707569Y-99511656D01*
X117494637Y-99438556D01*
X117272569Y-99401500D01*
X117047431Y-99401500D01*
X116825362Y-99438556D01*
X116612430Y-99511656D01*
X116612419Y-99511661D01*
X116414427Y-99618808D01*
X116414422Y-99618812D01*
X116236761Y-99757092D01*
X116236756Y-99757097D01*
X116084284Y-99922723D01*
X116084276Y-99922734D01*
X115993808Y-100061206D01*
X115940662Y-100106562D01*
X115871431Y-100115986D01*
X115808095Y-100086484D01*
X115786192Y-100061206D01*
X115707837Y-99941275D01*
X115695722Y-99922732D01*
X115695719Y-99922729D01*
X115695715Y-99922723D01*
X115543243Y-99757097D01*
X115543238Y-99757092D01*
X115365577Y-99618812D01*
X115365572Y-99618808D01*
X115167580Y-99511661D01*
X115167577Y-99511659D01*
X115167574Y-99511658D01*
X115167571Y-99511657D01*
X115167569Y-99511656D01*
X114954637Y-99438556D01*
X114732569Y-99401500D01*
X114507431Y-99401500D01*
X114285362Y-99438556D01*
X114072430Y-99511656D01*
X114072419Y-99511661D01*
X113874427Y-99618808D01*
X113874422Y-99618812D01*
X113696761Y-99757092D01*
X113696756Y-99757097D01*
X113544284Y-99922723D01*
X113544276Y-99922734D01*
X113453808Y-100061206D01*
X113400662Y-100106562D01*
X113331431Y-100115986D01*
X113268095Y-100086484D01*
X113246192Y-100061206D01*
X113205146Y-99998381D01*
X113184958Y-99931491D01*
X113204137Y-99864306D01*
X113221268Y-99842883D01*
X114019333Y-99044819D01*
X114080657Y-99011334D01*
X114107015Y-99008500D01*
X118947402Y-99008500D01*
X118953482Y-99008799D01*
X118967511Y-99010180D01*
X119000000Y-99013380D01*
X119197701Y-98993909D01*
X119387804Y-98936241D01*
X119439704Y-98908500D01*
X119563004Y-98842595D01*
X119716568Y-98716568D01*
X119746238Y-98680413D01*
X119750288Y-98675944D01*
X121595944Y-96830288D01*
X121600413Y-96826238D01*
X121636568Y-96796568D01*
X121762595Y-96643004D01*
X121856241Y-96467804D01*
X121889099Y-96359486D01*
X121913909Y-96277701D01*
X121933380Y-96080000D01*
X121928797Y-96033468D01*
X121928500Y-96027421D01*
X121928500Y-94880108D01*
X121948185Y-94813069D01*
X121950909Y-94809007D01*
X122057523Y-94656749D01*
X122154284Y-94449243D01*
X122213543Y-94228087D01*
X122233498Y-94000000D01*
X122213543Y-93771913D01*
X122154284Y-93550757D01*
X122057523Y-93343251D01*
X121926198Y-93155700D01*
X121764300Y-92993802D01*
X121576749Y-92862477D01*
X121534112Y-92842595D01*
X121369249Y-92765718D01*
X121369238Y-92765714D01*
X121148089Y-92706457D01*
X121148081Y-92706456D01*
X120920002Y-92686502D01*
X120919998Y-92686502D01*
X120691918Y-92706456D01*
X120691910Y-92706457D01*
X120470761Y-92765714D01*
X120470750Y-92765718D01*
X120263254Y-92862475D01*
X120263252Y-92862476D01*
X120263249Y-92862477D01*
X120263251Y-92862477D01*
X120075700Y-92993802D01*
X120075698Y-92993803D01*
X120075695Y-92993806D01*
X119913806Y-93155695D01*
X119913803Y-93155698D01*
X119913802Y-93155700D01*
X119889075Y-93191014D01*
X119782476Y-93343252D01*
X119782475Y-93343254D01*
X119685718Y-93550750D01*
X119685714Y-93550761D01*
X119626457Y-93771910D01*
X119626456Y-93771918D01*
X119606502Y-93999998D01*
X119606502Y-94000001D01*
X119626456Y-94228081D01*
X119626457Y-94228089D01*
X119685714Y-94449238D01*
X119685718Y-94449249D01*
X119736143Y-94557385D01*
X119782477Y-94656749D01*
X119889075Y-94808986D01*
X119911402Y-94875191D01*
X119911500Y-94880109D01*
X119911500Y-95610904D01*
X119891815Y-95677943D01*
X119875181Y-95698585D01*
X118618585Y-96955181D01*
X118557262Y-96988666D01*
X118530904Y-96991500D01*
X113690515Y-96991500D01*
X113684434Y-96991201D01*
X113637919Y-96986620D01*
X113563923Y-96993908D01*
X113440219Y-97006091D01*
X113271853Y-97057164D01*
X113250119Y-97063758D01*
X113250112Y-97063760D01*
X113190951Y-97095382D01*
X113122548Y-97109623D01*
X113057305Y-97084622D01*
X113015935Y-97028317D01*
X113008499Y-96986023D01*
X113008499Y-96536933D01*
X113008499Y-95958670D01*
X113028184Y-95891635D01*
X113041262Y-95874699D01*
X113075722Y-95837268D01*
X113166193Y-95698790D01*
X113219338Y-95653437D01*
X113288569Y-95644013D01*
X113351905Y-95673515D01*
X113373804Y-95698787D01*
X113464278Y-95837268D01*
X113464283Y-95837273D01*
X113464284Y-95837276D01*
X113590968Y-95974889D01*
X113616760Y-96002906D01*
X113794424Y-96141189D01*
X113794425Y-96141189D01*
X113794427Y-96141191D01*
X113921135Y-96209761D01*
X113992426Y-96248342D01*
X114205365Y-96321444D01*
X114427431Y-96358500D01*
X114652569Y-96358500D01*
X114874635Y-96321444D01*
X115087574Y-96248342D01*
X115285576Y-96141189D01*
X115463240Y-96002906D01*
X115579542Y-95876570D01*
X115615715Y-95837276D01*
X115615715Y-95837275D01*
X115615722Y-95837268D01*
X115706193Y-95698790D01*
X115759338Y-95653437D01*
X115828569Y-95644013D01*
X115891905Y-95673515D01*
X115913804Y-95698787D01*
X116004278Y-95837268D01*
X116004283Y-95837273D01*
X116004284Y-95837276D01*
X116130968Y-95974889D01*
X116156760Y-96002906D01*
X116334424Y-96141189D01*
X116334425Y-96141189D01*
X116334427Y-96141191D01*
X116461135Y-96209761D01*
X116532426Y-96248342D01*
X116745365Y-96321444D01*
X116967431Y-96358500D01*
X117192569Y-96358500D01*
X117414635Y-96321444D01*
X117627574Y-96248342D01*
X117825576Y-96141189D01*
X118003240Y-96002906D01*
X118119542Y-95876570D01*
X118155715Y-95837276D01*
X118155719Y-95837271D01*
X118155722Y-95837268D01*
X118278860Y-95648791D01*
X118369296Y-95442616D01*
X118424564Y-95224368D01*
X118429898Y-95159999D01*
X118443156Y-95000005D01*
X118443156Y-94999994D01*
X118424565Y-94775640D01*
X118424563Y-94775628D01*
X118369296Y-94557385D01*
X118278859Y-94351207D01*
X118198419Y-94228085D01*
X118155722Y-94162732D01*
X118155719Y-94162729D01*
X118155715Y-94162723D01*
X118003243Y-93997097D01*
X118003238Y-93997092D01*
X117825577Y-93858812D01*
X117825572Y-93858808D01*
X117627580Y-93751661D01*
X117627577Y-93751659D01*
X117627574Y-93751658D01*
X117627571Y-93751657D01*
X117627569Y-93751656D01*
X117414637Y-93678556D01*
X117192569Y-93641500D01*
X116967431Y-93641500D01*
X116745362Y-93678556D01*
X116532430Y-93751656D01*
X116532419Y-93751661D01*
X116334427Y-93858808D01*
X116334422Y-93858812D01*
X116156761Y-93997092D01*
X116156756Y-93997097D01*
X116004284Y-94162723D01*
X116004276Y-94162734D01*
X115913808Y-94301206D01*
X115860662Y-94346562D01*
X115791431Y-94355986D01*
X115728095Y-94326484D01*
X115706192Y-94301206D01*
X115648286Y-94212576D01*
X115615722Y-94162732D01*
X115615719Y-94162729D01*
X115615715Y-94162723D01*
X115463243Y-93997097D01*
X115463238Y-93997092D01*
X115285577Y-93858812D01*
X115285572Y-93858808D01*
X115087580Y-93751661D01*
X115087577Y-93751659D01*
X115087574Y-93751658D01*
X115087571Y-93751657D01*
X115087569Y-93751656D01*
X114874637Y-93678556D01*
X114652569Y-93641500D01*
X114427431Y-93641500D01*
X114205362Y-93678556D01*
X113992430Y-93751656D01*
X113992419Y-93751661D01*
X113794427Y-93858808D01*
X113794422Y-93858812D01*
X113616761Y-93997092D01*
X113616756Y-93997097D01*
X113464284Y-94162723D01*
X113464276Y-94162734D01*
X113373808Y-94301206D01*
X113320662Y-94346562D01*
X113251431Y-94355986D01*
X113188095Y-94326484D01*
X113166192Y-94301206D01*
X113108286Y-94212576D01*
X113075722Y-94162732D01*
X113075719Y-94162729D01*
X113075715Y-94162723D01*
X112923243Y-93997097D01*
X112923238Y-93997092D01*
X112745577Y-93858812D01*
X112745572Y-93858808D01*
X112547580Y-93751661D01*
X112547577Y-93751659D01*
X112547574Y-93751658D01*
X112547571Y-93751657D01*
X112547569Y-93751656D01*
X112334637Y-93678556D01*
X112112569Y-93641500D01*
X111887431Y-93641500D01*
X111665362Y-93678556D01*
X111452430Y-93751656D01*
X111452419Y-93751661D01*
X111254427Y-93858808D01*
X111254422Y-93858812D01*
X111076761Y-93997092D01*
X111076756Y-93997097D01*
X110924284Y-94162723D01*
X110924276Y-94162734D01*
X110833808Y-94301206D01*
X110780662Y-94346562D01*
X110711431Y-94355986D01*
X110648095Y-94326484D01*
X110626192Y-94301206D01*
X110568286Y-94212576D01*
X110535722Y-94162732D01*
X110535719Y-94162729D01*
X110535715Y-94162723D01*
X110383243Y-93997097D01*
X110383238Y-93997092D01*
X110205577Y-93858812D01*
X110205572Y-93858808D01*
X110007580Y-93751661D01*
X110007577Y-93751659D01*
X110007574Y-93751658D01*
X110007571Y-93751657D01*
X110007569Y-93751656D01*
X109794637Y-93678556D01*
X109572569Y-93641500D01*
X109347431Y-93641500D01*
X109125362Y-93678556D01*
X108912430Y-93751656D01*
X108912419Y-93751661D01*
X108714427Y-93858808D01*
X108714422Y-93858812D01*
X108536761Y-93997092D01*
X108473548Y-94065760D01*
X108413661Y-94101750D01*
X108343823Y-94099649D01*
X108286207Y-94060124D01*
X108266138Y-94025110D01*
X108220889Y-93903796D01*
X108187214Y-93858812D01*
X108133261Y-93786739D01*
X108016204Y-93699111D01*
X108016204Y-93699110D01*
X107879203Y-93648011D01*
X107818654Y-93641500D01*
X107818638Y-93641500D01*
X106021362Y-93641500D01*
X106021345Y-93641500D01*
X105960797Y-93648011D01*
X105960795Y-93648011D01*
X105823795Y-93699111D01*
X105706739Y-93786739D01*
X105619111Y-93903795D01*
X105568011Y-94040795D01*
X105568011Y-94040797D01*
X105561500Y-94101345D01*
X105561500Y-95898654D01*
X105568011Y-95959202D01*
X105568011Y-95959204D01*
X105619110Y-96096204D01*
X105619111Y-96096204D01*
X105706739Y-96213261D01*
X105823796Y-96300889D01*
X105960799Y-96351989D01*
X105988050Y-96354918D01*
X106021345Y-96358499D01*
X106021362Y-96358500D01*
X107818638Y-96358500D01*
X107818654Y-96358499D01*
X107845692Y-96355591D01*
X107879201Y-96351989D01*
X108016204Y-96300889D01*
X108133261Y-96213261D01*
X108220889Y-96096204D01*
X108266138Y-95974887D01*
X108308009Y-95918956D01*
X108373474Y-95894539D01*
X108441746Y-95909391D01*
X108473545Y-95934236D01*
X108536760Y-96002906D01*
X108714424Y-96141189D01*
X108714425Y-96141189D01*
X108714427Y-96141191D01*
X108841135Y-96209761D01*
X108912426Y-96248342D01*
X109125365Y-96321444D01*
X109347431Y-96358500D01*
X109572569Y-96358500D01*
X109794635Y-96321444D01*
X110007574Y-96248342D01*
X110205576Y-96141189D01*
X110383240Y-96002906D01*
X110499542Y-95876570D01*
X110535715Y-95837276D01*
X110535715Y-95837275D01*
X110535722Y-95837268D01*
X110626193Y-95698790D01*
X110679338Y-95653437D01*
X110748569Y-95644013D01*
X110811905Y-95673515D01*
X110833804Y-95698787D01*
X110924278Y-95837268D01*
X110924283Y-95837273D01*
X110924284Y-95837276D01*
X110958728Y-95874691D01*
X110989651Y-95937345D01*
X110991499Y-95958674D01*
X110991500Y-96732984D01*
X110971816Y-96800023D01*
X110955185Y-96820660D01*
X110820664Y-96955182D01*
X110759344Y-96988666D01*
X110732985Y-96991500D01*
X105052598Y-96991500D01*
X105046518Y-96991201D01*
X105000000Y-96986620D01*
X104802301Y-97006090D01*
X104612192Y-97063759D01*
X104596614Y-97072087D01*
X104437001Y-97157401D01*
X104436994Y-97157405D01*
X104283431Y-97283432D01*
X104253779Y-97319562D01*
X104249691Y-97324072D01*
X103324077Y-98249687D01*
X103319567Y-98253775D01*
X103283432Y-98283431D01*
X103157407Y-98436992D01*
X103103982Y-98536944D01*
X103063758Y-98612196D01*
X103006091Y-98802296D01*
X102986620Y-99000000D01*
X102991201Y-99046517D01*
X102991500Y-99052597D01*
X102991500Y-103947401D01*
X102991201Y-103953481D01*
X102986620Y-103999999D01*
X100275500Y-103999999D01*
X100275500Y-88780005D01*
X107636844Y-88780005D01*
X107655434Y-89004359D01*
X107655436Y-89004371D01*
X107710703Y-89222614D01*
X107801140Y-89428792D01*
X107924276Y-89617265D01*
X107924284Y-89617276D01*
X108076756Y-89782902D01*
X108076760Y-89782906D01*
X108254424Y-89921189D01*
X108254425Y-89921189D01*
X108254427Y-89921191D01*
X108304914Y-89948513D01*
X108452426Y-90028342D01*
X108665365Y-90101444D01*
X108887431Y-90138500D01*
X109112569Y-90138500D01*
X109334635Y-90101444D01*
X109547574Y-90028342D01*
X109745576Y-89921189D01*
X109923240Y-89782906D01*
X110075722Y-89617268D01*
X110198860Y-89428791D01*
X110289296Y-89222616D01*
X110344564Y-89004368D01*
X110344926Y-89000001D01*
X123686502Y-89000001D01*
X123706456Y-89228081D01*
X123706457Y-89228089D01*
X123765714Y-89449238D01*
X123765718Y-89449249D01*
X123862475Y-89656745D01*
X123862477Y-89656749D01*
X123993802Y-89844300D01*
X124155700Y-90006198D01*
X124343251Y-90137523D01*
X124468091Y-90195736D01*
X124550750Y-90234281D01*
X124550752Y-90234281D01*
X124550757Y-90234284D01*
X124771913Y-90293543D01*
X124934832Y-90307796D01*
X124999998Y-90313498D01*
X125000000Y-90313498D01*
X125000002Y-90313498D01*
X125057021Y-90308509D01*
X125228087Y-90293543D01*
X125449243Y-90234284D01*
X125656749Y-90137523D01*
X125708275Y-90101444D01*
X125766143Y-90060925D01*
X125832349Y-90038598D01*
X125837266Y-90038500D01*
X131321324Y-90038500D01*
X131361586Y-90045218D01*
X131525365Y-90101444D01*
X131747431Y-90138500D01*
X131972569Y-90138500D01*
X132194635Y-90101444D01*
X132407574Y-90028342D01*
X132605576Y-89921189D01*
X132783240Y-89782906D01*
X132935722Y-89617268D01*
X133058860Y-89428791D01*
X133149296Y-89222616D01*
X133204564Y-89004368D01*
X133204926Y-88999998D01*
X133223156Y-88780005D01*
X133223156Y-88779994D01*
X133204565Y-88555640D01*
X133204563Y-88555628D01*
X133150782Y-88343252D01*
X133149296Y-88337384D01*
X133058860Y-88131209D01*
X132935722Y-87942732D01*
X132935719Y-87942729D01*
X132935715Y-87942723D01*
X132783243Y-87777097D01*
X132783238Y-87777092D01*
X132605577Y-87638812D01*
X132605578Y-87638812D01*
X132605576Y-87638811D01*
X132569070Y-87619055D01*
X132519479Y-87569836D01*
X132504371Y-87501619D01*
X132528541Y-87436064D01*
X132569070Y-87400945D01*
X132605570Y-87381192D01*
X132605576Y-87381189D01*
X132659723Y-87339043D01*
X132742461Y-87274647D01*
X132807455Y-87249004D01*
X132818623Y-87248500D01*
X133009483Y-87248500D01*
X133015563Y-87248799D01*
X133029592Y-87250180D01*
X133062081Y-87253380D01*
X133259782Y-87233909D01*
X133449885Y-87176241D01*
X133449884Y-87176240D01*
X133471731Y-87169614D01*
X133471907Y-87169315D01*
X133498355Y-87150332D01*
X133625085Y-87082595D01*
X133778649Y-86956568D01*
X133808319Y-86920413D01*
X133812369Y-86915944D01*
X135675944Y-85052369D01*
X135680413Y-85048319D01*
X135716568Y-85018649D01*
X135842595Y-84865085D01*
X135936241Y-84689885D01*
X135993908Y-84499782D01*
X136008500Y-84351628D01*
X136013380Y-84302081D01*
X136008799Y-84255566D01*
X136008500Y-84249485D01*
X136008500Y-79000006D01*
X142594700Y-79000006D01*
X142613864Y-79231297D01*
X142613866Y-79231308D01*
X142670842Y-79456300D01*
X142764075Y-79668848D01*
X142882753Y-79850499D01*
X142891021Y-79863153D01*
X142953958Y-79931521D01*
X142984878Y-79994171D01*
X142977018Y-80063597D01*
X142932871Y-80117753D01*
X142866454Y-80139444D01*
X142862737Y-80139500D01*
X142855149Y-80139500D01*
X142855117Y-80139502D01*
X142830012Y-80142413D01*
X142830008Y-80142415D01*
X142727235Y-80187793D01*
X142647794Y-80267234D01*
X142602415Y-80370006D01*
X142602415Y-80370008D01*
X142599500Y-80395131D01*
X142599500Y-82684856D01*
X142599502Y-82684882D01*
X142602413Y-82709987D01*
X142602415Y-82709991D01*
X142647793Y-82812764D01*
X142647794Y-82812765D01*
X142727235Y-82892206D01*
X142830009Y-82937585D01*
X142855135Y-82940500D01*
X145144864Y-82940499D01*
X145144879Y-82940497D01*
X145144882Y-82940497D01*
X145169987Y-82937586D01*
X145169988Y-82937585D01*
X145169991Y-82937585D01*
X145272765Y-82892206D01*
X145352206Y-82812765D01*
X145397585Y-82709991D01*
X145400500Y-82684865D01*
X145400499Y-81493685D01*
X145685740Y-81493685D01*
X145695755Y-81678406D01*
X145695755Y-81678411D01*
X145745244Y-81856656D01*
X145745247Y-81856662D01*
X145831898Y-82020102D01*
X145894540Y-82093850D01*
X145951663Y-82161100D01*
X146098936Y-82273054D01*
X146266833Y-82350732D01*
X146266834Y-82350732D01*
X146266836Y-82350733D01*
X146321648Y-82362797D01*
X146447503Y-82390500D01*
X146447506Y-82390500D01*
X146586107Y-82390500D01*
X146586113Y-82390500D01*
X146723910Y-82375514D01*
X146899221Y-82316444D01*
X147057736Y-82221070D01*
X147192041Y-82093849D01*
X147295858Y-81940730D01*
X147364331Y-81768875D01*
X147394260Y-81586317D01*
X147384245Y-81401593D01*
X147384244Y-81401588D01*
X147334755Y-81223343D01*
X147334752Y-81223337D01*
X147248101Y-81059897D01*
X147128337Y-80918900D01*
X147049449Y-80858931D01*
X146981064Y-80806946D01*
X146813167Y-80729268D01*
X146813163Y-80729266D01*
X146632497Y-80689500D01*
X146493887Y-80689500D01*
X146493883Y-80689500D01*
X146356088Y-80704486D01*
X146180776Y-80763557D01*
X146180774Y-80763558D01*
X146022262Y-80858931D01*
X146022261Y-80858932D01*
X145887959Y-80986149D01*
X145784138Y-81139276D01*
X145715669Y-81311122D01*
X145685740Y-81493685D01*
X145400499Y-81493685D01*
X145400499Y-80395136D01*
X145400497Y-80395117D01*
X145397586Y-80370012D01*
X145397585Y-80370010D01*
X145397585Y-80370009D01*
X145352206Y-80267235D01*
X145272765Y-80187794D01*
X145203243Y-80157097D01*
X145169992Y-80142415D01*
X145144868Y-80139500D01*
X145144865Y-80139500D01*
X145137275Y-80139500D01*
X145070236Y-80119815D01*
X145024481Y-80067011D01*
X145014537Y-79997853D01*
X145043562Y-79934297D01*
X145046045Y-79931518D01*
X145064327Y-79911658D01*
X145108979Y-79863153D01*
X145235924Y-79668849D01*
X145329157Y-79456300D01*
X145386134Y-79231305D01*
X145386135Y-79231297D01*
X145405300Y-79000006D01*
X145405300Y-78999993D01*
X145401463Y-78953685D01*
X145685740Y-78953685D01*
X145695755Y-79138406D01*
X145695755Y-79138411D01*
X145745244Y-79316656D01*
X145745247Y-79316662D01*
X145831898Y-79480102D01*
X145894540Y-79553850D01*
X145951663Y-79621100D01*
X146098936Y-79733054D01*
X146266833Y-79810732D01*
X146266834Y-79810732D01*
X146266836Y-79810733D01*
X146321648Y-79822797D01*
X146447503Y-79850500D01*
X146447506Y-79850500D01*
X146586107Y-79850500D01*
X146586113Y-79850500D01*
X146723910Y-79835514D01*
X146899221Y-79776444D01*
X147057736Y-79681070D01*
X147192041Y-79553849D01*
X147295858Y-79400730D01*
X147364331Y-79228875D01*
X147394260Y-79046317D01*
X147384245Y-78861593D01*
X147384244Y-78861588D01*
X147334755Y-78683343D01*
X147334752Y-78683337D01*
X147248101Y-78519897D01*
X147128337Y-78378900D01*
X147049449Y-78318931D01*
X146981064Y-78266946D01*
X146813167Y-78189268D01*
X146813163Y-78189266D01*
X146632497Y-78149500D01*
X146493887Y-78149500D01*
X146493883Y-78149500D01*
X146356088Y-78164486D01*
X146180776Y-78223557D01*
X146180774Y-78223558D01*
X146022262Y-78318931D01*
X146022261Y-78318932D01*
X145887959Y-78446149D01*
X145784138Y-78599276D01*
X145715669Y-78771122D01*
X145685740Y-78953685D01*
X145401463Y-78953685D01*
X145386135Y-78768702D01*
X145386133Y-78768691D01*
X145329157Y-78543699D01*
X145235924Y-78331151D01*
X145108983Y-78136852D01*
X145108980Y-78136849D01*
X145108979Y-78136847D01*
X144951784Y-77966087D01*
X144951779Y-77966083D01*
X144951777Y-77966081D01*
X144768634Y-77823535D01*
X144768628Y-77823531D01*
X144564504Y-77713064D01*
X144564495Y-77713061D01*
X144344984Y-77637702D01*
X144173281Y-77609050D01*
X144116049Y-77599500D01*
X143883951Y-77599500D01*
X143838164Y-77607140D01*
X143655015Y-77637702D01*
X143435504Y-77713061D01*
X143435495Y-77713064D01*
X143231371Y-77823531D01*
X143231365Y-77823535D01*
X143048222Y-77966081D01*
X143048219Y-77966084D01*
X142891016Y-78136852D01*
X142764075Y-78331151D01*
X142670842Y-78543699D01*
X142613866Y-78768691D01*
X142613864Y-78768702D01*
X142594700Y-78999993D01*
X142594700Y-79000006D01*
X136008500Y-79000006D01*
X136008500Y-76469096D01*
X136028185Y-76402057D01*
X136044819Y-76381415D01*
X136841415Y-75584819D01*
X136902738Y-75551334D01*
X136929096Y-75548500D01*
X142475501Y-75548500D01*
X142542540Y-75568185D01*
X142588295Y-75620989D01*
X142599501Y-75672500D01*
X142599501Y-75684856D01*
X142599502Y-75684882D01*
X142602413Y-75709987D01*
X142602415Y-75709991D01*
X142647793Y-75812764D01*
X142647794Y-75812765D01*
X142727235Y-75892206D01*
X142830009Y-75937585D01*
X142855135Y-75940500D01*
X145144864Y-75940499D01*
X145144879Y-75940497D01*
X145144882Y-75940497D01*
X145169987Y-75937586D01*
X145169988Y-75937585D01*
X145169991Y-75937585D01*
X145272765Y-75892206D01*
X145352206Y-75812765D01*
X145397585Y-75709991D01*
X145400500Y-75684865D01*
X145400499Y-74493685D01*
X145685740Y-74493685D01*
X145695755Y-74678406D01*
X145695755Y-74678411D01*
X145745244Y-74856656D01*
X145745247Y-74856662D01*
X145831898Y-75020102D01*
X145894540Y-75093850D01*
X145951663Y-75161100D01*
X146098936Y-75273054D01*
X146266833Y-75350732D01*
X146266834Y-75350732D01*
X146266836Y-75350733D01*
X146321648Y-75362797D01*
X146447503Y-75390500D01*
X146447506Y-75390500D01*
X146586107Y-75390500D01*
X146586113Y-75390500D01*
X146723910Y-75375514D01*
X146899221Y-75316444D01*
X147057736Y-75221070D01*
X147192041Y-75093849D01*
X147295858Y-74940730D01*
X147296624Y-74938809D01*
X147364330Y-74768877D01*
X147364329Y-74768877D01*
X147364331Y-74768875D01*
X147394260Y-74586317D01*
X147384245Y-74401593D01*
X147384244Y-74401588D01*
X147334755Y-74223343D01*
X147334752Y-74223337D01*
X147248101Y-74059897D01*
X147128337Y-73918900D01*
X147128337Y-73918899D01*
X146981064Y-73806946D01*
X146813167Y-73729268D01*
X146813163Y-73729266D01*
X146632497Y-73689500D01*
X146493887Y-73689500D01*
X146493883Y-73689500D01*
X146356088Y-73704486D01*
X146180776Y-73763557D01*
X146180774Y-73763558D01*
X146022262Y-73858931D01*
X146022261Y-73858932D01*
X145887959Y-73986149D01*
X145784138Y-74139276D01*
X145715669Y-74311122D01*
X145685740Y-74493685D01*
X145400499Y-74493685D01*
X145400499Y-73395136D01*
X145400497Y-73395117D01*
X145397586Y-73370012D01*
X145397585Y-73370010D01*
X145397585Y-73370009D01*
X145352206Y-73267235D01*
X145272765Y-73187794D01*
X145272763Y-73187793D01*
X145169992Y-73142415D01*
X145144868Y-73139500D01*
X145144865Y-73139500D01*
X145137275Y-73139500D01*
X145070236Y-73119815D01*
X145024481Y-73067011D01*
X145014537Y-72997853D01*
X145043562Y-72934297D01*
X145046045Y-72931518D01*
X145056642Y-72920006D01*
X145108979Y-72863153D01*
X145235924Y-72668849D01*
X145329157Y-72456300D01*
X145386134Y-72231305D01*
X145386135Y-72231297D01*
X145405300Y-72000006D01*
X145405300Y-71999993D01*
X145401463Y-71953685D01*
X145685740Y-71953685D01*
X145695755Y-72138406D01*
X145695755Y-72138411D01*
X145745244Y-72316656D01*
X145745247Y-72316662D01*
X145831898Y-72480102D01*
X145894540Y-72553850D01*
X145951663Y-72621100D01*
X146098936Y-72733054D01*
X146266833Y-72810732D01*
X146266834Y-72810732D01*
X146266836Y-72810733D01*
X146321648Y-72822797D01*
X146447503Y-72850500D01*
X146447506Y-72850500D01*
X146586107Y-72850500D01*
X146586113Y-72850500D01*
X146723910Y-72835514D01*
X146899221Y-72776444D01*
X147057736Y-72681070D01*
X147192041Y-72553849D01*
X147295858Y-72400730D01*
X147301449Y-72386699D01*
X147335638Y-72300889D01*
X147364331Y-72228875D01*
X147394260Y-72046317D01*
X147384245Y-71861593D01*
X147359126Y-71771122D01*
X147334755Y-71683343D01*
X147334752Y-71683337D01*
X147248101Y-71519897D01*
X147128337Y-71378900D01*
X147049449Y-71318931D01*
X146981064Y-71266946D01*
X146813167Y-71189268D01*
X146813163Y-71189266D01*
X146632497Y-71149500D01*
X146493887Y-71149500D01*
X146493883Y-71149500D01*
X146356088Y-71164486D01*
X146180776Y-71223557D01*
X146180774Y-71223558D01*
X146022262Y-71318931D01*
X146022261Y-71318932D01*
X145887959Y-71446149D01*
X145784138Y-71599276D01*
X145715669Y-71771122D01*
X145685740Y-71953685D01*
X145401463Y-71953685D01*
X145386135Y-71768702D01*
X145386133Y-71768691D01*
X145329157Y-71543699D01*
X145235924Y-71331151D01*
X145108983Y-71136852D01*
X145108980Y-71136849D01*
X145108979Y-71136847D01*
X144951784Y-70966087D01*
X144951779Y-70966083D01*
X144951777Y-70966081D01*
X144768634Y-70823535D01*
X144768628Y-70823531D01*
X144564504Y-70713064D01*
X144564495Y-70713061D01*
X144344984Y-70637702D01*
X144173281Y-70609050D01*
X144116049Y-70599500D01*
X143883951Y-70599500D01*
X143838164Y-70607140D01*
X143655015Y-70637702D01*
X143435504Y-70713061D01*
X143435495Y-70713064D01*
X143231371Y-70823531D01*
X143231365Y-70823535D01*
X143048222Y-70966081D01*
X143048219Y-70966084D01*
X142891016Y-71136852D01*
X142764075Y-71331151D01*
X142670842Y-71543699D01*
X142613866Y-71768691D01*
X142613864Y-71768702D01*
X142594700Y-71999993D01*
X142594700Y-72000006D01*
X142613864Y-72231297D01*
X142613866Y-72231308D01*
X142670842Y-72456300D01*
X142764075Y-72668848D01*
X142882753Y-72850499D01*
X142891021Y-72863153D01*
X142953958Y-72931521D01*
X142984878Y-72994171D01*
X142977018Y-73063597D01*
X142932871Y-73117753D01*
X142866454Y-73139444D01*
X142862737Y-73139500D01*
X142855149Y-73139500D01*
X142855117Y-73139502D01*
X142830012Y-73142413D01*
X142830008Y-73142415D01*
X142727235Y-73187793D01*
X142647794Y-73267234D01*
X142602415Y-73370006D01*
X142602415Y-73370008D01*
X142599500Y-73395131D01*
X142599500Y-73407500D01*
X142579815Y-73474539D01*
X142527011Y-73520294D01*
X142475500Y-73531500D01*
X136512598Y-73531500D01*
X136506518Y-73531201D01*
X136460000Y-73526620D01*
X136262296Y-73546091D01*
X136116442Y-73590337D01*
X136072191Y-73603760D01*
X135897001Y-73697401D01*
X135896994Y-73697405D01*
X135743431Y-73823432D01*
X135713775Y-73859567D01*
X135709687Y-73864077D01*
X134324077Y-75249687D01*
X134319567Y-75253775D01*
X134283432Y-75283431D01*
X134157406Y-75436994D01*
X134105605Y-75533908D01*
X134063758Y-75612196D01*
X134006091Y-75802296D01*
X133986620Y-76000000D01*
X133991200Y-76046514D01*
X133991499Y-76052594D01*
X133991499Y-83832984D01*
X133971814Y-83900023D01*
X133955180Y-83920665D01*
X132779422Y-85096423D01*
X132718099Y-85129908D01*
X132648407Y-85124924D01*
X132615582Y-85106598D01*
X132605580Y-85098814D01*
X132605577Y-85098812D01*
X132605576Y-85098811D01*
X132569070Y-85079055D01*
X132519479Y-85029836D01*
X132504371Y-84961619D01*
X132528541Y-84896064D01*
X132569070Y-84860945D01*
X132569084Y-84860936D01*
X132605576Y-84841189D01*
X132783240Y-84702906D01*
X132935722Y-84537268D01*
X133058860Y-84348791D01*
X133149296Y-84142616D01*
X133204564Y-83924368D01*
X133204871Y-83920665D01*
X133223156Y-83700005D01*
X133223156Y-83699994D01*
X133204565Y-83475640D01*
X133204563Y-83475628D01*
X133171041Y-83343252D01*
X133149296Y-83257384D01*
X133058860Y-83051209D01*
X132935722Y-82862732D01*
X132935719Y-82862729D01*
X132935715Y-82862723D01*
X132783243Y-82697097D01*
X132783238Y-82697092D01*
X132605577Y-82558812D01*
X132605578Y-82558812D01*
X132605576Y-82558811D01*
X132569070Y-82539055D01*
X132519479Y-82489836D01*
X132504371Y-82421619D01*
X132528541Y-82356064D01*
X132569070Y-82320945D01*
X132577387Y-82316444D01*
X132605576Y-82301189D01*
X132783240Y-82162906D01*
X132935722Y-81997268D01*
X133058860Y-81808791D01*
X133149296Y-81602616D01*
X133204564Y-81384368D01*
X133204565Y-81384359D01*
X133223156Y-81160005D01*
X133223156Y-81159994D01*
X133204565Y-80935640D01*
X133204563Y-80935628D01*
X133160989Y-80763558D01*
X133149296Y-80717384D01*
X133058860Y-80511209D01*
X132935722Y-80322732D01*
X132935719Y-80322729D01*
X132935715Y-80322723D01*
X132783243Y-80157097D01*
X132783238Y-80157092D01*
X132605577Y-80018812D01*
X132605578Y-80018812D01*
X132605576Y-80018811D01*
X132569070Y-79999055D01*
X132519479Y-79949836D01*
X132504371Y-79881619D01*
X132528541Y-79816064D01*
X132569070Y-79780945D01*
X132577387Y-79776444D01*
X132605576Y-79761189D01*
X132783240Y-79622906D01*
X132935722Y-79457268D01*
X133058860Y-79268791D01*
X133149296Y-79062616D01*
X133204564Y-78844368D01*
X133204565Y-78844359D01*
X133223156Y-78620005D01*
X133223156Y-78619994D01*
X133204565Y-78395640D01*
X133204563Y-78395628D01*
X133160989Y-78223558D01*
X133149296Y-78177384D01*
X133058860Y-77971209D01*
X132935722Y-77782732D01*
X132935719Y-77782729D01*
X132935715Y-77782723D01*
X132783243Y-77617097D01*
X132783238Y-77617092D01*
X132605577Y-77478812D01*
X132605572Y-77478808D01*
X132569068Y-77459053D01*
X132519478Y-77409833D01*
X132504371Y-77341616D01*
X132528542Y-77276061D01*
X132569069Y-77240945D01*
X132605576Y-77221189D01*
X132783240Y-77082906D01*
X132935722Y-76917268D01*
X133058860Y-76728791D01*
X133149296Y-76522616D01*
X133204564Y-76304368D01*
X133223156Y-76080000D01*
X133220885Y-76052594D01*
X133204565Y-75855640D01*
X133204563Y-75855628D01*
X133167683Y-75709993D01*
X133149296Y-75637384D01*
X133058860Y-75431209D01*
X133006282Y-75350733D01*
X132983878Y-75316441D01*
X132935722Y-75242732D01*
X132935719Y-75242729D01*
X132935715Y-75242723D01*
X132783243Y-75077097D01*
X132783238Y-75077092D01*
X132664797Y-74984905D01*
X132605576Y-74938811D01*
X132569070Y-74919055D01*
X132519479Y-74869836D01*
X132504371Y-74801619D01*
X132528541Y-74736064D01*
X132569070Y-74700945D01*
X132569084Y-74700936D01*
X132605576Y-74681189D01*
X132783240Y-74542906D01*
X132935722Y-74377268D01*
X133058860Y-74188791D01*
X133149296Y-73982616D01*
X133204564Y-73764368D01*
X133204631Y-73763557D01*
X133223156Y-73540005D01*
X133223156Y-73539994D01*
X133204565Y-73315640D01*
X133204563Y-73315628D01*
X133149296Y-73097385D01*
X133134475Y-73063597D01*
X133058860Y-72891209D01*
X133006282Y-72810733D01*
X132955532Y-72733054D01*
X132935722Y-72702732D01*
X132935719Y-72702729D01*
X132935715Y-72702723D01*
X132790510Y-72544991D01*
X132759587Y-72482337D01*
X132767447Y-72412911D01*
X132811594Y-72358755D01*
X132838405Y-72344827D01*
X132918584Y-72314920D01*
X132956204Y-72300889D01*
X133073261Y-72213261D01*
X133160889Y-72096204D01*
X133211989Y-71959201D01*
X133215591Y-71925692D01*
X133218499Y-71898654D01*
X133218499Y-71898647D01*
X133218500Y-71898638D01*
X133218500Y-70101362D01*
X133218499Y-70101352D01*
X133218499Y-70101345D01*
X133215157Y-70070270D01*
X133211989Y-70040799D01*
X133160889Y-69903796D01*
X133073261Y-69786739D01*
X132956204Y-69699111D01*
X132956203Y-69699111D01*
X132819203Y-69648011D01*
X132758654Y-69641500D01*
X132758638Y-69641500D01*
X130961362Y-69641500D01*
X130961345Y-69641500D01*
X130900797Y-69648011D01*
X130900795Y-69648011D01*
X130763795Y-69699111D01*
X130646739Y-69786739D01*
X130559111Y-69903795D01*
X130508011Y-70040795D01*
X130508011Y-70040797D01*
X130501500Y-70101345D01*
X130501500Y-71898654D01*
X130508011Y-71959202D01*
X130508011Y-71959204D01*
X130540504Y-72046317D01*
X130559111Y-72096204D01*
X130646739Y-72213261D01*
X130763796Y-72300889D01*
X130806069Y-72316656D01*
X130881595Y-72344827D01*
X130937528Y-72386699D01*
X130961944Y-72452163D01*
X130947092Y-72520436D01*
X130929490Y-72544991D01*
X130784279Y-72702730D01*
X130784276Y-72702734D01*
X130661140Y-72891207D01*
X130570703Y-73097385D01*
X130515436Y-73315628D01*
X130515434Y-73315640D01*
X130496844Y-73539994D01*
X130496844Y-73540005D01*
X130515434Y-73764359D01*
X130515436Y-73764371D01*
X130570703Y-73982614D01*
X130661140Y-74188792D01*
X130784276Y-74377265D01*
X130784284Y-74377276D01*
X130891448Y-74493685D01*
X130936760Y-74542906D01*
X131114424Y-74681189D01*
X131114429Y-74681191D01*
X131114431Y-74681193D01*
X131150930Y-74700946D01*
X131200520Y-74750165D01*
X131215628Y-74818382D01*
X131191457Y-74883937D01*
X131150930Y-74919054D01*
X131114431Y-74938806D01*
X131114422Y-74938812D01*
X130936761Y-75077092D01*
X130936756Y-75077097D01*
X130784284Y-75242723D01*
X130784276Y-75242734D01*
X130661140Y-75431207D01*
X130570703Y-75637385D01*
X130515436Y-75855628D01*
X130515434Y-75855640D01*
X130496844Y-76079994D01*
X130496844Y-76080005D01*
X130515434Y-76304359D01*
X130515436Y-76304371D01*
X130570703Y-76522614D01*
X130661140Y-76728792D01*
X130784276Y-76917265D01*
X130784284Y-76917276D01*
X130936756Y-77082902D01*
X130936760Y-77082906D01*
X131114424Y-77221189D01*
X131150930Y-77240945D01*
X131200519Y-77290162D01*
X131215629Y-77358378D01*
X131191459Y-77423934D01*
X131150932Y-77459052D01*
X131114432Y-77478805D01*
X131114422Y-77478812D01*
X130936761Y-77617092D01*
X130936756Y-77617097D01*
X130784284Y-77782723D01*
X130784276Y-77782734D01*
X130661140Y-77971207D01*
X130570703Y-78177385D01*
X130515436Y-78395628D01*
X130515434Y-78395640D01*
X130496844Y-78619994D01*
X130496844Y-78620005D01*
X130515434Y-78844359D01*
X130515436Y-78844371D01*
X130570703Y-79062614D01*
X130661140Y-79268792D01*
X130784276Y-79457265D01*
X130784284Y-79457276D01*
X130935097Y-79621100D01*
X130936760Y-79622906D01*
X131114424Y-79761189D01*
X131114429Y-79761191D01*
X131114431Y-79761193D01*
X131150930Y-79780946D01*
X131200520Y-79830165D01*
X131215628Y-79898382D01*
X131191457Y-79963937D01*
X131150930Y-79999054D01*
X131114431Y-80018806D01*
X131114422Y-80018812D01*
X130936761Y-80157092D01*
X130936756Y-80157097D01*
X130784284Y-80322723D01*
X130784276Y-80322734D01*
X130661140Y-80511207D01*
X130570703Y-80717385D01*
X130515436Y-80935628D01*
X130515434Y-80935640D01*
X130496844Y-81159994D01*
X130496844Y-81160005D01*
X130515434Y-81384359D01*
X130515436Y-81384371D01*
X130570703Y-81602614D01*
X130661140Y-81808792D01*
X130784276Y-81997265D01*
X130784284Y-81997276D01*
X130935097Y-82161100D01*
X130936760Y-82162906D01*
X131114424Y-82301189D01*
X131114429Y-82301191D01*
X131114431Y-82301193D01*
X131150930Y-82320946D01*
X131200520Y-82370165D01*
X131215628Y-82438382D01*
X131191457Y-82503937D01*
X131150930Y-82539054D01*
X131114431Y-82558806D01*
X131114422Y-82558812D01*
X130936761Y-82697092D01*
X130936756Y-82697097D01*
X130784284Y-82862723D01*
X130784276Y-82862734D01*
X130661140Y-83051207D01*
X130570703Y-83257385D01*
X130515436Y-83475628D01*
X130515434Y-83475640D01*
X130496844Y-83699994D01*
X130496844Y-83700005D01*
X130515434Y-83924359D01*
X130515436Y-83924371D01*
X130570703Y-84142614D01*
X130661140Y-84348792D01*
X130784276Y-84537265D01*
X130784284Y-84537276D01*
X130936756Y-84702902D01*
X130936760Y-84702906D01*
X131114424Y-84841189D01*
X131114429Y-84841191D01*
X131114431Y-84841193D01*
X131150930Y-84860946D01*
X131200520Y-84910165D01*
X131215628Y-84978382D01*
X131191457Y-85043937D01*
X131150930Y-85079054D01*
X131114431Y-85098806D01*
X131114422Y-85098812D01*
X130936761Y-85237092D01*
X130936756Y-85237097D01*
X130784284Y-85402723D01*
X130784276Y-85402734D01*
X130661140Y-85591207D01*
X130570703Y-85797385D01*
X130515436Y-86015628D01*
X130515434Y-86015640D01*
X130496844Y-86239994D01*
X130496844Y-86240005D01*
X130515434Y-86464359D01*
X130515436Y-86464371D01*
X130570703Y-86682614D01*
X130661140Y-86888792D01*
X130784276Y-87077265D01*
X130784284Y-87077276D01*
X130936756Y-87242902D01*
X130936761Y-87242907D01*
X131009660Y-87299647D01*
X131050473Y-87356358D01*
X131054146Y-87426131D01*
X131019515Y-87486814D01*
X130957573Y-87519140D01*
X130933497Y-87521500D01*
X125294161Y-87521500D01*
X125287220Y-87521110D01*
X125262089Y-87518278D01*
X125248354Y-87516731D01*
X125248348Y-87516730D01*
X125179704Y-87521359D01*
X125175532Y-87521500D01*
X125163471Y-87521500D01*
X125121243Y-87525300D01*
X125022339Y-87531969D01*
X125022331Y-87531970D01*
X125017988Y-87533064D01*
X124998837Y-87536317D01*
X124994382Y-87536718D01*
X124898805Y-87563095D01*
X124802663Y-87587320D01*
X124802656Y-87587323D01*
X124798590Y-87589170D01*
X124780313Y-87595797D01*
X124776014Y-87596983D01*
X124776007Y-87596986D01*
X124686688Y-87639999D01*
X124596409Y-87681006D01*
X124596402Y-87681010D01*
X124592733Y-87683552D01*
X124575939Y-87693332D01*
X124571915Y-87695269D01*
X124571906Y-87695275D01*
X124491693Y-87753554D01*
X124410199Y-87810012D01*
X124407029Y-87813182D01*
X124392257Y-87825798D01*
X124388636Y-87828429D01*
X124382501Y-87834845D01*
X124347881Y-87859670D01*
X124347939Y-87859770D01*
X124346932Y-87860351D01*
X124345308Y-87861516D01*
X124343261Y-87862470D01*
X124343258Y-87862472D01*
X124343250Y-87862477D01*
X124343251Y-87862477D01*
X124155700Y-87993802D01*
X124155698Y-87993803D01*
X124155695Y-87993806D01*
X123993806Y-88155695D01*
X123862476Y-88343252D01*
X123862475Y-88343254D01*
X123765718Y-88550750D01*
X123765714Y-88550761D01*
X123706457Y-88771910D01*
X123706456Y-88771918D01*
X123686502Y-88999998D01*
X123686502Y-89000001D01*
X110344926Y-89000001D01*
X110344926Y-88999998D01*
X110363156Y-88780005D01*
X110363156Y-88779994D01*
X110344565Y-88555640D01*
X110344563Y-88555628D01*
X110290782Y-88343252D01*
X110289296Y-88337384D01*
X110198860Y-88131209D01*
X110075722Y-87942732D01*
X110075719Y-87942729D01*
X110075715Y-87942723D01*
X109923243Y-87777097D01*
X109923238Y-87777092D01*
X109745577Y-87638812D01*
X109745577Y-87638811D01*
X109702303Y-87615393D01*
X109652713Y-87566173D01*
X109637605Y-87497957D01*
X109661775Y-87432401D01*
X109690198Y-87404763D01*
X109871079Y-87278108D01*
X110038105Y-87111082D01*
X110173600Y-86917578D01*
X110273429Y-86703492D01*
X110273432Y-86703486D01*
X110330636Y-86490000D01*
X109613347Y-86490000D01*
X109546308Y-86470315D01*
X109500553Y-86417511D01*
X109490609Y-86348353D01*
X109494369Y-86331067D01*
X109500000Y-86311888D01*
X109500000Y-86168111D01*
X109494369Y-86148933D01*
X109494370Y-86079064D01*
X109532145Y-86020286D01*
X109595701Y-85991262D01*
X109613347Y-85990000D01*
X110330636Y-85990000D01*
X110330635Y-85989999D01*
X110273432Y-85776513D01*
X110273429Y-85776507D01*
X110173600Y-85562422D01*
X110173599Y-85562420D01*
X110038113Y-85368926D01*
X110038108Y-85368920D01*
X109871082Y-85201894D01*
X109690197Y-85075236D01*
X109646572Y-85020659D01*
X109639380Y-84951160D01*
X109670902Y-84888806D01*
X109702300Y-84864608D01*
X109745576Y-84841189D01*
X109923240Y-84702906D01*
X110075722Y-84537268D01*
X110198860Y-84348791D01*
X110289296Y-84142616D01*
X110344564Y-83924368D01*
X110344871Y-83920665D01*
X110363156Y-83700005D01*
X110363156Y-83699994D01*
X110344565Y-83475640D01*
X110344563Y-83475628D01*
X110311041Y-83343252D01*
X110289296Y-83257384D01*
X110198860Y-83051209D01*
X110075722Y-82862732D01*
X110075719Y-82862729D01*
X110075715Y-82862723D01*
X109923243Y-82697097D01*
X109923238Y-82697092D01*
X109745577Y-82558812D01*
X109745578Y-82558812D01*
X109745576Y-82558811D01*
X109709070Y-82539055D01*
X109659479Y-82489836D01*
X109644371Y-82421619D01*
X109668541Y-82356064D01*
X109709070Y-82320945D01*
X109717387Y-82316444D01*
X109745576Y-82301189D01*
X109923240Y-82162906D01*
X110075722Y-81997268D01*
X110198860Y-81808791D01*
X110289296Y-81602616D01*
X110344564Y-81384368D01*
X110344565Y-81384359D01*
X110363156Y-81160005D01*
X110363156Y-81159994D01*
X110344565Y-80935640D01*
X110344563Y-80935628D01*
X110300989Y-80763558D01*
X110289296Y-80717384D01*
X110198860Y-80511209D01*
X110075722Y-80322732D01*
X110075719Y-80322729D01*
X110075715Y-80322723D01*
X109923243Y-80157097D01*
X109923238Y-80157092D01*
X109745577Y-80018812D01*
X109745578Y-80018812D01*
X109745576Y-80018811D01*
X109709070Y-79999055D01*
X109659479Y-79949836D01*
X109644371Y-79881619D01*
X109668541Y-79816064D01*
X109709070Y-79780945D01*
X109717387Y-79776444D01*
X109745576Y-79761189D01*
X109923240Y-79622906D01*
X110075722Y-79457268D01*
X110198860Y-79268791D01*
X110289296Y-79062616D01*
X110344564Y-78844368D01*
X110344565Y-78844359D01*
X110363156Y-78620005D01*
X110363156Y-78619994D01*
X110344565Y-78395640D01*
X110344563Y-78395628D01*
X110300989Y-78223558D01*
X110289296Y-78177384D01*
X110198860Y-77971209D01*
X110075722Y-77782732D01*
X110075719Y-77782729D01*
X110075715Y-77782723D01*
X109923243Y-77617097D01*
X109923238Y-77617092D01*
X109745577Y-77478812D01*
X109745572Y-77478808D01*
X109709068Y-77459053D01*
X109659478Y-77409833D01*
X109644371Y-77341616D01*
X109668542Y-77276061D01*
X109709069Y-77240945D01*
X109745576Y-77221189D01*
X109923240Y-77082906D01*
X110075722Y-76917268D01*
X110198860Y-76728791D01*
X110289296Y-76522616D01*
X110344564Y-76304368D01*
X110363156Y-76080000D01*
X110360885Y-76052594D01*
X110344565Y-75855640D01*
X110344563Y-75855628D01*
X110307683Y-75709993D01*
X110289296Y-75637384D01*
X110198860Y-75431209D01*
X110146282Y-75350733D01*
X110123878Y-75316441D01*
X110075722Y-75242732D01*
X110075719Y-75242729D01*
X110075715Y-75242723D01*
X109923243Y-75077097D01*
X109923238Y-75077092D01*
X109804797Y-74984905D01*
X109745576Y-74938811D01*
X109745575Y-74938810D01*
X109745572Y-74938808D01*
X109709068Y-74919053D01*
X109659478Y-74869833D01*
X109644371Y-74801616D01*
X109668542Y-74736061D01*
X109709069Y-74700945D01*
X109745576Y-74681189D01*
X109923240Y-74542906D01*
X110075722Y-74377268D01*
X110198860Y-74188791D01*
X110289296Y-73982616D01*
X110344564Y-73764368D01*
X110344631Y-73763557D01*
X110363156Y-73540005D01*
X110363156Y-73539994D01*
X110344565Y-73315640D01*
X110344563Y-73315628D01*
X110289296Y-73097385D01*
X110274475Y-73063597D01*
X110198860Y-72891209D01*
X110146282Y-72810733D01*
X110095532Y-72733054D01*
X110075722Y-72702732D01*
X110075719Y-72702729D01*
X110075715Y-72702723D01*
X109930510Y-72544991D01*
X109899587Y-72482337D01*
X109907447Y-72412911D01*
X109951594Y-72358755D01*
X109978405Y-72344827D01*
X110058584Y-72314920D01*
X110096204Y-72300889D01*
X110213261Y-72213261D01*
X110300889Y-72096204D01*
X110351989Y-71959201D01*
X110355591Y-71925692D01*
X110358499Y-71898654D01*
X110358500Y-71898637D01*
X110358500Y-70101362D01*
X110358499Y-70101345D01*
X110355157Y-70070270D01*
X110351989Y-70040799D01*
X110300889Y-69903796D01*
X110213261Y-69786739D01*
X110096204Y-69699111D01*
X110096203Y-69699110D01*
X109959203Y-69648011D01*
X109898654Y-69641500D01*
X109898638Y-69641500D01*
X108101362Y-69641500D01*
X108101345Y-69641500D01*
X108040797Y-69648011D01*
X108040795Y-69648011D01*
X107903795Y-69699111D01*
X107786739Y-69786739D01*
X107699111Y-69903795D01*
X107648011Y-70040795D01*
X107648011Y-70040797D01*
X107641500Y-70101345D01*
X107641500Y-71898654D01*
X107648011Y-71959202D01*
X107648011Y-71959204D01*
X107680504Y-72046317D01*
X107699111Y-72096204D01*
X107786739Y-72213261D01*
X107903796Y-72300889D01*
X107946069Y-72316656D01*
X108021595Y-72344827D01*
X108077528Y-72386699D01*
X108101944Y-72452163D01*
X108087092Y-72520436D01*
X108069490Y-72544991D01*
X107924279Y-72702730D01*
X107924276Y-72702734D01*
X107801140Y-72891207D01*
X107710703Y-73097385D01*
X107655436Y-73315628D01*
X107655434Y-73315640D01*
X107636844Y-73539994D01*
X107636844Y-73540005D01*
X107655434Y-73764359D01*
X107655436Y-73764371D01*
X107710703Y-73982614D01*
X107801140Y-74188792D01*
X107924276Y-74377265D01*
X107924284Y-74377276D01*
X108031448Y-74493685D01*
X108076760Y-74542906D01*
X108254424Y-74681189D01*
X108254429Y-74681191D01*
X108254431Y-74681193D01*
X108290930Y-74700946D01*
X108340520Y-74750165D01*
X108355628Y-74818382D01*
X108331457Y-74883937D01*
X108290930Y-74919054D01*
X108254431Y-74938806D01*
X108254422Y-74938812D01*
X108076761Y-75077092D01*
X108076756Y-75077097D01*
X107924284Y-75242723D01*
X107924276Y-75242734D01*
X107801140Y-75431207D01*
X107710703Y-75637385D01*
X107655436Y-75855628D01*
X107655434Y-75855640D01*
X107636844Y-76079994D01*
X107636844Y-76080005D01*
X107655434Y-76304359D01*
X107655436Y-76304371D01*
X107710703Y-76522614D01*
X107801140Y-76728792D01*
X107924276Y-76917265D01*
X107924284Y-76917276D01*
X108076756Y-77082902D01*
X108076760Y-77082906D01*
X108254424Y-77221189D01*
X108290930Y-77240945D01*
X108340519Y-77290162D01*
X108355629Y-77358378D01*
X108331459Y-77423934D01*
X108290932Y-77459052D01*
X108254432Y-77478805D01*
X108254422Y-77478812D01*
X108076761Y-77617092D01*
X108076756Y-77617097D01*
X107924284Y-77782723D01*
X107924276Y-77782734D01*
X107801140Y-77971207D01*
X107710703Y-78177385D01*
X107655436Y-78395628D01*
X107655434Y-78395640D01*
X107636844Y-78619994D01*
X107636844Y-78620005D01*
X107655434Y-78844359D01*
X107655436Y-78844371D01*
X107710703Y-79062614D01*
X107801140Y-79268792D01*
X107924276Y-79457265D01*
X107924284Y-79457276D01*
X108075097Y-79621100D01*
X108076760Y-79622906D01*
X108254424Y-79761189D01*
X108254429Y-79761191D01*
X108254431Y-79761193D01*
X108290930Y-79780946D01*
X108340520Y-79830165D01*
X108355628Y-79898382D01*
X108331457Y-79963937D01*
X108290930Y-79999054D01*
X108254431Y-80018806D01*
X108254422Y-80018812D01*
X108076761Y-80157092D01*
X108076756Y-80157097D01*
X107924284Y-80322723D01*
X107924276Y-80322734D01*
X107801140Y-80511207D01*
X107710703Y-80717385D01*
X107655436Y-80935628D01*
X107655434Y-80935640D01*
X107636844Y-81159994D01*
X107636844Y-81160005D01*
X107655434Y-81384359D01*
X107655436Y-81384371D01*
X107710703Y-81602614D01*
X107801140Y-81808792D01*
X107924276Y-81997265D01*
X107924284Y-81997276D01*
X108075097Y-82161100D01*
X108076760Y-82162906D01*
X108254424Y-82301189D01*
X108254429Y-82301191D01*
X108254431Y-82301193D01*
X108290930Y-82320946D01*
X108340520Y-82370165D01*
X108355628Y-82438382D01*
X108331457Y-82503937D01*
X108290930Y-82539054D01*
X108254431Y-82558806D01*
X108254422Y-82558812D01*
X108076761Y-82697092D01*
X108076756Y-82697097D01*
X107924284Y-82862723D01*
X107924276Y-82862734D01*
X107801140Y-83051207D01*
X107710703Y-83257385D01*
X107655436Y-83475628D01*
X107655434Y-83475640D01*
X107636844Y-83699994D01*
X107636844Y-83700005D01*
X107655434Y-83924359D01*
X107655436Y-83924371D01*
X107710703Y-84142614D01*
X107801140Y-84348792D01*
X107924276Y-84537265D01*
X107924284Y-84537276D01*
X108076756Y-84702902D01*
X108076760Y-84702906D01*
X108254424Y-84841189D01*
X108290930Y-84860945D01*
X108297695Y-84864606D01*
X108347286Y-84913825D01*
X108362394Y-84982042D01*
X108338224Y-85047597D01*
X108309802Y-85075236D01*
X108128922Y-85201890D01*
X108128920Y-85201891D01*
X107961891Y-85368920D01*
X107961886Y-85368926D01*
X107826400Y-85562420D01*
X107826399Y-85562422D01*
X107726570Y-85776507D01*
X107726567Y-85776513D01*
X107669364Y-85989999D01*
X107669364Y-85990000D01*
X108386653Y-85990000D01*
X108453692Y-86009685D01*
X108499447Y-86062489D01*
X108509391Y-86131647D01*
X108505631Y-86148933D01*
X108500000Y-86168111D01*
X108500000Y-86311888D01*
X108505631Y-86331067D01*
X108505630Y-86400936D01*
X108467855Y-86459714D01*
X108404299Y-86488738D01*
X108386653Y-86490000D01*
X107669364Y-86490000D01*
X107726567Y-86703486D01*
X107726570Y-86703492D01*
X107826399Y-86917578D01*
X107961894Y-87111082D01*
X108128917Y-87278105D01*
X108309802Y-87404763D01*
X108353427Y-87459340D01*
X108360619Y-87528839D01*
X108329097Y-87591193D01*
X108297697Y-87615392D01*
X108254427Y-87638809D01*
X108254422Y-87638812D01*
X108076761Y-87777092D01*
X108076756Y-87777097D01*
X107924284Y-87942723D01*
X107924276Y-87942734D01*
X107801140Y-88131207D01*
X107710703Y-88337385D01*
X107655436Y-88555628D01*
X107655434Y-88555640D01*
X107636844Y-88779994D01*
X107636844Y-88780005D01*
X100275500Y-88780005D01*
X100275500Y-67056330D01*
X103745710Y-67056330D01*
X103775925Y-67279387D01*
X103775926Y-67279390D01*
X103845483Y-67493465D01*
X103952146Y-67691678D01*
X103952148Y-67691681D01*
X104092489Y-67867663D01*
X104092491Y-67867664D01*
X104092492Y-67867666D01*
X104262004Y-68015765D01*
X104455236Y-68131215D01*
X104665976Y-68210307D01*
X104887450Y-68250500D01*
X104887453Y-68250500D01*
X105056148Y-68250500D01*
X105056155Y-68250500D01*
X105224188Y-68235377D01*
X105224192Y-68235376D01*
X105441160Y-68175496D01*
X105441162Y-68175495D01*
X105441170Y-68175493D01*
X105643973Y-68077829D01*
X105826078Y-67945522D01*
X105981632Y-67782825D01*
X106105635Y-67594968D01*
X106194103Y-67387988D01*
X106244191Y-67168537D01*
X106249230Y-67056330D01*
X143745710Y-67056330D01*
X143775925Y-67279387D01*
X143775926Y-67279390D01*
X143845483Y-67493465D01*
X143952146Y-67691678D01*
X143952148Y-67691681D01*
X144092489Y-67867663D01*
X144092491Y-67867664D01*
X144092492Y-67867666D01*
X144262004Y-68015765D01*
X144455236Y-68131215D01*
X144665976Y-68210307D01*
X144887450Y-68250500D01*
X144887453Y-68250500D01*
X145056148Y-68250500D01*
X145056155Y-68250500D01*
X145224188Y-68235377D01*
X145224192Y-68235376D01*
X145441160Y-68175496D01*
X145441162Y-68175495D01*
X145441170Y-68175493D01*
X145643973Y-68077829D01*
X145826078Y-67945522D01*
X145981632Y-67782825D01*
X146105635Y-67594968D01*
X146194103Y-67387988D01*
X146244191Y-67168537D01*
X146254290Y-66943670D01*
X146224075Y-66720613D01*
X146154517Y-66506536D01*
X146047852Y-66308319D01*
X145907508Y-66132334D01*
X145737996Y-65984235D01*
X145544764Y-65868785D01*
X145426775Y-65824503D01*
X145334023Y-65789692D01*
X145112550Y-65749500D01*
X145112547Y-65749500D01*
X144943845Y-65749500D01*
X144905399Y-65752960D01*
X144775813Y-65764622D01*
X144775807Y-65764623D01*
X144558839Y-65824503D01*
X144558826Y-65824508D01*
X144356033Y-65922167D01*
X144356025Y-65922171D01*
X144173927Y-66054473D01*
X144173925Y-66054474D01*
X144018366Y-66217176D01*
X143894363Y-66405033D01*
X143805899Y-66612004D01*
X143805895Y-66612017D01*
X143755810Y-66831457D01*
X143755808Y-66831468D01*
X143750769Y-66943674D01*
X143745710Y-67056330D01*
X106249230Y-67056330D01*
X106254290Y-66943670D01*
X106224075Y-66720613D01*
X106154517Y-66506536D01*
X106047852Y-66308319D01*
X105907508Y-66132334D01*
X105737996Y-65984235D01*
X105544764Y-65868785D01*
X105426775Y-65824503D01*
X105334023Y-65789692D01*
X105112550Y-65749500D01*
X105112547Y-65749500D01*
X104943845Y-65749500D01*
X104905399Y-65752960D01*
X104775813Y-65764622D01*
X104775807Y-65764623D01*
X104558839Y-65824503D01*
X104558826Y-65824508D01*
X104356033Y-65922167D01*
X104356025Y-65922171D01*
X104173927Y-66054473D01*
X104173925Y-66054474D01*
X104018366Y-66217176D01*
X103894363Y-66405033D01*
X103805899Y-66612004D01*
X103805895Y-66612017D01*
X103755810Y-66831457D01*
X103755808Y-66831468D01*
X103750769Y-66943674D01*
X103745710Y-67056330D01*
X100275500Y-67056330D01*
X100275500Y-62399500D01*
X100295185Y-62332461D01*
X100347989Y-62286706D01*
X100399500Y-62275500D01*
X149600500Y-62275500D01*
X149667539Y-62295185D01*
G37*
%TD.AperFunction*%
%TD*%
M02*
