%TF.GenerationSoftware,KiCad,Pcbnew,(7.0.0)*%
%TF.CreationDate,2023-07-19T17:42:03-04:00*%
%TF.ProjectId,board_pf_cese,626f6172-645f-4706-965f-636573652e6b,rev?*%
%TF.SameCoordinates,Original*%
%TF.FileFunction,Copper,L2,Bot*%
%TF.FilePolarity,Positive*%
%FSLAX46Y46*%
G04 Gerber Fmt 4.6, Leading zero omitted, Abs format (unit mm)*
G04 Created by KiCad (PCBNEW (7.0.0)) date 2023-07-19 17:42:03*
%MOMM*%
%LPD*%
G01*
G04 APERTURE LIST*
%TA.AperFunction,ComponentPad*%
%ADD10O,1.600000X1.600000*%
%TD*%
%TA.AperFunction,ComponentPad*%
%ADD11C,1.600000*%
%TD*%
%TA.AperFunction,ComponentPad*%
%ADD12C,1.800000*%
%TD*%
%TA.AperFunction,ComponentPad*%
%ADD13R,1.800000X1.800000*%
%TD*%
%TA.AperFunction,ComponentPad*%
%ADD14R,1.700000X1.700000*%
%TD*%
%TA.AperFunction,ComponentPad*%
%ADD15O,1.700000X1.700000*%
%TD*%
%TA.AperFunction,ComponentPad*%
%ADD16R,2.200000X2.200000*%
%TD*%
%TA.AperFunction,ComponentPad*%
%ADD17C,2.200000*%
%TD*%
%TA.AperFunction,Conductor*%
%ADD18C,1.000000*%
%TD*%
G04 APERTURE END LIST*
D10*
%TO.P,R1,2*%
%TO.N,Net-(D1-A)*%
X144999999Y-84919999D03*
D11*
%TO.P,R1,1*%
%TO.N,/SO*%
X145000000Y-95080000D03*
%TD*%
D12*
%TO.P,D1,2,A*%
%TO.N,Net-(D1-A)*%
X145000000Y-81540000D03*
D13*
%TO.P,D1,1,K*%
%TO.N,GND*%
X144999999Y-78999999D03*
%TD*%
D14*
%TO.P,J2,1,Pin_1*%
%TO.N,+3.3V*%
X113999999Y-121999999D03*
D15*
%TO.P,J2,2,Pin_2*%
%TO.N,GND*%
X116539999Y-121999999D03*
%TO.P,J2,3,Pin_3*%
%TO.N,unconnected-(J2-Pin_3-Pad3)*%
X119079999Y-121999999D03*
%TO.P,J2,4,Pin_4*%
%TO.N,Net-(J2-Pin_4)*%
X121619999Y-121999999D03*
%TD*%
D14*
%TO.P,J5,1,Pin_1*%
%TO.N,+3.3V*%
X128999999Y-126999999D03*
D15*
%TO.P,J5,2,Pin_2*%
%TO.N,GND*%
X131539999Y-126999999D03*
%TO.P,J5,3,Pin_3*%
%TO.N,/SCL*%
X134079999Y-126999999D03*
%TO.P,J5,4,Pin_4*%
%TO.N,/SDA*%
X136619999Y-126999999D03*
%TD*%
D14*
%TO.P,J8,1,Pin_1*%
%TO.N,unconnected-(J8-Pin_1-Pad1)*%
X108999999Y-70999999D03*
D15*
%TO.P,J8,2,Pin_2*%
%TO.N,/OR*%
X108999999Y-73539999D03*
%TO.P,J8,3,Pin_3*%
%TO.N,unconnected-(J8-Pin_3-Pad3)*%
X108999999Y-76079999D03*
%TO.P,J8,4,Pin_4*%
%TO.N,unconnected-(J8-Pin_4-Pad4)*%
X108999999Y-78619999D03*
%TO.P,J8,5,Pin_5*%
%TO.N,unconnected-(J8-Pin_5-Pad5)*%
X108999999Y-81159999D03*
%TO.P,J8,6,Pin_6*%
%TO.N,unconnected-(J8-Pin_6-Pad6)*%
X108999999Y-83699999D03*
%TO.P,J8,7,Pin_7*%
%TO.N,+3.3V*%
X108999999Y-86239999D03*
%TO.P,J8,8,Pin_8*%
%TO.N,GND*%
X108999999Y-88779999D03*
%TD*%
D16*
%TO.P,J1,1,Pin_1*%
%TO.N,+3.3V*%
X143999999Y-74539999D03*
D17*
%TO.P,J1,2,Pin_2*%
%TO.N,GND*%
X144000000Y-72000000D03*
%TD*%
D12*
%TO.P,D2,2,A*%
%TO.N,Net-(D2-A)*%
X139000000Y-81540000D03*
D13*
%TO.P,D2,1,K*%
%TO.N,GND*%
X138999999Y-78999999D03*
%TD*%
D14*
%TO.P,J7,1,Pin_1*%
%TO.N,/M_TX*%
X142559999Y-100759999D03*
D15*
%TO.P,J7,2,Pin_2*%
%TO.N,/M_RX*%
X140019999Y-100759999D03*
%TO.P,J7,3,Pin_3*%
%TO.N,unconnected-(J7-Pin_3-Pad3)*%
X137479999Y-100759999D03*
%TO.P,J7,4,Pin_4*%
%TO.N,GND*%
X134939999Y-100759999D03*
%TO.P,J7,5,Pin_5*%
%TO.N,/OR*%
X132399999Y-100759999D03*
%TO.P,J7,6,Pin_6*%
%TO.N,/SO*%
X129859999Y-100759999D03*
%TO.P,J7,7,Pin_7*%
%TO.N,unconnected-(J7-Pin_7-Pad7)*%
X127319999Y-100759999D03*
%TO.P,J7,8,Pin_8*%
%TO.N,unconnected-(J7-Pin_8-Pad8)*%
X124779999Y-100759999D03*
%TO.P,J7,9,Pin_9*%
%TO.N,unconnected-(J7-Pin_9-Pad9)*%
X122239999Y-100759999D03*
%TO.P,J7,10,Pin_10*%
%TO.N,unconnected-(J7-Pin_10-Pad10)*%
X119699999Y-100759999D03*
%TO.P,J7,11,Pin_11*%
%TO.N,unconnected-(J7-Pin_11-Pad11)*%
X117159999Y-100759999D03*
%TO.P,J7,12,Pin_12*%
%TO.N,unconnected-(J7-Pin_12-Pad12)*%
X114619999Y-100759999D03*
%TO.P,J7,13,Pin_13*%
%TO.N,/SE*%
X112079999Y-100759999D03*
%TO.P,J7,14,Pin_14*%
%TO.N,unconnected-(J7-Pin_14-Pad14)*%
X109539999Y-100759999D03*
%TO.P,J7,15,Pin_15*%
%TO.N,/SDA*%
X106999999Y-100759999D03*
%TD*%
D14*
%TO.P,J3,1,Pin_1*%
%TO.N,+3.3V*%
X128919999Y-121999999D03*
D15*
%TO.P,J3,2,Pin_2*%
%TO.N,GND*%
X131459999Y-121999999D03*
%TO.P,J3,3,Pin_3*%
%TO.N,unconnected-(J3-Pin_3-Pad3)*%
X133999999Y-121999999D03*
%TO.P,J3,4,Pin_4*%
%TO.N,Net-(J3-Pin_4)*%
X136539999Y-121999999D03*
%TD*%
D11*
%TO.P,R2,1*%
%TO.N,/SE*%
X139000000Y-95080000D03*
D10*
%TO.P,R2,2*%
%TO.N,Net-(D2-A)*%
X138999999Y-84919999D03*
%TD*%
D14*
%TO.P,J9,1,Pin_1*%
%TO.N,unconnected-(J9-Pin_1-Pad1)*%
X131859999Y-70999999D03*
D15*
%TO.P,J9,2,Pin_2*%
%TO.N,unconnected-(J9-Pin_2-Pad2)*%
X131859999Y-73539999D03*
%TO.P,J9,3,Pin_3*%
%TO.N,/M_TX*%
X131859999Y-76079999D03*
%TO.P,J9,4,Pin_4*%
%TO.N,/M_RX*%
X131859999Y-78619999D03*
%TO.P,J9,5,Pin_5*%
%TO.N,unconnected-(J9-Pin_5-Pad5)*%
X131859999Y-81159999D03*
%TO.P,J9,6,Pin_6*%
%TO.N,unconnected-(J9-Pin_6-Pad6)*%
X131859999Y-83699999D03*
%TO.P,J9,7,Pin_7*%
%TO.N,unconnected-(J9-Pin_7-Pad7)*%
X131859999Y-86239999D03*
%TO.P,J9,8,Pin_8*%
%TO.N,GND*%
X131859999Y-88779999D03*
%TD*%
D14*
%TO.P,J4,1,Pin_1*%
%TO.N,+3.3V*%
X113999999Y-126999999D03*
D15*
%TO.P,J4,2,Pin_2*%
%TO.N,GND*%
X116539999Y-126999999D03*
%TO.P,J4,3,Pin_3*%
%TO.N,Net-(J4-Pin_3)*%
X119079999Y-126999999D03*
%TO.P,J4,4,Pin_4*%
%TO.N,unconnected-(J4-Pin_4-Pad4)*%
X121619999Y-126999999D03*
%TD*%
D14*
%TO.P,J6,1,Pin_1*%
%TO.N,unconnected-(J6-Pin_1-Pad1)*%
X142559999Y-115999999D03*
D15*
%TO.P,J6,2,Pin_2*%
%TO.N,GND*%
X140019999Y-115999999D03*
%TO.P,J6,3,Pin_3*%
%TO.N,unconnected-(J6-Pin_3-Pad3)*%
X137479999Y-115999999D03*
%TO.P,J6,4,Pin_4*%
%TO.N,unconnected-(J6-Pin_4-Pad4)*%
X134939999Y-115999999D03*
%TO.P,J6,5,Pin_5*%
%TO.N,unconnected-(J6-Pin_5-Pad5)*%
X132399999Y-115999999D03*
%TO.P,J6,6,Pin_6*%
%TO.N,/SCL*%
X129859999Y-115999999D03*
%TO.P,J6,7,Pin_7*%
%TO.N,unconnected-(J6-Pin_7-Pad7)*%
X127319999Y-115999999D03*
%TO.P,J6,8,Pin_8*%
%TO.N,Net-(J3-Pin_4)*%
X124779999Y-115999999D03*
%TO.P,J6,9,Pin_9*%
%TO.N,Net-(J2-Pin_4)*%
X122239999Y-115999999D03*
%TO.P,J6,10,Pin_10*%
%TO.N,Net-(J4-Pin_3)*%
X119699999Y-115999999D03*
%TO.P,J6,11,Pin_11*%
%TO.N,unconnected-(J6-Pin_11-Pad11)*%
X117159999Y-115999999D03*
%TO.P,J6,12,Pin_12*%
%TO.N,unconnected-(J6-Pin_12-Pad12)*%
X114619999Y-115999999D03*
%TO.P,J6,13,Pin_13*%
%TO.N,unconnected-(J6-Pin_13-Pad13)*%
X112079999Y-115999999D03*
%TO.P,J6,14,Pin_14*%
%TO.N,+3.3V*%
X109539999Y-115999999D03*
%TO.P,J6,15,Pin_15*%
%TO.N,unconnected-(J6-Pin_15-Pad15)*%
X106999999Y-115999999D03*
%TD*%
D18*
%TO.N,/M_RX*%
X128500000Y-94500000D02*
X128500000Y-79500000D01*
X130000000Y-96000000D02*
X128500000Y-94500000D01*
X140020000Y-99557919D02*
X136462081Y-96000000D01*
X136462081Y-96000000D02*
X130000000Y-96000000D01*
X128500000Y-79500000D02*
X129380000Y-78620000D01*
X129380000Y-78620000D02*
X131860000Y-78620000D01*
X140020000Y-100760000D02*
X140020000Y-99557919D01*
%TO.N,/OR*%
X110340000Y-73540000D02*
X109000000Y-73540000D01*
X111600000Y-95700000D02*
X111600000Y-74800000D01*
X113400000Y-97500000D02*
X111600000Y-95700000D01*
X130342081Y-97500000D02*
X113400000Y-97500000D01*
X132400000Y-100760000D02*
X132400000Y-99557919D01*
X132400000Y-99557919D02*
X130342081Y-97500000D01*
X111600000Y-74800000D02*
X110340000Y-73540000D01*
%TO.N,/M_TX*%
X140080000Y-76080000D02*
X131860000Y-76080000D01*
X142560000Y-78560000D02*
X140080000Y-76080000D01*
X142560000Y-100760000D02*
X142560000Y-78560000D01*
%TD*%
%TA.AperFunction,Conductor*%
%TO.N,GND*%
G36*
X139658357Y-77097939D02*
G01*
X139698585Y-77124819D01*
X139962085Y-77388319D01*
X139992335Y-77437682D01*
X139996877Y-77495398D01*
X139974722Y-77548885D01*
X139930699Y-77586485D01*
X139874404Y-77600000D01*
X139266326Y-77600000D01*
X139253450Y-77603450D01*
X139250000Y-77616326D01*
X139250000Y-78733674D01*
X139253450Y-78746549D01*
X139266326Y-78750000D01*
X140383674Y-78750000D01*
X140396549Y-78746549D01*
X140400000Y-78733674D01*
X140400000Y-78125596D01*
X140413515Y-78069301D01*
X140451115Y-78025278D01*
X140504602Y-78003123D01*
X140562318Y-78007665D01*
X140611681Y-78037915D01*
X141515181Y-78941415D01*
X141542061Y-78981643D01*
X141551500Y-79029096D01*
X141551500Y-99340304D01*
X141541488Y-99389117D01*
X141513070Y-99430047D01*
X141479505Y-99451057D01*
X141479890Y-99451761D01*
X141472104Y-99456012D01*
X141463796Y-99459111D01*
X141456698Y-99464423D01*
X141456695Y-99464426D01*
X141353835Y-99541426D01*
X141353831Y-99541429D01*
X141346739Y-99546739D01*
X141341429Y-99553831D01*
X141341426Y-99553835D01*
X141264421Y-99656702D01*
X141264419Y-99656704D01*
X141259727Y-99662972D01*
X141259723Y-99662977D01*
X141259111Y-99663796D01*
X141259003Y-99663715D01*
X141215706Y-99708024D01*
X141150672Y-99724557D01*
X141086546Y-99704789D01*
X141042109Y-99654508D01*
X141030373Y-99588442D01*
X141033380Y-99557919D01*
X141013908Y-99360218D01*
X140956241Y-99170115D01*
X140862595Y-98994915D01*
X140862594Y-98994914D01*
X140736568Y-98841351D01*
X140702784Y-98813625D01*
X140693768Y-98805453D01*
X138395663Y-96507348D01*
X138362522Y-96447561D01*
X138366100Y-96379296D01*
X138405309Y-96323300D01*
X138468233Y-96296591D01*
X138535746Y-96307284D01*
X138550757Y-96314284D01*
X138555977Y-96315682D01*
X138555978Y-96315683D01*
X138766680Y-96372141D01*
X138766682Y-96372141D01*
X138771913Y-96373543D01*
X139000000Y-96393498D01*
X139228087Y-96373543D01*
X139449243Y-96314284D01*
X139656749Y-96217523D01*
X139844300Y-96086198D01*
X140006198Y-95924300D01*
X140137523Y-95736749D01*
X140234284Y-95529243D01*
X140293543Y-95308087D01*
X140313498Y-95080000D01*
X140293543Y-94851913D01*
X140234284Y-94630757D01*
X140137523Y-94423251D01*
X140006198Y-94235700D01*
X139844300Y-94073802D01*
X139839869Y-94070699D01*
X139839865Y-94070696D01*
X139661186Y-93945584D01*
X139661187Y-93945584D01*
X139656749Y-93942477D01*
X139651834Y-93940185D01*
X139454146Y-93848002D01*
X139454143Y-93848000D01*
X139449243Y-93845716D01*
X139444028Y-93844318D01*
X139444021Y-93844316D01*
X139233319Y-93787858D01*
X139233308Y-93787856D01*
X139228087Y-93786457D01*
X139222695Y-93785985D01*
X139222688Y-93785984D01*
X139005395Y-93766974D01*
X139000000Y-93766502D01*
X138994605Y-93766974D01*
X138777311Y-93785984D01*
X138777302Y-93785985D01*
X138771913Y-93786457D01*
X138766692Y-93787855D01*
X138766680Y-93787858D01*
X138555978Y-93844316D01*
X138555967Y-93844319D01*
X138550757Y-93845716D01*
X138545860Y-93847999D01*
X138545853Y-93848002D01*
X138348165Y-93940185D01*
X138348159Y-93940188D01*
X138343251Y-93942477D01*
X138338817Y-93945581D01*
X138338813Y-93945584D01*
X138160134Y-94070696D01*
X138160124Y-94070703D01*
X138155700Y-94073802D01*
X138151874Y-94077627D01*
X138151868Y-94077633D01*
X137997633Y-94231868D01*
X137997627Y-94231874D01*
X137993802Y-94235700D01*
X137990703Y-94240124D01*
X137990696Y-94240134D01*
X137865584Y-94418813D01*
X137865581Y-94418817D01*
X137862477Y-94423251D01*
X137860188Y-94428159D01*
X137860185Y-94428165D01*
X137768002Y-94625853D01*
X137767999Y-94625860D01*
X137765716Y-94630757D01*
X137764319Y-94635967D01*
X137764316Y-94635978D01*
X137707858Y-94846680D01*
X137707855Y-94846692D01*
X137706457Y-94851913D01*
X137705985Y-94857302D01*
X137705984Y-94857311D01*
X137692968Y-95006091D01*
X137686502Y-95080000D01*
X137686974Y-95085395D01*
X137705984Y-95302688D01*
X137705985Y-95302695D01*
X137706457Y-95308087D01*
X137707856Y-95313308D01*
X137707858Y-95313319D01*
X137764316Y-95524021D01*
X137764318Y-95524028D01*
X137765716Y-95529243D01*
X137768000Y-95534141D01*
X137772715Y-95544252D01*
X137783407Y-95611769D01*
X137756697Y-95674692D01*
X137700702Y-95713900D01*
X137632438Y-95717477D01*
X137572651Y-95684336D01*
X137214545Y-95326230D01*
X137206372Y-95317213D01*
X137178649Y-95283432D01*
X137140914Y-95252464D01*
X137029797Y-95161272D01*
X137029796Y-95161271D01*
X137025085Y-95157405D01*
X136849885Y-95063759D01*
X136847393Y-95063003D01*
X136844058Y-95061991D01*
X136844055Y-95061990D01*
X136665616Y-95007860D01*
X136665608Y-95007858D01*
X136659782Y-95006091D01*
X136653723Y-95005494D01*
X136653717Y-95005493D01*
X136468143Y-94987217D01*
X136462081Y-94986620D01*
X136456019Y-94987217D01*
X136418593Y-94990903D01*
X136406439Y-94991500D01*
X130469096Y-94991500D01*
X130421643Y-94982061D01*
X130381415Y-94955181D01*
X129544819Y-94118585D01*
X129517939Y-94078357D01*
X129508500Y-94030904D01*
X129508500Y-89032551D01*
X130532688Y-89032551D01*
X130533056Y-89043780D01*
X130585168Y-89238263D01*
X130588856Y-89248397D01*
X130684113Y-89452676D01*
X130689501Y-89462008D01*
X130818784Y-89646643D01*
X130825721Y-89654909D01*
X130985090Y-89814278D01*
X130993356Y-89821215D01*
X131177991Y-89950498D01*
X131187323Y-89955886D01*
X131391602Y-90051143D01*
X131401736Y-90054831D01*
X131596219Y-90106943D01*
X131607448Y-90107311D01*
X131610000Y-90096369D01*
X132110000Y-90096369D01*
X132112551Y-90107311D01*
X132123780Y-90106943D01*
X132318263Y-90054831D01*
X132328397Y-90051143D01*
X132532676Y-89955886D01*
X132542008Y-89950498D01*
X132726643Y-89821215D01*
X132734909Y-89814278D01*
X132894278Y-89654909D01*
X132901215Y-89646643D01*
X133030498Y-89462008D01*
X133035886Y-89452676D01*
X133131143Y-89248397D01*
X133134831Y-89238263D01*
X133186943Y-89043780D01*
X133187311Y-89032551D01*
X133176369Y-89030000D01*
X132126326Y-89030000D01*
X132113450Y-89033450D01*
X132110000Y-89046326D01*
X132110000Y-90096369D01*
X131610000Y-90096369D01*
X131610000Y-89046326D01*
X131606549Y-89033450D01*
X131593674Y-89030000D01*
X130543631Y-89030000D01*
X130532688Y-89032551D01*
X129508500Y-89032551D01*
X129508500Y-79969096D01*
X129517939Y-79921643D01*
X129544819Y-79881415D01*
X129761415Y-79664819D01*
X129801643Y-79637939D01*
X129849096Y-79628500D01*
X130901377Y-79628500D01*
X130941640Y-79635219D01*
X130977541Y-79654647D01*
X131114424Y-79761189D01*
X131118931Y-79763628D01*
X131118934Y-79763630D01*
X131150930Y-79780945D01*
X131198436Y-79826526D01*
X131215913Y-79890000D01*
X131198436Y-79953474D01*
X131150930Y-79999055D01*
X131118934Y-80016369D01*
X131118922Y-80016376D01*
X131114424Y-80018811D01*
X131110389Y-80021951D01*
X131110376Y-80021960D01*
X130940801Y-80153948D01*
X130940795Y-80153952D01*
X130936760Y-80157094D01*
X130933297Y-80160855D01*
X130933288Y-80160864D01*
X130787753Y-80318956D01*
X130787747Y-80318963D01*
X130784278Y-80322732D01*
X130781481Y-80327012D01*
X130781474Y-80327022D01*
X130730973Y-80404321D01*
X130661140Y-80511209D01*
X130659085Y-80515892D01*
X130659080Y-80515903D01*
X130572764Y-80712687D01*
X130570704Y-80717384D01*
X130569446Y-80722349D01*
X130569445Y-80722354D01*
X130516695Y-80930657D01*
X130516693Y-80930666D01*
X130515436Y-80935632D01*
X130515012Y-80940741D01*
X130515011Y-80940751D01*
X130497268Y-81154883D01*
X130496844Y-81160000D01*
X130497268Y-81165117D01*
X130515011Y-81379248D01*
X130515012Y-81379256D01*
X130515436Y-81384368D01*
X130516693Y-81389335D01*
X130516695Y-81389342D01*
X130554847Y-81540000D01*
X130570704Y-81602616D01*
X130572764Y-81607312D01*
X130659080Y-81804096D01*
X130659083Y-81804101D01*
X130661140Y-81808791D01*
X130720505Y-81899656D01*
X130781474Y-81992977D01*
X130781477Y-81992981D01*
X130784278Y-81997268D01*
X130787752Y-82001041D01*
X130787753Y-82001043D01*
X130933288Y-82159135D01*
X130933291Y-82159138D01*
X130936760Y-82162906D01*
X130940801Y-82166051D01*
X131110376Y-82298039D01*
X131110381Y-82298042D01*
X131114424Y-82301189D01*
X131118931Y-82303628D01*
X131118934Y-82303630D01*
X131150930Y-82320945D01*
X131198436Y-82366526D01*
X131215913Y-82430000D01*
X131198436Y-82493474D01*
X131150930Y-82539055D01*
X131118934Y-82556369D01*
X131118922Y-82556376D01*
X131114424Y-82558811D01*
X131110389Y-82561951D01*
X131110376Y-82561960D01*
X130940801Y-82693948D01*
X130940795Y-82693952D01*
X130936760Y-82697094D01*
X130933297Y-82700855D01*
X130933288Y-82700864D01*
X130787753Y-82858956D01*
X130787747Y-82858963D01*
X130784278Y-82862732D01*
X130781481Y-82867012D01*
X130781474Y-82867022D01*
X130663942Y-83046920D01*
X130661140Y-83051209D01*
X130659085Y-83055892D01*
X130659080Y-83055903D01*
X130572764Y-83252687D01*
X130570704Y-83257384D01*
X130569446Y-83262349D01*
X130569445Y-83262354D01*
X130516695Y-83470657D01*
X130516693Y-83470666D01*
X130515436Y-83475632D01*
X130515012Y-83480741D01*
X130515011Y-83480751D01*
X130504552Y-83606974D01*
X130496844Y-83700000D01*
X130497268Y-83705117D01*
X130515011Y-83919248D01*
X130515012Y-83919256D01*
X130515436Y-83924368D01*
X130516693Y-83929335D01*
X130516695Y-83929342D01*
X130554881Y-84080134D01*
X130570704Y-84142616D01*
X130572764Y-84147312D01*
X130659080Y-84344096D01*
X130659083Y-84344101D01*
X130661140Y-84348791D01*
X130718875Y-84437161D01*
X130781474Y-84532977D01*
X130781477Y-84532981D01*
X130784278Y-84537268D01*
X130787752Y-84541041D01*
X130787753Y-84541043D01*
X130933288Y-84699135D01*
X130933291Y-84699138D01*
X130936760Y-84702906D01*
X130940801Y-84706051D01*
X131110376Y-84838039D01*
X131110381Y-84838042D01*
X131114424Y-84841189D01*
X131118931Y-84843628D01*
X131118934Y-84843630D01*
X131150930Y-84860945D01*
X131198436Y-84906526D01*
X131215913Y-84970000D01*
X131198436Y-85033474D01*
X131150930Y-85079055D01*
X131118934Y-85096369D01*
X131118922Y-85096376D01*
X131114424Y-85098811D01*
X131110389Y-85101951D01*
X131110376Y-85101960D01*
X130940801Y-85233948D01*
X130940795Y-85233952D01*
X130936760Y-85237094D01*
X130933297Y-85240855D01*
X130933288Y-85240864D01*
X130787753Y-85398956D01*
X130787747Y-85398963D01*
X130784278Y-85402732D01*
X130781481Y-85407012D01*
X130781474Y-85407022D01*
X130673798Y-85571834D01*
X130661140Y-85591209D01*
X130659085Y-85595892D01*
X130659080Y-85595903D01*
X130583535Y-85768131D01*
X130570704Y-85797384D01*
X130569446Y-85802349D01*
X130569445Y-85802354D01*
X130516695Y-86010657D01*
X130516693Y-86010666D01*
X130515436Y-86015632D01*
X130515012Y-86020741D01*
X130515011Y-86020751D01*
X130499036Y-86213543D01*
X130496844Y-86240000D01*
X130497268Y-86245117D01*
X130515011Y-86459248D01*
X130515012Y-86459256D01*
X130515436Y-86464368D01*
X130516693Y-86469335D01*
X130516695Y-86469342D01*
X130569445Y-86677645D01*
X130570704Y-86682616D01*
X130572764Y-86687312D01*
X130659080Y-86884096D01*
X130659083Y-86884101D01*
X130661140Y-86888791D01*
X130720505Y-86979656D01*
X130781474Y-87072977D01*
X130781477Y-87072981D01*
X130784278Y-87077268D01*
X130787752Y-87081041D01*
X130787753Y-87081043D01*
X130933288Y-87239135D01*
X130933291Y-87239138D01*
X130936760Y-87242906D01*
X130940801Y-87246051D01*
X131110376Y-87378039D01*
X131110381Y-87378042D01*
X131114424Y-87381189D01*
X131157691Y-87404604D01*
X131157695Y-87404606D01*
X131203335Y-87447155D01*
X131222475Y-87506545D01*
X131210267Y-87567737D01*
X131169803Y-87615236D01*
X130993352Y-87738788D01*
X130985092Y-87745719D01*
X130825719Y-87905092D01*
X130818784Y-87913357D01*
X130689508Y-88097982D01*
X130684110Y-88107332D01*
X130588856Y-88311602D01*
X130585168Y-88321736D01*
X130533056Y-88516219D01*
X130532688Y-88527448D01*
X130543631Y-88530000D01*
X133176369Y-88530000D01*
X133187311Y-88527448D01*
X133186943Y-88516219D01*
X133134831Y-88321736D01*
X133131143Y-88311602D01*
X133035889Y-88107332D01*
X133030491Y-88097982D01*
X132901215Y-87913357D01*
X132894280Y-87905092D01*
X132734909Y-87745721D01*
X132726635Y-87738778D01*
X132550198Y-87615234D01*
X132509734Y-87567735D01*
X132497526Y-87506543D01*
X132516666Y-87447153D01*
X132562304Y-87404606D01*
X132605576Y-87381189D01*
X132783240Y-87242906D01*
X132935722Y-87077268D01*
X133058860Y-86888791D01*
X133149296Y-86682616D01*
X133204564Y-86464368D01*
X133223156Y-86240000D01*
X133204564Y-86015632D01*
X133149296Y-85797384D01*
X133058860Y-85591209D01*
X132935722Y-85402732D01*
X132916461Y-85381809D01*
X132786711Y-85240864D01*
X132786708Y-85240861D01*
X132783240Y-85237094D01*
X132770597Y-85227253D01*
X132609623Y-85101960D01*
X132609615Y-85101955D01*
X132605576Y-85098811D01*
X132601064Y-85096369D01*
X132601061Y-85096367D01*
X132569070Y-85079055D01*
X132521564Y-85033474D01*
X132504086Y-84970000D01*
X132517854Y-84920000D01*
X137686502Y-84920000D01*
X137686974Y-84925395D01*
X137705984Y-85142688D01*
X137705985Y-85142695D01*
X137706457Y-85148087D01*
X137707856Y-85153308D01*
X137707858Y-85153319D01*
X137764316Y-85364021D01*
X137764318Y-85364028D01*
X137765716Y-85369243D01*
X137768000Y-85374143D01*
X137768002Y-85374146D01*
X137804882Y-85453235D01*
X137862477Y-85576749D01*
X137865584Y-85581186D01*
X137990696Y-85759865D01*
X137990699Y-85759869D01*
X137993802Y-85764300D01*
X138155700Y-85926198D01*
X138343251Y-86057523D01*
X138550757Y-86154284D01*
X138555977Y-86155682D01*
X138555978Y-86155683D01*
X138766680Y-86212141D01*
X138766682Y-86212141D01*
X138771913Y-86213543D01*
X139000000Y-86233498D01*
X139228087Y-86213543D01*
X139449243Y-86154284D01*
X139656749Y-86057523D01*
X139844300Y-85926198D01*
X140006198Y-85764300D01*
X140137523Y-85576749D01*
X140234284Y-85369243D01*
X140293543Y-85148087D01*
X140313498Y-84920000D01*
X140293543Y-84691913D01*
X140234284Y-84470757D01*
X140137523Y-84263251D01*
X140053053Y-84142616D01*
X140009303Y-84080134D01*
X140009301Y-84080132D01*
X140006198Y-84075700D01*
X139844300Y-83913802D01*
X139839869Y-83910699D01*
X139839865Y-83910696D01*
X139661186Y-83785584D01*
X139661187Y-83785584D01*
X139656749Y-83782477D01*
X139490849Y-83705117D01*
X139454146Y-83688002D01*
X139454143Y-83688000D01*
X139449243Y-83685716D01*
X139444028Y-83684318D01*
X139444021Y-83684316D01*
X139233319Y-83627858D01*
X139233308Y-83627856D01*
X139228087Y-83626457D01*
X139222695Y-83625985D01*
X139222688Y-83625984D01*
X139005395Y-83606974D01*
X139000000Y-83606502D01*
X138994605Y-83606974D01*
X138777311Y-83625984D01*
X138777302Y-83625985D01*
X138771913Y-83626457D01*
X138766692Y-83627855D01*
X138766680Y-83627858D01*
X138555978Y-83684316D01*
X138555967Y-83684319D01*
X138550757Y-83685716D01*
X138545860Y-83687999D01*
X138545853Y-83688002D01*
X138348165Y-83780185D01*
X138348159Y-83780188D01*
X138343251Y-83782477D01*
X138338817Y-83785581D01*
X138338813Y-83785584D01*
X138160134Y-83910696D01*
X138160124Y-83910703D01*
X138155700Y-83913802D01*
X138151874Y-83917627D01*
X138151868Y-83917633D01*
X137997633Y-84071868D01*
X137997627Y-84071874D01*
X137993802Y-84075700D01*
X137990703Y-84080124D01*
X137990696Y-84080134D01*
X137865584Y-84258813D01*
X137865581Y-84258817D01*
X137862477Y-84263251D01*
X137860188Y-84268159D01*
X137860185Y-84268165D01*
X137768002Y-84465853D01*
X137767999Y-84465860D01*
X137765716Y-84470757D01*
X137764319Y-84475967D01*
X137764316Y-84475978D01*
X137707858Y-84686680D01*
X137707855Y-84686692D01*
X137706457Y-84691913D01*
X137705985Y-84697302D01*
X137705984Y-84697311D01*
X137687681Y-84906526D01*
X137686502Y-84920000D01*
X132517854Y-84920000D01*
X132521564Y-84906526D01*
X132569070Y-84860945D01*
X132569109Y-84860923D01*
X132605576Y-84841189D01*
X132783240Y-84702906D01*
X132935722Y-84537268D01*
X133058860Y-84348791D01*
X133149296Y-84142616D01*
X133204564Y-83924368D01*
X133223156Y-83700000D01*
X133204564Y-83475632D01*
X133149296Y-83257384D01*
X133058860Y-83051209D01*
X132935722Y-82862732D01*
X132907291Y-82831848D01*
X132786711Y-82700864D01*
X132786708Y-82700861D01*
X132783240Y-82697094D01*
X132770597Y-82687253D01*
X132609623Y-82561960D01*
X132609615Y-82561955D01*
X132605576Y-82558811D01*
X132601064Y-82556369D01*
X132601061Y-82556367D01*
X132569070Y-82539055D01*
X132521564Y-82493474D01*
X132504086Y-82430000D01*
X132521564Y-82366526D01*
X132569070Y-82320945D01*
X132569109Y-82320923D01*
X132605576Y-82301189D01*
X132783240Y-82162906D01*
X132935722Y-81997268D01*
X133058860Y-81808791D01*
X133149296Y-81602616D01*
X133165153Y-81540000D01*
X137586673Y-81540000D01*
X137587097Y-81545117D01*
X137605524Y-81767506D01*
X137605525Y-81767514D01*
X137605949Y-81772626D01*
X137607206Y-81777593D01*
X137607208Y-81777600D01*
X137613918Y-81804096D01*
X137663251Y-81998907D01*
X137665311Y-82003603D01*
X137754955Y-82207972D01*
X137754958Y-82207978D01*
X137757016Y-82212669D01*
X137759816Y-82216955D01*
X137759820Y-82216962D01*
X137879309Y-82399853D01*
X137884686Y-82408083D01*
X137888160Y-82411856D01*
X137888161Y-82411858D01*
X138023441Y-82558811D01*
X138042780Y-82579818D01*
X138226983Y-82723190D01*
X138231490Y-82725629D01*
X138231493Y-82725631D01*
X138427766Y-82831848D01*
X138432273Y-82834287D01*
X138653049Y-82910080D01*
X138883288Y-82948500D01*
X139111579Y-82948500D01*
X139116712Y-82948500D01*
X139346951Y-82910080D01*
X139567727Y-82834287D01*
X139773017Y-82723190D01*
X139957220Y-82579818D01*
X140115314Y-82408083D01*
X140242984Y-82212669D01*
X140336749Y-81998907D01*
X140394051Y-81772626D01*
X140413327Y-81540000D01*
X140394051Y-81307374D01*
X140336749Y-81081093D01*
X140242984Y-80867331D01*
X140228630Y-80845361D01*
X140118121Y-80676214D01*
X140115314Y-80671917D01*
X140021926Y-80570471D01*
X139993153Y-80517718D01*
X139992561Y-80457631D01*
X140020288Y-80404321D01*
X140069824Y-80370306D01*
X140133775Y-80346453D01*
X140149189Y-80338037D01*
X140250092Y-80262501D01*
X140262501Y-80250092D01*
X140338037Y-80149189D01*
X140346452Y-80133777D01*
X140390888Y-80014641D01*
X140394426Y-79999667D01*
X140399646Y-79951114D01*
X140400000Y-79944518D01*
X140400000Y-79266326D01*
X140396549Y-79253450D01*
X140383674Y-79250000D01*
X137616326Y-79250000D01*
X137603450Y-79253450D01*
X137600000Y-79266326D01*
X137600000Y-79944518D01*
X137600353Y-79951114D01*
X137605573Y-79999667D01*
X137609111Y-80014641D01*
X137653547Y-80133777D01*
X137661962Y-80149189D01*
X137737498Y-80250092D01*
X137749907Y-80262501D01*
X137850810Y-80338037D01*
X137866222Y-80346452D01*
X137930176Y-80370306D01*
X137979711Y-80404321D01*
X138007438Y-80457631D01*
X138006846Y-80517718D01*
X137978073Y-80570471D01*
X137888161Y-80668141D01*
X137888155Y-80668148D01*
X137884686Y-80671917D01*
X137881881Y-80676208D01*
X137881878Y-80676214D01*
X137759820Y-80863037D01*
X137759813Y-80863049D01*
X137757016Y-80867331D01*
X137754961Y-80872015D01*
X137754955Y-80872027D01*
X137665311Y-81076396D01*
X137663251Y-81081093D01*
X137661993Y-81086058D01*
X137661992Y-81086063D01*
X137607208Y-81302399D01*
X137607206Y-81302408D01*
X137605949Y-81307374D01*
X137605525Y-81312483D01*
X137605524Y-81312493D01*
X137587097Y-81534883D01*
X137586673Y-81540000D01*
X133165153Y-81540000D01*
X133204564Y-81384368D01*
X133223156Y-81160000D01*
X133204564Y-80935632D01*
X133149296Y-80717384D01*
X133058860Y-80511209D01*
X132935722Y-80322732D01*
X132932246Y-80318956D01*
X132786711Y-80160864D01*
X132786708Y-80160861D01*
X132783240Y-80157094D01*
X132750357Y-80131500D01*
X132609623Y-80021960D01*
X132609615Y-80021955D01*
X132605576Y-80018811D01*
X132601064Y-80016369D01*
X132601061Y-80016367D01*
X132569070Y-79999055D01*
X132521564Y-79953474D01*
X132504086Y-79890000D01*
X132521564Y-79826526D01*
X132569070Y-79780945D01*
X132569109Y-79780923D01*
X132605576Y-79761189D01*
X132783240Y-79622906D01*
X132935722Y-79457268D01*
X133058860Y-79268791D01*
X133149296Y-79062616D01*
X133204564Y-78844368D01*
X133213737Y-78733674D01*
X137600000Y-78733674D01*
X137603450Y-78746549D01*
X137616326Y-78750000D01*
X138733674Y-78750000D01*
X138746549Y-78746549D01*
X138750000Y-78733674D01*
X138750000Y-77616326D01*
X138746549Y-77603450D01*
X138733674Y-77600000D01*
X138055482Y-77600000D01*
X138048885Y-77600353D01*
X138000332Y-77605573D01*
X137985358Y-77609111D01*
X137866222Y-77653547D01*
X137850810Y-77661962D01*
X137749907Y-77737498D01*
X137737498Y-77749907D01*
X137661962Y-77850810D01*
X137653547Y-77866222D01*
X137609111Y-77985358D01*
X137605573Y-78000332D01*
X137600353Y-78048885D01*
X137600000Y-78055482D01*
X137600000Y-78733674D01*
X133213737Y-78733674D01*
X133223156Y-78620000D01*
X133204564Y-78395632D01*
X133149296Y-78177384D01*
X133058860Y-77971209D01*
X132935722Y-77782732D01*
X132844610Y-77683759D01*
X132786711Y-77620864D01*
X132786708Y-77620861D01*
X132783240Y-77617094D01*
X132742460Y-77585353D01*
X132609623Y-77481960D01*
X132609615Y-77481955D01*
X132605576Y-77478811D01*
X132601069Y-77476372D01*
X132601060Y-77476366D01*
X132569068Y-77459053D01*
X132521562Y-77413471D01*
X132504086Y-77349996D01*
X132521565Y-77286522D01*
X132569067Y-77240946D01*
X132605576Y-77221189D01*
X132742458Y-77114647D01*
X132778360Y-77095219D01*
X132818623Y-77088500D01*
X139610904Y-77088500D01*
X139658357Y-77097939D01*
G37*
%TD.AperFunction*%
%TA.AperFunction,Conductor*%
G36*
X147862500Y-64092113D02*
G01*
X147907887Y-64137500D01*
X147924500Y-64199500D01*
X147924500Y-129800500D01*
X147907887Y-129862500D01*
X147862500Y-129907887D01*
X147800500Y-129924500D01*
X102199500Y-129924500D01*
X102137500Y-129907887D01*
X102092113Y-129862500D01*
X102075500Y-129800500D01*
X102075500Y-127056330D01*
X103745710Y-127056330D01*
X103746455Y-127061833D01*
X103746456Y-127061844D01*
X103768472Y-127224368D01*
X103775925Y-127279387D01*
X103777644Y-127284680D01*
X103777646Y-127284685D01*
X103843761Y-127488167D01*
X103843764Y-127488175D01*
X103845483Y-127493464D01*
X103848121Y-127498366D01*
X103949512Y-127686784D01*
X103949516Y-127686790D01*
X103952148Y-127691681D01*
X103955612Y-127696025D01*
X103955615Y-127696029D01*
X104064822Y-127832969D01*
X104092492Y-127867666D01*
X104262004Y-128015765D01*
X104266783Y-128018620D01*
X104266784Y-128018621D01*
X104450454Y-128128358D01*
X104455236Y-128131215D01*
X104665976Y-128210307D01*
X104887453Y-128250500D01*
X105053378Y-128250500D01*
X105056155Y-128250500D01*
X105224188Y-128235377D01*
X105441170Y-128175493D01*
X105643973Y-128077829D01*
X105826078Y-127945522D01*
X105870904Y-127898638D01*
X112641500Y-127898638D01*
X112641852Y-127901918D01*
X112641853Y-127901924D01*
X112646107Y-127941498D01*
X112648011Y-127959201D01*
X112650717Y-127966458D01*
X112650719Y-127966463D01*
X112696011Y-128087894D01*
X112699111Y-128096204D01*
X112704425Y-128103303D01*
X112704426Y-128103304D01*
X112759575Y-128176975D01*
X112786739Y-128213261D01*
X112903796Y-128300889D01*
X113040799Y-128351989D01*
X113101362Y-128358500D01*
X114895328Y-128358500D01*
X114898638Y-128358500D01*
X114959201Y-128351989D01*
X115096204Y-128300889D01*
X115213261Y-128213261D01*
X115300889Y-128096204D01*
X115349222Y-127966617D01*
X115384200Y-127916240D01*
X115439045Y-127888787D01*
X115500338Y-127890976D01*
X115553084Y-127922272D01*
X115665090Y-128034278D01*
X115673356Y-128041215D01*
X115857991Y-128170498D01*
X115867323Y-128175886D01*
X116071602Y-128271143D01*
X116081736Y-128274831D01*
X116276219Y-128326943D01*
X116287448Y-128327311D01*
X116290000Y-128316369D01*
X116790000Y-128316369D01*
X116792551Y-128327311D01*
X116803780Y-128326943D01*
X116998263Y-128274831D01*
X117008397Y-128271143D01*
X117212676Y-128175886D01*
X117222008Y-128170498D01*
X117406643Y-128041215D01*
X117414909Y-128034278D01*
X117574278Y-127874909D01*
X117581219Y-127866638D01*
X117704868Y-127690049D01*
X117750072Y-127650726D01*
X117808436Y-127637188D01*
X117866335Y-127652595D01*
X117910252Y-127693351D01*
X118001470Y-127832972D01*
X118001478Y-127832982D01*
X118004278Y-127837268D01*
X118007752Y-127841041D01*
X118007753Y-127841043D01*
X118153288Y-127999135D01*
X118153291Y-127999138D01*
X118156760Y-128002906D01*
X118197066Y-128034278D01*
X118330376Y-128138039D01*
X118330381Y-128138042D01*
X118334424Y-128141189D01*
X118338931Y-128143628D01*
X118338934Y-128143630D01*
X118505728Y-128233894D01*
X118532426Y-128248342D01*
X118745365Y-128321444D01*
X118967431Y-128358500D01*
X119187436Y-128358500D01*
X119192569Y-128358500D01*
X119414635Y-128321444D01*
X119627574Y-128248342D01*
X119825576Y-128141189D01*
X120003240Y-128002906D01*
X120155722Y-127837268D01*
X120246192Y-127698793D01*
X120290981Y-127657562D01*
X120349998Y-127642616D01*
X120409016Y-127657561D01*
X120453807Y-127698794D01*
X120541468Y-127832969D01*
X120541476Y-127832979D01*
X120544278Y-127837268D01*
X120547752Y-127841041D01*
X120547753Y-127841043D01*
X120693288Y-127999135D01*
X120693291Y-127999138D01*
X120696760Y-128002906D01*
X120737066Y-128034278D01*
X120870376Y-128138039D01*
X120870381Y-128138042D01*
X120874424Y-128141189D01*
X120878931Y-128143628D01*
X120878934Y-128143630D01*
X121045728Y-128233894D01*
X121072426Y-128248342D01*
X121285365Y-128321444D01*
X121507431Y-128358500D01*
X121727436Y-128358500D01*
X121732569Y-128358500D01*
X121954635Y-128321444D01*
X122167574Y-128248342D01*
X122365576Y-128141189D01*
X122543240Y-128002906D01*
X122639226Y-127898638D01*
X127641500Y-127898638D01*
X127641852Y-127901918D01*
X127641853Y-127901924D01*
X127646107Y-127941498D01*
X127648011Y-127959201D01*
X127650717Y-127966458D01*
X127650719Y-127966463D01*
X127696011Y-128087894D01*
X127699111Y-128096204D01*
X127704425Y-128103303D01*
X127704426Y-128103304D01*
X127759575Y-128176975D01*
X127786739Y-128213261D01*
X127903796Y-128300889D01*
X128040799Y-128351989D01*
X128101362Y-128358500D01*
X129895328Y-128358500D01*
X129898638Y-128358500D01*
X129959201Y-128351989D01*
X130096204Y-128300889D01*
X130213261Y-128213261D01*
X130300889Y-128096204D01*
X130349222Y-127966617D01*
X130384200Y-127916240D01*
X130439045Y-127888787D01*
X130500338Y-127890976D01*
X130553084Y-127922272D01*
X130665090Y-128034278D01*
X130673356Y-128041215D01*
X130857991Y-128170498D01*
X130867323Y-128175886D01*
X131071602Y-128271143D01*
X131081736Y-128274831D01*
X131276219Y-128326943D01*
X131287448Y-128327311D01*
X131290000Y-128316369D01*
X131790000Y-128316369D01*
X131792551Y-128327311D01*
X131803780Y-128326943D01*
X131998263Y-128274831D01*
X132008397Y-128271143D01*
X132212676Y-128175886D01*
X132222008Y-128170498D01*
X132406643Y-128041215D01*
X132414909Y-128034278D01*
X132574278Y-127874909D01*
X132581219Y-127866638D01*
X132704868Y-127690049D01*
X132750072Y-127650726D01*
X132808436Y-127637188D01*
X132866335Y-127652595D01*
X132910252Y-127693351D01*
X133001470Y-127832972D01*
X133001478Y-127832982D01*
X133004278Y-127837268D01*
X133007752Y-127841041D01*
X133007753Y-127841043D01*
X133153288Y-127999135D01*
X133153291Y-127999138D01*
X133156760Y-128002906D01*
X133197066Y-128034278D01*
X133330376Y-128138039D01*
X133330381Y-128138042D01*
X133334424Y-128141189D01*
X133338931Y-128143628D01*
X133338934Y-128143630D01*
X133505728Y-128233894D01*
X133532426Y-128248342D01*
X133745365Y-128321444D01*
X133967431Y-128358500D01*
X134187436Y-128358500D01*
X134192569Y-128358500D01*
X134414635Y-128321444D01*
X134627574Y-128248342D01*
X134825576Y-128141189D01*
X135003240Y-128002906D01*
X135155722Y-127837268D01*
X135188661Y-127786852D01*
X135246191Y-127698795D01*
X135290982Y-127657561D01*
X135350000Y-127642616D01*
X135409018Y-127657561D01*
X135453809Y-127698795D01*
X135541470Y-127832972D01*
X135541478Y-127832982D01*
X135544278Y-127837268D01*
X135547752Y-127841041D01*
X135547753Y-127841043D01*
X135693288Y-127999135D01*
X135693291Y-127999138D01*
X135696760Y-128002906D01*
X135737066Y-128034278D01*
X135870376Y-128138039D01*
X135870381Y-128138042D01*
X135874424Y-128141189D01*
X135878931Y-128143628D01*
X135878934Y-128143630D01*
X136045728Y-128233894D01*
X136072426Y-128248342D01*
X136285365Y-128321444D01*
X136507431Y-128358500D01*
X136727436Y-128358500D01*
X136732569Y-128358500D01*
X136954635Y-128321444D01*
X137167574Y-128248342D01*
X137365576Y-128141189D01*
X137543240Y-128002906D01*
X137695722Y-127837268D01*
X137818860Y-127648791D01*
X137909296Y-127442616D01*
X137964564Y-127224368D01*
X137978488Y-127056330D01*
X143745710Y-127056330D01*
X143746455Y-127061833D01*
X143746456Y-127061844D01*
X143768472Y-127224368D01*
X143775925Y-127279387D01*
X143777644Y-127284680D01*
X143777646Y-127284685D01*
X143843761Y-127488167D01*
X143843764Y-127488175D01*
X143845483Y-127493464D01*
X143848121Y-127498366D01*
X143949512Y-127686784D01*
X143949516Y-127686790D01*
X143952148Y-127691681D01*
X143955612Y-127696025D01*
X143955615Y-127696029D01*
X144064822Y-127832969D01*
X144092492Y-127867666D01*
X144262004Y-128015765D01*
X144266783Y-128018620D01*
X144266784Y-128018621D01*
X144450454Y-128128358D01*
X144455236Y-128131215D01*
X144665976Y-128210307D01*
X144887453Y-128250500D01*
X145053378Y-128250500D01*
X145056155Y-128250500D01*
X145224188Y-128235377D01*
X145441170Y-128175493D01*
X145643973Y-128077829D01*
X145826078Y-127945522D01*
X145981632Y-127782825D01*
X146105635Y-127594968D01*
X146194103Y-127387988D01*
X146244191Y-127168537D01*
X146254290Y-126943670D01*
X146224075Y-126720613D01*
X146187122Y-126606884D01*
X146156238Y-126511832D01*
X146156237Y-126511829D01*
X146154517Y-126506536D01*
X146077176Y-126362812D01*
X146050487Y-126313215D01*
X146050485Y-126313212D01*
X146047852Y-126308319D01*
X145978877Y-126221828D01*
X145910977Y-126136684D01*
X145907508Y-126132334D01*
X145875846Y-126104672D01*
X145818395Y-126054478D01*
X145737996Y-125984235D01*
X145733218Y-125981380D01*
X145733215Y-125981378D01*
X145549545Y-125871641D01*
X145549540Y-125871638D01*
X145544764Y-125868785D01*
X145440092Y-125829501D01*
X145339239Y-125791650D01*
X145339236Y-125791649D01*
X145334024Y-125789693D01*
X145328546Y-125788698D01*
X145328543Y-125788698D01*
X145118030Y-125750495D01*
X145118029Y-125750494D01*
X145112547Y-125749500D01*
X144943845Y-125749500D01*
X144941097Y-125749747D01*
X144941081Y-125749748D01*
X144781360Y-125764123D01*
X144781352Y-125764124D01*
X144775812Y-125764623D01*
X144770448Y-125766103D01*
X144770439Y-125766105D01*
X144564201Y-125823024D01*
X144564194Y-125823026D01*
X144558830Y-125824507D01*
X144553812Y-125826923D01*
X144553808Y-125826925D01*
X144361048Y-125919752D01*
X144361039Y-125919757D01*
X144356027Y-125922171D01*
X144351525Y-125925441D01*
X144351518Y-125925446D01*
X144178429Y-126051203D01*
X144178425Y-126051205D01*
X144173922Y-126054478D01*
X144170083Y-126058492D01*
X144170074Y-126058501D01*
X144022218Y-126213147D01*
X144022212Y-126213154D01*
X144018368Y-126217175D01*
X144015299Y-126221823D01*
X144015296Y-126221828D01*
X143897435Y-126400380D01*
X143897431Y-126400386D01*
X143894365Y-126405032D01*
X143892178Y-126410148D01*
X143892173Y-126410158D01*
X143808088Y-126606884D01*
X143808085Y-126606892D01*
X143805897Y-126612012D01*
X143804657Y-126617441D01*
X143804656Y-126617447D01*
X143757049Y-126826029D01*
X143755809Y-126831463D01*
X143755559Y-126837019D01*
X143755558Y-126837030D01*
X143750520Y-126949230D01*
X143745710Y-127056330D01*
X137978488Y-127056330D01*
X137983156Y-127000000D01*
X137964564Y-126775632D01*
X137909296Y-126557384D01*
X137818860Y-126351209D01*
X137695722Y-126162732D01*
X137668680Y-126133357D01*
X137546711Y-126000864D01*
X137546708Y-126000861D01*
X137543240Y-125997094D01*
X137523048Y-125981378D01*
X137369623Y-125861960D01*
X137369615Y-125861955D01*
X137365576Y-125858811D01*
X137361071Y-125856373D01*
X137361065Y-125856369D01*
X137172080Y-125754096D01*
X137172074Y-125754093D01*
X137167574Y-125751658D01*
X137162733Y-125749996D01*
X137162726Y-125749993D01*
X136959488Y-125680222D01*
X136959487Y-125680221D01*
X136954635Y-125678556D01*
X136949585Y-125677713D01*
X136949576Y-125677711D01*
X136737631Y-125642344D01*
X136737622Y-125642343D01*
X136732569Y-125641500D01*
X136507431Y-125641500D01*
X136502378Y-125642343D01*
X136502368Y-125642344D01*
X136290423Y-125677711D01*
X136290411Y-125677713D01*
X136285365Y-125678556D01*
X136280515Y-125680220D01*
X136280511Y-125680222D01*
X136077273Y-125749993D01*
X136077262Y-125749997D01*
X136072426Y-125751658D01*
X136067929Y-125754091D01*
X136067919Y-125754096D01*
X135878934Y-125856369D01*
X135878922Y-125856376D01*
X135874424Y-125858811D01*
X135870389Y-125861951D01*
X135870376Y-125861960D01*
X135700801Y-125993948D01*
X135700795Y-125993952D01*
X135696760Y-125997094D01*
X135693297Y-126000855D01*
X135693288Y-126000864D01*
X135547753Y-126158956D01*
X135547747Y-126158963D01*
X135544278Y-126162732D01*
X135541481Y-126167012D01*
X135541474Y-126167022D01*
X135453809Y-126301205D01*
X135409017Y-126342438D01*
X135350000Y-126357383D01*
X135290983Y-126342438D01*
X135246191Y-126301205D01*
X135158525Y-126167022D01*
X135158523Y-126167020D01*
X135155722Y-126162732D01*
X135128680Y-126133357D01*
X135006711Y-126000864D01*
X135006708Y-126000861D01*
X135003240Y-125997094D01*
X134983048Y-125981378D01*
X134829623Y-125861960D01*
X134829615Y-125861955D01*
X134825576Y-125858811D01*
X134821071Y-125856373D01*
X134821065Y-125856369D01*
X134632080Y-125754096D01*
X134632074Y-125754093D01*
X134627574Y-125751658D01*
X134622733Y-125749996D01*
X134622726Y-125749993D01*
X134419488Y-125680222D01*
X134419487Y-125680221D01*
X134414635Y-125678556D01*
X134409585Y-125677713D01*
X134409576Y-125677711D01*
X134197631Y-125642344D01*
X134197622Y-125642343D01*
X134192569Y-125641500D01*
X133967431Y-125641500D01*
X133962378Y-125642343D01*
X133962368Y-125642344D01*
X133750423Y-125677711D01*
X133750411Y-125677713D01*
X133745365Y-125678556D01*
X133740515Y-125680220D01*
X133740511Y-125680222D01*
X133537273Y-125749993D01*
X133537262Y-125749997D01*
X133532426Y-125751658D01*
X133527929Y-125754091D01*
X133527919Y-125754096D01*
X133338934Y-125856369D01*
X133338922Y-125856376D01*
X133334424Y-125858811D01*
X133330389Y-125861951D01*
X133330376Y-125861960D01*
X133160801Y-125993948D01*
X133160795Y-125993952D01*
X133156760Y-125997094D01*
X133153297Y-126000855D01*
X133153288Y-126000864D01*
X133007753Y-126158956D01*
X133007747Y-126158963D01*
X133004278Y-126162732D01*
X133001480Y-126167014D01*
X133001468Y-126167030D01*
X132910250Y-126306650D01*
X132866334Y-126347405D01*
X132808435Y-126362812D01*
X132750071Y-126349274D01*
X132704867Y-126309951D01*
X132581215Y-126133357D01*
X132574280Y-126125092D01*
X132414909Y-125965721D01*
X132406643Y-125958784D01*
X132222008Y-125829501D01*
X132212676Y-125824113D01*
X132008397Y-125728856D01*
X131998263Y-125725168D01*
X131803780Y-125673056D01*
X131792551Y-125672688D01*
X131790000Y-125683631D01*
X131790000Y-128316369D01*
X131290000Y-128316369D01*
X131290000Y-125683631D01*
X131287448Y-125672688D01*
X131276219Y-125673056D01*
X131081736Y-125725168D01*
X131071602Y-125728856D01*
X130867332Y-125824110D01*
X130857982Y-125829508D01*
X130673357Y-125958784D01*
X130665098Y-125965714D01*
X130553084Y-126077728D01*
X130500337Y-126109023D01*
X130439045Y-126111212D01*
X130384200Y-126083759D01*
X130349221Y-126033379D01*
X130335687Y-125997094D01*
X130300889Y-125903796D01*
X130213261Y-125786739D01*
X130185697Y-125766105D01*
X130103304Y-125704426D01*
X130103303Y-125704425D01*
X130096204Y-125699111D01*
X130087896Y-125696012D01*
X130087894Y-125696011D01*
X129966463Y-125650719D01*
X129966458Y-125650717D01*
X129959201Y-125648011D01*
X129951497Y-125647182D01*
X129951494Y-125647182D01*
X129901924Y-125641853D01*
X129901918Y-125641852D01*
X129898638Y-125641500D01*
X128101362Y-125641500D01*
X128098082Y-125641852D01*
X128098075Y-125641853D01*
X128048505Y-125647182D01*
X128048500Y-125647182D01*
X128040799Y-125648011D01*
X128033543Y-125650717D01*
X128033536Y-125650719D01*
X127912105Y-125696011D01*
X127912099Y-125696013D01*
X127903796Y-125699111D01*
X127896698Y-125704423D01*
X127896695Y-125704426D01*
X127793835Y-125781426D01*
X127793831Y-125781429D01*
X127786739Y-125786739D01*
X127781429Y-125793831D01*
X127781426Y-125793835D01*
X127704426Y-125896695D01*
X127704423Y-125896698D01*
X127699111Y-125903796D01*
X127696013Y-125912099D01*
X127696011Y-125912105D01*
X127650719Y-126033536D01*
X127650717Y-126033543D01*
X127648011Y-126040799D01*
X127647182Y-126048500D01*
X127647182Y-126048505D01*
X127643392Y-126083759D01*
X127641500Y-126101362D01*
X127641500Y-127898638D01*
X122639226Y-127898638D01*
X122695722Y-127837268D01*
X122818860Y-127648791D01*
X122909296Y-127442616D01*
X122964564Y-127224368D01*
X122983156Y-127000000D01*
X122964564Y-126775632D01*
X122909296Y-126557384D01*
X122818860Y-126351209D01*
X122695722Y-126162732D01*
X122668680Y-126133357D01*
X122546711Y-126000864D01*
X122546708Y-126000861D01*
X122543240Y-125997094D01*
X122523048Y-125981378D01*
X122369623Y-125861960D01*
X122369615Y-125861955D01*
X122365576Y-125858811D01*
X122361071Y-125856373D01*
X122361065Y-125856369D01*
X122172080Y-125754096D01*
X122172074Y-125754093D01*
X122167574Y-125751658D01*
X122162733Y-125749996D01*
X122162726Y-125749993D01*
X121959488Y-125680222D01*
X121959487Y-125680221D01*
X121954635Y-125678556D01*
X121949585Y-125677713D01*
X121949576Y-125677711D01*
X121737631Y-125642344D01*
X121737622Y-125642343D01*
X121732569Y-125641500D01*
X121507431Y-125641500D01*
X121502378Y-125642343D01*
X121502368Y-125642344D01*
X121290423Y-125677711D01*
X121290411Y-125677713D01*
X121285365Y-125678556D01*
X121280515Y-125680220D01*
X121280511Y-125680222D01*
X121077273Y-125749993D01*
X121077262Y-125749997D01*
X121072426Y-125751658D01*
X121067929Y-125754091D01*
X121067919Y-125754096D01*
X120878934Y-125856369D01*
X120878922Y-125856376D01*
X120874424Y-125858811D01*
X120870389Y-125861951D01*
X120870376Y-125861960D01*
X120700801Y-125993948D01*
X120700795Y-125993952D01*
X120696760Y-125997094D01*
X120693297Y-126000855D01*
X120693288Y-126000864D01*
X120547753Y-126158956D01*
X120547747Y-126158963D01*
X120544278Y-126162732D01*
X120541481Y-126167012D01*
X120541474Y-126167022D01*
X120453809Y-126301205D01*
X120409017Y-126342438D01*
X120350000Y-126357383D01*
X120290983Y-126342438D01*
X120246191Y-126301205D01*
X120158525Y-126167022D01*
X120158523Y-126167020D01*
X120155722Y-126162732D01*
X120128680Y-126133357D01*
X120006711Y-126000864D01*
X120006708Y-126000861D01*
X120003240Y-125997094D01*
X119983048Y-125981378D01*
X119829623Y-125861960D01*
X119829615Y-125861955D01*
X119825576Y-125858811D01*
X119821071Y-125856373D01*
X119821065Y-125856369D01*
X119632080Y-125754096D01*
X119632074Y-125754093D01*
X119627574Y-125751658D01*
X119622733Y-125749996D01*
X119622726Y-125749993D01*
X119419488Y-125680222D01*
X119419487Y-125680221D01*
X119414635Y-125678556D01*
X119409585Y-125677713D01*
X119409576Y-125677711D01*
X119197631Y-125642344D01*
X119197622Y-125642343D01*
X119192569Y-125641500D01*
X118967431Y-125641500D01*
X118962378Y-125642343D01*
X118962368Y-125642344D01*
X118750423Y-125677711D01*
X118750411Y-125677713D01*
X118745365Y-125678556D01*
X118740515Y-125680220D01*
X118740511Y-125680222D01*
X118537273Y-125749993D01*
X118537262Y-125749997D01*
X118532426Y-125751658D01*
X118527929Y-125754091D01*
X118527919Y-125754096D01*
X118338934Y-125856369D01*
X118338922Y-125856376D01*
X118334424Y-125858811D01*
X118330389Y-125861951D01*
X118330376Y-125861960D01*
X118160801Y-125993948D01*
X118160795Y-125993952D01*
X118156760Y-125997094D01*
X118153297Y-126000855D01*
X118153288Y-126000864D01*
X118007753Y-126158956D01*
X118007747Y-126158963D01*
X118004278Y-126162732D01*
X118001480Y-126167014D01*
X118001468Y-126167030D01*
X117910250Y-126306650D01*
X117866334Y-126347405D01*
X117808435Y-126362812D01*
X117750071Y-126349274D01*
X117704867Y-126309951D01*
X117581215Y-126133357D01*
X117574280Y-126125092D01*
X117414909Y-125965721D01*
X117406643Y-125958784D01*
X117222008Y-125829501D01*
X117212676Y-125824113D01*
X117008397Y-125728856D01*
X116998263Y-125725168D01*
X116803780Y-125673056D01*
X116792551Y-125672688D01*
X116790000Y-125683631D01*
X116790000Y-128316369D01*
X116290000Y-128316369D01*
X116290000Y-125683631D01*
X116287448Y-125672688D01*
X116276219Y-125673056D01*
X116081736Y-125725168D01*
X116071602Y-125728856D01*
X115867332Y-125824110D01*
X115857982Y-125829508D01*
X115673357Y-125958784D01*
X115665098Y-125965714D01*
X115553084Y-126077728D01*
X115500337Y-126109023D01*
X115439045Y-126111212D01*
X115384200Y-126083759D01*
X115349221Y-126033379D01*
X115335687Y-125997094D01*
X115300889Y-125903796D01*
X115213261Y-125786739D01*
X115185697Y-125766105D01*
X115103304Y-125704426D01*
X115103303Y-125704425D01*
X115096204Y-125699111D01*
X115087896Y-125696012D01*
X115087894Y-125696011D01*
X114966463Y-125650719D01*
X114966458Y-125650717D01*
X114959201Y-125648011D01*
X114951497Y-125647182D01*
X114951494Y-125647182D01*
X114901924Y-125641853D01*
X114901918Y-125641852D01*
X114898638Y-125641500D01*
X113101362Y-125641500D01*
X113098082Y-125641852D01*
X113098075Y-125641853D01*
X113048505Y-125647182D01*
X113048500Y-125647182D01*
X113040799Y-125648011D01*
X113033543Y-125650717D01*
X113033536Y-125650719D01*
X112912105Y-125696011D01*
X112912099Y-125696013D01*
X112903796Y-125699111D01*
X112896698Y-125704423D01*
X112896695Y-125704426D01*
X112793835Y-125781426D01*
X112793831Y-125781429D01*
X112786739Y-125786739D01*
X112781429Y-125793831D01*
X112781426Y-125793835D01*
X112704426Y-125896695D01*
X112704423Y-125896698D01*
X112699111Y-125903796D01*
X112696013Y-125912099D01*
X112696011Y-125912105D01*
X112650719Y-126033536D01*
X112650717Y-126033543D01*
X112648011Y-126040799D01*
X112647182Y-126048500D01*
X112647182Y-126048505D01*
X112643392Y-126083759D01*
X112641500Y-126101362D01*
X112641500Y-127898638D01*
X105870904Y-127898638D01*
X105981632Y-127782825D01*
X106105635Y-127594968D01*
X106194103Y-127387988D01*
X106244191Y-127168537D01*
X106254290Y-126943670D01*
X106224075Y-126720613D01*
X106187122Y-126606884D01*
X106156238Y-126511832D01*
X106156237Y-126511829D01*
X106154517Y-126506536D01*
X106077176Y-126362812D01*
X106050487Y-126313215D01*
X106050485Y-126313212D01*
X106047852Y-126308319D01*
X105978877Y-126221828D01*
X105910977Y-126136684D01*
X105907508Y-126132334D01*
X105875846Y-126104672D01*
X105818395Y-126054478D01*
X105737996Y-125984235D01*
X105733218Y-125981380D01*
X105733215Y-125981378D01*
X105549545Y-125871641D01*
X105549540Y-125871638D01*
X105544764Y-125868785D01*
X105440092Y-125829501D01*
X105339239Y-125791650D01*
X105339236Y-125791649D01*
X105334024Y-125789693D01*
X105328546Y-125788698D01*
X105328543Y-125788698D01*
X105118030Y-125750495D01*
X105118029Y-125750494D01*
X105112547Y-125749500D01*
X104943845Y-125749500D01*
X104941097Y-125749747D01*
X104941081Y-125749748D01*
X104781360Y-125764123D01*
X104781352Y-125764124D01*
X104775812Y-125764623D01*
X104770448Y-125766103D01*
X104770439Y-125766105D01*
X104564201Y-125823024D01*
X104564194Y-125823026D01*
X104558830Y-125824507D01*
X104553812Y-125826923D01*
X104553808Y-125826925D01*
X104361048Y-125919752D01*
X104361039Y-125919757D01*
X104356027Y-125922171D01*
X104351525Y-125925441D01*
X104351518Y-125925446D01*
X104178429Y-126051203D01*
X104178425Y-126051205D01*
X104173922Y-126054478D01*
X104170083Y-126058492D01*
X104170074Y-126058501D01*
X104022218Y-126213147D01*
X104022212Y-126213154D01*
X104018368Y-126217175D01*
X104015299Y-126221823D01*
X104015296Y-126221828D01*
X103897435Y-126400380D01*
X103897431Y-126400386D01*
X103894365Y-126405032D01*
X103892178Y-126410148D01*
X103892173Y-126410158D01*
X103808088Y-126606884D01*
X103808085Y-126606892D01*
X103805897Y-126612012D01*
X103804657Y-126617441D01*
X103804656Y-126617447D01*
X103757049Y-126826029D01*
X103755809Y-126831463D01*
X103755559Y-126837019D01*
X103755558Y-126837030D01*
X103750520Y-126949230D01*
X103745710Y-127056330D01*
X102075500Y-127056330D01*
X102075500Y-122898638D01*
X112641500Y-122898638D01*
X112648011Y-122959201D01*
X112650717Y-122966458D01*
X112650719Y-122966463D01*
X112696011Y-123087894D01*
X112699111Y-123096204D01*
X112786739Y-123213261D01*
X112903796Y-123300889D01*
X113040799Y-123351989D01*
X113101362Y-123358500D01*
X114895328Y-123358500D01*
X114898638Y-123358500D01*
X114959201Y-123351989D01*
X115096204Y-123300889D01*
X115213261Y-123213261D01*
X115300889Y-123096204D01*
X115349222Y-122966617D01*
X115384200Y-122916240D01*
X115439045Y-122888787D01*
X115500338Y-122890976D01*
X115553084Y-122922272D01*
X115665090Y-123034278D01*
X115673356Y-123041215D01*
X115857991Y-123170498D01*
X115867323Y-123175886D01*
X116071602Y-123271143D01*
X116081736Y-123274831D01*
X116276219Y-123326943D01*
X116287448Y-123327311D01*
X116290000Y-123316369D01*
X116790000Y-123316369D01*
X116792551Y-123327311D01*
X116803780Y-123326943D01*
X116998263Y-123274831D01*
X117008397Y-123271143D01*
X117212676Y-123175886D01*
X117222008Y-123170498D01*
X117406643Y-123041215D01*
X117414909Y-123034278D01*
X117574278Y-122874909D01*
X117581219Y-122866638D01*
X117704868Y-122690049D01*
X117750072Y-122650726D01*
X117808436Y-122637188D01*
X117866335Y-122652595D01*
X117910252Y-122693351D01*
X118001470Y-122832972D01*
X118001478Y-122832982D01*
X118004278Y-122837268D01*
X118007752Y-122841041D01*
X118007753Y-122841043D01*
X118153288Y-122999135D01*
X118153291Y-122999138D01*
X118156760Y-123002906D01*
X118160801Y-123006051D01*
X118330376Y-123138039D01*
X118330381Y-123138042D01*
X118334424Y-123141189D01*
X118338931Y-123143628D01*
X118338934Y-123143630D01*
X118527919Y-123245903D01*
X118532426Y-123248342D01*
X118745365Y-123321444D01*
X118967431Y-123358500D01*
X119187436Y-123358500D01*
X119192569Y-123358500D01*
X119414635Y-123321444D01*
X119627574Y-123248342D01*
X119825576Y-123141189D01*
X120003240Y-123002906D01*
X120155722Y-122837268D01*
X120246190Y-122698795D01*
X120290982Y-122657561D01*
X120350000Y-122642616D01*
X120409018Y-122657561D01*
X120453809Y-122698795D01*
X120541470Y-122832972D01*
X120541478Y-122832982D01*
X120544278Y-122837268D01*
X120547752Y-122841041D01*
X120547753Y-122841043D01*
X120693288Y-122999135D01*
X120693291Y-122999138D01*
X120696760Y-123002906D01*
X120700801Y-123006051D01*
X120870376Y-123138039D01*
X120870381Y-123138042D01*
X120874424Y-123141189D01*
X120878931Y-123143628D01*
X120878934Y-123143630D01*
X121067919Y-123245903D01*
X121072426Y-123248342D01*
X121285365Y-123321444D01*
X121507431Y-123358500D01*
X121727436Y-123358500D01*
X121732569Y-123358500D01*
X121954635Y-123321444D01*
X122167574Y-123248342D01*
X122365576Y-123141189D01*
X122543240Y-123002906D01*
X122639226Y-122898638D01*
X127561500Y-122898638D01*
X127568011Y-122959201D01*
X127570717Y-122966458D01*
X127570719Y-122966463D01*
X127616011Y-123087894D01*
X127619111Y-123096204D01*
X127706739Y-123213261D01*
X127823796Y-123300889D01*
X127960799Y-123351989D01*
X128021362Y-123358500D01*
X129815328Y-123358500D01*
X129818638Y-123358500D01*
X129879201Y-123351989D01*
X130016204Y-123300889D01*
X130133261Y-123213261D01*
X130220889Y-123096204D01*
X130269222Y-122966617D01*
X130304200Y-122916240D01*
X130359045Y-122888787D01*
X130420338Y-122890976D01*
X130473084Y-122922272D01*
X130585090Y-123034278D01*
X130593356Y-123041215D01*
X130777991Y-123170498D01*
X130787323Y-123175886D01*
X130991602Y-123271143D01*
X131001736Y-123274831D01*
X131196219Y-123326943D01*
X131207448Y-123327311D01*
X131210000Y-123316369D01*
X131710000Y-123316369D01*
X131712551Y-123327311D01*
X131723780Y-123326943D01*
X131918263Y-123274831D01*
X131928397Y-123271143D01*
X132132676Y-123175886D01*
X132142008Y-123170498D01*
X132326643Y-123041215D01*
X132334909Y-123034278D01*
X132494278Y-122874909D01*
X132501219Y-122866638D01*
X132624868Y-122690049D01*
X132670072Y-122650726D01*
X132728436Y-122637188D01*
X132786335Y-122652595D01*
X132830252Y-122693351D01*
X132921470Y-122832972D01*
X132921478Y-122832982D01*
X132924278Y-122837268D01*
X132927752Y-122841041D01*
X132927753Y-122841043D01*
X133073288Y-122999135D01*
X133073291Y-122999138D01*
X133076760Y-123002906D01*
X133080801Y-123006051D01*
X133250376Y-123138039D01*
X133250381Y-123138042D01*
X133254424Y-123141189D01*
X133258931Y-123143628D01*
X133258934Y-123143630D01*
X133447919Y-123245903D01*
X133452426Y-123248342D01*
X133665365Y-123321444D01*
X133887431Y-123358500D01*
X134107436Y-123358500D01*
X134112569Y-123358500D01*
X134334635Y-123321444D01*
X134547574Y-123248342D01*
X134745576Y-123141189D01*
X134923240Y-123002906D01*
X135075722Y-122837268D01*
X135166190Y-122698795D01*
X135210982Y-122657561D01*
X135270000Y-122642616D01*
X135329018Y-122657561D01*
X135373809Y-122698795D01*
X135461470Y-122832972D01*
X135461478Y-122832982D01*
X135464278Y-122837268D01*
X135467752Y-122841041D01*
X135467753Y-122841043D01*
X135613288Y-122999135D01*
X135613291Y-122999138D01*
X135616760Y-123002906D01*
X135620801Y-123006051D01*
X135790376Y-123138039D01*
X135790381Y-123138042D01*
X135794424Y-123141189D01*
X135798931Y-123143628D01*
X135798934Y-123143630D01*
X135987919Y-123245903D01*
X135992426Y-123248342D01*
X136205365Y-123321444D01*
X136427431Y-123358500D01*
X136647436Y-123358500D01*
X136652569Y-123358500D01*
X136874635Y-123321444D01*
X137087574Y-123248342D01*
X137285576Y-123141189D01*
X137463240Y-123002906D01*
X137615722Y-122837268D01*
X137738860Y-122648791D01*
X137829296Y-122442616D01*
X137884564Y-122224368D01*
X137903156Y-122000000D01*
X137884564Y-121775632D01*
X137829296Y-121557384D01*
X137738860Y-121351209D01*
X137615722Y-121162732D01*
X137566279Y-121109023D01*
X137466711Y-121000864D01*
X137466708Y-121000861D01*
X137463240Y-120997094D01*
X137450597Y-120987253D01*
X137289623Y-120861960D01*
X137289615Y-120861955D01*
X137285576Y-120858811D01*
X137281071Y-120856373D01*
X137281065Y-120856369D01*
X137092080Y-120754096D01*
X137092074Y-120754093D01*
X137087574Y-120751658D01*
X137082733Y-120749996D01*
X137082726Y-120749993D01*
X136879488Y-120680222D01*
X136879487Y-120680221D01*
X136874635Y-120678556D01*
X136869585Y-120677713D01*
X136869576Y-120677711D01*
X136657631Y-120642344D01*
X136657622Y-120642343D01*
X136652569Y-120641500D01*
X136427431Y-120641500D01*
X136422378Y-120642343D01*
X136422368Y-120642344D01*
X136210423Y-120677711D01*
X136210411Y-120677713D01*
X136205365Y-120678556D01*
X136200515Y-120680220D01*
X136200511Y-120680222D01*
X135997273Y-120749993D01*
X135997262Y-120749997D01*
X135992426Y-120751658D01*
X135987929Y-120754091D01*
X135987919Y-120754096D01*
X135798934Y-120856369D01*
X135798922Y-120856376D01*
X135794424Y-120858811D01*
X135790389Y-120861951D01*
X135790376Y-120861960D01*
X135620801Y-120993948D01*
X135620795Y-120993952D01*
X135616760Y-120997094D01*
X135613297Y-121000855D01*
X135613288Y-121000864D01*
X135467753Y-121158956D01*
X135467747Y-121158963D01*
X135464278Y-121162732D01*
X135461481Y-121167012D01*
X135461474Y-121167022D01*
X135373809Y-121301205D01*
X135329017Y-121342438D01*
X135270000Y-121357383D01*
X135210983Y-121342438D01*
X135166191Y-121301205D01*
X135078525Y-121167022D01*
X135078523Y-121167020D01*
X135075722Y-121162732D01*
X135026279Y-121109023D01*
X134926711Y-121000864D01*
X134926708Y-121000861D01*
X134923240Y-120997094D01*
X134910597Y-120987253D01*
X134749623Y-120861960D01*
X134749615Y-120861955D01*
X134745576Y-120858811D01*
X134741071Y-120856373D01*
X134741065Y-120856369D01*
X134552080Y-120754096D01*
X134552074Y-120754093D01*
X134547574Y-120751658D01*
X134542733Y-120749996D01*
X134542726Y-120749993D01*
X134339488Y-120680222D01*
X134339487Y-120680221D01*
X134334635Y-120678556D01*
X134329585Y-120677713D01*
X134329576Y-120677711D01*
X134117631Y-120642344D01*
X134117622Y-120642343D01*
X134112569Y-120641500D01*
X133887431Y-120641500D01*
X133882378Y-120642343D01*
X133882368Y-120642344D01*
X133670423Y-120677711D01*
X133670411Y-120677713D01*
X133665365Y-120678556D01*
X133660515Y-120680220D01*
X133660511Y-120680222D01*
X133457273Y-120749993D01*
X133457262Y-120749997D01*
X133452426Y-120751658D01*
X133447929Y-120754091D01*
X133447919Y-120754096D01*
X133258934Y-120856369D01*
X133258922Y-120856376D01*
X133254424Y-120858811D01*
X133250389Y-120861951D01*
X133250376Y-120861960D01*
X133080801Y-120993948D01*
X133080795Y-120993952D01*
X133076760Y-120997094D01*
X133073297Y-121000855D01*
X133073288Y-121000864D01*
X132927753Y-121158956D01*
X132927747Y-121158963D01*
X132924278Y-121162732D01*
X132921480Y-121167014D01*
X132921468Y-121167030D01*
X132830250Y-121306650D01*
X132786334Y-121347405D01*
X132728435Y-121362812D01*
X132670071Y-121349274D01*
X132624867Y-121309951D01*
X132501215Y-121133357D01*
X132494280Y-121125092D01*
X132334909Y-120965721D01*
X132326643Y-120958784D01*
X132142008Y-120829501D01*
X132132676Y-120824113D01*
X131928397Y-120728856D01*
X131918263Y-120725168D01*
X131723780Y-120673056D01*
X131712551Y-120672688D01*
X131710000Y-120683631D01*
X131710000Y-123316369D01*
X131210000Y-123316369D01*
X131210000Y-120683631D01*
X131207448Y-120672688D01*
X131196219Y-120673056D01*
X131001736Y-120725168D01*
X130991602Y-120728856D01*
X130787332Y-120824110D01*
X130777982Y-120829508D01*
X130593357Y-120958784D01*
X130585098Y-120965714D01*
X130473084Y-121077728D01*
X130420337Y-121109023D01*
X130359045Y-121111212D01*
X130304200Y-121083759D01*
X130269221Y-121033379D01*
X130255687Y-120997094D01*
X130220889Y-120903796D01*
X130133261Y-120786739D01*
X130086398Y-120751658D01*
X130023304Y-120704426D01*
X130023303Y-120704425D01*
X130016204Y-120699111D01*
X130007896Y-120696012D01*
X130007894Y-120696011D01*
X129886463Y-120650719D01*
X129886458Y-120650717D01*
X129879201Y-120648011D01*
X129871497Y-120647182D01*
X129871494Y-120647182D01*
X129821924Y-120641853D01*
X129821918Y-120641852D01*
X129818638Y-120641500D01*
X128021362Y-120641500D01*
X128018082Y-120641852D01*
X128018075Y-120641853D01*
X127968505Y-120647182D01*
X127968500Y-120647182D01*
X127960799Y-120648011D01*
X127953543Y-120650717D01*
X127953536Y-120650719D01*
X127832105Y-120696011D01*
X127832099Y-120696013D01*
X127823796Y-120699111D01*
X127816698Y-120704423D01*
X127816695Y-120704426D01*
X127713835Y-120781426D01*
X127713831Y-120781429D01*
X127706739Y-120786739D01*
X127701429Y-120793831D01*
X127701426Y-120793835D01*
X127624426Y-120896695D01*
X127624423Y-120896698D01*
X127619111Y-120903796D01*
X127616013Y-120912099D01*
X127616011Y-120912105D01*
X127570719Y-121033536D01*
X127570717Y-121033543D01*
X127568011Y-121040799D01*
X127567182Y-121048500D01*
X127567182Y-121048505D01*
X127563392Y-121083759D01*
X127561500Y-121101362D01*
X127561500Y-122898638D01*
X122639226Y-122898638D01*
X122695722Y-122837268D01*
X122818860Y-122648791D01*
X122909296Y-122442616D01*
X122964564Y-122224368D01*
X122983156Y-122000000D01*
X122964564Y-121775632D01*
X122909296Y-121557384D01*
X122818860Y-121351209D01*
X122695722Y-121162732D01*
X122646279Y-121109023D01*
X122546711Y-121000864D01*
X122546708Y-121000861D01*
X122543240Y-120997094D01*
X122530597Y-120987253D01*
X122369623Y-120861960D01*
X122369615Y-120861955D01*
X122365576Y-120858811D01*
X122361071Y-120856373D01*
X122361065Y-120856369D01*
X122172080Y-120754096D01*
X122172074Y-120754093D01*
X122167574Y-120751658D01*
X122162733Y-120749996D01*
X122162726Y-120749993D01*
X121959488Y-120680222D01*
X121959487Y-120680221D01*
X121954635Y-120678556D01*
X121949585Y-120677713D01*
X121949576Y-120677711D01*
X121737631Y-120642344D01*
X121737622Y-120642343D01*
X121732569Y-120641500D01*
X121507431Y-120641500D01*
X121502378Y-120642343D01*
X121502368Y-120642344D01*
X121290423Y-120677711D01*
X121290411Y-120677713D01*
X121285365Y-120678556D01*
X121280515Y-120680220D01*
X121280511Y-120680222D01*
X121077273Y-120749993D01*
X121077262Y-120749997D01*
X121072426Y-120751658D01*
X121067929Y-120754091D01*
X121067919Y-120754096D01*
X120878934Y-120856369D01*
X120878922Y-120856376D01*
X120874424Y-120858811D01*
X120870389Y-120861951D01*
X120870376Y-120861960D01*
X120700801Y-120993948D01*
X120700795Y-120993952D01*
X120696760Y-120997094D01*
X120693297Y-121000855D01*
X120693288Y-121000864D01*
X120547753Y-121158956D01*
X120547747Y-121158963D01*
X120544278Y-121162732D01*
X120541481Y-121167012D01*
X120541474Y-121167022D01*
X120453809Y-121301205D01*
X120409017Y-121342438D01*
X120350000Y-121357383D01*
X120290983Y-121342438D01*
X120246191Y-121301205D01*
X120158525Y-121167022D01*
X120158523Y-121167020D01*
X120155722Y-121162732D01*
X120106279Y-121109023D01*
X120006711Y-121000864D01*
X120006708Y-121000861D01*
X120003240Y-120997094D01*
X119990597Y-120987253D01*
X119829623Y-120861960D01*
X119829615Y-120861955D01*
X119825576Y-120858811D01*
X119821071Y-120856373D01*
X119821065Y-120856369D01*
X119632080Y-120754096D01*
X119632074Y-120754093D01*
X119627574Y-120751658D01*
X119622733Y-120749996D01*
X119622726Y-120749993D01*
X119419488Y-120680222D01*
X119419487Y-120680221D01*
X119414635Y-120678556D01*
X119409585Y-120677713D01*
X119409576Y-120677711D01*
X119197631Y-120642344D01*
X119197622Y-120642343D01*
X119192569Y-120641500D01*
X118967431Y-120641500D01*
X118962378Y-120642343D01*
X118962368Y-120642344D01*
X118750423Y-120677711D01*
X118750411Y-120677713D01*
X118745365Y-120678556D01*
X118740515Y-120680220D01*
X118740511Y-120680222D01*
X118537273Y-120749993D01*
X118537262Y-120749997D01*
X118532426Y-120751658D01*
X118527929Y-120754091D01*
X118527919Y-120754096D01*
X118338934Y-120856369D01*
X118338922Y-120856376D01*
X118334424Y-120858811D01*
X118330389Y-120861951D01*
X118330376Y-120861960D01*
X118160801Y-120993948D01*
X118160795Y-120993952D01*
X118156760Y-120997094D01*
X118153297Y-121000855D01*
X118153288Y-121000864D01*
X118007753Y-121158956D01*
X118007747Y-121158963D01*
X118004278Y-121162732D01*
X118001480Y-121167014D01*
X118001468Y-121167030D01*
X117910250Y-121306650D01*
X117866334Y-121347405D01*
X117808435Y-121362812D01*
X117750071Y-121349274D01*
X117704867Y-121309951D01*
X117581215Y-121133357D01*
X117574280Y-121125092D01*
X117414909Y-120965721D01*
X117406643Y-120958784D01*
X117222008Y-120829501D01*
X117212676Y-120824113D01*
X117008397Y-120728856D01*
X116998263Y-120725168D01*
X116803780Y-120673056D01*
X116792551Y-120672688D01*
X116790000Y-120683631D01*
X116790000Y-123316369D01*
X116290000Y-123316369D01*
X116290000Y-120683631D01*
X116287448Y-120672688D01*
X116276219Y-120673056D01*
X116081736Y-120725168D01*
X116071602Y-120728856D01*
X115867332Y-120824110D01*
X115857982Y-120829508D01*
X115673357Y-120958784D01*
X115665098Y-120965714D01*
X115553084Y-121077728D01*
X115500337Y-121109023D01*
X115439045Y-121111212D01*
X115384200Y-121083759D01*
X115349221Y-121033379D01*
X115335687Y-120997094D01*
X115300889Y-120903796D01*
X115213261Y-120786739D01*
X115166398Y-120751658D01*
X115103304Y-120704426D01*
X115103303Y-120704425D01*
X115096204Y-120699111D01*
X115087896Y-120696012D01*
X115087894Y-120696011D01*
X114966463Y-120650719D01*
X114966458Y-120650717D01*
X114959201Y-120648011D01*
X114951497Y-120647182D01*
X114951494Y-120647182D01*
X114901924Y-120641853D01*
X114901918Y-120641852D01*
X114898638Y-120641500D01*
X113101362Y-120641500D01*
X113098082Y-120641852D01*
X113098075Y-120641853D01*
X113048505Y-120647182D01*
X113048500Y-120647182D01*
X113040799Y-120648011D01*
X113033543Y-120650717D01*
X113033536Y-120650719D01*
X112912105Y-120696011D01*
X112912099Y-120696013D01*
X112903796Y-120699111D01*
X112896698Y-120704423D01*
X112896695Y-120704426D01*
X112793835Y-120781426D01*
X112793831Y-120781429D01*
X112786739Y-120786739D01*
X112781429Y-120793831D01*
X112781426Y-120793835D01*
X112704426Y-120896695D01*
X112704423Y-120896698D01*
X112699111Y-120903796D01*
X112696013Y-120912099D01*
X112696011Y-120912105D01*
X112650719Y-121033536D01*
X112650717Y-121033543D01*
X112648011Y-121040799D01*
X112647182Y-121048500D01*
X112647182Y-121048505D01*
X112643392Y-121083759D01*
X112641500Y-121101362D01*
X112641500Y-122898638D01*
X102075500Y-122898638D01*
X102075500Y-116000000D01*
X105636844Y-116000000D01*
X105637268Y-116005117D01*
X105655011Y-116219248D01*
X105655012Y-116219256D01*
X105655436Y-116224368D01*
X105656693Y-116229335D01*
X105656695Y-116229342D01*
X105709445Y-116437645D01*
X105710704Y-116442616D01*
X105712764Y-116447312D01*
X105799080Y-116644096D01*
X105799083Y-116644101D01*
X105801140Y-116648791D01*
X105833809Y-116698795D01*
X105921474Y-116832977D01*
X105921477Y-116832981D01*
X105924278Y-116837268D01*
X105927752Y-116841041D01*
X105927753Y-116841043D01*
X106073288Y-116999135D01*
X106073291Y-116999138D01*
X106076760Y-117002906D01*
X106080801Y-117006051D01*
X106250376Y-117138039D01*
X106250381Y-117138042D01*
X106254424Y-117141189D01*
X106258931Y-117143628D01*
X106258934Y-117143630D01*
X106447919Y-117245903D01*
X106452426Y-117248342D01*
X106665365Y-117321444D01*
X106887431Y-117358500D01*
X107107436Y-117358500D01*
X107112569Y-117358500D01*
X107334635Y-117321444D01*
X107547574Y-117248342D01*
X107745576Y-117141189D01*
X107923240Y-117002906D01*
X108075722Y-116837268D01*
X108166190Y-116698795D01*
X108210982Y-116657561D01*
X108270000Y-116642616D01*
X108329018Y-116657561D01*
X108373809Y-116698795D01*
X108461470Y-116832972D01*
X108461478Y-116832982D01*
X108464278Y-116837268D01*
X108467752Y-116841041D01*
X108467753Y-116841043D01*
X108613288Y-116999135D01*
X108613291Y-116999138D01*
X108616760Y-117002906D01*
X108620801Y-117006051D01*
X108790376Y-117138039D01*
X108790381Y-117138042D01*
X108794424Y-117141189D01*
X108798931Y-117143628D01*
X108798934Y-117143630D01*
X108987919Y-117245903D01*
X108992426Y-117248342D01*
X109205365Y-117321444D01*
X109427431Y-117358500D01*
X109647436Y-117358500D01*
X109652569Y-117358500D01*
X109874635Y-117321444D01*
X110087574Y-117248342D01*
X110285576Y-117141189D01*
X110463240Y-117002906D01*
X110615722Y-116837268D01*
X110706190Y-116698795D01*
X110750982Y-116657561D01*
X110810000Y-116642616D01*
X110869018Y-116657561D01*
X110913809Y-116698795D01*
X111001470Y-116832972D01*
X111001478Y-116832982D01*
X111004278Y-116837268D01*
X111007752Y-116841041D01*
X111007753Y-116841043D01*
X111153288Y-116999135D01*
X111153291Y-116999138D01*
X111156760Y-117002906D01*
X111160801Y-117006051D01*
X111330376Y-117138039D01*
X111330381Y-117138042D01*
X111334424Y-117141189D01*
X111338931Y-117143628D01*
X111338934Y-117143630D01*
X111527919Y-117245903D01*
X111532426Y-117248342D01*
X111745365Y-117321444D01*
X111967431Y-117358500D01*
X112187436Y-117358500D01*
X112192569Y-117358500D01*
X112414635Y-117321444D01*
X112627574Y-117248342D01*
X112825576Y-117141189D01*
X113003240Y-117002906D01*
X113155722Y-116837268D01*
X113246190Y-116698795D01*
X113290982Y-116657561D01*
X113350000Y-116642616D01*
X113409018Y-116657561D01*
X113453809Y-116698795D01*
X113541470Y-116832972D01*
X113541478Y-116832982D01*
X113544278Y-116837268D01*
X113547752Y-116841041D01*
X113547753Y-116841043D01*
X113693288Y-116999135D01*
X113693291Y-116999138D01*
X113696760Y-117002906D01*
X113700801Y-117006051D01*
X113870376Y-117138039D01*
X113870381Y-117138042D01*
X113874424Y-117141189D01*
X113878931Y-117143628D01*
X113878934Y-117143630D01*
X114067919Y-117245903D01*
X114072426Y-117248342D01*
X114285365Y-117321444D01*
X114507431Y-117358500D01*
X114727436Y-117358500D01*
X114732569Y-117358500D01*
X114954635Y-117321444D01*
X115167574Y-117248342D01*
X115365576Y-117141189D01*
X115543240Y-117002906D01*
X115695722Y-116837268D01*
X115786190Y-116698795D01*
X115830982Y-116657561D01*
X115890000Y-116642616D01*
X115949018Y-116657561D01*
X115993809Y-116698795D01*
X116081470Y-116832972D01*
X116081478Y-116832982D01*
X116084278Y-116837268D01*
X116087752Y-116841041D01*
X116087753Y-116841043D01*
X116233288Y-116999135D01*
X116233291Y-116999138D01*
X116236760Y-117002906D01*
X116240801Y-117006051D01*
X116410376Y-117138039D01*
X116410381Y-117138042D01*
X116414424Y-117141189D01*
X116418931Y-117143628D01*
X116418934Y-117143630D01*
X116607919Y-117245903D01*
X116612426Y-117248342D01*
X116825365Y-117321444D01*
X117047431Y-117358500D01*
X117267436Y-117358500D01*
X117272569Y-117358500D01*
X117494635Y-117321444D01*
X117707574Y-117248342D01*
X117905576Y-117141189D01*
X118083240Y-117002906D01*
X118235722Y-116837268D01*
X118326190Y-116698795D01*
X118370982Y-116657561D01*
X118430000Y-116642616D01*
X118489018Y-116657561D01*
X118533809Y-116698795D01*
X118621470Y-116832972D01*
X118621478Y-116832982D01*
X118624278Y-116837268D01*
X118627752Y-116841041D01*
X118627753Y-116841043D01*
X118773288Y-116999135D01*
X118773291Y-116999138D01*
X118776760Y-117002906D01*
X118780801Y-117006051D01*
X118950376Y-117138039D01*
X118950381Y-117138042D01*
X118954424Y-117141189D01*
X118958931Y-117143628D01*
X118958934Y-117143630D01*
X119147919Y-117245903D01*
X119152426Y-117248342D01*
X119365365Y-117321444D01*
X119587431Y-117358500D01*
X119807436Y-117358500D01*
X119812569Y-117358500D01*
X120034635Y-117321444D01*
X120247574Y-117248342D01*
X120445576Y-117141189D01*
X120623240Y-117002906D01*
X120775722Y-116837268D01*
X120866190Y-116698795D01*
X120910982Y-116657561D01*
X120970000Y-116642616D01*
X121029018Y-116657561D01*
X121073809Y-116698795D01*
X121161470Y-116832972D01*
X121161478Y-116832982D01*
X121164278Y-116837268D01*
X121167752Y-116841041D01*
X121167753Y-116841043D01*
X121313288Y-116999135D01*
X121313291Y-116999138D01*
X121316760Y-117002906D01*
X121320801Y-117006051D01*
X121490376Y-117138039D01*
X121490381Y-117138042D01*
X121494424Y-117141189D01*
X121498931Y-117143628D01*
X121498934Y-117143630D01*
X121687919Y-117245903D01*
X121692426Y-117248342D01*
X121905365Y-117321444D01*
X122127431Y-117358500D01*
X122347436Y-117358500D01*
X122352569Y-117358500D01*
X122574635Y-117321444D01*
X122787574Y-117248342D01*
X122985576Y-117141189D01*
X123163240Y-117002906D01*
X123315722Y-116837268D01*
X123406190Y-116698795D01*
X123450982Y-116657561D01*
X123510000Y-116642616D01*
X123569018Y-116657561D01*
X123613809Y-116698795D01*
X123701470Y-116832972D01*
X123701478Y-116832982D01*
X123704278Y-116837268D01*
X123707752Y-116841041D01*
X123707753Y-116841043D01*
X123853288Y-116999135D01*
X123853291Y-116999138D01*
X123856760Y-117002906D01*
X123860801Y-117006051D01*
X124030376Y-117138039D01*
X124030381Y-117138042D01*
X124034424Y-117141189D01*
X124038931Y-117143628D01*
X124038934Y-117143630D01*
X124227919Y-117245903D01*
X124232426Y-117248342D01*
X124445365Y-117321444D01*
X124667431Y-117358500D01*
X124887436Y-117358500D01*
X124892569Y-117358500D01*
X125114635Y-117321444D01*
X125327574Y-117248342D01*
X125525576Y-117141189D01*
X125703240Y-117002906D01*
X125855722Y-116837268D01*
X125946190Y-116698795D01*
X125990982Y-116657561D01*
X126050000Y-116642616D01*
X126109018Y-116657561D01*
X126153809Y-116698795D01*
X126241470Y-116832972D01*
X126241478Y-116832982D01*
X126244278Y-116837268D01*
X126247752Y-116841041D01*
X126247753Y-116841043D01*
X126393288Y-116999135D01*
X126393291Y-116999138D01*
X126396760Y-117002906D01*
X126400801Y-117006051D01*
X126570376Y-117138039D01*
X126570381Y-117138042D01*
X126574424Y-117141189D01*
X126578931Y-117143628D01*
X126578934Y-117143630D01*
X126767919Y-117245903D01*
X126772426Y-117248342D01*
X126985365Y-117321444D01*
X127207431Y-117358500D01*
X127427436Y-117358500D01*
X127432569Y-117358500D01*
X127654635Y-117321444D01*
X127867574Y-117248342D01*
X128065576Y-117141189D01*
X128243240Y-117002906D01*
X128395722Y-116837268D01*
X128486190Y-116698795D01*
X128530982Y-116657561D01*
X128590000Y-116642616D01*
X128649018Y-116657561D01*
X128693809Y-116698795D01*
X128781470Y-116832972D01*
X128781478Y-116832982D01*
X128784278Y-116837268D01*
X128787752Y-116841041D01*
X128787753Y-116841043D01*
X128933288Y-116999135D01*
X128933291Y-116999138D01*
X128936760Y-117002906D01*
X128940801Y-117006051D01*
X129110376Y-117138039D01*
X129110381Y-117138042D01*
X129114424Y-117141189D01*
X129118931Y-117143628D01*
X129118934Y-117143630D01*
X129307919Y-117245903D01*
X129312426Y-117248342D01*
X129525365Y-117321444D01*
X129747431Y-117358500D01*
X129967436Y-117358500D01*
X129972569Y-117358500D01*
X130194635Y-117321444D01*
X130407574Y-117248342D01*
X130605576Y-117141189D01*
X130783240Y-117002906D01*
X130935722Y-116837268D01*
X131026190Y-116698795D01*
X131070982Y-116657561D01*
X131130000Y-116642616D01*
X131189018Y-116657561D01*
X131233809Y-116698795D01*
X131321470Y-116832972D01*
X131321478Y-116832982D01*
X131324278Y-116837268D01*
X131327752Y-116841041D01*
X131327753Y-116841043D01*
X131473288Y-116999135D01*
X131473291Y-116999138D01*
X131476760Y-117002906D01*
X131480801Y-117006051D01*
X131650376Y-117138039D01*
X131650381Y-117138042D01*
X131654424Y-117141189D01*
X131658931Y-117143628D01*
X131658934Y-117143630D01*
X131847919Y-117245903D01*
X131852426Y-117248342D01*
X132065365Y-117321444D01*
X132287431Y-117358500D01*
X132507436Y-117358500D01*
X132512569Y-117358500D01*
X132734635Y-117321444D01*
X132947574Y-117248342D01*
X133145576Y-117141189D01*
X133323240Y-117002906D01*
X133475722Y-116837268D01*
X133566190Y-116698795D01*
X133610982Y-116657561D01*
X133670000Y-116642616D01*
X133729018Y-116657561D01*
X133773809Y-116698795D01*
X133861470Y-116832972D01*
X133861478Y-116832982D01*
X133864278Y-116837268D01*
X133867752Y-116841041D01*
X133867753Y-116841043D01*
X134013288Y-116999135D01*
X134013291Y-116999138D01*
X134016760Y-117002906D01*
X134020801Y-117006051D01*
X134190376Y-117138039D01*
X134190381Y-117138042D01*
X134194424Y-117141189D01*
X134198931Y-117143628D01*
X134198934Y-117143630D01*
X134387919Y-117245903D01*
X134392426Y-117248342D01*
X134605365Y-117321444D01*
X134827431Y-117358500D01*
X135047436Y-117358500D01*
X135052569Y-117358500D01*
X135274635Y-117321444D01*
X135487574Y-117248342D01*
X135685576Y-117141189D01*
X135863240Y-117002906D01*
X136015722Y-116837268D01*
X136106190Y-116698795D01*
X136150982Y-116657561D01*
X136210000Y-116642616D01*
X136269018Y-116657561D01*
X136313809Y-116698795D01*
X136401470Y-116832972D01*
X136401478Y-116832982D01*
X136404278Y-116837268D01*
X136407752Y-116841041D01*
X136407753Y-116841043D01*
X136553288Y-116999135D01*
X136553291Y-116999138D01*
X136556760Y-117002906D01*
X136560801Y-117006051D01*
X136730376Y-117138039D01*
X136730381Y-117138042D01*
X136734424Y-117141189D01*
X136738931Y-117143628D01*
X136738934Y-117143630D01*
X136927919Y-117245903D01*
X136932426Y-117248342D01*
X137145365Y-117321444D01*
X137367431Y-117358500D01*
X137587436Y-117358500D01*
X137592569Y-117358500D01*
X137814635Y-117321444D01*
X138027574Y-117248342D01*
X138225576Y-117141189D01*
X138403240Y-117002906D01*
X138555722Y-116837268D01*
X138649748Y-116693349D01*
X138693663Y-116652595D01*
X138751562Y-116637188D01*
X138809927Y-116650726D01*
X138855131Y-116690048D01*
X138978784Y-116866643D01*
X138985721Y-116874909D01*
X139145090Y-117034278D01*
X139153356Y-117041215D01*
X139337991Y-117170498D01*
X139347323Y-117175886D01*
X139551602Y-117271143D01*
X139561736Y-117274831D01*
X139756219Y-117326943D01*
X139767448Y-117327311D01*
X139770000Y-117316369D01*
X140270000Y-117316369D01*
X140272551Y-117327311D01*
X140283780Y-117326943D01*
X140478263Y-117274831D01*
X140488397Y-117271143D01*
X140692676Y-117175886D01*
X140702008Y-117170498D01*
X140886643Y-117041215D01*
X140894902Y-117034284D01*
X141006914Y-116922272D01*
X141059661Y-116890976D01*
X141120954Y-116888787D01*
X141175798Y-116916240D01*
X141210778Y-116966619D01*
X141236013Y-117034278D01*
X141259111Y-117096204D01*
X141346739Y-117213261D01*
X141463796Y-117300889D01*
X141600799Y-117351989D01*
X141661362Y-117358500D01*
X143455328Y-117358500D01*
X143458638Y-117358500D01*
X143519201Y-117351989D01*
X143656204Y-117300889D01*
X143773261Y-117213261D01*
X143860889Y-117096204D01*
X143911989Y-116959201D01*
X143918500Y-116898638D01*
X143918500Y-115101362D01*
X143911989Y-115040799D01*
X143860889Y-114903796D01*
X143773261Y-114786739D01*
X143726398Y-114751658D01*
X143663304Y-114704426D01*
X143663303Y-114704425D01*
X143656204Y-114699111D01*
X143647896Y-114696012D01*
X143647894Y-114696011D01*
X143526463Y-114650719D01*
X143526458Y-114650717D01*
X143519201Y-114648011D01*
X143511497Y-114647182D01*
X143511494Y-114647182D01*
X143461924Y-114641853D01*
X143461918Y-114641852D01*
X143458638Y-114641500D01*
X141661362Y-114641500D01*
X141658082Y-114641852D01*
X141658075Y-114641853D01*
X141608505Y-114647182D01*
X141608500Y-114647182D01*
X141600799Y-114648011D01*
X141593543Y-114650717D01*
X141593536Y-114650719D01*
X141472105Y-114696011D01*
X141472099Y-114696013D01*
X141463796Y-114699111D01*
X141456698Y-114704423D01*
X141456695Y-114704426D01*
X141353835Y-114781426D01*
X141353831Y-114781429D01*
X141346739Y-114786739D01*
X141341429Y-114793831D01*
X141341426Y-114793835D01*
X141264426Y-114896695D01*
X141264423Y-114896698D01*
X141259111Y-114903796D01*
X141256013Y-114912099D01*
X141256011Y-114912105D01*
X141210778Y-115033380D01*
X141175798Y-115083759D01*
X141120954Y-115111212D01*
X141059661Y-115109023D01*
X141006915Y-115077727D01*
X140894909Y-114965721D01*
X140886643Y-114958784D01*
X140702008Y-114829501D01*
X140692676Y-114824113D01*
X140488397Y-114728856D01*
X140478263Y-114725168D01*
X140283780Y-114673056D01*
X140272551Y-114672688D01*
X140270000Y-114683631D01*
X140270000Y-117316369D01*
X139770000Y-117316369D01*
X139770000Y-114683631D01*
X139767448Y-114672688D01*
X139756219Y-114673056D01*
X139561736Y-114725168D01*
X139551602Y-114728856D01*
X139347332Y-114824110D01*
X139337982Y-114829508D01*
X139153357Y-114958784D01*
X139145092Y-114965719D01*
X138985719Y-115125092D01*
X138978788Y-115133352D01*
X138855132Y-115309952D01*
X138809928Y-115349274D01*
X138751564Y-115362812D01*
X138693665Y-115347405D01*
X138649748Y-115306649D01*
X138558529Y-115167027D01*
X138558523Y-115167019D01*
X138555722Y-115162732D01*
X138506279Y-115109023D01*
X138406711Y-115000864D01*
X138406708Y-115000861D01*
X138403240Y-114997094D01*
X138390597Y-114987253D01*
X138229623Y-114861960D01*
X138229615Y-114861955D01*
X138225576Y-114858811D01*
X138221071Y-114856373D01*
X138221065Y-114856369D01*
X138032080Y-114754096D01*
X138032074Y-114754093D01*
X138027574Y-114751658D01*
X138022733Y-114749996D01*
X138022726Y-114749993D01*
X137819488Y-114680222D01*
X137819487Y-114680221D01*
X137814635Y-114678556D01*
X137809585Y-114677713D01*
X137809576Y-114677711D01*
X137597631Y-114642344D01*
X137597622Y-114642343D01*
X137592569Y-114641500D01*
X137367431Y-114641500D01*
X137362378Y-114642343D01*
X137362368Y-114642344D01*
X137150423Y-114677711D01*
X137150411Y-114677713D01*
X137145365Y-114678556D01*
X137140515Y-114680220D01*
X137140511Y-114680222D01*
X136937273Y-114749993D01*
X136937262Y-114749997D01*
X136932426Y-114751658D01*
X136927929Y-114754091D01*
X136927919Y-114754096D01*
X136738934Y-114856369D01*
X136738922Y-114856376D01*
X136734424Y-114858811D01*
X136730389Y-114861951D01*
X136730376Y-114861960D01*
X136560801Y-114993948D01*
X136560795Y-114993952D01*
X136556760Y-114997094D01*
X136553297Y-115000855D01*
X136553288Y-115000864D01*
X136407753Y-115158956D01*
X136407747Y-115158963D01*
X136404278Y-115162732D01*
X136401481Y-115167012D01*
X136401474Y-115167022D01*
X136313809Y-115301205D01*
X136269017Y-115342438D01*
X136210000Y-115357383D01*
X136150983Y-115342438D01*
X136106191Y-115301205D01*
X136018525Y-115167022D01*
X136018523Y-115167020D01*
X136015722Y-115162732D01*
X135966279Y-115109023D01*
X135866711Y-115000864D01*
X135866708Y-115000861D01*
X135863240Y-114997094D01*
X135850597Y-114987253D01*
X135689623Y-114861960D01*
X135689615Y-114861955D01*
X135685576Y-114858811D01*
X135681071Y-114856373D01*
X135681065Y-114856369D01*
X135492080Y-114754096D01*
X135492074Y-114754093D01*
X135487574Y-114751658D01*
X135482733Y-114749996D01*
X135482726Y-114749993D01*
X135279488Y-114680222D01*
X135279487Y-114680221D01*
X135274635Y-114678556D01*
X135269585Y-114677713D01*
X135269576Y-114677711D01*
X135057631Y-114642344D01*
X135057622Y-114642343D01*
X135052569Y-114641500D01*
X134827431Y-114641500D01*
X134822378Y-114642343D01*
X134822368Y-114642344D01*
X134610423Y-114677711D01*
X134610411Y-114677713D01*
X134605365Y-114678556D01*
X134600515Y-114680220D01*
X134600511Y-114680222D01*
X134397273Y-114749993D01*
X134397262Y-114749997D01*
X134392426Y-114751658D01*
X134387929Y-114754091D01*
X134387919Y-114754096D01*
X134198934Y-114856369D01*
X134198922Y-114856376D01*
X134194424Y-114858811D01*
X134190389Y-114861951D01*
X134190376Y-114861960D01*
X134020801Y-114993948D01*
X134020795Y-114993952D01*
X134016760Y-114997094D01*
X134013297Y-115000855D01*
X134013288Y-115000864D01*
X133867753Y-115158956D01*
X133867747Y-115158963D01*
X133864278Y-115162732D01*
X133861480Y-115167014D01*
X133861468Y-115167030D01*
X133773807Y-115301205D01*
X133729016Y-115342438D01*
X133669998Y-115357383D01*
X133610981Y-115342437D01*
X133566190Y-115301204D01*
X133478528Y-115167027D01*
X133475722Y-115162732D01*
X133426279Y-115109023D01*
X133326711Y-115000864D01*
X133326708Y-115000861D01*
X133323240Y-114997094D01*
X133310597Y-114987253D01*
X133149623Y-114861960D01*
X133149615Y-114861955D01*
X133145576Y-114858811D01*
X133141071Y-114856373D01*
X133141065Y-114856369D01*
X132952080Y-114754096D01*
X132952074Y-114754093D01*
X132947574Y-114751658D01*
X132942733Y-114749996D01*
X132942726Y-114749993D01*
X132739488Y-114680222D01*
X132739487Y-114680221D01*
X132734635Y-114678556D01*
X132729585Y-114677713D01*
X132729576Y-114677711D01*
X132517631Y-114642344D01*
X132517622Y-114642343D01*
X132512569Y-114641500D01*
X132287431Y-114641500D01*
X132282378Y-114642343D01*
X132282368Y-114642344D01*
X132070423Y-114677711D01*
X132070411Y-114677713D01*
X132065365Y-114678556D01*
X132060515Y-114680220D01*
X132060511Y-114680222D01*
X131857273Y-114749993D01*
X131857262Y-114749997D01*
X131852426Y-114751658D01*
X131847929Y-114754091D01*
X131847919Y-114754096D01*
X131658934Y-114856369D01*
X131658922Y-114856376D01*
X131654424Y-114858811D01*
X131650389Y-114861951D01*
X131650376Y-114861960D01*
X131480801Y-114993948D01*
X131480795Y-114993952D01*
X131476760Y-114997094D01*
X131473297Y-115000855D01*
X131473288Y-115000864D01*
X131327753Y-115158956D01*
X131327747Y-115158963D01*
X131324278Y-115162732D01*
X131321480Y-115167014D01*
X131321468Y-115167030D01*
X131233807Y-115301205D01*
X131189016Y-115342438D01*
X131129998Y-115357383D01*
X131070981Y-115342437D01*
X131026190Y-115301204D01*
X130938528Y-115167027D01*
X130935722Y-115162732D01*
X130886279Y-115109023D01*
X130786711Y-115000864D01*
X130786708Y-115000861D01*
X130783240Y-114997094D01*
X130770597Y-114987253D01*
X130609623Y-114861960D01*
X130609615Y-114861955D01*
X130605576Y-114858811D01*
X130601071Y-114856373D01*
X130601065Y-114856369D01*
X130412080Y-114754096D01*
X130412074Y-114754093D01*
X130407574Y-114751658D01*
X130402733Y-114749996D01*
X130402726Y-114749993D01*
X130199488Y-114680222D01*
X130199487Y-114680221D01*
X130194635Y-114678556D01*
X130189585Y-114677713D01*
X130189576Y-114677711D01*
X129977631Y-114642344D01*
X129977622Y-114642343D01*
X129972569Y-114641500D01*
X129747431Y-114641500D01*
X129742378Y-114642343D01*
X129742368Y-114642344D01*
X129530423Y-114677711D01*
X129530411Y-114677713D01*
X129525365Y-114678556D01*
X129520515Y-114680220D01*
X129520511Y-114680222D01*
X129317273Y-114749993D01*
X129317262Y-114749997D01*
X129312426Y-114751658D01*
X129307929Y-114754091D01*
X129307919Y-114754096D01*
X129118934Y-114856369D01*
X129118922Y-114856376D01*
X129114424Y-114858811D01*
X129110389Y-114861951D01*
X129110376Y-114861960D01*
X128940801Y-114993948D01*
X128940795Y-114993952D01*
X128936760Y-114997094D01*
X128933297Y-115000855D01*
X128933288Y-115000864D01*
X128787753Y-115158956D01*
X128787747Y-115158963D01*
X128784278Y-115162732D01*
X128781480Y-115167014D01*
X128781468Y-115167030D01*
X128693807Y-115301205D01*
X128649016Y-115342438D01*
X128589998Y-115357383D01*
X128530981Y-115342437D01*
X128486190Y-115301204D01*
X128398528Y-115167027D01*
X128395722Y-115162732D01*
X128346279Y-115109023D01*
X128246711Y-115000864D01*
X128246708Y-115000861D01*
X128243240Y-114997094D01*
X128230597Y-114987253D01*
X128069623Y-114861960D01*
X128069615Y-114861955D01*
X128065576Y-114858811D01*
X128061071Y-114856373D01*
X128061065Y-114856369D01*
X127872080Y-114754096D01*
X127872074Y-114754093D01*
X127867574Y-114751658D01*
X127862733Y-114749996D01*
X127862726Y-114749993D01*
X127659488Y-114680222D01*
X127659487Y-114680221D01*
X127654635Y-114678556D01*
X127649585Y-114677713D01*
X127649576Y-114677711D01*
X127437631Y-114642344D01*
X127437622Y-114642343D01*
X127432569Y-114641500D01*
X127207431Y-114641500D01*
X127202378Y-114642343D01*
X127202368Y-114642344D01*
X126990423Y-114677711D01*
X126990411Y-114677713D01*
X126985365Y-114678556D01*
X126980515Y-114680220D01*
X126980511Y-114680222D01*
X126777273Y-114749993D01*
X126777262Y-114749997D01*
X126772426Y-114751658D01*
X126767929Y-114754091D01*
X126767919Y-114754096D01*
X126578934Y-114856369D01*
X126578922Y-114856376D01*
X126574424Y-114858811D01*
X126570389Y-114861951D01*
X126570376Y-114861960D01*
X126400801Y-114993948D01*
X126400795Y-114993952D01*
X126396760Y-114997094D01*
X126393297Y-115000855D01*
X126393288Y-115000864D01*
X126247753Y-115158956D01*
X126247747Y-115158963D01*
X126244278Y-115162732D01*
X126241480Y-115167014D01*
X126241468Y-115167030D01*
X126153807Y-115301205D01*
X126109016Y-115342438D01*
X126049998Y-115357383D01*
X125990981Y-115342437D01*
X125946190Y-115301204D01*
X125858528Y-115167027D01*
X125855722Y-115162732D01*
X125806279Y-115109023D01*
X125706711Y-115000864D01*
X125706708Y-115000861D01*
X125703240Y-114997094D01*
X125690597Y-114987253D01*
X125529623Y-114861960D01*
X125529615Y-114861955D01*
X125525576Y-114858811D01*
X125521071Y-114856373D01*
X125521065Y-114856369D01*
X125332080Y-114754096D01*
X125332074Y-114754093D01*
X125327574Y-114751658D01*
X125322733Y-114749996D01*
X125322726Y-114749993D01*
X125119488Y-114680222D01*
X125119487Y-114680221D01*
X125114635Y-114678556D01*
X125109585Y-114677713D01*
X125109576Y-114677711D01*
X124897631Y-114642344D01*
X124897622Y-114642343D01*
X124892569Y-114641500D01*
X124667431Y-114641500D01*
X124662378Y-114642343D01*
X124662368Y-114642344D01*
X124450423Y-114677711D01*
X124450411Y-114677713D01*
X124445365Y-114678556D01*
X124440515Y-114680220D01*
X124440511Y-114680222D01*
X124237273Y-114749993D01*
X124237262Y-114749997D01*
X124232426Y-114751658D01*
X124227929Y-114754091D01*
X124227919Y-114754096D01*
X124038934Y-114856369D01*
X124038922Y-114856376D01*
X124034424Y-114858811D01*
X124030389Y-114861951D01*
X124030376Y-114861960D01*
X123860801Y-114993948D01*
X123860795Y-114993952D01*
X123856760Y-114997094D01*
X123853297Y-115000855D01*
X123853288Y-115000864D01*
X123707753Y-115158956D01*
X123707747Y-115158963D01*
X123704278Y-115162732D01*
X123701480Y-115167014D01*
X123701468Y-115167030D01*
X123613807Y-115301205D01*
X123569016Y-115342438D01*
X123509998Y-115357383D01*
X123450981Y-115342437D01*
X123406190Y-115301204D01*
X123318528Y-115167027D01*
X123315722Y-115162732D01*
X123266279Y-115109023D01*
X123166711Y-115000864D01*
X123166708Y-115000861D01*
X123163240Y-114997094D01*
X123150597Y-114987253D01*
X122989623Y-114861960D01*
X122989615Y-114861955D01*
X122985576Y-114858811D01*
X122981071Y-114856373D01*
X122981065Y-114856369D01*
X122792080Y-114754096D01*
X122792074Y-114754093D01*
X122787574Y-114751658D01*
X122782733Y-114749996D01*
X122782726Y-114749993D01*
X122579488Y-114680222D01*
X122579487Y-114680221D01*
X122574635Y-114678556D01*
X122569585Y-114677713D01*
X122569576Y-114677711D01*
X122357631Y-114642344D01*
X122357622Y-114642343D01*
X122352569Y-114641500D01*
X122127431Y-114641500D01*
X122122378Y-114642343D01*
X122122368Y-114642344D01*
X121910423Y-114677711D01*
X121910411Y-114677713D01*
X121905365Y-114678556D01*
X121900515Y-114680220D01*
X121900511Y-114680222D01*
X121697273Y-114749993D01*
X121697262Y-114749997D01*
X121692426Y-114751658D01*
X121687929Y-114754091D01*
X121687919Y-114754096D01*
X121498934Y-114856369D01*
X121498922Y-114856376D01*
X121494424Y-114858811D01*
X121490389Y-114861951D01*
X121490376Y-114861960D01*
X121320801Y-114993948D01*
X121320795Y-114993952D01*
X121316760Y-114997094D01*
X121313297Y-115000855D01*
X121313288Y-115000864D01*
X121167753Y-115158956D01*
X121167747Y-115158963D01*
X121164278Y-115162732D01*
X121161480Y-115167014D01*
X121161468Y-115167030D01*
X121073807Y-115301205D01*
X121029016Y-115342438D01*
X120969998Y-115357383D01*
X120910981Y-115342437D01*
X120866190Y-115301204D01*
X120778528Y-115167027D01*
X120775722Y-115162732D01*
X120726279Y-115109023D01*
X120626711Y-115000864D01*
X120626708Y-115000861D01*
X120623240Y-114997094D01*
X120610597Y-114987253D01*
X120449623Y-114861960D01*
X120449615Y-114861955D01*
X120445576Y-114858811D01*
X120441071Y-114856373D01*
X120441065Y-114856369D01*
X120252080Y-114754096D01*
X120252074Y-114754093D01*
X120247574Y-114751658D01*
X120242733Y-114749996D01*
X120242726Y-114749993D01*
X120039488Y-114680222D01*
X120039487Y-114680221D01*
X120034635Y-114678556D01*
X120029585Y-114677713D01*
X120029576Y-114677711D01*
X119817631Y-114642344D01*
X119817622Y-114642343D01*
X119812569Y-114641500D01*
X119587431Y-114641500D01*
X119582378Y-114642343D01*
X119582368Y-114642344D01*
X119370423Y-114677711D01*
X119370411Y-114677713D01*
X119365365Y-114678556D01*
X119360515Y-114680220D01*
X119360511Y-114680222D01*
X119157273Y-114749993D01*
X119157262Y-114749997D01*
X119152426Y-114751658D01*
X119147929Y-114754091D01*
X119147919Y-114754096D01*
X118958934Y-114856369D01*
X118958922Y-114856376D01*
X118954424Y-114858811D01*
X118950389Y-114861951D01*
X118950376Y-114861960D01*
X118780801Y-114993948D01*
X118780795Y-114993952D01*
X118776760Y-114997094D01*
X118773297Y-115000855D01*
X118773288Y-115000864D01*
X118627753Y-115158956D01*
X118627747Y-115158963D01*
X118624278Y-115162732D01*
X118621480Y-115167014D01*
X118621468Y-115167030D01*
X118533807Y-115301205D01*
X118489016Y-115342438D01*
X118429998Y-115357383D01*
X118370981Y-115342437D01*
X118326190Y-115301204D01*
X118238528Y-115167027D01*
X118235722Y-115162732D01*
X118186279Y-115109023D01*
X118086711Y-115000864D01*
X118086708Y-115000861D01*
X118083240Y-114997094D01*
X118070597Y-114987253D01*
X117909623Y-114861960D01*
X117909615Y-114861955D01*
X117905576Y-114858811D01*
X117901071Y-114856373D01*
X117901065Y-114856369D01*
X117712080Y-114754096D01*
X117712074Y-114754093D01*
X117707574Y-114751658D01*
X117702733Y-114749996D01*
X117702726Y-114749993D01*
X117499488Y-114680222D01*
X117499487Y-114680221D01*
X117494635Y-114678556D01*
X117489585Y-114677713D01*
X117489576Y-114677711D01*
X117277631Y-114642344D01*
X117277622Y-114642343D01*
X117272569Y-114641500D01*
X117047431Y-114641500D01*
X117042378Y-114642343D01*
X117042368Y-114642344D01*
X116830423Y-114677711D01*
X116830411Y-114677713D01*
X116825365Y-114678556D01*
X116820515Y-114680220D01*
X116820511Y-114680222D01*
X116617273Y-114749993D01*
X116617262Y-114749997D01*
X116612426Y-114751658D01*
X116607929Y-114754091D01*
X116607919Y-114754096D01*
X116418934Y-114856369D01*
X116418922Y-114856376D01*
X116414424Y-114858811D01*
X116410389Y-114861951D01*
X116410376Y-114861960D01*
X116240801Y-114993948D01*
X116240795Y-114993952D01*
X116236760Y-114997094D01*
X116233297Y-115000855D01*
X116233288Y-115000864D01*
X116087753Y-115158956D01*
X116087747Y-115158963D01*
X116084278Y-115162732D01*
X116081480Y-115167014D01*
X116081468Y-115167030D01*
X115993807Y-115301205D01*
X115949016Y-115342438D01*
X115889998Y-115357383D01*
X115830981Y-115342437D01*
X115786190Y-115301204D01*
X115698528Y-115167027D01*
X115695722Y-115162732D01*
X115646279Y-115109023D01*
X115546711Y-115000864D01*
X115546708Y-115000861D01*
X115543240Y-114997094D01*
X115530597Y-114987253D01*
X115369623Y-114861960D01*
X115369615Y-114861955D01*
X115365576Y-114858811D01*
X115361071Y-114856373D01*
X115361065Y-114856369D01*
X115172080Y-114754096D01*
X115172074Y-114754093D01*
X115167574Y-114751658D01*
X115162733Y-114749996D01*
X115162726Y-114749993D01*
X114959488Y-114680222D01*
X114959487Y-114680221D01*
X114954635Y-114678556D01*
X114949585Y-114677713D01*
X114949576Y-114677711D01*
X114737631Y-114642344D01*
X114737622Y-114642343D01*
X114732569Y-114641500D01*
X114507431Y-114641500D01*
X114502378Y-114642343D01*
X114502368Y-114642344D01*
X114290423Y-114677711D01*
X114290411Y-114677713D01*
X114285365Y-114678556D01*
X114280515Y-114680220D01*
X114280511Y-114680222D01*
X114077273Y-114749993D01*
X114077262Y-114749997D01*
X114072426Y-114751658D01*
X114067929Y-114754091D01*
X114067919Y-114754096D01*
X113878934Y-114856369D01*
X113878922Y-114856376D01*
X113874424Y-114858811D01*
X113870389Y-114861951D01*
X113870376Y-114861960D01*
X113700801Y-114993948D01*
X113700795Y-114993952D01*
X113696760Y-114997094D01*
X113693297Y-115000855D01*
X113693288Y-115000864D01*
X113547753Y-115158956D01*
X113547747Y-115158963D01*
X113544278Y-115162732D01*
X113541480Y-115167014D01*
X113541468Y-115167030D01*
X113453807Y-115301205D01*
X113409016Y-115342438D01*
X113349998Y-115357383D01*
X113290981Y-115342437D01*
X113246190Y-115301204D01*
X113158528Y-115167027D01*
X113155722Y-115162732D01*
X113106279Y-115109023D01*
X113006711Y-115000864D01*
X113006708Y-115000861D01*
X113003240Y-114997094D01*
X112990597Y-114987253D01*
X112829623Y-114861960D01*
X112829615Y-114861955D01*
X112825576Y-114858811D01*
X112821071Y-114856373D01*
X112821065Y-114856369D01*
X112632080Y-114754096D01*
X112632074Y-114754093D01*
X112627574Y-114751658D01*
X112622733Y-114749996D01*
X112622726Y-114749993D01*
X112419488Y-114680222D01*
X112419487Y-114680221D01*
X112414635Y-114678556D01*
X112409585Y-114677713D01*
X112409576Y-114677711D01*
X112197631Y-114642344D01*
X112197622Y-114642343D01*
X112192569Y-114641500D01*
X111967431Y-114641500D01*
X111962378Y-114642343D01*
X111962368Y-114642344D01*
X111750423Y-114677711D01*
X111750411Y-114677713D01*
X111745365Y-114678556D01*
X111740515Y-114680220D01*
X111740511Y-114680222D01*
X111537273Y-114749993D01*
X111537262Y-114749997D01*
X111532426Y-114751658D01*
X111527929Y-114754091D01*
X111527919Y-114754096D01*
X111338934Y-114856369D01*
X111338922Y-114856376D01*
X111334424Y-114858811D01*
X111330389Y-114861951D01*
X111330376Y-114861960D01*
X111160801Y-114993948D01*
X111160795Y-114993952D01*
X111156760Y-114997094D01*
X111153297Y-115000855D01*
X111153288Y-115000864D01*
X111007753Y-115158956D01*
X111007747Y-115158963D01*
X111004278Y-115162732D01*
X111001480Y-115167014D01*
X111001468Y-115167030D01*
X110913807Y-115301205D01*
X110869016Y-115342438D01*
X110809998Y-115357383D01*
X110750981Y-115342437D01*
X110706190Y-115301204D01*
X110618528Y-115167027D01*
X110615722Y-115162732D01*
X110566279Y-115109023D01*
X110466711Y-115000864D01*
X110466708Y-115000861D01*
X110463240Y-114997094D01*
X110450597Y-114987253D01*
X110289623Y-114861960D01*
X110289615Y-114861955D01*
X110285576Y-114858811D01*
X110281071Y-114856373D01*
X110281065Y-114856369D01*
X110092080Y-114754096D01*
X110092074Y-114754093D01*
X110087574Y-114751658D01*
X110082733Y-114749996D01*
X110082726Y-114749993D01*
X109879488Y-114680222D01*
X109879487Y-114680221D01*
X109874635Y-114678556D01*
X109869585Y-114677713D01*
X109869576Y-114677711D01*
X109657631Y-114642344D01*
X109657622Y-114642343D01*
X109652569Y-114641500D01*
X109427431Y-114641500D01*
X109422378Y-114642343D01*
X109422368Y-114642344D01*
X109210423Y-114677711D01*
X109210411Y-114677713D01*
X109205365Y-114678556D01*
X109200515Y-114680220D01*
X109200511Y-114680222D01*
X108997273Y-114749993D01*
X108997262Y-114749997D01*
X108992426Y-114751658D01*
X108987929Y-114754091D01*
X108987919Y-114754096D01*
X108798934Y-114856369D01*
X108798922Y-114856376D01*
X108794424Y-114858811D01*
X108790389Y-114861951D01*
X108790376Y-114861960D01*
X108620801Y-114993948D01*
X108620795Y-114993952D01*
X108616760Y-114997094D01*
X108613297Y-115000855D01*
X108613288Y-115000864D01*
X108467753Y-115158956D01*
X108467747Y-115158963D01*
X108464278Y-115162732D01*
X108461480Y-115167014D01*
X108461468Y-115167030D01*
X108373807Y-115301205D01*
X108329016Y-115342438D01*
X108269998Y-115357383D01*
X108210981Y-115342437D01*
X108166190Y-115301204D01*
X108078528Y-115167027D01*
X108075722Y-115162732D01*
X108026279Y-115109023D01*
X107926711Y-115000864D01*
X107926708Y-115000861D01*
X107923240Y-114997094D01*
X107910597Y-114987253D01*
X107749623Y-114861960D01*
X107749615Y-114861955D01*
X107745576Y-114858811D01*
X107741071Y-114856373D01*
X107741065Y-114856369D01*
X107552080Y-114754096D01*
X107552074Y-114754093D01*
X107547574Y-114751658D01*
X107542733Y-114749996D01*
X107542726Y-114749993D01*
X107339488Y-114680222D01*
X107339487Y-114680221D01*
X107334635Y-114678556D01*
X107329585Y-114677713D01*
X107329576Y-114677711D01*
X107117631Y-114642344D01*
X107117622Y-114642343D01*
X107112569Y-114641500D01*
X106887431Y-114641500D01*
X106882378Y-114642343D01*
X106882368Y-114642344D01*
X106670423Y-114677711D01*
X106670411Y-114677713D01*
X106665365Y-114678556D01*
X106660515Y-114680220D01*
X106660511Y-114680222D01*
X106457273Y-114749993D01*
X106457262Y-114749997D01*
X106452426Y-114751658D01*
X106447929Y-114754091D01*
X106447919Y-114754096D01*
X106258934Y-114856369D01*
X106258922Y-114856376D01*
X106254424Y-114858811D01*
X106250389Y-114861951D01*
X106250376Y-114861960D01*
X106080801Y-114993948D01*
X106080795Y-114993952D01*
X106076760Y-114997094D01*
X106073297Y-115000855D01*
X106073288Y-115000864D01*
X105927753Y-115158956D01*
X105927747Y-115158963D01*
X105924278Y-115162732D01*
X105921481Y-115167012D01*
X105921474Y-115167022D01*
X105806871Y-115342437D01*
X105801140Y-115351209D01*
X105799085Y-115355892D01*
X105799080Y-115355903D01*
X105730000Y-115513393D01*
X105710704Y-115557384D01*
X105709446Y-115562349D01*
X105709445Y-115562354D01*
X105656695Y-115770657D01*
X105656693Y-115770666D01*
X105655436Y-115775632D01*
X105655012Y-115780741D01*
X105655011Y-115780751D01*
X105637268Y-115994883D01*
X105636844Y-116000000D01*
X102075500Y-116000000D01*
X102075500Y-100760000D01*
X105636844Y-100760000D01*
X105637268Y-100765117D01*
X105655011Y-100979248D01*
X105655012Y-100979256D01*
X105655436Y-100984368D01*
X105656693Y-100989335D01*
X105656695Y-100989342D01*
X105709445Y-101197645D01*
X105710704Y-101202616D01*
X105712764Y-101207312D01*
X105799080Y-101404096D01*
X105799083Y-101404101D01*
X105801140Y-101408791D01*
X105833809Y-101458795D01*
X105921474Y-101592977D01*
X105921477Y-101592981D01*
X105924278Y-101597268D01*
X105927752Y-101601041D01*
X105927753Y-101601043D01*
X106073288Y-101759135D01*
X106073291Y-101759138D01*
X106076760Y-101762906D01*
X106080801Y-101766051D01*
X106250376Y-101898039D01*
X106250381Y-101898042D01*
X106254424Y-101901189D01*
X106258931Y-101903628D01*
X106258934Y-101903630D01*
X106447919Y-102005903D01*
X106452426Y-102008342D01*
X106665365Y-102081444D01*
X106887431Y-102118500D01*
X107107436Y-102118500D01*
X107112569Y-102118500D01*
X107334635Y-102081444D01*
X107547574Y-102008342D01*
X107745576Y-101901189D01*
X107923240Y-101762906D01*
X108075722Y-101597268D01*
X108166190Y-101458795D01*
X108210982Y-101417561D01*
X108270000Y-101402616D01*
X108329018Y-101417561D01*
X108373809Y-101458795D01*
X108461470Y-101592972D01*
X108461478Y-101592982D01*
X108464278Y-101597268D01*
X108467752Y-101601041D01*
X108467753Y-101601043D01*
X108613288Y-101759135D01*
X108613291Y-101759138D01*
X108616760Y-101762906D01*
X108620801Y-101766051D01*
X108790376Y-101898039D01*
X108790381Y-101898042D01*
X108794424Y-101901189D01*
X108798931Y-101903628D01*
X108798934Y-101903630D01*
X108987919Y-102005903D01*
X108992426Y-102008342D01*
X109205365Y-102081444D01*
X109427431Y-102118500D01*
X109647436Y-102118500D01*
X109652569Y-102118500D01*
X109874635Y-102081444D01*
X110087574Y-102008342D01*
X110285576Y-101901189D01*
X110463240Y-101762906D01*
X110615722Y-101597268D01*
X110706190Y-101458795D01*
X110750982Y-101417561D01*
X110810000Y-101402616D01*
X110869018Y-101417561D01*
X110913809Y-101458795D01*
X111001470Y-101592972D01*
X111001478Y-101592982D01*
X111004278Y-101597268D01*
X111007752Y-101601041D01*
X111007753Y-101601043D01*
X111153288Y-101759135D01*
X111153291Y-101759138D01*
X111156760Y-101762906D01*
X111160801Y-101766051D01*
X111330376Y-101898039D01*
X111330381Y-101898042D01*
X111334424Y-101901189D01*
X111338931Y-101903628D01*
X111338934Y-101903630D01*
X111527919Y-102005903D01*
X111532426Y-102008342D01*
X111745365Y-102081444D01*
X111967431Y-102118500D01*
X112187436Y-102118500D01*
X112192569Y-102118500D01*
X112414635Y-102081444D01*
X112627574Y-102008342D01*
X112825576Y-101901189D01*
X113003240Y-101762906D01*
X113155722Y-101597268D01*
X113246190Y-101458795D01*
X113290982Y-101417561D01*
X113350000Y-101402616D01*
X113409018Y-101417561D01*
X113453809Y-101458795D01*
X113541470Y-101592972D01*
X113541478Y-101592982D01*
X113544278Y-101597268D01*
X113547752Y-101601041D01*
X113547753Y-101601043D01*
X113693288Y-101759135D01*
X113693291Y-101759138D01*
X113696760Y-101762906D01*
X113700801Y-101766051D01*
X113870376Y-101898039D01*
X113870381Y-101898042D01*
X113874424Y-101901189D01*
X113878931Y-101903628D01*
X113878934Y-101903630D01*
X114067919Y-102005903D01*
X114072426Y-102008342D01*
X114285365Y-102081444D01*
X114507431Y-102118500D01*
X114727436Y-102118500D01*
X114732569Y-102118500D01*
X114954635Y-102081444D01*
X115167574Y-102008342D01*
X115365576Y-101901189D01*
X115543240Y-101762906D01*
X115695722Y-101597268D01*
X115786190Y-101458795D01*
X115830982Y-101417561D01*
X115890000Y-101402616D01*
X115949018Y-101417561D01*
X115993809Y-101458795D01*
X116081470Y-101592972D01*
X116081478Y-101592982D01*
X116084278Y-101597268D01*
X116087752Y-101601041D01*
X116087753Y-101601043D01*
X116233288Y-101759135D01*
X116233291Y-101759138D01*
X116236760Y-101762906D01*
X116240801Y-101766051D01*
X116410376Y-101898039D01*
X116410381Y-101898042D01*
X116414424Y-101901189D01*
X116418931Y-101903628D01*
X116418934Y-101903630D01*
X116607919Y-102005903D01*
X116612426Y-102008342D01*
X116825365Y-102081444D01*
X117047431Y-102118500D01*
X117267436Y-102118500D01*
X117272569Y-102118500D01*
X117494635Y-102081444D01*
X117707574Y-102008342D01*
X117905576Y-101901189D01*
X118083240Y-101762906D01*
X118235722Y-101597268D01*
X118326190Y-101458795D01*
X118370982Y-101417561D01*
X118430000Y-101402616D01*
X118489018Y-101417561D01*
X118533809Y-101458795D01*
X118621470Y-101592972D01*
X118621478Y-101592982D01*
X118624278Y-101597268D01*
X118627752Y-101601041D01*
X118627753Y-101601043D01*
X118773288Y-101759135D01*
X118773291Y-101759138D01*
X118776760Y-101762906D01*
X118780801Y-101766051D01*
X118950376Y-101898039D01*
X118950381Y-101898042D01*
X118954424Y-101901189D01*
X118958931Y-101903628D01*
X118958934Y-101903630D01*
X119147919Y-102005903D01*
X119152426Y-102008342D01*
X119365365Y-102081444D01*
X119587431Y-102118500D01*
X119807436Y-102118500D01*
X119812569Y-102118500D01*
X120034635Y-102081444D01*
X120247574Y-102008342D01*
X120445576Y-101901189D01*
X120623240Y-101762906D01*
X120775722Y-101597268D01*
X120866190Y-101458795D01*
X120910982Y-101417561D01*
X120970000Y-101402616D01*
X121029018Y-101417561D01*
X121073809Y-101458795D01*
X121161470Y-101592972D01*
X121161478Y-101592982D01*
X121164278Y-101597268D01*
X121167752Y-101601041D01*
X121167753Y-101601043D01*
X121313288Y-101759135D01*
X121313291Y-101759138D01*
X121316760Y-101762906D01*
X121320801Y-101766051D01*
X121490376Y-101898039D01*
X121490381Y-101898042D01*
X121494424Y-101901189D01*
X121498931Y-101903628D01*
X121498934Y-101903630D01*
X121687919Y-102005903D01*
X121692426Y-102008342D01*
X121905365Y-102081444D01*
X122127431Y-102118500D01*
X122347436Y-102118500D01*
X122352569Y-102118500D01*
X122574635Y-102081444D01*
X122787574Y-102008342D01*
X122985576Y-101901189D01*
X123163240Y-101762906D01*
X123315722Y-101597268D01*
X123406190Y-101458795D01*
X123450982Y-101417561D01*
X123510000Y-101402616D01*
X123569018Y-101417561D01*
X123613809Y-101458795D01*
X123701470Y-101592972D01*
X123701478Y-101592982D01*
X123704278Y-101597268D01*
X123707752Y-101601041D01*
X123707753Y-101601043D01*
X123853288Y-101759135D01*
X123853291Y-101759138D01*
X123856760Y-101762906D01*
X123860801Y-101766051D01*
X124030376Y-101898039D01*
X124030381Y-101898042D01*
X124034424Y-101901189D01*
X124038931Y-101903628D01*
X124038934Y-101903630D01*
X124227919Y-102005903D01*
X124232426Y-102008342D01*
X124445365Y-102081444D01*
X124667431Y-102118500D01*
X124887436Y-102118500D01*
X124892569Y-102118500D01*
X125114635Y-102081444D01*
X125327574Y-102008342D01*
X125525576Y-101901189D01*
X125703240Y-101762906D01*
X125855722Y-101597268D01*
X125946190Y-101458795D01*
X125990982Y-101417561D01*
X126050000Y-101402616D01*
X126109018Y-101417561D01*
X126153809Y-101458795D01*
X126241470Y-101592972D01*
X126241478Y-101592982D01*
X126244278Y-101597268D01*
X126247752Y-101601041D01*
X126247753Y-101601043D01*
X126393288Y-101759135D01*
X126393291Y-101759138D01*
X126396760Y-101762906D01*
X126400801Y-101766051D01*
X126570376Y-101898039D01*
X126570381Y-101898042D01*
X126574424Y-101901189D01*
X126578931Y-101903628D01*
X126578934Y-101903630D01*
X126767919Y-102005903D01*
X126772426Y-102008342D01*
X126985365Y-102081444D01*
X127207431Y-102118500D01*
X127427436Y-102118500D01*
X127432569Y-102118500D01*
X127654635Y-102081444D01*
X127867574Y-102008342D01*
X128065576Y-101901189D01*
X128243240Y-101762906D01*
X128395722Y-101597268D01*
X128486190Y-101458795D01*
X128530982Y-101417561D01*
X128590000Y-101402616D01*
X128649018Y-101417561D01*
X128693809Y-101458795D01*
X128781470Y-101592972D01*
X128781478Y-101592982D01*
X128784278Y-101597268D01*
X128787752Y-101601041D01*
X128787753Y-101601043D01*
X128933288Y-101759135D01*
X128933291Y-101759138D01*
X128936760Y-101762906D01*
X128940801Y-101766051D01*
X129110376Y-101898039D01*
X129110381Y-101898042D01*
X129114424Y-101901189D01*
X129118931Y-101903628D01*
X129118934Y-101903630D01*
X129307919Y-102005903D01*
X129312426Y-102008342D01*
X129525365Y-102081444D01*
X129747431Y-102118500D01*
X129967436Y-102118500D01*
X129972569Y-102118500D01*
X130194635Y-102081444D01*
X130407574Y-102008342D01*
X130605576Y-101901189D01*
X130783240Y-101762906D01*
X130935722Y-101597268D01*
X131026190Y-101458795D01*
X131070982Y-101417561D01*
X131130000Y-101402616D01*
X131189018Y-101417561D01*
X131233809Y-101458795D01*
X131321470Y-101592972D01*
X131321478Y-101592982D01*
X131324278Y-101597268D01*
X131327752Y-101601041D01*
X131327753Y-101601043D01*
X131473288Y-101759135D01*
X131473291Y-101759138D01*
X131476760Y-101762906D01*
X131480801Y-101766051D01*
X131650376Y-101898039D01*
X131650381Y-101898042D01*
X131654424Y-101901189D01*
X131658931Y-101903628D01*
X131658934Y-101903630D01*
X131847919Y-102005903D01*
X131852426Y-102008342D01*
X132065365Y-102081444D01*
X132287431Y-102118500D01*
X132507436Y-102118500D01*
X132512569Y-102118500D01*
X132734635Y-102081444D01*
X132947574Y-102008342D01*
X133145576Y-101901189D01*
X133323240Y-101762906D01*
X133475722Y-101597268D01*
X133569748Y-101453349D01*
X133613663Y-101412595D01*
X133671562Y-101397188D01*
X133729927Y-101410726D01*
X133775131Y-101450048D01*
X133898784Y-101626643D01*
X133905721Y-101634909D01*
X134065090Y-101794278D01*
X134073356Y-101801215D01*
X134257991Y-101930498D01*
X134267323Y-101935886D01*
X134471602Y-102031143D01*
X134481736Y-102034831D01*
X134676219Y-102086943D01*
X134687448Y-102087311D01*
X134690000Y-102076369D01*
X134690000Y-99443631D01*
X134687448Y-99432688D01*
X134676219Y-99433056D01*
X134481736Y-99485168D01*
X134471602Y-99488856D01*
X134267332Y-99584110D01*
X134257982Y-99589508D01*
X134073357Y-99718784D01*
X134065092Y-99725719D01*
X133905719Y-99885092D01*
X133898788Y-99893352D01*
X133775132Y-100069952D01*
X133729928Y-100109274D01*
X133671564Y-100122812D01*
X133613665Y-100107405D01*
X133569748Y-100066649D01*
X133478529Y-99927027D01*
X133478523Y-99927019D01*
X133475722Y-99922732D01*
X133441268Y-99885305D01*
X133416983Y-99846402D01*
X133408500Y-99801326D01*
X133408500Y-99613561D01*
X133409097Y-99601407D01*
X133412783Y-99563981D01*
X133412783Y-99563976D01*
X133413380Y-99557919D01*
X133393909Y-99360218D01*
X133336241Y-99170116D01*
X133336241Y-99170115D01*
X133242595Y-98994915D01*
X133116568Y-98841351D01*
X133082784Y-98813625D01*
X133073768Y-98805453D01*
X131488496Y-97220181D01*
X131458246Y-97170818D01*
X131453704Y-97113102D01*
X131475859Y-97059615D01*
X131519882Y-97022015D01*
X131576177Y-97008500D01*
X135992985Y-97008500D01*
X136040438Y-97017939D01*
X136080666Y-97044819D01*
X138878725Y-99842878D01*
X138908325Y-99890296D01*
X138914092Y-99945896D01*
X138894853Y-99998379D01*
X138853809Y-100061203D01*
X138809018Y-100102437D01*
X138750001Y-100117383D01*
X138690983Y-100102438D01*
X138646191Y-100061205D01*
X138558525Y-99927022D01*
X138558523Y-99927020D01*
X138555722Y-99922732D01*
X138552246Y-99918956D01*
X138406711Y-99760864D01*
X138406708Y-99760861D01*
X138403240Y-99757094D01*
X138390597Y-99747253D01*
X138229623Y-99621960D01*
X138229615Y-99621955D01*
X138225576Y-99618811D01*
X138221071Y-99616373D01*
X138221065Y-99616369D01*
X138032080Y-99514096D01*
X138032074Y-99514093D01*
X138027574Y-99511658D01*
X138022733Y-99509996D01*
X138022726Y-99509993D01*
X137819488Y-99440222D01*
X137819487Y-99440221D01*
X137814635Y-99438556D01*
X137809585Y-99437713D01*
X137809576Y-99437711D01*
X137597631Y-99402344D01*
X137597622Y-99402343D01*
X137592569Y-99401500D01*
X137367431Y-99401500D01*
X137362378Y-99402343D01*
X137362368Y-99402344D01*
X137150423Y-99437711D01*
X137150411Y-99437713D01*
X137145365Y-99438556D01*
X137140515Y-99440220D01*
X137140511Y-99440222D01*
X136937273Y-99509993D01*
X136937262Y-99509997D01*
X136932426Y-99511658D01*
X136927929Y-99514091D01*
X136927919Y-99514096D01*
X136738934Y-99616369D01*
X136738922Y-99616376D01*
X136734424Y-99618811D01*
X136730389Y-99621951D01*
X136730376Y-99621960D01*
X136560801Y-99753948D01*
X136560795Y-99753952D01*
X136556760Y-99757094D01*
X136553297Y-99760855D01*
X136553288Y-99760864D01*
X136407753Y-99918956D01*
X136407747Y-99918963D01*
X136404278Y-99922732D01*
X136401480Y-99927014D01*
X136401468Y-99927030D01*
X136310250Y-100066650D01*
X136266334Y-100107405D01*
X136208435Y-100122812D01*
X136150071Y-100109274D01*
X136104867Y-100069951D01*
X135981215Y-99893357D01*
X135974280Y-99885092D01*
X135814909Y-99725721D01*
X135806643Y-99718784D01*
X135622008Y-99589501D01*
X135612676Y-99584113D01*
X135408397Y-99488856D01*
X135398263Y-99485168D01*
X135203780Y-99433056D01*
X135192551Y-99432688D01*
X135190000Y-99443631D01*
X135190000Y-102076369D01*
X135192551Y-102087311D01*
X135203780Y-102086943D01*
X135398263Y-102034831D01*
X135408397Y-102031143D01*
X135612676Y-101935886D01*
X135622008Y-101930498D01*
X135806643Y-101801215D01*
X135814909Y-101794278D01*
X135974278Y-101634909D01*
X135981219Y-101626638D01*
X136104868Y-101450049D01*
X136150072Y-101410726D01*
X136208436Y-101397188D01*
X136266335Y-101412595D01*
X136310252Y-101453351D01*
X136401470Y-101592972D01*
X136401478Y-101592982D01*
X136404278Y-101597268D01*
X136407752Y-101601041D01*
X136407753Y-101601043D01*
X136553288Y-101759135D01*
X136553291Y-101759138D01*
X136556760Y-101762906D01*
X136560801Y-101766051D01*
X136730376Y-101898039D01*
X136730381Y-101898042D01*
X136734424Y-101901189D01*
X136738931Y-101903628D01*
X136738934Y-101903630D01*
X136927919Y-102005903D01*
X136932426Y-102008342D01*
X137145365Y-102081444D01*
X137367431Y-102118500D01*
X137587436Y-102118500D01*
X137592569Y-102118500D01*
X137814635Y-102081444D01*
X138027574Y-102008342D01*
X138225576Y-101901189D01*
X138403240Y-101762906D01*
X138555722Y-101597268D01*
X138646190Y-101458795D01*
X138690982Y-101417561D01*
X138750000Y-101402616D01*
X138809018Y-101417561D01*
X138853809Y-101458795D01*
X138941470Y-101592972D01*
X138941478Y-101592982D01*
X138944278Y-101597268D01*
X138947752Y-101601041D01*
X138947753Y-101601043D01*
X139093288Y-101759135D01*
X139093291Y-101759138D01*
X139096760Y-101762906D01*
X139100801Y-101766051D01*
X139270376Y-101898039D01*
X139270381Y-101898042D01*
X139274424Y-101901189D01*
X139278931Y-101903628D01*
X139278934Y-101903630D01*
X139467919Y-102005903D01*
X139472426Y-102008342D01*
X139685365Y-102081444D01*
X139907431Y-102118500D01*
X140127436Y-102118500D01*
X140132569Y-102118500D01*
X140354635Y-102081444D01*
X140567574Y-102008342D01*
X140765576Y-101901189D01*
X140943240Y-101762906D01*
X141006455Y-101694236D01*
X141059073Y-101660386D01*
X141121528Y-101656538D01*
X141177909Y-101683675D01*
X141213862Y-101734889D01*
X141236013Y-101794278D01*
X141259111Y-101856204D01*
X141346739Y-101973261D01*
X141463796Y-102060889D01*
X141600799Y-102111989D01*
X141661362Y-102118500D01*
X143455328Y-102118500D01*
X143458638Y-102118500D01*
X143519201Y-102111989D01*
X143656204Y-102060889D01*
X143773261Y-101973261D01*
X143860889Y-101856204D01*
X143911989Y-101719201D01*
X143918500Y-101658638D01*
X143918500Y-99861362D01*
X143911989Y-99800799D01*
X143860889Y-99663796D01*
X143773261Y-99546739D01*
X143726398Y-99511658D01*
X143663304Y-99464426D01*
X143663303Y-99464425D01*
X143656204Y-99459111D01*
X143647894Y-99456011D01*
X143640110Y-99451761D01*
X143640494Y-99451057D01*
X143606930Y-99430047D01*
X143578512Y-99389117D01*
X143568500Y-99340304D01*
X143568500Y-95665639D01*
X143586211Y-95601774D01*
X143634286Y-95556153D01*
X143698990Y-95541809D01*
X143761840Y-95562839D01*
X143804882Y-95613235D01*
X143848167Y-95706062D01*
X143862477Y-95736749D01*
X143865584Y-95741186D01*
X143990696Y-95919865D01*
X143990699Y-95919869D01*
X143993802Y-95924300D01*
X144155700Y-96086198D01*
X144160132Y-96089301D01*
X144160134Y-96089303D01*
X144225459Y-96135044D01*
X144343251Y-96217523D01*
X144550757Y-96314284D01*
X144555977Y-96315682D01*
X144555978Y-96315683D01*
X144766680Y-96372141D01*
X144766682Y-96372141D01*
X144771913Y-96373543D01*
X145000000Y-96393498D01*
X145228087Y-96373543D01*
X145449243Y-96314284D01*
X145656749Y-96217523D01*
X145844300Y-96086198D01*
X146006198Y-95924300D01*
X146137523Y-95736749D01*
X146234284Y-95529243D01*
X146293543Y-95308087D01*
X146313498Y-95080000D01*
X146293543Y-94851913D01*
X146234284Y-94630757D01*
X146137523Y-94423251D01*
X146006198Y-94235700D01*
X145844300Y-94073802D01*
X145839869Y-94070699D01*
X145839865Y-94070696D01*
X145661186Y-93945584D01*
X145661187Y-93945584D01*
X145656749Y-93942477D01*
X145651834Y-93940185D01*
X145454146Y-93848002D01*
X145454143Y-93848000D01*
X145449243Y-93845716D01*
X145444028Y-93844318D01*
X145444021Y-93844316D01*
X145233319Y-93787858D01*
X145233308Y-93787856D01*
X145228087Y-93786457D01*
X145222695Y-93785985D01*
X145222688Y-93785984D01*
X145005395Y-93766974D01*
X145000000Y-93766502D01*
X144994605Y-93766974D01*
X144777311Y-93785984D01*
X144777302Y-93785985D01*
X144771913Y-93786457D01*
X144766692Y-93787855D01*
X144766680Y-93787858D01*
X144555978Y-93844316D01*
X144555967Y-93844319D01*
X144550757Y-93845716D01*
X144545860Y-93847999D01*
X144545853Y-93848002D01*
X144348165Y-93940185D01*
X144348159Y-93940188D01*
X144343251Y-93942477D01*
X144338817Y-93945581D01*
X144338813Y-93945584D01*
X144160134Y-94070696D01*
X144160124Y-94070703D01*
X144155700Y-94073802D01*
X144151874Y-94077627D01*
X144151868Y-94077633D01*
X143997633Y-94231868D01*
X143997627Y-94231874D01*
X143993802Y-94235700D01*
X143990703Y-94240124D01*
X143990696Y-94240134D01*
X143865584Y-94418813D01*
X143865581Y-94418817D01*
X143862477Y-94423251D01*
X143860188Y-94428159D01*
X143860185Y-94428165D01*
X143804882Y-94546765D01*
X143761840Y-94597161D01*
X143698990Y-94618191D01*
X143634286Y-94603847D01*
X143586211Y-94558226D01*
X143568500Y-94494361D01*
X143568500Y-85505639D01*
X143586211Y-85441774D01*
X143634286Y-85396153D01*
X143698990Y-85381809D01*
X143761840Y-85402839D01*
X143804881Y-85453234D01*
X143862477Y-85576749D01*
X143865584Y-85581186D01*
X143990696Y-85759865D01*
X143990699Y-85759869D01*
X143993802Y-85764300D01*
X144155700Y-85926198D01*
X144343251Y-86057523D01*
X144550757Y-86154284D01*
X144555977Y-86155682D01*
X144555978Y-86155683D01*
X144766680Y-86212141D01*
X144766682Y-86212141D01*
X144771913Y-86213543D01*
X145000000Y-86233498D01*
X145228087Y-86213543D01*
X145449243Y-86154284D01*
X145656749Y-86057523D01*
X145844300Y-85926198D01*
X146006198Y-85764300D01*
X146137523Y-85576749D01*
X146234284Y-85369243D01*
X146293543Y-85148087D01*
X146313498Y-84920000D01*
X146293543Y-84691913D01*
X146234284Y-84470757D01*
X146137523Y-84263251D01*
X146053053Y-84142616D01*
X146009303Y-84080134D01*
X146009301Y-84080132D01*
X146006198Y-84075700D01*
X145844300Y-83913802D01*
X145839869Y-83910699D01*
X145839865Y-83910696D01*
X145661186Y-83785584D01*
X145661187Y-83785584D01*
X145656749Y-83782477D01*
X145490849Y-83705117D01*
X145454146Y-83688002D01*
X145454143Y-83688000D01*
X145449243Y-83685716D01*
X145444028Y-83684318D01*
X145444021Y-83684316D01*
X145233319Y-83627858D01*
X145233308Y-83627856D01*
X145228087Y-83626457D01*
X145222695Y-83625985D01*
X145222688Y-83625984D01*
X145005395Y-83606974D01*
X145000000Y-83606502D01*
X144994605Y-83606974D01*
X144777311Y-83625984D01*
X144777302Y-83625985D01*
X144771913Y-83626457D01*
X144766692Y-83627855D01*
X144766680Y-83627858D01*
X144555978Y-83684316D01*
X144555967Y-83684319D01*
X144550757Y-83685716D01*
X144545860Y-83687999D01*
X144545853Y-83688002D01*
X144348165Y-83780185D01*
X144348159Y-83780188D01*
X144343251Y-83782477D01*
X144338817Y-83785581D01*
X144338813Y-83785584D01*
X144160134Y-83910696D01*
X144160124Y-83910703D01*
X144155700Y-83913802D01*
X144151874Y-83917627D01*
X144151868Y-83917633D01*
X143997633Y-84071868D01*
X143997627Y-84071874D01*
X143993802Y-84075700D01*
X143990703Y-84080124D01*
X143990696Y-84080134D01*
X143865584Y-84258813D01*
X143865581Y-84258817D01*
X143862477Y-84263251D01*
X143860188Y-84268159D01*
X143860185Y-84268165D01*
X143804882Y-84386765D01*
X143761840Y-84437161D01*
X143698990Y-84458191D01*
X143634286Y-84443847D01*
X143586211Y-84398226D01*
X143568500Y-84334361D01*
X143568500Y-82340633D01*
X143584436Y-82279820D01*
X143628148Y-82234639D01*
X143688400Y-82216701D01*
X143749706Y-82230617D01*
X143796308Y-82272810D01*
X143884686Y-82408083D01*
X143888160Y-82411856D01*
X143888161Y-82411858D01*
X144023441Y-82558811D01*
X144042780Y-82579818D01*
X144226983Y-82723190D01*
X144231490Y-82725629D01*
X144231493Y-82725631D01*
X144427766Y-82831848D01*
X144432273Y-82834287D01*
X144653049Y-82910080D01*
X144883288Y-82948500D01*
X145111579Y-82948500D01*
X145116712Y-82948500D01*
X145346951Y-82910080D01*
X145567727Y-82834287D01*
X145773017Y-82723190D01*
X145957220Y-82579818D01*
X146115314Y-82408083D01*
X146242984Y-82212669D01*
X146336749Y-81998907D01*
X146394051Y-81772626D01*
X146413327Y-81540000D01*
X146394051Y-81307374D01*
X146336749Y-81081093D01*
X146242984Y-80867331D01*
X146228630Y-80845361D01*
X146118121Y-80676214D01*
X146115314Y-80671917D01*
X146021926Y-80570471D01*
X145993153Y-80517718D01*
X145992561Y-80457631D01*
X146020288Y-80404321D01*
X146069824Y-80370306D01*
X146133775Y-80346453D01*
X146149189Y-80338037D01*
X146250092Y-80262501D01*
X146262501Y-80250092D01*
X146338037Y-80149189D01*
X146346452Y-80133777D01*
X146390888Y-80014641D01*
X146394426Y-79999667D01*
X146399646Y-79951114D01*
X146400000Y-79944518D01*
X146400000Y-79266326D01*
X146396549Y-79253450D01*
X146383674Y-79250000D01*
X144874000Y-79250000D01*
X144812000Y-79233387D01*
X144766613Y-79188000D01*
X144750000Y-79126000D01*
X144750000Y-78733674D01*
X145250000Y-78733674D01*
X145253450Y-78746549D01*
X145266326Y-78750000D01*
X146383674Y-78750000D01*
X146396549Y-78746549D01*
X146400000Y-78733674D01*
X146400000Y-78055482D01*
X146399646Y-78048885D01*
X146394426Y-78000332D01*
X146390888Y-77985358D01*
X146346452Y-77866222D01*
X146338037Y-77850810D01*
X146262501Y-77749907D01*
X146250092Y-77737498D01*
X146149189Y-77661962D01*
X146133777Y-77653547D01*
X146014641Y-77609111D01*
X145999667Y-77605573D01*
X145951114Y-77600353D01*
X145944518Y-77600000D01*
X145266326Y-77600000D01*
X145253450Y-77603450D01*
X145250000Y-77616326D01*
X145250000Y-78733674D01*
X144750000Y-78733674D01*
X144750000Y-77616326D01*
X144746549Y-77603450D01*
X144733674Y-77600000D01*
X144055482Y-77600000D01*
X144048885Y-77600353D01*
X144000332Y-77605573D01*
X143985358Y-77609111D01*
X143866222Y-77653547D01*
X143850810Y-77661962D01*
X143749907Y-77737498D01*
X143737498Y-77749907D01*
X143661962Y-77850810D01*
X143653548Y-77866220D01*
X143616760Y-77964853D01*
X143577084Y-78019104D01*
X143514931Y-78044686D01*
X143448561Y-78034081D01*
X143403914Y-77995912D01*
X143402595Y-77996996D01*
X143276568Y-77843432D01*
X143242784Y-77815706D01*
X143233768Y-77807534D01*
X140832464Y-75406230D01*
X140824291Y-75397213D01*
X140800429Y-75368137D01*
X140796568Y-75363432D01*
X140643004Y-75237405D01*
X140467804Y-75143759D01*
X140461975Y-75141991D01*
X140461971Y-75141989D01*
X140283535Y-75087860D01*
X140283527Y-75087858D01*
X140277701Y-75086091D01*
X140271642Y-75085494D01*
X140271636Y-75085493D01*
X140086062Y-75067217D01*
X140080000Y-75066620D01*
X140073938Y-75067217D01*
X140036512Y-75070903D01*
X140024358Y-75071500D01*
X132818623Y-75071500D01*
X132778360Y-75064781D01*
X132742460Y-75045353D01*
X132609623Y-74941961D01*
X132605576Y-74938811D01*
X132601064Y-74936369D01*
X132601061Y-74936367D01*
X132569070Y-74919055D01*
X132521564Y-74873474D01*
X132504086Y-74810000D01*
X132521564Y-74746526D01*
X132569070Y-74700945D01*
X132569109Y-74700923D01*
X132605576Y-74681189D01*
X132783240Y-74542906D01*
X132935722Y-74377268D01*
X133058860Y-74188791D01*
X133149296Y-73982616D01*
X133204564Y-73764368D01*
X133223156Y-73540000D01*
X133204564Y-73315632D01*
X133149296Y-73097384D01*
X133058860Y-72891209D01*
X132935722Y-72702732D01*
X132790506Y-72544987D01*
X132761735Y-72492239D01*
X132761142Y-72432152D01*
X132788869Y-72378841D01*
X132838404Y-72344826D01*
X132956204Y-72300889D01*
X133073261Y-72213261D01*
X133160889Y-72096204D01*
X133194961Y-72004854D01*
X142395434Y-72004854D01*
X142414430Y-72246216D01*
X142415948Y-72255802D01*
X142472466Y-72491219D01*
X142475468Y-72500456D01*
X142568115Y-72724126D01*
X142572529Y-72732789D01*
X142699022Y-72939208D01*
X142704734Y-72947070D01*
X142754550Y-73005397D01*
X142782906Y-73067660D01*
X142773925Y-73135485D01*
X142732686Y-73185386D01*
X142727235Y-73187794D01*
X142719112Y-73195916D01*
X142719109Y-73195919D01*
X142655919Y-73259109D01*
X142655916Y-73259112D01*
X142647794Y-73267235D01*
X142643154Y-73277743D01*
X142643153Y-73277745D01*
X142606181Y-73361477D01*
X142606179Y-73361484D01*
X142602415Y-73370009D01*
X142601340Y-73379271D01*
X142601340Y-73379273D01*
X142599911Y-73391585D01*
X142599910Y-73391599D01*
X142599500Y-73395135D01*
X142599500Y-73398708D01*
X142599500Y-73398709D01*
X142599500Y-75681285D01*
X142599500Y-75681302D01*
X142599501Y-75684864D01*
X142599912Y-75688411D01*
X142599913Y-75688422D01*
X142601340Y-75700722D01*
X142602415Y-75709991D01*
X142647794Y-75812765D01*
X142727235Y-75892206D01*
X142785008Y-75917715D01*
X142821477Y-75933818D01*
X142821478Y-75933818D01*
X142830009Y-75937585D01*
X142855135Y-75940500D01*
X145144864Y-75940499D01*
X145169991Y-75937585D01*
X145272765Y-75892206D01*
X145352206Y-75812765D01*
X145397585Y-75709991D01*
X145400500Y-75684865D01*
X145400499Y-74493683D01*
X145685740Y-74493683D01*
X145695755Y-74678407D01*
X145697552Y-74684882D01*
X145697553Y-74684883D01*
X145743446Y-74850179D01*
X145743448Y-74850186D01*
X145745246Y-74856659D01*
X145748392Y-74862594D01*
X145748395Y-74862600D01*
X145828750Y-75014164D01*
X145828753Y-75014169D01*
X145831900Y-75020104D01*
X145836248Y-75025224D01*
X145836251Y-75025227D01*
X145898465Y-75098471D01*
X145951663Y-75161100D01*
X146098936Y-75273054D01*
X146266833Y-75350732D01*
X146447503Y-75390500D01*
X146582754Y-75390500D01*
X146586113Y-75390500D01*
X146723910Y-75375514D01*
X146899221Y-75316444D01*
X147057736Y-75221070D01*
X147192041Y-75093849D01*
X147295858Y-74940730D01*
X147364331Y-74768875D01*
X147394260Y-74586317D01*
X147384245Y-74401593D01*
X147334754Y-74223341D01*
X147316437Y-74188791D01*
X147251249Y-74065835D01*
X147251247Y-74065832D01*
X147248100Y-74059896D01*
X147185460Y-73986151D01*
X147132691Y-73924026D01*
X147128337Y-73918900D01*
X146981064Y-73806946D01*
X146813167Y-73729268D01*
X146632497Y-73689500D01*
X146493887Y-73689500D01*
X146490552Y-73689862D01*
X146490546Y-73689863D01*
X146362772Y-73703759D01*
X146362769Y-73703759D01*
X146356090Y-73704486D01*
X146349729Y-73706629D01*
X146349721Y-73706631D01*
X146187152Y-73761408D01*
X146187146Y-73761410D01*
X146180779Y-73763556D01*
X146175026Y-73767017D01*
X146175016Y-73767022D01*
X146028027Y-73855462D01*
X146028023Y-73855464D01*
X146022264Y-73858930D01*
X146017386Y-73863550D01*
X146017379Y-73863556D01*
X145892839Y-73981528D01*
X145887959Y-73986151D01*
X145884191Y-73991707D01*
X145884187Y-73991713D01*
X145818810Y-74088138D01*
X145784142Y-74139270D01*
X145781654Y-74145513D01*
X145781653Y-74145516D01*
X145718159Y-74304874D01*
X145718157Y-74304879D01*
X145715669Y-74311125D01*
X145714580Y-74317763D01*
X145714580Y-74317766D01*
X145686828Y-74487045D01*
X145685740Y-74493683D01*
X145400499Y-74493683D01*
X145400499Y-73395136D01*
X145397585Y-73370009D01*
X145352206Y-73267235D01*
X145272765Y-73187794D01*
X145267314Y-73185387D01*
X145226074Y-73135487D01*
X145217093Y-73067661D01*
X145245450Y-73005396D01*
X145295265Y-72947070D01*
X145300977Y-72939208D01*
X145427470Y-72732789D01*
X145431884Y-72724126D01*
X145524531Y-72500456D01*
X145527533Y-72491217D01*
X145547694Y-72407242D01*
X145574988Y-72354489D01*
X145623683Y-72320481D01*
X145682609Y-72313020D01*
X145738243Y-72333819D01*
X145777823Y-72378105D01*
X145828750Y-72474164D01*
X145828753Y-72474169D01*
X145831900Y-72480104D01*
X145836248Y-72485224D01*
X145836251Y-72485227D01*
X145936933Y-72603759D01*
X145951663Y-72621100D01*
X146098936Y-72733054D01*
X146266833Y-72810732D01*
X146447503Y-72850500D01*
X146582754Y-72850500D01*
X146586113Y-72850500D01*
X146723910Y-72835514D01*
X146899221Y-72776444D01*
X147057736Y-72681070D01*
X147192041Y-72553849D01*
X147295858Y-72400730D01*
X147364331Y-72228875D01*
X147394260Y-72046317D01*
X147384245Y-71861593D01*
X147334754Y-71683341D01*
X147331604Y-71677399D01*
X147251249Y-71525835D01*
X147251247Y-71525832D01*
X147248100Y-71519896D01*
X147185460Y-71446151D01*
X147132691Y-71384026D01*
X147128337Y-71378900D01*
X147044886Y-71315462D01*
X146986417Y-71271015D01*
X146986415Y-71271014D01*
X146981064Y-71266946D01*
X146813167Y-71189268D01*
X146632497Y-71149500D01*
X146493887Y-71149500D01*
X146490552Y-71149862D01*
X146490546Y-71149863D01*
X146362772Y-71163759D01*
X146362769Y-71163759D01*
X146356090Y-71164486D01*
X146349729Y-71166629D01*
X146349721Y-71166631D01*
X146187152Y-71221408D01*
X146187146Y-71221410D01*
X146180779Y-71223556D01*
X146175026Y-71227017D01*
X146175016Y-71227022D01*
X146028027Y-71315462D01*
X146028023Y-71315464D01*
X146022264Y-71318930D01*
X146017386Y-71323550D01*
X146017379Y-71323556D01*
X145892839Y-71441528D01*
X145887959Y-71446151D01*
X145884191Y-71451707D01*
X145884187Y-71451713D01*
X145792251Y-71587310D01*
X145784142Y-71599270D01*
X145781653Y-71605515D01*
X145778506Y-71611453D01*
X145777343Y-71610836D01*
X145745523Y-71654300D01*
X145689261Y-71680341D01*
X145627423Y-71675891D01*
X145575469Y-71642062D01*
X145546386Y-71587310D01*
X145527532Y-71508780D01*
X145524531Y-71499543D01*
X145431884Y-71275873D01*
X145427470Y-71267210D01*
X145303865Y-71065504D01*
X145297520Y-71061270D01*
X145285610Y-71067942D01*
X144087680Y-72265872D01*
X144032093Y-72297966D01*
X143967905Y-72297966D01*
X143912318Y-72265872D01*
X142714394Y-71067948D01*
X142702480Y-71061276D01*
X142696121Y-71065526D01*
X142572529Y-71267210D01*
X142568115Y-71275873D01*
X142475468Y-71499543D01*
X142472466Y-71508780D01*
X142415948Y-71744197D01*
X142414430Y-71753783D01*
X142395434Y-71995146D01*
X142395434Y-72004854D01*
X133194961Y-72004854D01*
X133211989Y-71959201D01*
X133218500Y-71898638D01*
X133218500Y-70702480D01*
X143061276Y-70702480D01*
X143067948Y-70714394D01*
X143988457Y-71634903D01*
X144000000Y-71641567D01*
X144011542Y-71634903D01*
X144932055Y-70714389D01*
X144938727Y-70702478D01*
X144934491Y-70696132D01*
X144732789Y-70572529D01*
X144724126Y-70568115D01*
X144500456Y-70475468D01*
X144491219Y-70472466D01*
X144255802Y-70415948D01*
X144246216Y-70414430D01*
X144004854Y-70395434D01*
X143995146Y-70395434D01*
X143753783Y-70414430D01*
X143744197Y-70415948D01*
X143508780Y-70472466D01*
X143499543Y-70475468D01*
X143275873Y-70568115D01*
X143267210Y-70572529D01*
X143065526Y-70696121D01*
X143061276Y-70702480D01*
X133218500Y-70702480D01*
X133218500Y-70101362D01*
X133211989Y-70040799D01*
X133160889Y-69903796D01*
X133073261Y-69786739D01*
X132956204Y-69699111D01*
X132947896Y-69696012D01*
X132947894Y-69696011D01*
X132826463Y-69650719D01*
X132826458Y-69650717D01*
X132819201Y-69648011D01*
X132811497Y-69647182D01*
X132811494Y-69647182D01*
X132761924Y-69641853D01*
X132761918Y-69641852D01*
X132758638Y-69641500D01*
X130961362Y-69641500D01*
X130958082Y-69641852D01*
X130958075Y-69641853D01*
X130908505Y-69647182D01*
X130908500Y-69647182D01*
X130900799Y-69648011D01*
X130893543Y-69650717D01*
X130893536Y-69650719D01*
X130772105Y-69696011D01*
X130772099Y-69696013D01*
X130763796Y-69699111D01*
X130756698Y-69704423D01*
X130756695Y-69704426D01*
X130653835Y-69781426D01*
X130653831Y-69781429D01*
X130646739Y-69786739D01*
X130641429Y-69793831D01*
X130641426Y-69793835D01*
X130564426Y-69896695D01*
X130564423Y-69896698D01*
X130559111Y-69903796D01*
X130556013Y-69912099D01*
X130556011Y-69912105D01*
X130510719Y-70033536D01*
X130510717Y-70033543D01*
X130508011Y-70040799D01*
X130507182Y-70048500D01*
X130507182Y-70048505D01*
X130501853Y-70098075D01*
X130501500Y-70101362D01*
X130501500Y-71898638D01*
X130508011Y-71959201D01*
X130510717Y-71966458D01*
X130510719Y-71966463D01*
X130542979Y-72052954D01*
X130559111Y-72096204D01*
X130646739Y-72213261D01*
X130763796Y-72300889D01*
X130881595Y-72344826D01*
X130931130Y-72378841D01*
X130958857Y-72432152D01*
X130958264Y-72492238D01*
X130929490Y-72544991D01*
X130787753Y-72698956D01*
X130787747Y-72698963D01*
X130784278Y-72702732D01*
X130781481Y-72707012D01*
X130781474Y-72707022D01*
X130663942Y-72886920D01*
X130661140Y-72891209D01*
X130659085Y-72895892D01*
X130659080Y-72895903D01*
X130572764Y-73092687D01*
X130570704Y-73097384D01*
X130569446Y-73102349D01*
X130569445Y-73102354D01*
X130516695Y-73310657D01*
X130516693Y-73310666D01*
X130515436Y-73315632D01*
X130515012Y-73320741D01*
X130515011Y-73320751D01*
X130497268Y-73534883D01*
X130496844Y-73540000D01*
X130497268Y-73545117D01*
X130515011Y-73759248D01*
X130515012Y-73759256D01*
X130515436Y-73764368D01*
X130516693Y-73769335D01*
X130516695Y-73769342D01*
X130553538Y-73914831D01*
X130570704Y-73982616D01*
X130572764Y-73987312D01*
X130659080Y-74184096D01*
X130659083Y-74184101D01*
X130661140Y-74188791D01*
X130679831Y-74217399D01*
X130781474Y-74372977D01*
X130781477Y-74372981D01*
X130784278Y-74377268D01*
X130787752Y-74381041D01*
X130787753Y-74381043D01*
X130933288Y-74539135D01*
X130933291Y-74539138D01*
X130936760Y-74542906D01*
X130987278Y-74582226D01*
X131110376Y-74678039D01*
X131110381Y-74678042D01*
X131114424Y-74681189D01*
X131118931Y-74683628D01*
X131118934Y-74683630D01*
X131150930Y-74700945D01*
X131198436Y-74746526D01*
X131215913Y-74810000D01*
X131198436Y-74873474D01*
X131150930Y-74919055D01*
X131118934Y-74936369D01*
X131118922Y-74936376D01*
X131114424Y-74938811D01*
X131110389Y-74941951D01*
X131110376Y-74941960D01*
X130940801Y-75073948D01*
X130940795Y-75073952D01*
X130936760Y-75077094D01*
X130933297Y-75080855D01*
X130933288Y-75080864D01*
X130787753Y-75238956D01*
X130787747Y-75238963D01*
X130784278Y-75242732D01*
X130781481Y-75247012D01*
X130781474Y-75247022D01*
X130663942Y-75426920D01*
X130661140Y-75431209D01*
X130659085Y-75435892D01*
X130659080Y-75435903D01*
X130572764Y-75632687D01*
X130570704Y-75637384D01*
X130569446Y-75642349D01*
X130569445Y-75642354D01*
X130516695Y-75850657D01*
X130516693Y-75850666D01*
X130515436Y-75855632D01*
X130515012Y-75860741D01*
X130515011Y-75860751D01*
X130506362Y-75965133D01*
X130496844Y-76080000D01*
X130497268Y-76085117D01*
X130515011Y-76299248D01*
X130515012Y-76299256D01*
X130515436Y-76304368D01*
X130516693Y-76309335D01*
X130516695Y-76309342D01*
X130569445Y-76517645D01*
X130570704Y-76522616D01*
X130572764Y-76527312D01*
X130659080Y-76724096D01*
X130659083Y-76724101D01*
X130661140Y-76728791D01*
X130720505Y-76819656D01*
X130781474Y-76912977D01*
X130781477Y-76912981D01*
X130784278Y-76917268D01*
X130787752Y-76921041D01*
X130787753Y-76921043D01*
X130933288Y-77079135D01*
X130933291Y-77079138D01*
X130936760Y-77082906D01*
X130940801Y-77086051D01*
X131110376Y-77218039D01*
X131110381Y-77218042D01*
X131114424Y-77221189D01*
X131150930Y-77240945D01*
X131198434Y-77286523D01*
X131215913Y-77349996D01*
X131198437Y-77413471D01*
X131150933Y-77459053D01*
X131118930Y-77476372D01*
X131118925Y-77476374D01*
X131114424Y-77478811D01*
X131110381Y-77481957D01*
X131110376Y-77481961D01*
X130977540Y-77585353D01*
X130941640Y-77604781D01*
X130901377Y-77611500D01*
X129435642Y-77611500D01*
X129423488Y-77610903D01*
X129386062Y-77607217D01*
X129380000Y-77606620D01*
X129373938Y-77607217D01*
X129188363Y-77625493D01*
X129188355Y-77625494D01*
X129182299Y-77626091D01*
X129176474Y-77627857D01*
X129176464Y-77627860D01*
X129036442Y-77670337D01*
X128998018Y-77681992D01*
X128998009Y-77681995D01*
X128992196Y-77683759D01*
X128986832Y-77686626D01*
X128986825Y-77686629D01*
X128822372Y-77774531D01*
X128822368Y-77774533D01*
X128816996Y-77777405D01*
X128812288Y-77781268D01*
X128812283Y-77781272D01*
X128668138Y-77899569D01*
X128668133Y-77899573D01*
X128663432Y-77903432D01*
X128659573Y-77908133D01*
X128659571Y-77908136D01*
X128635706Y-77937215D01*
X128627536Y-77946228D01*
X127826228Y-78747536D01*
X127817215Y-78755706D01*
X127788136Y-78779571D01*
X127788133Y-78779573D01*
X127783432Y-78783432D01*
X127779573Y-78788133D01*
X127779569Y-78788138D01*
X127661272Y-78932283D01*
X127661268Y-78932288D01*
X127657405Y-78936996D01*
X127654533Y-78942368D01*
X127654531Y-78942372D01*
X127590260Y-79062616D01*
X127566632Y-79106820D01*
X127566630Y-79106824D01*
X127563759Y-79112196D01*
X127561992Y-79118020D01*
X127561989Y-79118028D01*
X127507860Y-79296464D01*
X127507857Y-79296474D01*
X127506091Y-79302299D01*
X127505494Y-79308355D01*
X127505493Y-79308363D01*
X127490457Y-79461043D01*
X127486620Y-79500000D01*
X127487217Y-79506062D01*
X127490903Y-79543488D01*
X127491500Y-79555642D01*
X127491500Y-94444358D01*
X127490903Y-94456511D01*
X127486620Y-94500000D01*
X127487217Y-94506062D01*
X127505493Y-94691636D01*
X127505494Y-94691642D01*
X127506091Y-94697701D01*
X127507858Y-94703527D01*
X127507860Y-94703535D01*
X127561989Y-94881971D01*
X127561991Y-94881975D01*
X127563759Y-94887804D01*
X127657405Y-95063004D01*
X127783432Y-95216568D01*
X127788137Y-95220429D01*
X127817213Y-95244291D01*
X127826230Y-95252464D01*
X128853585Y-96279819D01*
X128883835Y-96329182D01*
X128888377Y-96386898D01*
X128866222Y-96440385D01*
X128822199Y-96477985D01*
X128765904Y-96491500D01*
X113869096Y-96491500D01*
X113821643Y-96482061D01*
X113781415Y-96455181D01*
X112644819Y-95318585D01*
X112617939Y-95278357D01*
X112608500Y-95230904D01*
X112608500Y-74855642D01*
X112609097Y-74843488D01*
X112612783Y-74806062D01*
X112613380Y-74800000D01*
X112593909Y-74602299D01*
X112536241Y-74412196D01*
X112517572Y-74377268D01*
X112515278Y-74372977D01*
X112445469Y-74242372D01*
X112445466Y-74242368D01*
X112442595Y-74236996D01*
X112316568Y-74083432D01*
X112295126Y-74065835D01*
X112282784Y-74055706D01*
X112273768Y-74047534D01*
X111092464Y-72866230D01*
X111084291Y-72857213D01*
X111060429Y-72828137D01*
X111056568Y-72823432D01*
X110903004Y-72697405D01*
X110727804Y-72603759D01*
X110727803Y-72603758D01*
X110713171Y-72599319D01*
X110713169Y-72599318D01*
X110543531Y-72547859D01*
X110543526Y-72547858D01*
X110537701Y-72546091D01*
X110531642Y-72545494D01*
X110531636Y-72545493D01*
X110346062Y-72527217D01*
X110340000Y-72526620D01*
X110333938Y-72527217D01*
X110296512Y-72530903D01*
X110284358Y-72531500D01*
X110157066Y-72531500D01*
X110094556Y-72514591D01*
X110049094Y-72468476D01*
X110033079Y-72405731D01*
X110050878Y-72343468D01*
X110094756Y-72301428D01*
X110096204Y-72300889D01*
X110213261Y-72213261D01*
X110300889Y-72096204D01*
X110351989Y-71959201D01*
X110358500Y-71898638D01*
X110358500Y-70101362D01*
X110351989Y-70040799D01*
X110300889Y-69903796D01*
X110213261Y-69786739D01*
X110096204Y-69699111D01*
X110087896Y-69696012D01*
X110087894Y-69696011D01*
X109966463Y-69650719D01*
X109966458Y-69650717D01*
X109959201Y-69648011D01*
X109951497Y-69647182D01*
X109951494Y-69647182D01*
X109901924Y-69641853D01*
X109901918Y-69641852D01*
X109898638Y-69641500D01*
X108101362Y-69641500D01*
X108098082Y-69641852D01*
X108098075Y-69641853D01*
X108048505Y-69647182D01*
X108048500Y-69647182D01*
X108040799Y-69648011D01*
X108033543Y-69650717D01*
X108033536Y-69650719D01*
X107912105Y-69696011D01*
X107912099Y-69696013D01*
X107903796Y-69699111D01*
X107896698Y-69704423D01*
X107896695Y-69704426D01*
X107793835Y-69781426D01*
X107793831Y-69781429D01*
X107786739Y-69786739D01*
X107781429Y-69793831D01*
X107781426Y-69793835D01*
X107704426Y-69896695D01*
X107704423Y-69896698D01*
X107699111Y-69903796D01*
X107696013Y-69912099D01*
X107696011Y-69912105D01*
X107650719Y-70033536D01*
X107650717Y-70033543D01*
X107648011Y-70040799D01*
X107647182Y-70048500D01*
X107647182Y-70048505D01*
X107641853Y-70098075D01*
X107641500Y-70101362D01*
X107641500Y-71898638D01*
X107648011Y-71959201D01*
X107650717Y-71966458D01*
X107650719Y-71966463D01*
X107682979Y-72052954D01*
X107699111Y-72096204D01*
X107786739Y-72213261D01*
X107903796Y-72300889D01*
X108021595Y-72344826D01*
X108071130Y-72378841D01*
X108098857Y-72432152D01*
X108098264Y-72492238D01*
X108069490Y-72544991D01*
X107927753Y-72698956D01*
X107927747Y-72698963D01*
X107924278Y-72702732D01*
X107921481Y-72707012D01*
X107921474Y-72707022D01*
X107803942Y-72886920D01*
X107801140Y-72891209D01*
X107799085Y-72895892D01*
X107799080Y-72895903D01*
X107712764Y-73092687D01*
X107710704Y-73097384D01*
X107709446Y-73102349D01*
X107709445Y-73102354D01*
X107656695Y-73310657D01*
X107656693Y-73310666D01*
X107655436Y-73315632D01*
X107655012Y-73320741D01*
X107655011Y-73320751D01*
X107637268Y-73534883D01*
X107636844Y-73540000D01*
X107637268Y-73545117D01*
X107655011Y-73759248D01*
X107655012Y-73759256D01*
X107655436Y-73764368D01*
X107656693Y-73769335D01*
X107656695Y-73769342D01*
X107693538Y-73914831D01*
X107710704Y-73982616D01*
X107712764Y-73987312D01*
X107799080Y-74184096D01*
X107799083Y-74184101D01*
X107801140Y-74188791D01*
X107819831Y-74217399D01*
X107921474Y-74372977D01*
X107921477Y-74372981D01*
X107924278Y-74377268D01*
X107927752Y-74381041D01*
X107927753Y-74381043D01*
X108073288Y-74539135D01*
X108073291Y-74539138D01*
X108076760Y-74542906D01*
X108127278Y-74582226D01*
X108250376Y-74678039D01*
X108250381Y-74678042D01*
X108254424Y-74681189D01*
X108258931Y-74683628D01*
X108258934Y-74683630D01*
X108290930Y-74700945D01*
X108338436Y-74746526D01*
X108355913Y-74810000D01*
X108338436Y-74873474D01*
X108290930Y-74919055D01*
X108258934Y-74936369D01*
X108258922Y-74936376D01*
X108254424Y-74938811D01*
X108250389Y-74941951D01*
X108250376Y-74941960D01*
X108080801Y-75073948D01*
X108080795Y-75073952D01*
X108076760Y-75077094D01*
X108073297Y-75080855D01*
X108073288Y-75080864D01*
X107927753Y-75238956D01*
X107927747Y-75238963D01*
X107924278Y-75242732D01*
X107921481Y-75247012D01*
X107921474Y-75247022D01*
X107803942Y-75426920D01*
X107801140Y-75431209D01*
X107799085Y-75435892D01*
X107799080Y-75435903D01*
X107712764Y-75632687D01*
X107710704Y-75637384D01*
X107709446Y-75642349D01*
X107709445Y-75642354D01*
X107656695Y-75850657D01*
X107656693Y-75850666D01*
X107655436Y-75855632D01*
X107655012Y-75860741D01*
X107655011Y-75860751D01*
X107646362Y-75965133D01*
X107636844Y-76080000D01*
X107637268Y-76085117D01*
X107655011Y-76299248D01*
X107655012Y-76299256D01*
X107655436Y-76304368D01*
X107656693Y-76309335D01*
X107656695Y-76309342D01*
X107709445Y-76517645D01*
X107710704Y-76522616D01*
X107712764Y-76527312D01*
X107799080Y-76724096D01*
X107799083Y-76724101D01*
X107801140Y-76728791D01*
X107860505Y-76819656D01*
X107921474Y-76912977D01*
X107921477Y-76912981D01*
X107924278Y-76917268D01*
X107927752Y-76921041D01*
X107927753Y-76921043D01*
X108073288Y-77079135D01*
X108073291Y-77079138D01*
X108076760Y-77082906D01*
X108080801Y-77086051D01*
X108250376Y-77218039D01*
X108250381Y-77218042D01*
X108254424Y-77221189D01*
X108290930Y-77240945D01*
X108338434Y-77286523D01*
X108355913Y-77349996D01*
X108338437Y-77413471D01*
X108290933Y-77459053D01*
X108258930Y-77476372D01*
X108258925Y-77476374D01*
X108254424Y-77478811D01*
X108250389Y-77481951D01*
X108250376Y-77481960D01*
X108080801Y-77613948D01*
X108080795Y-77613952D01*
X108076760Y-77617094D01*
X108073297Y-77620855D01*
X108073288Y-77620864D01*
X107927753Y-77778956D01*
X107927747Y-77778963D01*
X107924278Y-77782732D01*
X107921481Y-77787012D01*
X107921474Y-77787022D01*
X107803942Y-77966920D01*
X107801140Y-77971209D01*
X107799085Y-77975892D01*
X107799080Y-77975903D01*
X107712764Y-78172687D01*
X107710704Y-78177384D01*
X107709446Y-78182349D01*
X107709445Y-78182354D01*
X107656695Y-78390657D01*
X107656693Y-78390666D01*
X107655436Y-78395632D01*
X107655012Y-78400741D01*
X107655011Y-78400751D01*
X107646362Y-78505133D01*
X107636844Y-78620000D01*
X107637268Y-78625117D01*
X107655011Y-78839248D01*
X107655012Y-78839256D01*
X107655436Y-78844368D01*
X107656693Y-78849335D01*
X107656695Y-78849342D01*
X107709445Y-79057645D01*
X107710704Y-79062616D01*
X107712764Y-79067312D01*
X107799080Y-79264096D01*
X107799083Y-79264101D01*
X107801140Y-79268791D01*
X107819220Y-79296464D01*
X107921474Y-79452977D01*
X107921477Y-79452981D01*
X107924278Y-79457268D01*
X107927752Y-79461041D01*
X107927753Y-79461043D01*
X108073288Y-79619135D01*
X108073291Y-79619138D01*
X108076760Y-79622906D01*
X108080801Y-79626051D01*
X108250376Y-79758039D01*
X108250381Y-79758042D01*
X108254424Y-79761189D01*
X108258931Y-79763628D01*
X108258934Y-79763630D01*
X108290930Y-79780945D01*
X108338436Y-79826526D01*
X108355913Y-79890000D01*
X108338436Y-79953474D01*
X108290930Y-79999055D01*
X108258934Y-80016369D01*
X108258922Y-80016376D01*
X108254424Y-80018811D01*
X108250389Y-80021951D01*
X108250376Y-80021960D01*
X108080801Y-80153948D01*
X108080795Y-80153952D01*
X108076760Y-80157094D01*
X108073297Y-80160855D01*
X108073288Y-80160864D01*
X107927753Y-80318956D01*
X107927747Y-80318963D01*
X107924278Y-80322732D01*
X107921481Y-80327012D01*
X107921474Y-80327022D01*
X107870973Y-80404321D01*
X107801140Y-80511209D01*
X107799085Y-80515892D01*
X107799080Y-80515903D01*
X107712764Y-80712687D01*
X107710704Y-80717384D01*
X107709446Y-80722349D01*
X107709445Y-80722354D01*
X107656695Y-80930657D01*
X107656693Y-80930666D01*
X107655436Y-80935632D01*
X107655012Y-80940741D01*
X107655011Y-80940751D01*
X107637268Y-81154883D01*
X107636844Y-81160000D01*
X107637268Y-81165117D01*
X107655011Y-81379248D01*
X107655012Y-81379256D01*
X107655436Y-81384368D01*
X107656693Y-81389335D01*
X107656695Y-81389342D01*
X107694847Y-81540000D01*
X107710704Y-81602616D01*
X107712764Y-81607312D01*
X107799080Y-81804096D01*
X107799083Y-81804101D01*
X107801140Y-81808791D01*
X107860505Y-81899656D01*
X107921474Y-81992977D01*
X107921477Y-81992981D01*
X107924278Y-81997268D01*
X107927752Y-82001041D01*
X107927753Y-82001043D01*
X108073288Y-82159135D01*
X108073291Y-82159138D01*
X108076760Y-82162906D01*
X108080801Y-82166051D01*
X108250376Y-82298039D01*
X108250381Y-82298042D01*
X108254424Y-82301189D01*
X108258931Y-82303628D01*
X108258934Y-82303630D01*
X108290930Y-82320945D01*
X108338436Y-82366526D01*
X108355913Y-82430000D01*
X108338436Y-82493474D01*
X108290930Y-82539055D01*
X108258934Y-82556369D01*
X108258922Y-82556376D01*
X108254424Y-82558811D01*
X108250389Y-82561951D01*
X108250376Y-82561960D01*
X108080801Y-82693948D01*
X108080795Y-82693952D01*
X108076760Y-82697094D01*
X108073297Y-82700855D01*
X108073288Y-82700864D01*
X107927753Y-82858956D01*
X107927747Y-82858963D01*
X107924278Y-82862732D01*
X107921481Y-82867012D01*
X107921474Y-82867022D01*
X107803942Y-83046920D01*
X107801140Y-83051209D01*
X107799085Y-83055892D01*
X107799080Y-83055903D01*
X107712764Y-83252687D01*
X107710704Y-83257384D01*
X107709446Y-83262349D01*
X107709445Y-83262354D01*
X107656695Y-83470657D01*
X107656693Y-83470666D01*
X107655436Y-83475632D01*
X107655012Y-83480741D01*
X107655011Y-83480751D01*
X107644552Y-83606974D01*
X107636844Y-83700000D01*
X107637268Y-83705117D01*
X107655011Y-83919248D01*
X107655012Y-83919256D01*
X107655436Y-83924368D01*
X107656693Y-83929335D01*
X107656695Y-83929342D01*
X107694881Y-84080134D01*
X107710704Y-84142616D01*
X107712764Y-84147312D01*
X107799080Y-84344096D01*
X107799083Y-84344101D01*
X107801140Y-84348791D01*
X107858875Y-84437161D01*
X107921474Y-84532977D01*
X107921477Y-84532981D01*
X107924278Y-84537268D01*
X107927752Y-84541041D01*
X107927753Y-84541043D01*
X108073288Y-84699135D01*
X108073291Y-84699138D01*
X108076760Y-84702906D01*
X108080801Y-84706051D01*
X108250376Y-84838039D01*
X108250381Y-84838042D01*
X108254424Y-84841189D01*
X108258931Y-84843628D01*
X108258934Y-84843630D01*
X108290930Y-84860945D01*
X108338436Y-84906526D01*
X108355913Y-84970000D01*
X108338436Y-85033474D01*
X108290930Y-85079055D01*
X108258934Y-85096369D01*
X108258922Y-85096376D01*
X108254424Y-85098811D01*
X108250389Y-85101951D01*
X108250376Y-85101960D01*
X108080801Y-85233948D01*
X108080795Y-85233952D01*
X108076760Y-85237094D01*
X108073297Y-85240855D01*
X108073288Y-85240864D01*
X107927753Y-85398956D01*
X107927747Y-85398963D01*
X107924278Y-85402732D01*
X107921481Y-85407012D01*
X107921474Y-85407022D01*
X107813798Y-85571834D01*
X107801140Y-85591209D01*
X107799085Y-85595892D01*
X107799080Y-85595903D01*
X107723535Y-85768131D01*
X107710704Y-85797384D01*
X107709446Y-85802349D01*
X107709445Y-85802354D01*
X107656695Y-86010657D01*
X107656693Y-86010666D01*
X107655436Y-86015632D01*
X107655012Y-86020741D01*
X107655011Y-86020751D01*
X107639036Y-86213543D01*
X107636844Y-86240000D01*
X107637268Y-86245117D01*
X107655011Y-86459248D01*
X107655012Y-86459256D01*
X107655436Y-86464368D01*
X107656693Y-86469335D01*
X107656695Y-86469342D01*
X107709445Y-86677645D01*
X107710704Y-86682616D01*
X107712764Y-86687312D01*
X107799080Y-86884096D01*
X107799083Y-86884101D01*
X107801140Y-86888791D01*
X107860505Y-86979656D01*
X107921474Y-87072977D01*
X107921477Y-87072981D01*
X107924278Y-87077268D01*
X107927752Y-87081041D01*
X107927753Y-87081043D01*
X108073288Y-87239135D01*
X108073291Y-87239138D01*
X108076760Y-87242906D01*
X108080801Y-87246051D01*
X108250376Y-87378039D01*
X108250381Y-87378042D01*
X108254424Y-87381189D01*
X108297691Y-87404604D01*
X108297695Y-87404606D01*
X108343335Y-87447155D01*
X108362475Y-87506545D01*
X108350267Y-87567737D01*
X108309803Y-87615236D01*
X108133352Y-87738788D01*
X108125092Y-87745719D01*
X107965719Y-87905092D01*
X107958784Y-87913357D01*
X107829508Y-88097982D01*
X107824110Y-88107332D01*
X107728856Y-88311602D01*
X107725168Y-88321736D01*
X107673056Y-88516219D01*
X107672688Y-88527448D01*
X107683631Y-88530000D01*
X109126000Y-88530000D01*
X109188000Y-88546613D01*
X109233387Y-88592000D01*
X109250000Y-88654000D01*
X109250000Y-90096369D01*
X109252551Y-90107311D01*
X109263780Y-90106943D01*
X109458263Y-90054831D01*
X109468397Y-90051143D01*
X109672676Y-89955886D01*
X109682008Y-89950498D01*
X109866643Y-89821215D01*
X109874909Y-89814278D01*
X110034278Y-89654909D01*
X110041215Y-89646643D01*
X110170498Y-89462008D01*
X110175886Y-89452676D01*
X110271143Y-89248397D01*
X110274831Y-89238263D01*
X110333166Y-89020553D01*
X110335041Y-89009921D01*
X110343972Y-88907845D01*
X110364902Y-88849013D01*
X110411849Y-88807842D01*
X110472909Y-88794770D01*
X110532597Y-88813114D01*
X110575778Y-88858220D01*
X110591500Y-88918652D01*
X110591500Y-95644358D01*
X110590903Y-95656511D01*
X110586620Y-95700000D01*
X110587217Y-95706062D01*
X110605493Y-95891636D01*
X110605494Y-95891642D01*
X110606091Y-95897701D01*
X110607859Y-95903529D01*
X110607860Y-95903534D01*
X110614160Y-95924300D01*
X110637124Y-96000000D01*
X110663759Y-96087804D01*
X110757405Y-96263004D01*
X110761271Y-96267715D01*
X110761272Y-96267716D01*
X110864111Y-96393026D01*
X110883432Y-96416568D01*
X110917213Y-96444291D01*
X110926230Y-96452464D01*
X112647534Y-98173768D01*
X112655706Y-98182784D01*
X112683432Y-98216568D01*
X112836996Y-98342595D01*
X113012196Y-98436241D01*
X113202299Y-98493908D01*
X113400000Y-98513380D01*
X113406061Y-98512783D01*
X113443486Y-98509097D01*
X113455640Y-98508500D01*
X129872985Y-98508500D01*
X129920438Y-98517939D01*
X129960666Y-98544819D01*
X131258725Y-99842878D01*
X131288325Y-99890296D01*
X131294092Y-99945896D01*
X131274853Y-99998379D01*
X131233809Y-100061203D01*
X131189018Y-100102437D01*
X131130001Y-100117383D01*
X131070983Y-100102438D01*
X131026191Y-100061205D01*
X130938525Y-99927022D01*
X130938523Y-99927020D01*
X130935722Y-99922732D01*
X130932246Y-99918956D01*
X130786711Y-99760864D01*
X130786708Y-99760861D01*
X130783240Y-99757094D01*
X130770597Y-99747253D01*
X130609623Y-99621960D01*
X130609615Y-99621955D01*
X130605576Y-99618811D01*
X130601071Y-99616373D01*
X130601065Y-99616369D01*
X130412080Y-99514096D01*
X130412074Y-99514093D01*
X130407574Y-99511658D01*
X130402733Y-99509996D01*
X130402726Y-99509993D01*
X130199488Y-99440222D01*
X130199487Y-99440221D01*
X130194635Y-99438556D01*
X130189585Y-99437713D01*
X130189576Y-99437711D01*
X129977631Y-99402344D01*
X129977622Y-99402343D01*
X129972569Y-99401500D01*
X129747431Y-99401500D01*
X129742378Y-99402343D01*
X129742368Y-99402344D01*
X129530423Y-99437711D01*
X129530411Y-99437713D01*
X129525365Y-99438556D01*
X129520515Y-99440220D01*
X129520511Y-99440222D01*
X129317273Y-99509993D01*
X129317262Y-99509997D01*
X129312426Y-99511658D01*
X129307929Y-99514091D01*
X129307919Y-99514096D01*
X129118934Y-99616369D01*
X129118922Y-99616376D01*
X129114424Y-99618811D01*
X129110389Y-99621951D01*
X129110376Y-99621960D01*
X128940801Y-99753948D01*
X128940795Y-99753952D01*
X128936760Y-99757094D01*
X128933297Y-99760855D01*
X128933288Y-99760864D01*
X128787753Y-99918956D01*
X128787747Y-99918963D01*
X128784278Y-99922732D01*
X128781481Y-99927012D01*
X128781474Y-99927022D01*
X128693809Y-100061205D01*
X128649017Y-100102438D01*
X128590000Y-100117383D01*
X128530983Y-100102438D01*
X128486191Y-100061205D01*
X128398525Y-99927022D01*
X128398523Y-99927020D01*
X128395722Y-99922732D01*
X128392246Y-99918956D01*
X128246711Y-99760864D01*
X128246708Y-99760861D01*
X128243240Y-99757094D01*
X128230597Y-99747253D01*
X128069623Y-99621960D01*
X128069615Y-99621955D01*
X128065576Y-99618811D01*
X128061071Y-99616373D01*
X128061065Y-99616369D01*
X127872080Y-99514096D01*
X127872074Y-99514093D01*
X127867574Y-99511658D01*
X127862733Y-99509996D01*
X127862726Y-99509993D01*
X127659488Y-99440222D01*
X127659487Y-99440221D01*
X127654635Y-99438556D01*
X127649585Y-99437713D01*
X127649576Y-99437711D01*
X127437631Y-99402344D01*
X127437622Y-99402343D01*
X127432569Y-99401500D01*
X127207431Y-99401500D01*
X127202378Y-99402343D01*
X127202368Y-99402344D01*
X126990423Y-99437711D01*
X126990411Y-99437713D01*
X126985365Y-99438556D01*
X126980515Y-99440220D01*
X126980511Y-99440222D01*
X126777273Y-99509993D01*
X126777262Y-99509997D01*
X126772426Y-99511658D01*
X126767929Y-99514091D01*
X126767919Y-99514096D01*
X126578934Y-99616369D01*
X126578922Y-99616376D01*
X126574424Y-99618811D01*
X126570389Y-99621951D01*
X126570376Y-99621960D01*
X126400801Y-99753948D01*
X126400795Y-99753952D01*
X126396760Y-99757094D01*
X126393297Y-99760855D01*
X126393288Y-99760864D01*
X126247753Y-99918956D01*
X126247747Y-99918963D01*
X126244278Y-99922732D01*
X126241481Y-99927012D01*
X126241474Y-99927022D01*
X126153809Y-100061205D01*
X126109017Y-100102438D01*
X126050000Y-100117383D01*
X125990983Y-100102438D01*
X125946191Y-100061205D01*
X125858525Y-99927022D01*
X125858523Y-99927020D01*
X125855722Y-99922732D01*
X125852246Y-99918956D01*
X125706711Y-99760864D01*
X125706708Y-99760861D01*
X125703240Y-99757094D01*
X125690597Y-99747253D01*
X125529623Y-99621960D01*
X125529615Y-99621955D01*
X125525576Y-99618811D01*
X125521071Y-99616373D01*
X125521065Y-99616369D01*
X125332080Y-99514096D01*
X125332074Y-99514093D01*
X125327574Y-99511658D01*
X125322733Y-99509996D01*
X125322726Y-99509993D01*
X125119488Y-99440222D01*
X125119487Y-99440221D01*
X125114635Y-99438556D01*
X125109585Y-99437713D01*
X125109576Y-99437711D01*
X124897631Y-99402344D01*
X124897622Y-99402343D01*
X124892569Y-99401500D01*
X124667431Y-99401500D01*
X124662378Y-99402343D01*
X124662368Y-99402344D01*
X124450423Y-99437711D01*
X124450411Y-99437713D01*
X124445365Y-99438556D01*
X124440515Y-99440220D01*
X124440511Y-99440222D01*
X124237273Y-99509993D01*
X124237262Y-99509997D01*
X124232426Y-99511658D01*
X124227929Y-99514091D01*
X124227919Y-99514096D01*
X124038934Y-99616369D01*
X124038922Y-99616376D01*
X124034424Y-99618811D01*
X124030389Y-99621951D01*
X124030376Y-99621960D01*
X123860801Y-99753948D01*
X123860795Y-99753952D01*
X123856760Y-99757094D01*
X123853297Y-99760855D01*
X123853288Y-99760864D01*
X123707753Y-99918956D01*
X123707747Y-99918963D01*
X123704278Y-99922732D01*
X123701481Y-99927012D01*
X123701474Y-99927022D01*
X123613809Y-100061205D01*
X123569017Y-100102438D01*
X123510000Y-100117383D01*
X123450983Y-100102438D01*
X123406191Y-100061205D01*
X123318525Y-99927022D01*
X123318523Y-99927020D01*
X123315722Y-99922732D01*
X123312246Y-99918956D01*
X123166711Y-99760864D01*
X123166708Y-99760861D01*
X123163240Y-99757094D01*
X123150597Y-99747253D01*
X122989623Y-99621960D01*
X122989615Y-99621955D01*
X122985576Y-99618811D01*
X122981071Y-99616373D01*
X122981065Y-99616369D01*
X122792080Y-99514096D01*
X122792074Y-99514093D01*
X122787574Y-99511658D01*
X122782733Y-99509996D01*
X122782726Y-99509993D01*
X122579488Y-99440222D01*
X122579487Y-99440221D01*
X122574635Y-99438556D01*
X122569585Y-99437713D01*
X122569576Y-99437711D01*
X122357631Y-99402344D01*
X122357622Y-99402343D01*
X122352569Y-99401500D01*
X122127431Y-99401500D01*
X122122378Y-99402343D01*
X122122368Y-99402344D01*
X121910423Y-99437711D01*
X121910411Y-99437713D01*
X121905365Y-99438556D01*
X121900515Y-99440220D01*
X121900511Y-99440222D01*
X121697273Y-99509993D01*
X121697262Y-99509997D01*
X121692426Y-99511658D01*
X121687929Y-99514091D01*
X121687919Y-99514096D01*
X121498934Y-99616369D01*
X121498922Y-99616376D01*
X121494424Y-99618811D01*
X121490389Y-99621951D01*
X121490376Y-99621960D01*
X121320801Y-99753948D01*
X121320795Y-99753952D01*
X121316760Y-99757094D01*
X121313297Y-99760855D01*
X121313288Y-99760864D01*
X121167753Y-99918956D01*
X121167747Y-99918963D01*
X121164278Y-99922732D01*
X121161481Y-99927012D01*
X121161474Y-99927022D01*
X121073809Y-100061205D01*
X121029017Y-100102438D01*
X120970000Y-100117383D01*
X120910983Y-100102438D01*
X120866191Y-100061205D01*
X120778525Y-99927022D01*
X120778523Y-99927020D01*
X120775722Y-99922732D01*
X120772246Y-99918956D01*
X120626711Y-99760864D01*
X120626708Y-99760861D01*
X120623240Y-99757094D01*
X120610597Y-99747253D01*
X120449623Y-99621960D01*
X120449615Y-99621955D01*
X120445576Y-99618811D01*
X120441071Y-99616373D01*
X120441065Y-99616369D01*
X120252080Y-99514096D01*
X120252074Y-99514093D01*
X120247574Y-99511658D01*
X120242733Y-99509996D01*
X120242726Y-99509993D01*
X120039488Y-99440222D01*
X120039487Y-99440221D01*
X120034635Y-99438556D01*
X120029585Y-99437713D01*
X120029576Y-99437711D01*
X119817631Y-99402344D01*
X119817622Y-99402343D01*
X119812569Y-99401500D01*
X119587431Y-99401500D01*
X119582378Y-99402343D01*
X119582368Y-99402344D01*
X119370423Y-99437711D01*
X119370411Y-99437713D01*
X119365365Y-99438556D01*
X119360515Y-99440220D01*
X119360511Y-99440222D01*
X119157273Y-99509993D01*
X119157262Y-99509997D01*
X119152426Y-99511658D01*
X119147929Y-99514091D01*
X119147919Y-99514096D01*
X118958934Y-99616369D01*
X118958922Y-99616376D01*
X118954424Y-99618811D01*
X118950389Y-99621951D01*
X118950376Y-99621960D01*
X118780801Y-99753948D01*
X118780795Y-99753952D01*
X118776760Y-99757094D01*
X118773297Y-99760855D01*
X118773288Y-99760864D01*
X118627753Y-99918956D01*
X118627747Y-99918963D01*
X118624278Y-99922732D01*
X118621481Y-99927012D01*
X118621474Y-99927022D01*
X118533809Y-100061205D01*
X118489017Y-100102438D01*
X118430000Y-100117383D01*
X118370983Y-100102438D01*
X118326191Y-100061205D01*
X118238525Y-99927022D01*
X118238523Y-99927020D01*
X118235722Y-99922732D01*
X118232246Y-99918956D01*
X118086711Y-99760864D01*
X118086708Y-99760861D01*
X118083240Y-99757094D01*
X118070597Y-99747253D01*
X117909623Y-99621960D01*
X117909615Y-99621955D01*
X117905576Y-99618811D01*
X117901071Y-99616373D01*
X117901065Y-99616369D01*
X117712080Y-99514096D01*
X117712074Y-99514093D01*
X117707574Y-99511658D01*
X117702733Y-99509996D01*
X117702726Y-99509993D01*
X117499488Y-99440222D01*
X117499487Y-99440221D01*
X117494635Y-99438556D01*
X117489585Y-99437713D01*
X117489576Y-99437711D01*
X117277631Y-99402344D01*
X117277622Y-99402343D01*
X117272569Y-99401500D01*
X117047431Y-99401500D01*
X117042378Y-99402343D01*
X117042368Y-99402344D01*
X116830423Y-99437711D01*
X116830411Y-99437713D01*
X116825365Y-99438556D01*
X116820515Y-99440220D01*
X116820511Y-99440222D01*
X116617273Y-99509993D01*
X116617262Y-99509997D01*
X116612426Y-99511658D01*
X116607929Y-99514091D01*
X116607919Y-99514096D01*
X116418934Y-99616369D01*
X116418922Y-99616376D01*
X116414424Y-99618811D01*
X116410389Y-99621951D01*
X116410376Y-99621960D01*
X116240801Y-99753948D01*
X116240795Y-99753952D01*
X116236760Y-99757094D01*
X116233297Y-99760855D01*
X116233288Y-99760864D01*
X116087753Y-99918956D01*
X116087747Y-99918963D01*
X116084278Y-99922732D01*
X116081481Y-99927012D01*
X116081474Y-99927022D01*
X115993809Y-100061205D01*
X115949017Y-100102438D01*
X115890000Y-100117383D01*
X115830983Y-100102438D01*
X115786191Y-100061205D01*
X115698525Y-99927022D01*
X115698523Y-99927020D01*
X115695722Y-99922732D01*
X115692246Y-99918956D01*
X115546711Y-99760864D01*
X115546708Y-99760861D01*
X115543240Y-99757094D01*
X115530597Y-99747253D01*
X115369623Y-99621960D01*
X115369615Y-99621955D01*
X115365576Y-99618811D01*
X115361071Y-99616373D01*
X115361065Y-99616369D01*
X115172080Y-99514096D01*
X115172074Y-99514093D01*
X115167574Y-99511658D01*
X115162733Y-99509996D01*
X115162726Y-99509993D01*
X114959488Y-99440222D01*
X114959487Y-99440221D01*
X114954635Y-99438556D01*
X114949585Y-99437713D01*
X114949576Y-99437711D01*
X114737631Y-99402344D01*
X114737622Y-99402343D01*
X114732569Y-99401500D01*
X114507431Y-99401500D01*
X114502378Y-99402343D01*
X114502368Y-99402344D01*
X114290423Y-99437711D01*
X114290411Y-99437713D01*
X114285365Y-99438556D01*
X114280515Y-99440220D01*
X114280511Y-99440222D01*
X114077273Y-99509993D01*
X114077262Y-99509997D01*
X114072426Y-99511658D01*
X114067929Y-99514091D01*
X114067919Y-99514096D01*
X113878934Y-99616369D01*
X113878922Y-99616376D01*
X113874424Y-99618811D01*
X113870389Y-99621951D01*
X113870376Y-99621960D01*
X113700801Y-99753948D01*
X113700795Y-99753952D01*
X113696760Y-99757094D01*
X113693297Y-99760855D01*
X113693288Y-99760864D01*
X113547753Y-99918956D01*
X113547747Y-99918963D01*
X113544278Y-99922732D01*
X113541481Y-99927012D01*
X113541474Y-99927022D01*
X113453809Y-100061205D01*
X113409017Y-100102438D01*
X113350000Y-100117383D01*
X113290983Y-100102438D01*
X113246191Y-100061205D01*
X113158525Y-99927022D01*
X113158523Y-99927020D01*
X113155722Y-99922732D01*
X113152246Y-99918956D01*
X113006711Y-99760864D01*
X113006708Y-99760861D01*
X113003240Y-99757094D01*
X112990597Y-99747253D01*
X112829623Y-99621960D01*
X112829615Y-99621955D01*
X112825576Y-99618811D01*
X112821071Y-99616373D01*
X112821065Y-99616369D01*
X112632080Y-99514096D01*
X112632074Y-99514093D01*
X112627574Y-99511658D01*
X112622733Y-99509996D01*
X112622726Y-99509993D01*
X112419488Y-99440222D01*
X112419487Y-99440221D01*
X112414635Y-99438556D01*
X112409585Y-99437713D01*
X112409576Y-99437711D01*
X112197631Y-99402344D01*
X112197622Y-99402343D01*
X112192569Y-99401500D01*
X111967431Y-99401500D01*
X111962378Y-99402343D01*
X111962368Y-99402344D01*
X111750423Y-99437711D01*
X111750411Y-99437713D01*
X111745365Y-99438556D01*
X111740515Y-99440220D01*
X111740511Y-99440222D01*
X111537273Y-99509993D01*
X111537262Y-99509997D01*
X111532426Y-99511658D01*
X111527929Y-99514091D01*
X111527919Y-99514096D01*
X111338934Y-99616369D01*
X111338922Y-99616376D01*
X111334424Y-99618811D01*
X111330389Y-99621951D01*
X111330376Y-99621960D01*
X111160801Y-99753948D01*
X111160795Y-99753952D01*
X111156760Y-99757094D01*
X111153297Y-99760855D01*
X111153288Y-99760864D01*
X111007753Y-99918956D01*
X111007747Y-99918963D01*
X111004278Y-99922732D01*
X111001481Y-99927012D01*
X111001474Y-99927022D01*
X110913809Y-100061205D01*
X110869017Y-100102438D01*
X110810000Y-100117383D01*
X110750983Y-100102438D01*
X110706191Y-100061205D01*
X110618525Y-99927022D01*
X110618523Y-99927020D01*
X110615722Y-99922732D01*
X110612246Y-99918956D01*
X110466711Y-99760864D01*
X110466708Y-99760861D01*
X110463240Y-99757094D01*
X110450597Y-99747253D01*
X110289623Y-99621960D01*
X110289615Y-99621955D01*
X110285576Y-99618811D01*
X110281071Y-99616373D01*
X110281065Y-99616369D01*
X110092080Y-99514096D01*
X110092074Y-99514093D01*
X110087574Y-99511658D01*
X110082733Y-99509996D01*
X110082726Y-99509993D01*
X109879488Y-99440222D01*
X109879487Y-99440221D01*
X109874635Y-99438556D01*
X109869585Y-99437713D01*
X109869576Y-99437711D01*
X109657631Y-99402344D01*
X109657622Y-99402343D01*
X109652569Y-99401500D01*
X109427431Y-99401500D01*
X109422378Y-99402343D01*
X109422368Y-99402344D01*
X109210423Y-99437711D01*
X109210411Y-99437713D01*
X109205365Y-99438556D01*
X109200515Y-99440220D01*
X109200511Y-99440222D01*
X108997273Y-99509993D01*
X108997262Y-99509997D01*
X108992426Y-99511658D01*
X108987929Y-99514091D01*
X108987919Y-99514096D01*
X108798934Y-99616369D01*
X108798922Y-99616376D01*
X108794424Y-99618811D01*
X108790389Y-99621951D01*
X108790376Y-99621960D01*
X108620801Y-99753948D01*
X108620795Y-99753952D01*
X108616760Y-99757094D01*
X108613297Y-99760855D01*
X108613288Y-99760864D01*
X108467753Y-99918956D01*
X108467747Y-99918963D01*
X108464278Y-99922732D01*
X108461481Y-99927012D01*
X108461474Y-99927022D01*
X108373809Y-100061205D01*
X108329017Y-100102438D01*
X108270000Y-100117383D01*
X108210983Y-100102438D01*
X108166191Y-100061205D01*
X108078525Y-99927022D01*
X108078523Y-99927020D01*
X108075722Y-99922732D01*
X108072246Y-99918956D01*
X107926711Y-99760864D01*
X107926708Y-99760861D01*
X107923240Y-99757094D01*
X107910597Y-99747253D01*
X107749623Y-99621960D01*
X107749615Y-99621955D01*
X107745576Y-99618811D01*
X107741071Y-99616373D01*
X107741065Y-99616369D01*
X107552080Y-99514096D01*
X107552074Y-99514093D01*
X107547574Y-99511658D01*
X107542733Y-99509996D01*
X107542726Y-99509993D01*
X107339488Y-99440222D01*
X107339487Y-99440221D01*
X107334635Y-99438556D01*
X107329585Y-99437713D01*
X107329576Y-99437711D01*
X107117631Y-99402344D01*
X107117622Y-99402343D01*
X107112569Y-99401500D01*
X106887431Y-99401500D01*
X106882378Y-99402343D01*
X106882368Y-99402344D01*
X106670423Y-99437711D01*
X106670411Y-99437713D01*
X106665365Y-99438556D01*
X106660515Y-99440220D01*
X106660511Y-99440222D01*
X106457273Y-99509993D01*
X106457262Y-99509997D01*
X106452426Y-99511658D01*
X106447929Y-99514091D01*
X106447919Y-99514096D01*
X106258934Y-99616369D01*
X106258922Y-99616376D01*
X106254424Y-99618811D01*
X106250389Y-99621951D01*
X106250376Y-99621960D01*
X106080801Y-99753948D01*
X106080795Y-99753952D01*
X106076760Y-99757094D01*
X106073297Y-99760855D01*
X106073288Y-99760864D01*
X105927753Y-99918956D01*
X105927747Y-99918963D01*
X105924278Y-99922732D01*
X105921481Y-99927012D01*
X105921474Y-99927022D01*
X105806871Y-100102437D01*
X105801140Y-100111209D01*
X105799085Y-100115892D01*
X105799080Y-100115903D01*
X105730000Y-100273393D01*
X105710704Y-100317384D01*
X105709446Y-100322349D01*
X105709445Y-100322354D01*
X105656695Y-100530657D01*
X105656693Y-100530666D01*
X105655436Y-100535632D01*
X105655012Y-100540741D01*
X105655011Y-100540751D01*
X105637268Y-100754883D01*
X105636844Y-100760000D01*
X102075500Y-100760000D01*
X102075500Y-89032551D01*
X107672688Y-89032551D01*
X107673056Y-89043780D01*
X107725168Y-89238263D01*
X107728856Y-89248397D01*
X107824113Y-89452676D01*
X107829501Y-89462008D01*
X107958784Y-89646643D01*
X107965721Y-89654909D01*
X108125090Y-89814278D01*
X108133356Y-89821215D01*
X108317991Y-89950498D01*
X108327323Y-89955886D01*
X108531602Y-90051143D01*
X108541736Y-90054831D01*
X108736219Y-90106943D01*
X108747448Y-90107311D01*
X108750000Y-90096369D01*
X108750000Y-89046326D01*
X108746549Y-89033450D01*
X108733674Y-89030000D01*
X107683631Y-89030000D01*
X107672688Y-89032551D01*
X102075500Y-89032551D01*
X102075500Y-67056330D01*
X103745710Y-67056330D01*
X103746455Y-67061833D01*
X103746456Y-67061844D01*
X103760155Y-67162969D01*
X103775925Y-67279387D01*
X103777644Y-67284680D01*
X103777646Y-67284685D01*
X103843761Y-67488167D01*
X103843764Y-67488175D01*
X103845483Y-67493464D01*
X103848121Y-67498366D01*
X103949512Y-67686784D01*
X103949516Y-67686790D01*
X103952148Y-67691681D01*
X103955612Y-67696025D01*
X103955615Y-67696029D01*
X104089022Y-67863315D01*
X104092492Y-67867666D01*
X104262004Y-68015765D01*
X104455236Y-68131215D01*
X104665976Y-68210307D01*
X104887453Y-68250500D01*
X105053378Y-68250500D01*
X105056155Y-68250500D01*
X105224188Y-68235377D01*
X105441170Y-68175493D01*
X105643973Y-68077829D01*
X105826078Y-67945522D01*
X105981632Y-67782825D01*
X106105635Y-67594968D01*
X106194103Y-67387988D01*
X106244191Y-67168537D01*
X106249230Y-67056330D01*
X143745710Y-67056330D01*
X143746455Y-67061833D01*
X143746456Y-67061844D01*
X143760155Y-67162969D01*
X143775925Y-67279387D01*
X143777644Y-67284680D01*
X143777646Y-67284685D01*
X143843761Y-67488167D01*
X143843764Y-67488175D01*
X143845483Y-67493464D01*
X143848121Y-67498366D01*
X143949512Y-67686784D01*
X143949516Y-67686790D01*
X143952148Y-67691681D01*
X143955612Y-67696025D01*
X143955615Y-67696029D01*
X144089022Y-67863315D01*
X144092492Y-67867666D01*
X144262004Y-68015765D01*
X144455236Y-68131215D01*
X144665976Y-68210307D01*
X144887453Y-68250500D01*
X145053378Y-68250500D01*
X145056155Y-68250500D01*
X145224188Y-68235377D01*
X145441170Y-68175493D01*
X145643973Y-68077829D01*
X145826078Y-67945522D01*
X145981632Y-67782825D01*
X146105635Y-67594968D01*
X146194103Y-67387988D01*
X146244191Y-67168537D01*
X146254290Y-66943670D01*
X146224075Y-66720613D01*
X146154517Y-66506536D01*
X146047852Y-66308319D01*
X145978877Y-66221828D01*
X145910977Y-66136684D01*
X145907508Y-66132334D01*
X145737996Y-65984235D01*
X145733218Y-65981380D01*
X145733215Y-65981378D01*
X145549545Y-65871641D01*
X145549540Y-65871638D01*
X145544764Y-65868785D01*
X145539547Y-65866827D01*
X145339239Y-65791650D01*
X145339236Y-65791649D01*
X145334024Y-65789693D01*
X145328546Y-65788698D01*
X145328543Y-65788698D01*
X145118030Y-65750495D01*
X145118029Y-65750494D01*
X145112547Y-65749500D01*
X144943845Y-65749500D01*
X144941097Y-65749747D01*
X144941081Y-65749748D01*
X144781360Y-65764123D01*
X144781352Y-65764124D01*
X144775812Y-65764623D01*
X144770448Y-65766103D01*
X144770439Y-65766105D01*
X144564201Y-65823024D01*
X144564194Y-65823026D01*
X144558830Y-65824507D01*
X144553812Y-65826923D01*
X144553808Y-65826925D01*
X144361048Y-65919752D01*
X144361039Y-65919757D01*
X144356027Y-65922171D01*
X144351525Y-65925441D01*
X144351518Y-65925446D01*
X144178429Y-66051203D01*
X144178425Y-66051205D01*
X144173922Y-66054478D01*
X144170083Y-66058492D01*
X144170074Y-66058501D01*
X144022218Y-66213147D01*
X144022212Y-66213154D01*
X144018368Y-66217175D01*
X144015299Y-66221823D01*
X144015296Y-66221828D01*
X143897435Y-66400380D01*
X143897431Y-66400386D01*
X143894365Y-66405032D01*
X143892178Y-66410148D01*
X143892173Y-66410158D01*
X143808088Y-66606884D01*
X143808085Y-66606892D01*
X143805897Y-66612012D01*
X143804657Y-66617441D01*
X143804656Y-66617447D01*
X143779850Y-66726132D01*
X143755809Y-66831463D01*
X143755559Y-66837019D01*
X143755558Y-66837030D01*
X143750520Y-66949230D01*
X143745710Y-67056330D01*
X106249230Y-67056330D01*
X106254290Y-66943670D01*
X106224075Y-66720613D01*
X106154517Y-66506536D01*
X106047852Y-66308319D01*
X105978877Y-66221828D01*
X105910977Y-66136684D01*
X105907508Y-66132334D01*
X105737996Y-65984235D01*
X105733218Y-65981380D01*
X105733215Y-65981378D01*
X105549545Y-65871641D01*
X105549540Y-65871638D01*
X105544764Y-65868785D01*
X105539547Y-65866827D01*
X105339239Y-65791650D01*
X105339236Y-65791649D01*
X105334024Y-65789693D01*
X105328546Y-65788698D01*
X105328543Y-65788698D01*
X105118030Y-65750495D01*
X105118029Y-65750494D01*
X105112547Y-65749500D01*
X104943845Y-65749500D01*
X104941097Y-65749747D01*
X104941081Y-65749748D01*
X104781360Y-65764123D01*
X104781352Y-65764124D01*
X104775812Y-65764623D01*
X104770448Y-65766103D01*
X104770439Y-65766105D01*
X104564201Y-65823024D01*
X104564194Y-65823026D01*
X104558830Y-65824507D01*
X104553812Y-65826923D01*
X104553808Y-65826925D01*
X104361048Y-65919752D01*
X104361039Y-65919757D01*
X104356027Y-65922171D01*
X104351525Y-65925441D01*
X104351518Y-65925446D01*
X104178429Y-66051203D01*
X104178425Y-66051205D01*
X104173922Y-66054478D01*
X104170083Y-66058492D01*
X104170074Y-66058501D01*
X104022218Y-66213147D01*
X104022212Y-66213154D01*
X104018368Y-66217175D01*
X104015299Y-66221823D01*
X104015296Y-66221828D01*
X103897435Y-66400380D01*
X103897431Y-66400386D01*
X103894365Y-66405032D01*
X103892178Y-66410148D01*
X103892173Y-66410158D01*
X103808088Y-66606884D01*
X103808085Y-66606892D01*
X103805897Y-66612012D01*
X103804657Y-66617441D01*
X103804656Y-66617447D01*
X103779850Y-66726132D01*
X103755809Y-66831463D01*
X103755559Y-66837019D01*
X103755558Y-66837030D01*
X103750520Y-66949230D01*
X103745710Y-67056330D01*
X102075500Y-67056330D01*
X102075500Y-64199500D01*
X102092113Y-64137500D01*
X102137500Y-64092113D01*
X102199500Y-64075500D01*
X147800500Y-64075500D01*
X147862500Y-64092113D01*
G37*
%TD.AperFunction*%
%TD*%
M02*
