%TF.GenerationSoftware,KiCad,Pcbnew,7.0.7-7.0.7~ubuntu20.04.1*%
%TF.CreationDate,2023-08-24T10:10:08-04:00*%
%TF.ProjectId,board_pf_cese,626f6172-645f-4706-965f-636573652e6b,rev?*%
%TF.SameCoordinates,Original*%
%TF.FileFunction,Legend,Top*%
%TF.FilePolarity,Positive*%
%FSLAX46Y46*%
G04 Gerber Fmt 4.6, Leading zero omitted, Abs format (unit mm)*
G04 Created by KiCad (PCBNEW 7.0.7-7.0.7~ubuntu20.04.1) date 2023-08-24 10:10:08*
%MOMM*%
%LPD*%
G01*
G04 APERTURE LIST*
%ADD10C,0.150000*%
%ADD11C,0.120000*%
G04 APERTURE END LIST*
D10*
X139294819Y-81079523D02*
X140009104Y-81079523D01*
X140009104Y-81079523D02*
X140151961Y-81127142D01*
X140151961Y-81127142D02*
X140247200Y-81222380D01*
X140247200Y-81222380D02*
X140294819Y-81365237D01*
X140294819Y-81365237D02*
X140294819Y-81460475D01*
X140294819Y-80079523D02*
X140294819Y-80650951D01*
X140294819Y-80365237D02*
X139294819Y-80365237D01*
X139294819Y-80365237D02*
X139437676Y-80460475D01*
X139437676Y-80460475D02*
X139532914Y-80555713D01*
X139532914Y-80555713D02*
X139580533Y-80650951D01*
X139294819Y-79460475D02*
X139294819Y-79365237D01*
X139294819Y-79365237D02*
X139342438Y-79269999D01*
X139342438Y-79269999D02*
X139390057Y-79222380D01*
X139390057Y-79222380D02*
X139485295Y-79174761D01*
X139485295Y-79174761D02*
X139675771Y-79127142D01*
X139675771Y-79127142D02*
X139913866Y-79127142D01*
X139913866Y-79127142D02*
X140104342Y-79174761D01*
X140104342Y-79174761D02*
X140199580Y-79222380D01*
X140199580Y-79222380D02*
X140247200Y-79269999D01*
X140247200Y-79269999D02*
X140294819Y-79365237D01*
X140294819Y-79365237D02*
X140294819Y-79460475D01*
X140294819Y-79460475D02*
X140247200Y-79555713D01*
X140247200Y-79555713D02*
X140199580Y-79603332D01*
X140199580Y-79603332D02*
X140104342Y-79650951D01*
X140104342Y-79650951D02*
X139913866Y-79698570D01*
X139913866Y-79698570D02*
X139675771Y-79698570D01*
X139675771Y-79698570D02*
X139485295Y-79650951D01*
X139485295Y-79650951D02*
X139390057Y-79603332D01*
X139390057Y-79603332D02*
X139342438Y-79555713D01*
X139342438Y-79555713D02*
X139294819Y-79460475D01*
X125684819Y-127333333D02*
X126399104Y-127333333D01*
X126399104Y-127333333D02*
X126541961Y-127380952D01*
X126541961Y-127380952D02*
X126637200Y-127476190D01*
X126637200Y-127476190D02*
X126684819Y-127619047D01*
X126684819Y-127619047D02*
X126684819Y-127714285D01*
X125684819Y-126380952D02*
X125684819Y-126857142D01*
X125684819Y-126857142D02*
X126161009Y-126904761D01*
X126161009Y-126904761D02*
X126113390Y-126857142D01*
X126113390Y-126857142D02*
X126065771Y-126761904D01*
X126065771Y-126761904D02*
X126065771Y-126523809D01*
X126065771Y-126523809D02*
X126113390Y-126428571D01*
X126113390Y-126428571D02*
X126161009Y-126380952D01*
X126161009Y-126380952D02*
X126256247Y-126333333D01*
X126256247Y-126333333D02*
X126494342Y-126333333D01*
X126494342Y-126333333D02*
X126589580Y-126380952D01*
X126589580Y-126380952D02*
X126637200Y-126428571D01*
X126637200Y-126428571D02*
X126684819Y-126523809D01*
X126684819Y-126523809D02*
X126684819Y-126761904D01*
X126684819Y-126761904D02*
X126637200Y-126857142D01*
X126637200Y-126857142D02*
X126589580Y-126904761D01*
X108666666Y-67684819D02*
X108666666Y-68399104D01*
X108666666Y-68399104D02*
X108619047Y-68541961D01*
X108619047Y-68541961D02*
X108523809Y-68637200D01*
X108523809Y-68637200D02*
X108380952Y-68684819D01*
X108380952Y-68684819D02*
X108285714Y-68684819D01*
X109285714Y-68113390D02*
X109190476Y-68065771D01*
X109190476Y-68065771D02*
X109142857Y-68018152D01*
X109142857Y-68018152D02*
X109095238Y-67922914D01*
X109095238Y-67922914D02*
X109095238Y-67875295D01*
X109095238Y-67875295D02*
X109142857Y-67780057D01*
X109142857Y-67780057D02*
X109190476Y-67732438D01*
X109190476Y-67732438D02*
X109285714Y-67684819D01*
X109285714Y-67684819D02*
X109476190Y-67684819D01*
X109476190Y-67684819D02*
X109571428Y-67732438D01*
X109571428Y-67732438D02*
X109619047Y-67780057D01*
X109619047Y-67780057D02*
X109666666Y-67875295D01*
X109666666Y-67875295D02*
X109666666Y-67922914D01*
X109666666Y-67922914D02*
X109619047Y-68018152D01*
X109619047Y-68018152D02*
X109571428Y-68065771D01*
X109571428Y-68065771D02*
X109476190Y-68113390D01*
X109476190Y-68113390D02*
X109285714Y-68113390D01*
X109285714Y-68113390D02*
X109190476Y-68161009D01*
X109190476Y-68161009D02*
X109142857Y-68208628D01*
X109142857Y-68208628D02*
X109095238Y-68303866D01*
X109095238Y-68303866D02*
X109095238Y-68494342D01*
X109095238Y-68494342D02*
X109142857Y-68589580D01*
X109142857Y-68589580D02*
X109190476Y-68637200D01*
X109190476Y-68637200D02*
X109285714Y-68684819D01*
X109285714Y-68684819D02*
X109476190Y-68684819D01*
X109476190Y-68684819D02*
X109571428Y-68637200D01*
X109571428Y-68637200D02*
X109619047Y-68589580D01*
X109619047Y-68589580D02*
X109666666Y-68494342D01*
X109666666Y-68494342D02*
X109666666Y-68303866D01*
X109666666Y-68303866D02*
X109619047Y-68208628D01*
X109619047Y-68208628D02*
X109571428Y-68161009D01*
X109571428Y-68161009D02*
X109476190Y-68113390D01*
X139753333Y-92084819D02*
X139420000Y-91608628D01*
X139181905Y-92084819D02*
X139181905Y-91084819D01*
X139181905Y-91084819D02*
X139562857Y-91084819D01*
X139562857Y-91084819D02*
X139658095Y-91132438D01*
X139658095Y-91132438D02*
X139705714Y-91180057D01*
X139705714Y-91180057D02*
X139753333Y-91275295D01*
X139753333Y-91275295D02*
X139753333Y-91418152D01*
X139753333Y-91418152D02*
X139705714Y-91513390D01*
X139705714Y-91513390D02*
X139658095Y-91561009D01*
X139658095Y-91561009D02*
X139562857Y-91608628D01*
X139562857Y-91608628D02*
X139181905Y-91608628D01*
X140705714Y-92084819D02*
X140134286Y-92084819D01*
X140420000Y-92084819D02*
X140420000Y-91084819D01*
X140420000Y-91084819D02*
X140324762Y-91227676D01*
X140324762Y-91227676D02*
X140229524Y-91322914D01*
X140229524Y-91322914D02*
X140134286Y-91370533D01*
X138994819Y-72873333D02*
X139709104Y-72873333D01*
X139709104Y-72873333D02*
X139851961Y-72920952D01*
X139851961Y-72920952D02*
X139947200Y-73016190D01*
X139947200Y-73016190D02*
X139994819Y-73159047D01*
X139994819Y-73159047D02*
X139994819Y-73254285D01*
X139994819Y-71873333D02*
X139994819Y-72444761D01*
X139994819Y-72159047D02*
X138994819Y-72159047D01*
X138994819Y-72159047D02*
X139137676Y-72254285D01*
X139137676Y-72254285D02*
X139232914Y-72349523D01*
X139232914Y-72349523D02*
X139280533Y-72444761D01*
X136761905Y-85114819D02*
X136761905Y-84114819D01*
X136761905Y-84114819D02*
X137000000Y-84114819D01*
X137000000Y-84114819D02*
X137142857Y-84162438D01*
X137142857Y-84162438D02*
X137238095Y-84257676D01*
X137238095Y-84257676D02*
X137285714Y-84352914D01*
X137285714Y-84352914D02*
X137333333Y-84543390D01*
X137333333Y-84543390D02*
X137333333Y-84686247D01*
X137333333Y-84686247D02*
X137285714Y-84876723D01*
X137285714Y-84876723D02*
X137238095Y-84971961D01*
X137238095Y-84971961D02*
X137142857Y-85067200D01*
X137142857Y-85067200D02*
X137000000Y-85114819D01*
X137000000Y-85114819D02*
X136761905Y-85114819D01*
X137714286Y-84210057D02*
X137761905Y-84162438D01*
X137761905Y-84162438D02*
X137857143Y-84114819D01*
X137857143Y-84114819D02*
X138095238Y-84114819D01*
X138095238Y-84114819D02*
X138190476Y-84162438D01*
X138190476Y-84162438D02*
X138238095Y-84210057D01*
X138238095Y-84210057D02*
X138285714Y-84305295D01*
X138285714Y-84305295D02*
X138285714Y-84400533D01*
X138285714Y-84400533D02*
X138238095Y-84543390D01*
X138238095Y-84543390D02*
X137666667Y-85114819D01*
X137666667Y-85114819D02*
X138285714Y-85114819D01*
X144784819Y-101093333D02*
X145499104Y-101093333D01*
X145499104Y-101093333D02*
X145641961Y-101140952D01*
X145641961Y-101140952D02*
X145737200Y-101236190D01*
X145737200Y-101236190D02*
X145784819Y-101379047D01*
X145784819Y-101379047D02*
X145784819Y-101474285D01*
X144784819Y-100712380D02*
X144784819Y-100045714D01*
X144784819Y-100045714D02*
X145784819Y-100474285D01*
X125604819Y-122333333D02*
X126319104Y-122333333D01*
X126319104Y-122333333D02*
X126461961Y-122380952D01*
X126461961Y-122380952D02*
X126557200Y-122476190D01*
X126557200Y-122476190D02*
X126604819Y-122619047D01*
X126604819Y-122619047D02*
X126604819Y-122714285D01*
X125604819Y-121952380D02*
X125604819Y-121333333D01*
X125604819Y-121333333D02*
X125985771Y-121666666D01*
X125985771Y-121666666D02*
X125985771Y-121523809D01*
X125985771Y-121523809D02*
X126033390Y-121428571D01*
X126033390Y-121428571D02*
X126081009Y-121380952D01*
X126081009Y-121380952D02*
X126176247Y-121333333D01*
X126176247Y-121333333D02*
X126414342Y-121333333D01*
X126414342Y-121333333D02*
X126509580Y-121380952D01*
X126509580Y-121380952D02*
X126557200Y-121428571D01*
X126557200Y-121428571D02*
X126604819Y-121523809D01*
X126604819Y-121523809D02*
X126604819Y-121809523D01*
X126604819Y-121809523D02*
X126557200Y-121904761D01*
X126557200Y-121904761D02*
X126509580Y-121952380D01*
X125833333Y-92084819D02*
X125500000Y-91608628D01*
X125261905Y-92084819D02*
X125261905Y-91084819D01*
X125261905Y-91084819D02*
X125642857Y-91084819D01*
X125642857Y-91084819D02*
X125738095Y-91132438D01*
X125738095Y-91132438D02*
X125785714Y-91180057D01*
X125785714Y-91180057D02*
X125833333Y-91275295D01*
X125833333Y-91275295D02*
X125833333Y-91418152D01*
X125833333Y-91418152D02*
X125785714Y-91513390D01*
X125785714Y-91513390D02*
X125738095Y-91561009D01*
X125738095Y-91561009D02*
X125642857Y-91608628D01*
X125642857Y-91608628D02*
X125261905Y-91608628D01*
X126214286Y-91180057D02*
X126261905Y-91132438D01*
X126261905Y-91132438D02*
X126357143Y-91084819D01*
X126357143Y-91084819D02*
X126595238Y-91084819D01*
X126595238Y-91084819D02*
X126690476Y-91132438D01*
X126690476Y-91132438D02*
X126738095Y-91180057D01*
X126738095Y-91180057D02*
X126785714Y-91275295D01*
X126785714Y-91275295D02*
X126785714Y-91370533D01*
X126785714Y-91370533D02*
X126738095Y-91513390D01*
X126738095Y-91513390D02*
X126166667Y-92084819D01*
X126166667Y-92084819D02*
X126785714Y-92084819D01*
X131526666Y-91074819D02*
X131526666Y-91789104D01*
X131526666Y-91789104D02*
X131479047Y-91931961D01*
X131479047Y-91931961D02*
X131383809Y-92027200D01*
X131383809Y-92027200D02*
X131240952Y-92074819D01*
X131240952Y-92074819D02*
X131145714Y-92074819D01*
X132050476Y-92074819D02*
X132240952Y-92074819D01*
X132240952Y-92074819D02*
X132336190Y-92027200D01*
X132336190Y-92027200D02*
X132383809Y-91979580D01*
X132383809Y-91979580D02*
X132479047Y-91836723D01*
X132479047Y-91836723D02*
X132526666Y-91646247D01*
X132526666Y-91646247D02*
X132526666Y-91265295D01*
X132526666Y-91265295D02*
X132479047Y-91170057D01*
X132479047Y-91170057D02*
X132431428Y-91122438D01*
X132431428Y-91122438D02*
X132336190Y-91074819D01*
X132336190Y-91074819D02*
X132145714Y-91074819D01*
X132145714Y-91074819D02*
X132050476Y-91122438D01*
X132050476Y-91122438D02*
X132002857Y-91170057D01*
X132002857Y-91170057D02*
X131955238Y-91265295D01*
X131955238Y-91265295D02*
X131955238Y-91503390D01*
X131955238Y-91503390D02*
X132002857Y-91598628D01*
X132002857Y-91598628D02*
X132050476Y-91646247D01*
X132050476Y-91646247D02*
X132145714Y-91693866D01*
X132145714Y-91693866D02*
X132336190Y-91693866D01*
X132336190Y-91693866D02*
X132431428Y-91646247D01*
X132431428Y-91646247D02*
X132479047Y-91598628D01*
X132479047Y-91598628D02*
X132526666Y-91503390D01*
X110684819Y-122333333D02*
X111399104Y-122333333D01*
X111399104Y-122333333D02*
X111541961Y-122380952D01*
X111541961Y-122380952D02*
X111637200Y-122476190D01*
X111637200Y-122476190D02*
X111684819Y-122619047D01*
X111684819Y-122619047D02*
X111684819Y-122714285D01*
X110780057Y-121904761D02*
X110732438Y-121857142D01*
X110732438Y-121857142D02*
X110684819Y-121761904D01*
X110684819Y-121761904D02*
X110684819Y-121523809D01*
X110684819Y-121523809D02*
X110732438Y-121428571D01*
X110732438Y-121428571D02*
X110780057Y-121380952D01*
X110780057Y-121380952D02*
X110875295Y-121333333D01*
X110875295Y-121333333D02*
X110970533Y-121333333D01*
X110970533Y-121333333D02*
X111113390Y-121380952D01*
X111113390Y-121380952D02*
X111684819Y-121952380D01*
X111684819Y-121952380D02*
X111684819Y-121333333D01*
X146061905Y-91314819D02*
X146061905Y-90314819D01*
X146061905Y-90314819D02*
X146300000Y-90314819D01*
X146300000Y-90314819D02*
X146442857Y-90362438D01*
X146442857Y-90362438D02*
X146538095Y-90457676D01*
X146538095Y-90457676D02*
X146585714Y-90552914D01*
X146585714Y-90552914D02*
X146633333Y-90743390D01*
X146633333Y-90743390D02*
X146633333Y-90886247D01*
X146633333Y-90886247D02*
X146585714Y-91076723D01*
X146585714Y-91076723D02*
X146538095Y-91171961D01*
X146538095Y-91171961D02*
X146442857Y-91267200D01*
X146442857Y-91267200D02*
X146300000Y-91314819D01*
X146300000Y-91314819D02*
X146061905Y-91314819D01*
X147585714Y-91314819D02*
X147014286Y-91314819D01*
X147300000Y-91314819D02*
X147300000Y-90314819D01*
X147300000Y-90314819D02*
X147204762Y-90457676D01*
X147204762Y-90457676D02*
X147109524Y-90552914D01*
X147109524Y-90552914D02*
X147014286Y-90600533D01*
X110684819Y-127333333D02*
X111399104Y-127333333D01*
X111399104Y-127333333D02*
X111541961Y-127380952D01*
X111541961Y-127380952D02*
X111637200Y-127476190D01*
X111637200Y-127476190D02*
X111684819Y-127619047D01*
X111684819Y-127619047D02*
X111684819Y-127714285D01*
X111018152Y-126428571D02*
X111684819Y-126428571D01*
X110637200Y-126666666D02*
X111351485Y-126904761D01*
X111351485Y-126904761D02*
X111351485Y-126285714D01*
X144784819Y-116333333D02*
X145499104Y-116333333D01*
X145499104Y-116333333D02*
X145641961Y-116380952D01*
X145641961Y-116380952D02*
X145737200Y-116476190D01*
X145737200Y-116476190D02*
X145784819Y-116619047D01*
X145784819Y-116619047D02*
X145784819Y-116714285D01*
X144784819Y-115428571D02*
X144784819Y-115619047D01*
X144784819Y-115619047D02*
X144832438Y-115714285D01*
X144832438Y-115714285D02*
X144880057Y-115761904D01*
X144880057Y-115761904D02*
X145022914Y-115857142D01*
X145022914Y-115857142D02*
X145213390Y-115904761D01*
X145213390Y-115904761D02*
X145594342Y-115904761D01*
X145594342Y-115904761D02*
X145689580Y-115857142D01*
X145689580Y-115857142D02*
X145737200Y-115809523D01*
X145737200Y-115809523D02*
X145784819Y-115714285D01*
X145784819Y-115714285D02*
X145784819Y-115523809D01*
X145784819Y-115523809D02*
X145737200Y-115428571D01*
X145737200Y-115428571D02*
X145689580Y-115380952D01*
X145689580Y-115380952D02*
X145594342Y-115333333D01*
X145594342Y-115333333D02*
X145356247Y-115333333D01*
X145356247Y-115333333D02*
X145261009Y-115380952D01*
X145261009Y-115380952D02*
X145213390Y-115428571D01*
X145213390Y-115428571D02*
X145165771Y-115523809D01*
X145165771Y-115523809D02*
X145165771Y-115714285D01*
X145165771Y-115714285D02*
X145213390Y-115809523D01*
X145213390Y-115809523D02*
X145261009Y-115857142D01*
X145261009Y-115857142D02*
X145356247Y-115904761D01*
D11*
%TO.C,J10*%
X147160000Y-78210000D02*
X147160000Y-77440000D01*
X146600000Y-80750000D02*
X146600000Y-79790000D01*
X140840000Y-77440000D02*
X147160000Y-77440000D01*
X146600000Y-83100000D02*
X146600000Y-82330000D01*
X141300000Y-83100000D02*
X141300000Y-77440000D01*
X140840000Y-83100000D02*
X140840000Y-77440000D01*
X147160000Y-80750000D02*
X147160000Y-79790000D01*
X147400000Y-83340000D02*
X147400000Y-82840000D01*
X146600000Y-78210000D02*
X146600000Y-77440000D01*
X147160000Y-83100000D02*
X147160000Y-82330000D01*
X140840000Y-83100000D02*
X147160000Y-83100000D01*
X146660000Y-83340000D02*
X147400000Y-83340000D01*
%TO.C,J5*%
X130270000Y-125670000D02*
X137950000Y-125670000D01*
X127670000Y-125670000D02*
X129000000Y-125670000D01*
X127670000Y-127000000D02*
X127670000Y-125670000D01*
X137950000Y-128330000D02*
X137950000Y-125670000D01*
X130270000Y-128330000D02*
X130270000Y-125670000D01*
X130270000Y-128330000D02*
X137950000Y-128330000D01*
%TO.C,J8*%
X107670000Y-72270000D02*
X107670000Y-90110000D01*
X107670000Y-72270000D02*
X110330000Y-72270000D01*
X107670000Y-90110000D02*
X110330000Y-90110000D01*
X109000000Y-69670000D02*
X110330000Y-69670000D01*
X110330000Y-69670000D02*
X110330000Y-71000000D01*
X110330000Y-72270000D02*
X110330000Y-90110000D01*
%TO.C,R1*%
X135880000Y-94000000D02*
X136650000Y-94000000D01*
X136650000Y-92630000D02*
X136650000Y-95370000D01*
X136650000Y-95370000D02*
X143190000Y-95370000D01*
X143190000Y-92630000D02*
X136650000Y-92630000D01*
X143190000Y-95370000D02*
X143190000Y-92630000D01*
X143960000Y-94000000D02*
X143190000Y-94000000D01*
%TO.C,J1*%
X146660000Y-76340000D02*
X147400000Y-76340000D01*
X147400000Y-76340000D02*
X147400000Y-75840000D01*
X140840000Y-76100000D02*
X147160000Y-76100000D01*
X140840000Y-76100000D02*
X140840000Y-70440000D01*
X141300000Y-76100000D02*
X141300000Y-70440000D01*
X146600000Y-76100000D02*
X146600000Y-75330000D01*
X147160000Y-76100000D02*
X147160000Y-75330000D01*
X146600000Y-73750000D02*
X146600000Y-72790000D01*
X147160000Y-73750000D02*
X147160000Y-72790000D01*
X146600000Y-71210000D02*
X146600000Y-70440000D01*
X147160000Y-71210000D02*
X147160000Y-70440000D01*
X140840000Y-70440000D02*
X147160000Y-70440000D01*
%TO.C,D2*%
X140236000Y-86170000D02*
X140080000Y-86170000D01*
X137920000Y-86170000D02*
X137764000Y-86170000D01*
X140078608Y-89402334D02*
G75*
G03*
X140235515Y-86170001I-1078608J1672334D01*
G01*
X140079836Y-88771129D02*
G75*
G03*
X140079999Y-86689040I-1079836J1041129D01*
G01*
X137920001Y-86689040D02*
G75*
G03*
X137920164Y-88771129I1079999J-1040960D01*
G01*
X137764485Y-86170001D02*
G75*
G03*
X137921392Y-89402334I1235515J-1559999D01*
G01*
%TO.C,J7*%
X141290000Y-99430000D02*
X105670000Y-99430000D01*
X141290000Y-99430000D02*
X141290000Y-102090000D01*
X105670000Y-99430000D02*
X105670000Y-102090000D01*
X143890000Y-100760000D02*
X143890000Y-102090000D01*
X143890000Y-102090000D02*
X142560000Y-102090000D01*
X141290000Y-102090000D02*
X105670000Y-102090000D01*
%TO.C,J3*%
X130190000Y-123330000D02*
X137870000Y-123330000D01*
X130190000Y-123330000D02*
X130190000Y-120670000D01*
X137870000Y-123330000D02*
X137870000Y-120670000D01*
X127590000Y-122000000D02*
X127590000Y-120670000D01*
X127590000Y-120670000D02*
X128920000Y-120670000D01*
X130190000Y-120670000D02*
X137870000Y-120670000D01*
%TO.C,R2*%
X121960000Y-94000000D02*
X122730000Y-94000000D01*
X122730000Y-92630000D02*
X122730000Y-95370000D01*
X122730000Y-95370000D02*
X129270000Y-95370000D01*
X129270000Y-92630000D02*
X122730000Y-92630000D01*
X129270000Y-95370000D02*
X129270000Y-92630000D01*
X130040000Y-94000000D02*
X129270000Y-94000000D01*
%TO.C,J9*%
X130530000Y-72270000D02*
X130530000Y-90110000D01*
X130530000Y-72270000D02*
X133190000Y-72270000D01*
X130530000Y-90110000D02*
X133190000Y-90110000D01*
X131860000Y-69670000D02*
X133190000Y-69670000D01*
X133190000Y-69670000D02*
X133190000Y-71000000D01*
X133190000Y-72270000D02*
X133190000Y-90110000D01*
%TO.C,J2*%
X115270000Y-123330000D02*
X122950000Y-123330000D01*
X115270000Y-123330000D02*
X115270000Y-120670000D01*
X122950000Y-123330000D02*
X122950000Y-120670000D01*
X112670000Y-122000000D02*
X112670000Y-120670000D01*
X112670000Y-120670000D02*
X114000000Y-120670000D01*
X115270000Y-120670000D02*
X122950000Y-120670000D01*
%TO.C,D1*%
X146236000Y-86170000D02*
X146080000Y-86170000D01*
X143920000Y-86170000D02*
X143764000Y-86170000D01*
X146078608Y-89402334D02*
G75*
G03*
X146235515Y-86170001I-1078608J1672334D01*
G01*
X146079836Y-88771129D02*
G75*
G03*
X146079999Y-86689040I-1079836J1041129D01*
G01*
X143920001Y-86689040D02*
G75*
G03*
X143920164Y-88771129I1079999J-1040960D01*
G01*
X143764485Y-86170001D02*
G75*
G03*
X143921392Y-89402334I1235515J-1559999D01*
G01*
%TO.C,J4*%
X115270000Y-128330000D02*
X122950000Y-128330000D01*
X115270000Y-128330000D02*
X115270000Y-125670000D01*
X122950000Y-128330000D02*
X122950000Y-125670000D01*
X112670000Y-127000000D02*
X112670000Y-125670000D01*
X112670000Y-125670000D02*
X114000000Y-125670000D01*
X115270000Y-125670000D02*
X122950000Y-125670000D01*
%TO.C,J6*%
X141290000Y-114670000D02*
X105670000Y-114670000D01*
X141290000Y-114670000D02*
X141290000Y-117330000D01*
X105670000Y-114670000D02*
X105670000Y-117330000D01*
X143890000Y-116000000D02*
X143890000Y-117330000D01*
X143890000Y-117330000D02*
X142560000Y-117330000D01*
X141290000Y-117330000D02*
X105670000Y-117330000D01*
%TD*%
M02*
