%TF.GenerationSoftware,KiCad,Pcbnew,(7.0.0)*%
%TF.CreationDate,2023-07-19T17:41:16-04:00*%
%TF.ProjectId,board_pf_cese,626f6172-645f-4706-965f-636573652e6b,rev?*%
%TF.SameCoordinates,Original*%
%TF.FileFunction,Drillmap*%
%TF.FilePolarity,Positive*%
%FSLAX45Y45*%
G04 Gerber Fmt 4.5, Leading zero omitted, Abs format (unit mm)*
G04 Created by KiCad (PCBNEW (7.0.0)) date 2023-07-19 17:41:16*
%MOMM*%
%LPD*%
G01*
G04 APERTURE LIST*
%ADD10C,0.100000*%
%ADD11C,0.200000*%
%ADD12C,0.080000*%
%ADD13C,0.090000*%
%ADD14C,0.110000*%
G04 APERTURE END LIST*
D10*
X10000000Y-6200000D02*
X15000000Y-6200000D01*
X15000000Y-6200000D02*
X15000000Y-13200000D01*
X15000000Y-13200000D02*
X10000000Y-13200000D01*
X10000000Y-13200000D02*
X10000000Y-6200000D01*
D11*
D12*
X13860000Y-8452000D02*
X13940000Y-8532000D01*
X13940000Y-8452000D02*
X13860000Y-8532000D01*
X13860000Y-9468000D02*
X13940000Y-9548000D01*
X13940000Y-9468000D02*
X13860000Y-9548000D01*
X14460000Y-8452000D02*
X14540000Y-8532000D01*
X14540000Y-8452000D02*
X14460000Y-8532000D01*
X14460000Y-9468000D02*
X14540000Y-9548000D01*
X14540000Y-9468000D02*
X14460000Y-9548000D01*
D13*
X13945000Y-7900000D02*
G75*
G03*
X13945000Y-7900000I-45000J0D01*
G01*
X13945000Y-8154000D02*
G75*
G03*
X13945000Y-8154000I-45000J0D01*
G01*
X14545000Y-7900000D02*
G75*
G03*
X14545000Y-7900000I-45000J0D01*
G01*
X14545000Y-8154000D02*
G75*
G03*
X14545000Y-8154000I-45000J0D01*
G01*
D10*
X10700000Y-10026000D02*
X10700000Y-10126000D01*
X10650000Y-10076000D02*
X10750000Y-10076000D01*
X10700000Y-11550000D02*
X10700000Y-11650000D01*
X10650000Y-11600000D02*
X10750000Y-11600000D01*
X10900000Y-7050000D02*
X10900000Y-7150000D01*
X10850000Y-7100000D02*
X10950000Y-7100000D01*
X10900000Y-7304000D02*
X10900000Y-7404000D01*
X10850000Y-7354000D02*
X10950000Y-7354000D01*
X10900000Y-7558000D02*
X10900000Y-7658000D01*
X10850000Y-7608000D02*
X10950000Y-7608000D01*
X10900000Y-7812000D02*
X10900000Y-7912000D01*
X10850000Y-7862000D02*
X10950000Y-7862000D01*
X10900000Y-8066000D02*
X10900000Y-8166000D01*
X10850000Y-8116000D02*
X10950000Y-8116000D01*
X10900000Y-8320000D02*
X10900000Y-8420000D01*
X10850000Y-8370000D02*
X10950000Y-8370000D01*
X10900000Y-8574000D02*
X10900000Y-8674000D01*
X10850000Y-8624000D02*
X10950000Y-8624000D01*
X10900000Y-8828000D02*
X10900000Y-8928000D01*
X10850000Y-8878000D02*
X10950000Y-8878000D01*
X10954000Y-10026000D02*
X10954000Y-10126000D01*
X10904000Y-10076000D02*
X11004000Y-10076000D01*
X10954000Y-11550000D02*
X10954000Y-11650000D01*
X10904000Y-11600000D02*
X11004000Y-11600000D01*
X11208000Y-10026000D02*
X11208000Y-10126000D01*
X11158000Y-10076000D02*
X11258000Y-10076000D01*
X11208000Y-11550000D02*
X11208000Y-11650000D01*
X11158000Y-11600000D02*
X11258000Y-11600000D01*
X11400000Y-12150000D02*
X11400000Y-12250000D01*
X11350000Y-12200000D02*
X11450000Y-12200000D01*
X11400000Y-12650000D02*
X11400000Y-12750000D01*
X11350000Y-12700000D02*
X11450000Y-12700000D01*
X11462000Y-10026000D02*
X11462000Y-10126000D01*
X11412000Y-10076000D02*
X11512000Y-10076000D01*
X11462000Y-11550000D02*
X11462000Y-11650000D01*
X11412000Y-11600000D02*
X11512000Y-11600000D01*
X11654000Y-12150000D02*
X11654000Y-12250000D01*
X11604000Y-12200000D02*
X11704000Y-12200000D01*
X11654000Y-12650000D02*
X11654000Y-12750000D01*
X11604000Y-12700000D02*
X11704000Y-12700000D01*
X11716000Y-10026000D02*
X11716000Y-10126000D01*
X11666000Y-10076000D02*
X11766000Y-10076000D01*
X11716000Y-11550000D02*
X11716000Y-11650000D01*
X11666000Y-11600000D02*
X11766000Y-11600000D01*
X11908000Y-12150000D02*
X11908000Y-12250000D01*
X11858000Y-12200000D02*
X11958000Y-12200000D01*
X11908000Y-12650000D02*
X11908000Y-12750000D01*
X11858000Y-12700000D02*
X11958000Y-12700000D01*
X11970000Y-10026000D02*
X11970000Y-10126000D01*
X11920000Y-10076000D02*
X12020000Y-10076000D01*
X11970000Y-11550000D02*
X11970000Y-11650000D01*
X11920000Y-11600000D02*
X12020000Y-11600000D01*
X12162000Y-12150000D02*
X12162000Y-12250000D01*
X12112000Y-12200000D02*
X12212000Y-12200000D01*
X12162000Y-12650000D02*
X12162000Y-12750000D01*
X12112000Y-12700000D02*
X12212000Y-12700000D01*
X12224000Y-10026000D02*
X12224000Y-10126000D01*
X12174000Y-10076000D02*
X12274000Y-10076000D01*
X12224000Y-11550000D02*
X12224000Y-11650000D01*
X12174000Y-11600000D02*
X12274000Y-11600000D01*
X12478000Y-10026000D02*
X12478000Y-10126000D01*
X12428000Y-10076000D02*
X12528000Y-10076000D01*
X12478000Y-11550000D02*
X12478000Y-11650000D01*
X12428000Y-11600000D02*
X12528000Y-11600000D01*
X12732000Y-10026000D02*
X12732000Y-10126000D01*
X12682000Y-10076000D02*
X12782000Y-10076000D01*
X12732000Y-11550000D02*
X12732000Y-11650000D01*
X12682000Y-11600000D02*
X12782000Y-11600000D01*
X12892000Y-12150000D02*
X12892000Y-12250000D01*
X12842000Y-12200000D02*
X12942000Y-12200000D01*
X12900000Y-12650000D02*
X12900000Y-12750000D01*
X12850000Y-12700000D02*
X12950000Y-12700000D01*
X12986000Y-10026000D02*
X12986000Y-10126000D01*
X12936000Y-10076000D02*
X13036000Y-10076000D01*
X12986000Y-11550000D02*
X12986000Y-11650000D01*
X12936000Y-11600000D02*
X13036000Y-11600000D01*
X13146000Y-12150000D02*
X13146000Y-12250000D01*
X13096000Y-12200000D02*
X13196000Y-12200000D01*
X13154000Y-12650000D02*
X13154000Y-12750000D01*
X13104000Y-12700000D02*
X13204000Y-12700000D01*
X13186000Y-7050000D02*
X13186000Y-7150000D01*
X13136000Y-7100000D02*
X13236000Y-7100000D01*
X13186000Y-7304000D02*
X13186000Y-7404000D01*
X13136000Y-7354000D02*
X13236000Y-7354000D01*
X13186000Y-7558000D02*
X13186000Y-7658000D01*
X13136000Y-7608000D02*
X13236000Y-7608000D01*
X13186000Y-7812000D02*
X13186000Y-7912000D01*
X13136000Y-7862000D02*
X13236000Y-7862000D01*
X13186000Y-8066000D02*
X13186000Y-8166000D01*
X13136000Y-8116000D02*
X13236000Y-8116000D01*
X13186000Y-8320000D02*
X13186000Y-8420000D01*
X13136000Y-8370000D02*
X13236000Y-8370000D01*
X13186000Y-8574000D02*
X13186000Y-8674000D01*
X13136000Y-8624000D02*
X13236000Y-8624000D01*
X13186000Y-8828000D02*
X13186000Y-8928000D01*
X13136000Y-8878000D02*
X13236000Y-8878000D01*
X13240000Y-10026000D02*
X13240000Y-10126000D01*
X13190000Y-10076000D02*
X13290000Y-10076000D01*
X13240000Y-11550000D02*
X13240000Y-11650000D01*
X13190000Y-11600000D02*
X13290000Y-11600000D01*
X13400000Y-12150000D02*
X13400000Y-12250000D01*
X13350000Y-12200000D02*
X13450000Y-12200000D01*
X13408000Y-12650000D02*
X13408000Y-12750000D01*
X13358000Y-12700000D02*
X13458000Y-12700000D01*
X13494000Y-10026000D02*
X13494000Y-10126000D01*
X13444000Y-10076000D02*
X13544000Y-10076000D01*
X13494000Y-11550000D02*
X13494000Y-11650000D01*
X13444000Y-11600000D02*
X13544000Y-11600000D01*
X13654000Y-12150000D02*
X13654000Y-12250000D01*
X13604000Y-12200000D02*
X13704000Y-12200000D01*
X13662000Y-12650000D02*
X13662000Y-12750000D01*
X13612000Y-12700000D02*
X13712000Y-12700000D01*
X13748000Y-10026000D02*
X13748000Y-10126000D01*
X13698000Y-10076000D02*
X13798000Y-10076000D01*
X13748000Y-11550000D02*
X13748000Y-11650000D01*
X13698000Y-11600000D02*
X13798000Y-11600000D01*
X14002000Y-10026000D02*
X14002000Y-10126000D01*
X13952000Y-10076000D02*
X14052000Y-10076000D01*
X14002000Y-11550000D02*
X14002000Y-11650000D01*
X13952000Y-11600000D02*
X14052000Y-11600000D01*
X14256000Y-10026000D02*
X14256000Y-10126000D01*
X14206000Y-10076000D02*
X14306000Y-10076000D01*
X14256000Y-11550000D02*
X14256000Y-11650000D01*
X14206000Y-11600000D02*
X14306000Y-11600000D01*
D14*
X14438891Y-7238891D02*
X14438891Y-7161109D01*
X14361109Y-7161109D01*
X14361109Y-7238891D01*
X14438891Y-7238891D01*
X14438891Y-7492891D02*
X14438891Y-7415109D01*
X14361109Y-7415109D01*
X14361109Y-7492891D01*
X14438891Y-7492891D01*
X14654000Y-7255000D02*
X14709000Y-7200000D01*
X14654000Y-7145000D01*
X14599000Y-7200000D01*
X14654000Y-7255000D01*
X14654000Y-7509000D02*
X14709000Y-7454000D01*
X14654000Y-7399000D01*
X14599000Y-7454000D01*
X14654000Y-7509000D01*
D11*
X10400000Y-6600000D02*
X10600000Y-6800000D01*
X10600000Y-6600000D02*
X10400000Y-6800000D01*
X10600000Y-6700000D02*
G75*
G03*
X10600000Y-6700000I-100000J0D01*
G01*
X10400000Y-12600000D02*
X10600000Y-12800000D01*
X10600000Y-12600000D02*
X10400000Y-12800000D01*
X10600000Y-12700000D02*
G75*
G03*
X10600000Y-12700000I-100000J0D01*
G01*
X14400000Y-6600000D02*
X14600000Y-6800000D01*
X14600000Y-6600000D02*
X14400000Y-6800000D01*
X14600000Y-6700000D02*
G75*
G03*
X14600000Y-6700000I-100000J0D01*
G01*
X14400000Y-12600000D02*
X14600000Y-12800000D01*
X14600000Y-12600000D02*
X14400000Y-12800000D01*
X14600000Y-12700000D02*
G75*
G03*
X14600000Y-12700000I-100000J0D01*
G01*
X10242619Y-13498476D02*
X10242619Y-13298476D01*
X10242619Y-13298476D02*
X10290238Y-13298476D01*
X10290238Y-13298476D02*
X10318810Y-13308000D01*
X10318810Y-13308000D02*
X10337857Y-13327048D01*
X10337857Y-13327048D02*
X10347381Y-13346095D01*
X10347381Y-13346095D02*
X10356905Y-13384190D01*
X10356905Y-13384190D02*
X10356905Y-13412762D01*
X10356905Y-13412762D02*
X10347381Y-13450857D01*
X10347381Y-13450857D02*
X10337857Y-13469905D01*
X10337857Y-13469905D02*
X10318810Y-13488952D01*
X10318810Y-13488952D02*
X10290238Y-13498476D01*
X10290238Y-13498476D02*
X10242619Y-13498476D01*
X10442619Y-13498476D02*
X10442619Y-13365143D01*
X10442619Y-13403238D02*
X10452143Y-13384190D01*
X10452143Y-13384190D02*
X10461667Y-13374667D01*
X10461667Y-13374667D02*
X10480714Y-13365143D01*
X10480714Y-13365143D02*
X10499762Y-13365143D01*
X10566429Y-13498476D02*
X10566429Y-13365143D01*
X10566429Y-13298476D02*
X10556905Y-13308000D01*
X10556905Y-13308000D02*
X10566429Y-13317524D01*
X10566429Y-13317524D02*
X10575952Y-13308000D01*
X10575952Y-13308000D02*
X10566429Y-13298476D01*
X10566429Y-13298476D02*
X10566429Y-13317524D01*
X10690238Y-13498476D02*
X10671190Y-13488952D01*
X10671190Y-13488952D02*
X10661667Y-13469905D01*
X10661667Y-13469905D02*
X10661667Y-13298476D01*
X10795000Y-13498476D02*
X10775952Y-13488952D01*
X10775952Y-13488952D02*
X10766429Y-13469905D01*
X10766429Y-13469905D02*
X10766429Y-13298476D01*
X10991190Y-13498476D02*
X10991190Y-13298476D01*
X10991190Y-13298476D02*
X11057857Y-13441333D01*
X11057857Y-13441333D02*
X11124524Y-13298476D01*
X11124524Y-13298476D02*
X11124524Y-13498476D01*
X11305476Y-13498476D02*
X11305476Y-13393714D01*
X11305476Y-13393714D02*
X11295952Y-13374667D01*
X11295952Y-13374667D02*
X11276905Y-13365143D01*
X11276905Y-13365143D02*
X11238809Y-13365143D01*
X11238809Y-13365143D02*
X11219762Y-13374667D01*
X11305476Y-13488952D02*
X11286428Y-13498476D01*
X11286428Y-13498476D02*
X11238809Y-13498476D01*
X11238809Y-13498476D02*
X11219762Y-13488952D01*
X11219762Y-13488952D02*
X11210238Y-13469905D01*
X11210238Y-13469905D02*
X11210238Y-13450857D01*
X11210238Y-13450857D02*
X11219762Y-13431809D01*
X11219762Y-13431809D02*
X11238809Y-13422286D01*
X11238809Y-13422286D02*
X11286428Y-13422286D01*
X11286428Y-13422286D02*
X11305476Y-13412762D01*
X11400714Y-13365143D02*
X11400714Y-13565143D01*
X11400714Y-13374667D02*
X11419762Y-13365143D01*
X11419762Y-13365143D02*
X11457857Y-13365143D01*
X11457857Y-13365143D02*
X11476905Y-13374667D01*
X11476905Y-13374667D02*
X11486428Y-13384190D01*
X11486428Y-13384190D02*
X11495952Y-13403238D01*
X11495952Y-13403238D02*
X11495952Y-13460381D01*
X11495952Y-13460381D02*
X11486428Y-13479428D01*
X11486428Y-13479428D02*
X11476905Y-13488952D01*
X11476905Y-13488952D02*
X11457857Y-13498476D01*
X11457857Y-13498476D02*
X11419762Y-13498476D01*
X11419762Y-13498476D02*
X11400714Y-13488952D01*
X11581667Y-13479428D02*
X11591190Y-13488952D01*
X11591190Y-13488952D02*
X11581667Y-13498476D01*
X11581667Y-13498476D02*
X11572143Y-13488952D01*
X11572143Y-13488952D02*
X11581667Y-13479428D01*
X11581667Y-13479428D02*
X11581667Y-13498476D01*
X11581667Y-13374667D02*
X11591190Y-13384190D01*
X11591190Y-13384190D02*
X11581667Y-13393714D01*
X11581667Y-13393714D02*
X11572143Y-13384190D01*
X11572143Y-13384190D02*
X11581667Y-13374667D01*
X11581667Y-13374667D02*
X11581667Y-13393714D01*
D12*
X9915000Y-13805000D02*
X9995000Y-13885000D01*
X9995000Y-13805000D02*
X9915000Y-13885000D01*
D11*
X10280714Y-13718476D02*
X10299762Y-13718476D01*
X10299762Y-13718476D02*
X10318810Y-13728000D01*
X10318810Y-13728000D02*
X10328333Y-13737524D01*
X10328333Y-13737524D02*
X10337857Y-13756571D01*
X10337857Y-13756571D02*
X10347381Y-13794667D01*
X10347381Y-13794667D02*
X10347381Y-13842286D01*
X10347381Y-13842286D02*
X10337857Y-13880381D01*
X10337857Y-13880381D02*
X10328333Y-13899428D01*
X10328333Y-13899428D02*
X10318810Y-13908952D01*
X10318810Y-13908952D02*
X10299762Y-13918476D01*
X10299762Y-13918476D02*
X10280714Y-13918476D01*
X10280714Y-13918476D02*
X10261667Y-13908952D01*
X10261667Y-13908952D02*
X10252143Y-13899428D01*
X10252143Y-13899428D02*
X10242619Y-13880381D01*
X10242619Y-13880381D02*
X10233095Y-13842286D01*
X10233095Y-13842286D02*
X10233095Y-13794667D01*
X10233095Y-13794667D02*
X10242619Y-13756571D01*
X10242619Y-13756571D02*
X10252143Y-13737524D01*
X10252143Y-13737524D02*
X10261667Y-13728000D01*
X10261667Y-13728000D02*
X10280714Y-13718476D01*
X10433095Y-13899428D02*
X10442619Y-13908952D01*
X10442619Y-13908952D02*
X10433095Y-13918476D01*
X10433095Y-13918476D02*
X10423571Y-13908952D01*
X10423571Y-13908952D02*
X10433095Y-13899428D01*
X10433095Y-13899428D02*
X10433095Y-13918476D01*
X10556905Y-13804190D02*
X10537857Y-13794667D01*
X10537857Y-13794667D02*
X10528333Y-13785143D01*
X10528333Y-13785143D02*
X10518810Y-13766095D01*
X10518810Y-13766095D02*
X10518810Y-13756571D01*
X10518810Y-13756571D02*
X10528333Y-13737524D01*
X10528333Y-13737524D02*
X10537857Y-13728000D01*
X10537857Y-13728000D02*
X10556905Y-13718476D01*
X10556905Y-13718476D02*
X10595000Y-13718476D01*
X10595000Y-13718476D02*
X10614048Y-13728000D01*
X10614048Y-13728000D02*
X10623571Y-13737524D01*
X10623571Y-13737524D02*
X10633095Y-13756571D01*
X10633095Y-13756571D02*
X10633095Y-13766095D01*
X10633095Y-13766095D02*
X10623571Y-13785143D01*
X10623571Y-13785143D02*
X10614048Y-13794667D01*
X10614048Y-13794667D02*
X10595000Y-13804190D01*
X10595000Y-13804190D02*
X10556905Y-13804190D01*
X10556905Y-13804190D02*
X10537857Y-13813714D01*
X10537857Y-13813714D02*
X10528333Y-13823238D01*
X10528333Y-13823238D02*
X10518810Y-13842286D01*
X10518810Y-13842286D02*
X10518810Y-13880381D01*
X10518810Y-13880381D02*
X10528333Y-13899428D01*
X10528333Y-13899428D02*
X10537857Y-13908952D01*
X10537857Y-13908952D02*
X10556905Y-13918476D01*
X10556905Y-13918476D02*
X10595000Y-13918476D01*
X10595000Y-13918476D02*
X10614048Y-13908952D01*
X10614048Y-13908952D02*
X10623571Y-13899428D01*
X10623571Y-13899428D02*
X10633095Y-13880381D01*
X10633095Y-13880381D02*
X10633095Y-13842286D01*
X10633095Y-13842286D02*
X10623571Y-13823238D01*
X10623571Y-13823238D02*
X10614048Y-13813714D01*
X10614048Y-13813714D02*
X10595000Y-13804190D01*
X10756905Y-13718476D02*
X10775952Y-13718476D01*
X10775952Y-13718476D02*
X10795000Y-13728000D01*
X10795000Y-13728000D02*
X10804524Y-13737524D01*
X10804524Y-13737524D02*
X10814048Y-13756571D01*
X10814048Y-13756571D02*
X10823571Y-13794667D01*
X10823571Y-13794667D02*
X10823571Y-13842286D01*
X10823571Y-13842286D02*
X10814048Y-13880381D01*
X10814048Y-13880381D02*
X10804524Y-13899428D01*
X10804524Y-13899428D02*
X10795000Y-13908952D01*
X10795000Y-13908952D02*
X10775952Y-13918476D01*
X10775952Y-13918476D02*
X10756905Y-13918476D01*
X10756905Y-13918476D02*
X10737857Y-13908952D01*
X10737857Y-13908952D02*
X10728333Y-13899428D01*
X10728333Y-13899428D02*
X10718810Y-13880381D01*
X10718810Y-13880381D02*
X10709286Y-13842286D01*
X10709286Y-13842286D02*
X10709286Y-13794667D01*
X10709286Y-13794667D02*
X10718810Y-13756571D01*
X10718810Y-13756571D02*
X10728333Y-13737524D01*
X10728333Y-13737524D02*
X10737857Y-13728000D01*
X10737857Y-13728000D02*
X10756905Y-13718476D01*
X10947381Y-13718476D02*
X10966429Y-13718476D01*
X10966429Y-13718476D02*
X10985476Y-13728000D01*
X10985476Y-13728000D02*
X10995000Y-13737524D01*
X10995000Y-13737524D02*
X11004524Y-13756571D01*
X11004524Y-13756571D02*
X11014048Y-13794667D01*
X11014048Y-13794667D02*
X11014048Y-13842286D01*
X11014048Y-13842286D02*
X11004524Y-13880381D01*
X11004524Y-13880381D02*
X10995000Y-13899428D01*
X10995000Y-13899428D02*
X10985476Y-13908952D01*
X10985476Y-13908952D02*
X10966429Y-13918476D01*
X10966429Y-13918476D02*
X10947381Y-13918476D01*
X10947381Y-13918476D02*
X10928333Y-13908952D01*
X10928333Y-13908952D02*
X10918810Y-13899428D01*
X10918810Y-13899428D02*
X10909286Y-13880381D01*
X10909286Y-13880381D02*
X10899762Y-13842286D01*
X10899762Y-13842286D02*
X10899762Y-13794667D01*
X10899762Y-13794667D02*
X10909286Y-13756571D01*
X10909286Y-13756571D02*
X10918810Y-13737524D01*
X10918810Y-13737524D02*
X10928333Y-13728000D01*
X10928333Y-13728000D02*
X10947381Y-13718476D01*
X11099762Y-13918476D02*
X11099762Y-13785143D01*
X11099762Y-13804190D02*
X11109286Y-13794667D01*
X11109286Y-13794667D02*
X11128333Y-13785143D01*
X11128333Y-13785143D02*
X11156905Y-13785143D01*
X11156905Y-13785143D02*
X11175952Y-13794667D01*
X11175952Y-13794667D02*
X11185476Y-13813714D01*
X11185476Y-13813714D02*
X11185476Y-13918476D01*
X11185476Y-13813714D02*
X11195000Y-13794667D01*
X11195000Y-13794667D02*
X11214048Y-13785143D01*
X11214048Y-13785143D02*
X11242619Y-13785143D01*
X11242619Y-13785143D02*
X11261667Y-13794667D01*
X11261667Y-13794667D02*
X11271190Y-13813714D01*
X11271190Y-13813714D02*
X11271190Y-13918476D01*
X11366429Y-13918476D02*
X11366429Y-13785143D01*
X11366429Y-13804190D02*
X11375952Y-13794667D01*
X11375952Y-13794667D02*
X11395000Y-13785143D01*
X11395000Y-13785143D02*
X11423571Y-13785143D01*
X11423571Y-13785143D02*
X11442619Y-13794667D01*
X11442619Y-13794667D02*
X11452143Y-13813714D01*
X11452143Y-13813714D02*
X11452143Y-13918476D01*
X11452143Y-13813714D02*
X11461667Y-13794667D01*
X11461667Y-13794667D02*
X11480714Y-13785143D01*
X11480714Y-13785143D02*
X11509286Y-13785143D01*
X11509286Y-13785143D02*
X11528333Y-13794667D01*
X11528333Y-13794667D02*
X11537857Y-13813714D01*
X11537857Y-13813714D02*
X11537857Y-13918476D01*
X11895952Y-13708952D02*
X11724524Y-13966095D01*
X12120714Y-13718476D02*
X12139762Y-13718476D01*
X12139762Y-13718476D02*
X12158810Y-13728000D01*
X12158810Y-13728000D02*
X12168333Y-13737524D01*
X12168333Y-13737524D02*
X12177857Y-13756571D01*
X12177857Y-13756571D02*
X12187381Y-13794667D01*
X12187381Y-13794667D02*
X12187381Y-13842286D01*
X12187381Y-13842286D02*
X12177857Y-13880381D01*
X12177857Y-13880381D02*
X12168333Y-13899428D01*
X12168333Y-13899428D02*
X12158810Y-13908952D01*
X12158810Y-13908952D02*
X12139762Y-13918476D01*
X12139762Y-13918476D02*
X12120714Y-13918476D01*
X12120714Y-13918476D02*
X12101667Y-13908952D01*
X12101667Y-13908952D02*
X12092143Y-13899428D01*
X12092143Y-13899428D02*
X12082619Y-13880381D01*
X12082619Y-13880381D02*
X12073095Y-13842286D01*
X12073095Y-13842286D02*
X12073095Y-13794667D01*
X12073095Y-13794667D02*
X12082619Y-13756571D01*
X12082619Y-13756571D02*
X12092143Y-13737524D01*
X12092143Y-13737524D02*
X12101667Y-13728000D01*
X12101667Y-13728000D02*
X12120714Y-13718476D01*
X12273095Y-13899428D02*
X12282619Y-13908952D01*
X12282619Y-13908952D02*
X12273095Y-13918476D01*
X12273095Y-13918476D02*
X12263571Y-13908952D01*
X12263571Y-13908952D02*
X12273095Y-13899428D01*
X12273095Y-13899428D02*
X12273095Y-13918476D01*
X12406429Y-13718476D02*
X12425476Y-13718476D01*
X12425476Y-13718476D02*
X12444524Y-13728000D01*
X12444524Y-13728000D02*
X12454048Y-13737524D01*
X12454048Y-13737524D02*
X12463571Y-13756571D01*
X12463571Y-13756571D02*
X12473095Y-13794667D01*
X12473095Y-13794667D02*
X12473095Y-13842286D01*
X12473095Y-13842286D02*
X12463571Y-13880381D01*
X12463571Y-13880381D02*
X12454048Y-13899428D01*
X12454048Y-13899428D02*
X12444524Y-13908952D01*
X12444524Y-13908952D02*
X12425476Y-13918476D01*
X12425476Y-13918476D02*
X12406429Y-13918476D01*
X12406429Y-13918476D02*
X12387381Y-13908952D01*
X12387381Y-13908952D02*
X12377857Y-13899428D01*
X12377857Y-13899428D02*
X12368333Y-13880381D01*
X12368333Y-13880381D02*
X12358810Y-13842286D01*
X12358810Y-13842286D02*
X12358810Y-13794667D01*
X12358810Y-13794667D02*
X12368333Y-13756571D01*
X12368333Y-13756571D02*
X12377857Y-13737524D01*
X12377857Y-13737524D02*
X12387381Y-13728000D01*
X12387381Y-13728000D02*
X12406429Y-13718476D01*
X12539762Y-13718476D02*
X12663571Y-13718476D01*
X12663571Y-13718476D02*
X12596905Y-13794667D01*
X12596905Y-13794667D02*
X12625476Y-13794667D01*
X12625476Y-13794667D02*
X12644524Y-13804190D01*
X12644524Y-13804190D02*
X12654048Y-13813714D01*
X12654048Y-13813714D02*
X12663571Y-13832762D01*
X12663571Y-13832762D02*
X12663571Y-13880381D01*
X12663571Y-13880381D02*
X12654048Y-13899428D01*
X12654048Y-13899428D02*
X12644524Y-13908952D01*
X12644524Y-13908952D02*
X12625476Y-13918476D01*
X12625476Y-13918476D02*
X12568333Y-13918476D01*
X12568333Y-13918476D02*
X12549286Y-13908952D01*
X12549286Y-13908952D02*
X12539762Y-13899428D01*
X12854048Y-13918476D02*
X12739762Y-13918476D01*
X12796905Y-13918476D02*
X12796905Y-13718476D01*
X12796905Y-13718476D02*
X12777857Y-13747048D01*
X12777857Y-13747048D02*
X12758810Y-13766095D01*
X12758810Y-13766095D02*
X12739762Y-13775619D01*
X13035000Y-13718476D02*
X12939762Y-13718476D01*
X12939762Y-13718476D02*
X12930238Y-13813714D01*
X12930238Y-13813714D02*
X12939762Y-13804190D01*
X12939762Y-13804190D02*
X12958810Y-13794667D01*
X12958810Y-13794667D02*
X13006429Y-13794667D01*
X13006429Y-13794667D02*
X13025476Y-13804190D01*
X13025476Y-13804190D02*
X13035000Y-13813714D01*
X13035000Y-13813714D02*
X13044524Y-13832762D01*
X13044524Y-13832762D02*
X13044524Y-13880381D01*
X13044524Y-13880381D02*
X13035000Y-13899428D01*
X13035000Y-13899428D02*
X13025476Y-13908952D01*
X13025476Y-13908952D02*
X13006429Y-13918476D01*
X13006429Y-13918476D02*
X12958810Y-13918476D01*
X12958810Y-13918476D02*
X12939762Y-13908952D01*
X12939762Y-13908952D02*
X12930238Y-13899428D01*
X13120714Y-13718476D02*
X13120714Y-13756571D01*
X13196905Y-13718476D02*
X13196905Y-13756571D01*
X13459762Y-13994667D02*
X13450238Y-13985143D01*
X13450238Y-13985143D02*
X13431191Y-13956571D01*
X13431191Y-13956571D02*
X13421667Y-13937524D01*
X13421667Y-13937524D02*
X13412143Y-13908952D01*
X13412143Y-13908952D02*
X13402619Y-13861333D01*
X13402619Y-13861333D02*
X13402619Y-13823238D01*
X13402619Y-13823238D02*
X13412143Y-13775619D01*
X13412143Y-13775619D02*
X13421667Y-13747048D01*
X13421667Y-13747048D02*
X13431191Y-13728000D01*
X13431191Y-13728000D02*
X13450238Y-13699428D01*
X13450238Y-13699428D02*
X13459762Y-13689905D01*
X13621667Y-13785143D02*
X13621667Y-13918476D01*
X13574048Y-13708952D02*
X13526429Y-13851809D01*
X13526429Y-13851809D02*
X13650238Y-13851809D01*
X13846429Y-13918476D02*
X13846429Y-13718476D01*
X13932143Y-13918476D02*
X13932143Y-13813714D01*
X13932143Y-13813714D02*
X13922619Y-13794667D01*
X13922619Y-13794667D02*
X13903572Y-13785143D01*
X13903572Y-13785143D02*
X13875000Y-13785143D01*
X13875000Y-13785143D02*
X13855952Y-13794667D01*
X13855952Y-13794667D02*
X13846429Y-13804190D01*
X14055952Y-13918476D02*
X14036905Y-13908952D01*
X14036905Y-13908952D02*
X14027381Y-13899428D01*
X14027381Y-13899428D02*
X14017857Y-13880381D01*
X14017857Y-13880381D02*
X14017857Y-13823238D01*
X14017857Y-13823238D02*
X14027381Y-13804190D01*
X14027381Y-13804190D02*
X14036905Y-13794667D01*
X14036905Y-13794667D02*
X14055952Y-13785143D01*
X14055952Y-13785143D02*
X14084524Y-13785143D01*
X14084524Y-13785143D02*
X14103572Y-13794667D01*
X14103572Y-13794667D02*
X14113095Y-13804190D01*
X14113095Y-13804190D02*
X14122619Y-13823238D01*
X14122619Y-13823238D02*
X14122619Y-13880381D01*
X14122619Y-13880381D02*
X14113095Y-13899428D01*
X14113095Y-13899428D02*
X14103572Y-13908952D01*
X14103572Y-13908952D02*
X14084524Y-13918476D01*
X14084524Y-13918476D02*
X14055952Y-13918476D01*
X14236905Y-13918476D02*
X14217857Y-13908952D01*
X14217857Y-13908952D02*
X14208333Y-13889905D01*
X14208333Y-13889905D02*
X14208333Y-13718476D01*
X14389286Y-13908952D02*
X14370238Y-13918476D01*
X14370238Y-13918476D02*
X14332143Y-13918476D01*
X14332143Y-13918476D02*
X14313095Y-13908952D01*
X14313095Y-13908952D02*
X14303572Y-13889905D01*
X14303572Y-13889905D02*
X14303572Y-13813714D01*
X14303572Y-13813714D02*
X14313095Y-13794667D01*
X14313095Y-13794667D02*
X14332143Y-13785143D01*
X14332143Y-13785143D02*
X14370238Y-13785143D01*
X14370238Y-13785143D02*
X14389286Y-13794667D01*
X14389286Y-13794667D02*
X14398810Y-13813714D01*
X14398810Y-13813714D02*
X14398810Y-13832762D01*
X14398810Y-13832762D02*
X14303572Y-13851809D01*
X14475000Y-13908952D02*
X14494048Y-13918476D01*
X14494048Y-13918476D02*
X14532143Y-13918476D01*
X14532143Y-13918476D02*
X14551191Y-13908952D01*
X14551191Y-13908952D02*
X14560714Y-13889905D01*
X14560714Y-13889905D02*
X14560714Y-13880381D01*
X14560714Y-13880381D02*
X14551191Y-13861333D01*
X14551191Y-13861333D02*
X14532143Y-13851809D01*
X14532143Y-13851809D02*
X14503572Y-13851809D01*
X14503572Y-13851809D02*
X14484524Y-13842286D01*
X14484524Y-13842286D02*
X14475000Y-13823238D01*
X14475000Y-13823238D02*
X14475000Y-13813714D01*
X14475000Y-13813714D02*
X14484524Y-13794667D01*
X14484524Y-13794667D02*
X14503572Y-13785143D01*
X14503572Y-13785143D02*
X14532143Y-13785143D01*
X14532143Y-13785143D02*
X14551191Y-13794667D01*
X14627381Y-13994667D02*
X14636905Y-13985143D01*
X14636905Y-13985143D02*
X14655953Y-13956571D01*
X14655953Y-13956571D02*
X14665476Y-13937524D01*
X14665476Y-13937524D02*
X14675000Y-13908952D01*
X14675000Y-13908952D02*
X14684524Y-13861333D01*
X14684524Y-13861333D02*
X14684524Y-13823238D01*
X14684524Y-13823238D02*
X14675000Y-13775619D01*
X14675000Y-13775619D02*
X14665476Y-13747048D01*
X14665476Y-13747048D02*
X14655953Y-13728000D01*
X14655953Y-13728000D02*
X14636905Y-13699428D01*
X14636905Y-13699428D02*
X14627381Y-13689905D01*
D13*
X9995000Y-14109000D02*
G75*
G03*
X9995000Y-14109000I-45000J0D01*
G01*
D11*
X10280714Y-13982476D02*
X10299762Y-13982476D01*
X10299762Y-13982476D02*
X10318810Y-13992000D01*
X10318810Y-13992000D02*
X10328333Y-14001524D01*
X10328333Y-14001524D02*
X10337857Y-14020571D01*
X10337857Y-14020571D02*
X10347381Y-14058667D01*
X10347381Y-14058667D02*
X10347381Y-14106286D01*
X10347381Y-14106286D02*
X10337857Y-14144381D01*
X10337857Y-14144381D02*
X10328333Y-14163428D01*
X10328333Y-14163428D02*
X10318810Y-14172952D01*
X10318810Y-14172952D02*
X10299762Y-14182476D01*
X10299762Y-14182476D02*
X10280714Y-14182476D01*
X10280714Y-14182476D02*
X10261667Y-14172952D01*
X10261667Y-14172952D02*
X10252143Y-14163428D01*
X10252143Y-14163428D02*
X10242619Y-14144381D01*
X10242619Y-14144381D02*
X10233095Y-14106286D01*
X10233095Y-14106286D02*
X10233095Y-14058667D01*
X10233095Y-14058667D02*
X10242619Y-14020571D01*
X10242619Y-14020571D02*
X10252143Y-14001524D01*
X10252143Y-14001524D02*
X10261667Y-13992000D01*
X10261667Y-13992000D02*
X10280714Y-13982476D01*
X10433095Y-14163428D02*
X10442619Y-14172952D01*
X10442619Y-14172952D02*
X10433095Y-14182476D01*
X10433095Y-14182476D02*
X10423571Y-14172952D01*
X10423571Y-14172952D02*
X10433095Y-14163428D01*
X10433095Y-14163428D02*
X10433095Y-14182476D01*
X10537857Y-14182476D02*
X10575952Y-14182476D01*
X10575952Y-14182476D02*
X10595000Y-14172952D01*
X10595000Y-14172952D02*
X10604524Y-14163428D01*
X10604524Y-14163428D02*
X10623571Y-14134857D01*
X10623571Y-14134857D02*
X10633095Y-14096762D01*
X10633095Y-14096762D02*
X10633095Y-14020571D01*
X10633095Y-14020571D02*
X10623571Y-14001524D01*
X10623571Y-14001524D02*
X10614048Y-13992000D01*
X10614048Y-13992000D02*
X10595000Y-13982476D01*
X10595000Y-13982476D02*
X10556905Y-13982476D01*
X10556905Y-13982476D02*
X10537857Y-13992000D01*
X10537857Y-13992000D02*
X10528333Y-14001524D01*
X10528333Y-14001524D02*
X10518810Y-14020571D01*
X10518810Y-14020571D02*
X10518810Y-14068190D01*
X10518810Y-14068190D02*
X10528333Y-14087238D01*
X10528333Y-14087238D02*
X10537857Y-14096762D01*
X10537857Y-14096762D02*
X10556905Y-14106286D01*
X10556905Y-14106286D02*
X10595000Y-14106286D01*
X10595000Y-14106286D02*
X10614048Y-14096762D01*
X10614048Y-14096762D02*
X10623571Y-14087238D01*
X10623571Y-14087238D02*
X10633095Y-14068190D01*
X10756905Y-13982476D02*
X10775952Y-13982476D01*
X10775952Y-13982476D02*
X10795000Y-13992000D01*
X10795000Y-13992000D02*
X10804524Y-14001524D01*
X10804524Y-14001524D02*
X10814048Y-14020571D01*
X10814048Y-14020571D02*
X10823571Y-14058667D01*
X10823571Y-14058667D02*
X10823571Y-14106286D01*
X10823571Y-14106286D02*
X10814048Y-14144381D01*
X10814048Y-14144381D02*
X10804524Y-14163428D01*
X10804524Y-14163428D02*
X10795000Y-14172952D01*
X10795000Y-14172952D02*
X10775952Y-14182476D01*
X10775952Y-14182476D02*
X10756905Y-14182476D01*
X10756905Y-14182476D02*
X10737857Y-14172952D01*
X10737857Y-14172952D02*
X10728333Y-14163428D01*
X10728333Y-14163428D02*
X10718810Y-14144381D01*
X10718810Y-14144381D02*
X10709286Y-14106286D01*
X10709286Y-14106286D02*
X10709286Y-14058667D01*
X10709286Y-14058667D02*
X10718810Y-14020571D01*
X10718810Y-14020571D02*
X10728333Y-14001524D01*
X10728333Y-14001524D02*
X10737857Y-13992000D01*
X10737857Y-13992000D02*
X10756905Y-13982476D01*
X10947381Y-13982476D02*
X10966429Y-13982476D01*
X10966429Y-13982476D02*
X10985476Y-13992000D01*
X10985476Y-13992000D02*
X10995000Y-14001524D01*
X10995000Y-14001524D02*
X11004524Y-14020571D01*
X11004524Y-14020571D02*
X11014048Y-14058667D01*
X11014048Y-14058667D02*
X11014048Y-14106286D01*
X11014048Y-14106286D02*
X11004524Y-14144381D01*
X11004524Y-14144381D02*
X10995000Y-14163428D01*
X10995000Y-14163428D02*
X10985476Y-14172952D01*
X10985476Y-14172952D02*
X10966429Y-14182476D01*
X10966429Y-14182476D02*
X10947381Y-14182476D01*
X10947381Y-14182476D02*
X10928333Y-14172952D01*
X10928333Y-14172952D02*
X10918810Y-14163428D01*
X10918810Y-14163428D02*
X10909286Y-14144381D01*
X10909286Y-14144381D02*
X10899762Y-14106286D01*
X10899762Y-14106286D02*
X10899762Y-14058667D01*
X10899762Y-14058667D02*
X10909286Y-14020571D01*
X10909286Y-14020571D02*
X10918810Y-14001524D01*
X10918810Y-14001524D02*
X10928333Y-13992000D01*
X10928333Y-13992000D02*
X10947381Y-13982476D01*
X11099762Y-14182476D02*
X11099762Y-14049143D01*
X11099762Y-14068190D02*
X11109286Y-14058667D01*
X11109286Y-14058667D02*
X11128333Y-14049143D01*
X11128333Y-14049143D02*
X11156905Y-14049143D01*
X11156905Y-14049143D02*
X11175952Y-14058667D01*
X11175952Y-14058667D02*
X11185476Y-14077714D01*
X11185476Y-14077714D02*
X11185476Y-14182476D01*
X11185476Y-14077714D02*
X11195000Y-14058667D01*
X11195000Y-14058667D02*
X11214048Y-14049143D01*
X11214048Y-14049143D02*
X11242619Y-14049143D01*
X11242619Y-14049143D02*
X11261667Y-14058667D01*
X11261667Y-14058667D02*
X11271190Y-14077714D01*
X11271190Y-14077714D02*
X11271190Y-14182476D01*
X11366429Y-14182476D02*
X11366429Y-14049143D01*
X11366429Y-14068190D02*
X11375952Y-14058667D01*
X11375952Y-14058667D02*
X11395000Y-14049143D01*
X11395000Y-14049143D02*
X11423571Y-14049143D01*
X11423571Y-14049143D02*
X11442619Y-14058667D01*
X11442619Y-14058667D02*
X11452143Y-14077714D01*
X11452143Y-14077714D02*
X11452143Y-14182476D01*
X11452143Y-14077714D02*
X11461667Y-14058667D01*
X11461667Y-14058667D02*
X11480714Y-14049143D01*
X11480714Y-14049143D02*
X11509286Y-14049143D01*
X11509286Y-14049143D02*
X11528333Y-14058667D01*
X11528333Y-14058667D02*
X11537857Y-14077714D01*
X11537857Y-14077714D02*
X11537857Y-14182476D01*
X11895952Y-13972952D02*
X11724524Y-14230095D01*
X12120714Y-13982476D02*
X12139762Y-13982476D01*
X12139762Y-13982476D02*
X12158810Y-13992000D01*
X12158810Y-13992000D02*
X12168333Y-14001524D01*
X12168333Y-14001524D02*
X12177857Y-14020571D01*
X12177857Y-14020571D02*
X12187381Y-14058667D01*
X12187381Y-14058667D02*
X12187381Y-14106286D01*
X12187381Y-14106286D02*
X12177857Y-14144381D01*
X12177857Y-14144381D02*
X12168333Y-14163428D01*
X12168333Y-14163428D02*
X12158810Y-14172952D01*
X12158810Y-14172952D02*
X12139762Y-14182476D01*
X12139762Y-14182476D02*
X12120714Y-14182476D01*
X12120714Y-14182476D02*
X12101667Y-14172952D01*
X12101667Y-14172952D02*
X12092143Y-14163428D01*
X12092143Y-14163428D02*
X12082619Y-14144381D01*
X12082619Y-14144381D02*
X12073095Y-14106286D01*
X12073095Y-14106286D02*
X12073095Y-14058667D01*
X12073095Y-14058667D02*
X12082619Y-14020571D01*
X12082619Y-14020571D02*
X12092143Y-14001524D01*
X12092143Y-14001524D02*
X12101667Y-13992000D01*
X12101667Y-13992000D02*
X12120714Y-13982476D01*
X12273095Y-14163428D02*
X12282619Y-14172952D01*
X12282619Y-14172952D02*
X12273095Y-14182476D01*
X12273095Y-14182476D02*
X12263571Y-14172952D01*
X12263571Y-14172952D02*
X12273095Y-14163428D01*
X12273095Y-14163428D02*
X12273095Y-14182476D01*
X12406429Y-13982476D02*
X12425476Y-13982476D01*
X12425476Y-13982476D02*
X12444524Y-13992000D01*
X12444524Y-13992000D02*
X12454048Y-14001524D01*
X12454048Y-14001524D02*
X12463571Y-14020571D01*
X12463571Y-14020571D02*
X12473095Y-14058667D01*
X12473095Y-14058667D02*
X12473095Y-14106286D01*
X12473095Y-14106286D02*
X12463571Y-14144381D01*
X12463571Y-14144381D02*
X12454048Y-14163428D01*
X12454048Y-14163428D02*
X12444524Y-14172952D01*
X12444524Y-14172952D02*
X12425476Y-14182476D01*
X12425476Y-14182476D02*
X12406429Y-14182476D01*
X12406429Y-14182476D02*
X12387381Y-14172952D01*
X12387381Y-14172952D02*
X12377857Y-14163428D01*
X12377857Y-14163428D02*
X12368333Y-14144381D01*
X12368333Y-14144381D02*
X12358810Y-14106286D01*
X12358810Y-14106286D02*
X12358810Y-14058667D01*
X12358810Y-14058667D02*
X12368333Y-14020571D01*
X12368333Y-14020571D02*
X12377857Y-14001524D01*
X12377857Y-14001524D02*
X12387381Y-13992000D01*
X12387381Y-13992000D02*
X12406429Y-13982476D01*
X12539762Y-13982476D02*
X12663571Y-13982476D01*
X12663571Y-13982476D02*
X12596905Y-14058667D01*
X12596905Y-14058667D02*
X12625476Y-14058667D01*
X12625476Y-14058667D02*
X12644524Y-14068190D01*
X12644524Y-14068190D02*
X12654048Y-14077714D01*
X12654048Y-14077714D02*
X12663571Y-14096762D01*
X12663571Y-14096762D02*
X12663571Y-14144381D01*
X12663571Y-14144381D02*
X12654048Y-14163428D01*
X12654048Y-14163428D02*
X12644524Y-14172952D01*
X12644524Y-14172952D02*
X12625476Y-14182476D01*
X12625476Y-14182476D02*
X12568333Y-14182476D01*
X12568333Y-14182476D02*
X12549286Y-14172952D01*
X12549286Y-14172952D02*
X12539762Y-14163428D01*
X12844524Y-13982476D02*
X12749286Y-13982476D01*
X12749286Y-13982476D02*
X12739762Y-14077714D01*
X12739762Y-14077714D02*
X12749286Y-14068190D01*
X12749286Y-14068190D02*
X12768333Y-14058667D01*
X12768333Y-14058667D02*
X12815952Y-14058667D01*
X12815952Y-14058667D02*
X12835000Y-14068190D01*
X12835000Y-14068190D02*
X12844524Y-14077714D01*
X12844524Y-14077714D02*
X12854048Y-14096762D01*
X12854048Y-14096762D02*
X12854048Y-14144381D01*
X12854048Y-14144381D02*
X12844524Y-14163428D01*
X12844524Y-14163428D02*
X12835000Y-14172952D01*
X12835000Y-14172952D02*
X12815952Y-14182476D01*
X12815952Y-14182476D02*
X12768333Y-14182476D01*
X12768333Y-14182476D02*
X12749286Y-14172952D01*
X12749286Y-14172952D02*
X12739762Y-14163428D01*
X13025476Y-14049143D02*
X13025476Y-14182476D01*
X12977857Y-13972952D02*
X12930238Y-14115809D01*
X12930238Y-14115809D02*
X13054048Y-14115809D01*
X13120714Y-13982476D02*
X13120714Y-14020571D01*
X13196905Y-13982476D02*
X13196905Y-14020571D01*
X13459762Y-14258667D02*
X13450238Y-14249143D01*
X13450238Y-14249143D02*
X13431191Y-14220571D01*
X13431191Y-14220571D02*
X13421667Y-14201524D01*
X13421667Y-14201524D02*
X13412143Y-14172952D01*
X13412143Y-14172952D02*
X13402619Y-14125333D01*
X13402619Y-14125333D02*
X13402619Y-14087238D01*
X13402619Y-14087238D02*
X13412143Y-14039619D01*
X13412143Y-14039619D02*
X13421667Y-14011048D01*
X13421667Y-14011048D02*
X13431191Y-13992000D01*
X13431191Y-13992000D02*
X13450238Y-13963428D01*
X13450238Y-13963428D02*
X13459762Y-13953905D01*
X13621667Y-14049143D02*
X13621667Y-14182476D01*
X13574048Y-13972952D02*
X13526429Y-14115809D01*
X13526429Y-14115809D02*
X13650238Y-14115809D01*
X13846429Y-14182476D02*
X13846429Y-13982476D01*
X13932143Y-14182476D02*
X13932143Y-14077714D01*
X13932143Y-14077714D02*
X13922619Y-14058667D01*
X13922619Y-14058667D02*
X13903572Y-14049143D01*
X13903572Y-14049143D02*
X13875000Y-14049143D01*
X13875000Y-14049143D02*
X13855952Y-14058667D01*
X13855952Y-14058667D02*
X13846429Y-14068190D01*
X14055952Y-14182476D02*
X14036905Y-14172952D01*
X14036905Y-14172952D02*
X14027381Y-14163428D01*
X14027381Y-14163428D02*
X14017857Y-14144381D01*
X14017857Y-14144381D02*
X14017857Y-14087238D01*
X14017857Y-14087238D02*
X14027381Y-14068190D01*
X14027381Y-14068190D02*
X14036905Y-14058667D01*
X14036905Y-14058667D02*
X14055952Y-14049143D01*
X14055952Y-14049143D02*
X14084524Y-14049143D01*
X14084524Y-14049143D02*
X14103572Y-14058667D01*
X14103572Y-14058667D02*
X14113095Y-14068190D01*
X14113095Y-14068190D02*
X14122619Y-14087238D01*
X14122619Y-14087238D02*
X14122619Y-14144381D01*
X14122619Y-14144381D02*
X14113095Y-14163428D01*
X14113095Y-14163428D02*
X14103572Y-14172952D01*
X14103572Y-14172952D02*
X14084524Y-14182476D01*
X14084524Y-14182476D02*
X14055952Y-14182476D01*
X14236905Y-14182476D02*
X14217857Y-14172952D01*
X14217857Y-14172952D02*
X14208333Y-14153905D01*
X14208333Y-14153905D02*
X14208333Y-13982476D01*
X14389286Y-14172952D02*
X14370238Y-14182476D01*
X14370238Y-14182476D02*
X14332143Y-14182476D01*
X14332143Y-14182476D02*
X14313095Y-14172952D01*
X14313095Y-14172952D02*
X14303572Y-14153905D01*
X14303572Y-14153905D02*
X14303572Y-14077714D01*
X14303572Y-14077714D02*
X14313095Y-14058667D01*
X14313095Y-14058667D02*
X14332143Y-14049143D01*
X14332143Y-14049143D02*
X14370238Y-14049143D01*
X14370238Y-14049143D02*
X14389286Y-14058667D01*
X14389286Y-14058667D02*
X14398810Y-14077714D01*
X14398810Y-14077714D02*
X14398810Y-14096762D01*
X14398810Y-14096762D02*
X14303572Y-14115809D01*
X14475000Y-14172952D02*
X14494048Y-14182476D01*
X14494048Y-14182476D02*
X14532143Y-14182476D01*
X14532143Y-14182476D02*
X14551191Y-14172952D01*
X14551191Y-14172952D02*
X14560714Y-14153905D01*
X14560714Y-14153905D02*
X14560714Y-14144381D01*
X14560714Y-14144381D02*
X14551191Y-14125333D01*
X14551191Y-14125333D02*
X14532143Y-14115809D01*
X14532143Y-14115809D02*
X14503572Y-14115809D01*
X14503572Y-14115809D02*
X14484524Y-14106286D01*
X14484524Y-14106286D02*
X14475000Y-14087238D01*
X14475000Y-14087238D02*
X14475000Y-14077714D01*
X14475000Y-14077714D02*
X14484524Y-14058667D01*
X14484524Y-14058667D02*
X14503572Y-14049143D01*
X14503572Y-14049143D02*
X14532143Y-14049143D01*
X14532143Y-14049143D02*
X14551191Y-14058667D01*
X14627381Y-14258667D02*
X14636905Y-14249143D01*
X14636905Y-14249143D02*
X14655953Y-14220571D01*
X14655953Y-14220571D02*
X14665476Y-14201524D01*
X14665476Y-14201524D02*
X14675000Y-14172952D01*
X14675000Y-14172952D02*
X14684524Y-14125333D01*
X14684524Y-14125333D02*
X14684524Y-14087238D01*
X14684524Y-14087238D02*
X14675000Y-14039619D01*
X14675000Y-14039619D02*
X14665476Y-14011048D01*
X14665476Y-14011048D02*
X14655953Y-13992000D01*
X14655953Y-13992000D02*
X14636905Y-13963428D01*
X14636905Y-13963428D02*
X14627381Y-13953905D01*
D10*
X9945000Y-14323000D02*
X9945000Y-14423000D01*
X9895000Y-14373000D02*
X9995000Y-14373000D01*
D11*
X10347381Y-14446476D02*
X10233095Y-14446476D01*
X10290238Y-14446476D02*
X10290238Y-14246476D01*
X10290238Y-14246476D02*
X10271190Y-14275048D01*
X10271190Y-14275048D02*
X10252143Y-14294095D01*
X10252143Y-14294095D02*
X10233095Y-14303619D01*
X10433095Y-14427428D02*
X10442619Y-14436952D01*
X10442619Y-14436952D02*
X10433095Y-14446476D01*
X10433095Y-14446476D02*
X10423571Y-14436952D01*
X10423571Y-14436952D02*
X10433095Y-14427428D01*
X10433095Y-14427428D02*
X10433095Y-14446476D01*
X10566429Y-14246476D02*
X10585476Y-14246476D01*
X10585476Y-14246476D02*
X10604524Y-14256000D01*
X10604524Y-14256000D02*
X10614048Y-14265524D01*
X10614048Y-14265524D02*
X10623571Y-14284571D01*
X10623571Y-14284571D02*
X10633095Y-14322667D01*
X10633095Y-14322667D02*
X10633095Y-14370286D01*
X10633095Y-14370286D02*
X10623571Y-14408381D01*
X10623571Y-14408381D02*
X10614048Y-14427428D01*
X10614048Y-14427428D02*
X10604524Y-14436952D01*
X10604524Y-14436952D02*
X10585476Y-14446476D01*
X10585476Y-14446476D02*
X10566429Y-14446476D01*
X10566429Y-14446476D02*
X10547381Y-14436952D01*
X10547381Y-14436952D02*
X10537857Y-14427428D01*
X10537857Y-14427428D02*
X10528333Y-14408381D01*
X10528333Y-14408381D02*
X10518810Y-14370286D01*
X10518810Y-14370286D02*
X10518810Y-14322667D01*
X10518810Y-14322667D02*
X10528333Y-14284571D01*
X10528333Y-14284571D02*
X10537857Y-14265524D01*
X10537857Y-14265524D02*
X10547381Y-14256000D01*
X10547381Y-14256000D02*
X10566429Y-14246476D01*
X10756905Y-14246476D02*
X10775952Y-14246476D01*
X10775952Y-14246476D02*
X10795000Y-14256000D01*
X10795000Y-14256000D02*
X10804524Y-14265524D01*
X10804524Y-14265524D02*
X10814048Y-14284571D01*
X10814048Y-14284571D02*
X10823571Y-14322667D01*
X10823571Y-14322667D02*
X10823571Y-14370286D01*
X10823571Y-14370286D02*
X10814048Y-14408381D01*
X10814048Y-14408381D02*
X10804524Y-14427428D01*
X10804524Y-14427428D02*
X10795000Y-14436952D01*
X10795000Y-14436952D02*
X10775952Y-14446476D01*
X10775952Y-14446476D02*
X10756905Y-14446476D01*
X10756905Y-14446476D02*
X10737857Y-14436952D01*
X10737857Y-14436952D02*
X10728333Y-14427428D01*
X10728333Y-14427428D02*
X10718810Y-14408381D01*
X10718810Y-14408381D02*
X10709286Y-14370286D01*
X10709286Y-14370286D02*
X10709286Y-14322667D01*
X10709286Y-14322667D02*
X10718810Y-14284571D01*
X10718810Y-14284571D02*
X10728333Y-14265524D01*
X10728333Y-14265524D02*
X10737857Y-14256000D01*
X10737857Y-14256000D02*
X10756905Y-14246476D01*
X10947381Y-14246476D02*
X10966429Y-14246476D01*
X10966429Y-14246476D02*
X10985476Y-14256000D01*
X10985476Y-14256000D02*
X10995000Y-14265524D01*
X10995000Y-14265524D02*
X11004524Y-14284571D01*
X11004524Y-14284571D02*
X11014048Y-14322667D01*
X11014048Y-14322667D02*
X11014048Y-14370286D01*
X11014048Y-14370286D02*
X11004524Y-14408381D01*
X11004524Y-14408381D02*
X10995000Y-14427428D01*
X10995000Y-14427428D02*
X10985476Y-14436952D01*
X10985476Y-14436952D02*
X10966429Y-14446476D01*
X10966429Y-14446476D02*
X10947381Y-14446476D01*
X10947381Y-14446476D02*
X10928333Y-14436952D01*
X10928333Y-14436952D02*
X10918810Y-14427428D01*
X10918810Y-14427428D02*
X10909286Y-14408381D01*
X10909286Y-14408381D02*
X10899762Y-14370286D01*
X10899762Y-14370286D02*
X10899762Y-14322667D01*
X10899762Y-14322667D02*
X10909286Y-14284571D01*
X10909286Y-14284571D02*
X10918810Y-14265524D01*
X10918810Y-14265524D02*
X10928333Y-14256000D01*
X10928333Y-14256000D02*
X10947381Y-14246476D01*
X11099762Y-14446476D02*
X11099762Y-14313143D01*
X11099762Y-14332190D02*
X11109286Y-14322667D01*
X11109286Y-14322667D02*
X11128333Y-14313143D01*
X11128333Y-14313143D02*
X11156905Y-14313143D01*
X11156905Y-14313143D02*
X11175952Y-14322667D01*
X11175952Y-14322667D02*
X11185476Y-14341714D01*
X11185476Y-14341714D02*
X11185476Y-14446476D01*
X11185476Y-14341714D02*
X11195000Y-14322667D01*
X11195000Y-14322667D02*
X11214048Y-14313143D01*
X11214048Y-14313143D02*
X11242619Y-14313143D01*
X11242619Y-14313143D02*
X11261667Y-14322667D01*
X11261667Y-14322667D02*
X11271190Y-14341714D01*
X11271190Y-14341714D02*
X11271190Y-14446476D01*
X11366429Y-14446476D02*
X11366429Y-14313143D01*
X11366429Y-14332190D02*
X11375952Y-14322667D01*
X11375952Y-14322667D02*
X11395000Y-14313143D01*
X11395000Y-14313143D02*
X11423571Y-14313143D01*
X11423571Y-14313143D02*
X11442619Y-14322667D01*
X11442619Y-14322667D02*
X11452143Y-14341714D01*
X11452143Y-14341714D02*
X11452143Y-14446476D01*
X11452143Y-14341714D02*
X11461667Y-14322667D01*
X11461667Y-14322667D02*
X11480714Y-14313143D01*
X11480714Y-14313143D02*
X11509286Y-14313143D01*
X11509286Y-14313143D02*
X11528333Y-14322667D01*
X11528333Y-14322667D02*
X11537857Y-14341714D01*
X11537857Y-14341714D02*
X11537857Y-14446476D01*
X11895952Y-14236952D02*
X11724524Y-14494095D01*
X12120714Y-14246476D02*
X12139762Y-14246476D01*
X12139762Y-14246476D02*
X12158810Y-14256000D01*
X12158810Y-14256000D02*
X12168333Y-14265524D01*
X12168333Y-14265524D02*
X12177857Y-14284571D01*
X12177857Y-14284571D02*
X12187381Y-14322667D01*
X12187381Y-14322667D02*
X12187381Y-14370286D01*
X12187381Y-14370286D02*
X12177857Y-14408381D01*
X12177857Y-14408381D02*
X12168333Y-14427428D01*
X12168333Y-14427428D02*
X12158810Y-14436952D01*
X12158810Y-14436952D02*
X12139762Y-14446476D01*
X12139762Y-14446476D02*
X12120714Y-14446476D01*
X12120714Y-14446476D02*
X12101667Y-14436952D01*
X12101667Y-14436952D02*
X12092143Y-14427428D01*
X12092143Y-14427428D02*
X12082619Y-14408381D01*
X12082619Y-14408381D02*
X12073095Y-14370286D01*
X12073095Y-14370286D02*
X12073095Y-14322667D01*
X12073095Y-14322667D02*
X12082619Y-14284571D01*
X12082619Y-14284571D02*
X12092143Y-14265524D01*
X12092143Y-14265524D02*
X12101667Y-14256000D01*
X12101667Y-14256000D02*
X12120714Y-14246476D01*
X12273095Y-14427428D02*
X12282619Y-14436952D01*
X12282619Y-14436952D02*
X12273095Y-14446476D01*
X12273095Y-14446476D02*
X12263571Y-14436952D01*
X12263571Y-14436952D02*
X12273095Y-14427428D01*
X12273095Y-14427428D02*
X12273095Y-14446476D01*
X12406429Y-14246476D02*
X12425476Y-14246476D01*
X12425476Y-14246476D02*
X12444524Y-14256000D01*
X12444524Y-14256000D02*
X12454048Y-14265524D01*
X12454048Y-14265524D02*
X12463571Y-14284571D01*
X12463571Y-14284571D02*
X12473095Y-14322667D01*
X12473095Y-14322667D02*
X12473095Y-14370286D01*
X12473095Y-14370286D02*
X12463571Y-14408381D01*
X12463571Y-14408381D02*
X12454048Y-14427428D01*
X12454048Y-14427428D02*
X12444524Y-14436952D01*
X12444524Y-14436952D02*
X12425476Y-14446476D01*
X12425476Y-14446476D02*
X12406429Y-14446476D01*
X12406429Y-14446476D02*
X12387381Y-14436952D01*
X12387381Y-14436952D02*
X12377857Y-14427428D01*
X12377857Y-14427428D02*
X12368333Y-14408381D01*
X12368333Y-14408381D02*
X12358810Y-14370286D01*
X12358810Y-14370286D02*
X12358810Y-14322667D01*
X12358810Y-14322667D02*
X12368333Y-14284571D01*
X12368333Y-14284571D02*
X12377857Y-14265524D01*
X12377857Y-14265524D02*
X12387381Y-14256000D01*
X12387381Y-14256000D02*
X12406429Y-14246476D01*
X12539762Y-14246476D02*
X12663571Y-14246476D01*
X12663571Y-14246476D02*
X12596905Y-14322667D01*
X12596905Y-14322667D02*
X12625476Y-14322667D01*
X12625476Y-14322667D02*
X12644524Y-14332190D01*
X12644524Y-14332190D02*
X12654048Y-14341714D01*
X12654048Y-14341714D02*
X12663571Y-14360762D01*
X12663571Y-14360762D02*
X12663571Y-14408381D01*
X12663571Y-14408381D02*
X12654048Y-14427428D01*
X12654048Y-14427428D02*
X12644524Y-14436952D01*
X12644524Y-14436952D02*
X12625476Y-14446476D01*
X12625476Y-14446476D02*
X12568333Y-14446476D01*
X12568333Y-14446476D02*
X12549286Y-14436952D01*
X12549286Y-14436952D02*
X12539762Y-14427428D01*
X12758810Y-14446476D02*
X12796905Y-14446476D01*
X12796905Y-14446476D02*
X12815952Y-14436952D01*
X12815952Y-14436952D02*
X12825476Y-14427428D01*
X12825476Y-14427428D02*
X12844524Y-14398857D01*
X12844524Y-14398857D02*
X12854048Y-14360762D01*
X12854048Y-14360762D02*
X12854048Y-14284571D01*
X12854048Y-14284571D02*
X12844524Y-14265524D01*
X12844524Y-14265524D02*
X12835000Y-14256000D01*
X12835000Y-14256000D02*
X12815952Y-14246476D01*
X12815952Y-14246476D02*
X12777857Y-14246476D01*
X12777857Y-14246476D02*
X12758810Y-14256000D01*
X12758810Y-14256000D02*
X12749286Y-14265524D01*
X12749286Y-14265524D02*
X12739762Y-14284571D01*
X12739762Y-14284571D02*
X12739762Y-14332190D01*
X12739762Y-14332190D02*
X12749286Y-14351238D01*
X12749286Y-14351238D02*
X12758810Y-14360762D01*
X12758810Y-14360762D02*
X12777857Y-14370286D01*
X12777857Y-14370286D02*
X12815952Y-14370286D01*
X12815952Y-14370286D02*
X12835000Y-14360762D01*
X12835000Y-14360762D02*
X12844524Y-14351238D01*
X12844524Y-14351238D02*
X12854048Y-14332190D01*
X13025476Y-14313143D02*
X13025476Y-14446476D01*
X12977857Y-14236952D02*
X12930238Y-14379809D01*
X12930238Y-14379809D02*
X13054048Y-14379809D01*
X13120714Y-14246476D02*
X13120714Y-14284571D01*
X13196905Y-14246476D02*
X13196905Y-14284571D01*
X13459762Y-14522667D02*
X13450238Y-14513143D01*
X13450238Y-14513143D02*
X13431191Y-14484571D01*
X13431191Y-14484571D02*
X13421667Y-14465524D01*
X13421667Y-14465524D02*
X13412143Y-14436952D01*
X13412143Y-14436952D02*
X13402619Y-14389333D01*
X13402619Y-14389333D02*
X13402619Y-14351238D01*
X13402619Y-14351238D02*
X13412143Y-14303619D01*
X13412143Y-14303619D02*
X13421667Y-14275048D01*
X13421667Y-14275048D02*
X13431191Y-14256000D01*
X13431191Y-14256000D02*
X13450238Y-14227428D01*
X13450238Y-14227428D02*
X13459762Y-14217905D01*
X13621667Y-14246476D02*
X13583571Y-14246476D01*
X13583571Y-14246476D02*
X13564524Y-14256000D01*
X13564524Y-14256000D02*
X13555000Y-14265524D01*
X13555000Y-14265524D02*
X13535952Y-14294095D01*
X13535952Y-14294095D02*
X13526429Y-14332190D01*
X13526429Y-14332190D02*
X13526429Y-14408381D01*
X13526429Y-14408381D02*
X13535952Y-14427428D01*
X13535952Y-14427428D02*
X13545476Y-14436952D01*
X13545476Y-14436952D02*
X13564524Y-14446476D01*
X13564524Y-14446476D02*
X13602619Y-14446476D01*
X13602619Y-14446476D02*
X13621667Y-14436952D01*
X13621667Y-14436952D02*
X13631191Y-14427428D01*
X13631191Y-14427428D02*
X13640714Y-14408381D01*
X13640714Y-14408381D02*
X13640714Y-14360762D01*
X13640714Y-14360762D02*
X13631191Y-14341714D01*
X13631191Y-14341714D02*
X13621667Y-14332190D01*
X13621667Y-14332190D02*
X13602619Y-14322667D01*
X13602619Y-14322667D02*
X13564524Y-14322667D01*
X13564524Y-14322667D02*
X13545476Y-14332190D01*
X13545476Y-14332190D02*
X13535952Y-14341714D01*
X13535952Y-14341714D02*
X13526429Y-14360762D01*
X13716905Y-14265524D02*
X13726429Y-14256000D01*
X13726429Y-14256000D02*
X13745476Y-14246476D01*
X13745476Y-14246476D02*
X13793095Y-14246476D01*
X13793095Y-14246476D02*
X13812143Y-14256000D01*
X13812143Y-14256000D02*
X13821667Y-14265524D01*
X13821667Y-14265524D02*
X13831191Y-14284571D01*
X13831191Y-14284571D02*
X13831191Y-14303619D01*
X13831191Y-14303619D02*
X13821667Y-14332190D01*
X13821667Y-14332190D02*
X13707381Y-14446476D01*
X13707381Y-14446476D02*
X13831191Y-14446476D01*
X14036905Y-14446476D02*
X14036905Y-14246476D01*
X14122619Y-14446476D02*
X14122619Y-14341714D01*
X14122619Y-14341714D02*
X14113095Y-14322667D01*
X14113095Y-14322667D02*
X14094048Y-14313143D01*
X14094048Y-14313143D02*
X14065476Y-14313143D01*
X14065476Y-14313143D02*
X14046429Y-14322667D01*
X14046429Y-14322667D02*
X14036905Y-14332190D01*
X14246429Y-14446476D02*
X14227381Y-14436952D01*
X14227381Y-14436952D02*
X14217857Y-14427428D01*
X14217857Y-14427428D02*
X14208333Y-14408381D01*
X14208333Y-14408381D02*
X14208333Y-14351238D01*
X14208333Y-14351238D02*
X14217857Y-14332190D01*
X14217857Y-14332190D02*
X14227381Y-14322667D01*
X14227381Y-14322667D02*
X14246429Y-14313143D01*
X14246429Y-14313143D02*
X14275000Y-14313143D01*
X14275000Y-14313143D02*
X14294048Y-14322667D01*
X14294048Y-14322667D02*
X14303572Y-14332190D01*
X14303572Y-14332190D02*
X14313095Y-14351238D01*
X14313095Y-14351238D02*
X14313095Y-14408381D01*
X14313095Y-14408381D02*
X14303572Y-14427428D01*
X14303572Y-14427428D02*
X14294048Y-14436952D01*
X14294048Y-14436952D02*
X14275000Y-14446476D01*
X14275000Y-14446476D02*
X14246429Y-14446476D01*
X14427381Y-14446476D02*
X14408333Y-14436952D01*
X14408333Y-14436952D02*
X14398810Y-14417905D01*
X14398810Y-14417905D02*
X14398810Y-14246476D01*
X14579762Y-14436952D02*
X14560714Y-14446476D01*
X14560714Y-14446476D02*
X14522619Y-14446476D01*
X14522619Y-14446476D02*
X14503572Y-14436952D01*
X14503572Y-14436952D02*
X14494048Y-14417905D01*
X14494048Y-14417905D02*
X14494048Y-14341714D01*
X14494048Y-14341714D02*
X14503572Y-14322667D01*
X14503572Y-14322667D02*
X14522619Y-14313143D01*
X14522619Y-14313143D02*
X14560714Y-14313143D01*
X14560714Y-14313143D02*
X14579762Y-14322667D01*
X14579762Y-14322667D02*
X14589286Y-14341714D01*
X14589286Y-14341714D02*
X14589286Y-14360762D01*
X14589286Y-14360762D02*
X14494048Y-14379809D01*
X14665476Y-14436952D02*
X14684524Y-14446476D01*
X14684524Y-14446476D02*
X14722619Y-14446476D01*
X14722619Y-14446476D02*
X14741667Y-14436952D01*
X14741667Y-14436952D02*
X14751191Y-14417905D01*
X14751191Y-14417905D02*
X14751191Y-14408381D01*
X14751191Y-14408381D02*
X14741667Y-14389333D01*
X14741667Y-14389333D02*
X14722619Y-14379809D01*
X14722619Y-14379809D02*
X14694048Y-14379809D01*
X14694048Y-14379809D02*
X14675000Y-14370286D01*
X14675000Y-14370286D02*
X14665476Y-14351238D01*
X14665476Y-14351238D02*
X14665476Y-14341714D01*
X14665476Y-14341714D02*
X14675000Y-14322667D01*
X14675000Y-14322667D02*
X14694048Y-14313143D01*
X14694048Y-14313143D02*
X14722619Y-14313143D01*
X14722619Y-14313143D02*
X14741667Y-14322667D01*
X14817857Y-14522667D02*
X14827381Y-14513143D01*
X14827381Y-14513143D02*
X14846429Y-14484571D01*
X14846429Y-14484571D02*
X14855953Y-14465524D01*
X14855953Y-14465524D02*
X14865476Y-14436952D01*
X14865476Y-14436952D02*
X14875000Y-14389333D01*
X14875000Y-14389333D02*
X14875000Y-14351238D01*
X14875000Y-14351238D02*
X14865476Y-14303619D01*
X14865476Y-14303619D02*
X14855953Y-14275048D01*
X14855953Y-14275048D02*
X14846429Y-14256000D01*
X14846429Y-14256000D02*
X14827381Y-14227428D01*
X14827381Y-14227428D02*
X14817857Y-14217905D01*
D14*
X9978891Y-14675891D02*
X9978891Y-14598109D01*
X9901109Y-14598109D01*
X9901109Y-14675891D01*
X9978891Y-14675891D01*
D11*
X10347381Y-14710476D02*
X10233095Y-14710476D01*
X10290238Y-14710476D02*
X10290238Y-14510476D01*
X10290238Y-14510476D02*
X10271190Y-14539048D01*
X10271190Y-14539048D02*
X10252143Y-14558095D01*
X10252143Y-14558095D02*
X10233095Y-14567619D01*
X10433095Y-14691428D02*
X10442619Y-14700952D01*
X10442619Y-14700952D02*
X10433095Y-14710476D01*
X10433095Y-14710476D02*
X10423571Y-14700952D01*
X10423571Y-14700952D02*
X10433095Y-14691428D01*
X10433095Y-14691428D02*
X10433095Y-14710476D01*
X10633095Y-14710476D02*
X10518810Y-14710476D01*
X10575952Y-14710476D02*
X10575952Y-14510476D01*
X10575952Y-14510476D02*
X10556905Y-14539048D01*
X10556905Y-14539048D02*
X10537857Y-14558095D01*
X10537857Y-14558095D02*
X10518810Y-14567619D01*
X10756905Y-14510476D02*
X10775952Y-14510476D01*
X10775952Y-14510476D02*
X10795000Y-14520000D01*
X10795000Y-14520000D02*
X10804524Y-14529524D01*
X10804524Y-14529524D02*
X10814048Y-14548571D01*
X10814048Y-14548571D02*
X10823571Y-14586667D01*
X10823571Y-14586667D02*
X10823571Y-14634286D01*
X10823571Y-14634286D02*
X10814048Y-14672381D01*
X10814048Y-14672381D02*
X10804524Y-14691428D01*
X10804524Y-14691428D02*
X10795000Y-14700952D01*
X10795000Y-14700952D02*
X10775952Y-14710476D01*
X10775952Y-14710476D02*
X10756905Y-14710476D01*
X10756905Y-14710476D02*
X10737857Y-14700952D01*
X10737857Y-14700952D02*
X10728333Y-14691428D01*
X10728333Y-14691428D02*
X10718810Y-14672381D01*
X10718810Y-14672381D02*
X10709286Y-14634286D01*
X10709286Y-14634286D02*
X10709286Y-14586667D01*
X10709286Y-14586667D02*
X10718810Y-14548571D01*
X10718810Y-14548571D02*
X10728333Y-14529524D01*
X10728333Y-14529524D02*
X10737857Y-14520000D01*
X10737857Y-14520000D02*
X10756905Y-14510476D01*
X10947381Y-14510476D02*
X10966429Y-14510476D01*
X10966429Y-14510476D02*
X10985476Y-14520000D01*
X10985476Y-14520000D02*
X10995000Y-14529524D01*
X10995000Y-14529524D02*
X11004524Y-14548571D01*
X11004524Y-14548571D02*
X11014048Y-14586667D01*
X11014048Y-14586667D02*
X11014048Y-14634286D01*
X11014048Y-14634286D02*
X11004524Y-14672381D01*
X11004524Y-14672381D02*
X10995000Y-14691428D01*
X10995000Y-14691428D02*
X10985476Y-14700952D01*
X10985476Y-14700952D02*
X10966429Y-14710476D01*
X10966429Y-14710476D02*
X10947381Y-14710476D01*
X10947381Y-14710476D02*
X10928333Y-14700952D01*
X10928333Y-14700952D02*
X10918810Y-14691428D01*
X10918810Y-14691428D02*
X10909286Y-14672381D01*
X10909286Y-14672381D02*
X10899762Y-14634286D01*
X10899762Y-14634286D02*
X10899762Y-14586667D01*
X10899762Y-14586667D02*
X10909286Y-14548571D01*
X10909286Y-14548571D02*
X10918810Y-14529524D01*
X10918810Y-14529524D02*
X10928333Y-14520000D01*
X10928333Y-14520000D02*
X10947381Y-14510476D01*
X11099762Y-14710476D02*
X11099762Y-14577143D01*
X11099762Y-14596190D02*
X11109286Y-14586667D01*
X11109286Y-14586667D02*
X11128333Y-14577143D01*
X11128333Y-14577143D02*
X11156905Y-14577143D01*
X11156905Y-14577143D02*
X11175952Y-14586667D01*
X11175952Y-14586667D02*
X11185476Y-14605714D01*
X11185476Y-14605714D02*
X11185476Y-14710476D01*
X11185476Y-14605714D02*
X11195000Y-14586667D01*
X11195000Y-14586667D02*
X11214048Y-14577143D01*
X11214048Y-14577143D02*
X11242619Y-14577143D01*
X11242619Y-14577143D02*
X11261667Y-14586667D01*
X11261667Y-14586667D02*
X11271190Y-14605714D01*
X11271190Y-14605714D02*
X11271190Y-14710476D01*
X11366429Y-14710476D02*
X11366429Y-14577143D01*
X11366429Y-14596190D02*
X11375952Y-14586667D01*
X11375952Y-14586667D02*
X11395000Y-14577143D01*
X11395000Y-14577143D02*
X11423571Y-14577143D01*
X11423571Y-14577143D02*
X11442619Y-14586667D01*
X11442619Y-14586667D02*
X11452143Y-14605714D01*
X11452143Y-14605714D02*
X11452143Y-14710476D01*
X11452143Y-14605714D02*
X11461667Y-14586667D01*
X11461667Y-14586667D02*
X11480714Y-14577143D01*
X11480714Y-14577143D02*
X11509286Y-14577143D01*
X11509286Y-14577143D02*
X11528333Y-14586667D01*
X11528333Y-14586667D02*
X11537857Y-14605714D01*
X11537857Y-14605714D02*
X11537857Y-14710476D01*
X11895952Y-14500952D02*
X11724524Y-14758095D01*
X12120714Y-14510476D02*
X12139762Y-14510476D01*
X12139762Y-14510476D02*
X12158810Y-14520000D01*
X12158810Y-14520000D02*
X12168333Y-14529524D01*
X12168333Y-14529524D02*
X12177857Y-14548571D01*
X12177857Y-14548571D02*
X12187381Y-14586667D01*
X12187381Y-14586667D02*
X12187381Y-14634286D01*
X12187381Y-14634286D02*
X12177857Y-14672381D01*
X12177857Y-14672381D02*
X12168333Y-14691428D01*
X12168333Y-14691428D02*
X12158810Y-14700952D01*
X12158810Y-14700952D02*
X12139762Y-14710476D01*
X12139762Y-14710476D02*
X12120714Y-14710476D01*
X12120714Y-14710476D02*
X12101667Y-14700952D01*
X12101667Y-14700952D02*
X12092143Y-14691428D01*
X12092143Y-14691428D02*
X12082619Y-14672381D01*
X12082619Y-14672381D02*
X12073095Y-14634286D01*
X12073095Y-14634286D02*
X12073095Y-14586667D01*
X12073095Y-14586667D02*
X12082619Y-14548571D01*
X12082619Y-14548571D02*
X12092143Y-14529524D01*
X12092143Y-14529524D02*
X12101667Y-14520000D01*
X12101667Y-14520000D02*
X12120714Y-14510476D01*
X12273095Y-14691428D02*
X12282619Y-14700952D01*
X12282619Y-14700952D02*
X12273095Y-14710476D01*
X12273095Y-14710476D02*
X12263571Y-14700952D01*
X12263571Y-14700952D02*
X12273095Y-14691428D01*
X12273095Y-14691428D02*
X12273095Y-14710476D01*
X12406429Y-14510476D02*
X12425476Y-14510476D01*
X12425476Y-14510476D02*
X12444524Y-14520000D01*
X12444524Y-14520000D02*
X12454048Y-14529524D01*
X12454048Y-14529524D02*
X12463571Y-14548571D01*
X12463571Y-14548571D02*
X12473095Y-14586667D01*
X12473095Y-14586667D02*
X12473095Y-14634286D01*
X12473095Y-14634286D02*
X12463571Y-14672381D01*
X12463571Y-14672381D02*
X12454048Y-14691428D01*
X12454048Y-14691428D02*
X12444524Y-14700952D01*
X12444524Y-14700952D02*
X12425476Y-14710476D01*
X12425476Y-14710476D02*
X12406429Y-14710476D01*
X12406429Y-14710476D02*
X12387381Y-14700952D01*
X12387381Y-14700952D02*
X12377857Y-14691428D01*
X12377857Y-14691428D02*
X12368333Y-14672381D01*
X12368333Y-14672381D02*
X12358810Y-14634286D01*
X12358810Y-14634286D02*
X12358810Y-14586667D01*
X12358810Y-14586667D02*
X12368333Y-14548571D01*
X12368333Y-14548571D02*
X12377857Y-14529524D01*
X12377857Y-14529524D02*
X12387381Y-14520000D01*
X12387381Y-14520000D02*
X12406429Y-14510476D01*
X12644524Y-14577143D02*
X12644524Y-14710476D01*
X12596905Y-14500952D02*
X12549286Y-14643809D01*
X12549286Y-14643809D02*
X12673095Y-14643809D01*
X12730238Y-14510476D02*
X12854048Y-14510476D01*
X12854048Y-14510476D02*
X12787381Y-14586667D01*
X12787381Y-14586667D02*
X12815952Y-14586667D01*
X12815952Y-14586667D02*
X12835000Y-14596190D01*
X12835000Y-14596190D02*
X12844524Y-14605714D01*
X12844524Y-14605714D02*
X12854048Y-14624762D01*
X12854048Y-14624762D02*
X12854048Y-14672381D01*
X12854048Y-14672381D02*
X12844524Y-14691428D01*
X12844524Y-14691428D02*
X12835000Y-14700952D01*
X12835000Y-14700952D02*
X12815952Y-14710476D01*
X12815952Y-14710476D02*
X12758810Y-14710476D01*
X12758810Y-14710476D02*
X12739762Y-14700952D01*
X12739762Y-14700952D02*
X12730238Y-14691428D01*
X12920714Y-14510476D02*
X13044524Y-14510476D01*
X13044524Y-14510476D02*
X12977857Y-14586667D01*
X12977857Y-14586667D02*
X13006429Y-14586667D01*
X13006429Y-14586667D02*
X13025476Y-14596190D01*
X13025476Y-14596190D02*
X13035000Y-14605714D01*
X13035000Y-14605714D02*
X13044524Y-14624762D01*
X13044524Y-14624762D02*
X13044524Y-14672381D01*
X13044524Y-14672381D02*
X13035000Y-14691428D01*
X13035000Y-14691428D02*
X13025476Y-14700952D01*
X13025476Y-14700952D02*
X13006429Y-14710476D01*
X13006429Y-14710476D02*
X12949286Y-14710476D01*
X12949286Y-14710476D02*
X12930238Y-14700952D01*
X12930238Y-14700952D02*
X12920714Y-14691428D01*
X13120714Y-14510476D02*
X13120714Y-14548571D01*
X13196905Y-14510476D02*
X13196905Y-14548571D01*
X13459762Y-14786667D02*
X13450238Y-14777143D01*
X13450238Y-14777143D02*
X13431191Y-14748571D01*
X13431191Y-14748571D02*
X13421667Y-14729524D01*
X13421667Y-14729524D02*
X13412143Y-14700952D01*
X13412143Y-14700952D02*
X13402619Y-14653333D01*
X13402619Y-14653333D02*
X13402619Y-14615238D01*
X13402619Y-14615238D02*
X13412143Y-14567619D01*
X13412143Y-14567619D02*
X13421667Y-14539048D01*
X13421667Y-14539048D02*
X13431191Y-14520000D01*
X13431191Y-14520000D02*
X13450238Y-14491428D01*
X13450238Y-14491428D02*
X13459762Y-14481905D01*
X13526429Y-14529524D02*
X13535952Y-14520000D01*
X13535952Y-14520000D02*
X13555000Y-14510476D01*
X13555000Y-14510476D02*
X13602619Y-14510476D01*
X13602619Y-14510476D02*
X13621667Y-14520000D01*
X13621667Y-14520000D02*
X13631191Y-14529524D01*
X13631191Y-14529524D02*
X13640714Y-14548571D01*
X13640714Y-14548571D02*
X13640714Y-14567619D01*
X13640714Y-14567619D02*
X13631191Y-14596190D01*
X13631191Y-14596190D02*
X13516905Y-14710476D01*
X13516905Y-14710476D02*
X13640714Y-14710476D01*
X13846429Y-14710476D02*
X13846429Y-14510476D01*
X13932143Y-14710476D02*
X13932143Y-14605714D01*
X13932143Y-14605714D02*
X13922619Y-14586667D01*
X13922619Y-14586667D02*
X13903572Y-14577143D01*
X13903572Y-14577143D02*
X13875000Y-14577143D01*
X13875000Y-14577143D02*
X13855952Y-14586667D01*
X13855952Y-14586667D02*
X13846429Y-14596190D01*
X14055952Y-14710476D02*
X14036905Y-14700952D01*
X14036905Y-14700952D02*
X14027381Y-14691428D01*
X14027381Y-14691428D02*
X14017857Y-14672381D01*
X14017857Y-14672381D02*
X14017857Y-14615238D01*
X14017857Y-14615238D02*
X14027381Y-14596190D01*
X14027381Y-14596190D02*
X14036905Y-14586667D01*
X14036905Y-14586667D02*
X14055952Y-14577143D01*
X14055952Y-14577143D02*
X14084524Y-14577143D01*
X14084524Y-14577143D02*
X14103572Y-14586667D01*
X14103572Y-14586667D02*
X14113095Y-14596190D01*
X14113095Y-14596190D02*
X14122619Y-14615238D01*
X14122619Y-14615238D02*
X14122619Y-14672381D01*
X14122619Y-14672381D02*
X14113095Y-14691428D01*
X14113095Y-14691428D02*
X14103572Y-14700952D01*
X14103572Y-14700952D02*
X14084524Y-14710476D01*
X14084524Y-14710476D02*
X14055952Y-14710476D01*
X14236905Y-14710476D02*
X14217857Y-14700952D01*
X14217857Y-14700952D02*
X14208333Y-14681905D01*
X14208333Y-14681905D02*
X14208333Y-14510476D01*
X14389286Y-14700952D02*
X14370238Y-14710476D01*
X14370238Y-14710476D02*
X14332143Y-14710476D01*
X14332143Y-14710476D02*
X14313095Y-14700952D01*
X14313095Y-14700952D02*
X14303572Y-14681905D01*
X14303572Y-14681905D02*
X14303572Y-14605714D01*
X14303572Y-14605714D02*
X14313095Y-14586667D01*
X14313095Y-14586667D02*
X14332143Y-14577143D01*
X14332143Y-14577143D02*
X14370238Y-14577143D01*
X14370238Y-14577143D02*
X14389286Y-14586667D01*
X14389286Y-14586667D02*
X14398810Y-14605714D01*
X14398810Y-14605714D02*
X14398810Y-14624762D01*
X14398810Y-14624762D02*
X14303572Y-14643809D01*
X14475000Y-14700952D02*
X14494048Y-14710476D01*
X14494048Y-14710476D02*
X14532143Y-14710476D01*
X14532143Y-14710476D02*
X14551191Y-14700952D01*
X14551191Y-14700952D02*
X14560714Y-14681905D01*
X14560714Y-14681905D02*
X14560714Y-14672381D01*
X14560714Y-14672381D02*
X14551191Y-14653333D01*
X14551191Y-14653333D02*
X14532143Y-14643809D01*
X14532143Y-14643809D02*
X14503572Y-14643809D01*
X14503572Y-14643809D02*
X14484524Y-14634286D01*
X14484524Y-14634286D02*
X14475000Y-14615238D01*
X14475000Y-14615238D02*
X14475000Y-14605714D01*
X14475000Y-14605714D02*
X14484524Y-14586667D01*
X14484524Y-14586667D02*
X14503572Y-14577143D01*
X14503572Y-14577143D02*
X14532143Y-14577143D01*
X14532143Y-14577143D02*
X14551191Y-14586667D01*
X14627381Y-14786667D02*
X14636905Y-14777143D01*
X14636905Y-14777143D02*
X14655953Y-14748571D01*
X14655953Y-14748571D02*
X14665476Y-14729524D01*
X14665476Y-14729524D02*
X14675000Y-14700952D01*
X14675000Y-14700952D02*
X14684524Y-14653333D01*
X14684524Y-14653333D02*
X14684524Y-14615238D01*
X14684524Y-14615238D02*
X14675000Y-14567619D01*
X14675000Y-14567619D02*
X14665476Y-14539048D01*
X14665476Y-14539048D02*
X14655953Y-14520000D01*
X14655953Y-14520000D02*
X14636905Y-14491428D01*
X14636905Y-14491428D02*
X14627381Y-14481905D01*
D14*
X9940000Y-14956000D02*
X9995000Y-14901000D01*
X9940000Y-14846000D01*
X9885000Y-14901000D01*
X9940000Y-14956000D01*
D11*
X10347381Y-14974476D02*
X10233095Y-14974476D01*
X10290238Y-14974476D02*
X10290238Y-14774476D01*
X10290238Y-14774476D02*
X10271190Y-14803048D01*
X10271190Y-14803048D02*
X10252143Y-14822095D01*
X10252143Y-14822095D02*
X10233095Y-14831619D01*
X10433095Y-14955428D02*
X10442619Y-14964952D01*
X10442619Y-14964952D02*
X10433095Y-14974476D01*
X10433095Y-14974476D02*
X10423571Y-14964952D01*
X10423571Y-14964952D02*
X10433095Y-14955428D01*
X10433095Y-14955428D02*
X10433095Y-14974476D01*
X10633095Y-14974476D02*
X10518810Y-14974476D01*
X10575952Y-14974476D02*
X10575952Y-14774476D01*
X10575952Y-14774476D02*
X10556905Y-14803048D01*
X10556905Y-14803048D02*
X10537857Y-14822095D01*
X10537857Y-14822095D02*
X10518810Y-14831619D01*
X10756905Y-14774476D02*
X10775952Y-14774476D01*
X10775952Y-14774476D02*
X10795000Y-14784000D01*
X10795000Y-14784000D02*
X10804524Y-14793524D01*
X10804524Y-14793524D02*
X10814048Y-14812571D01*
X10814048Y-14812571D02*
X10823571Y-14850667D01*
X10823571Y-14850667D02*
X10823571Y-14898286D01*
X10823571Y-14898286D02*
X10814048Y-14936381D01*
X10814048Y-14936381D02*
X10804524Y-14955428D01*
X10804524Y-14955428D02*
X10795000Y-14964952D01*
X10795000Y-14964952D02*
X10775952Y-14974476D01*
X10775952Y-14974476D02*
X10756905Y-14974476D01*
X10756905Y-14974476D02*
X10737857Y-14964952D01*
X10737857Y-14964952D02*
X10728333Y-14955428D01*
X10728333Y-14955428D02*
X10718810Y-14936381D01*
X10718810Y-14936381D02*
X10709286Y-14898286D01*
X10709286Y-14898286D02*
X10709286Y-14850667D01*
X10709286Y-14850667D02*
X10718810Y-14812571D01*
X10718810Y-14812571D02*
X10728333Y-14793524D01*
X10728333Y-14793524D02*
X10737857Y-14784000D01*
X10737857Y-14784000D02*
X10756905Y-14774476D01*
X10947381Y-14774476D02*
X10966429Y-14774476D01*
X10966429Y-14774476D02*
X10985476Y-14784000D01*
X10985476Y-14784000D02*
X10995000Y-14793524D01*
X10995000Y-14793524D02*
X11004524Y-14812571D01*
X11004524Y-14812571D02*
X11014048Y-14850667D01*
X11014048Y-14850667D02*
X11014048Y-14898286D01*
X11014048Y-14898286D02*
X11004524Y-14936381D01*
X11004524Y-14936381D02*
X10995000Y-14955428D01*
X10995000Y-14955428D02*
X10985476Y-14964952D01*
X10985476Y-14964952D02*
X10966429Y-14974476D01*
X10966429Y-14974476D02*
X10947381Y-14974476D01*
X10947381Y-14974476D02*
X10928333Y-14964952D01*
X10928333Y-14964952D02*
X10918810Y-14955428D01*
X10918810Y-14955428D02*
X10909286Y-14936381D01*
X10909286Y-14936381D02*
X10899762Y-14898286D01*
X10899762Y-14898286D02*
X10899762Y-14850667D01*
X10899762Y-14850667D02*
X10909286Y-14812571D01*
X10909286Y-14812571D02*
X10918810Y-14793524D01*
X10918810Y-14793524D02*
X10928333Y-14784000D01*
X10928333Y-14784000D02*
X10947381Y-14774476D01*
X11099762Y-14974476D02*
X11099762Y-14841143D01*
X11099762Y-14860190D02*
X11109286Y-14850667D01*
X11109286Y-14850667D02*
X11128333Y-14841143D01*
X11128333Y-14841143D02*
X11156905Y-14841143D01*
X11156905Y-14841143D02*
X11175952Y-14850667D01*
X11175952Y-14850667D02*
X11185476Y-14869714D01*
X11185476Y-14869714D02*
X11185476Y-14974476D01*
X11185476Y-14869714D02*
X11195000Y-14850667D01*
X11195000Y-14850667D02*
X11214048Y-14841143D01*
X11214048Y-14841143D02*
X11242619Y-14841143D01*
X11242619Y-14841143D02*
X11261667Y-14850667D01*
X11261667Y-14850667D02*
X11271190Y-14869714D01*
X11271190Y-14869714D02*
X11271190Y-14974476D01*
X11366429Y-14974476D02*
X11366429Y-14841143D01*
X11366429Y-14860190D02*
X11375952Y-14850667D01*
X11375952Y-14850667D02*
X11395000Y-14841143D01*
X11395000Y-14841143D02*
X11423571Y-14841143D01*
X11423571Y-14841143D02*
X11442619Y-14850667D01*
X11442619Y-14850667D02*
X11452143Y-14869714D01*
X11452143Y-14869714D02*
X11452143Y-14974476D01*
X11452143Y-14869714D02*
X11461667Y-14850667D01*
X11461667Y-14850667D02*
X11480714Y-14841143D01*
X11480714Y-14841143D02*
X11509286Y-14841143D01*
X11509286Y-14841143D02*
X11528333Y-14850667D01*
X11528333Y-14850667D02*
X11537857Y-14869714D01*
X11537857Y-14869714D02*
X11537857Y-14974476D01*
X11895952Y-14764952D02*
X11724524Y-15022095D01*
X12120714Y-14774476D02*
X12139762Y-14774476D01*
X12139762Y-14774476D02*
X12158810Y-14784000D01*
X12158810Y-14784000D02*
X12168333Y-14793524D01*
X12168333Y-14793524D02*
X12177857Y-14812571D01*
X12177857Y-14812571D02*
X12187381Y-14850667D01*
X12187381Y-14850667D02*
X12187381Y-14898286D01*
X12187381Y-14898286D02*
X12177857Y-14936381D01*
X12177857Y-14936381D02*
X12168333Y-14955428D01*
X12168333Y-14955428D02*
X12158810Y-14964952D01*
X12158810Y-14964952D02*
X12139762Y-14974476D01*
X12139762Y-14974476D02*
X12120714Y-14974476D01*
X12120714Y-14974476D02*
X12101667Y-14964952D01*
X12101667Y-14964952D02*
X12092143Y-14955428D01*
X12092143Y-14955428D02*
X12082619Y-14936381D01*
X12082619Y-14936381D02*
X12073095Y-14898286D01*
X12073095Y-14898286D02*
X12073095Y-14850667D01*
X12073095Y-14850667D02*
X12082619Y-14812571D01*
X12082619Y-14812571D02*
X12092143Y-14793524D01*
X12092143Y-14793524D02*
X12101667Y-14784000D01*
X12101667Y-14784000D02*
X12120714Y-14774476D01*
X12273095Y-14955428D02*
X12282619Y-14964952D01*
X12282619Y-14964952D02*
X12273095Y-14974476D01*
X12273095Y-14974476D02*
X12263571Y-14964952D01*
X12263571Y-14964952D02*
X12273095Y-14955428D01*
X12273095Y-14955428D02*
X12273095Y-14974476D01*
X12406429Y-14774476D02*
X12425476Y-14774476D01*
X12425476Y-14774476D02*
X12444524Y-14784000D01*
X12444524Y-14784000D02*
X12454048Y-14793524D01*
X12454048Y-14793524D02*
X12463571Y-14812571D01*
X12463571Y-14812571D02*
X12473095Y-14850667D01*
X12473095Y-14850667D02*
X12473095Y-14898286D01*
X12473095Y-14898286D02*
X12463571Y-14936381D01*
X12463571Y-14936381D02*
X12454048Y-14955428D01*
X12454048Y-14955428D02*
X12444524Y-14964952D01*
X12444524Y-14964952D02*
X12425476Y-14974476D01*
X12425476Y-14974476D02*
X12406429Y-14974476D01*
X12406429Y-14974476D02*
X12387381Y-14964952D01*
X12387381Y-14964952D02*
X12377857Y-14955428D01*
X12377857Y-14955428D02*
X12368333Y-14936381D01*
X12368333Y-14936381D02*
X12358810Y-14898286D01*
X12358810Y-14898286D02*
X12358810Y-14850667D01*
X12358810Y-14850667D02*
X12368333Y-14812571D01*
X12368333Y-14812571D02*
X12377857Y-14793524D01*
X12377857Y-14793524D02*
X12387381Y-14784000D01*
X12387381Y-14784000D02*
X12406429Y-14774476D01*
X12644524Y-14841143D02*
X12644524Y-14974476D01*
X12596905Y-14764952D02*
X12549286Y-14907809D01*
X12549286Y-14907809D02*
X12673095Y-14907809D01*
X12730238Y-14774476D02*
X12854048Y-14774476D01*
X12854048Y-14774476D02*
X12787381Y-14850667D01*
X12787381Y-14850667D02*
X12815952Y-14850667D01*
X12815952Y-14850667D02*
X12835000Y-14860190D01*
X12835000Y-14860190D02*
X12844524Y-14869714D01*
X12844524Y-14869714D02*
X12854048Y-14888762D01*
X12854048Y-14888762D02*
X12854048Y-14936381D01*
X12854048Y-14936381D02*
X12844524Y-14955428D01*
X12844524Y-14955428D02*
X12835000Y-14964952D01*
X12835000Y-14964952D02*
X12815952Y-14974476D01*
X12815952Y-14974476D02*
X12758810Y-14974476D01*
X12758810Y-14974476D02*
X12739762Y-14964952D01*
X12739762Y-14964952D02*
X12730238Y-14955428D01*
X12920714Y-14774476D02*
X13044524Y-14774476D01*
X13044524Y-14774476D02*
X12977857Y-14850667D01*
X12977857Y-14850667D02*
X13006429Y-14850667D01*
X13006429Y-14850667D02*
X13025476Y-14860190D01*
X13025476Y-14860190D02*
X13035000Y-14869714D01*
X13035000Y-14869714D02*
X13044524Y-14888762D01*
X13044524Y-14888762D02*
X13044524Y-14936381D01*
X13044524Y-14936381D02*
X13035000Y-14955428D01*
X13035000Y-14955428D02*
X13025476Y-14964952D01*
X13025476Y-14964952D02*
X13006429Y-14974476D01*
X13006429Y-14974476D02*
X12949286Y-14974476D01*
X12949286Y-14974476D02*
X12930238Y-14964952D01*
X12930238Y-14964952D02*
X12920714Y-14955428D01*
X13120714Y-14774476D02*
X13120714Y-14812571D01*
X13196905Y-14774476D02*
X13196905Y-14812571D01*
X13459762Y-15050667D02*
X13450238Y-15041143D01*
X13450238Y-15041143D02*
X13431191Y-15012571D01*
X13431191Y-15012571D02*
X13421667Y-14993524D01*
X13421667Y-14993524D02*
X13412143Y-14964952D01*
X13412143Y-14964952D02*
X13402619Y-14917333D01*
X13402619Y-14917333D02*
X13402619Y-14879238D01*
X13402619Y-14879238D02*
X13412143Y-14831619D01*
X13412143Y-14831619D02*
X13421667Y-14803048D01*
X13421667Y-14803048D02*
X13431191Y-14784000D01*
X13431191Y-14784000D02*
X13450238Y-14755428D01*
X13450238Y-14755428D02*
X13459762Y-14745905D01*
X13526429Y-14793524D02*
X13535952Y-14784000D01*
X13535952Y-14784000D02*
X13555000Y-14774476D01*
X13555000Y-14774476D02*
X13602619Y-14774476D01*
X13602619Y-14774476D02*
X13621667Y-14784000D01*
X13621667Y-14784000D02*
X13631191Y-14793524D01*
X13631191Y-14793524D02*
X13640714Y-14812571D01*
X13640714Y-14812571D02*
X13640714Y-14831619D01*
X13640714Y-14831619D02*
X13631191Y-14860190D01*
X13631191Y-14860190D02*
X13516905Y-14974476D01*
X13516905Y-14974476D02*
X13640714Y-14974476D01*
X13846429Y-14974476D02*
X13846429Y-14774476D01*
X13932143Y-14974476D02*
X13932143Y-14869714D01*
X13932143Y-14869714D02*
X13922619Y-14850667D01*
X13922619Y-14850667D02*
X13903572Y-14841143D01*
X13903572Y-14841143D02*
X13875000Y-14841143D01*
X13875000Y-14841143D02*
X13855952Y-14850667D01*
X13855952Y-14850667D02*
X13846429Y-14860190D01*
X14055952Y-14974476D02*
X14036905Y-14964952D01*
X14036905Y-14964952D02*
X14027381Y-14955428D01*
X14027381Y-14955428D02*
X14017857Y-14936381D01*
X14017857Y-14936381D02*
X14017857Y-14879238D01*
X14017857Y-14879238D02*
X14027381Y-14860190D01*
X14027381Y-14860190D02*
X14036905Y-14850667D01*
X14036905Y-14850667D02*
X14055952Y-14841143D01*
X14055952Y-14841143D02*
X14084524Y-14841143D01*
X14084524Y-14841143D02*
X14103572Y-14850667D01*
X14103572Y-14850667D02*
X14113095Y-14860190D01*
X14113095Y-14860190D02*
X14122619Y-14879238D01*
X14122619Y-14879238D02*
X14122619Y-14936381D01*
X14122619Y-14936381D02*
X14113095Y-14955428D01*
X14113095Y-14955428D02*
X14103572Y-14964952D01*
X14103572Y-14964952D02*
X14084524Y-14974476D01*
X14084524Y-14974476D02*
X14055952Y-14974476D01*
X14236905Y-14974476D02*
X14217857Y-14964952D01*
X14217857Y-14964952D02*
X14208333Y-14945905D01*
X14208333Y-14945905D02*
X14208333Y-14774476D01*
X14389286Y-14964952D02*
X14370238Y-14974476D01*
X14370238Y-14974476D02*
X14332143Y-14974476D01*
X14332143Y-14974476D02*
X14313095Y-14964952D01*
X14313095Y-14964952D02*
X14303572Y-14945905D01*
X14303572Y-14945905D02*
X14303572Y-14869714D01*
X14303572Y-14869714D02*
X14313095Y-14850667D01*
X14313095Y-14850667D02*
X14332143Y-14841143D01*
X14332143Y-14841143D02*
X14370238Y-14841143D01*
X14370238Y-14841143D02*
X14389286Y-14850667D01*
X14389286Y-14850667D02*
X14398810Y-14869714D01*
X14398810Y-14869714D02*
X14398810Y-14888762D01*
X14398810Y-14888762D02*
X14303572Y-14907809D01*
X14475000Y-14964952D02*
X14494048Y-14974476D01*
X14494048Y-14974476D02*
X14532143Y-14974476D01*
X14532143Y-14974476D02*
X14551191Y-14964952D01*
X14551191Y-14964952D02*
X14560714Y-14945905D01*
X14560714Y-14945905D02*
X14560714Y-14936381D01*
X14560714Y-14936381D02*
X14551191Y-14917333D01*
X14551191Y-14917333D02*
X14532143Y-14907809D01*
X14532143Y-14907809D02*
X14503572Y-14907809D01*
X14503572Y-14907809D02*
X14484524Y-14898286D01*
X14484524Y-14898286D02*
X14475000Y-14879238D01*
X14475000Y-14879238D02*
X14475000Y-14869714D01*
X14475000Y-14869714D02*
X14484524Y-14850667D01*
X14484524Y-14850667D02*
X14503572Y-14841143D01*
X14503572Y-14841143D02*
X14532143Y-14841143D01*
X14532143Y-14841143D02*
X14551191Y-14850667D01*
X14627381Y-15050667D02*
X14636905Y-15041143D01*
X14636905Y-15041143D02*
X14655953Y-15012571D01*
X14655953Y-15012571D02*
X14665476Y-14993524D01*
X14665476Y-14993524D02*
X14675000Y-14964952D01*
X14675000Y-14964952D02*
X14684524Y-14917333D01*
X14684524Y-14917333D02*
X14684524Y-14879238D01*
X14684524Y-14879238D02*
X14675000Y-14831619D01*
X14675000Y-14831619D02*
X14665476Y-14803048D01*
X14665476Y-14803048D02*
X14655953Y-14784000D01*
X14655953Y-14784000D02*
X14636905Y-14755428D01*
X14636905Y-14755428D02*
X14627381Y-14745905D01*
X14956905Y-15050667D02*
X14947381Y-15041143D01*
X14947381Y-15041143D02*
X14928333Y-15012571D01*
X14928333Y-15012571D02*
X14918810Y-14993524D01*
X14918810Y-14993524D02*
X14909286Y-14964952D01*
X14909286Y-14964952D02*
X14899762Y-14917333D01*
X14899762Y-14917333D02*
X14899762Y-14879238D01*
X14899762Y-14879238D02*
X14909286Y-14831619D01*
X14909286Y-14831619D02*
X14918810Y-14803048D01*
X14918810Y-14803048D02*
X14928333Y-14784000D01*
X14928333Y-14784000D02*
X14947381Y-14755428D01*
X14947381Y-14755428D02*
X14956905Y-14745905D01*
X15033095Y-14841143D02*
X15033095Y-14974476D01*
X15033095Y-14860190D02*
X15042619Y-14850667D01*
X15042619Y-14850667D02*
X15061667Y-14841143D01*
X15061667Y-14841143D02*
X15090238Y-14841143D01*
X15090238Y-14841143D02*
X15109286Y-14850667D01*
X15109286Y-14850667D02*
X15118810Y-14869714D01*
X15118810Y-14869714D02*
X15118810Y-14974476D01*
X15242619Y-14974476D02*
X15223572Y-14964952D01*
X15223572Y-14964952D02*
X15214048Y-14955428D01*
X15214048Y-14955428D02*
X15204524Y-14936381D01*
X15204524Y-14936381D02*
X15204524Y-14879238D01*
X15204524Y-14879238D02*
X15214048Y-14860190D01*
X15214048Y-14860190D02*
X15223572Y-14850667D01*
X15223572Y-14850667D02*
X15242619Y-14841143D01*
X15242619Y-14841143D02*
X15271191Y-14841143D01*
X15271191Y-14841143D02*
X15290238Y-14850667D01*
X15290238Y-14850667D02*
X15299762Y-14860190D01*
X15299762Y-14860190D02*
X15309286Y-14879238D01*
X15309286Y-14879238D02*
X15309286Y-14936381D01*
X15309286Y-14936381D02*
X15299762Y-14955428D01*
X15299762Y-14955428D02*
X15290238Y-14964952D01*
X15290238Y-14964952D02*
X15271191Y-14974476D01*
X15271191Y-14974476D02*
X15242619Y-14974476D01*
X15366429Y-14841143D02*
X15442619Y-14841143D01*
X15395000Y-14774476D02*
X15395000Y-14945905D01*
X15395000Y-14945905D02*
X15404524Y-14964952D01*
X15404524Y-14964952D02*
X15423572Y-14974476D01*
X15423572Y-14974476D02*
X15442619Y-14974476D01*
X15629286Y-14841143D02*
X15629286Y-15041143D01*
X15629286Y-14850667D02*
X15648333Y-14841143D01*
X15648333Y-14841143D02*
X15686429Y-14841143D01*
X15686429Y-14841143D02*
X15705476Y-14850667D01*
X15705476Y-14850667D02*
X15715000Y-14860190D01*
X15715000Y-14860190D02*
X15724524Y-14879238D01*
X15724524Y-14879238D02*
X15724524Y-14936381D01*
X15724524Y-14936381D02*
X15715000Y-14955428D01*
X15715000Y-14955428D02*
X15705476Y-14964952D01*
X15705476Y-14964952D02*
X15686429Y-14974476D01*
X15686429Y-14974476D02*
X15648333Y-14974476D01*
X15648333Y-14974476D02*
X15629286Y-14964952D01*
X15838810Y-14974476D02*
X15819762Y-14964952D01*
X15819762Y-14964952D02*
X15810238Y-14945905D01*
X15810238Y-14945905D02*
X15810238Y-14774476D01*
X16000714Y-14974476D02*
X16000714Y-14869714D01*
X16000714Y-14869714D02*
X15991191Y-14850667D01*
X15991191Y-14850667D02*
X15972143Y-14841143D01*
X15972143Y-14841143D02*
X15934048Y-14841143D01*
X15934048Y-14841143D02*
X15915000Y-14850667D01*
X16000714Y-14964952D02*
X15981667Y-14974476D01*
X15981667Y-14974476D02*
X15934048Y-14974476D01*
X15934048Y-14974476D02*
X15915000Y-14964952D01*
X15915000Y-14964952D02*
X15905476Y-14945905D01*
X15905476Y-14945905D02*
X15905476Y-14926857D01*
X15905476Y-14926857D02*
X15915000Y-14907809D01*
X15915000Y-14907809D02*
X15934048Y-14898286D01*
X15934048Y-14898286D02*
X15981667Y-14898286D01*
X15981667Y-14898286D02*
X16000714Y-14888762D01*
X16067381Y-14841143D02*
X16143572Y-14841143D01*
X16095953Y-14774476D02*
X16095953Y-14945905D01*
X16095953Y-14945905D02*
X16105476Y-14964952D01*
X16105476Y-14964952D02*
X16124524Y-14974476D01*
X16124524Y-14974476D02*
X16143572Y-14974476D01*
X16286429Y-14964952D02*
X16267381Y-14974476D01*
X16267381Y-14974476D02*
X16229286Y-14974476D01*
X16229286Y-14974476D02*
X16210238Y-14964952D01*
X16210238Y-14964952D02*
X16200714Y-14945905D01*
X16200714Y-14945905D02*
X16200714Y-14869714D01*
X16200714Y-14869714D02*
X16210238Y-14850667D01*
X16210238Y-14850667D02*
X16229286Y-14841143D01*
X16229286Y-14841143D02*
X16267381Y-14841143D01*
X16267381Y-14841143D02*
X16286429Y-14850667D01*
X16286429Y-14850667D02*
X16295953Y-14869714D01*
X16295953Y-14869714D02*
X16295953Y-14888762D01*
X16295953Y-14888762D02*
X16200714Y-14907809D01*
X16467381Y-14974476D02*
X16467381Y-14774476D01*
X16467381Y-14964952D02*
X16448334Y-14974476D01*
X16448334Y-14974476D02*
X16410238Y-14974476D01*
X16410238Y-14974476D02*
X16391191Y-14964952D01*
X16391191Y-14964952D02*
X16381667Y-14955428D01*
X16381667Y-14955428D02*
X16372143Y-14936381D01*
X16372143Y-14936381D02*
X16372143Y-14879238D01*
X16372143Y-14879238D02*
X16381667Y-14860190D01*
X16381667Y-14860190D02*
X16391191Y-14850667D01*
X16391191Y-14850667D02*
X16410238Y-14841143D01*
X16410238Y-14841143D02*
X16448334Y-14841143D01*
X16448334Y-14841143D02*
X16467381Y-14850667D01*
X16543572Y-15050667D02*
X16553095Y-15041143D01*
X16553095Y-15041143D02*
X16572143Y-15012571D01*
X16572143Y-15012571D02*
X16581667Y-14993524D01*
X16581667Y-14993524D02*
X16591191Y-14964952D01*
X16591191Y-14964952D02*
X16600714Y-14917333D01*
X16600714Y-14917333D02*
X16600714Y-14879238D01*
X16600714Y-14879238D02*
X16591191Y-14831619D01*
X16591191Y-14831619D02*
X16581667Y-14803048D01*
X16581667Y-14803048D02*
X16572143Y-14784000D01*
X16572143Y-14784000D02*
X16553095Y-14755428D01*
X16553095Y-14755428D02*
X16543572Y-14745905D01*
X9795000Y-15065000D02*
X9995000Y-15265000D01*
X9995000Y-15065000D02*
X9795000Y-15265000D01*
X9995000Y-15165000D02*
G75*
G03*
X9995000Y-15165000I-100000J0D01*
G01*
X10233095Y-15057524D02*
X10242619Y-15048000D01*
X10242619Y-15048000D02*
X10261667Y-15038476D01*
X10261667Y-15038476D02*
X10309286Y-15038476D01*
X10309286Y-15038476D02*
X10328333Y-15048000D01*
X10328333Y-15048000D02*
X10337857Y-15057524D01*
X10337857Y-15057524D02*
X10347381Y-15076571D01*
X10347381Y-15076571D02*
X10347381Y-15095619D01*
X10347381Y-15095619D02*
X10337857Y-15124190D01*
X10337857Y-15124190D02*
X10223571Y-15238476D01*
X10223571Y-15238476D02*
X10347381Y-15238476D01*
X10433095Y-15219428D02*
X10442619Y-15228952D01*
X10442619Y-15228952D02*
X10433095Y-15238476D01*
X10433095Y-15238476D02*
X10423571Y-15228952D01*
X10423571Y-15228952D02*
X10433095Y-15219428D01*
X10433095Y-15219428D02*
X10433095Y-15238476D01*
X10566429Y-15038476D02*
X10585476Y-15038476D01*
X10585476Y-15038476D02*
X10604524Y-15048000D01*
X10604524Y-15048000D02*
X10614048Y-15057524D01*
X10614048Y-15057524D02*
X10623571Y-15076571D01*
X10623571Y-15076571D02*
X10633095Y-15114667D01*
X10633095Y-15114667D02*
X10633095Y-15162286D01*
X10633095Y-15162286D02*
X10623571Y-15200381D01*
X10623571Y-15200381D02*
X10614048Y-15219428D01*
X10614048Y-15219428D02*
X10604524Y-15228952D01*
X10604524Y-15228952D02*
X10585476Y-15238476D01*
X10585476Y-15238476D02*
X10566429Y-15238476D01*
X10566429Y-15238476D02*
X10547381Y-15228952D01*
X10547381Y-15228952D02*
X10537857Y-15219428D01*
X10537857Y-15219428D02*
X10528333Y-15200381D01*
X10528333Y-15200381D02*
X10518810Y-15162286D01*
X10518810Y-15162286D02*
X10518810Y-15114667D01*
X10518810Y-15114667D02*
X10528333Y-15076571D01*
X10528333Y-15076571D02*
X10537857Y-15057524D01*
X10537857Y-15057524D02*
X10547381Y-15048000D01*
X10547381Y-15048000D02*
X10566429Y-15038476D01*
X10756905Y-15038476D02*
X10775952Y-15038476D01*
X10775952Y-15038476D02*
X10795000Y-15048000D01*
X10795000Y-15048000D02*
X10804524Y-15057524D01*
X10804524Y-15057524D02*
X10814048Y-15076571D01*
X10814048Y-15076571D02*
X10823571Y-15114667D01*
X10823571Y-15114667D02*
X10823571Y-15162286D01*
X10823571Y-15162286D02*
X10814048Y-15200381D01*
X10814048Y-15200381D02*
X10804524Y-15219428D01*
X10804524Y-15219428D02*
X10795000Y-15228952D01*
X10795000Y-15228952D02*
X10775952Y-15238476D01*
X10775952Y-15238476D02*
X10756905Y-15238476D01*
X10756905Y-15238476D02*
X10737857Y-15228952D01*
X10737857Y-15228952D02*
X10728333Y-15219428D01*
X10728333Y-15219428D02*
X10718810Y-15200381D01*
X10718810Y-15200381D02*
X10709286Y-15162286D01*
X10709286Y-15162286D02*
X10709286Y-15114667D01*
X10709286Y-15114667D02*
X10718810Y-15076571D01*
X10718810Y-15076571D02*
X10728333Y-15057524D01*
X10728333Y-15057524D02*
X10737857Y-15048000D01*
X10737857Y-15048000D02*
X10756905Y-15038476D01*
X10947381Y-15038476D02*
X10966429Y-15038476D01*
X10966429Y-15038476D02*
X10985476Y-15048000D01*
X10985476Y-15048000D02*
X10995000Y-15057524D01*
X10995000Y-15057524D02*
X11004524Y-15076571D01*
X11004524Y-15076571D02*
X11014048Y-15114667D01*
X11014048Y-15114667D02*
X11014048Y-15162286D01*
X11014048Y-15162286D02*
X11004524Y-15200381D01*
X11004524Y-15200381D02*
X10995000Y-15219428D01*
X10995000Y-15219428D02*
X10985476Y-15228952D01*
X10985476Y-15228952D02*
X10966429Y-15238476D01*
X10966429Y-15238476D02*
X10947381Y-15238476D01*
X10947381Y-15238476D02*
X10928333Y-15228952D01*
X10928333Y-15228952D02*
X10918810Y-15219428D01*
X10918810Y-15219428D02*
X10909286Y-15200381D01*
X10909286Y-15200381D02*
X10899762Y-15162286D01*
X10899762Y-15162286D02*
X10899762Y-15114667D01*
X10899762Y-15114667D02*
X10909286Y-15076571D01*
X10909286Y-15076571D02*
X10918810Y-15057524D01*
X10918810Y-15057524D02*
X10928333Y-15048000D01*
X10928333Y-15048000D02*
X10947381Y-15038476D01*
X11099762Y-15238476D02*
X11099762Y-15105143D01*
X11099762Y-15124190D02*
X11109286Y-15114667D01*
X11109286Y-15114667D02*
X11128333Y-15105143D01*
X11128333Y-15105143D02*
X11156905Y-15105143D01*
X11156905Y-15105143D02*
X11175952Y-15114667D01*
X11175952Y-15114667D02*
X11185476Y-15133714D01*
X11185476Y-15133714D02*
X11185476Y-15238476D01*
X11185476Y-15133714D02*
X11195000Y-15114667D01*
X11195000Y-15114667D02*
X11214048Y-15105143D01*
X11214048Y-15105143D02*
X11242619Y-15105143D01*
X11242619Y-15105143D02*
X11261667Y-15114667D01*
X11261667Y-15114667D02*
X11271190Y-15133714D01*
X11271190Y-15133714D02*
X11271190Y-15238476D01*
X11366429Y-15238476D02*
X11366429Y-15105143D01*
X11366429Y-15124190D02*
X11375952Y-15114667D01*
X11375952Y-15114667D02*
X11395000Y-15105143D01*
X11395000Y-15105143D02*
X11423571Y-15105143D01*
X11423571Y-15105143D02*
X11442619Y-15114667D01*
X11442619Y-15114667D02*
X11452143Y-15133714D01*
X11452143Y-15133714D02*
X11452143Y-15238476D01*
X11452143Y-15133714D02*
X11461667Y-15114667D01*
X11461667Y-15114667D02*
X11480714Y-15105143D01*
X11480714Y-15105143D02*
X11509286Y-15105143D01*
X11509286Y-15105143D02*
X11528333Y-15114667D01*
X11528333Y-15114667D02*
X11537857Y-15133714D01*
X11537857Y-15133714D02*
X11537857Y-15238476D01*
X11895952Y-15028952D02*
X11724524Y-15286095D01*
X12120714Y-15038476D02*
X12139762Y-15038476D01*
X12139762Y-15038476D02*
X12158810Y-15048000D01*
X12158810Y-15048000D02*
X12168333Y-15057524D01*
X12168333Y-15057524D02*
X12177857Y-15076571D01*
X12177857Y-15076571D02*
X12187381Y-15114667D01*
X12187381Y-15114667D02*
X12187381Y-15162286D01*
X12187381Y-15162286D02*
X12177857Y-15200381D01*
X12177857Y-15200381D02*
X12168333Y-15219428D01*
X12168333Y-15219428D02*
X12158810Y-15228952D01*
X12158810Y-15228952D02*
X12139762Y-15238476D01*
X12139762Y-15238476D02*
X12120714Y-15238476D01*
X12120714Y-15238476D02*
X12101667Y-15228952D01*
X12101667Y-15228952D02*
X12092143Y-15219428D01*
X12092143Y-15219428D02*
X12082619Y-15200381D01*
X12082619Y-15200381D02*
X12073095Y-15162286D01*
X12073095Y-15162286D02*
X12073095Y-15114667D01*
X12073095Y-15114667D02*
X12082619Y-15076571D01*
X12082619Y-15076571D02*
X12092143Y-15057524D01*
X12092143Y-15057524D02*
X12101667Y-15048000D01*
X12101667Y-15048000D02*
X12120714Y-15038476D01*
X12273095Y-15219428D02*
X12282619Y-15228952D01*
X12282619Y-15228952D02*
X12273095Y-15238476D01*
X12273095Y-15238476D02*
X12263571Y-15228952D01*
X12263571Y-15228952D02*
X12273095Y-15219428D01*
X12273095Y-15219428D02*
X12273095Y-15238476D01*
X12406429Y-15038476D02*
X12425476Y-15038476D01*
X12425476Y-15038476D02*
X12444524Y-15048000D01*
X12444524Y-15048000D02*
X12454048Y-15057524D01*
X12454048Y-15057524D02*
X12463571Y-15076571D01*
X12463571Y-15076571D02*
X12473095Y-15114667D01*
X12473095Y-15114667D02*
X12473095Y-15162286D01*
X12473095Y-15162286D02*
X12463571Y-15200381D01*
X12463571Y-15200381D02*
X12454048Y-15219428D01*
X12454048Y-15219428D02*
X12444524Y-15228952D01*
X12444524Y-15228952D02*
X12425476Y-15238476D01*
X12425476Y-15238476D02*
X12406429Y-15238476D01*
X12406429Y-15238476D02*
X12387381Y-15228952D01*
X12387381Y-15228952D02*
X12377857Y-15219428D01*
X12377857Y-15219428D02*
X12368333Y-15200381D01*
X12368333Y-15200381D02*
X12358810Y-15162286D01*
X12358810Y-15162286D02*
X12358810Y-15114667D01*
X12358810Y-15114667D02*
X12368333Y-15076571D01*
X12368333Y-15076571D02*
X12377857Y-15057524D01*
X12377857Y-15057524D02*
X12387381Y-15048000D01*
X12387381Y-15048000D02*
X12406429Y-15038476D01*
X12539762Y-15038476D02*
X12673095Y-15038476D01*
X12673095Y-15038476D02*
X12587381Y-15238476D01*
X12777857Y-15124190D02*
X12758810Y-15114667D01*
X12758810Y-15114667D02*
X12749286Y-15105143D01*
X12749286Y-15105143D02*
X12739762Y-15086095D01*
X12739762Y-15086095D02*
X12739762Y-15076571D01*
X12739762Y-15076571D02*
X12749286Y-15057524D01*
X12749286Y-15057524D02*
X12758810Y-15048000D01*
X12758810Y-15048000D02*
X12777857Y-15038476D01*
X12777857Y-15038476D02*
X12815952Y-15038476D01*
X12815952Y-15038476D02*
X12835000Y-15048000D01*
X12835000Y-15048000D02*
X12844524Y-15057524D01*
X12844524Y-15057524D02*
X12854048Y-15076571D01*
X12854048Y-15076571D02*
X12854048Y-15086095D01*
X12854048Y-15086095D02*
X12844524Y-15105143D01*
X12844524Y-15105143D02*
X12835000Y-15114667D01*
X12835000Y-15114667D02*
X12815952Y-15124190D01*
X12815952Y-15124190D02*
X12777857Y-15124190D01*
X12777857Y-15124190D02*
X12758810Y-15133714D01*
X12758810Y-15133714D02*
X12749286Y-15143238D01*
X12749286Y-15143238D02*
X12739762Y-15162286D01*
X12739762Y-15162286D02*
X12739762Y-15200381D01*
X12739762Y-15200381D02*
X12749286Y-15219428D01*
X12749286Y-15219428D02*
X12758810Y-15228952D01*
X12758810Y-15228952D02*
X12777857Y-15238476D01*
X12777857Y-15238476D02*
X12815952Y-15238476D01*
X12815952Y-15238476D02*
X12835000Y-15228952D01*
X12835000Y-15228952D02*
X12844524Y-15219428D01*
X12844524Y-15219428D02*
X12854048Y-15200381D01*
X12854048Y-15200381D02*
X12854048Y-15162286D01*
X12854048Y-15162286D02*
X12844524Y-15143238D01*
X12844524Y-15143238D02*
X12835000Y-15133714D01*
X12835000Y-15133714D02*
X12815952Y-15124190D01*
X12920714Y-15038476D02*
X13054048Y-15038476D01*
X13054048Y-15038476D02*
X12968333Y-15238476D01*
X13120714Y-15038476D02*
X13120714Y-15076571D01*
X13196905Y-15038476D02*
X13196905Y-15076571D01*
X13459762Y-15314667D02*
X13450238Y-15305143D01*
X13450238Y-15305143D02*
X13431191Y-15276571D01*
X13431191Y-15276571D02*
X13421667Y-15257524D01*
X13421667Y-15257524D02*
X13412143Y-15228952D01*
X13412143Y-15228952D02*
X13402619Y-15181333D01*
X13402619Y-15181333D02*
X13402619Y-15143238D01*
X13402619Y-15143238D02*
X13412143Y-15095619D01*
X13412143Y-15095619D02*
X13421667Y-15067048D01*
X13421667Y-15067048D02*
X13431191Y-15048000D01*
X13431191Y-15048000D02*
X13450238Y-15019428D01*
X13450238Y-15019428D02*
X13459762Y-15009905D01*
X13621667Y-15105143D02*
X13621667Y-15238476D01*
X13574048Y-15028952D02*
X13526429Y-15171809D01*
X13526429Y-15171809D02*
X13650238Y-15171809D01*
X13846429Y-15238476D02*
X13846429Y-15038476D01*
X13932143Y-15238476D02*
X13932143Y-15133714D01*
X13932143Y-15133714D02*
X13922619Y-15114667D01*
X13922619Y-15114667D02*
X13903572Y-15105143D01*
X13903572Y-15105143D02*
X13875000Y-15105143D01*
X13875000Y-15105143D02*
X13855952Y-15114667D01*
X13855952Y-15114667D02*
X13846429Y-15124190D01*
X14055952Y-15238476D02*
X14036905Y-15228952D01*
X14036905Y-15228952D02*
X14027381Y-15219428D01*
X14027381Y-15219428D02*
X14017857Y-15200381D01*
X14017857Y-15200381D02*
X14017857Y-15143238D01*
X14017857Y-15143238D02*
X14027381Y-15124190D01*
X14027381Y-15124190D02*
X14036905Y-15114667D01*
X14036905Y-15114667D02*
X14055952Y-15105143D01*
X14055952Y-15105143D02*
X14084524Y-15105143D01*
X14084524Y-15105143D02*
X14103572Y-15114667D01*
X14103572Y-15114667D02*
X14113095Y-15124190D01*
X14113095Y-15124190D02*
X14122619Y-15143238D01*
X14122619Y-15143238D02*
X14122619Y-15200381D01*
X14122619Y-15200381D02*
X14113095Y-15219428D01*
X14113095Y-15219428D02*
X14103572Y-15228952D01*
X14103572Y-15228952D02*
X14084524Y-15238476D01*
X14084524Y-15238476D02*
X14055952Y-15238476D01*
X14236905Y-15238476D02*
X14217857Y-15228952D01*
X14217857Y-15228952D02*
X14208333Y-15209905D01*
X14208333Y-15209905D02*
X14208333Y-15038476D01*
X14389286Y-15228952D02*
X14370238Y-15238476D01*
X14370238Y-15238476D02*
X14332143Y-15238476D01*
X14332143Y-15238476D02*
X14313095Y-15228952D01*
X14313095Y-15228952D02*
X14303572Y-15209905D01*
X14303572Y-15209905D02*
X14303572Y-15133714D01*
X14303572Y-15133714D02*
X14313095Y-15114667D01*
X14313095Y-15114667D02*
X14332143Y-15105143D01*
X14332143Y-15105143D02*
X14370238Y-15105143D01*
X14370238Y-15105143D02*
X14389286Y-15114667D01*
X14389286Y-15114667D02*
X14398810Y-15133714D01*
X14398810Y-15133714D02*
X14398810Y-15152762D01*
X14398810Y-15152762D02*
X14303572Y-15171809D01*
X14475000Y-15228952D02*
X14494048Y-15238476D01*
X14494048Y-15238476D02*
X14532143Y-15238476D01*
X14532143Y-15238476D02*
X14551191Y-15228952D01*
X14551191Y-15228952D02*
X14560714Y-15209905D01*
X14560714Y-15209905D02*
X14560714Y-15200381D01*
X14560714Y-15200381D02*
X14551191Y-15181333D01*
X14551191Y-15181333D02*
X14532143Y-15171809D01*
X14532143Y-15171809D02*
X14503572Y-15171809D01*
X14503572Y-15171809D02*
X14484524Y-15162286D01*
X14484524Y-15162286D02*
X14475000Y-15143238D01*
X14475000Y-15143238D02*
X14475000Y-15133714D01*
X14475000Y-15133714D02*
X14484524Y-15114667D01*
X14484524Y-15114667D02*
X14503572Y-15105143D01*
X14503572Y-15105143D02*
X14532143Y-15105143D01*
X14532143Y-15105143D02*
X14551191Y-15114667D01*
X14627381Y-15314667D02*
X14636905Y-15305143D01*
X14636905Y-15305143D02*
X14655953Y-15276571D01*
X14655953Y-15276571D02*
X14665476Y-15257524D01*
X14665476Y-15257524D02*
X14675000Y-15228952D01*
X14675000Y-15228952D02*
X14684524Y-15181333D01*
X14684524Y-15181333D02*
X14684524Y-15143238D01*
X14684524Y-15143238D02*
X14675000Y-15095619D01*
X14675000Y-15095619D02*
X14665476Y-15067048D01*
X14665476Y-15067048D02*
X14655953Y-15048000D01*
X14655953Y-15048000D02*
X14636905Y-15019428D01*
X14636905Y-15019428D02*
X14627381Y-15009905D01*
X14956905Y-15314667D02*
X14947381Y-15305143D01*
X14947381Y-15305143D02*
X14928333Y-15276571D01*
X14928333Y-15276571D02*
X14918810Y-15257524D01*
X14918810Y-15257524D02*
X14909286Y-15228952D01*
X14909286Y-15228952D02*
X14899762Y-15181333D01*
X14899762Y-15181333D02*
X14899762Y-15143238D01*
X14899762Y-15143238D02*
X14909286Y-15095619D01*
X14909286Y-15095619D02*
X14918810Y-15067048D01*
X14918810Y-15067048D02*
X14928333Y-15048000D01*
X14928333Y-15048000D02*
X14947381Y-15019428D01*
X14947381Y-15019428D02*
X14956905Y-15009905D01*
X15033095Y-15105143D02*
X15033095Y-15238476D01*
X15033095Y-15124190D02*
X15042619Y-15114667D01*
X15042619Y-15114667D02*
X15061667Y-15105143D01*
X15061667Y-15105143D02*
X15090238Y-15105143D01*
X15090238Y-15105143D02*
X15109286Y-15114667D01*
X15109286Y-15114667D02*
X15118810Y-15133714D01*
X15118810Y-15133714D02*
X15118810Y-15238476D01*
X15242619Y-15238476D02*
X15223572Y-15228952D01*
X15223572Y-15228952D02*
X15214048Y-15219428D01*
X15214048Y-15219428D02*
X15204524Y-15200381D01*
X15204524Y-15200381D02*
X15204524Y-15143238D01*
X15204524Y-15143238D02*
X15214048Y-15124190D01*
X15214048Y-15124190D02*
X15223572Y-15114667D01*
X15223572Y-15114667D02*
X15242619Y-15105143D01*
X15242619Y-15105143D02*
X15271191Y-15105143D01*
X15271191Y-15105143D02*
X15290238Y-15114667D01*
X15290238Y-15114667D02*
X15299762Y-15124190D01*
X15299762Y-15124190D02*
X15309286Y-15143238D01*
X15309286Y-15143238D02*
X15309286Y-15200381D01*
X15309286Y-15200381D02*
X15299762Y-15219428D01*
X15299762Y-15219428D02*
X15290238Y-15228952D01*
X15290238Y-15228952D02*
X15271191Y-15238476D01*
X15271191Y-15238476D02*
X15242619Y-15238476D01*
X15366429Y-15105143D02*
X15442619Y-15105143D01*
X15395000Y-15038476D02*
X15395000Y-15209905D01*
X15395000Y-15209905D02*
X15404524Y-15228952D01*
X15404524Y-15228952D02*
X15423572Y-15238476D01*
X15423572Y-15238476D02*
X15442619Y-15238476D01*
X15629286Y-15105143D02*
X15629286Y-15305143D01*
X15629286Y-15114667D02*
X15648333Y-15105143D01*
X15648333Y-15105143D02*
X15686429Y-15105143D01*
X15686429Y-15105143D02*
X15705476Y-15114667D01*
X15705476Y-15114667D02*
X15715000Y-15124190D01*
X15715000Y-15124190D02*
X15724524Y-15143238D01*
X15724524Y-15143238D02*
X15724524Y-15200381D01*
X15724524Y-15200381D02*
X15715000Y-15219428D01*
X15715000Y-15219428D02*
X15705476Y-15228952D01*
X15705476Y-15228952D02*
X15686429Y-15238476D01*
X15686429Y-15238476D02*
X15648333Y-15238476D01*
X15648333Y-15238476D02*
X15629286Y-15228952D01*
X15838810Y-15238476D02*
X15819762Y-15228952D01*
X15819762Y-15228952D02*
X15810238Y-15209905D01*
X15810238Y-15209905D02*
X15810238Y-15038476D01*
X16000714Y-15238476D02*
X16000714Y-15133714D01*
X16000714Y-15133714D02*
X15991191Y-15114667D01*
X15991191Y-15114667D02*
X15972143Y-15105143D01*
X15972143Y-15105143D02*
X15934048Y-15105143D01*
X15934048Y-15105143D02*
X15915000Y-15114667D01*
X16000714Y-15228952D02*
X15981667Y-15238476D01*
X15981667Y-15238476D02*
X15934048Y-15238476D01*
X15934048Y-15238476D02*
X15915000Y-15228952D01*
X15915000Y-15228952D02*
X15905476Y-15209905D01*
X15905476Y-15209905D02*
X15905476Y-15190857D01*
X15905476Y-15190857D02*
X15915000Y-15171809D01*
X15915000Y-15171809D02*
X15934048Y-15162286D01*
X15934048Y-15162286D02*
X15981667Y-15162286D01*
X15981667Y-15162286D02*
X16000714Y-15152762D01*
X16067381Y-15105143D02*
X16143572Y-15105143D01*
X16095953Y-15038476D02*
X16095953Y-15209905D01*
X16095953Y-15209905D02*
X16105476Y-15228952D01*
X16105476Y-15228952D02*
X16124524Y-15238476D01*
X16124524Y-15238476D02*
X16143572Y-15238476D01*
X16286429Y-15228952D02*
X16267381Y-15238476D01*
X16267381Y-15238476D02*
X16229286Y-15238476D01*
X16229286Y-15238476D02*
X16210238Y-15228952D01*
X16210238Y-15228952D02*
X16200714Y-15209905D01*
X16200714Y-15209905D02*
X16200714Y-15133714D01*
X16200714Y-15133714D02*
X16210238Y-15114667D01*
X16210238Y-15114667D02*
X16229286Y-15105143D01*
X16229286Y-15105143D02*
X16267381Y-15105143D01*
X16267381Y-15105143D02*
X16286429Y-15114667D01*
X16286429Y-15114667D02*
X16295953Y-15133714D01*
X16295953Y-15133714D02*
X16295953Y-15152762D01*
X16295953Y-15152762D02*
X16200714Y-15171809D01*
X16467381Y-15238476D02*
X16467381Y-15038476D01*
X16467381Y-15228952D02*
X16448334Y-15238476D01*
X16448334Y-15238476D02*
X16410238Y-15238476D01*
X16410238Y-15238476D02*
X16391191Y-15228952D01*
X16391191Y-15228952D02*
X16381667Y-15219428D01*
X16381667Y-15219428D02*
X16372143Y-15200381D01*
X16372143Y-15200381D02*
X16372143Y-15143238D01*
X16372143Y-15143238D02*
X16381667Y-15124190D01*
X16381667Y-15124190D02*
X16391191Y-15114667D01*
X16391191Y-15114667D02*
X16410238Y-15105143D01*
X16410238Y-15105143D02*
X16448334Y-15105143D01*
X16448334Y-15105143D02*
X16467381Y-15114667D01*
X16543572Y-15314667D02*
X16553095Y-15305143D01*
X16553095Y-15305143D02*
X16572143Y-15276571D01*
X16572143Y-15276571D02*
X16581667Y-15257524D01*
X16581667Y-15257524D02*
X16591191Y-15228952D01*
X16591191Y-15228952D02*
X16600714Y-15181333D01*
X16600714Y-15181333D02*
X16600714Y-15143238D01*
X16600714Y-15143238D02*
X16591191Y-15095619D01*
X16591191Y-15095619D02*
X16581667Y-15067048D01*
X16581667Y-15067048D02*
X16572143Y-15048000D01*
X16572143Y-15048000D02*
X16553095Y-15019428D01*
X16553095Y-15019428D02*
X16543572Y-15009905D01*
M02*
