M48
; DRILL file {KiCad (7.0.0)} date Wed Jul 19 17:41:18 2023
; FORMAT={-:-/ absolute / inch / decimal}
; #@! TF.CreationDate,2023-07-19T17:41:18-04:00
; #@! TF.GenerationSoftware,Kicad,Pcbnew,(7.0.0)
; #@! TF.FileFunction,MixedPlating,1,2
FMAT,2
INCH
; #@! TA.AperFunction,Plated,PTH,ComponentDrill
T1C0.0315
; #@! TA.AperFunction,Plated,PTH,ComponentDrill
T2C0.0354
; #@! TA.AperFunction,Plated,PTH,ComponentDrill
T3C0.0394
; #@! TA.AperFunction,Plated,PTH,ComponentDrill
T4C0.0433
; #@! TA.AperFunction,NonPlated,NPTH,ComponentDrill
T5C0.0433
; #@! TA.AperFunction,NonPlated,NPTH,ComponentDrill
T6C0.0787
%
G90
G05
T1
X5.4724Y-3.3433
X5.4724Y-3.7433
X5.7087Y-3.3433
X5.7087Y-3.7433
T2
X5.4724Y-3.1102
X5.4724Y-3.2102
X5.7087Y-3.1102
X5.7087Y-3.2102
T3
X4.2126Y-3.9669
X4.2126Y-4.5669
X4.2913Y-2.7953
X4.2913Y-2.8953
X4.2913Y-2.9953
X4.2913Y-3.0953
X4.2913Y-3.1953
X4.2913Y-3.2953
X4.2913Y-3.3953
X4.2913Y-3.4953
X4.3126Y-3.9669
X4.3126Y-4.5669
X4.4126Y-3.9669
X4.4126Y-4.5669
X4.4882Y-4.8031
X4.4882Y-5.0
X4.5126Y-3.9669
X4.5126Y-4.5669
X4.5882Y-4.8031
X4.5882Y-5.0
X4.6126Y-3.9669
X4.6126Y-4.5669
X4.6882Y-4.8031
X4.6882Y-5.0
X4.7126Y-3.9669
X4.7126Y-4.5669
X4.7882Y-4.8031
X4.7882Y-5.0
X4.8126Y-3.9669
X4.8126Y-4.5669
X4.9126Y-3.9669
X4.9126Y-4.5669
X5.0126Y-3.9669
X5.0126Y-4.5669
X5.0756Y-4.8031
X5.0787Y-5.0
X5.1126Y-3.9669
X5.1126Y-4.5669
X5.1756Y-4.8031
X5.1787Y-5.0
X5.1913Y-2.7953
X5.1913Y-2.8953
X5.1913Y-2.9953
X5.1913Y-3.0953
X5.1913Y-3.1953
X5.1913Y-3.2953
X5.1913Y-3.3953
X5.1913Y-3.4953
X5.2126Y-3.9669
X5.2126Y-4.5669
X5.2756Y-4.8031
X5.2787Y-5.0
X5.3126Y-3.9669
X5.3126Y-4.5669
X5.3756Y-4.8031
X5.3787Y-5.0
X5.4126Y-3.9669
X5.4126Y-4.5669
X5.5126Y-3.9669
X5.5126Y-4.5669
X5.6126Y-3.9669
X5.6126Y-4.5669
T4
X5.6693Y-2.8346
X5.6693Y-2.9346
T5
X5.7693Y-2.8346
X5.7693Y-2.9346
T6
X4.1339Y-2.6378
X4.1339Y-5.0
X5.7087Y-2.6378
X5.7087Y-5.0
T0
M30
